<svg id="圖層_1" data-name="圖層 1" xmlns="http://www.w3.org/2000/svg" viewBox="0 0 230 200"><defs><style>.cls-1{fill:#424242;}.cls-2{fill:#fff;}.cls-3{fill:#afafaf;}.cls-4{fill:#f4f4f4;}.cls-5{fill:#f8f8f8;}.cls-6{fill:#00ffa7;}.cls-7{fill:#ffda6a;}</style></defs><title>9</title><rect class="cls-1" x="66.11" y="68.19" width="97.66" height="118.4" rx="46.81"/><polyline class="cls-2" points="104.14 87.76 113.29 78.33 123.14 87.76 113.88 112.22"/><polygon class="cls-3" points="116.09 90.6 110.72 90.6 107.71 79.23 119.1 79.23 116.09 90.6"/><polygon class="cls-3" points="110.72 90.6 116.09 90.6 120.19 109.15 113.43 114.34 106.61 109.21 110.72 90.6"/><path class="cls-2" d="M137.23,34.29H137v-.17c0-21.13-10.56-23.54-23.57-23.54h0c-13,0-23.58-3.62-23.58,23.54v.17a7.95,7.95,0,0,0,.27,15.89h.27a23.58,23.58,0,0,0,12.5,16.08v2.67a10.54,10.54,0,0,0,21.07,0V66.26a23.59,23.59,0,0,0,12.51-16.11,6.79,6.79,0,0,0,.78,0,8,8,0,1,0,0-15.9Z"/><path class="cls-1" d="M113.41,80a11,11,0,0,1-11-11V66.56A23.9,23.9,0,0,1,90,50.69a8.45,8.45,0,0,1-.64-16.86c0-10.63,1.69-17.18,5.21-20.6s8.8-3.4,14.75-3.22c1.34,0,2.71.08,4.12.08,12.11,0,24,1.84,24.06,23.7a8.45,8.45,0,0,1-.24,16.9h-.39a23.89,23.89,0,0,1-12.4,15.88v2.37A11,11,0,0,1,113.41,80ZM90.76,49.66l.09.41a23,23,0,0,0,12.24,15.74l.28.14v3a10,10,0,0,0,20.07,0V66l.28-.14A22.93,22.93,0,0,0,136,50l.1-.43.44,0a6,6,0,0,0,.73,0,7.45,7.45,0,1,0,0-14.9l-.75,0v-.69c0-21.28-10.92-23-23.07-23-1.42,0-2.81,0-4.15-.08-5.73-.18-10.67-.33-14,2.93s-4.9,9.67-4.9,20.19v.66h-.48a7.45,7.45,0,0,0,.25,14.89Z"/><path class="cls-2" d="M114.11,78.74a1,1,0,0,0,0,1.42l6,6a1,1,0,0,0,1.41,0L131,76.77a1,1,0,0,0,0-1.41l-6-6a1,1,0,0,0-1.41,0Z"/><path class="cls-1" d="M120.85,86.85a1.36,1.36,0,0,1-1-.4l-6-6a1.38,1.38,0,0,1,0-1.94l9.43-9.42a1.38,1.38,0,0,1,1.94,0l6,6a1.4,1.4,0,0,1,.4,1,1.38,1.38,0,0,1-.4,1l-9.43,9.42A1.37,1.37,0,0,1,120.85,86.85Zm3.4-17.44a.62.62,0,0,0-.44.18L114.38,79h0a.6.6,0,0,0,0,.88l6,6a.64.64,0,0,0,.89,0l9.43-9.42a.65.65,0,0,0,.18-.44.67.67,0,0,0-.18-.44l-6-6A.62.62,0,0,0,124.25,69.41Zm-10.14,9.34h0Z"/><path class="cls-1" d="M126.55,70.17l13,12.93a1,1,0,0,1,0,1.41l-11,11a1,1,0,0,0,0,1.41l5.5,5.49a.69.69,0,0,1-.18,1.17l-20.35,10.73"/><path class="cls-2" d="M112.93,78.74a1,1,0,0,1,0,1.42l-6,6a1,1,0,0,1-1.42,0l-9.43-9.41a1,1,0,0,1,0-1.41l6-6a1,1,0,0,1,1.41,0Z"/><path class="cls-1" d="M106.19,86.85a1.36,1.36,0,0,1-1-.4L95.79,77a1.34,1.34,0,0,1-.4-1,1.35,1.35,0,0,1,.4-1l6-6a1.38,1.38,0,0,1,1.94,0l9.43,9.42a1.38,1.38,0,0,1,0,1.94l-6,6A1.36,1.36,0,0,1,106.19,86.85ZM102.8,69.41a.66.66,0,0,0-.45.18l-6,6a.62.62,0,0,0-.18.44.6.6,0,0,0,.18.44l9.43,9.42a.63.63,0,0,0,.88,0l6-6a.63.63,0,0,0,0-.88h0l-9.43-9.42A.62.62,0,0,0,102.8,69.41Z"/><path class="cls-1" d="M100.29,70.33l-13,12.93a1,1,0,0,0,0,1.41l11,11a1,1,0,0,1,0,1.41l-5.5,5.49a.69.69,0,0,0,.18,1.17l20.35,10.73"/><path class="cls-1" d="M128.69,97.18l5.27,5.26a.86.86,0,0,1-.08,1.32l-20.24,16"/><path class="cls-2" d="M113.64,120a.22.22,0,0,1-.19-.1.24.24,0,0,1,0-.35l20.24-16a.65.65,0,0,0,.25-.46.62.62,0,0,0-.2-.49l-5.26-5.26a.25.25,0,1,1,.35-.35l5.26,5.25a1.12,1.12,0,0,1,.34.87,1.08,1.08,0,0,1-.44.83l-20.23,16A.3.3,0,0,1,113.64,120Z"/><path class="cls-1" d="M128.12,71.74,139.5,83.1a1,1,0,0,1,0,1.41L127.75,96.24"/><path class="cls-2" d="M127.75,96.49a.26.26,0,0,1-.18-.07.26.26,0,0,1,0-.35l11.75-11.73a.75.75,0,0,0,0-1.06L127.94,71.92a.25.25,0,0,1,0-.36.26.26,0,0,1,.35,0l11.38,11.37a1.2,1.2,0,0,1,.37.88,1.22,1.22,0,0,1-.37.88L127.93,96.42A.26.26,0,0,1,127.75,96.49Z"/><path class="cls-1" d="M98.3,97.18l-5.42,5.42a.9.9,0,0,0,.05,1.35l18.34,15.79"/><path class="cls-2" d="M111.27,120a.27.27,0,0,1-.16-.06L92.77,104.14a1.16,1.16,0,0,1-.42-.84,1.21,1.21,0,0,1,.35-.88L98.13,97a.25.25,0,1,1,.35.35l-5.42,5.41a.67.67,0,0,0-.21.51.7.7,0,0,0,.24.49l18.35,15.78a.25.25,0,0,1,0,.35A.25.25,0,0,1,111.27,120Z"/><path class="cls-1" d="M98.37,72.25l-11,11a1,1,0,0,0,0,1.41L99.09,96.4"/><path class="cls-2" d="M99.09,96.65a.24.24,0,0,1-.18-.07L87.16,84.85A1.25,1.25,0,0,1,86.8,84a1.27,1.27,0,0,1,.36-.89l11-11a.25.25,0,1,1,.35.35l-11,11a.75.75,0,0,0,0,1.06L99.26,96.22a.25.25,0,0,1,0,.36A.23.23,0,0,1,99.09,96.65Z"/><rect class="cls-1" x="106.82" y="-17.07" width="17.56" height="51.66" rx="8.78" transform="translate(124.36 -106.84) rotate(90)"/><rect class="cls-1" x="131.7" y="12.15" width="9.77" height="23.61" rx="4.89"/><rect class="cls-1" x="84.88" y="12.15" width="9.77" height="23.61" rx="4.89"/><polyline class="cls-4" points="222.74 174.97 170.12 135.91 170.12 174.97"/><path class="cls-1" d="M222.74,175.48a.46.46,0,0,1-.29-.1l-51.84-38.47V175a.5.5,0,1,1-1,0V135.91a.5.5,0,0,1,.27-.45.49.49,0,0,1,.52,0L223,174.56a.52.52,0,0,1,.11.71A.49.49,0,0,1,222.74,175.48Z"/><polygon class="cls-4" points="59.22 135.83 59.22 174.89 6.59 174.89 59.22 135.83"/><path class="cls-1" d="M59.22,175.4H6.59a.5.5,0,0,1-.48-.35.53.53,0,0,1,.18-.57l52.63-39.06a.51.51,0,0,1,.52,0,.5.5,0,0,1,.27.45v39.06A.5.5,0,0,1,59.22,175.4Zm-51.11-1H58.72V136.83Z"/><polygon class="cls-2" points="229.45 169.68 224.29 165.82 221.59 163.71 221.48 163.71 184.36 135.91 170.69 135.91 207.81 163.71 21.98 163.71 59.2 135.83 45.54 135.83 0.45 169.6 0.67 169.6 0.45 169.75 229.35 169.75 229.25 169.68 229.45 169.68"/><path class="cls-1" d="M229.35,170.26H.45A.5.5,0,0,1,0,169.9a.41.41,0,0,1,0-.22.51.51,0,0,1,.19-.49l45.09-33.76a.47.47,0,0,1,.3-.1H59.21a.5.5,0,0,1,.47.35.51.51,0,0,1-.18.56l-36,27H206.3l-35.9-26.89a.51.51,0,0,1-.18-.56.5.5,0,0,1,.47-.35h13.67a.43.43,0,0,1,.29.1l37,27.7a.43.43,0,0,1,.24.1l2.7,2.1,5.16,3.86a.51.51,0,0,1,.17.57.5.5,0,0,1-.24.29A.51.51,0,0,1,229.35,170.26Zm-227.59-1H228l-4-3-2.59-2a.5.5,0,0,1-.23-.09l-37-27.7h-12l35.9,26.88a.53.53,0,0,1,.18.57.5.5,0,0,1-.48.35H22a.5.5,0,0,1-.48-.35.53.53,0,0,1,.18-.57l36-27h-12Z"/><rect class="cls-5" x="0.5" y="169.75" width="228.9" height="29.74"/><path class="cls-1" d="M229.4,200H.5a.5.5,0,0,1-.5-.51V169.75a.5.5,0,0,1,.5-.5H229.4a.5.5,0,0,1,.5.5v29.74A.5.5,0,0,1,229.4,200ZM1,199H228.9V170.26H1Z"/><path class="cls-1" d="M180,152.72h-3V113.9A47.07,47.07,0,0,0,163.5,80.69L152.26,69.26l2.11-2.15,11.24,11.43A50.09,50.09,0,0,1,180,113.9Z"/><path class="cls-1" d="M156.24,65.5a3.89,3.89,0,0,0-5.56,0,4,4,0,0,0,0,5.65,3.87,3.87,0,0,0,5.56,0A4.05,4.05,0,0,0,156.24,65.5Z"/><path class="cls-1" d="M52.3,152.72h-3V113.9A50.09,50.09,0,0,1,63.72,78.54L75,67.11l2.11,2.15L65.83,80.69A47.07,47.07,0,0,0,52.3,113.9Z"/><path class="cls-1" d="M78.65,71.15a4,4,0,0,0,0-5.65,3.89,3.89,0,0,0-5.56,0,4.05,4.05,0,0,0,0,5.65A3.87,3.87,0,0,0,78.65,71.15Z"/><path class="cls-6" d="M127.88,122.72a10.52,10.52,0,0,0-10.06,7.59,7.33,7.33,0,0,0-3.57-.93,7.41,7.41,0,0,0-6.51,3.9,13.43,13.43,0,0,0-25.45,4,10.4,10.4,0,0,0-7.27-3A10.56,10.56,0,0,0,64.56,144h0a7.39,7.39,0,0,0-5.89,3,12.09,12.09,0,0,0-1.21-.07,10.53,10.53,0,0,0-10.11,7.77,10.41,10.41,0,0,0-4-.8A10.54,10.54,0,0,0,32.9,163.2H197a10.52,10.52,0,0,0-10.08-7.68h-.2a7.34,7.34,0,0,0-10.38-.95,8.84,8.84,0,0,0-8.72-7.72,8.67,8.67,0,0,0-2.29.31c0-.1,0-.21,0-.31a12.5,12.5,0,0,0-12.42-12.58,12.13,12.13,0,0,0-4.28.78,7.4,7.4,0,0,0-5.72-2.72,7.31,7.31,0,0,0-4.57,1.6c0-.2,0-.39,0-.59A10.56,10.56,0,0,0,127.88,122.72Z"/><ellipse class="cls-7" cx="68.85" cy="143.43" rx="4.92" ry="4.98"/><ellipse class="cls-7" cx="100.24" cy="155.36" rx="4.92" ry="4.98"/><ellipse class="cls-7" cx="131.1" cy="135.83" rx="4.92" ry="4.98"/><ellipse class="cls-7" cx="145.74" cy="152.72" rx="4.92" ry="4.98"/><ellipse class="cls-7" cx="159.69" cy="143.43" rx="4.92" ry="4.98"/></svg>