<svg id="圖層_1" data-name="圖層 1" xmlns="http://www.w3.org/2000/svg" viewBox="0 0 230 200"><defs><style>.cls-1{fill:#fff;}.cls-2{fill:#424242;}.cls-3{fill:#ffda6a;}.cls-4{fill:#2caff5;}.cls-5{fill:#00ffa7;}.cls-6{fill:#525252;}</style></defs><title>7</title><rect class="cls-1" x="13.84" y="10.41" width="137.35" height="179.18" transform="translate(16.16 -11.38) rotate(8.75)"/><path class="cls-2" d="M136.76,200h-.15L.86,179.1a1,1,0,0,1-.66-.4A1,1,0,0,1,0,178L27.26.86A1,1,0,0,1,28.41,0L164.16,20.89a1,1,0,0,1,.66.41,1,1,0,0,1,.19.75L137.76,199.14A1,1,0,0,1,136.76,200ZM2.17,177.26l133.75,20.57L162.85,22.74,29.1,2.16Z"/><line class="cls-1" x1="77.5" y1="174.06" x2="55.65" y2="170.7"/><path class="cls-2" d="M77.5,174.56h-.07L55.57,171.2a.5.5,0,0,1-.42-.58.49.49,0,0,1,.57-.42l21.86,3.36a.49.49,0,0,1,.42.57A.5.5,0,0,1,77.5,174.56Z"/><rect class="cls-3" x="17.62" y="124.32" width="26.71" height="39.67" transform="translate(22.28 -3.03) rotate(8.75)"/><line class="cls-1" x1="95.22" y1="176.78" x2="86.11" y2="175.38"/><path class="cls-2" d="M95.22,177.29h-.08l-9.1-1.4a.51.51,0,0,1-.43-.57.51.51,0,0,1,.58-.43l9.1,1.4a.51.51,0,0,1-.07,1Z"/><polyline class="cls-1" points="146.47 59.8 127.71 181.78 90.04 175.99"/><path class="cls-2" d="M127.71,182.29h-.08L90,176.49a.52.52,0,0,1-.42-.58.5.5,0,0,1,.58-.42l37.17,5.72,19-123.84a.52.52,0,0,1,.58-.42.5.5,0,0,1,.42.58l-19.1,124.33a.5.5,0,0,1-.2.33A.54.54,0,0,1,127.71,182.29Z"/><polyline class="cls-1" points="73.75 23.75 150.21 35.51 147.96 50.18"/><path class="cls-2" d="M148,50.68h-.08a.5.5,0,0,1-.42-.58l2.17-14.17-76-11.68a.51.51,0,0,1-.42-.58.5.5,0,0,1,.58-.42L150.29,35a.51.51,0,0,1,.42.58l-2.26,14.66A.5.5,0,0,1,148,50.68Z"/><rect class="cls-4" x="33.07" y="23.9" width="26.71" height="39.67" transform="translate(7.19 -6.55) rotate(8.75)"/><path class="cls-1" d="M43.75,49.1a1.19,1.19,0,0,1-.61.84,1.64,1.64,0,0,1-1.11.22,1.39,1.39,0,0,1-1.25-1l-1.11-3.59-2.13,3.09a1.35,1.35,0,0,1-1.42.59,1.81,1.81,0,0,1-1.07-.54,1.12,1.12,0,0,1-.33-1,1.43,1.43,0,0,1,.26-.6l3.53-5-1.78-5.52a1.17,1.17,0,0,1-.07-.61,1.12,1.12,0,0,1,.65-.85,1.86,1.86,0,0,1,1.19-.19,1.31,1.31,0,0,1,1.13,1l1,3.17,2-2.71a1.37,1.37,0,0,1,1.46-.6,1.66,1.66,0,0,1,1,.55,1.18,1.18,0,0,1,.32,1,1.19,1.19,0,0,1-.25.57l-3.36,4.72,1.85,5.88A1.36,1.36,0,0,1,43.75,49.1Z"/><path class="cls-1" d="M54.11,50.7a1.19,1.19,0,0,1-.61.84,1.7,1.7,0,0,1-1.11.22,1.41,1.41,0,0,1-1.25-1L50,47.17,47.9,50.26a1.37,1.37,0,0,1-1.42.59,2,2,0,0,1-1.08-.54,1.15,1.15,0,0,1-.32-1,1.41,1.41,0,0,1,.26-.61l3.53-5.05-1.78-5.51a1.17,1.17,0,0,1-.07-.61,1.12,1.12,0,0,1,.65-.85,1.79,1.79,0,0,1,1.19-.19,1.29,1.29,0,0,1,1.13,1l1,3.16,2-2.7a1.37,1.37,0,0,1,1.46-.6,1.66,1.66,0,0,1,1,.55,1.17,1.17,0,0,1,.32,1,1.22,1.22,0,0,1-.25.56l-3.36,4.73L54,50A1.4,1.4,0,0,1,54.11,50.7Z"/><rect class="cls-5" x="25.26" y="74.61" width="26.71" height="39.67" transform="translate(14.81 -4.77) rotate(8.75)"/><path class="cls-1" d="M37.4,100a1.12,1.12,0,0,1-.6.83,1.73,1.73,0,0,1-1.11.23,1.45,1.45,0,0,1-1.26-1l-1.1-3.59-2.14,3.09a1.35,1.35,0,0,1-1.41.59,2,2,0,0,1-1.08-.54,1.16,1.16,0,0,1-.32-1,1.43,1.43,0,0,1,.26-.6l3.53-5-1.78-5.51a1.18,1.18,0,0,1-.07-.61A1.1,1.1,0,0,1,31,86a1.86,1.86,0,0,1,1.19-.2,1.32,1.32,0,0,1,1.13,1l1.05,3.16,1.94-2.7a1.4,1.4,0,0,1,1.47-.61,1.7,1.7,0,0,1,1,.56,1.17,1.17,0,0,1,.32,1,1.22,1.22,0,0,1-.25.56l-3.36,4.73,1.85,5.87A1.53,1.53,0,0,1,37.4,100Z"/><path class="cls-1" d="M47.76,101.59a1.15,1.15,0,0,1-.6.84,1.66,1.66,0,0,1-1.11.22,1.41,1.41,0,0,1-1.26-1l-1.1-3.59-2.14,3.09a1.32,1.32,0,0,1-1.41.59,1.86,1.86,0,0,1-1.08-.54,1.14,1.14,0,0,1-.32-1,1.43,1.43,0,0,1,.26-.6l3.53-5L40.75,89a1.21,1.21,0,0,1-.07-.62,1.12,1.12,0,0,1,.65-.85,1.86,1.86,0,0,1,1.19-.19,1.32,1.32,0,0,1,1.13,1l1,3.17,2-2.7a1.38,1.38,0,0,1,1.46-.61,1.7,1.7,0,0,1,1,.56,1.16,1.16,0,0,1,.32,1,1.26,1.26,0,0,1-.25.56l-3.36,4.72,1.85,5.88A1.48,1.48,0,0,1,47.76,101.59Z"/><path class="cls-1" d="M29.47,150.2a1.15,1.15,0,0,1-.6.84,1.71,1.71,0,0,1-1.11.22,1.43,1.43,0,0,1-1.26-1l-1.1-3.59-2.13,3.09a1.35,1.35,0,0,1-1.42.59,1.92,1.92,0,0,1-1.08-.54,1.14,1.14,0,0,1-.32-1,1.41,1.41,0,0,1,.26-.61l3.53-5-1.78-5.52a1.17,1.17,0,0,1-.07-.61,1.1,1.1,0,0,1,.65-.85,1.79,1.79,0,0,1,1.19-.19,1.3,1.3,0,0,1,1.13,1l1.05,3.17,1.95-2.71a1.37,1.37,0,0,1,1.46-.6,1.69,1.69,0,0,1,1,.55,1.18,1.18,0,0,1,.32,1,1.3,1.3,0,0,1-.25.57l-3.36,4.72,1.85,5.88A1.35,1.35,0,0,1,29.47,150.2Z"/><path class="cls-1" d="M39.83,151.8a1.12,1.12,0,0,1-.6.83,1.67,1.67,0,0,1-1.11.23,1.43,1.43,0,0,1-1.26-1l-1.1-3.59-2.14,3.09a1.35,1.35,0,0,1-1.41.59,2,2,0,0,1-1.08-.54,1.16,1.16,0,0,1-.32-1,1.43,1.43,0,0,1,.26-.6l3.53-5.05-1.78-5.51a1.18,1.18,0,0,1-.07-.61,1.13,1.13,0,0,1,.65-.86,1.92,1.92,0,0,1,1.19-.19,1.31,1.31,0,0,1,1.13,1l1.05,3.16,1.95-2.7a1.38,1.38,0,0,1,1.46-.61,1.7,1.7,0,0,1,1,.56,1.17,1.17,0,0,1,.32,1,1.22,1.22,0,0,1-.25.56l-3.36,4.73,1.85,5.87A1.53,1.53,0,0,1,39.83,151.8Z"/><path class="cls-1" d="M66.24,48a8.6,8.6,0,1,0-8.39-1.29A11.54,11.54,0,0,0,49,56.17l-1,6.37,22.85,3.51,1-6.36A11.54,11.54,0,0,0,66.24,48Z"/><path class="cls-4" d="M68.66,49.86l-7.88,5.78L55,47.74a11.49,11.49,0,0,0-6,8.43l-1,6.37,22.85,3.51,1-6.36A11.51,11.51,0,0,0,68.66,49.86Z"/><path class="cls-2" d="M71.28,66.63,47.43,63l1.06-6.87a12,12,0,0,1,8.32-9.67A9.11,9.11,0,1,1,67.31,48a12,12,0,0,1,5,11.73Zm-22.7-4.51,21.86,3.36.9-5.87A11,11,0,0,0,66,48.4l-.92-.54,1-.37a8.1,8.1,0,1,0-7.9-1.22l.83.66-1,.23a11,11,0,0,0-8.47,9.09Z"/><path class="cls-2" d="M119.37,59.41l-5-.77,1.23-8,5,.77Zm-8-1.23-5-.77,1.24-8,5,.77Zm-8-1.23-5-.77,1.23-8,5,.77Zm-8-1.23-5-.77,1.23-8,5,.77Zm-8-1.23-5-.77,1.23-8,5,.77Z"/><path class="cls-2" d="M111.92,107.84l-5-.77,1.23-8,5,.76Zm-8-1.23-5-.77,1.23-8,5,.77Zm-8-1.23-5-.77,1.23-8,5,.77Zm-8-1.23-5-.77,1.23-8,5,.77Zm-8-1.23-5-.77,1.23-8,5,.77Z"/><path class="cls-2" d="M104.2,158l-5-.76,1.23-8,5,.77Zm-8-1.23-5-.76,1.23-8,5,.77Zm-8-1.23-5-.77,1.23-8,5,.77Zm-8-1.23-5-.76,1.23-8,5,.77Zm-8-1.23-5-.77,1.23-8,5,.77Z"/><path class="cls-1" d="M48.57,144.76a7.89,7.89,0,0,0,9-6.59l.42-2.74a7.88,7.88,0,0,0-6.58-9l-.45-.07A7.88,7.88,0,0,0,42,133l-.42,2.75a7.88,7.88,0,0,0,6.58,9Z"/><path class="cls-2" d="M58.83,97.27l-6.22-1c-5.33-.82-8.78-3.16-8-8.49h0C45.47,82.49,55.58,77,55.58,77l6.22,1s7.63,8.07,6.81,13.4h0C67.79,96.69,64.16,98.09,58.83,97.27Z"/><path class="cls-1" d="M51.69,95a11.56,11.56,0,0,0-8.86,9.51l-1,6.37,22.85,3.51,1-6.37a11.54,11.54,0,0,0-5.6-11.72"/><path class="cls-5" d="M62.5,98.23,54.62,104l-5.79-7.89a11.52,11.52,0,0,0-6,8.43l-1,6.37,22.85,3.51,1-6.37A11.5,11.5,0,0,0,62.5,98.23Z"/><path class="cls-2" d="M65.13,115l-23.86-3.67,1.06-6.87a12,12,0,0,1,9.25-9.92l.23,1a11,11,0,0,0-8.48,9.09l-.9,5.86,21.85,3.36.9-5.86a11,11,0,0,0-5.35-11.22l.51-.87a12,12,0,0,1,5.84,12.24Z"/><rect class="cls-1" x="48.6" y="77.37" width="17.21" height="19.54" rx="8.28" transform="translate(13.91 -7.69) rotate(8.75)"/><path class="cls-2" d="M57.22,97.43a8.78,8.78,0,0,1-1.35-.11h0l-.45-.07A8.88,8.88,0,0,1,48,87.12l.42-2.75a8.9,8.9,0,0,1,10.13-7.43L59,77a8.9,8.9,0,0,1,7.43,10.14L66,89.89A8.91,8.91,0,0,1,57.22,97.43ZM56,96.32a7.87,7.87,0,0,0,9-6.58L65.42,87a7.88,7.88,0,0,0-6.58-9l-.45-.07a7.89,7.89,0,0,0-9,6.59L49,87.27a7.86,7.86,0,0,0,6.58,9Z"/><path class="cls-2" d="M48.7,85.82S60.84,88.7,62.34,79l-3.65-1.48L53,78.58l-3,3.07Z"/><path class="cls-1" d="M44.24,143.48a11.54,11.54,0,0,0-8.86,9.5l-1,6.37,22.85,3.51,1-6.36a11.54,11.54,0,0,0-5.6-11.73"/><path class="cls-3" d="M55.05,146.67l-7.88,5.78-5.79-7.9a11.51,11.51,0,0,0-6,8.43l-1,6.37,22.85,3.51,1-6.36A11.49,11.49,0,0,0,55.05,146.67Z"/><path class="cls-2" d="M57.67,163.44l-23.85-3.67,1.06-6.86A12,12,0,0,1,44.13,143l.22,1a11,11,0,0,0-8.47,9.09l-.9,5.87,21.85,3.36.9-5.87a11,11,0,0,0-5.35-11.21l.51-.88a12,12,0,0,1,5.84,12.25Z"/><path class="cls-2" d="M49.77,145.86a8.76,8.76,0,0,1-1.35-.1h0l-.44-.07a8.9,8.9,0,0,1-7.43-10.14l.42-2.74a8.89,8.89,0,0,1,10.13-7.43l.45.07A8.9,8.9,0,0,1,59,135.58l-.42,2.75A8.91,8.91,0,0,1,49.77,145.86Zm-1.2-1.1a7.89,7.89,0,0,0,9-6.59l.42-2.74a7.88,7.88,0,0,0-6.58-9l-.45-.07A7.88,7.88,0,0,0,42,133l-.42,2.75a7.88,7.88,0,0,0,6.58,9Z"/><path class="cls-2" d="M42.3,131.3s4.69-.07,5.58-5.9C47.88,125.4,43.16,125.69,42.3,131.3Z"/><path class="cls-2" d="M58.26,136.88s-11.88-6.77-10.38-11.48C47.88,125.4,60.58,125.4,58.26,136.88Z"/><path class="cls-1" d="M210.18,138.8h14.88a4.17,4.17,0,0,1,4.17,4.17v4.17a3.88,3.88,0,0,1-3.88,3.88H210.18a2.81,2.81,0,0,1-2.81-2.81v-6.61a2.81,2.81,0,0,1,2.81-2.81Z" transform="translate(49.88 -55.81) rotate(16.42)"/><path class="cls-6" d="M224.42,153.42a4.48,4.48,0,0,1-1.24-.18L208.64,149a3.31,3.31,0,0,1-2.24-4.11l1.87-6.34a3.31,3.31,0,0,1,4.11-2.24l14.27,4.21a4.66,4.66,0,0,1,3.16,5.79l-1.18,4A4.39,4.39,0,0,1,224.42,153.42Zm-13-16.29a2.32,2.32,0,0,0-2.21,1.66l-1.87,6.34a2.31,2.31,0,0,0,1.56,2.87l14.55,4.28a3.39,3.39,0,0,0,4.2-2.29l1.18-4a3.67,3.67,0,0,0-2.48-4.55h0l-14.27-4.21A2.51,2.51,0,0,0,211.44,137.13Z"/><polygon class="cls-1" points="185.58 193.04 165.94 187.25 193.16 131.12 212.81 136.91 185.58 193.04"/><path class="cls-6" d="M185.58,194a.9.9,0,0,1-.28,0l-19.65-5.79a1,1,0,0,1-.63-.56,1,1,0,0,1,0-.84l27.22-56.13a1,1,0,0,1,1.18-.52L213.09,136a1,1,0,0,1,.63.55,1,1,0,0,1,0,.84l-27.23,56.14A1,1,0,0,1,185.58,194Zm-18.23-7.42,17.7,5.22,26.34-54.31-17.7-5.22Z"/><path class="cls-1" d="M210.31,156.7a6,6,0,0,1-1.73-.25l-19.26-5.68,7.56-25.64,19,5.6a6.37,6.37,0,0,1,4.31,7.91l-4,13.69a6.13,6.13,0,0,1-5.84,4.37Z"/><path class="cls-6" d="M197.56,126.37l18,5.32a5.39,5.39,0,0,1,3.63,6.67l-4,13.69a5.11,5.11,0,0,1-4.88,3.65,5,5,0,0,1-1.44-.21l-18.3-5.39,7-23.73m-1.35-2.48-8.13,27.56,20.22,6a7.09,7.09,0,0,0,8.81-4.8l4-13.68a7.39,7.39,0,0,0-5-9.16l-19.95-5.88Z"/><circle class="cls-1" cx="126.46" cy="116.16" r="16.43"/><path class="cls-6" d="M126.45,133.09a17.14,17.14,0,0,1-4.77-.69,16.92,16.92,0,1,1,4.77.69Zm0-32.87a15.93,15.93,0,1,0,4.5.65A16,16,0,0,0,126.47,100.22Z"/><polygon class="cls-3" points="137.01 78.88 198.58 124.6 190.46 152.15 114.5 155.26 137.01 78.88"/><rect class="cls-1" x="120.09" y="75.7" width="10.92" height="84.14" rx="3.59" transform="translate(38.42 -30.69) rotate(16.42)"/><path class="cls-6" d="M116.46,159.8a4.5,4.5,0,0,1-1.3-.19h0l-3.58-1.05a4.59,4.59,0,0,1-3.11-5.71L130.23,79a4.61,4.61,0,0,1,5.71-3.11L139.51,77a4.59,4.59,0,0,1,3.11,5.71l-21.76,73.81a4.52,4.52,0,0,1-2.21,2.73A4.46,4.46,0,0,1,116.46,159.8Zm-.74-2.1a2.62,2.62,0,0,0,2-.21,2.56,2.56,0,0,0,1.24-1.55L140.7,82.13A2.59,2.59,0,0,0,139,78.91l-3.58-1.06a2.6,2.6,0,0,0-3.22,1.76l-21.76,73.81a2.59,2.59,0,0,0,1.75,3.22Z"/><line class="cls-1" x1="198.87" y1="134.32" x2="212.13" y2="138.22"/><path class="cls-6" d="M212.13,138.73a.32.32,0,0,1-.14,0l-13.26-3.9a.51.51,0,0,1-.34-.62.5.5,0,0,1,.62-.34l13.26,3.91a.5.5,0,0,1,.34.62A.52.52,0,0,1,212.13,138.73Z"/><line class="cls-1" x1="197.55" y1="138.79" x2="210.81" y2="142.7"/><path class="cls-6" d="M210.81,143.2l-.14,0-13.26-3.91a.5.5,0,1,1,.28-1L211,142.22a.5.5,0,0,1-.14,1Z"/><line class="cls-1" x1="196.23" y1="143.27" x2="209.49" y2="147.18"/><path class="cls-6" d="M209.49,147.68l-.14,0-13.26-3.91a.51.51,0,0,1-.34-.62.5.5,0,0,1,.63-.34l13.25,3.91a.5.5,0,0,1,.34.62A.51.51,0,0,1,209.49,147.68Z"/><path class="cls-1" d="M189.37,129.49a1,1,0,0,1-.58-.18L142.4,96.43a1,1,0,1,1,1.15-1.63L190,127.68a1,1,0,0,1,.24,1.39A1,1,0,0,1,189.37,129.49Z"/><path class="cls-1" d="M187.74,135a1,1,0,0,1-.57-.18L156,112.92a1,1,0,0,1-.24-1.39,1,1,0,0,1,1.39-.25l31.21,21.87a1,1,0,0,1-.58,1.82Z"/></svg>