<svg id="圖層_1" data-name="圖層 1" xmlns="http://www.w3.org/2000/svg" viewBox="0 0 598 296"><defs><style>.cls-1{fill:#424242;}.cls-2{fill:#fff;}.cls-3{fill:#ffda6a;}.cls-4{fill:#f4f4f4;}.cls-5{fill:#f8f8f8;}.cls-6{fill:#00ffa7;}.cls-7{fill:none;stroke:#fff;stroke-miterlimit:10;}</style></defs><title>8</title><rect class="cls-1" x="245.12" y="115.42" width="107.83" height="132.57" rx="51.77"/><polyline class="cls-2" points="287.12 137.33 297.21 126.76 308.1 137.33 297.87 164.71"/><polygon class="cls-3" points="300.31 140.5 294.37 140.5 291.05 127.77 303.63 127.77 300.31 140.5"/><polygon class="cls-3" points="294.37 140.5 300.31 140.5 304.83 161.27 297.37 167.09 289.83 161.34 294.37 140.5"/><path class="cls-1" d="M281.92,48.45h.41V90.58h0a15.8,15.8,0,0,1-15.8-15.78v-11A15.39,15.39,0,0,1,281.92,48.45Z"/><path class="cls-1" d="M289.9,37.39h4.55A32.6,32.6,0,0,1,327,70V81.05a7.74,7.74,0,0,1-7.74,7.74H285.12a7.74,7.74,0,0,1-7.74-7.74V49.89a12.5,12.5,0,0,1,12.5-12.5Z"/><path class="cls-2" d="M271.31,77.28v.19a8.89,8.89,0,1,0,.3,17.78h.3a26.31,26.31,0,0,0,13.86,18v3A11.63,11.63,0,1,0,309,117.68a11.37,11.37,0,0,0,0-1.43v-3a26.36,26.36,0,0,0,13.81-18,6.31,6.31,0,0,0,.87,0,8.9,8.9,0,0,0,0-17.8h-.3"/><path class="cls-1" d="M297.34,128.58a12.26,12.26,0,0,1-12.16-12.33v-2.66a26.67,26.67,0,0,1-13.71-17.77,9.46,9.46,0,0,1-.17-18.91v.37h.55V78h-.53a8.34,8.34,0,0,0,.28,16.67h.73l.1.45a25.63,25.63,0,0,0,13.51,17.63l.31.16v3.31a11.06,11.06,0,0,0,22.12,0v-3.31l.3-.16a25.64,25.64,0,0,0,13.53-17.7l.1-.48h.48c.27,0,.55,0,.82,0a8.34,8.34,0,1,0,0-16.68h-.23V76.79h.31a9.47,9.47,0,0,1,0,18.93h-.43a26.74,26.74,0,0,1-13.71,17.78v2.66a12.26,12.26,0,0,1-12.11,12.42Z"/><path class="cls-2" d="M298.12,127.23a1.1,1.1,0,0,0,0,1.56l0,0,6.63,6.75a1.1,1.1,0,0,0,1.56,0L316.73,125a1.11,1.11,0,0,0,0-1.57l0,0-6.63-6.74a1.1,1.1,0,0,0-1.56,0Z"/><path class="cls-1" d="M305.56,136.31a1.46,1.46,0,0,1-1.1-.45l-6.64-6.75a1.61,1.61,0,0,1,0-2.21h0l10.41-10.54a1.48,1.48,0,0,1,2.12,0l0,0L317,123.1a1.57,1.57,0,0,1,0,2.21h0l-10.37,10.52A1.52,1.52,0,0,1,305.56,136.31Zm-7.14-8.78a.67.67,0,0,0-.21.49.65.65,0,0,0,.21.49l6.63,6.75a.68.68,0,0,0,1,0h0l10.43-10.49a.67.67,0,0,0,.2-.48.7.7,0,0,0-.2-.5L309.83,117a.67.67,0,0,0-.95,0l0,0Z"/><path class="cls-1" d="M311.86,117.64l14.3,14.47a1.1,1.1,0,0,1,0,1.56v0L314,146a1.12,1.12,0,0,0,0,1.57h0l6.08,6.15a.78.78,0,0,1,.07,1.11.79.79,0,0,1-.27.2l-22.47,12"/><path class="cls-2" d="M296.83,127.23a1.1,1.1,0,0,1,0,1.56v0l-6.64,6.75a1.1,1.1,0,0,1-1.56,0L278.22,125a1.12,1.12,0,0,1,0-1.57v0l6.64-6.74a1.1,1.1,0,0,1,1.56,0Z"/><path class="cls-1" d="M289.38,136.31a1.46,1.46,0,0,1-1.1-.45l-10.42-10.55a1.55,1.55,0,0,1,0-2.2h0l6.63-6.74a1.49,1.49,0,0,1,2.13,0l0,0L297.11,127h0a1.59,1.59,0,0,1,0,2.22l-6.63,6.74A1.48,1.48,0,0,1,289.38,136.31Zm-3.75-19.53a.63.63,0,0,0-.48.21l-6.64,6.74a.74.74,0,0,0-.2.5.7.7,0,0,0,.2.49l10.41,10.54a.68.68,0,0,0,1,0h0l6.64-6.75a.69.69,0,0,0,.21-.49.71.71,0,0,0-.21-.49L286.12,117A.67.67,0,0,0,285.63,116.78Z"/><path class="cls-1" d="M282.86,117.82l-14.29,14.46a1.11,1.11,0,0,0,0,1.57h0l12.16,12.35a1.1,1.1,0,0,1,0,1.56l0,0-6,6.15a.78.78,0,0,0-.1,1.11.94.94,0,0,0,.28.21l22.48,12"/><path class="cls-1" d="M314.22,147.88l5.82,5.88a1,1,0,0,1,0,1.39.28.28,0,0,1-.1.09L297.6,173.13"/><path class="cls-2" d="M297.6,173.44a.33.33,0,0,1-.21-.11.27.27,0,0,1,0-.38h0l22.34-17.89a.69.69,0,0,0,.21-1,.73.73,0,0,0-.14-.16L314,148.06a.3.3,0,0,1,0-.4.27.27,0,0,1,.39,0h0l5.8,5.88a1.28,1.28,0,0,1,0,1.8l-.12.1-22.34,17.89A.28.28,0,0,1,297.6,173.44Z"/><path class="cls-1" d="M313.59,119.39l12.57,12.72a1.1,1.1,0,0,1,0,1.56v0l-13,13.14"/><path class="cls-2" d="M313.18,147.1a.32.32,0,0,1-.2-.08.29.29,0,0,1,0-.39l13-13.14a.85.85,0,0,0,0-1.18l-12.55-12.72a.28.28,0,0,1,0-.4h0a.29.29,0,0,1,.39,0l12.57,12.73a1.34,1.34,0,0,1,.4,1,1.36,1.36,0,0,1-.4,1l-13,13.13A.24.24,0,0,1,313.18,147.1Z"/><path class="cls-1" d="M280.67,147.88l-6,6.06a1,1,0,0,0-.08,1.44l.08.07L295,173.15"/><path class="cls-2" d="M295,173.44a.24.24,0,0,1-.18-.07l-20.26-17.69a1.28,1.28,0,0,1-.45-.94,1.3,1.3,0,0,1,.38-1l6-6.06a.28.28,0,0,1,.39,0h0a.3.3,0,0,1,0,.4l-6,6.06a.74.74,0,0,0-.22.56.75.75,0,0,0,.27.55L295.18,173a.27.27,0,0,1,0,.39h0A.28.28,0,0,1,295,173.44Z"/><path class="cls-1" d="M280.73,120l-12.16,12.32a1.11,1.11,0,0,0,0,1.57h0l13,13.14"/><path class="cls-2" d="M281.53,147.28a.27.27,0,0,1-.19-.08l-13-13.14a1.34,1.34,0,0,1-.4-1,1.36,1.36,0,0,1,.4-1l12.16-12.33a.28.28,0,0,1,.38,0h0a.28.28,0,0,1,0,.39h0l-12.16,12.36a.84.84,0,0,0,0,1.19l13,13.1a.29.29,0,0,1,0,.39A.32.32,0,0,1,281.53,147.28Z"/><path class="cls-2" d="M323.6,77.46v-3a26.2,26.2,0,0,0-26-26.36h0a26.21,26.21,0,0,0-26,26.36V77.5"/><path class="cls-1" d="M272.1,78.06H271V74.44a26.58,26.58,0,1,1,53.15,0V78H323V74.44a25.48,25.48,0,0,0-51,0Z"/><polyline class="cls-4" points="418.19 230.92 360 187.72 360 230.92"/><path class="cls-1" d="M418.19,231.49a.51.51,0,0,1-.32-.12l-57.33-42.55V231a.56.56,0,1,1-1.11,0V187.72a.58.58,0,0,1,.3-.5.55.55,0,0,1,.58,0l58.17,43.25a.56.56,0,0,1,.12.78A.55.55,0,0,1,418.19,231.49Z"/><polygon class="cls-4" points="237.35 187.63 237.35 230.83 179.14 230.83 237.35 187.63"/><path class="cls-1" d="M237.35,231.4H179.14a.56.56,0,0,1-.53-.39.59.59,0,0,1,.2-.63l58.2-43.2a.55.55,0,0,1,.58,0,.56.56,0,0,1,.3.49v43.21A.57.57,0,0,1,237.35,231.4Zm-56.53-1.11h56V188.74Z"/><polygon class="cls-2" points="425.62 225.07 419.91 220.8 416.92 218.47 416.8 218.47 375.75 187.72 360.63 187.72 401.68 218.47 196.16 218.47 237.32 187.63 222.22 187.63 172.35 224.98 172.59 224.98 172.35 225.15 425.5 225.15 425.39 225.07 425.62 225.07"/><path class="cls-1" d="M425.51,225.71H172.35a.53.53,0,0,1-.5-.4.49.49,0,0,1,0-.24.56.56,0,0,1,.21-.54l49.87-37.34a.44.44,0,0,1,.33-.11h15.07a.56.56,0,0,1,.33,1L197.84,218H400l-39.7-29.74a.58.58,0,0,1-.2-.62.55.55,0,0,1,.52-.39h15.12a.43.43,0,0,1,.32.11L417,218a.41.41,0,0,1,.26.11l3,2.32,5.71,4.27a.58.58,0,0,1,.19.63.57.57,0,0,1-.27.32A.52.52,0,0,1,425.51,225.71Zm-251.71-1.1H424l-4.42-3.32-2.87-2.21a.69.69,0,0,1-.25-.1l-40.92-30.64H362.28L402,218.07a.59.59,0,0,1,.2.63.56.56,0,0,1-.53.39H196.18a.56.56,0,0,1-.53-.39.59.59,0,0,1,.2-.63l39.81-29.86H222.39Z"/><rect class="cls-5" x="172.4" y="225.15" width="253.16" height="32.89"/><path class="cls-1" d="M425.56,258.61H172.4a.56.56,0,0,1-.55-.56h0V225.15a.56.56,0,0,1,.55-.56H425.56a.55.55,0,0,1,.55.56V258a.55.55,0,0,1-.54.57ZM173,257.5H425V225.71H173Z"/><path class="cls-1" d="M370.93,206.31h-3.32V163.37a52.12,52.12,0,0,0-14.93-36.73L340.25,114l2.33-2.38L355,124.26a55.45,55.45,0,0,1,15.92,39.11Z"/><path class="cls-1" d="M344.65,109.84a4.3,4.3,0,0,0-6.09-.06l-.06.06a4.43,4.43,0,0,0,0,6.25,4.28,4.28,0,0,0,6.05.1l.1-.1A4.49,4.49,0,0,0,344.65,109.84Z"/><path class="cls-1" d="M229.69,206.31h-3.32V163.37a55.44,55.44,0,0,1,15.95-39.11l12.48-12.64,2.33,2.38-12.47,12.64a52.09,52.09,0,0,0-15,36.73Z"/><path class="cls-1" d="M258.83,116.09a4.41,4.41,0,0,0,0-6.25,4.29,4.29,0,0,0-6.08-.06l-.06.06a4.47,4.47,0,0,0,0,6.25,4.28,4.28,0,0,0,6.05.1Z"/><path class="cls-6" d="M313.28,173.13a11.62,11.62,0,0,0-11.12,8.39A8.17,8.17,0,0,0,291,184.81a14.85,14.85,0,0,0-28.15,4.42,11.51,11.51,0,0,0-8-3.31,11.67,11.67,0,0,0-11.57,10.75h0a8.17,8.17,0,0,0-6.51,3.31c-.45,0-.89-.07-1.34-.07a11.63,11.63,0,0,0-11.18,8.59,11.62,11.62,0,0,0-16,9.4H389.73a11.64,11.64,0,0,0-11.15-8.49h-.22a8.12,8.12,0,0,0-11.43-1.1l-.05.05a9.79,9.79,0,0,0-9.65-8.54,9.46,9.46,0,0,0-2.53.34v-.34A13.83,13.83,0,0,0,341,185.9h0a13.43,13.43,0,0,0-4.73.87,8.13,8.13,0,0,0-11.38-1.24v-.65A11.68,11.68,0,0,0,313.28,173.13Z"/><ellipse class="cls-3" cx="248" cy="196.04" rx="5.44" ry="5.51"/><ellipse class="cls-3" cx="282.71" cy="209.23" rx="5.44" ry="5.51"/><ellipse class="cls-3" cx="316.84" cy="187.63" rx="5.44" ry="5.51"/><ellipse class="cls-3" cx="333.03" cy="206.31" rx="5.44" ry="5.51"/><ellipse class="cls-3" cx="348.46" cy="196.04" rx="5.44" ry="5.51"/><rect class="cls-7" width="598" height="296"/></svg>