<svg id="圖層_1" data-name="圖層 1" xmlns="http://www.w3.org/2000/svg" viewBox="0 0 230 200"><defs><style>.cls-1{fill:#424242;}.cls-2{fill:#fff;}.cls-3{fill:#ffda6a;}.cls-4{fill:#f4f4f4;}.cls-5{fill:#f8f8f8;}.cls-6{fill:#00ffa7;}</style></defs><title>8</title><rect class="cls-1" x="66.25" y="70.54" width="97.5" height="119.86" rx="46.81"/><polyline class="cls-2" points="104.22 90.35 113.35 80.8 123.19 90.35 113.94 115.11"/><polygon class="cls-3" points="116.15 93.22 110.78 93.22 107.78 81.71 119.15 81.71 116.15 93.22"/><polygon class="cls-3" points="110.78 93.22 116.15 93.22 120.24 112 113.49 117.26 106.68 112.06 110.78 93.22"/><path class="cls-1" d="M99.52,10h.37a0,0,0,0,1,0,0V48.09a0,0,0,0,1,0,0h0A14.28,14.28,0,0,1,85.61,33.82V23.88A13.91,13.91,0,0,1,99.52,10Z"/><path class="cls-1" d="M106.74,0h4.11a29.47,29.47,0,0,1,29.47,29.47v10a7,7,0,0,1-7,7h-30.9a7,7,0,0,1-7-7V11.3A11.3,11.3,0,0,1,106.74,0Z"/><path class="cls-2" d="M89.93,36.06v.17a8,8,0,0,0,.27,16.08h.27A23.8,23.8,0,0,0,103,68.58v2.71a10.52,10.52,0,1,0,21,0V68.58a23.85,23.85,0,0,0,12.49-16.31,6.57,6.57,0,0,0,.78,0,8,8,0,0,0,0-16.09H137"/><path class="cls-1" d="M113.47,82.44a11.09,11.09,0,0,1-11-11.15v-2.4A24.15,24.15,0,0,1,90.07,52.82a8.55,8.55,0,0,1-.15-17.09v.33h.5v.66l-.48,0a7.54,7.54,0,0,0,.25,15.07l.66,0,.09.41a23.19,23.19,0,0,0,12.22,15.94l.28.14v3a10,10,0,1,0,20,0v-3l.27-.14a23.19,23.19,0,0,0,12.23-16l.09-.44.44,0a6.12,6.12,0,0,0,.74,0,7.54,7.54,0,0,0,0-15.08H137l0-1,.28,0a8.56,8.56,0,0,1,0,17.11h-.39a24.15,24.15,0,0,1-12.39,16.08v2.4A11.09,11.09,0,0,1,113.47,82.44Z"/><path class="cls-2" d="M114.17,81.22a1,1,0,0,0,0,1.43l6,6.1a1,1,0,0,0,1.41,0L131,79.22a1,1,0,0,0,0-1.43l-6-6.1a1,1,0,0,0-1.41,0Z"/><path class="cls-1" d="M120.9,89.43a1.33,1.33,0,0,1-1-.41l-6-6.1a1.38,1.38,0,0,1-.4-1,1.4,1.4,0,0,1,.4-1h0l9.41-9.53a1.36,1.36,0,0,1,1.94,0l6,6.1a1.41,1.41,0,0,1,0,2L121.87,89A1.34,1.34,0,0,1,120.9,89.43Zm-6.46-7.94a.64.64,0,0,0-.19.45.61.61,0,0,0,.19.44l6,6.1a.62.62,0,0,0,.89,0L130.76,79a.6.6,0,0,0,.18-.44.63.63,0,0,0-.18-.45l-6-6.1a.61.61,0,0,0-.88,0Z"/><path class="cls-1" d="M126.59,72.55l12.93,13.08a1,1,0,0,1,0,1.43l-11,11.16a1,1,0,0,0,0,1.43l5.5,5.56a.71.71,0,0,1-.18,1.18l-20.32,10.87"/><path class="cls-2" d="M113,81.22a1,1,0,0,1,0,1.43l-6,6.1a1,1,0,0,1-1.41,0l-9.41-9.53a1,1,0,0,1,0-1.43l6-6.1a1,1,0,0,1,1.41,0Z"/><path class="cls-1" d="M106.27,89.43a1.34,1.34,0,0,1-1-.41l-9.42-9.53a1.41,1.41,0,0,1,0-2l6-6.1a1.36,1.36,0,0,1,1.94,0L113.26,81h0a1.4,1.4,0,0,1,.4,1,1.38,1.38,0,0,1-.4,1l-6,6.1A1.33,1.33,0,0,1,106.27,89.43Zm-3.39-17.66a.63.63,0,0,0-.44.19l-6,6.1a.63.63,0,0,0-.18.45.6.6,0,0,0,.18.44l9.41,9.53a.62.62,0,0,0,.89,0l6-6.1a.61.61,0,0,0,.19-.44.64.64,0,0,0-.19-.45L103.32,72A.63.63,0,0,0,102.88,71.77Z"/><path class="cls-1" d="M100.37,72.71,87.45,85.79a1,1,0,0,0,0,1.43l11,11.16a1,1,0,0,1,0,1.43L93,105.37a.71.71,0,0,0,.17,1.19l20.32,10.86"/><path class="cls-1" d="M128.73,99.89l5.26,5.32a.89.89,0,0,1-.08,1.34L113.7,122.72"/><path class="cls-2" d="M113.7,123a.26.26,0,0,1-.19-.1.24.24,0,0,1,0-.35l20.2-16.18a.62.62,0,0,0,.06-1l-5.26-5.32a.27.27,0,0,1,0-.36.25.25,0,0,1,.36,0l5.25,5.32a1.15,1.15,0,0,1-.1,1.72l-20.2,16.17A.25.25,0,0,1,113.7,123Z"/><path class="cls-1" d="M128.16,74.13l11.36,11.5a1,1,0,0,1,0,1.43L127.79,98.94"/><path class="cls-2" d="M127.79,99.19a.27.27,0,0,1-.18-.08.26.26,0,0,1,0-.35l11.73-11.88a.75.75,0,0,0,.22-.53.79.79,0,0,0-.22-.54L128,74.31a.25.25,0,0,1,0-.36.26.26,0,0,1,.35,0l11.36,11.51a1.22,1.22,0,0,1,.37.89,1.24,1.24,0,0,1-.37.89L128,99.11A.23.23,0,0,1,127.79,99.19Z"/><path class="cls-1" d="M98.39,99.89,93,105.37a.92.92,0,0,0,0,1.37l18.31,16"/><path class="cls-2" d="M111.34,123a.23.23,0,0,1-.16-.06l-18.32-16a1.17,1.17,0,0,1-.41-.85,1.2,1.2,0,0,1,.35-.89l5.41-5.48a.25.25,0,0,1,.36,0,.26.26,0,0,1,0,.36l-5.41,5.48a.66.66,0,0,0-.2.51.65.65,0,0,0,.24.49l18.31,16a.25.25,0,0,1,0,.36A.25.25,0,0,1,111.34,123Z"/><path class="cls-1" d="M98.45,74.65l-11,11.14a1,1,0,0,0,0,1.43L99.17,99.1"/><path class="cls-2" d="M99.17,99.35a.26.26,0,0,1-.17-.07L87.27,87.4a1.23,1.23,0,0,1-.36-.89,1.21,1.21,0,0,1,.36-.89l11-11.15a.24.24,0,0,1,.35,0,.25.25,0,0,1,0,.36L87.62,86a.77.77,0,0,0,0,1.08L99.35,98.92a.27.27,0,0,1,0,.36A.29.29,0,0,1,99.17,99.35Z"/><path class="cls-2" d="M137.21,36.22V33.49A23.69,23.69,0,0,0,113.68,9.66h0A23.69,23.69,0,0,0,90.14,33.49v2.77"/><path class="cls-1" d="M90.64,36.77h-1V33.49a24,24,0,1,1,48.06,0v3.24h-1V33.49a23,23,0,1,0-46.07,0Z"/><polyline class="cls-4" points="222.74 174.97 170.12 135.91 170.12 174.97"/><path class="cls-1" d="M222.74,175.48a.46.46,0,0,1-.29-.1l-51.84-38.47V175a.5.5,0,1,1-1,0V135.91a.5.5,0,0,1,.27-.45.49.49,0,0,1,.52,0L223,174.56a.52.52,0,0,1,.11.71A.49.49,0,0,1,222.74,175.48Z"/><polygon class="cls-4" points="59.22 135.83 59.22 174.89 6.59 174.89 59.22 135.83"/><path class="cls-1" d="M59.22,175.4H6.59a.5.5,0,0,1-.48-.35.53.53,0,0,1,.18-.57l52.63-39.06a.51.51,0,0,1,.52,0,.5.5,0,0,1,.27.45v39.06A.5.5,0,0,1,59.22,175.4Zm-51.11-1H58.72V136.83Z"/><polygon class="cls-2" points="229.45 169.68 224.29 165.82 221.59 163.71 221.48 163.71 184.36 135.91 170.69 135.91 207.81 163.71 21.98 163.71 59.2 135.83 45.54 135.83 0.45 169.6 0.67 169.6 0.45 169.75 229.35 169.75 229.25 169.68 229.45 169.68"/><path class="cls-1" d="M229.35,170.26H.45A.5.5,0,0,1,0,169.9a.41.41,0,0,1,0-.22.51.51,0,0,1,.19-.49l45.09-33.76a.47.47,0,0,1,.3-.1H59.21a.5.5,0,0,1,.47.35.51.51,0,0,1-.18.56l-36,27H206.3l-35.9-26.89a.51.51,0,0,1-.18-.56.5.5,0,0,1,.47-.35h13.67a.43.43,0,0,1,.29.1l37,27.7a.43.43,0,0,1,.24.1l2.7,2.1,5.16,3.86a.51.51,0,0,1,.17.57.5.5,0,0,1-.24.29A.51.51,0,0,1,229.35,170.26Zm-227.59-1H228l-4-3-2.59-2a.5.5,0,0,1-.23-.09l-37-27.7h-12l35.9,26.88a.53.53,0,0,1,.18.57.5.5,0,0,1-.48.35H22a.5.5,0,0,1-.48-.35.53.53,0,0,1,.18-.57l36-27h-12Z"/><rect class="cls-5" x="0.5" y="169.75" width="228.9" height="29.74"/><path class="cls-1" d="M229.4,200H.5a.5.5,0,0,1-.5-.51V169.75a.5.5,0,0,1,.5-.5H229.4a.5.5,0,0,1,.5.5v29.74A.5.5,0,0,1,229.4,200ZM1,199H228.9V170.26H1Z"/><path class="cls-1" d="M180,152.72h-3V113.9A47.07,47.07,0,0,0,163.5,80.69L152.26,69.26l2.11-2.15,11.24,11.43A50.09,50.09,0,0,1,180,113.9Z"/><path class="cls-1" d="M156.24,65.5a3.89,3.89,0,0,0-5.56,0,4,4,0,0,0,0,5.65,3.87,3.87,0,0,0,5.56,0A4.05,4.05,0,0,0,156.24,65.5Z"/><path class="cls-1" d="M52.3,152.72h-3V113.9A50.09,50.09,0,0,1,63.72,78.54L75,67.11l2.11,2.15L65.83,80.69A47.07,47.07,0,0,0,52.3,113.9Z"/><path class="cls-1" d="M78.65,71.15a4,4,0,0,0,0-5.65,3.89,3.89,0,0,0-5.56,0,4.05,4.05,0,0,0,0,5.65A3.87,3.87,0,0,0,78.65,71.15Z"/><path class="cls-6" d="M127.88,122.72a10.52,10.52,0,0,0-10.06,7.59,7.33,7.33,0,0,0-3.57-.93,7.41,7.41,0,0,0-6.51,3.9,13.43,13.43,0,0,0-25.45,4,10.4,10.4,0,0,0-7.27-3A10.56,10.56,0,0,0,64.56,144h0a7.39,7.39,0,0,0-5.89,3,12.09,12.09,0,0,0-1.21-.07,10.53,10.53,0,0,0-10.11,7.77,10.41,10.41,0,0,0-4-.8A10.54,10.54,0,0,0,32.9,163.2H197a10.52,10.52,0,0,0-10.08-7.68h-.2a7.34,7.34,0,0,0-10.38-.95,8.84,8.84,0,0,0-8.72-7.72,8.67,8.67,0,0,0-2.29.31c0-.1,0-.21,0-.31a12.5,12.5,0,0,0-12.42-12.58,12.13,12.13,0,0,0-4.28.78,7.4,7.4,0,0,0-5.72-2.72,7.31,7.31,0,0,0-4.57,1.6c0-.2,0-.39,0-.59A10.56,10.56,0,0,0,127.88,122.72Z"/><ellipse class="cls-3" cx="68.85" cy="143.43" rx="4.92" ry="4.98"/><ellipse class="cls-3" cx="100.24" cy="155.36" rx="4.92" ry="4.98"/><ellipse class="cls-3" cx="131.1" cy="135.83" rx="4.92" ry="4.98"/><ellipse class="cls-3" cx="145.74" cy="152.72" rx="4.92" ry="4.98"/><ellipse class="cls-3" cx="159.69" cy="143.43" rx="4.92" ry="4.98"/></svg>