<svg id="圖層_1" data-name="圖層 1" xmlns="http://www.w3.org/2000/svg" viewBox="0 0 599 297"><defs><style>.cls-1{fill:#fff;}.cls-2{fill:#424242;}.cls-3{fill:#525252;}.cls-4{fill:#e0e0e0;}.cls-5{fill:#f4f4f4;}.cls-6{fill:#f8f8f8;}.cls-7{fill:#ffda6a;}</style></defs><title>14</title><path class="cls-1" d="M263.09,147.43H336l23.66,17.42H239.51Z"/><polyline class="cls-1" points="359.49 164.92 359.49 267.58 239.42 267.58 239.42 164.92"/><path class="cls-2" d="M359.49,268.78H239.42a1.2,1.2,0,0,1-1.2-1.2V164.92a1.2,1.2,0,0,1,2.4,0V266.38H358.29V164.92a1.21,1.21,0,0,1,2.41,0V267.58A1.2,1.2,0,0,1,359.49,268.78Z"/><path class="cls-1" d="M281.54,152.11h36l9.44,8H272.09Z"/><path class="cls-2" d="M327,160.67H272.09a.54.54,0,0,1-.52-.36.56.56,0,0,1,.16-.62l9.45-8a.59.59,0,0,1,.36-.13h36a.59.59,0,0,1,.36.13l9.44,8a.54.54,0,0,1,.09.77A.53.53,0,0,1,327,160.67Zm-53.36-1.1h51.84l-8.12-6.86H281.75Z"/><path class="cls-2" d="M359.57,166.05a1.18,1.18,0,0,1-.71-.23l-23.28-17.19H263.49l-23.27,17.19a1.2,1.2,0,0,1-1.42-1.94l23.58-17.42a1.23,1.23,0,0,1,.71-.23H336a1.11,1.11,0,0,1,.72.23l23.59,17.42a1.21,1.21,0,0,1,.25,1.69h0A1.23,1.23,0,0,1,359.57,166.05Z"/><path class="cls-2" d="M352.64,165.52H330.39a.6.6,0,0,1,0-1.2h22.25a.61.61,0,0,1,.6.6A.6.6,0,0,1,352.64,165.52Z"/><path class="cls-2" d="M326.24,165.52H244.17a.6.6,0,0,1-.6-.6.61.61,0,0,1,.6-.6h82.07a.6.6,0,0,1,0,1.2Z"/><path class="cls-2" d="M245.75,218.27a1.79,1.79,0,0,1-.3-1.21v-3.53a2.09,2.09,0,0,1,.3-1.4,1.82,1.82,0,0,1,1.2-.3H258v-2.41h-8.7a1.5,1.5,0,0,1-1.2-.37,1.84,1.84,0,0,1-.34-1.2v-3.54a2,2,0,0,1,.34-1.39,1.62,1.62,0,0,1,1.2-.34h8.73V200.4a1.12,1.12,0,0,1,.35-.86,1.2,1.2,0,0,1,.87-.27h5.27a1.47,1.47,0,0,1,.93.27,1.1,1.1,0,0,1,.38.86v2.18h8.69a1.66,1.66,0,0,1,1.21.34,2.43,2.43,0,0,1,.38,1.39v3.54a1.89,1.89,0,0,1-.34,1.2,1.65,1.65,0,0,1-1.28.37h-8.69v2.41h11a1.9,1.9,0,0,1,1.29.3,2.84,2.84,0,0,1,.34,1.4v3.53a1.91,1.91,0,0,1-.3,1.21,1.77,1.77,0,0,1-1.33.38H264.31l-6.4,7.57H266l-2-2.41c-.3-.55-.34-1-.16-1.2a1.56,1.56,0,0,1,1.21-.34h5.39a1.45,1.45,0,0,1,1.09.34l1.12,1.2,5.76,6.86a.83.83,0,0,1,.08,1.13,1.4,1.4,0,0,1-1.09.44H246.58a1.43,1.43,0,0,1-1.1-.44.82.82,0,0,1,.09-1.13l10-12H247A1.59,1.59,0,0,1,245.75,218.27Z"/><path class="cls-2" d="M283.09,210.41a1.66,1.66,0,0,1-.33-1.2v-1.77a2.09,2.09,0,0,1,.33-1.4,1.69,1.69,0,0,1,1.21-.33h2V200.9a1.9,1.9,0,0,1,.26-1.21,2.21,2.21,0,0,1,1.21-.26H291a2,2,0,0,1,1.21.3,1.66,1.66,0,0,1,.33,1.2v4.81h1a1.81,1.81,0,0,1,1.27.34,2,2,0,0,1,.34,1.4v1.8a1.34,1.34,0,0,1-1.06,1.56,1.27,1.27,0,0,1-.55,0h-.91v2l1-.45c.61-.15,1-.11,1.21.19a2.42,2.42,0,0,1,.23,1.27v3.73a1.67,1.67,0,0,1-.3,1.13,9.33,9.33,0,0,1-1.21.64l-.9.37v11.34a1.21,1.21,0,0,1-.34.95,2.07,2.07,0,0,1-1.2.25h-5.6a2,2,0,0,1-1.21-.25,1.2,1.2,0,0,1-.33-.95v-3.47a1.52,1.52,0,0,1,.33-1.2,1.91,1.91,0,0,1,1.21-.3h.14a.69.69,0,0,0,.76-.6.54.54,0,0,0,0-.18v-3.06l-2.07.9a.89.89,0,0,1-1.06-.11,1.74,1.74,0,0,1-.37-1.35v-3.44a1.49,1.49,0,0,1,.26-1.14,9.71,9.71,0,0,1,1.28-.78l2-.86v-4.63h-2A1.48,1.48,0,0,1,283.09,210.41Zm31,3.92a1.65,1.65,0,0,1,1.05.48,1.86,1.86,0,0,1,.53,1v3.09a8.16,8.16,0,0,1-1.05,3.2,10.08,10.08,0,0,1-2.79,3.2c1,.18,2,.41,3.06.67a2.42,2.42,0,0,1,1.12.41,1.18,1.18,0,0,1,.45,1V231a1.18,1.18,0,0,1-.45,1,2.05,2.05,0,0,1-1.12.37,70.69,70.69,0,0,1-9.3-3.05c-1,.53-2,1-2.95,1.39a16.06,16.06,0,0,1-5.71,1.66,1.79,1.79,0,0,1-1.09-.37,1.28,1.28,0,0,1-.41-1v-3.61a1.26,1.26,0,0,1,.41-1A2.14,2.14,0,0,1,297,226c.71-.07,1.47-.23,2.21-.37a6.69,6.69,0,0,1-.93-1,5.19,5.19,0,0,1-1.51-2.41c0-.42.07-.67.3-.83a1.55,1.55,0,0,1,.94-.22H301a1.82,1.82,0,0,1,1,.22,6.85,6.85,0,0,1,.9.71,11.58,11.58,0,0,0,2.67,1.63c2.26-.9,3.61-2,4.19-3.35H297.92a1.55,1.55,0,0,1-1.09-.38,1.23,1.23,0,0,1-.45-1v-3.18a1.36,1.36,0,0,1,.45-1,1.68,1.68,0,0,1,1.09-.48Zm-16-1a2.22,2.22,0,0,1-1.36-.3,1.06,1.06,0,0,1-.38-.94v-3.43a1.52,1.52,0,0,1,.38-1.2,2.22,2.22,0,0,1,1.36-.3.7.7,0,0,0,.78-.6.6.6,0,0,0,0-.19V201a1.8,1.8,0,0,1,.42-1.39,1.91,1.91,0,0,1,1.31-.34h10.73a1.39,1.39,0,0,1,1.77,1.73v5.31a.72.72,0,0,0,.66.79.49.49,0,0,0,.17,0,2.41,2.41,0,0,1,1.39.3,1.64,1.64,0,0,1,.38,1.2v3.43a1.13,1.13,0,0,1-.38.94,2.41,2.41,0,0,1-1.39.3h-4a2.33,2.33,0,0,1-1.39-.3,1.13,1.13,0,0,1-.34-.94v-6.66h-4.29v6.66a1,1,0,0,1-.38.94,2.23,2.23,0,0,1-1.38.3Z"/><path class="cls-2" d="M320.93,223.7a1.88,1.88,0,0,1-.3-1.2v-.9a2.35,2.35,0,0,1,.3-1.4,1.7,1.7,0,0,1,1.21-.33h30.07a1.86,1.86,0,0,1,1.31.33,2.35,2.35,0,0,1,.3,1.4v.9a1.88,1.88,0,0,1-.3,1.2,1.71,1.71,0,0,1-1.31.42h-11.6V231a1.2,1.2,0,0,1-.3.87,1.3,1.3,0,0,1-.87.3H335a1.42,1.42,0,0,1-.91-.3,1,1,0,0,1-.38-.87v-6.88H322.09A1.6,1.6,0,0,1,320.93,223.7Zm.08-21a2.12,2.12,0,0,1-.31-1.2v-.6a2.35,2.35,0,0,1,.31-1.4,1.75,1.75,0,0,1,1.2-.3h29.92a1.9,1.9,0,0,1,1.29.3,2.15,2.15,0,0,1,.3,1.4v.6a1.9,1.9,0,0,1-.3,1.2,1.68,1.68,0,0,1-1.29.37h-7.3v1.21h7.3a1.9,1.9,0,0,1,1.29.34,2.07,2.07,0,0,1,.3,1.39v5.76a1.77,1.77,0,0,1-.3,1.2,1.65,1.65,0,0,1-1.29.42H322.24A1.54,1.54,0,0,1,321,213a1.94,1.94,0,0,1-.3-1.2V206a2.26,2.26,0,0,1,.3-1.39,1.71,1.71,0,0,1,1.2-.34h7.33v-1.21h-7.3A1.55,1.55,0,0,1,321,202.7ZM330.87,225a1.59,1.59,0,0,1,.94.42,1.4,1.4,0,0,1,.42,1v1.73a4,4,0,0,1-1.06,3,5.16,5.16,0,0,1-3.5,1.12h-5.09a1.48,1.48,0,0,1-1.05-.41,1.32,1.32,0,0,1-.42-.93v-1.44a1.32,1.32,0,0,1,.42-.93,1.88,1.88,0,0,1,1.05-.43h2.49a1.27,1.27,0,0,0,1.06-.4,1.41,1.41,0,0,0,.41-1.06v-.27a1.38,1.38,0,0,1,.41-1,1.8,1.8,0,0,1,1-.42Zm-8.17-6.71a1.86,1.86,0,0,1-.34-1.21v-.86a2,2,0,0,1,.34-1.4,1.85,1.85,0,0,1,1.2-.34h26.62a2,2,0,0,1,1.28.34,2,2,0,0,1,.33,1.4v.86a1.8,1.8,0,0,1-.33,1.21,1.74,1.74,0,0,1-1.28.38H323.94A1.56,1.56,0,0,1,322.7,218.27Zm4.48-8.81h2.4v-1.2h-2.4Zm8.88-6.4v1.2h2.3v-1.2Zm0,5.16v1.2h2.3v-1.2Zm11.55,17.18a1.42,1.42,0,0,1,.41,1v.32a1.39,1.39,0,0,0,.41,1.05,1.31,1.31,0,0,0,1.06.41H352a1.94,1.94,0,0,1,1.06.42,1.25,1.25,0,0,1,.42.94v1.43a1.25,1.25,0,0,1-.42.94,1.47,1.47,0,0,1-1.06.41h-5.07a5.15,5.15,0,0,1-3.5-1.12,4,4,0,0,1-1.06-3v-1.73a1.35,1.35,0,0,1,.42-1,1.59,1.59,0,0,1,.94-.42h2.93A1.8,1.8,0,0,1,347.61,225.4Zm-.31-17.17h-2.41v1.21h2.41Z"/><path class="cls-1" d="M354,38.63h-9.54a2.21,2.21,0,0,0-1,.23l-13.72,6.4-8.88,11.82a2.12,2.12,0,0,0,.43,3l.15.1h0a4.29,4.29,0,0,0,5.59-1l7-8.81,10.79-5.3"/><path class="cls-3" d="M323.75,61.44a4.82,4.82,0,0,1-2.54-.71A2.74,2.74,0,0,1,320,58.9a2.66,2.66,0,0,1,.49-2.13l8.89-11.87a.68.68,0,0,1,.23-.18l13.7-6.41a2.89,2.89,0,0,1,1.2-.28H354a.6.6,0,0,1,0,1.2h-9.54a1.66,1.66,0,0,0-.73.17l-13.56,6.35-8.8,11.73a1.51,1.51,0,0,0,.3,2.12l.12.08a3.72,3.72,0,0,0,4.81-.83l7-8.82a1,1,0,0,1,.2-.16l10.76-5.37a.6.6,0,0,1,.83.18.61.61,0,0,1-.17.83l-.13.06-10.62,5.32-6.94,8.71A4.83,4.83,0,0,1,323.75,61.44Z"/><path class="cls-1" d="M351.46,36.41,329.05,50.9l-5.94,18.49a1.91,1.91,0,0,0,1.24,2.39h.06l1.2.34a4.51,4.51,0,0,0,5.57-3.08v0l4.13-14.65"/><path class="cls-3" d="M326.83,72.92a4.5,4.5,0,0,1-1.41-.2l-1.2-.34a2.46,2.46,0,0,1-1.53-1.2,2.42,2.42,0,0,1-.17-2l5.94-18.49a.64.64,0,0,1,.24-.32L351.1,36a.61.61,0,0,1,.84.18.6.6,0,0,1-.18.83L329.57,51.29l-5.88,18.28a1.34,1.34,0,0,0,.08,1,1.27,1.27,0,0,0,.81.64l1.2.34a3.86,3.86,0,0,0,4.82-2.75l4.13-14.64a.61.61,0,0,1,.73-.42.62.62,0,0,1,.42.75l-4.15,14.7A5.1,5.1,0,0,1,326.83,72.92Z"/><path class="cls-1" d="M421.28,35.35H356a10.1,10.1,0,0,0-7.15,3L333.38,53.75V76.83A2.18,2.18,0,0,0,335.56,79h1.23a4.52,4.52,0,0,0,4.53-4.51h0V61.19l8.7-8.81h3.71a4.18,4.18,0,0,1,4.18,4.17h0v12L350,76.44a4.35,4.35,0,0,0,0,6.16h0a4.36,4.36,0,0,0,6.16,0h0L367.05,71.7l13.47-13.41h40.76"/><path class="cls-3" d="M353.11,84.48a4.95,4.95,0,0,1-3.51-8.42l7.75-7.77V56.55a3.6,3.6,0,0,0-3.61-3.6h-3.46l-8.42,8.42V74.49a5.13,5.13,0,0,1-5.07,5.12h-1.21a2.77,2.77,0,0,1-2.78-2.75V53.75a.59.59,0,0,1,.17-.42L348.4,37.84A10.67,10.67,0,0,1,356,34.71h65.32a.62.62,0,0,1,.6.6.6.6,0,0,1-.6.6H356a9.44,9.44,0,0,0-6.7,2.78L334,54V76.82a1.59,1.59,0,0,0,1.57,1.59h1.24a3.93,3.93,0,0,0,3.93-3.92V61.19a.63.63,0,0,1,.17-.43l8.8-8.8a.6.6,0,0,1,.42-.18h3.72a4.81,4.81,0,0,1,4.81,4.81V68.53a.58.58,0,0,1-.18.43l-7.94,7.93a3.77,3.77,0,1,0,5.33,5.33h0l24.24-24.37a.58.58,0,0,1,.42-.18h40.76a.61.61,0,0,1,0,1.21h-40.5L356.62,83A5,5,0,0,1,353.11,84.48Z"/><rect class="cls-4" x="300.6" y="69.19" width="65.55" height="43.94" transform="translate(33.17 262.42) rotate(-45)"/><rect class="cls-5" x="340.52" y="62.2" width="13.7" height="31.51" transform="translate(46.61 268.45) rotate(-45)"/><rect class="cls-5" x="326.78" y="75.6" width="13.7" height="31.51" transform="translate(33.11 262.66) rotate(-45)"/><rect class="cls-5" x="313.31" y="89.41" width="13.7" height="31.51" transform="translate(19.41 257.18) rotate(-45)"/><path class="cls-1" d="M354,52.46a4.13,4.13,0,0,1,4.13,4.11V68.4l-7.85,7.84a4.35,4.35,0,0,0,0,6.12h0a4.32,4.32,0,0,0,6.1,0l10.83-10.83L380.4,58.3h40.71"/><path class="cls-3" d="M353.29,84.22a4.92,4.92,0,0,1-3.48-8.42l7.68-7.67V56.59A3.52,3.52,0,0,0,354,53.07a.61.61,0,0,1,0-1.21,4.73,4.73,0,0,1,4.73,4.73V68.4a.59.59,0,0,1-.17.42l-7.85,7.86a3.71,3.71,0,0,0,5.25,5.25L380,57.88a.53.53,0,0,1,.42-.18h40.71a.6.6,0,1,1,0,1.2H380.66L356.78,82.78A5,5,0,0,1,353.29,84.22ZM358.1,68.4Z"/><rect class="cls-1" x="384.09" y="31.07" width="39.98" height="34.12"/><path class="cls-2" d="M424.07,65.74h-40a.54.54,0,0,1-.56-.54h0V31.07a.54.54,0,0,1,.55-.56h40a.54.54,0,0,1,.55.53V65.19a.53.53,0,0,1-.53.55Zm-39.43-1.11H423.5v-33H384.64Z"/><rect class="cls-2" x="391.15" y="28.22" width="46.67" height="39.83"/><circle class="cls-6" cx="400.77" cy="61.88" r="3.31"/><circle class="cls-6" cx="410.13" cy="61.88" r="3.31"/><path class="cls-1" d="M246.27,64h9.53a2.61,2.61,0,0,1,1,.23l13.7,6.41,8.9,11.86a2.11,2.11,0,0,1-.43,2.95l-.16.11h0a4.27,4.27,0,0,1-5.58-1l-7-8.82L255.45,70.4"/><path class="cls-3" d="M276.52,86.82A4.82,4.82,0,0,1,272.7,85l-6.88-8.65L255.2,71a.6.6,0,0,1-.28-.8h0a.58.58,0,0,1,.78-.28h0l10.69,5.31a.78.78,0,0,1,.2.16l7,8.82a3.71,3.71,0,0,0,4.81.86,1.57,1.57,0,0,0,.75-1,1.51,1.51,0,0,0-.28-1.2l-8.8-11.74-13.58-6.33a1.71,1.71,0,0,0-.74-.17h-9.53a.6.6,0,1,1,0-1.2h9.53a3,3,0,0,1,1.21.28l13.71,6.41a.64.64,0,0,1,.21.19l8.9,11.86a2.71,2.71,0,0,1,.5,2.13,2.75,2.75,0,0,1-1.2,1.8A5,5,0,0,1,276.52,86.82Z"/><path class="cls-1" d="M248.82,61.79l22.39,14.54,6,18.49A1.9,1.9,0,0,1,276,97.21h0l-1.21.34a4.5,4.5,0,0,1-5.57-3.07l0-.12L265,79.78"/><path class="cls-3" d="M273.45,98.31a5.11,5.11,0,0,1-4.91-3.72l-4.12-14.65a.62.62,0,1,1,1.2-.33l4.08,14.64a3.87,3.87,0,0,0,4.78,2.7h0l1.2-.34a1.4,1.4,0,0,0,.81-.64,1.34,1.34,0,0,0,.08-1l-5.88-18.28L248.5,62.23a.6.6,0,0,1-.18-.83.63.63,0,0,1,.84-.18l22.39,14.56a.7.7,0,0,1,.24.32l5.94,18.49a2.42,2.42,0,0,1-.17,2,2.47,2.47,0,0,1-1.53,1.2l-1.2.34A5,5,0,0,1,273.45,98.31Z"/><path class="cls-1" d="M179,60.69h65.32a10.14,10.14,0,0,1,7.13,3l15.44,15.48v23.08a2.17,2.17,0,0,1-2.17,2.18h-1.21A4.52,4.52,0,0,1,259,99.88h0V86.57l-8.79-8.81h-3.7a4.17,4.17,0,0,0-4.17,4.17h0V93.88l7.94,7.94a4.39,4.39,0,0,1,0,6.17h0a4.36,4.36,0,0,1-6.16,0h0L233.18,97.08,219.76,83.65H179"/><path class="cls-3" d="M247.17,109.86a4.91,4.91,0,0,1-3.51-1.44L219.5,84.26H179a.61.61,0,1,1,0-1.21h40.76a.6.6,0,0,1,.42.18l24.33,24.37a3.76,3.76,0,1,0,5.32-5.32h0l-7.93-7.9a.58.58,0,0,1-.18-.43v-12a4.81,4.81,0,0,1,4.81-4.81h3.66a.64.64,0,0,1,.42.18l8.8,8.81a.59.59,0,0,1,.17.42V99.87a3.93,3.93,0,0,0,3.93,3.92h1.21a1.57,1.57,0,0,0,1.57-1.58V79.36L251,64.08a9.43,9.43,0,0,0-6.7-2.77H179a.61.61,0,0,1-.61-.61.62.62,0,0,1,.61-.6h65.32a10.65,10.65,0,0,1,7.55,3.13l15.44,15.5a.55.55,0,0,1,.18.43v23a2.77,2.77,0,0,1-2.77,2.78h-1.21a5.13,5.13,0,0,1-5.13-5.12V86.82L250,78.4h-3.47a3.6,3.6,0,0,0-3.6,3.61v11.7l7.75,7.76a5,5,0,0,1-3.51,8.42Z"/><rect class="cls-4" x="241.06" y="83.74" width="43.94" height="65.55" transform="translate(-5.35 220.13) rotate(-45)"/><rect class="cls-5" x="233.86" y="96.66" width="31.51" height="13.7" transform="translate(-0.08 206.83) rotate(-45)"/><rect class="cls-5" x="247.27" y="110.41" width="31.51" height="13.7" transform="translate(-5.87 220.34) rotate(-45)"/><rect class="cls-5" x="261.06" y="123.87" width="31.51" height="13.7" transform="translate(-11.35 234.04) rotate(-45)"/><path class="cls-1" d="M246.31,77.84A4.12,4.12,0,0,0,242.19,82V93.78l7.84,7.81a4.32,4.32,0,0,1,0,6.1h0a4.32,4.32,0,0,1-6.1,0L233.11,96.86,219.88,83.63H179.15"/><path class="cls-3" d="M247,109.6a4.82,4.82,0,0,1-3.48-1.44L219.61,84.27H179.15a.61.61,0,0,1,0-1.21h40.72a.59.59,0,0,1,.42.19l24.05,24a3.72,3.72,0,1,0,5.26-5.25l-7.83-7.85a.59.59,0,0,1-.17-.42V82a4.73,4.73,0,0,1,4.73-4.73h0a.6.6,0,0,1,.6.6.62.62,0,0,1-.6.61A3.52,3.52,0,0,0,242.8,82h0V93.53l7.68,7.67a4.92,4.92,0,0,1-3.49,8.42Z"/><polyline class="cls-7" points="161.78 89.5 195.69 89.5 195.69 77.88 188.11 73.51 195.69 69.14 195.69 57.52 161.78 57.52"/><path class="cls-3" d="M161.18,57.52a.6.6,0,0,1,.6-.6h33.91a.6.6,0,0,1,.6.6V69.11a.59.59,0,0,1-.3.52l-6.68,3.85L196,77.34a.59.59,0,0,1,.3.52v11.7a.6.6,0,0,1-.6.6H161.78a.6.6,0,0,1-.6-.6m1.21-.6h32.7V78.23L187.81,74a.6.6,0,0,1-.23-.82.69.69,0,0,1,.23-.22l7.28-4.2V58.12h-32.7"/><polygon class="cls-7" points="195.69 69.48 180.53 65.65 180.53 49.58 195.69 53.4 195.69 69.48"/><path class="cls-3" d="M195.69,70.09h-.16l-15.1-3.85a.62.62,0,0,1-.46-.59V49.58a.59.59,0,0,1,.23-.48.58.58,0,0,1,.52-.11l15.15,3.84a.59.59,0,0,1,.46.57V69.48a.63.63,0,0,1-.24.49A.72.72,0,0,1,195.69,70.09Zm-14.55-4.91,14,3.53V53.87l-14-3.52Z"/><polygon class="cls-7" points="180.53 96.62 195.69 92.78 195.69 76.7 180.53 80.54 180.53 96.62"/><path class="cls-3" d="M180.53,97.21a.59.59,0,0,1-.6-.6V80.54a.61.61,0,0,1,.5-.6l15.14-3.83a.61.61,0,0,1,.74.45.69.69,0,0,1,0,.13V92.78a.59.59,0,0,1-.46.58L180.72,97.2Zm.61-16.2V95.84l14-3.53V77.53Z"/><rect class="cls-2" x="212.96" y="60.73" width="4.58" height="22.87"/></svg>