<?xml version="1.0" encoding="utf-8"?>
<!-- Generator: Adobe Illustrator 23.0.6, SVG Export Plug-In . SVG Version: 6.00 Build 0)  -->
<svg version="1.1" id="圖層_1" xmlns="http://www.w3.org/2000/svg" xmlns:xlink="http://www.w3.org/1999/xlink" x="0px" y="0px"
	 viewBox="0 0 599 297" style="enable-background:new 0 0 599 297;" xml:space="preserve">
<style type="text/css">
	.st0{fill:#424242;}
	.st1{fill:#FFFFFF;}
	.st2{fill:#00FFA7;}
	.st3{fill:#F4F4F4;}
	.st4{fill:#F8F8F8;}
	.st5{fill:#FFDA6A;}
</style>
<title>11</title>
<ellipse class="st0" cx="268.3" cy="97.3" rx="15.9" ry="15.8"/>
<ellipse class="st0" cx="327.9" cy="97.3" rx="15.9" ry="15.8"/>
<ellipse class="st0" cx="298.7" cy="76.9" rx="39.8" ry="39.8"/>
<path class="st1" d="M297.8,42.2L297.8,42.2c15.8,0,28.6,12.8,28.6,28.6V88c0,15.8-12.8,28.7-28.6,28.7l0,0
	c-15.8,0-28.6-12.8-28.6-28.7V70.8C269.2,55,282,42.2,297.8,42.2z"/>
<path class="st0" d="M297.8,117.3c-16.2,0-29.2-13.1-29.2-29.3V70.9c0-16.2,13.1-29.2,29.2-29.2s29.2,13.1,29.2,29.2l0,0l0,0V88
	C327.1,104.2,314,117.3,297.8,117.3z M297.8,42.8c-15.5,0-28,12.6-28,28.1V88c0,15.5,12.6,28.1,28,28.1c15.5,0,28.1-12.6,28.1-28.1
	V70.9C325.9,55.4,313.3,42.8,297.8,42.8z"/>
<ellipse class="st0" cx="298.7" cy="40.2" rx="12" ry="12"/>
<ellipse class="st0" cx="310.7" cy="45.4" rx="12" ry="12"/>
<path class="st0" d="M313,50.3c0,0,13.5-2.6,13.5,40.8h10l-10-40.9l-15.8-8.8L313,50.3"/>
<path class="st0" d="M311.6,53.9c0,0-20.7-13.3-28.3,1.2c-4.4,8.2-6.5,17.6-9.4,26.5c-1.4,4.6-3.1,9-5.2,13.3
	c-0.6,1.2-5.4,10.4-7.1,8.4s1.6-9.3,2-11.5l4.3-36.2l18.9-14.2l20.5,0.8L311.6,53.9z"/>
<ellipse class="st1" cx="297.6" cy="62.8" rx="16.4" ry="16.3"/>
<ellipse transform="matrix(1.029720e-02 -0.9999 0.9999 1.029720e-02 249.2495 371.0502)" class="st1" cx="312.1" cy="59.6" rx="9.3" ry="9.3"/>
<path class="st0" d="M252.5,97.3c0,0-5-69.1,46.3-69.1"/>
<path class="st0" d="M312.1,33.5c0,0,31.7-1,31.7,65.5"/>
<path class="st0" d="M284.4,89.6c-5.7,0-10.4-4.7-10.3-10.4c0-5.7,4.7-10.4,10.4-10.3c5.7,0,10.3,4.6,10.3,10.4
	C294.8,84.9,290.2,89.6,284.4,89.6C284.4,89.6,284.4,89.6,284.4,89.6z"/>
<path class="st1" d="M277.7,72.6c-3.6,3.7-3.6,9.5,0.1,13.1c3.7,3.6,9.5,3.6,13.1-0.1c3.6-3.7,3.6-9.5-0.1-13.1
	C287.2,69,281.4,69,277.7,72.6L277.7,72.6L277.7,72.6z"/>
<path class="st0" d="M311.7,89.6c-5.7,0-10.4-4.6-10.4-10.4c0-5.7,4.6-10.4,10.4-10.3c5.7,0,10.4,4.6,10.4,10.4
	C322.1,84.9,317.4,89.6,311.7,89.6z"/>
<path class="st0" d="M302,79.8h-7.7c-0.3,0-0.6-0.2-0.7-0.5c0-0.3,0.2-0.6,0.5-0.7c0.1,0,0.1,0,0.2,0h7.7c0.3,0,0.6,0.3,0.5,0.7
	C302.5,79.5,302.3,79.7,302,79.8z"/>
<path class="st0" d="M293,115.8h13c24.7,0,44.7,20,44.7,44.7v52.8c0,24.7-20,44.7-44.7,44.8H293c-24.7,0-44.7-20-44.7-44.7
	c0,0,0,0,0,0v-52.8C248.3,135.8,268.3,115.8,293,115.8z"/>
<polyline class="st1" points="289.2,135.4 297.6,126.8 306.6,135.4 298.1,157.6 "/>
<path class="st1" d="M285,113.4v32.4c0,7,5.7,13.7,12.7,13.7s12.7-6.7,12.7-13.7v-32.4"/>
<path class="st0" d="M297.7,160.1c-7.1,0-13.3-6.7-13.3-14.3v-32.4h1.2v32.4c0,7,5.6,13.1,12.1,13.1s12.1-6.1,12.1-13.1v-32.4h1.2
	v32.4C311,153.4,304.8,160.1,297.7,160.1z"/>
<path class="st2" d="M286.8,131.2c0,0,10.2,11.6,21.8,0L297,157.8L286.8,131.2z"/>
<path class="st0" d="M309.7,119.3l11.6,11.6c0.5,0.5,0.5,1.2,0,1.7l-9.7,9.6c-0.5,0.5-0.5,1.2,0,1.7l4.6,4.6
	c0.4,0.3,0.4,0.9,0.1,1.3c0,0,0,0,0,0c-0.1,0.1-0.2,0.2-0.3,0.2l-21.9,13.1"/>
<path class="st0" d="M285.7,119.5l-11.6,11.6c-0.5,0.5-0.5,1.2,0,1.7l9.6,9.6c0.5,0.5,0.5,1.2,0,1.7l-4.6,4.6
	c-0.4,0.3-0.4,0.9-0.1,1.2c0.1,0.1,0.2,0.2,0.3,0.2l21.2,12.4"/>
<path class="st0" d="M311.7,143.9l4.6,4.6c0.4,0.4,0.5,1,0.1,1.4c0,0,0,0-0.1,0.1c0,0-0.1,0.1-0.1,0.1l-18.3,14.4"/>
<path class="st1" d="M297.9,164.8c-0.1,0-0.2,0-0.2-0.1c-0.1-0.1-0.1-0.3,0-0.4l0,0l18.3-14.4c0.2-0.1,0.3-0.3,0.3-0.6
	c0-0.2-0.1-0.4-0.2-0.6l-4.6-4.6c-0.1-0.1-0.1-0.3,0-0.4c0,0,0,0,0,0c0.1-0.1,0.3-0.1,0.4,0l4.6,4.6c0.3,0.3,0.4,0.7,0.4,1.1
	c0,0.4-0.2,0.8-0.5,1l-18.3,14.4L297.9,164.8z"/>
<path class="st0" d="M311.1,120.8l10.2,10.1c0.5,0.5,0.5,1.2,0,1.7l-10.5,10.5"/>
<path class="st1" d="M310.8,143.4c-0.1,0-0.1,0-0.2-0.1c-0.1-0.1-0.1-0.3,0-0.4l0,0l10.6-10.5c0.3-0.4,0.3-0.9,0-1.3L311,121
	c-0.1-0.1-0.1-0.3,0.1-0.4c0.1-0.1,0.3-0.1,0.4,0l10.2,10.1c0.6,0.6,0.6,1.5,0,2.1c0,0,0,0,0,0l0,0l-10.6,10.5
	C311,143.4,310.9,143.4,310.8,143.4z"/>
<path class="st0" d="M283.9,143.9l-4.8,4.7c-0.4,0.4-0.4,1.1,0,1.6c0,0,0.1,0.1,0.1,0.1l16.5,14.2"/>
<path class="st1" d="M295.7,164.8c-0.1,0-0.1,0-0.2-0.1L279,150.5c-0.6-0.5-0.7-1.4-0.2-2c0,0,0,0,0,0l0.1-0.1l4.8-4.7
	c0.1-0.1,0.3-0.1,0.4,0c0.1,0.1,0.1,0.3,0,0.4c0,0,0,0,0,0l0,0l-4.8,4.7c-0.2,0.2-0.2,0.4-0.2,0.6c0,0.2,0.1,0.4,0.3,0.6l16.5,14.2
	c0.1,0.1,0.1,0.3,0,0.4c0,0,0,0,0,0C295.9,164.7,295.8,164.8,295.7,164.8z"/>
<path class="st0" d="M283.9,121.2l-9.9,9.8c-0.5,0.5-0.5,1.2,0,1.7c0,0,0,0,0,0l10.5,10.5"/>
<path class="st1" d="M284.6,143.5c-0.1,0-0.1,0-0.2-0.1L273.9,133c-0.6-0.6-0.6-1.5,0-2.1c0,0,0,0,0,0l0,0l9.9-9.8
	c0.1-0.1,0.3-0.1,0.4,0c0.1,0.1,0.1,0.2,0.1,0.4l-0.1,0.1l-9.9,9.8c-0.4,0.4-0.4,0.9,0,1.3l10.5,10.4c0.1,0.1,0.1,0.3,0,0.4l0,0
	C284.8,143.5,284.7,143.5,284.6,143.5z"/>
<polyline class="st3" points="429.1,238.7 365.8,191.7 365.8,238.7 "/>
<path class="st0" d="M429.1,239.3c-0.1,0-0.3,0-0.4-0.1l-62.4-46.3v45.8c0,0.3-0.2,0.6-0.5,0.7c-0.3,0-0.6-0.2-0.7-0.5
	c0-0.1,0-0.1,0-0.2v-47c0-0.2,0.1-0.4,0.3-0.5c0.2-0.1,0.4-0.1,0.6,0l63.3,47c0.3,0.2,0.3,0.6,0.1,0.9
	C429.5,239.2,429.3,239.3,429.1,239.3z"/>
<polygon class="st3" points="232.4,191.6 232.4,238.6 169.1,238.6 "/>
<path class="st0" d="M232.4,239.2h-63.3c-0.3,0-0.5-0.2-0.6-0.4c-0.1-0.3,0-0.5,0.2-0.7l63.3-47c0.2-0.1,0.4-0.1,0.6,0
	c0.2,0.1,0.3,0.3,0.3,0.6v47C233,238.9,232.8,239.2,232.4,239.2z M171,238h60.9v-45.2L171,238z"/>
<polygon class="st1" points="437.2,232.3 431,227.7 427.7,225.1 427.6,225.1 383,191.7 366.5,191.7 411.2,225.1 187.7,225.1 
	232.4,191.6 216,191.6 161.8,232.2 162,232.2 161.8,232.4 437.1,232.4 437,232.3 "/>
<path class="st0" d="M437.1,233H161.8c-0.3,0-0.5-0.2-0.5-0.4c0-0.1,0-0.2,0-0.3c0-0.2,0-0.4,0.2-0.6l54.2-40.6
	c0.1-0.1,0.2-0.1,0.3-0.1h16.4c0.3,0,0.5,0.2,0.6,0.4c0.1,0.2,0,0.5-0.2,0.7l-43.3,32.5h219.9l-43.2-32.3c-0.2-0.2-0.3-0.4-0.2-0.7
	c0.1-0.2,0.3-0.4,0.6-0.4H383c0.1,0,0.3,0,0.4,0.1l44.5,33.3c0.1,0,0.2,0,0.3,0.1l3.2,2.5l6.2,4.6c0.3,0.2,0.3,0.6,0.1,0.9
	c0,0-0.1,0.1-0.2,0.1C437.4,233,437.2,233,437.1,233z M163.3,231.8h272.1l-4.8-3.6l-3.1-2.4c-0.1,0-0.2-0.1-0.3-0.1l-44.5-33.3
	h-14.4l43.2,32.3c0.2,0.2,0.3,0.4,0.2,0.7c-0.1,0.3-0.3,0.4-0.6,0.4H187.7c-0.3,0-0.5-0.2-0.6-0.4c-0.1-0.3,0-0.5,0.2-0.7l43.3-32.5
	h-14.4L163.3,231.8z"/>
<rect x="161.8" y="232.4" class="st4" width="275.3" height="35.8"/>
<path class="st0" d="M437.1,268.8H161.8c-0.3,0-0.6-0.3-0.6-0.6c0,0,0,0,0,0l0,0v-35.8c0-0.3,0.3-0.6,0.6-0.6h0h275.3
	c0.3,0,0.6,0.3,0.6,0.6v0v35.8C437.7,268.5,437.5,268.8,437.1,268.8C437.2,268.8,437.2,268.8,437.1,268.8L437.1,268.8z M162.4,267.6
	h274.1V233H162.4L162.4,267.6z"/>
<path class="st0" d="M377.7,211.9h-3.6v-46.7c0.1-14.9-5.8-29.3-16.2-39.9l-13.5-13.8l2.5-2.6l13.5,13.8
	c11.2,11.3,17.4,26.6,17.3,42.5V211.9z"/>
<path class="st0" d="M349.1,107c-1.8-1.8-4.8-1.9-6.6-0.1c0,0,0,0,0,0l-0.1,0.1c-1.9,1.9-1.9,4.9,0,6.8c1.8,1.8,4.7,1.9,6.6,0.1
	l0.1-0.1C351,111.9,351,108.9,349.1,107z"/>
<path class="st0" d="M224.1,211.9h-3.6v-46.7c-0.1-15.9,6.2-31.2,17.3-42.5l13.6-13.8l2.5,2.6l-13.6,13.7
	c-10.5,10.7-16.3,25-16.3,40L224.1,211.9z"/>
<path class="st0" d="M255.8,113.8c1.9-1.9,1.9-4.9,0-6.8c-1.8-1.8-4.8-1.9-6.6-0.1c0,0,0,0,0,0c0,0,0,0-0.1,0.1
	c-1.8,1.9-1.8,4.9,0,6.8c1.8,1.8,4.7,1.9,6.6,0.1L255.8,113.8z"/>
<path class="st2" d="M315,175.8c-5.6,0-10.5,3.7-12.1,9.1c-4.3-2.4-9.7-0.8-12,3.4c0,0-0.1,0.1-0.1,0.1c-3.8-8.1-13.4-11.5-21.5-7.7
	c-5,2.3-8.4,7.1-9.1,12.5c-2.3-2.3-5.5-3.6-8.8-3.6c-6.6,0-12.1,5.1-12.6,11.7l0,0c-2.8,0-5.4,1.4-7.1,3.6c-0.5-0.1-1-0.1-1.5-0.1
	c-5.7,0-10.7,3.9-12.2,9.4c-1.5-0.7-3.2-1-4.8-1c-6.4,0-11.8,4.8-12.6,11.2h197.4c-1.5-5.4-6.5-9.2-12.2-9.2h-0.2
	c-3.1-3.8-8.7-4.3-12.4-1.2h0c-0.7-5.3-5.2-9.3-10.5-9.3c-0.9,0-1.9,0.1-2.8,0.4v-0.4c0.1-8.3-6.6-15.1-14.9-15.1c0,0,0,0-0.1,0l0,0
	c-1.8,0-3.5,0.3-5.1,0.9c-3.1-3.8-8.6-4.4-12.4-1.4v-0.7C327.6,181.6,322,175.9,315,175.8z"/>
<ellipse class="st5" cx="244" cy="200.7" rx="5.9" ry="6"/>
<ellipse class="st5" cx="281.8" cy="215.1" rx="5.9" ry="6"/>
<ellipse class="st5" cx="318.9" cy="191.6" rx="5.9" ry="6"/>
<ellipse class="st5" cx="336.5" cy="211.9" rx="5.9" ry="6"/>
<ellipse class="st5" cx="353.3" cy="200.7" rx="5.9" ry="6"/>
<path class="st1" d="M305.1,72.6c-3.6,3.7-3.6,9.5,0.1,13.1c3.7,3.6,9.5,3.6,13.1-0.1c3.6-3.7,3.6-9.5-0.1-13.1
	C314.6,69,308.8,69,305.1,72.6L305.1,72.6L305.1,72.6z"/>
</svg>
