<svg id="圖層_1" data-name="圖層 1" xmlns="http://www.w3.org/2000/svg" viewBox="0 0 230 200"><defs><style>.cls-1{fill:#afafaf;}.cls-2{fill:#e0e0e0;}.cls-3{fill:#fff;}.cls-4{fill:#424242;}.cls-5{fill:#525252;}.cls-6{fill:#ffda6a;}</style></defs><title>12</title><rect class="cls-1" x="49.75" y="9.4" width="137.35" height="179.18" transform="translate(16.43 -16.86) rotate(8.75)"/><rect class="cls-2" x="29.2" y="9.4" width="137.35" height="179.18" transform="translate(16.19 -13.73) rotate(8.75)"/><rect class="cls-3" x="13.84" y="10.41" width="137.35" height="179.18" transform="translate(16.16 -11.38) rotate(8.75)"/><path class="cls-4" d="M136.76,200h-.15L.86,179.1a1,1,0,0,1-.66-.4A1,1,0,0,1,0,178L27.26.86A1,1,0,0,1,28.41,0L164.16,20.89a1,1,0,0,1,.66.41,1,1,0,0,1,.19.75L137.76,199.14A1,1,0,0,1,136.76,200ZM2.17,177.26l133.75,20.57L162.85,22.74,29.1,2.16Z"/><line class="cls-3" x1="77.5" y1="174.06" x2="55.65" y2="170.7"/><path class="cls-4" d="M77.5,174.56h-.07L55.57,171.2a.5.5,0,0,1-.42-.58.49.49,0,0,1,.57-.42l21.86,3.36a.49.49,0,0,1,.42.57A.5.5,0,0,1,77.5,174.56Z"/><line class="cls-3" x1="95.22" y1="176.78" x2="86.11" y2="175.38"/><path class="cls-4" d="M95.22,177.29h-.08l-9.1-1.4a.51.51,0,0,1-.43-.57.51.51,0,0,1,.58-.43l9.1,1.4a.51.51,0,0,1-.07,1Z"/><polyline class="cls-3" points="146.47 59.8 127.71 181.78 90.04 175.99"/><path class="cls-4" d="M127.71,182.29h-.08L90,176.49a.52.52,0,0,1-.42-.58.5.5,0,0,1,.58-.42l37.17,5.72,19-123.84a.52.52,0,0,1,.58-.42.5.5,0,0,1,.42.58l-19.1,124.33a.5.5,0,0,1-.2.33A.54.54,0,0,1,127.71,182.29Z"/><polyline class="cls-3" points="73.75 23.75 150.21 35.51 147.96 50.18"/><path class="cls-4" d="M148,50.68h-.08a.5.5,0,0,1-.42-.58l2.17-14.17-76-11.68a.51.51,0,0,1-.42-.58.5.5,0,0,1,.58-.42L150.29,35a.51.51,0,0,1,.42.58l-2.26,14.66A.5.5,0,0,1,148,50.68Z"/><path class="cls-3" d="M30.57,140.58a11.53,11.53,0,0,0-8.86,9.5l-1,6.37L43.58,160l1-6.37A11.54,11.54,0,0,0,39,141.87"/><path class="cls-4" d="M41.38,143.76l-7.88,5.78-5.79-7.89a11.49,11.49,0,0,0-6,8.43l-1,6.37L43.58,160l1-6.37A11.53,11.53,0,0,0,41.38,143.76Z"/><path class="cls-4" d="M44,160.54l-23.85-3.67L21.21,150a12,12,0,0,1,9.25-9.92l.22,1a11,11,0,0,0-8.47,9.09l-.9,5.86,21.85,3.36.9-5.86a11,11,0,0,0-5.35-11.22l.51-.87a12,12,0,0,1,5.84,12.24Z"/><path class="cls-4" d="M36.1,143a9,9,0,0,1-1.36-.11h0l-.44-.07a8.86,8.86,0,0,1-7.43-10.13l.42-2.74a8.87,8.87,0,0,1,10.13-7.43l.45.06a8.91,8.91,0,0,1,7.43,10.14l-.42,2.74A8.91,8.91,0,0,1,36.1,143Zm-1.2-1.11a7.88,7.88,0,0,0,9-6.58l.42-2.75a7.89,7.89,0,0,0-6.59-9l-.44-.06a7.88,7.88,0,0,0-9,6.58l-.42,2.75a7.86,7.86,0,0,0,6.58,9Z"/><path class="cls-4" d="M110.78,58.41l-5-.77,1.23-8,5,.77Zm-8-1.23-5-.77,1.23-8,5,.77Zm-8-1.23-5-.77,1.23-8L96,48Zm-8-1.23-5-.77L83,46l5,.77Zm-8-1.23-5-.77,1.23-8,5,.77Z"/><path class="cls-4" d="M103.33,106.84l-5-.77,1.23-8,5,.76Zm-8-1.23-5-.77,1.23-8,5,.77Zm-8-1.23-5-.77,1.23-8,5,.77Zm-8-1.23-5-.77,1.23-8,5,.77Zm-8-1.23-5-.77,1.23-8,5,.77Z"/><path class="cls-4" d="M95.61,157l-5-.76,1.23-8,5,.77Zm-8-1.23-5-.76,1.23-8,5,.77Zm-8-1.23-5-.77,1.23-8,5,.77Zm-8-1.23-5-.76,1.23-8,5,.77Zm-8-1.23-5-.77,1.23-8,5,.77Z"/><rect class="cls-4" x="32.59" y="72.63" width="20.82" height="30.12" rx="9.08" transform="translate(13.83 -5.52) rotate(8.75)"/><path class="cls-3" d="M38,92.14a11.54,11.54,0,0,0-8.86,9.51l-1,6.36L51,111.53l1-6.37a11.56,11.56,0,0,0-5.6-11.73"/><path class="cls-1" d="M48.83,95.33,41,101.11l-5.79-7.89a11.47,11.47,0,0,0-6,8.43l-1,6.36L51,111.53l1-6.37A11.49,11.49,0,0,0,48.83,95.33Z"/><path class="cls-4" d="M51.45,112.1,27.6,108.43l1.06-6.86a12,12,0,0,1,9.25-9.92l.22,1a11,11,0,0,0-8.47,9.09l-.9,5.87L50.61,111l.9-5.87a11,11,0,0,0-5.35-11.21l.51-.87a12,12,0,0,1,5.84,12.24Z"/><rect class="cls-3" x="34.93" y="74.46" width="17.21" height="19.54" rx="8.28" transform="translate(13.31 -5.64) rotate(8.75)"/><path class="cls-4" d="M43.55,94.52a9,9,0,0,1-1.36-.1h0l-.44-.07a8.89,8.89,0,0,1-7.43-10.13l.42-2.75A8.9,8.9,0,0,1,44.87,74l.45.07a8.9,8.9,0,0,1,7.43,10.13L52.33,87A8.91,8.91,0,0,1,43.55,94.52Zm-1.2-1.1a7.88,7.88,0,0,0,9-6.59l.42-2.74a7.88,7.88,0,0,0-6.58-9L44.72,75a7.88,7.88,0,0,0-9,6.59l-.42,2.74a7.88,7.88,0,0,0,6.58,9Z"/><path class="cls-4" d="M52.61,82.92S40.47,85.8,39,76.06l3.65-1.48,5.69,1.09,3,3.08Z"/><path class="cls-4" d="M30.67,124.51s3.78,7.77,12.81,2.3C43.48,126.81,39.34,119.26,30.67,124.51Z"/><path class="cls-4" d="M47.71,24.06h7.93A4.95,4.95,0,0,1,60.58,29v4.76a7,7,0,0,1-7,7H47.71a7,7,0,0,1-7-7V31a7,7,0,0,1,7-7Z" transform="translate(5.58 -7.41) rotate(8.84)"/><path class="cls-3" d="M45.37,43.27a11.53,11.53,0,0,0-8.86,9.5l-1,6.37,22.85,3.51,1-6.36a11.54,11.54,0,0,0-5.6-11.73"/><path class="cls-4" d="M56.18,46.45,48.3,52.23l-5.79-7.89a11.51,11.51,0,0,0-6,8.43l-1,6.37,22.85,3.51,1-6.36A11.51,11.51,0,0,0,56.18,46.45Z"/><path class="cls-4" d="M58.8,63.23,35,59.56,36,52.69a12,12,0,0,1,9.25-9.92l.23,1A11,11,0,0,0,37,52.85l-.9,5.86L58,62.08l.9-5.87A11,11,0,0,0,53.51,45l.51-.87a12,12,0,0,1,5.84,12.24Z"/><path class="cls-4" d="M50.9,45.65a8.78,8.78,0,0,1-1.35-.11h0l-.44-.07a8.88,8.88,0,0,1-7.43-10.13l.42-2.74a8.87,8.87,0,0,1,10.13-7.43l.45.06A8.9,8.9,0,0,1,60.1,35.37l-.42,2.74A8.91,8.91,0,0,1,50.9,45.65Zm-1.2-1.11a7.87,7.87,0,0,0,9-6.58l.42-2.75a7.88,7.88,0,0,0-6.58-9l-.45-.06a7.88,7.88,0,0,0-9,6.58l-.42,2.75a7.86,7.86,0,0,0,6.58,9Z"/><path class="cls-3" d="M49.7,44.54a7.87,7.87,0,0,0,9-6.58l.42-2.75a7.88,7.88,0,0,0-6.58-9l-.45-.06a7.88,7.88,0,0,0-9,6.58l-.42,2.75a7.86,7.86,0,0,0,6.58,9Z"/><path class="cls-4" d="M41.77,22.17h12a2.61,2.61,0,0,1,2.61,2.61v2.1A2.33,2.33,0,0,1,54,29.21H44.1a2.33,2.33,0,0,1-2.33-2.33V22.17A0,0,0,0,1,41.77,22.17Z" transform="translate(4.53 -7.24) rotate(8.84)"/><path class="cls-3" d="M210.18,138.8h14.88a4.17,4.17,0,0,1,4.17,4.17v4.17a3.88,3.88,0,0,1-3.88,3.88H210.18a2.81,2.81,0,0,1-2.81-2.81v-6.61A2.81,2.81,0,0,1,210.18,138.8Z" transform="translate(49.88 -55.81) rotate(16.42)"/><path class="cls-5" d="M224.42,153.42a4.48,4.48,0,0,1-1.24-.18L208.64,149a3.31,3.31,0,0,1-2.24-4.11l1.87-6.34a3.31,3.31,0,0,1,4.11-2.24l14.27,4.21a4.66,4.66,0,0,1,3.16,5.79l-1.18,4A4.39,4.39,0,0,1,224.42,153.42Zm-13-16.29a2.32,2.32,0,0,0-2.21,1.66l-1.87,6.34a2.31,2.31,0,0,0,1.56,2.87l14.55,4.28a3.38,3.38,0,0,0,4.2-2.29l1.18-4a3.67,3.67,0,0,0-2.48-4.55h0l-14.27-4.21A2.51,2.51,0,0,0,211.44,137.13Z"/><polygon class="cls-3" points="185.58 193.04 165.94 187.25 193.16 131.12 212.81 136.91 185.58 193.04"/><path class="cls-5" d="M185.58,194a.9.9,0,0,1-.28,0l-19.65-5.79a1,1,0,0,1-.62-1.4l27.23-56.13a1,1,0,0,1,1.18-.52L213.09,136a1,1,0,0,1,.63.55,1,1,0,0,1,0,.84l-27.23,56.14A1,1,0,0,1,185.58,194Zm-18.23-7.42,17.7,5.22,26.34-54.31-17.7-5.22Z"/><path class="cls-3" d="M210.31,156.7a6,6,0,0,1-1.73-.25l-19.26-5.68,7.56-25.64,19,5.6a6.37,6.37,0,0,1,4.31,7.91l-4,13.69a6.13,6.13,0,0,1-5.84,4.37Z"/><path class="cls-5" d="M197.56,126.37l18,5.32a5.39,5.39,0,0,1,3.63,6.67l-4,13.69a5.11,5.11,0,0,1-4.88,3.65,5,5,0,0,1-1.44-.21l-18.3-5.39,7-23.73m-1.35-2.48-8.13,27.56,20.22,6a7.09,7.09,0,0,0,8.81-4.8l4-13.68a7.39,7.39,0,0,0-5-9.16l-19.95-5.88Z"/><circle class="cls-3" cx="126.46" cy="116.16" r="16.43"/><path class="cls-5" d="M126.45,133.09a17.27,17.27,0,0,1-4.78-.69,16.94,16.94,0,1,1,4.78.69Zm0-32.87a15.93,15.93,0,1,0,4.5.65A16,16,0,0,0,126.47,100.22Z"/><polygon class="cls-6" points="137.01 78.88 198.58 124.6 190.46 152.15 114.5 155.26 137.01 78.88"/><rect class="cls-3" x="120.09" y="75.7" width="10.92" height="84.14" rx="3.59" transform="translate(38.42 -30.69) rotate(16.42)"/><path class="cls-5" d="M116.46,159.8a4.5,4.5,0,0,1-1.3-.19h0l-3.58-1.05a4.59,4.59,0,0,1-3.11-5.71L130.23,79a4.61,4.61,0,0,1,5.71-3.11L139.51,77a4.59,4.59,0,0,1,3.11,5.7l-21.76,73.82a4.52,4.52,0,0,1-2.21,2.73A4.46,4.46,0,0,1,116.46,159.8Zm-.74-2.1a2.62,2.62,0,0,0,2-.21,2.56,2.56,0,0,0,1.24-1.55L140.7,82.13A2.59,2.59,0,0,0,139,78.91l-3.58-1.06a2.59,2.59,0,0,0-3.22,1.76l-21.76,73.81a2.59,2.59,0,0,0,1.75,3.22Z"/><line class="cls-3" x1="198.87" y1="134.32" x2="212.13" y2="138.22"/><path class="cls-5" d="M212.13,138.73a.32.32,0,0,1-.14,0l-13.26-3.9a.51.51,0,0,1-.34-.62.5.5,0,0,1,.62-.34l13.26,3.91a.5.5,0,0,1,.34.62A.52.52,0,0,1,212.13,138.73Z"/><line class="cls-3" x1="197.55" y1="138.79" x2="210.81" y2="142.7"/><path class="cls-5" d="M210.81,143.2l-.14,0-13.26-3.91a.5.5,0,1,1,.28-1L211,142.22a.5.5,0,0,1-.14,1Z"/><line class="cls-3" x1="196.23" y1="143.27" x2="209.49" y2="147.18"/><path class="cls-5" d="M209.49,147.68l-.14,0-13.26-3.91a.51.51,0,0,1-.34-.62.5.5,0,0,1,.63-.34l13.25,3.91a.5.5,0,0,1,.34.62A.51.51,0,0,1,209.49,147.68Z"/><path class="cls-3" d="M189.37,129.49a1,1,0,0,1-.58-.18L142.4,96.43a1,1,0,1,1,1.15-1.63L190,127.68a1,1,0,0,1,.24,1.39A1,1,0,0,1,189.37,129.49Z"/><path class="cls-3" d="M187.74,135a1,1,0,0,1-.57-.18L156,112.92a1,1,0,0,1-.24-1.39,1,1,0,0,1,1.39-.25l31.21,21.87a1,1,0,0,1-.58,1.82Z"/></svg>