<svg id="圖層_1" data-name="圖層 1" xmlns="http://www.w3.org/2000/svg" viewBox="0 0 599 297"><defs><style>.cls-1{fill:#fff;}.cls-2{fill:#424242;}.cls-3,.cls-8{fill:none;}.cls-4{fill:#ffda6a;}.cls-5{fill:#2caff5;}.cls-6{fill:#00ffa7;}.cls-7{fill:#525252;}.cls-8{stroke:#fff;stroke-miterlimit:10;opacity:0;}</style></defs><title>5</title><rect class="cls-1" x="152.77" y="65.98" width="215.35" height="165.07" transform="matrix(0.15, -0.99, 0.99, 0.15, 74.04, 383.34)"/><path class="cls-2" d="M325.65,268.7h-.18L162.33,243.58a1.2,1.2,0,0,1-.79-.48,1.18,1.18,0,0,1-.24-.85l32.76-212.9a1.2,1.2,0,0,1,1.34-1h0L358.58,53.43a1.23,1.23,0,0,1,.8.49,1.2,1.2,0,0,1,.22.9L326.86,267.66A1.22,1.22,0,0,1,325.65,268.7ZM163.9,241.36l160.74,24.73L357,55.65,196.27,30.92Z"/><line class="cls-3" x1="254.44" y1="237.52" x2="228.18" y2="233.48"/><path class="cls-2" d="M254.44,238.12h-.09l-26.27-4a.6.6,0,0,1-.51-.68v0a.57.57,0,0,1,.65-.5h0l26.27,4a.59.59,0,0,1,.51.66v0A.61.61,0,0,1,254.44,238.12Z"/><rect class="cls-4" x="174.67" y="185.53" width="47.68" height="32.1" transform="translate(-30.93 367.11) rotate(-81.25)"/><line class="cls-3" x1="275.73" y1="240.79" x2="264.78" y2="239.11"/><path class="cls-2" d="M275.73,241.4h-.09l-10.94-1.68a.62.62,0,0,1-.52-.69.61.61,0,0,1,.7-.51h0l10.94,1.68a.61.61,0,0,1-.09,1.2Z"/><polyline class="cls-1" points="337.32 100.19 314.78 246.8 269.51 239.84"/><path class="cls-2" d="M314.78,247.41h-.1l-45.22-7a.63.63,0,0,1-.51-.7.6.6,0,0,1,.68-.5h0l44.67,6.87L337.15,97.27a.62.62,0,0,1,.7-.5.59.59,0,0,1,.51.68h0l-23,149.43a.58.58,0,0,1-.24.4A.64.64,0,0,1,314.78,247.41Z"/><polyline class="cls-1" points="249.93 56.86 341.82 71 339.11 88.63"/><path class="cls-2" d="M339.16,89.23h-.09a.6.6,0,0,1-.51-.68v0l2.61-17-91.34-14a.62.62,0,0,1-.5-.7.6.6,0,0,1,.68-.51h0l91.89,14.13a.61.61,0,0,1,.51.69L339.7,88.7A.61.61,0,0,1,339.16,89.23Z"/><rect class="cls-5" x="193.25" y="64.84" width="47.68" height="32.1" transform="translate(104.11 283.14) rotate(-81.25)"/><rect class="cls-6" x="183.86" y="125.79" width="47.68" height="32.1" transform="translate(35.91 325.54) rotate(-81.25)"/><path class="cls-1" d="M240.9,86a10.33,10.33,0,1,0-10.08-1.55,13.88,13.88,0,0,0-10.64,11.37l-1.2,7.66,27.46,4.21,1.21-7.64A13.88,13.88,0,0,0,240.9,86Z"/><path class="cls-5" d="M243.81,88.25l-9.47,6.94L227.4,85.7a13.82,13.82,0,0,0-7.22,10.13l-1.2,7.66,27.46,4.21,1.21-7.64A13.84,13.84,0,0,0,243.81,88.25Z"/><path class="cls-2" d="M247,108.4,218.3,104l1.27-8.26a14.41,14.41,0,0,1,10-11.62A10.94,10.94,0,1,1,242.19,86a14.43,14.43,0,0,1,6,14.1ZM219.68,103,246,107,247,100a13.21,13.21,0,0,0-6.42-13.47l-1.1-.65,1.2-.44a9.73,9.73,0,1,0-9.49-1.47l1,.79L231,85a13.22,13.22,0,0,0-10.18,10.93Z"/><path class="cls-2" d="M304.75,99.72l-6-.92,1.47-9.62,6,.93Zm-9.61-1.48-6-.92,1.49-9.62,6,.93Zm-9.61-1.47-6-.93L281,86.23l6,.92Zm-9.62-1.48-6-.93,1.48-9.61,6,.92Zm-9.61-1.48-6-.93,1.48-9.61,6,.92Z"/><path class="cls-2" d="M295.8,157.93l-6-.93,1.48-9.61,6,.91Zm-9.61-1.48-6-.92,1.48-9.62,6,.93ZM276.57,155l-6-.92,1.48-9.62,6,.93ZM267,153.5l-6-.93,1.48-9.62,6,.93ZM257.34,152l-6-.93,1.48-9.61,6,.92Z"/><path class="cls-2" d="M286.52,218.22l-6-.92,1.48-9.61,6,.92Zm-9.61-1.48-6-.92,1.48-9.61,6,.93Zm-9.62-1.48-6-.93,1.47-9.61,6,.93Zm-9.61-1.48-6-.91,1.48-9.62,6,.93Zm-9.61-1.48-6-.92,1.48-9.62,6,.93Z"/><path class="cls-1" d="M219.67,202.3a9.47,9.47,0,0,0,10.81-7.92l.51-3.29a9.48,9.48,0,0,0-7.9-10.82h0l-.54-.08a9.48,9.48,0,0,0-10.77,8h0l-.5,3.3a9.47,9.47,0,0,0,7.9,10.82h.5Z"/><path class="cls-2" d="M232,145.23,224.52,144c-6.4-1-10.55-3.79-9.61-10.2h0c1-6.36,13.18-13,13.18-13l7.48,1.21s9.17,9.7,8.18,16.1h0C242.77,144.53,238.4,146.21,232,145.23Z"/><path class="cls-1" d="M223.42,142.5a13.88,13.88,0,0,0-10.65,11.43l-1.2,7.65L239,165.8l1.2-7.65a13.88,13.88,0,0,0-6.73-14.09"/><path class="cls-6" d="M236.41,146.38l-9.47,6.94-7-9.49A13.87,13.87,0,0,0,212.77,154l-1.2,7.66L239,165.84l1.2-7.66A13.82,13.82,0,0,0,236.41,146.38Z"/><path class="cls-2" d="M239.57,166.54l-28.68-4.42,1.28-8.25A14.4,14.4,0,0,1,223.28,142l.28,1.2a13.23,13.23,0,0,0-10.19,10.92l-1.08,7.05,26.26,4,1.08-7a13.22,13.22,0,0,0-6.43-13.48l.61-1a14.43,14.43,0,0,1,7,14.71Z"/><rect class="cls-1" x="218.29" y="122.71" width="23.48" height="20.68" rx="9.95" transform="translate(63.53 340.16) rotate(-81.25)"/><path class="cls-2" d="M230.06,145.42a11.06,11.06,0,0,1-1.62-.13h0l-.54-.09A10.67,10.67,0,0,1,219,133l.51-3.31a10.7,10.7,0,0,1,12.17-8.93l.54.07a10.7,10.7,0,0,1,8.93,12.19l-.52,3.31A10.71,10.71,0,0,1,230.06,145.42Zm-1.46-1.34a9.45,9.45,0,0,0,10.81-7.87v0l.51-3.3a9.46,9.46,0,0,0-7.9-10.81h0l-.54-.09a9.49,9.49,0,0,0-10.82,7.92l-.47,3.31A9.46,9.46,0,0,0,228,144h.05Z"/><path class="cls-2" d="M219.82,131.46s14.59,3.47,16.4-8.19l-4.39-1.78L225,122.76l-3.6,3.69Z"/><path class="cls-1" d="M214.46,200.77a13.85,13.85,0,0,0-10.64,11.41l-1.21,7.66,27.47,4.22,1.2-7.65a13.88,13.88,0,0,0-6.73-14.09"/><path class="cls-4" d="M227.46,204.6l-9.47,7-7-9.5a13.83,13.83,0,0,0-7.21,10.13l-1.21,7.66,27.47,4.22,1.2-7.65A13.8,13.8,0,0,0,227.46,204.6Z"/><path class="cls-2" d="M230.6,224.75l-28.66-4.41,1.27-8.24a14.43,14.43,0,0,1,11.12-11.91l.27,1.2a13.2,13.2,0,0,0-10.18,10.93l-1.08,7.05,26.25,4,1.09-7.06a13.24,13.24,0,0,0-6.43-13.47l.61-1.06a14.44,14.44,0,0,1,7,14.73Z"/><path class="cls-2" d="M221.11,203.63a10.94,10.94,0,0,1-1.62-.12h0l-.53-.09A10.7,10.7,0,0,1,210,191.23l.5-3.29A10.69,10.69,0,0,1,222.71,179l.54.09a10.68,10.68,0,0,1,8.95,12.17l-.5,3.31A10.72,10.72,0,0,1,221.11,203.63Zm-1.44-1.33a9.47,9.47,0,0,0,10.81-7.92l.51-3.29a9.48,9.48,0,0,0-7.9-10.82h0l-.54-.08a9.48,9.48,0,0,0-10.77,8h0l-.5,3.3a9.47,9.47,0,0,0,7.9,10.82h.5Z"/><path class="cls-2" d="M212.13,186.13s5.64-.09,6.71-7.09C218.84,179,213.17,179.38,212.13,186.13Z"/><path class="cls-2" d="M231.31,192.83S217,184.7,218.84,179C218.84,179,234.1,179,231.31,192.83Z"/><path class="cls-1" d="M297.47,113.29l24.87-10h17.84c10.37,0,15.35,6.18,15.35,6.18l12.66,32.2L387.49,161,365.7,182.79"/><path class="cls-7" d="M365.73,184a1.21,1.21,0,0,1-.85-2.05L385.83,161l-18.45-18.44a1.42,1.42,0,0,1-.28-.41l-12.58-32c-.77-.87-5.37-5.62-14.31-5.62H322.6l-24.68,9.87a1.21,1.21,0,1,1-.89-2.24h0l24.9-10a1.11,1.11,0,0,1,.44-.08h17.84c10.81,0,16.08,6.36,16.29,6.63a1,1,0,0,1,.18.32L369.21,141l19.23,19.11a1.2,1.2,0,0,1,.34.86,1.18,1.18,0,0,1-.34.85l-21.79,21.78A1.21,1.21,0,0,1,365.73,184Z"/><polygon class="cls-1" points="265.35 109.36 285.38 124.79 290.48 106.49 265.35 109.36"/><path class="cls-7" d="M285.38,125.4a.63.63,0,0,1-.37-.12l-20-15.45a.56.56,0,0,1-.22-.64.59.59,0,0,1,.51-.43l25.13-2.86a.56.56,0,0,1,.52.21.58.58,0,0,1,.12.55L286,125a.67.67,0,0,1-.4.42Zm-18.49-15.63,18.19,14,4.63-16.58Z"/><rect class="cls-4" x="322.09" y="81.42" width="20.01" height="93.18" transform="translate(119.69 413.59) rotate(-74.44)"/><polygon class="cls-7" points="276.31 107.9 274.02 116.18 265.89 109.71 276.31 107.9"/><polygon class="cls-1" points="374.01 134.45 292.99 111.9 291.74 116.39 290.58 116.08 292.16 110.41 292.74 110.58 374.33 133.29 374.01 134.45"/><polygon class="cls-1" points="371.86 141.47 291.38 119.06 290.08 123.75 288.93 123.42 290.55 117.58 291.13 117.75 372.19 140.31 371.86 141.47"/><path class="cls-1" d="M363.45,178.43l-12-12H329l-28.22-41.1s13.7-7.88,19.92,0a137.75,137.75,0,0,0,15.35,15.77"/><path class="cls-7" d="M363.45,179.64a1.23,1.23,0,0,1-.84-.35l-11.69-11.68H329a1.24,1.24,0,0,1-1-.53L299.8,126a1.2,1.2,0,0,1,.39-1.72c.6-.35,14.67-8.31,21.46.29a135.93,135.93,0,0,0,15.2,15.62,1.21,1.21,0,1,1-1.57,1.83,139.94,139.94,0,0,1-15.52-15.94c-4.53-5.73-13.92-1.9-17.2-.3l27.08,39.44h21.78a1.16,1.16,0,0,1,.85.34l12,12a1.2,1.2,0,0,1,0,1.7,1.22,1.22,0,0,1-.86.36Z"/><polyline class="cls-1" points="349.14 183.09 383.01 149.22 407.99 174.19 360.47 194.42 349.14 183.09"/><path class="cls-7" d="M360.47,195a.58.58,0,0,1-.43-.18L348.7,183.51a.62.62,0,0,1,0-.84l33.88-33.87a.6.6,0,0,1,.85,0h0l25,24.95a.55.55,0,0,1,.16.54.61.61,0,0,1-.35.43L360.7,195A.88.88,0,0,1,360.47,195ZM350,183.09,360.6,193.7,406.94,174,383,150.07Z"/><polygon class="cls-2" points="437.71 197.42 357.14 197.57 351.71 192.15 392.08 151.79 437.71 197.42"/><rect class="cls-8" width="598" height="296"/></svg>