<svg id="圖層_1" data-name="圖層 1" xmlns="http://www.w3.org/2000/svg" viewBox="0 0 599 297"><defs><style>.cls-1{fill:#424242;}.cls-2{fill:#fff;}.cls-3{fill:#afafaf;}.cls-4{fill:#f4f4f4;}.cls-5{fill:#f8f8f8;}.cls-6{fill:#00ffa7;}.cls-7{fill:#ffda6a;}</style></defs><title>9</title><rect class="cls-1" x="240.78" y="110.28" width="117.37" height="142.3" rx="56.26"/><polyline class="cls-2" points="286.49 133.8 297.49 122.47 309.32 133.8 298.19 163.2"/><polygon class="cls-3" points="300.85 137.21 294.4 137.21 290.78 123.55 304.47 123.55 300.85 137.21"/><polygon class="cls-3" points="294.4 137.21 300.85 137.21 305.78 159.51 297.65 165.75 289.46 159.58 294.4 137.21"/><path class="cls-2" d="M326.26,69.54H326v-.21C326,43.94,313.29,41,297.65,41h0c-15.62,0-28.33-4.35-28.33,28.29v.21a9.55,9.55,0,0,0,.32,19.09H270A28.36,28.36,0,0,0,285,108v3.21a12.67,12.67,0,0,0,25.32,0V108a28.33,28.33,0,0,0,15-19.36,7.37,7.37,0,0,0,.94,0,9.62,9.62,0,1,0,0-19.11Z"/><path class="cls-1" d="M297.63,124.47a13.22,13.22,0,0,1-13.22-13.22v-2.93A28.7,28.7,0,0,1,269.5,89.25,10.16,10.16,0,0,1,268.73,69c0-12.77,2-20.64,6.26-24.76s10.57-4.08,17.72-3.87c1.61,0,3.26.1,5,.1,14.55,0,28.84,2.21,28.91,28.49a10.16,10.16,0,1,1-.29,20.31h-.47a28.68,28.68,0,0,1-14.9,19.08v2.85a13.22,13.22,0,0,1-13.15,13.29ZM270.41,88l.11.49a27.6,27.6,0,0,0,14.71,18.92l.33.17v3.6a12.06,12.06,0,1,0,24.12,0v-3.54l.34-.17a27.57,27.57,0,0,0,14.76-19.06l.12-.52h.53a6.32,6.32,0,0,0,.87,0,9,9,0,1,0,0-17.91h-.9v-.83c0-25.57-13.12-27.64-27.72-27.64-1.71,0-3.38,0-5-.1-6.89-.21-12.82-.39-16.83,3.53S270,56.57,270,69.21V70h-.58a9,9,0,0,0,.3,17.89Z"/><path class="cls-2" d="M298.47,123a1.21,1.21,0,0,0,0,1.7h0l7.21,7.21a1.22,1.22,0,0,0,1.7,0l11.39-11.29a1.21,1.21,0,0,0,0-1.69l-7.21-7.21a1.2,1.2,0,0,0-1.7,0Z"/><path class="cls-1" d="M306.57,132.71a1.64,1.64,0,0,1-1.2-.48L298.16,125a1.67,1.67,0,0,1,0-2.34l11.33-11.32a1.65,1.65,0,0,1,2.33,0l7.21,7.21a1.75,1.75,0,0,1,0,2.41L307.7,132.3A1.66,1.66,0,0,1,306.57,132.71Zm4.09-21a.74.74,0,0,0-.53.21L298.8,123.27h0a.72.72,0,0,0,0,1s0,0,0,0l7.21,7.21a.77.77,0,0,0,1.07,0l11.33-11.32a.78.78,0,0,0,.21-.53.8.8,0,0,0-.21-.53L311.2,112A.73.73,0,0,0,310.66,111.75ZM298.47,123Z"/><path class="cls-1" d="M313.42,112.66,329,128.2a1.19,1.19,0,0,1,0,1.69l-13.22,13.23a1.21,1.21,0,0,0,0,1.69l6.61,6.6a.82.82,0,0,1-.21,1.4l-24.46,12.9"/><path class="cls-2" d="M297.05,123a1.2,1.2,0,0,1,0,1.7h0l-7.21,7.21a1.2,1.2,0,0,1-1.7,0h0L276.8,120.57a1.22,1.22,0,0,1,0-1.7l7.21-7.21a1.22,1.22,0,0,1,1.7,0Z"/><path class="cls-1" d="M289,132.71a1.64,1.64,0,0,1-1.2-.48l-11.3-11.36a1.74,1.74,0,0,1,0-2.4l7.21-7.22a1.68,1.68,0,0,1,2.34,0l11.33,11.33a1.65,1.65,0,0,1,0,2.33l-7.21,7.21A1.65,1.65,0,0,1,289,132.71Zm-4.07-21a.76.76,0,0,0-.54.21l-7.21,7.21a.75.75,0,0,0-.22.53.71.71,0,0,0,.22.53l11.33,11.32a.75.75,0,0,0,1.06,0l7.21-7.21a.75.75,0,0,0,0-1.06h0L285.4,112A.78.78,0,0,0,284.88,111.75Z"/><path class="cls-1" d="M281.86,112.85l-15.62,15.54a1.2,1.2,0,0,0,0,1.7l13.22,13.22a1.21,1.21,0,0,1,0,1.69l-6.61,6.6a.84.84,0,0,0-.11,1.17.93.93,0,0,0,.32.24l24.46,12.89"/><path class="cls-1" d="M316,145.12l6.34,6.32a1.05,1.05,0,0,1,0,1.47l-.14.12-24.32,19.23"/><path class="cls-2" d="M297.91,172.55a.26.26,0,0,1-.23-.12.3.3,0,0,1,0-.41h0L322,152.78a.78.78,0,0,0,.3-.55.72.72,0,0,0-.24-.59l-6.32-6.32a.31.31,0,0,1-.06-.43.3.3,0,0,1,.42-.06l.06.06,6.32,6.31a1.39,1.39,0,0,1,.41,1.05,1.29,1.29,0,0,1-.53,1l-24.31,19.23A.37.37,0,0,1,297.91,172.55Z"/><path class="cls-1" d="M315.31,114.55,329,128.2a1.19,1.19,0,0,1,0,1.69L314.86,144"/><path class="cls-2" d="M314.86,144.29a.32.32,0,0,1-.21-.08.31.31,0,0,1,0-.42l14.12-14.1a.9.9,0,0,0,0-1.27l-13.68-13.66a.3.3,0,0,1,0-.42h0a.31.31,0,0,1,.42,0L329.19,128a1.38,1.38,0,0,1,.44,1.05,1.5,1.5,0,0,1-.44,1.06l-14.11,14.1A.35.35,0,0,1,314.86,144.29Z"/><path class="cls-1" d="M279.47,145.12,273,151.64a1.08,1.08,0,0,0,0,1.53l.1.09,22,19"/><path class="cls-2" d="M295.06,172.55a.32.32,0,0,1-.19-.07l-22.05-19a1.41,1.41,0,0,1-.5-1,1.44,1.44,0,0,1,.42-1.06l6.53-6.51a.29.29,0,0,1,.42-.06.3.3,0,0,1,.06.42l-.06.06-6.52,6.5a.79.79,0,0,0-.25.61.84.84,0,0,0,.29.59l22.05,19a.29.29,0,0,1,0,.42A.28.28,0,0,1,295.06,172.55Z"/><path class="cls-1" d="M279.55,115.16l-13.22,13.22a1.22,1.22,0,0,0,0,1.7l14.09,14.11"/><path class="cls-2" d="M280.42,144.49a.31.31,0,0,1-.22-.09l-14.12-14.1a1.48,1.48,0,0,1-.43-1,1.53,1.53,0,0,1,.43-1.07L279.3,115a.3.3,0,0,1,.42-.06.29.29,0,0,1,.06.42.12.12,0,0,1-.06.06L266.5,128.63a.91.91,0,0,0,0,1.28L280.62,144a.29.29,0,0,1,0,.42h0A.25.25,0,0,1,280.42,144.49Z"/><path class="cls-1" d="M331.3,38.85h0A10.55,10.55,0,0,1,320.75,49.4h-41a10.55,10.55,0,0,1-10.55-10.55h0A10.55,10.55,0,0,1,279.77,28.3h41A10.55,10.55,0,0,1,331.3,38.85Z"/><rect class="cls-1" x="319.61" y="42.93" width="11.74" height="28.38" rx="5.87"/><path class="cls-1" d="M269.21,42.93h0a5.87,5.87,0,0,1,5.87,5.87V65.43a5.87,5.87,0,0,1-5.87,5.87h0a5.87,5.87,0,0,1-5.87-5.87V48.8A5.87,5.87,0,0,1,269.21,42.93Z"/><polyline class="cls-4" points="429.02 238.62 365.78 191.67 365.78 238.62"/><path class="cls-1" d="M429,239.23a.57.57,0,0,1-.35-.12l-62.3-46.24v45.78a.6.6,0,0,1-1.2,0v-47a.61.61,0,0,1,.32-.54.6.6,0,0,1,.63,0l63.21,47a.63.63,0,0,1,.14.86A.59.59,0,0,1,429,239.23Z"/><polygon class="cls-4" points="232.5 191.57 232.5 238.52 169.25 238.52 232.5 191.57"/><path class="cls-1" d="M232.5,239.13H169.25a.59.59,0,0,1-.57-.42.63.63,0,0,1,.21-.68l63.25-46.95a.64.64,0,0,1,.63,0,.6.6,0,0,1,.32.54v46.95A.59.59,0,0,1,232.5,239.13Zm-61.42-1.2H231.9V192.78Z"/><polygon class="cls-2" points="437.09 232.26 430.88 227.62 427.64 225.08 427.51 225.08 382.9 191.67 366.47 191.67 411.08 225.08 187.75 225.08 232.48 191.57 216.06 191.57 161.88 232.16 162.14 232.16 161.88 232.34 436.96 232.34 436.85 232.26 437.09 232.26"/><path class="cls-1" d="M437,233H161.87a.61.61,0,0,1-.54-.44.57.57,0,0,1,0-.26.64.64,0,0,1,.23-.59l54.19-40.58a.58.58,0,0,1,.36-.12h16.38a.61.61,0,0,1,.35,1.1l-43.26,32.45H409.26L366.12,192.2a.62.62,0,0,1-.22-.67.6.6,0,0,1,.57-.42H382.9a.52.52,0,0,1,.35.12l44.46,33.29a.5.5,0,0,1,.29.12l3.24,2.52,6.21,4.64a.63.63,0,0,1-.09,1A.67.67,0,0,1,437,233Zm-273.52-1.21H435.34l-4.8-3.6-3.12-2.41a.52.52,0,0,1-.27-.1l-44.47-33.3H368.26l43.14,32.31a.63.63,0,0,1,.22.69.6.6,0,0,1-.58.42H187.77a.6.6,0,0,1-.57-.42.64.64,0,0,1,.21-.69l43.27-32.45H216.26Z"/><rect class="cls-5" x="161.93" y="232.34" width="275.09" height="35.74"/><path class="cls-1" d="M437,268.7H161.93a.6.6,0,0,1-.6-.6h0V232.34a.6.6,0,0,1,.6-.6H437a.6.6,0,0,1,.6.6v35.75a.61.61,0,0,1-.59.61Zm-274.49-1.2H436.42V233H162.54Z"/><path class="cls-1" d="M377.66,211.88h-3.61V165.22a56.58,56.58,0,0,0-16.22-39.92l-13.51-13.73,2.53-2.59,13.51,13.74a60.2,60.2,0,0,1,17.3,42.5Z"/><path class="cls-1" d="M349.1,107.05a4.67,4.67,0,0,0-6.61-.07.46.46,0,0,0-.07.07,4.81,4.81,0,0,0,0,6.79,4.66,4.66,0,0,0,6.58.1l.1-.1A4.87,4.87,0,0,0,349.1,107.05Z"/><path class="cls-1" d="M224.19,211.88h-3.61V165.22a60.21,60.21,0,0,1,17.33-42.5L251.47,109l2.53,2.59L240.45,125.3a56.56,56.56,0,0,0-16.26,39.92Z"/><path class="cls-1" d="M255.86,113.84a4.81,4.81,0,0,0,0-6.79,4.68,4.68,0,0,0-6.62-.07l-.07.07a4.87,4.87,0,0,0,0,6.79,4.66,4.66,0,0,0,6.58.1Z"/><path class="cls-6" d="M315,175.82a12.64,12.64,0,0,0-12.09,9.12,8.84,8.84,0,0,0-12.11,3.57,16.14,16.14,0,0,0-30.59,4.81,12.51,12.51,0,0,0-8.74-3.61,12.7,12.7,0,0,0-12.57,11.68h0a8.92,8.92,0,0,0-7.08,3.61,14.09,14.09,0,0,0-1.45-.08,12.64,12.64,0,0,0-12.15,9.33,12.62,12.62,0,0,0-17.37,10.22H398.09A12.65,12.65,0,0,0,386,215.24h-.24a8.82,8.82,0,0,0-12.42-1.19l-.05,0A10.54,10.54,0,0,0,360,205.19v-.37A15,15,0,0,0,345.1,189.7h0a14.53,14.53,0,0,0-5.14.94,8.85,8.85,0,0,0-12.37-1.35v-.71A12.68,12.68,0,0,0,315,175.82Z"/><ellipse class="cls-7" cx="244.08" cy="200.71" rx="5.91" ry="5.99"/><ellipse class="cls-7" cx="281.8" cy="215.05" rx="5.91" ry="5.99"/><ellipse class="cls-7" cx="318.89" cy="191.58" rx="5.91" ry="5.99"/><ellipse class="cls-7" cx="336.48" cy="211.88" rx="5.91" ry="5.99"/><ellipse class="cls-7" cx="353.25" cy="200.71" rx="5.91" ry="5.99"/></svg>