<svg id="圖層_1" data-name="圖層 1" xmlns="http://www.w3.org/2000/svg" viewBox="0 0 599 297"><defs><style>.cls-1{fill:#fff;}.cls-2{fill:#424242;}.cls-3{fill:#00ffa7;}.cls-4{fill:#afafaf;}.cls-5{fill:#525252;}.cls-6{fill:#ffda6a;}</style></defs><title>1</title><rect class="cls-1" x="152.58" y="66.17" width="215.35" height="165.07" transform="translate(73.69 383.31) rotate(-81.25)"/><path class="cls-2" d="M326.46,268.7h-.18L163.13,243.58a1.2,1.2,0,0,1-.79-.48,1.23,1.23,0,0,1-.24-.85l32.76-212.9a1.21,1.21,0,0,1,1.35-1h0L359.39,53.43a1.21,1.21,0,0,1,.79.49,1.25,1.25,0,0,1,.23.9L327.66,267.66A1.22,1.22,0,0,1,326.46,268.7ZM164.71,241.36l160.74,24.73L357.81,55.65,197.07,30.92Z"/><path class="cls-2" d="M255.24,238.12h-.09l-26.27-4a.59.59,0,0,1-.5-.68v0a.57.57,0,0,1,.66-.5h0l26.27,4a.58.58,0,0,1,.51.66v0A.6.6,0,0,1,255.24,238.12Z"/><path class="cls-2" d="M315.58,247.41h-.1l-45.22-7a.62.62,0,0,1-.5-.7.59.59,0,0,1,.68-.5h0l44.67,6.87L338,97.27a.61.61,0,0,1,.69-.5.59.59,0,0,1,.51.68h0l-23,149.43a.63.63,0,0,1-.63.52Z"/><path class="cls-2" d="M340,89.23h-.09a.6.6,0,0,1-.51-.68v0l2.61-17-91.33-14a.62.62,0,0,1-.51-.7.6.6,0,0,1,.68-.51h0l91.89,14.13a.6.6,0,0,1,.5.69L340.51,88.7A.62.62,0,0,1,340,89.23Z"/><circle class="cls-2" cx="213.08" cy="70.59" r="2.78"/><circle class="cls-2" cx="233.85" cy="73.8" r="2.78"/><path class="cls-1" d="M226.83,82.4a10.34,10.34,0,1,0-10.09-1.55A13.87,13.87,0,0,0,206.1,92.27l-1.21,7.66,27.47,4.22,1.2-7.65A13.87,13.87,0,0,0,226.83,82.4Z"/><path class="cls-3" d="M229.74,84.69l-9.47,6.93-7-9.48a13.87,13.87,0,0,0-7.21,10.13l-1.21,7.66,27.47,4.22,1.2-7.65A13.8,13.8,0,0,0,229.74,84.69Z"/><path class="cls-2" d="M232.88,104.84l-28.66-4.41,1.28-8.25a14.42,14.42,0,0,1,10-11.63,11,11,0,1,1,12.62,2,14.44,14.44,0,0,1,6.1,14.09Zm-27.26-5.42,26.26,4,1.08-7a13.23,13.23,0,0,0-6.43-13.49l-1.1-.64,1.21-.44a9.76,9.76,0,1,0-9.49-1.47l1,.8-1.2.27a13.21,13.21,0,0,0-10.19,10.93Z"/><circle class="cls-2" cx="234.73" cy="70.18" r="2.78"/><circle class="cls-2" cx="212.36" cy="67.67" r="2.78"/><circle class="cls-2" cx="216.55" cy="63.24" r="2.78" transform="translate(152.94 279.68) rotate(-89.9)"/><circle class="cls-2" cx="220.66" cy="61.91" r="2.78" transform="translate(158.38 282.46) rotate(-89.9)"/><circle class="cls-2" cx="225.32" cy="61.79" r="2.78" transform="translate(163.15 287.01) rotate(-89.9)"/><circle class="cls-2" cx="217.55" cy="59.22" r="2.78" transform="translate(157.97 276.67) rotate(-89.9)"/><circle class="cls-2" cx="222.82" cy="59.01" r="2.78" transform="translate(163.44 281.73) rotate(-89.9)"/><circle class="cls-2" cx="215.06" cy="61.79" r="2.78" transform="translate(152.91 276.75) rotate(-89.9)"/><circle class="cls-2" cx="226.84" cy="59.46" r="2.78" transform="translate(167 286.2) rotate(-89.9)"/><circle class="cls-2" cx="226.49" cy="57.11" r="3.58"/><circle class="cls-2" cx="220.77" cy="57.87" r="3.58"/><circle class="cls-2" cx="230.71" cy="59.82" r="3.58"/><circle class="cls-2" cx="229.24" cy="62.79" r="2.78" transform="translate(166.06 291.92) rotate(-89.9)"/><circle class="cls-2" cx="231" cy="61.43" r="2.78" transform="translate(169.18 292.32) rotate(-89.9)"/><circle class="cls-2" cx="234.69" cy="63.04" r="2.78" transform="translate(171.25 297.63) rotate(-89.9)"/><circle class="cls-2" cx="232.8" cy="64.51" r="2.78"/><circle class="cls-2" cx="234.12" cy="67.52" r="2.78"/><circle class="cls-2" cx="213.53" cy="64.7" r="2.78"/><path class="cls-2" d="M219.21,74.12a5.7,5.7,0,0,1-.92-.07,5.11,5.11,0,0,1-2.33-.94,1.66,1.66,0,0,1-.67-2.24,1.69,1.69,0,0,1,1.15-.85,5.06,5.06,0,0,1,2.5-.19c2,.3,3.38,1.47,3.2,2.65h0C222,73.47,220.77,74.12,219.21,74.12ZM218,70.37a3.9,3.9,0,0,0-1.39.23c-.55.21-.88.52-.94.89a1.26,1.26,0,0,0,.63,1.14,4.49,4.49,0,0,0,2.05.82c1.58.24,3-.24,3.14-1.06h0c.12-.81-1.1-1.72-2.68-2a5,5,0,0,0-.78,0Z"/><path class="cls-2" d="M227.44,75.39a6.84,6.84,0,0,1-.9-.08c-1.95-.3-3.38-1.46-3.15-2.64s1.86-1.88,3.85-1.58a5.24,5.24,0,0,1,2.33,1,1.86,1.86,0,0,1,.85,1.71h0a1.87,1.87,0,0,1-1.33,1.37A4.65,4.65,0,0,1,227.44,75.39Zm-1.2-3.75c-1.2,0-2.24.44-2.34,1.13s1.1,1.7,2.68,1.94a4.49,4.49,0,0,0,2.21-.15c.54-.22.87-.53.93-.91h0a1.31,1.31,0,0,0-.62-1.14A4.67,4.67,0,0,0,227,71.7a4.85,4.85,0,0,0-.75-.11Z"/><rect class="cls-2" x="222.43" y="71.66" width="0.61" height="1.83" transform="translate(117.24 281.73) rotate(-81.28)"/><path class="cls-1" d="M198.84,197.28a13.84,13.84,0,0,0-10.65,11.42l-1.2,7.65,27.48,4.27,1.21-7.66A13.89,13.89,0,0,0,209,198.83"/><path class="cls-2" d="M211.83,201.1l-9.47,7-7-9.48a13.81,13.81,0,0,0-7.21,10.13l-1.2,7.65,27.48,4.27,1.21-7.66A13.85,13.85,0,0,0,211.83,201.1Z"/><path class="cls-2" d="M215,221.27l-28.66-4.41,1.27-8.26a14.41,14.41,0,0,1,11.12-11.92l.26,1.2a13.22,13.22,0,0,0-10.18,10.93l-1.08,7,26.26,4,1.08-7a13.21,13.21,0,0,0-6.43-13.48l.61-1.05a14.42,14.42,0,0,1,7,14.71Z"/><path class="cls-2" d="M205.48,200.19a11.19,11.19,0,0,1-1.63-.13h0l-.53-.09a10.65,10.65,0,0,1-8.94-12.12v0l.51-3.3A10.65,10.65,0,0,1,207,175.57h0l.54.08a10.7,10.7,0,0,1,8.93,12.18l-.5,3.3A10.72,10.72,0,0,1,205.48,200.19ZM204,198.85a9.47,9.47,0,0,0,10.82-7.9h0l.5-3.31a9.49,9.49,0,0,0-7.92-10.82l-.53-.07a9.47,9.47,0,0,0-10.81,7.9h0l-.51,3.31a9.44,9.44,0,0,0,7.86,10.8h.05Z"/><path class="cls-2" d="M295.23,98.52l-6-.92L290.7,88l6,.93ZM285.62,97l-6-.92,1.48-9.62,6,.93ZM276,95.56l-6-.92L271.47,85l6,1Zm-9.62-1.47-6-.93,1.47-9.55,6,.92Zm-9.61-1.48-6-.93,1.48-9.61,6,.92Z"/><path class="cls-2" d="M286.28,156.73l-6-.93,1.48-9.61,6,.91Zm-9.61-1.48-6-.93,1.48-9.61,6,.93Zm-9.62-1.48-6-.92,1.48-9.62,6,.93Zm-9.61-1.48-6-.92,1.48-9.62,6,.93Zm-9.62-1.47-6-.93,1.48-9.62,6,.93Z"/><path class="cls-2" d="M277,217l-6-.91,1.48-9.61,6,.92Zm-9.61-1.47-6-.92,1.48-9.61,6,.92Zm-9.62-1.48-6-.93,1.48-9.61,6,.92Zm-9.61-1.48-6-.91,1.48-9.62,6,.93Zm-9.61-1.48-6-.92,1.47-9.62,6,.93Z"/><rect class="cls-2" x="201.87" y="129.72" width="22.34" height="21.86" transform="translate(42.05 330.21) rotate(-81.38)"/><path class="cls-1" d="M207.77,139.06a13.87,13.87,0,0,0-10.65,11.43l-1.2,7.64,27.47,4.24,1.2-7.66a13.88,13.88,0,0,0-6.73-14.1"/><path class="cls-4" d="M220.78,142.89l-9.41,7-7-9.48a13.81,13.81,0,0,0-7.21,10.13l-1.2,7.64,27.39,4.24,1.2-7.66A13.83,13.83,0,0,0,220.78,142.89Z"/><path class="cls-2" d="M223.93,163.05l-28.66-4.41,1.27-8.25a14.44,14.44,0,0,1,11.12-11.92l.26,1.2a13.25,13.25,0,0,0-10.18,10.93l-1.08,7.05,26.26,4.08,1.08-7.06a13.22,13.22,0,0,0-6.43-13.47l.62-1a14.44,14.44,0,0,1,7,14.72Z"/><rect class="cls-1" x="202.66" y="119.22" width="23.48" height="20.68" rx="9.95" transform="translate(53.74 321.76) rotate(-81.25)"/><path class="cls-2" d="M214.44,141.92a11.21,11.21,0,0,1-1.64-.12h0l-.53-.08a10.69,10.69,0,0,1-8.93-12.18l.51-3.3a10.7,10.7,0,0,1,12.17-9l.54.08a10.69,10.69,0,0,1,8.93,12.18l-.5,3.36A10.7,10.7,0,0,1,214.44,141.92ZM213,140.6a9.47,9.47,0,0,0,10.81-7.9v0l.51-3.29a9.49,9.49,0,0,0-7.9-10.82h0l-.57-.11a9.47,9.47,0,0,0-10.81,7.9v0l-.51,3.29a9.48,9.48,0,0,0,7.9,10.82h0Z"/><path class="cls-2" d="M204.16,128s14.59,3.46,16.39-8.25L216.18,118l-6.84,1.31-3.6,3.7Z"/><path class="cls-2" d="M195.24,186.2s10.08,2.5,12-10C207.25,176.15,197.1,174.16,195.24,186.2Z"/><path class="cls-2" d="M215.69,189.37s-10.37-.64-8.42-13.22C207.25,176.15,217.54,177.35,215.69,189.37Z"/><path class="cls-1" d="M313.37,145.6l22.38-8.95h16.07c9.33,0,13.81,5.56,13.81,5.56l11.39,29,17.37,17.36-19.61,19.6"/><path class="cls-5" d="M374.81,209.23a1.08,1.08,0,0,1-1.08-1.09,1.1,1.1,0,0,1,.31-.75l18.85-18.84L376.29,172a1.29,1.29,0,0,1-.25-.36l-11.32-28.81c-.69-.78-4.84-5.05-12.88-5.05H336l-22.22,8.88a1.08,1.08,0,0,1-.8-2h0l22.42-9a.89.89,0,0,1,.4-.07h16c9.73,0,14.47,5.72,14.66,6a.88.88,0,0,1,.17.28l11.27,28.76,17.3,17.2a1.07,1.07,0,0,1,0,1.53l-19.61,19.6A1.06,1.06,0,0,1,374.81,209.23Z"/><polygon class="cls-1" points="284.46 142.07 302.49 155.96 307.08 139.48 284.46 142.07"/><path class="cls-5" d="M302.49,156.5a.55.55,0,0,1-.33-.11l-18-13.9a.53.53,0,0,1,.26-1L307,139a.57.57,0,0,1,.48.18.54.54,0,0,1,.11.5L303,156.1a.56.56,0,0,1-.35.37Zm-16.64-14.07L302.22,155l4.17-14.93Z"/><rect class="cls-6" x="335.53" y="116.91" width="18.01" height="83.86" transform="translate(99.09 448.14) rotate(-74.44)"/><polygon class="cls-5" points="294.33 140.75 292.27 148.2 284.95 142.38 294.33 140.75"/><polygon class="cls-1" points="382.26 164.64 309.34 144.35 308.21 148.39 307.18 148.11 308.59 143.01 309.11 143.16 382.54 163.6 382.26 164.64"/><polygon class="cls-1" points="380.33 170.96 307.89 150.8 306.72 155.01 305.68 154.72 307.14 149.47 307.66 149.62 380.62 169.92 380.33 170.96"/><path class="cls-1" d="M372.76,204.23l-10.82-10.82H341.76l-25.4-37s12.33-7.09,17.93,0a123.49,123.49,0,0,0,13.82,14.19"/><path class="cls-5" d="M372.76,205.31A1.07,1.07,0,0,1,372,205l-10.53-10.51H341.76a1.12,1.12,0,0,1-.89-.48l-25.4-37a1.09,1.09,0,0,1,.35-1.55c.54-.31,13.21-7.47,19.32.26a121.13,121.13,0,0,0,13.68,14.06,1.09,1.09,0,0,1-1.42,1.65,126.15,126.15,0,0,1-14-14.35c-4.08-5.16-12.54-1.71-15.49-.27l24.38,35.49h19.6a1.07,1.07,0,0,1,.77.32l10.81,10.81a1.08,1.08,0,0,1,0,1.53,1.06,1.06,0,0,1-.78.32Z"/><polyline class="cls-1" points="359.87 208.42 390.36 177.94 412.84 200.41 370.07 218.62 359.87 208.42"/><path class="cls-5" d="M370.07,219.16a.59.59,0,0,1-.39-.16l-10.2-10.2a.56.56,0,0,1,0-.76L390,177.56a.54.54,0,0,1,.77,0h0L413.23,200a.5.5,0,0,1,.14.49.54.54,0,0,1-.31.39l-42.78,18.2A.58.58,0,0,1,370.07,219.16Zm-9.44-10.74,9.56,9.55,41.71-17.74L390.36,178.7Z"/><polygon class="cls-2" points="439.59 221.32 367.08 221.45 362.19 216.57 398.52 180.25 439.59 221.32"/></svg>