<svg id="圖層_1" data-name="圖層 1" xmlns="http://www.w3.org/2000/svg" viewBox="0 0 599 297"><defs><style>.cls-1{fill:#424242;}.cls-2{fill:#fff;}.cls-3{fill:#00ffa7;}.cls-4{fill:#f4f4f4;}.cls-5{fill:#f8f8f8;}.cls-6{fill:#ffda6a;}</style></defs><title>11</title><ellipse class="cls-1" cx="268.33" cy="97.28" rx="15.85" ry="15.84"/><ellipse class="cls-1" cx="327.93" cy="97.28" rx="15.85" ry="15.84"/><ellipse class="cls-1" cx="298.72" cy="76.91" rx="39.82" ry="39.78"/><path class="cls-2" d="M297.82,42.19h0a28.65,28.65,0,0,1,28.65,28.65V88a28.65,28.65,0,0,1-28.65,28.65h0A28.65,28.65,0,0,1,269.17,88V70.84A28.65,28.65,0,0,1,297.82,42.19Z"/><path class="cls-1" d="M297.82,117.29A29.29,29.29,0,0,1,268.57,88V70.86a29.25,29.25,0,1,1,58.5,0h0V88A29.29,29.29,0,0,1,297.82,117.29Zm0-74.5a28.09,28.09,0,0,0-28.05,28.07V88a28.05,28.05,0,0,0,56.1,0V70.86A28.09,28.09,0,0,0,297.82,42.79Z"/><ellipse class="cls-1" cx="298.72" cy="40.18" rx="11.99" ry="11.97"/><ellipse class="cls-1" cx="310.71" cy="45.44" rx="11.99" ry="11.97"/><path class="cls-1" d="M313,50.28s13.49-2.61,13.49,40.82h9.95l-9.95-40.9-15.76-8.75L313,50.34"/><path class="cls-1" d="M311.57,53.94S290.9,40.6,283.23,55.09c-4.37,8.24-6.54,17.63-9.36,26.54a88,88,0,0,1-5.16,13.3c-.6,1.2-5.36,10.45-7.1,8.42s1.59-9.35,2-11.54l4.29-36.18,18.86-14.18,20.45.8Z"/><ellipse class="cls-2" cx="298.3" cy="62.09" rx="15.61" ry="15.6"/><ellipse class="cls-2" cx="312.06" cy="59.61" rx="9.35" ry="9.33"/><path class="cls-1" d="M252.46,97.28s-5-69.06,46.26-69.06"/><path class="cls-1" d="M312.06,33.47s31.72-1,31.72,65.54"/><ellipse class="cls-2" cx="284.42" cy="79.14" rx="9.77" ry="9.76"/><path class="cls-1" d="M284.42,89.56A10.36,10.36,0,1,1,294.8,79.2,10.35,10.35,0,0,1,284.42,89.56Zm0-19.51a6.48,6.48,0,1,0,.06-.06h-.06Z"/><ellipse class="cls-2" cx="311.69" cy="79.14" rx="9.77" ry="9.76"/><path class="cls-1" d="M311.69,89.56A10.36,10.36,0,1,1,322.06,79.2,10.37,10.37,0,0,1,311.69,89.56Zm0-19.51a6.5,6.5,0,1,0,.05-.06h-.05Z"/><path class="cls-1" d="M302,79.75h-7.71a.61.61,0,1,1,0-1.21H302a.61.61,0,0,1,0,1.21Z"/><path class="cls-1" d="M293,115.75h13a44.74,44.74,0,0,1,44.74,44.74v52.75A44.75,44.75,0,0,1,306.07,258H293a44.74,44.74,0,0,1-44.74-44.74V160.49A44.75,44.75,0,0,1,293,115.75Z"/><polyline class="cls-2" points="289.22 135.37 297.59 126.77 306.6 135.37 298.12 157.64"/><path class="cls-2" d="M285,113.42v32.4c0,7,5.69,13.66,12.7,13.66s12.68-6.69,12.68-13.66v-32.4"/><path class="cls-1" d="M297.69,160.08c-7.09,0-13.3-6.67-13.3-14.26v-32.4h1.2v32.4c0,7,5.65,13.06,12.1,13.06s12.1-6.11,12.1-13.06v-32.4H311v32.4C311,153.41,304.77,160.08,297.69,160.08Z"/><path class="cls-3" d="M286.84,131.19s10.2,11.56,21.78,0L297,157.81Z"/><path class="cls-1" d="M309.72,119.33l11.64,11.57a1.22,1.22,0,0,1,0,1.7l-9.7,9.62a1.22,1.22,0,0,0,0,1.7l4.62,4.59a.89.89,0,0,1,.09,1.26.71.71,0,0,1-.27.21L294.18,163.1"/><path class="cls-1" d="M285.7,119.48l-11.65,11.57a1.21,1.21,0,0,0,0,1.69l9.63,9.63a1.21,1.21,0,0,1,0,1.69l-4.59,4.61a.89.89,0,0,0-.09,1.24.86.86,0,0,0,.29.21l21.16,12.39"/><path class="cls-1" d="M311.68,143.94l4.6,4.58a1,1,0,0,1,.05,1.48.49.49,0,0,1-.13.12l-18.3,14.44"/><path class="cls-2" d="M297.9,164.8a.27.27,0,0,1-.22-.12.29.29,0,0,1,0-.41h0L316,149.88a.78.78,0,0,0,.3-.55.81.81,0,0,0-.23-.59l-4.62-4.58a.31.31,0,0,1,0-.44.32.32,0,0,1,.43,0l4.61,4.6a1.29,1.29,0,0,1,.41,1.05,1.31,1.31,0,0,1-.53,1l-18.28,14.44Z"/><path class="cls-1" d="M311.15,120.76l10.21,10.14a1.22,1.22,0,0,1,0,1.7l-10.55,10.49"/><path class="cls-2" d="M310.81,143.39a.3.3,0,0,1-.2-.1.29.29,0,0,1,0-.41h0l10.58-10.48a.9.9,0,0,0,0-1.27L311,121a.3.3,0,0,1,.42-.42l10.2,10.15a1.47,1.47,0,0,1,0,2.09l0,0L311.07,143.3A.31.31,0,0,1,310.81,143.39Z"/><path class="cls-1" d="M283.9,143.94l-4.81,4.73a1.1,1.1,0,0,0,0,1.55.39.39,0,0,0,.1.08l16.55,14.2"/><path class="cls-2" d="M295.74,164.8a.32.32,0,0,1-.19-.07L279,150.53a1.41,1.41,0,0,1-.15-2l.07-.08,4.81-4.73a.33.33,0,0,1,.42,0,.3.3,0,0,1,0,.43h0l-4.81,4.72a.81.81,0,0,0-.24.61.8.8,0,0,0,.29.59l16.55,14.19a.29.29,0,0,1,0,.42A.29.29,0,0,1,295.74,164.8Z"/><path class="cls-1" d="M283.9,121.22,274,131.05a1.19,1.19,0,0,0,0,1.69l10.53,10.49"/><path class="cls-2" d="M284.59,143.53a.28.28,0,0,1-.2-.08L273.85,133a1.47,1.47,0,0,1,0-2.09l0,0,9.87-9.83a.31.31,0,0,1,.49.37l-.07.06-9.86,9.82a.91.91,0,0,0,0,1.28L284.82,143a.3.3,0,0,1,0,.41v0A.32.32,0,0,1,284.59,143.53Z"/><polyline class="cls-4" points="429.13 238.68 365.84 191.69 365.84 238.68"/><path class="cls-1" d="M429.13,239.29a.55.55,0,0,1-.35-.12L366.43,192.9v45.81a.61.61,0,1,1-1.21,0v-47a.63.63,0,0,1,.33-.54.58.58,0,0,1,.62,0l63.27,47a.64.64,0,0,1,.13.86A.56.56,0,0,1,429.13,239.29Z"/><polygon class="cls-4" points="232.45 191.6 232.45 238.58 169.15 238.58 232.45 191.6"/><path class="cls-1" d="M232.45,239.19h-63.3a.58.58,0,0,1-.58-.42.63.63,0,0,1,.22-.68l63.3-47a.62.62,0,0,1,.62,0,.61.61,0,0,1,.33.55v47A.6.6,0,0,1,232.45,239.19ZM171,238h60.87V192.8Z"/><polygon class="cls-2" points="437.2 232.31 430.99 227.67 427.74 225.13 427.61 225.13 382.96 191.69 366.52 191.69 411.17 225.13 187.66 225.13 232.43 191.6 216 191.6 161.76 232.22 162.03 232.22 161.76 232.4 437.08 232.4 436.96 232.31 437.2 232.31"/><path class="cls-1" d="M437.08,233H161.76a.6.6,0,0,1-.54-.43.62.62,0,0,1,0-.27.59.59,0,0,1,.23-.58l54.23-40.61A.54.54,0,0,1,216,191h16.4a.58.58,0,0,1,.56.42.61.61,0,0,1-.21.67l-43.3,32.48H409.35l-43.18-32.35a.61.61,0,0,1-.21-.67.58.58,0,0,1,.56-.42H383a.48.48,0,0,1,.35.12l44.5,33.32a.5.5,0,0,1,.29.12l3.25,2.52,6.21,4.65a.62.62,0,0,1-.09,1A.55.55,0,0,1,437.08,233Zm-273.74-1.2H435.45l-4.81-3.61-3.11-2.4a.69.69,0,0,1-.28-.11l-44.5-33.32H368.31l43.18,32.33a.63.63,0,0,1,.22.69.6.6,0,0,1-.58.42H187.68a.6.6,0,0,1-.57-.42.64.64,0,0,1,.21-.69l43.3-32.48H216.19Z"/><rect class="cls-5" x="161.82" y="232.4" width="275.31" height="35.77"/><path class="cls-1" d="M437.14,268.78H161.82a.59.59,0,0,1-.6-.6h0V232.4a.6.6,0,0,1,.6-.6H437.14a.6.6,0,0,1,.6.6v35.77a.6.6,0,0,1-.59.61Zm-274.71-1.2h274.1V233H162.43Z"/><path class="cls-1" d="M377.72,211.91h-3.61V165.22a56.63,56.63,0,0,0-16.24-39.95l-13.51-13.75,2.53-2.58,13.52,13.75a60.22,60.22,0,0,1,17.31,42.53Z"/><path class="cls-1" d="M349.14,107a4.67,4.67,0,0,0-6.61-.07l-.08.07a4.82,4.82,0,0,0,0,6.8,4.67,4.67,0,0,0,6.59.1l.1-.1A4.88,4.88,0,0,0,349.14,107Z"/><path class="cls-1" d="M224.13,211.91h-3.61V165.22a60.25,60.25,0,0,1,17.34-42.53l13.57-13.75,2.54,2.58L240.4,125.27a56.64,56.64,0,0,0-16.27,40Z"/><path class="cls-1" d="M255.82,113.8a4.82,4.82,0,0,0,0-6.8,4.68,4.68,0,0,0-6.62-.07.46.46,0,0,1-.07.07,4.88,4.88,0,0,0,0,6.8,4.66,4.66,0,0,0,6.58.1Z"/><path class="cls-3" d="M315,175.83a12.65,12.65,0,0,0-12.1,9.13,8.85,8.85,0,0,0-12.12,3.57,16.15,16.15,0,0,0-30.61,4.81,12.55,12.55,0,0,0-8.75-3.61,12.71,12.71,0,0,0-12.58,11.7h0a8.88,8.88,0,0,0-7.08,3.6,14.13,14.13,0,0,0-1.46-.08,12.67,12.67,0,0,0-12.16,9.35,12.41,12.41,0,0,0-4.81-1,12.69,12.69,0,0,0-12.57,11.19H398.17A12.67,12.67,0,0,0,386,215.28h-.24a8.83,8.83,0,0,0-12.43-1.19l-.05,0a10.64,10.64,0,0,0-10.49-9.29,10.2,10.2,0,0,0-2.75.38v-.38a15,15,0,0,0-14.94-15.13h0a14.59,14.59,0,0,0-5.15.94,8.86,8.86,0,0,0-12.38-1.35v-.71A12.69,12.69,0,0,0,315,175.83Z"/><ellipse class="cls-6" cx="244.03" cy="200.74" rx="5.92" ry="5.99"/><ellipse class="cls-6" cx="281.79" cy="215.09" rx="5.92" ry="5.99"/><ellipse class="cls-6" cx="318.9" cy="191.6" rx="5.92" ry="5.99"/><ellipse class="cls-6" cx="336.51" cy="211.91" rx="5.92" ry="5.99"/><ellipse class="cls-6" cx="353.29" cy="200.74" rx="5.92" ry="5.99"/></svg>