<?xml version="1.0" encoding="utf-8"?>
<!-- Generator: Adobe Illustrator 23.0.6, SVG Export Plug-In . SVG Version: 6.00 Build 0)  -->
<svg version="1.1" id="圖層_1" xmlns="http://www.w3.org/2000/svg" xmlns:xlink="http://www.w3.org/1999/xlink" x="0px" y="0px"
	 viewBox="0 0 599 297" style="enable-background:new 0 0 599 297;" xml:space="preserve">
<style type="text/css">
	.st0{fill:#FFFFFF;}
	.st1{fill:#424242;}
	.st2{fill:none;}
	.st3{fill:#00FFA7;}
	.st4{fill:#AFAFAF;}
	.st5{fill:#525252;}
	.st6{fill:#FFDA6A;}
	.st7{opacity:0;fill:none;stroke:#FFFFFF;stroke-miterlimit:10;}
</style>
<title>1</title>
<rect x="166.1" y="65.5" transform="matrix(0.1521 -0.9884 0.9884 0.1521 84.7962 377.963)" class="st0" width="193.3" height="148.1"/>
<path class="st1" d="M321.2,247.4H321l-146.4-22.5c-0.3,0-0.5-0.2-0.7-0.4c-0.2-0.2-0.2-0.5-0.2-0.8l29.4-191.1
	c0.1-0.6,0.6-1,1.2-0.9l0,0l146.4,22.5c0.3,0,0.5,0.2,0.7,0.4c0.2,0.2,0.3,0.5,0.2,0.8l-29.4,191C322.2,247,321.7,247.4,321.2,247.4
	z M176,222.9l144.2,22.2l29.1-188.9L205.1,34L176,222.9z"/>
<line class="st2" x1="257.3" y1="219.4" x2="233.7" y2="215.8"/>
<path class="st1" d="M257.3,220L257.3,220l-23.7-3.6c-0.3,0-0.5-0.3-0.5-0.6c0,0,0,0,0,0l0,0c0-0.3,0.3-0.5,0.6-0.4l0,0l23.6,3.6
	c0.3,0.1,0.5,0.3,0.4,0.6C257.7,219.8,257.5,220,257.3,220L257.3,220z"/>
<line class="st2" x1="276.4" y1="222.4" x2="266.6" y2="220.9"/>
<path class="st1" d="M276.4,222.9L276.4,222.9l-9.9-1.5c-0.3,0-0.5-0.3-0.5-0.6c0-0.3,0.3-0.5,0.6-0.5c0,0,0.1,0,0.1,0l9.8,1.5
	c0.3,0.1,0.5,0.3,0.5,0.6C276.9,222.7,276.7,222.9,276.4,222.9z"/>
<polyline class="st0" points="331.7,96.2 311.4,227.8 270.8,221.5 "/>
<path class="st1" d="M311.4,228.3L311.4,228.3l-40.6-6.2c-0.3-0.1-0.5-0.3-0.5-0.6c0-0.3,0.3-0.5,0.6-0.5c0,0,0,0,0,0l0,0l40.1,6.2
	l20.5-133.6c0.1-0.3,0.3-0.5,0.6-0.4c0.3,0,0.5,0.3,0.5,0.6l0,0L312,227.9c0,0.1-0.1,0.3-0.2,0.4
	C311.7,228.3,311.5,228.3,311.4,228.3z"/>
<polyline class="st0" points="253.2,57.3 335.7,70 333.3,85.8 "/>
<path class="st1" d="M333.3,86.4L333.3,86.4c-0.4,0-0.6-0.3-0.5-0.6c0,0,0,0,0,0l0,0l2.4-15.3l-82-12.6c-0.3-0.1-0.5-0.3-0.5-0.6
	c0-0.3,0.3-0.5,0.6-0.5l0,0l82.4,12.7c0.3,0,0.5,0.3,0.5,0.6c0,0,0,0,0,0l0,0l-2.4,15.8C333.7,86.1,333.5,86.3,333.3,86.4z"/>
<circle class="st1" cx="219.5" cy="69.6" r="2.5"/>
<circle class="st1" cx="238.1" cy="72.5" r="2.5"/>
<path class="st0" d="M231.8,80.2c4.8-1.8,7.2-7.2,5.4-12s-7.2-7.2-12-5.4c-4.8,1.8-7.2,7.2-5.4,12c0.6,1.6,1.6,3,2.9,4
	c-5,1.1-8.8,5.2-9.6,10.2l-1.1,6.9l24.7,3.8l1.1-6.9C238.6,87.8,236.2,82.8,231.8,80.2z"/>
<path class="st3" d="M234.4,82.3l-8.5,6.2l-6.2-8.5c-3.5,1.8-5.9,5.2-6.5,9.1l-1.1,6.9l24.7,3.8l1.1-6.9
	C238.5,89,237.2,85.1,234.4,82.3z"/>
<path class="st1" d="M237.2,100.4l-25.7-4l1.1-7.4c0.8-4.9,4.3-9,9-10.4c-3.9-3.8-3.9-10-0.1-13.9c3.8-3.9,10-3.9,13.9-0.1
	c3.9,3.8,3.9,10,0.1,13.9c-0.8,0.8-1.6,1.4-2.6,1.9c4.1,2.8,6.2,7.8,5.4,12.7L237.2,100.4z M212.8,95.5l23.6,3.6l1-6.3
	c0.8-4.8-1.5-9.6-5.8-12.1l-1-0.6l1.1-0.4c4.5-1.7,6.8-6.8,5.1-11.3s-6.8-6.8-11.3-5.1c-4.5,1.7-6.8,6.8-5.1,11.3c0,0,0,0,0,0
	c0.6,1.5,1.5,2.8,2.8,3.8l0.9,0.7l-1.1,0.2c-4.8,1.1-8.4,5-9.1,9.8L212.8,95.5z"/>
<circle class="st1" cx="238.9" cy="69.3" r="2.5"/>
<circle class="st1" cx="218.8" cy="67" r="2.5"/>
<circle class="st1" cx="222.6" cy="63.1" r="2.5"/>
<circle class="st1" cx="226.3" cy="61.8" r="2.5"/>
<circle class="st1" cx="230.5" cy="61.7" r="2.5"/>
<circle class="st1" cx="223.5" cy="59.4" r="2.5"/>
<circle class="st1" cx="228.2" cy="59.2" r="2.5"/>
<circle class="st1" cx="221.2" cy="61.7" r="2.5"/>
<circle class="st1" cx="231.8" cy="59.6" r="2.5"/>
<circle class="st1" cx="231.5" cy="57.5" r="3.2"/>
<circle class="st1" cx="226.4" cy="58.2" r="3.2"/>
<circle class="st1" cx="235.3" cy="60" r="3.2"/>
<circle class="st1" cx="234" cy="62.6" r="2.5"/>
<circle class="st1" cx="235.5" cy="61.4" r="2.5"/>
<circle class="st1" cx="238.9" cy="62.9" r="2.5"/>
<circle class="st1" cx="237.1" cy="64.2" r="2.5"/>
<circle class="st1" cx="238.3" cy="66.9" r="2.5"/>
<circle class="st1" cx="219.9" cy="64.3" r="2.5"/>
<path class="st1" d="M225,72.8c-0.3,0-0.5,0-0.8-0.1c-0.8-0.1-1.5-0.4-2.1-0.8c-0.7-0.4-1-1.3-0.6-2c0,0,0,0,0,0
	c0.2-0.4,0.6-0.7,1.1-0.8c0.7-0.2,1.5-0.3,2.3-0.2c1.8,0.3,3,1.3,2.9,2.4l0,0C227.4,72.2,226.4,72.8,225,72.8z M223.9,69.4
	c-0.4,0-0.8,0.1-1.2,0.2c-0.5,0.2-0.8,0.5-0.9,0.8c0,0.4,0.2,0.8,0.6,1c0.5,0.4,1.2,0.6,1.8,0.7c1.4,0.2,2.7-0.2,2.8-1l0,0
	c0.1-0.7-1-1.6-2.4-1.8C224.4,69.4,224.2,69.4,223.9,69.4L223.9,69.4z"/>
<path class="st1" d="M232.3,73.9c-0.3,0-0.5,0-0.8-0.1c-1.8-0.3-3-1.3-2.9-2.4s1.7-1.7,3.4-1.4c0.8,0.1,1.5,0.4,2.1,0.8
	c0.5,0.3,0.8,0.9,0.8,1.5l0,0c-0.1,0.6-0.6,1.1-1.2,1.2C233.3,73.9,232.8,73.9,232.3,73.9z M231.3,70.6c-1.1,0-2,0.4-2.1,1
	s1,1.5,2.4,1.8c0.7,0.1,1.4,0.1,2-0.1c0.5-0.2,0.8-0.5,0.8-0.8l0,0c0-0.4-0.2-0.8-0.6-1c-0.5-0.4-1.2-0.6-1.8-0.7
	C231.8,70.6,231.6,70.5,231.3,70.6L231.3,70.6z"/>
<rect x="227.9" y="70.6" transform="matrix(0.1516 -0.9884 0.9884 0.1516 122.9628 286.0737)" class="st1" width="0.6" height="1.6"/>
<path class="st0" d="M206.7,183.3c-5,1.1-8.8,5.2-9.6,10.2l-1.1,6.9l24.7,3.8l1.1-6.9c0.8-5-1.6-10.1-6-12.6"/>
<path class="st1" d="M218.3,186.8l-8.5,6.2l-6.3-8.5c-3.5,1.8-5.9,5.2-6.5,9.1l-1.1,6.9l24.7,3.8l1.1-6.9
	C222.4,193.5,221.1,189.6,218.3,186.8z"/>
<path class="st1" d="M221.2,204.9l-25.7-4l1.1-7.4c0.8-5.3,4.8-9.5,10-10.7l0.2,1.1c-4.8,1.1-8.4,5-9.1,9.8l-1,6.3l23.6,3.6l1-6.3
	c0.8-4.8-1.5-9.7-5.8-12.1l0.6-0.9c4.6,2.7,7.1,7.9,6.3,13.2L221.2,204.9z"/>
<path class="st1" d="M212.6,185.9c-0.5,0-1,0-1.5-0.1l0,0l-0.5-0.1c-5.2-0.8-8.8-5.7-8-10.9l0,0l0.5-2.9c0.8-5.2,5.7-8.8,10.9-8
	c0,0,0,0,0,0l0,0l0.5,0.1c5.2,0.8,8.8,5.7,8,10.9l-0.4,3C221.3,182.5,217.3,185.9,212.6,185.9z M211.3,184.7c4.6,0.7,9-2.4,9.7-7.1
	l0,0l0.4-3c0.7-4.6-2.5-9-7.1-9.7l0,0l-0.5-0.1c-4.6-0.7-9,2.5-9.7,7.1l0,0l-0.4,3c-0.7,4.6,2.4,9,7,9.7c0,0,0,0,0,0h0.1
	L211.3,184.7z"/>
<path class="st1" d="M293.2,94.7l-5.4-0.8l1.3-8.6l5.4,0.8L293.2,94.7z M284.6,93.4l-5.4-0.8l1.3-8.6l5.4,0.8L284.6,93.4z M275.9,92
	l-5.4-0.8l1.3-8.6l5.4,0.8L275.9,92z M267.3,90.7l-5.4-0.8l1.3-8.6l5.4,0.8L267.3,90.7z M258.7,89.3l-5.4-0.8l1.3-8.6l5.4,0.8
	L258.7,89.3z"/>
<path class="st1" d="M285.1,146.9l-5.4-0.8l1.3-8.6l5.4,0.8L285.1,146.9z M276.5,145.6l-5.4-0.8l1.3-8.6l5.4,0.8L276.5,145.6z
	 M267.9,144.3l-5.4-0.8l1.3-8.6l5.4,0.8L267.9,144.3z M259.3,143l-5.4-0.8l1.3-8.6l5.4,0.8L259.3,143z M250.6,141.7l-5.4-0.8
	l1.3-8.6l5.4,0.8L250.6,141.7z"/>
<path class="st1" d="M276.8,201l-5.4-0.8l1.3-8.6l5.4,0.8L276.8,201z M268.2,199.7l-5.4-0.8l1.3-8.6l5.4,0.8L268.2,199.7z
	 M259.6,198.3l-5.4-0.8l1.3-8.6l5.4,0.8L259.6,198.3z M250.9,197l-5.4-0.8l1.3-8.6l5.4,0.8L250.9,197z M242.3,195.7l-5.4-0.8
	l1.3-8.6l5.4,0.8L242.3,195.7z"/>
<rect x="209.4" y="122.7" transform="matrix(0.1499 -0.9887 0.9887 0.1499 55.521 329.6073)" class="st1" width="20" height="19.6"/>
<path class="st0" d="M214.7,131.1c-5,1.1-8.8,5.2-9.6,10.2l-1.1,6.9l24.6,3.8l1.1-6.9c0.8-5-1.6-10.1-6-12.6"/>
<path class="st4" d="M226.4,134.5l-8.5,6.2l-6.2-8.5c-3.5,1.8-5.9,5.2-6.5,9.1l-1.1,6.9l24.6,3.8l1.1-6.9
	C230.4,141.2,229.1,137.3,226.4,134.5z"/>
<path class="st1" d="M229.2,152.6l-25.7-4l1.2-7.4c0.8-5.3,4.8-9.5,10-10.7l0.2,1.1c-4.8,1.1-8.4,4.9-9.1,9.8l-1,6.3l23.6,3.7l1-6.3
	c0.7-4.8-1.6-9.6-5.8-12.1l0.6-1c4.6,2.7,7.1,7.9,6.3,13.2L229.2,152.6z"/>
<path class="st0" d="M211.2,122.7l0.5-3.2c0.8-4.9,5.3-8.2,10.2-7.5l0.7,0.1c4.9,0.8,8.2,5.3,7.5,10.2l-0.5,3.2
	c-0.8,4.9-5.3,8.2-10.2,7.5l-0.7-0.1C213.8,132.2,210.5,127.6,211.2,122.7z"/>
<path class="st1" d="M220.7,133.6c-0.5,0-1,0-1.4-0.1l0,0l-0.5-0.1c-5.2-0.8-8.8-5.7-8-10.9l0.4-3c0.8-5.2,5.7-8.9,10.9-8.1l0.5,0.1
	c5.2,0.8,8.8,5.7,8,10.9c0,0,0,0,0,0l-0.4,3C229.4,130.2,225.4,133.6,220.7,133.6z M219.4,132.5c4.6,0.7,9-2.5,9.7-7.1l0,0l0.5-3
	c0.7-4.6-2.5-9-7.1-9.7l0,0l-0.6-0.1c-4.6-0.7-9,2.4-9.7,7.1c0,0,0,0,0,0l0,0l-0.4,3c-0.7,4.6,2.4,9,7.1,9.7c0,0,0,0,0,0l0,0
	L219.4,132.5z"/>
<path class="st1" d="M211.5,121.1c0,0,13.1,3.1,14.7-7.4l-3.9-1.6l-6.1,1.2l-3.2,3.3L211.5,121.1z"/>
<path class="st1" d="M203.4,173.4c0,0,9,2.2,10.8-9C214.2,164.4,205.1,162.6,203.4,173.4z"/>
<path class="st1" d="M221.8,176.2c0,0-9.3-0.6-7.6-11.9C214.2,164.4,223.4,165.4,221.8,176.2z"/>
<polygon class="st0" points="271.7,122.3 289.7,136.1 294.3,119.7 "/>
<path class="st0" d="M300.6,126l22.3-9h16c9.3,0,13.8,5.5,13.8,5.5l11.3,28.9l17.3,17.3l-19.5,19.6"/>
<path class="st5" d="M361.8,189.4c-0.3,0-0.6-0.1-0.8-0.3c-0.4-0.4-0.4-1.1,0-1.5c0,0,0,0,0,0l18.8-18.8l-16.6-16.5
	c-0.1-0.1-0.2-0.2-0.2-0.4l-11.3-28.7c-0.7-0.8-4.8-5-12.8-5h-15.8L301,127c-0.6,0.2-1.2-0.1-1.4-0.7c-0.2-0.5,0.1-1.1,0.6-1.3l0,0
	l22.3-9c0.1-0.1,0.3-0.1,0.4-0.1h16c9.7,0,14.4,5.7,14.6,6c0.1,0.1,0.1,0.2,0.2,0.3l11.2,28.7l17.3,17.1c0.2,0.2,0.3,0.5,0.3,0.8
	c0,0.3-0.1,0.6-0.3,0.8l-19.6,19.5C362.4,189.3,362.1,189.4,361.8,189.4z"/>
<path class="st5" d="M289.7,136.8c-0.1,0-0.2,0-0.3-0.1l-18-13.9c-0.2-0.1-0.3-0.4-0.2-0.6c0.1-0.2,0.2-0.4,0.5-0.4l22.5-2.6
	c0.2,0,0.4,0,0.5,0.2c0.1,0.1,0.1,0.3,0.1,0.5l-4.6,16.4c0,0.2-0.2,0.3-0.4,0.4L289.7,136.8z M273.1,122.8l16.3,12.6l4.2-14.9
	L273.1,122.8z"/>
<rect x="322.7" y="97.3" transform="matrix(0.2682 -0.9634 0.9634 0.2682 108.6307 421.2943)" class="st6" width="18" height="83.6"/>
<polygon class="st5" points="281.6,121.1 279.5,128.5 272.2,122.7 "/>
<polygon class="st0" points="369.2,144.9 296.5,124.7 295.4,128.7 294.4,128.4 295.8,123.4 296.3,123.5 369.5,143.9 "/>
<polygon class="st0" points="367.3,151.2 295.1,131.1 293.9,135.3 292.9,135 294.4,129.8 294.9,129.9 367.6,150.2 "/>
<path class="st0" d="M359.8,184.4L349,173.6h-20.1l-25.3-36.9c0,0,12.3-7.1,17.9,0c4.2,5.1,8.8,9.8,13.8,14.1"/>
<path class="st5" d="M359.8,185.5c-0.3,0-0.6-0.1-0.8-0.3l-10.5-10.5h-19.7c-0.4,0-0.7-0.2-0.9-0.5l-25.3-36.9
	c-0.2-0.2-0.2-0.6-0.2-0.9c0.1-0.3,0.3-0.5,0.5-0.7c0.5-0.3,13.2-7.4,19.3,0.3c4.2,5,8.7,9.7,13.6,14c0.5,0.4,0.5,1.1,0.1,1.5
	c-0.4,0.5-1.1,0.5-1.5,0.1c-5-4.4-9.7-9.2-13.9-14.3c-4.1-5.1-12.5-1.7-15.4-0.3l24.3,35.4H349c0.3,0,0.6,0.1,0.8,0.3l10.8,10.8
	c0.4,0.4,0.4,1.1,0,1.5l0,0C360.3,185.4,360.1,185.5,359.8,185.5z"/>
<polyline class="st0" points="346.9,188.6 377.3,158.2 399.7,180.6 357.1,198.8 346.9,188.6 "/>
<path class="st5" d="M357.1,199.3c-0.1,0-0.3-0.1-0.4-0.2L346.5,189c-0.2-0.2-0.2-0.5,0-0.8l30.4-30.4c0.2-0.2,0.6-0.2,0.8,0l0,0
	l22.4,22.4c0.1,0.1,0.2,0.3,0.1,0.5c0,0.2-0.1,0.3-0.3,0.4l-42.7,18.1C357.2,199.3,357.2,199.3,357.1,199.3z M347.7,188.6l9.5,9.5
	l41.6-17.7L377.3,159L347.7,188.6z"/>
<polygon class="st1" points="426.4,201.4 354.1,201.6 349.2,196.7 385.5,160.5 "/>
<rect class="st7" width="599" height="297"/>
</svg>
