<svg id="圖層_1" data-name="圖層 1" xmlns="http://www.w3.org/2000/svg" viewBox="0 0 599 297"><defs><style>.cls-1{fill:#fff;}.cls-2{fill:#424242;}.cls-3{fill:none;}.cls-4{fill:#00ffa7;}.cls-5{fill:#afafaf;}.cls-6{fill:#e0e0e0;}</style></defs><title>3</title><rect class="cls-1" x="152.58" y="66.17" width="215.35" height="165.07" transform="translate(73.69 383.31) rotate(-81.25)"/><path class="cls-2" d="M326.46,268.7h-.18L163.13,243.58a1.2,1.2,0,0,1-.79-.48,1.23,1.23,0,0,1-.24-.85l32.76-212.9a1.21,1.21,0,0,1,1.35-1h0L359.39,53.43a1.21,1.21,0,0,1,.79.49,1.25,1.25,0,0,1,.23.9L327.66,267.66A1.22,1.22,0,0,1,326.46,268.7ZM164.71,241.36l160.74,24.73L357.81,55.65,197.07,30.92Z"/><line class="cls-3" x1="255.24" y1="237.52" x2="228.98" y2="233.48"/><path class="cls-2" d="M255.24,238.12h-.09l-26.27-4a.59.59,0,0,1-.5-.68v0a.57.57,0,0,1,.66-.5h0l26.27,4a.58.58,0,0,1,.51.66v0A.6.6,0,0,1,255.24,238.12Z"/><line class="cls-3" x1="276.53" y1="240.79" x2="265.59" y2="239.11"/><path class="cls-2" d="M276.53,241.4h-.09l-10.94-1.68a.61.61,0,1,1,.18-1.2h0l10.94,1.68a.61.61,0,0,1,.44.75A.63.63,0,0,1,276.53,241.4Z"/><polyline class="cls-1" points="338.13 100.19 315.58 246.8 270.31 239.84"/><path class="cls-2" d="M315.58,247.41h-.1l-45.22-7a.62.62,0,0,1-.5-.7.59.59,0,0,1,.68-.5h0l44.67,6.87L338,97.27a.61.61,0,0,1,.69-.5.59.59,0,0,1,.51.68h0l-23,149.43a.63.63,0,0,1-.63.52Z"/><polyline class="cls-1" points="250.73 56.86 342.62 71 339.92 88.63"/><path class="cls-2" d="M340,89.23h-.09a.6.6,0,0,1-.51-.68v0l2.61-17-91.33-14a.62.62,0,0,1-.51-.7.6.6,0,0,1,.68-.51h0l91.89,14.13a.6.6,0,0,1,.5.69L340.51,88.7A.62.62,0,0,1,340,89.23Z"/><circle class="cls-2" cx="213.08" cy="70.59" r="2.78"/><circle class="cls-2" cx="233.85" cy="73.8" r="2.78"/><path class="cls-1" d="M226.83,82.4a10.34,10.34,0,1,0-10.09-1.55A13.87,13.87,0,0,0,206.1,92.27l-1.21,7.66,27.47,4.22,1.2-7.65A13.87,13.87,0,0,0,226.83,82.4Z"/><path class="cls-4" d="M229.74,84.69l-9.47,6.93-7-9.48a13.87,13.87,0,0,0-7.21,10.13l-1.21,7.66,27.47,4.22,1.2-7.65A13.8,13.8,0,0,0,229.74,84.69Z"/><path class="cls-2" d="M232.88,104.84l-28.66-4.41,1.28-8.25a14.42,14.42,0,0,1,10-11.63,11,11,0,1,1,12.62,2,14.44,14.44,0,0,1,6.1,14.09Zm-27.26-5.42,26.26,4,1.08-7a13.23,13.23,0,0,0-6.43-13.49l-1.1-.64,1.21-.44a9.76,9.76,0,1,0-9.49-1.47l1,.8-1.2.27a13.21,13.21,0,0,0-10.19,10.93Z"/><circle class="cls-2" cx="234.73" cy="70.18" r="2.78"/><circle class="cls-2" cx="212.36" cy="67.67" r="2.78"/><circle class="cls-2" cx="216.55" cy="63.24" r="2.78" transform="translate(152.94 279.68) rotate(-89.9)"/><circle class="cls-2" cx="220.66" cy="61.91" r="2.78" transform="translate(158.38 282.46) rotate(-89.9)"/><circle class="cls-2" cx="225.32" cy="61.79" r="2.78" transform="translate(163.15 287.01) rotate(-89.9)"/><circle class="cls-2" cx="217.55" cy="59.22" r="2.78" transform="translate(157.97 276.67) rotate(-89.9)"/><circle class="cls-2" cx="222.82" cy="59.01" r="2.78" transform="translate(163.44 281.73) rotate(-89.9)"/><circle class="cls-2" cx="215.06" cy="61.79" r="2.78" transform="translate(152.91 276.75) rotate(-89.9)"/><circle class="cls-2" cx="226.84" cy="59.46" r="2.78" transform="translate(167 286.2) rotate(-89.9)"/><circle class="cls-2" cx="226.49" cy="57.11" r="3.58"/><circle class="cls-2" cx="220.77" cy="57.87" r="3.58"/><circle class="cls-2" cx="230.71" cy="59.82" r="3.58"/><circle class="cls-2" cx="229.24" cy="62.79" r="2.78" transform="translate(166.06 291.92) rotate(-89.9)"/><circle class="cls-2" cx="231" cy="61.43" r="2.78" transform="translate(169.18 292.32) rotate(-89.9)"/><circle class="cls-2" cx="234.69" cy="63.04" r="2.78" transform="translate(171.25 297.63) rotate(-89.9)"/><circle class="cls-2" cx="232.8" cy="64.51" r="2.78"/><circle class="cls-2" cx="234.12" cy="67.52" r="2.78"/><circle class="cls-2" cx="213.53" cy="64.7" r="2.78"/><path class="cls-2" d="M219.21,74.12a5.7,5.7,0,0,1-.92-.07,5.11,5.11,0,0,1-2.33-.94,1.66,1.66,0,0,1-.67-2.24,1.69,1.69,0,0,1,1.15-.85,5.06,5.06,0,0,1,2.5-.19c2,.3,3.38,1.47,3.2,2.65h0C222,73.47,220.77,74.12,219.21,74.12ZM218,70.37a3.9,3.9,0,0,0-1.39.23c-.55.21-.88.52-.94.89a1.26,1.26,0,0,0,.63,1.14,4.49,4.49,0,0,0,2.05.82c1.58.24,3-.24,3.14-1.06h0c.12-.81-1.1-1.72-2.68-2a5,5,0,0,0-.78,0Z"/><path class="cls-2" d="M227.44,75.39a6.84,6.84,0,0,1-.9-.08c-1.95-.3-3.38-1.46-3.15-2.64s1.86-1.88,3.85-1.58a5.24,5.24,0,0,1,2.33,1,1.86,1.86,0,0,1,.85,1.71h0a1.87,1.87,0,0,1-1.33,1.37A4.65,4.65,0,0,1,227.44,75.39Zm-1.2-3.75c-1.2,0-2.24.44-2.34,1.13s1.1,1.7,2.68,1.94a4.49,4.49,0,0,0,2.21-.15c.54-.22.87-.53.93-.91h0a1.31,1.31,0,0,0-.62-1.14A4.67,4.67,0,0,0,227,71.7a4.85,4.85,0,0,0-.75-.11Z"/><rect class="cls-2" x="222.43" y="71.66" width="0.61" height="1.83" transform="translate(117.24 281.73) rotate(-81.28)"/><path class="cls-1" d="M198.84,197.28a13.84,13.84,0,0,0-10.65,11.42l-1.2,7.65,27.48,4.27,1.21-7.66A13.89,13.89,0,0,0,209,198.83"/><path class="cls-2" d="M211.83,201.1l-9.47,7-7-9.48a13.81,13.81,0,0,0-7.21,10.13l-1.2,7.65,27.48,4.27,1.21-7.66A13.85,13.85,0,0,0,211.83,201.1Z"/><path class="cls-2" d="M215,221.27l-28.66-4.41,1.27-8.26a14.41,14.41,0,0,1,11.12-11.92l.26,1.2a13.22,13.22,0,0,0-10.18,10.93l-1.08,7,26.26,4,1.08-7a13.21,13.21,0,0,0-6.43-13.48l.61-1.05a14.42,14.42,0,0,1,7,14.71Z"/><path class="cls-2" d="M205.48,200.19a11.19,11.19,0,0,1-1.63-.13h0l-.53-.09a10.65,10.65,0,0,1-8.94-12.12v0l.51-3.3A10.65,10.65,0,0,1,207,175.57h0l.54.08a10.7,10.7,0,0,1,8.93,12.18l-.5,3.3A10.72,10.72,0,0,1,205.48,200.19ZM204,198.85a9.47,9.47,0,0,0,10.82-7.9h0l.5-3.31a9.49,9.49,0,0,0-7.92-10.82l-.53-.07a9.47,9.47,0,0,0-10.81,7.9h0l-.51,3.31a9.44,9.44,0,0,0,7.86,10.8h.05Z"/><path class="cls-2" d="M295.23,98.52l-6-.92L290.7,88l6,.93ZM285.62,97l-6-.92,1.48-9.62,6,.93ZM276,95.56l-6-.92L271.47,85l6,1Zm-9.62-1.47-6-.93,1.47-9.55,6,.92Zm-9.61-1.48-6-.93,1.48-9.61,6,.92Z"/><path class="cls-2" d="M286.28,156.73l-6-.93,1.48-9.61,6,.91Zm-9.61-1.48-6-.93,1.48-9.61,6,.93Zm-9.62-1.48-6-.92,1.48-9.62,6,.93Zm-9.61-1.48-6-.92,1.48-9.62,6,.93Zm-9.62-1.47-6-.93,1.48-9.62,6,.93Z"/><path class="cls-2" d="M277,217l-6-.91,1.48-9.61,6,.92Zm-9.61-1.47-6-.92,1.48-9.61,6,.92Zm-9.62-1.48-6-.93,1.48-9.61,6,.92Zm-9.61-1.48-6-.91,1.48-9.62,6,.93Zm-9.61-1.48-6-.92,1.47-9.62,6,.93Z"/><rect class="cls-2" x="201.87" y="129.72" width="22.34" height="21.86" transform="translate(42.05 330.21) rotate(-81.38)"/><path class="cls-1" d="M207.77,139.06a13.87,13.87,0,0,0-10.65,11.43l-1.2,7.64,27.47,4.24,1.2-7.66a13.88,13.88,0,0,0-6.73-14.1"/><path class="cls-5" d="M220.78,142.89l-9.41,7-7-9.48a13.81,13.81,0,0,0-7.21,10.13l-1.2,7.64,27.39,4.24,1.2-7.66A13.83,13.83,0,0,0,220.78,142.89Z"/><path class="cls-2" d="M223.93,163.05l-28.66-4.41,1.27-8.25a14.44,14.44,0,0,1,11.12-11.92l.26,1.2a13.25,13.25,0,0,0-10.18,10.93l-1.08,7.05,26.26,4.08,1.08-7.06a13.22,13.22,0,0,0-6.43-13.47l.62-1a14.44,14.44,0,0,1,7,14.72Z"/><rect class="cls-1" x="202.66" y="119.22" width="23.48" height="20.68" rx="9.95" transform="translate(53.74 321.76) rotate(-81.25)"/><path class="cls-2" d="M214.44,141.92a11.21,11.21,0,0,1-1.64-.12h0l-.53-.08a10.69,10.69,0,0,1-8.93-12.18l.51-3.3a10.7,10.7,0,0,1,12.17-9l.54.08a10.69,10.69,0,0,1,8.93,12.18l-.5,3.36A10.7,10.7,0,0,1,214.44,141.92ZM213,140.6a9.47,9.47,0,0,0,10.81-7.9v0l.51-3.29a9.49,9.49,0,0,0-7.9-10.82h0l-.57-.11a9.47,9.47,0,0,0-10.81,7.9v0l-.51,3.29a9.48,9.48,0,0,0,7.9,10.82h0Z"/><path class="cls-2" d="M204.16,128s14.59,3.46,16.39-8.25L216.18,118l-6.84,1.31-3.6,3.7Z"/><path class="cls-2" d="M195.24,186.2s10.08,2.5,12-10C207.25,176.15,197.1,174.16,195.24,186.2Z"/><path class="cls-2" d="M215.69,189.37s-10.37-.64-8.42-13.22C207.25,176.15,217.54,177.35,215.69,189.37Z"/><rect class="cls-1" x="305.89" y="119.43" width="125.78" height="88.87" transform="translate(-16.2 42.87) rotate(-6.51)"/><path class="cls-2" d="M311.33,215.81a.6.6,0,0,1-.61-.53L300.65,127a.59.59,0,0,1,.14-.44.68.68,0,0,1,.39-.23l125-14.24a.59.59,0,0,1,.66.51v0L436.9,200.9a.6.6,0,0,1-.53.66l-125,14.25Zm-9.41-88.36,9.93,87.1,123.79-14.11-9.93-87.1Z"/><rect class="cls-5" x="311.09" y="133.33" width="38.78" height="2.4" transform="translate(-13.12 38.34) rotate(-6.51)"/><rect class="cls-5" x="312.05" y="140.38" width="38.78" height="2.4" transform="translate(-13.92 38.49) rotate(-6.51)"/><rect class="cls-5" x="313.03" y="147.97" width="38.78" height="2.4" transform="translate(-14.77 38.65) rotate(-6.51)"/><rect class="cls-5" x="314.15" y="155.57" width="38.78" height="2.4" transform="translate(-15.62 38.83) rotate(-6.51)"/><rect class="cls-6" x="357.9" y="126.87" width="58.44" height="41.78" transform="translate(-14.26 44.85) rotate(-6.51)"/><rect class="cls-5" x="361.89" y="132.44" width="49.13" height="31.02" rx="3.65" transform="translate(-14.28 44.77) rotate(-6.51)"/><rect class="cls-5" x="317.74" y="188.96" width="103.77" height="2.4" transform="translate(-19.18 43.14) rotate(-6.51)"/><rect class="cls-5" x="316.53" y="182.18" width="103.77" height="2.4" transform="translate(-18.42 42.96) rotate(-6.51)"/><rect class="cls-5" x="318.94" y="195.69" width="103.77" height="2.4" transform="translate(-19.93 43.32) rotate(-6.51)"/><rect class="cls-1" x="365.95" y="137.69" width="12.32" height="16.79" transform="translate(-14.16 43.13) rotate(-6.51)"/><rect class="cls-1" x="295.29" y="134.14" width="125.78" height="88.87" transform="translate(-17.94 41.76) rotate(-6.51)"/><path class="cls-2" d="M300.71,230.46a.61.61,0,0,1-.6-.54L290,141.63a.69.69,0,0,1,.13-.44.62.62,0,0,1,.4-.22l125-14.25a.57.57,0,0,1,.65.48.09.09,0,0,1,0,0l10.07,88.29a.6.6,0,0,1-.12.44.64.64,0,0,1-.41.22l-125,14.25Zm-9.41-88.37,9.94,87.1L425,215.08,415.1,128Z"/><rect class="cls-5" x="300.47" y="148.02" width="38.78" height="2.4" transform="translate(-14.86 37.23) rotate(-6.51)"/><rect class="cls-5" x="301.43" y="155.07" width="38.78" height="2.4" transform="translate(-15.65 37.38) rotate(-6.51)"/><rect class="cls-5" x="302.41" y="162.67" width="38.78" height="2.4" transform="translate(-16.51 37.54) rotate(-6.51)"/><rect class="cls-5" x="303.53" y="170.27" width="38.78" height="2.4" transform="translate(-17.36 37.72) rotate(-6.51)"/><rect class="cls-6" x="347.29" y="141.58" width="58.44" height="41.78" transform="translate(-15.99 43.74) rotate(-6.51)"/><rect class="cls-5" x="351.28" y="147.14" width="49.13" height="31.02" rx="3.65" transform="translate(-16.02 43.66) rotate(-6.51)"/><rect class="cls-5" x="307.13" y="203.65" width="103.77" height="2.4" transform="translate(-20.91 42.03) rotate(-6.51)"/><rect class="cls-5" x="305.92" y="196.87" width="103.77" height="2.4" transform="translate(-20.15 41.85) rotate(-6.51)"/><rect class="cls-5" x="308.33" y="210.38" width="103.77" height="2.4" transform="translate(-21.67 42.21) rotate(-6.51)"/><rect class="cls-1" x="355.34" y="152.39" width="12.32" height="16.79" transform="translate(-15.9 42.03) rotate(-6.51)"/><rect class="cls-1" x="284.67" y="148.84" width="125.78" height="88.87" transform="translate(-19.67 40.65) rotate(-6.51)"/><path class="cls-2" d="M290.1,245.16a.61.61,0,0,1-.6-.54l-10.06-88.29a.57.57,0,0,1,.12-.44.56.56,0,0,1,.41-.22l125-14.25a.59.59,0,0,1,.67.49v0l10.05,88.29a.6.6,0,0,1-.12.44.61.61,0,0,1-.41.23l-125,14.24Zm-9.4-88.37,10,87.1,123.79-14.11-9.93-87.1Z"/><rect class="cls-5" x="289.87" y="162.73" width="38.78" height="2.4" transform="translate(-16.59 36.12) rotate(-6.51)"/><rect class="cls-5" x="290.83" y="169.77" width="38.78" height="2.4" transform="translate(-17.39 36.28) rotate(-6.51)"/><rect class="cls-5" x="291.8" y="177.38" width="38.78" height="2.4" transform="translate(-18.24 36.44) rotate(-6.51)"/><rect class="cls-5" x="292.92" y="184.98" width="38.78" height="2.4" transform="translate(-19.1 36.61) rotate(-6.51)"/><rect class="cls-6" x="336.68" y="156.28" width="58.44" height="41.78" transform="translate(-17.73 42.63) rotate(-6.51)"/><rect class="cls-5" x="340.67" y="161.85" width="49.13" height="31.02" rx="3.65" transform="translate(-17.75 42.56) rotate(-6.51)"/><rect class="cls-5" x="296.52" y="218.35" width="103.77" height="2.4" transform="translate(-22.65 40.92) rotate(-6.51)"/><rect class="cls-5" x="295.32" y="211.57" width="103.77" height="2.4" transform="translate(-21.89 40.74) rotate(-6.51)"/><rect class="cls-5" x="297.72" y="225.08" width="103.77" height="2.4" transform="translate(-23.4 41.1) rotate(-6.51)"/><rect class="cls-1" x="344.74" y="167.08" width="12.32" height="16.79" transform="translate(-17.63 40.92) rotate(-6.51)"/><rect class="cls-1" x="274.07" y="163.54" width="125.78" height="88.87" transform="translate(-21.41 39.55) rotate(-6.51)"/><path class="cls-2" d="M279.49,259.86a.61.61,0,0,1-.6-.54L268.83,171a.57.57,0,0,1,.12-.44.6.6,0,0,1,.41-.22l125-14.25a.6.6,0,0,1,.66.52l10.07,88.29a.72.72,0,0,1-.13.45.71.71,0,0,1-.4.23l-125,14.24Zm-9.4-88.37,9.93,87.1L403.8,244.48l-9.94-87.1Z"/><rect class="cls-5" x="279.26" y="177.43" width="38.78" height="2.4" transform="translate(-18.33 35.01) rotate(-6.51)"/><rect class="cls-5" x="280.23" y="184.47" width="38.78" height="2.4" transform="translate(-19.12 35.17) rotate(-6.51)"/><rect class="cls-5" x="281.2" y="192.08" width="38.78" height="2.4" transform="translate(-19.98 35.33) rotate(-6.51)"/><rect class="cls-5" x="282.31" y="199.68" width="38.78" height="2.4" transform="translate(-20.83 35.5) rotate(-6.51)"/><rect class="cls-6" x="326.08" y="170.98" width="58.44" height="41.78" transform="translate(-19.46 41.52) rotate(-6.51)"/><rect class="cls-5" x="330.07" y="176.55" width="49.13" height="31.02" rx="3.65" transform="translate(-19.49 41.45) rotate(-6.51)"/><rect class="cls-5" x="285.9" y="233.05" width="103.77" height="2.4" transform="translate(-24.38 39.81) rotate(-6.51)"/><rect class="cls-5" x="284.71" y="226.27" width="103.77" height="2.4" transform="translate(-23.62 39.63) rotate(-6.51)"/><rect class="cls-5" x="287.1" y="239.78" width="103.77" height="2.4" transform="translate(-25.14 39.99) rotate(-6.51)"/><rect class="cls-1" x="334.13" y="181.78" width="12.32" height="16.79" transform="translate(-19.37 39.81) rotate(-6.51)"/></svg>