<svg id="圖層_1" data-name="圖層 1" xmlns="http://www.w3.org/2000/svg" viewBox="0 0 230 200"><defs><style>.cls-1{fill:#424242;}.cls-2{fill:#fff;}.cls-3{fill:#00ffa7;}.cls-4{fill:#f4f4f4;}.cls-5{fill:#f8f8f8;}.cls-6{fill:#ffda6a;}</style></defs><title>11</title><ellipse class="cls-1" cx="89.05" cy="57.42" rx="13.18" ry="13.17"/><ellipse class="cls-1" cx="138.6" cy="57.42" rx="13.18" ry="13.17"/><ellipse class="cls-1" cx="114.32" cy="40.48" rx="33.11" ry="33.07"/><rect class="cls-2" x="89.75" y="11.62" width="47.64" height="61.92" rx="23.82"/><path class="cls-1" d="M113.57,74.05A24.35,24.35,0,0,1,89.25,49.73V35.45a24.32,24.32,0,1,1,48.64,0V49.73A24.35,24.35,0,0,1,113.57,74.05Zm0-61.93A23.35,23.35,0,0,0,90.25,35.45V49.73a23.32,23.32,0,0,0,46.64,0V35.45A23.35,23.35,0,0,0,113.57,12.12Z"/><ellipse class="cls-1" cx="114.32" cy="9.95" rx="9.97" ry="9.95"/><ellipse class="cls-1" cx="124.29" cy="14.32" rx="9.97" ry="9.95"/><path class="cls-1" d="M126.17,18.34s11.22-2.17,11.22,33.94h8.27l-8.27-34L124.29,11l1.88,7.39"/><path class="cls-1" d="M125,21.39s-17.18-11.09-23.56.95C97.81,29.19,96,37,93.66,44.41a73.66,73.66,0,0,1-4.29,11.05c-.5,1-4.46,8.69-5.91,7s1.33-7.77,1.64-9.59l3.57-30.08L104.35,11l17,.67Z"/><ellipse class="cls-2" cx="113.97" cy="28.16" rx="12.98" ry="12.97"/><ellipse class="cls-2" cx="125.41" cy="26.1" rx="7.77" ry="7.76"/><path class="cls-1" d="M75.86,57.42S71.69,0,114.32,0"/><path class="cls-1" d="M125.41,4.37s26.37-.87,26.37,54.49"/><ellipse class="cls-2" cx="102.43" cy="42.34" rx="8.12" ry="8.11"/><path class="cls-1" d="M102.43,51a8.61,8.61,0,1,1,8.63-8.61A8.63,8.63,0,0,1,102.43,51Zm0-16.22a7.61,7.61,0,1,0,7.63,7.61A7.62,7.62,0,0,0,102.43,34.73Z"/><ellipse class="cls-2" cx="125.1" cy="42.34" rx="8.12" ry="8.11"/><path class="cls-1" d="M125.1,51a8.61,8.61,0,1,1,8.62-8.61A8.63,8.63,0,0,1,125.1,51Zm0-16.22a7.61,7.61,0,1,0,7.62,7.61A7.62,7.62,0,0,0,125.1,34.73Z"/><path class="cls-1" d="M117,42.84h-6.41a.5.5,0,0,1,0-1H117a.5.5,0,0,1,0,1Z"/><rect class="cls-1" x="72.38" y="72.77" width="85.25" height="118.25" rx="37.2"/><polyline class="cls-2" points="106.42 89.08 113.38 81.93 120.87 89.08 113.82 107.6"/><path class="cls-2" d="M102.9,70.84V97.77c0,5.8,4.73,11.36,10.56,11.36S124,103.57,124,97.77V70.84"/><path class="cls-1" d="M113.46,109.63c-5.89,0-11.06-5.55-11.06-11.86V70.84h1V97.77c0,5.78,4.7,10.86,10.06,10.86s10.06-5.08,10.06-10.86V70.84h1V97.77C124.52,104.08,119.35,109.63,113.46,109.63Z"/><path class="cls-3" d="M104.44,85.61s8.48,9.61,18.11,0l-9.65,22.13Z"/><path class="cls-1" d="M123.46,75.75l9.68,9.62a1,1,0,0,1,0,1.41l-8.06,8a1,1,0,0,0,0,1.41l3.84,3.82a.74.74,0,0,1-.15,1.22l-18.23,10.91"/><path class="cls-1" d="M103.49,75.87l-9.68,9.62a1,1,0,0,0,0,1.41l8,8a1,1,0,0,1,0,1.41L98,100.14a.73.73,0,0,0,.16,1.21l17.6,10.3"/><path class="cls-1" d="M125.09,96.21l3.83,3.81a.87.87,0,0,1-.07,1.33l-15.21,12"/><path class="cls-2" d="M113.64,113.55a.23.23,0,0,1-.19-.1.24.24,0,0,1,0-.35l15.2-11.95a.63.63,0,0,0,.25-.46.66.66,0,0,0-.19-.49l-3.84-3.81a.25.25,0,0,1,.36-.36l3.83,3.82a1.1,1.1,0,0,1,.34.87,1.11,1.11,0,0,1-.44.82l-15.2,12A.3.3,0,0,1,113.64,113.55Z"/><path class="cls-1" d="M124.65,76.94l8.49,8.43a1,1,0,0,1,0,1.41l-8.77,8.72"/><path class="cls-2" d="M124.37,95.75a.25.25,0,0,1-.17-.08.24.24,0,0,1,0-.35L133,86.61a.75.75,0,0,0,0-1.06l-8.48-8.44a.25.25,0,0,1,.35-.35l8.48,8.44a1.23,1.23,0,0,1,0,1.76l-8.76,8.72A.29.29,0,0,1,124.37,95.75Z"/><path class="cls-1" d="M102,96.21l-4,3.93a.91.91,0,0,0,.06,1.36l13.76,11.8"/><path class="cls-2" d="M111.84,113.55a.27.27,0,0,1-.16-.06l-13.77-11.8a1.18,1.18,0,0,1-.06-1.73l4-3.93a.26.26,0,0,1,.35,0,.25.25,0,0,1,0,.36l-4,3.93a.66.66,0,0,0-.2.5.65.65,0,0,0,.24.49L112,113.11a.25.25,0,0,1,0,.35A.25.25,0,0,1,111.84,113.55Z"/><path class="cls-1" d="M102,77.32l-8.22,8.17a1,1,0,0,0,0,1.41l8.76,8.72"/><path class="cls-2" d="M102.57,95.87a.28.28,0,0,1-.17-.07l-8.76-8.72a1.23,1.23,0,0,1,0-1.76l8.21-8.17a.25.25,0,1,1,.35.35L94,85.67a.75.75,0,0,0,0,1.06l8.76,8.71a.24.24,0,0,1,0,.35A.25.25,0,0,1,102.57,95.87Z"/><polyline class="cls-4" points="222.74 174.97 170.12 135.91 170.12 174.97"/><path class="cls-1" d="M222.74,175.48a.46.46,0,0,1-.29-.1l-51.84-38.47V175a.5.5,0,1,1-1,0V135.91a.5.5,0,0,1,.27-.45.49.49,0,0,1,.52,0L223,174.56a.52.52,0,0,1,.11.71A.49.49,0,0,1,222.74,175.48Z"/><polygon class="cls-4" points="59.22 135.83 59.22 174.89 6.59 174.89 59.22 135.83"/><path class="cls-1" d="M59.22,175.4H6.59a.5.5,0,0,1-.48-.35.53.53,0,0,1,.18-.57l52.63-39.06a.51.51,0,0,1,.52,0,.5.5,0,0,1,.27.45v39.06A.5.5,0,0,1,59.22,175.4Zm-51.11-1H58.72V136.83Z"/><polygon class="cls-2" points="229.45 169.68 224.29 165.82 221.59 163.71 221.48 163.71 184.36 135.91 170.69 135.91 207.81 163.71 21.98 163.71 59.2 135.83 45.54 135.83 0.45 169.6 0.67 169.6 0.45 169.75 229.35 169.75 229.25 169.68 229.45 169.68"/><path class="cls-1" d="M229.35,170.26H.45A.5.5,0,0,1,0,169.9a.41.41,0,0,1,0-.22.51.51,0,0,1,.19-.49l45.09-33.76a.47.47,0,0,1,.3-.1H59.21a.5.5,0,0,1,.47.35.51.51,0,0,1-.18.56l-36,27H206.3l-35.9-26.89a.51.51,0,0,1-.18-.56.5.5,0,0,1,.47-.35h13.67a.43.43,0,0,1,.29.1l37,27.7a.43.43,0,0,1,.24.1l2.7,2.1,5.16,3.86a.51.51,0,0,1,.17.57.5.5,0,0,1-.24.29A.51.51,0,0,1,229.35,170.26Zm-227.59-1H228l-4-3-2.59-2a.5.5,0,0,1-.23-.09l-37-27.7h-12l35.9,26.88a.53.53,0,0,1,.18.57.5.5,0,0,1-.48.35H22a.5.5,0,0,1-.48-.35.53.53,0,0,1,.18-.57l36-27h-12Z"/><rect class="cls-5" x="0.5" y="169.75" width="228.9" height="29.74"/><path class="cls-1" d="M229.4,200H.5a.5.5,0,0,1-.5-.51V169.75a.5.5,0,0,1,.5-.5H229.4a.5.5,0,0,1,.5.5v29.74A.5.5,0,0,1,229.4,200ZM1,199H228.9V170.26H1Z"/><path class="cls-1" d="M180,152.72h-3V113.9A47.07,47.07,0,0,0,163.5,80.69L152.26,69.26l2.11-2.15,11.24,11.43A50.09,50.09,0,0,1,180,113.9Z"/><path class="cls-1" d="M156.24,65.5a3.89,3.89,0,0,0-5.56,0,4,4,0,0,0,0,5.65,3.87,3.87,0,0,0,5.56,0A4.05,4.05,0,0,0,156.24,65.5Z"/><path class="cls-1" d="M52.3,152.72h-3V113.9A50.09,50.09,0,0,1,63.72,78.54L75,67.11l2.11,2.15L65.83,80.69A47.07,47.07,0,0,0,52.3,113.9Z"/><path class="cls-1" d="M78.65,71.15a4,4,0,0,0,0-5.65,3.89,3.89,0,0,0-5.56,0,4.05,4.05,0,0,0,0,5.65A3.87,3.87,0,0,0,78.65,71.15Z"/><path class="cls-3" d="M127.88,122.72a10.52,10.52,0,0,0-10.06,7.59,7.33,7.33,0,0,0-3.57-.93,7.41,7.41,0,0,0-6.51,3.9,13.43,13.43,0,0,0-25.45,4,10.4,10.4,0,0,0-7.27-3A10.56,10.56,0,0,0,64.56,144h0a7.39,7.39,0,0,0-5.89,3,12.09,12.09,0,0,0-1.21-.07,10.53,10.53,0,0,0-10.11,7.77,10.41,10.41,0,0,0-4-.8A10.54,10.54,0,0,0,32.9,163.2H197a10.52,10.52,0,0,0-10.08-7.68h-.2a7.34,7.34,0,0,0-10.38-.95,8.84,8.84,0,0,0-8.72-7.72,8.67,8.67,0,0,0-2.29.31c0-.1,0-.21,0-.31a12.5,12.5,0,0,0-12.42-12.58,12.13,12.13,0,0,0-4.28.78,7.4,7.4,0,0,0-5.72-2.72,7.31,7.31,0,0,0-4.57,1.6c0-.2,0-.39,0-.59A10.56,10.56,0,0,0,127.88,122.72Z"/><ellipse class="cls-6" cx="68.85" cy="143.43" rx="4.92" ry="4.98"/><ellipse class="cls-6" cx="100.24" cy="155.36" rx="4.92" ry="4.98"/><ellipse class="cls-6" cx="131.1" cy="135.83" rx="4.92" ry="4.98"/><ellipse class="cls-6" cx="145.74" cy="152.72" rx="4.92" ry="4.98"/><ellipse class="cls-6" cx="159.69" cy="143.43" rx="4.92" ry="4.98"/></svg>