<svg id="圖層_1" data-name="圖層 1" xmlns="http://www.w3.org/2000/svg" viewBox="0 0 599 297"><defs><style>.cls-1{fill:#fff;}.cls-2{fill:#424242;}.cls-3,.cls-8{fill:none;}.cls-4{fill:#ffda6a;}.cls-5{fill:#2caff5;}.cls-6{fill:#00ffa7;}.cls-7{fill:#525252;}.cls-8{stroke:#fff;stroke-miterlimit:10;opacity:0;}</style></defs><title>5</title><rect class="cls-1" x="143.77" y="65.98" width="215.35" height="165.07" transform="matrix(0.15, -0.99, 0.99, 0.15, 66.4, 374.44)"/><path class="cls-2" d="M316.65,268.7h-.18L153.33,243.58a1.2,1.2,0,0,1-.79-.48,1.18,1.18,0,0,1-.24-.85l32.76-212.9a1.2,1.2,0,0,1,1.34-1h0L349.58,53.43a1.23,1.23,0,0,1,.8.49,1.2,1.2,0,0,1,.22.9L317.86,267.66A1.22,1.22,0,0,1,316.65,268.7ZM154.9,241.36l160.74,24.73L348,55.65,187.27,30.92Z"/><line class="cls-3" x1="245.44" y1="237.52" x2="219.18" y2="233.48"/><path class="cls-2" d="M245.44,238.12h-.09l-26.27-4a.6.6,0,0,1-.51-.68v0a.57.57,0,0,1,.65-.5h0l26.27,4a.59.59,0,0,1,.51.66v0A.61.61,0,0,1,245.44,238.12Z"/><rect class="cls-4" x="165.67" y="185.53" width="47.68" height="32.1" transform="translate(-38.56 358.22) rotate(-81.25)"/><line class="cls-3" x1="266.73" y1="240.79" x2="255.78" y2="239.11"/><path class="cls-2" d="M266.73,241.4h-.09l-10.94-1.68a.62.62,0,0,1-.52-.69.61.61,0,0,1,.7-.51h0l10.94,1.68a.61.61,0,0,1-.09,1.2Z"/><path class="cls-2" d="M305.78,247.41h-.1l-45.22-7a.63.63,0,0,1-.51-.7.6.6,0,0,1,.68-.5h0l44.67,6.87L328.15,97.27a.62.62,0,0,1,.7-.5.59.59,0,0,1,.51.68h0l-23,149.43a.58.58,0,0,1-.24.4A.64.64,0,0,1,305.78,247.41Z"/><polyline class="cls-1" points="240.93 56.86 332.82 71 330.11 88.63"/><path class="cls-2" d="M330.16,89.23h-.09a.6.6,0,0,1-.51-.68v0l2.61-17-91.34-14a.62.62,0,0,1-.5-.7.6.6,0,0,1,.68-.51h0l91.89,14.13a.61.61,0,0,1,.51.69L330.7,88.7A.61.61,0,0,1,330.16,89.23Z"/><rect class="cls-5" x="184.25" y="64.84" width="47.68" height="32.1" transform="translate(96.48 274.25) rotate(-81.25)"/><rect class="cls-6" x="174.86" y="125.79" width="47.68" height="32.1" transform="translate(28.28 316.64) rotate(-81.25)"/><path class="cls-1" d="M231.9,86a10.33,10.33,0,1,0-10.08-1.55,13.88,13.88,0,0,0-10.64,11.37l-1.2,7.66,27.46,4.21,1.21-7.64A13.88,13.88,0,0,0,231.9,86Z"/><path class="cls-5" d="M234.81,88.25l-9.47,6.94L218.4,85.7a13.82,13.82,0,0,0-7.22,10.13l-1.2,7.66,27.46,4.21,1.21-7.64A13.84,13.84,0,0,0,234.81,88.25Z"/><path class="cls-2" d="M238,108.4,209.3,104l1.27-8.26a14.41,14.41,0,0,1,10-11.62A10.94,10.94,0,1,1,233.19,86a14.43,14.43,0,0,1,6,14.1ZM210.68,103,237,107,238,100a13.21,13.21,0,0,0-6.42-13.47l-1.1-.65,1.2-.44a9.73,9.73,0,1,0-9.49-1.47l1,.79L222,85a13.22,13.22,0,0,0-10.18,10.93Z"/><path class="cls-2" d="M295.75,99.72l-6-.92,1.47-9.62,6,.93Zm-9.61-1.48-6-.92,1.49-9.62,6,.93Zm-9.61-1.47-6-.93L272,86.23l6,.92Zm-9.62-1.48-6-.93,1.48-9.61,6,.92Zm-9.61-1.48-6-.93,1.48-9.61,6,.92Z"/><path class="cls-2" d="M286.8,157.93l-6-.93,1.48-9.61,6,.91Zm-9.61-1.48-6-.92,1.48-9.62,6,.93ZM267.57,155l-6-.92,1.48-9.62,6,.93ZM258,153.5l-6-.93,1.48-9.62,6,.93ZM248.34,152l-6-.93,1.48-9.61,6,.92Z"/><path class="cls-2" d="M277.52,218.22l-6-.92,1.48-9.61,6,.92Zm-9.61-1.48-6-.92,1.48-9.61,6,.93Zm-9.62-1.48-6-.93,1.47-9.61,6,.93Zm-9.61-1.48-6-.91,1.48-9.62,6,.93Zm-9.61-1.48-6-.92,1.48-9.62,6,.93Z"/><path class="cls-1" d="M210.67,202.3a9.47,9.47,0,0,0,10.81-7.92l.51-3.29a9.48,9.48,0,0,0-7.9-10.82h0l-.54-.08a9.48,9.48,0,0,0-10.77,8h0l-.5,3.3a9.47,9.47,0,0,0,7.9,10.82h.5Z"/><path class="cls-2" d="M223,145.23,215.52,144c-6.4-1-10.55-3.79-9.61-10.2h0c1-6.36,13.18-13,13.18-13l7.48,1.21s9.17,9.7,8.18,16.1h0C233.77,144.53,229.4,146.21,223,145.23Z"/><path class="cls-1" d="M214.42,142.5a13.88,13.88,0,0,0-10.65,11.43l-1.2,7.65L230,165.8l1.2-7.65a13.88,13.88,0,0,0-6.73-14.09"/><path class="cls-6" d="M227.41,146.38l-9.47,6.94-7-9.49A13.87,13.87,0,0,0,203.77,154l-1.2,7.66L230,165.84l1.2-7.66A13.82,13.82,0,0,0,227.41,146.38Z"/><path class="cls-2" d="M230.57,166.54l-28.68-4.42,1.28-8.25A14.4,14.4,0,0,1,214.28,142l.28,1.2a13.23,13.23,0,0,0-10.19,10.92l-1.08,7.05,26.26,4,1.08-7a13.22,13.22,0,0,0-6.43-13.48l.61-1a14.43,14.43,0,0,1,7,14.71Z"/><rect class="cls-1" x="209.29" y="122.71" width="23.48" height="20.68" rx="9.95" transform="translate(55.9 331.27) rotate(-81.25)"/><path class="cls-2" d="M221.06,145.42a11.06,11.06,0,0,1-1.62-.13h0l-.54-.09A10.67,10.67,0,0,1,210,133l.51-3.31a10.7,10.7,0,0,1,12.17-8.93l.54.07a10.7,10.7,0,0,1,8.93,12.19l-.52,3.31A10.71,10.71,0,0,1,221.06,145.42Zm-1.46-1.34a9.45,9.45,0,0,0,10.81-7.87v0l.51-3.3a9.46,9.46,0,0,0-7.9-10.81h0l-.54-.09a9.49,9.49,0,0,0-10.82,7.92l-.47,3.31A9.46,9.46,0,0,0,219,144h.05Z"/><path class="cls-2" d="M210.82,131.46s14.59,3.47,16.4-8.19l-4.39-1.78L216,122.76l-3.6,3.69Z"/><path class="cls-1" d="M205.46,200.77a13.85,13.85,0,0,0-10.64,11.41l-1.21,7.66,27.47,4.22,1.2-7.65a13.88,13.88,0,0,0-6.73-14.09"/><path class="cls-4" d="M218.46,204.6l-9.47,7-7-9.5a13.83,13.83,0,0,0-7.21,10.13l-1.21,7.66,27.47,4.22,1.2-7.65A13.8,13.8,0,0,0,218.46,204.6Z"/><path class="cls-2" d="M221.6,224.75l-28.66-4.41,1.27-8.24a14.43,14.43,0,0,1,11.12-11.91l.27,1.2a13.2,13.2,0,0,0-10.18,10.93l-1.08,7.05,26.25,4,1.09-7.06a13.24,13.24,0,0,0-6.43-13.47l.61-1.06a14.44,14.44,0,0,1,7,14.73Z"/><path class="cls-2" d="M212.11,203.63a10.94,10.94,0,0,1-1.62-.12h0l-.53-.09A10.7,10.7,0,0,1,201,191.23l.5-3.29A10.69,10.69,0,0,1,213.71,179l.54.09a10.68,10.68,0,0,1,8.95,12.17l-.5,3.31A10.72,10.72,0,0,1,212.11,203.63Zm-1.44-1.33a9.47,9.47,0,0,0,10.81-7.92l.51-3.29a9.48,9.48,0,0,0-7.9-10.82h0l-.54-.08a9.48,9.48,0,0,0-10.77,8h0l-.5,3.3a9.47,9.47,0,0,0,7.9,10.82h.5Z"/><path class="cls-2" d="M203.13,186.13s5.64-.09,6.71-7.09C209.84,179,204.17,179.38,203.13,186.13Z"/><path class="cls-2" d="M222.31,192.83S208,184.7,209.84,179C209.84,179,225.1,179,222.31,192.83Z"/><path class="cls-1" d="M294.47,134.29l24.87-9.95h17.84c10.37,0,15.35,6.18,15.35,6.18l12.66,32.2L384.49,182,362.7,203.79"/><path class="cls-7" d="M362.73,205a1.21,1.21,0,0,1-.85-2.05L382.83,182l-18.45-18.44a1.42,1.42,0,0,1-.28-.41l-12.58-32c-.77-.87-5.37-5.62-14.31-5.62H319.6l-24.68,9.87a1.21,1.21,0,1,1-.89-2.24h0l24.9-9.95a1.11,1.11,0,0,1,.44-.08h17.84c10.81,0,16.08,6.36,16.29,6.63a1,1,0,0,1,.18.32L366.21,162l19.23,19.11a1.2,1.2,0,0,1,.34.86,1.18,1.18,0,0,1-.34.85l-21.79,21.78A1.21,1.21,0,0,1,362.73,205Z"/><polygon class="cls-1" points="262.35 130.36 282.38 145.79 287.48 127.49 262.35 130.36"/><path class="cls-7" d="M282.38,146.4a.63.63,0,0,1-.37-.12l-20-15.45a.56.56,0,0,1-.22-.64.59.59,0,0,1,.51-.43l25.13-2.86a.56.56,0,0,1,.52.21.58.58,0,0,1,.12.55L283,146a.67.67,0,0,1-.4.42Zm-18.49-15.63,18.19,14,4.63-16.58Z"/><rect class="cls-4" x="319.09" y="102.42" width="20.01" height="93.18" transform="translate(97.27 426.06) rotate(-74.44)"/><polygon class="cls-7" points="273.31 128.9 271.02 137.18 262.89 130.71 273.31 128.9"/><polygon class="cls-1" points="371.01 155.45 289.99 132.9 288.74 137.39 287.58 137.08 289.16 131.41 289.74 131.58 371.33 154.29 371.01 155.45"/><polygon class="cls-1" points="368.86 162.47 288.38 140.06 287.08 144.75 285.93 144.42 287.55 138.58 288.13 138.75 369.19 161.31 368.86 162.47"/><path class="cls-1" d="M360.45,199.43l-12-12H326l-28.22-41.1s13.7-7.88,19.92,0a137.75,137.75,0,0,0,15.35,15.77"/><path class="cls-7" d="M360.45,200.64a1.23,1.23,0,0,1-.84-.35l-11.69-11.68H326a1.24,1.24,0,0,1-1-.53L296.8,147a1.2,1.2,0,0,1,.39-1.72c.6-.35,14.67-8.31,21.46.29a135.93,135.93,0,0,0,15.2,15.62,1.21,1.21,0,1,1-1.57,1.83,139.94,139.94,0,0,1-15.52-15.94c-4.53-5.73-13.92-1.9-17.2-.3l27.08,39.44h21.78a1.16,1.16,0,0,1,.85.34l12,12a1.2,1.2,0,0,1,0,1.7,1.22,1.22,0,0,1-.86.36Z"/><polyline class="cls-1" points="346.14 204.09 380.01 170.22 404.99 195.19 357.47 215.42 346.14 204.09"/><path class="cls-7" d="M357.47,216a.58.58,0,0,1-.43-.18L345.7,204.51a.62.62,0,0,1,0-.84l33.88-33.87a.6.6,0,0,1,.85,0h0l25,24.95a.55.55,0,0,1,.16.54.61.61,0,0,1-.35.43L357.7,216A.88.88,0,0,1,357.47,216ZM347,204.09,357.6,214.7,403.94,195,380,171.07Z"/><polygon class="cls-2" points="434.71 218.42 354.14 218.57 348.71 213.15 389.08 172.79 434.71 218.42"/><rect class="cls-8" width="598" height="296"/></svg>