<svg id="圖層_1" data-name="圖層 1" xmlns="http://www.w3.org/2000/svg" viewBox="0 0 230 200"><defs><style>.cls-1{fill:#fff;}.cls-2{fill:#424242;}.cls-3{isolation:isolate;}.cls-4{fill:#525252;}.cls-5{fill:#e0e0e0;}.cls-6{fill:#f4f4f4;}.cls-7{fill:#f8f8f8;}.cls-8{fill:#ffda6a;}</style></defs><title>14</title><g id="Group_8331" data-name="Group 8331"><g id="Path_2863-5" data-name="Path 2863-5"><path class="cls-1" d="M84.73,99.11h60.6L165,113.59H65.12Z"/></g><g id="Rectangle_1408" data-name="Rectangle 1408"><polyline class="cls-1" points="164.88 113.65 164.88 199 65.05 199 65.05 113.65"/><path class="cls-2" d="M164.88,200H65.05a1,1,0,0,1-1-1V113.65a1,1,0,0,1,2,0V198h97.83V113.65a1,1,0,1,1,2,0V199A1,1,0,0,1,164.88,200Z"/></g><g id="Path_2863-6" data-name="Path 2863-6"><path class="cls-1" d="M100.07,103H130l7.85,6.62H92.21Z"/><path class="cls-2" d="M137.85,110.12H92.21a.45.45,0,0,1-.43-.3.47.47,0,0,1,.13-.52l7.86-6.62a.46.46,0,0,1,.3-.11H130a.48.48,0,0,1,.3.11l7.85,6.62a.46.46,0,0,1-.3.82Zm-44.37-.92h43.1l-6.75-5.7H100.24Z"/></g><g id="Path_2801" data-name="Path 2801"><g id="Path_2863" data-name="Path 2863"><path class="cls-2" d="M164.94,114.59a1,1,0,0,1-.59-.19L145,100.11H85.06L65.71,114.4a1,1,0,0,1-1.18-1.61L84.14,98.3a1,1,0,0,1,.59-.19h60.6a1,1,0,0,1,.6.19l19.61,14.49a1,1,0,0,1,.21,1.4A1,1,0,0,1,164.94,114.59Z"/></g></g><g id="Rectangle_1408-2" data-name="Rectangle 1408"><path class="cls-2" d="M159.18,114.15h-18.5a.5.5,0,0,1-.5-.5.5.5,0,0,1,.5-.5h18.5a.51.51,0,0,1,.5.5A.5.5,0,0,1,159.18,114.15Z"/></g><g id="Rectangle_1408-3" data-name="Rectangle 1408"><path class="cls-2" d="M137.23,114.15H69a.5.5,0,0,1-.5-.5.51.51,0,0,1,.5-.5h68.23a.5.5,0,0,1,.5.5A.5.5,0,0,1,137.23,114.15Z"/></g></g><g id="投票_開票" data-name="投票 開票"><g class="cls-3"><path class="cls-2" d="M70.31,158a1.51,1.51,0,0,1-.25-1v-2.94a1.76,1.76,0,0,1,.25-1.16,1.51,1.51,0,0,1,1-.25h9.2v-2H73.28a1.27,1.27,0,0,1-1-.31,1.54,1.54,0,0,1-.28-1v-2.94a1.68,1.68,0,0,1,.28-1.16,1.4,1.4,0,0,1,1-.28h7.26v-1.81a.92.92,0,0,1,.29-.72,1,1,0,0,1,.72-.22h4.38a1.26,1.26,0,0,1,.78.22.93.93,0,0,1,.31.72v1.81h7.23a1.38,1.38,0,0,1,1,.28,2,2,0,0,1,.32,1.16v2.94a1.6,1.6,0,0,1-.28,1,1.41,1.41,0,0,1-1.07.31H87v2h9.17a1.58,1.58,0,0,1,1.07.25,2.27,2.27,0,0,1,.28,1.16V157a1.51,1.51,0,0,1-.25,1,1.45,1.45,0,0,1-1.1.32H85.74l-5.32,6.29h6.73l-1.69-2c-.25-.46-.28-.81-.13-1a1.27,1.27,0,0,1,1-.28h4.48a1.2,1.2,0,0,1,.91.28l.93,1,4.79,5.7a.7.7,0,0,1,.07.94,1.17,1.17,0,0,1-.91.37H71a1.17,1.17,0,0,1-.91-.37c-.22-.28-.22-.56.07-.94l8.35-10h-7.2A1.31,1.31,0,0,1,70.31,158Z"/><path class="cls-2" d="M101.36,151.47a1.36,1.36,0,0,1-.28-1V149a1.68,1.68,0,0,1,.28-1.16,1.36,1.36,0,0,1,1-.28H104v-4a1.54,1.54,0,0,1,.22-1,1.86,1.86,0,0,1,1-.22h2.69a1.67,1.67,0,0,1,1,.25,1.36,1.36,0,0,1,.28,1v4H110a1.53,1.53,0,0,1,1.06.28,1.68,1.68,0,0,1,.28,1.16v1.5a1.11,1.11,0,0,1-1.34,1.29h-.75v1.69l.84-.38c.5-.12.85-.09,1,.16a1.91,1.91,0,0,1,.19,1.06v3.1a1.34,1.34,0,0,1-.25.94,8.1,8.1,0,0,1-1,.53l-.75.31v9.42a1,1,0,0,1-.28.79,1.71,1.71,0,0,1-1,.21h-4.66a1.63,1.63,0,0,1-1-.21,1,1,0,0,1-.28-.79v-2.88a1.28,1.28,0,0,1,.28-1,1.59,1.59,0,0,1,1-.25h.12a.57.57,0,0,0,.63-.65v-2.54l-1.72.75a.74.74,0,0,1-.88-.09,1.45,1.45,0,0,1-.31-1.13V158a1.22,1.22,0,0,1,.22-.94,7.36,7.36,0,0,1,1.06-.65l1.63-.72v-3.85h-1.66A1.2,1.2,0,0,1,101.36,151.47Zm25.79,3.26a1.33,1.33,0,0,1,.87.4,1.49,1.49,0,0,1,.44.85v2.57a6.77,6.77,0,0,1-.87,2.66,8.35,8.35,0,0,1-2.32,2.66c.81.15,1.66.34,2.54.56a2.05,2.05,0,0,1,.93.34,1,1,0,0,1,.38.82v3a1,1,0,0,1-.38.82,1.72,1.72,0,0,1-.93.31,59.86,59.86,0,0,1-7.73-2.54c-.82.44-1.63.82-2.45,1.16a13.53,13.53,0,0,1-4.75,1.38,1.56,1.56,0,0,1-.91-.31,1.08,1.08,0,0,1-.34-.82v-3a1.08,1.08,0,0,1,.34-.82,1.82,1.82,0,0,1,.91-.34c.59-.06,1.22-.19,1.84-.31a5.33,5.33,0,0,1-.78-.82,4.39,4.39,0,0,1-1.25-2c0-.35.06-.56.25-.69a1.29,1.29,0,0,1,.78-.19h2.54a1.54,1.54,0,0,1,.81.19,5.27,5.27,0,0,1,.75.59,9.6,9.6,0,0,0,2.22,1.35c1.88-.75,3-1.69,3.48-2.78h-9.83a1.35,1.35,0,0,1-.91-.32,1,1,0,0,1-.37-.81V156a1.13,1.13,0,0,1,.37-.85,1.43,1.43,0,0,1,.91-.4Zm-13.3-.85a1.83,1.83,0,0,1-1.13-.25.86.86,0,0,1-.31-.78V150a1.24,1.24,0,0,1,.31-1,1.83,1.83,0,0,1,1.13-.25.58.58,0,0,0,.65-.66v-4.41a1.51,1.51,0,0,1,.35-1.16,1.62,1.62,0,0,1,1.09-.28h8.92a1.74,1.74,0,0,1,1.19.28,1.68,1.68,0,0,1,.28,1.16v4.41a.61.61,0,0,0,.69.66,2,2,0,0,1,1.16.25,1.35,1.35,0,0,1,.31,1v2.85a.93.93,0,0,1-.31.78,2,2,0,0,1-1.16.25h-3.35a1.91,1.91,0,0,1-1.15-.25.93.93,0,0,1-.29-.78v-5.54h-3.56v5.54a.86.86,0,0,1-.32.78,1.84,1.84,0,0,1-1.15.25Z"/><path class="cls-2" d="M132.82,162.52a1.55,1.55,0,0,1-.25-1v-.75a1.9,1.9,0,0,1,.25-1.16,1.44,1.44,0,0,1,1-.28h25a1.57,1.57,0,0,1,1.09.28,1.9,1.9,0,0,1,.25,1.16v.75a1.55,1.55,0,0,1-.25,1,1.42,1.42,0,0,1-1.09.35h-9.64v5.72a1,1,0,0,1-.25.72,1.1,1.1,0,0,1-.72.25h-3.66a1.2,1.2,0,0,1-.76-.25.83.83,0,0,1-.31-.72v-5.72h-9.7A1.31,1.31,0,0,1,132.82,162.52Zm.06-17.46a1.73,1.73,0,0,1-.25-1v-.5a1.92,1.92,0,0,1,.25-1.16,1.46,1.46,0,0,1,1-.25h24.88a1.58,1.58,0,0,1,1.07.25,1.79,1.79,0,0,1,.25,1.16v.5a1.59,1.59,0,0,1-.25,1,1.41,1.41,0,0,1-1.07.31h-6.07v1h6.07a1.56,1.56,0,0,1,1.07.29,1.72,1.72,0,0,1,.25,1.15v4.79a1.48,1.48,0,0,1-.25,1,1.41,1.41,0,0,1-1.07.35H133.91a1.31,1.31,0,0,1-1-.35,1.61,1.61,0,0,1-.25-1v-4.79a1.84,1.84,0,0,1,.25-1.15,1.44,1.44,0,0,1,1-.29H140v-1h-6.07A1.31,1.31,0,0,1,132.88,145.06Zm8.2,18.52a1.34,1.34,0,0,1,.78.35,1.14,1.14,0,0,1,.35.81v1.44a3.34,3.34,0,0,1-.88,2.51,4.29,4.29,0,0,1-2.91.93h-4.23a1.22,1.22,0,0,1-.87-.34,1.07,1.07,0,0,1-.35-.78v-1.19a1.07,1.07,0,0,1,.35-.78,1.55,1.55,0,0,1,.87-.35h2.07a1.07,1.07,0,0,0,.88-.34,1.17,1.17,0,0,0,.34-.88v-.22a1.17,1.17,0,0,1,.34-.81,1.56,1.56,0,0,1,.82-.35ZM134.29,158a1.51,1.51,0,0,1-.28-1v-.72a1.63,1.63,0,0,1,.28-1.16,1.49,1.49,0,0,1,1-.28h22.13a1.59,1.59,0,0,1,1.06.28,1.63,1.63,0,0,1,.28,1.16V157a1.51,1.51,0,0,1-.28,1,1.39,1.39,0,0,1-1.06.32H135.32A1.31,1.31,0,0,1,134.29,158Zm3.72-7.32h2v-1h-2Zm7.39-5.32v1h1.91v-1Zm0,4.29v1h1.91v-1ZM155,163.93a1.17,1.17,0,0,1,.34.81V165a1.17,1.17,0,0,0,.34.88,1.12,1.12,0,0,0,.88.34h2.06a1.55,1.55,0,0,1,.88.35,1.07,1.07,0,0,1,.35.78v1.19a1.07,1.07,0,0,1-.35.78,1.22,1.22,0,0,1-.88.34h-4.22a4.29,4.29,0,0,1-2.91-.93,3.3,3.3,0,0,1-.88-2.51v-1.44a1.14,1.14,0,0,1,.35-.81,1.34,1.34,0,0,1,.78-.35h2.44A1.56,1.56,0,0,1,155,163.93Zm-.26-14.27h-2v1h2Z"/></g></g><path class="cls-1" d="M160.32,8.66h-7.93a1.93,1.93,0,0,0-.82.19l-11.4,5.32L132.78,24a1.76,1.76,0,0,0,.49,2.55l0,0a3.56,3.56,0,0,0,4.64-.82l5.84-7.33L152.72,14"/><path class="cls-4" d="M135.16,27.62a4,4,0,0,1-2.11-.59A2.28,2.28,0,0,1,132,25.51a2.24,2.24,0,0,1,.41-1.77l7.39-9.87a.7.7,0,0,1,.19-.15l11.39-5.33a2.5,2.5,0,0,1,1-.23h7.93a.5.5,0,0,1,.5.5.5.5,0,0,1-.5.5h-7.93a1.43,1.43,0,0,0-.61.14L140.5,14.58l-7.32,9.75a1.26,1.26,0,0,0,.35,1.83,3.09,3.09,0,0,0,4-.69l5.83-7.33a.75.75,0,0,1,.17-.14l8.94-4.46a.5.5,0,1,1,.44.89l-8.83,4.42-5.77,7.24A4,4,0,0,1,135.16,27.62Z"/><path class="cls-1" d="M158.2,6.81,139.57,18.86l-4.94,15.37a1.58,1.58,0,0,0,1.08,2l1,.28a3.74,3.74,0,0,0,4.63-2.58l3.43-12.18"/><path class="cls-4" d="M137.72,37.17a4,4,0,0,1-1.17-.17l-1-.28a2.06,2.06,0,0,1-1.27-1,2,2,0,0,1-.14-1.62l4.94-15.37a.5.5,0,0,1,.2-.27l18.62-12a.52.52,0,0,1,.7.15.5.5,0,0,1-.15.69L140,19.18l-4.89,15.2a1.09,1.09,0,0,0,.07.85,1.08,1.08,0,0,0,.67.53l1,.28a3.23,3.23,0,0,0,2.47-.28,3.29,3.29,0,0,0,1.54-2l3.43-12.17a.5.5,0,0,1,.61-.35.51.51,0,0,1,.35.62L141.8,34.08a4.26,4.26,0,0,1-4.08,3.09Z"/><path class="cls-1" d="M216.25,5.93H161.94A8.4,8.4,0,0,0,156,8.39L143.17,21.23V40.42A1.81,1.81,0,0,0,145,42.23h1a3.76,3.76,0,0,0,3.77-3.76V27.41L157,20.09h3.09a3.47,3.47,0,0,1,3.47,3.47v9.93l-6.6,6.6a3.62,3.62,0,0,0,0,5.13h0a3.62,3.62,0,0,0,5.13,0l9.07-9.07L182.36,25h33.89"/><path class="cls-4" d="M159.57,46.78a4.12,4.12,0,0,1-2.92-7l6.45-6.46V23.56a3,3,0,0,0-3-3h-2.88l-7,7V38.47A4.27,4.27,0,0,1,146,42.73h-1a2.3,2.3,0,0,1-2.31-2.31V21.23a.5.5,0,0,1,.14-.35L155.66,8a8.86,8.86,0,0,1,6.28-2.6h54.31a.51.51,0,0,1,.5.5.5.5,0,0,1-.5.5H161.94a7.81,7.81,0,0,0-5.57,2.31l-12.7,12.7v19A1.31,1.31,0,0,0,145,41.73h1a3.27,3.27,0,0,0,3.27-3.26V27.41a.5.5,0,0,1,.14-.35l7.32-7.32a.51.51,0,0,1,.35-.15h3.09a4,4,0,0,1,4,4v9.93a.47.47,0,0,1-.15.35l-6.6,6.6a3.13,3.13,0,1,0,4.43,4.43L182,24.64a.47.47,0,0,1,.35-.15h33.89a.5.5,0,0,1,0,1H182.57L162.49,45.58A4.15,4.15,0,0,1,159.57,46.78Z"/><rect class="cls-5" x="124.9" y="25.09" width="36.53" height="54.5" transform="translate(78.94 -85.91) rotate(45)"/><rect class="cls-6" x="141.7" y="35.66" width="26.2" height="11.39" transform="translate(74.58 -97.35) rotate(45)"/><rect class="cls-6" x="130.27" y="46.8" width="26.2" height="11.39" transform="translate(79.12 -86) rotate(45)"/><rect class="cls-6" x="119.08" y="58.28" width="26.2" height="11.39" transform="translate(83.95 -74.73) rotate(45)"/><path class="cls-1" d="M160.28,20.16a3.42,3.42,0,0,1,3.43,3.43v9.82l-6.52,6.52a3.6,3.6,0,0,0,0,5.08h0a3.59,3.59,0,0,0,5.07,0l9-9,11-11h33.85"/><path class="cls-4" d="M159.72,46.56a4.09,4.09,0,0,1-2.89-7l6.38-6.38V23.59a2.93,2.93,0,0,0-2.93-2.93.5.5,0,0,1-.5-.5.5.5,0,0,1,.5-.5,3.93,3.93,0,0,1,3.93,3.93v9.82a.5.5,0,0,1-.14.35l-6.53,6.53a3.09,3.09,0,0,0,4.37,4.37l20-20a.47.47,0,0,1,.35-.15h33.85a.5.5,0,0,1,0,1H182.48L162.62,45.36A4.09,4.09,0,0,1,159.72,46.56Zm4-13.15h0Z"/><rect class="cls-1" x="185.33" y="2.37" width="33.24" height="28.37"/><path class="cls-2" d="M218.57,31.2H185.33a.46.46,0,0,1-.47-.46V2.37a.46.46,0,0,1,.47-.46h33.24a.45.45,0,0,1,.46.46V30.74A.45.45,0,0,1,218.57,31.2Zm-32.78-.93H218.1V2.84H185.79Z"/><rect class="cls-2" x="191.2" width="38.8" height="33.11"/><circle class="cls-7" cx="199.2" cy="27.99" r="2.75"/><circle class="cls-7" cx="206.98" cy="27.99" r="2.75"/><path class="cls-1" d="M70.74,29.76h7.93a2,2,0,0,1,.82.19l11.39,5.33,7.4,9.86a1.75,1.75,0,0,1-.49,2.54l0,0a3.55,3.55,0,0,1-4.64-.82l-5.84-7.33-8.93-4.46"/><path class="cls-4" d="M95.89,48.72a4,4,0,0,1-3.17-1.53L87,40l-8.83-4.42a.5.5,0,0,1-.23-.67.49.49,0,0,1,.67-.22L87.5,39.1a.54.54,0,0,1,.16.14l5.84,7.33a3.08,3.08,0,0,0,4,.71,1.3,1.3,0,0,0,.62-.86,1.26,1.26,0,0,0-.23-1l-7.32-9.76L79.28,30.4a1.43,1.43,0,0,0-.61-.14H70.74a.5.5,0,0,1-.5-.5.5.5,0,0,1,.5-.5h7.93a2.46,2.46,0,0,1,1,.23l11.4,5.33a.55.55,0,0,1,.18.16l7.4,9.86a2.24,2.24,0,0,1,.41,1.77,2.27,2.27,0,0,1-1,1.5A4.16,4.16,0,0,1,95.89,48.72Z"/><path class="cls-1" d="M72.86,27.91,91.48,40l5,15.37a1.59,1.59,0,0,1-1.08,2l-1,.28A3.74,3.74,0,0,1,89.74,55L86.31,42.87"/><path class="cls-4" d="M93.34,58.27a4.24,4.24,0,0,1-4.08-3.09L85.83,43a.5.5,0,1,1,1-.27L90.22,54.9a3.23,3.23,0,0,0,4,2.24l1-.28a1.11,1.11,0,0,0,.67-.53,1.09,1.09,0,0,0,.07-.85l-4.89-15.2-18.47-12a.5.5,0,0,1-.15-.69.52.52,0,0,1,.7-.15L91.76,39.54a.55.55,0,0,1,.2.27L96.9,55.18a2,2,0,0,1-.14,1.62,2.06,2.06,0,0,1-1.27,1l-1,.28A4,4,0,0,1,93.34,58.27Z"/><path class="cls-1" d="M14.81,27H69.12a8.42,8.42,0,0,1,5.93,2.46L87.89,42.33V61.52a1.81,1.81,0,0,1-1.81,1.81h-1a3.76,3.76,0,0,1-3.77-3.76V48.51L74,41.19H70.93a3.47,3.47,0,0,0-3.47,3.47v9.93l6.6,6.6a3.64,3.64,0,0,1,0,5.13h0a3.62,3.62,0,0,1-5.13,0l-9.07-9.07L48.7,46.09H14.81"/><path class="cls-4" d="M71.49,67.88a4.13,4.13,0,0,1-2.92-1.2L48.49,46.59H14.81a.5.5,0,0,1,0-1H48.7a.47.47,0,0,1,.35.15L69.28,66a3.13,3.13,0,0,0,4.42,0,3.13,3.13,0,0,0,0-4.43L67.11,55a.49.49,0,0,1-.15-.36V44.66a4,4,0,0,1,4-4H74a.51.51,0,0,1,.35.15l7.32,7.32a.5.5,0,0,1,.14.35V59.57a3.27,3.27,0,0,0,3.27,3.26h1a1.31,1.31,0,0,0,1.31-1.31v-19l-12.7-12.7a7.83,7.83,0,0,0-5.57-2.31H14.81a.5.5,0,0,1-.5-.5.51.51,0,0,1,.5-.5H69.12a8.86,8.86,0,0,1,6.28,2.6L88.24,42a.47.47,0,0,1,.15.35V61.52a2.31,2.31,0,0,1-2.31,2.31h-1a4.27,4.27,0,0,1-4.27-4.26V48.72l-7-7H70.93a3,3,0,0,0-3,3v9.73l6.45,6.45a4.12,4.12,0,0,1-2.92,7Z"/><rect class="cls-5" x="66.42" y="46.16" width="36.53" height="54.5" transform="translate(196.47 65.44) rotate(135)"/><rect class="cls-6" x="60.43" y="56.9" width="26.2" height="11.39" transform="translate(-22.73 70.33) rotate(-45)"/><rect class="cls-6" x="71.58" y="68.33" width="26.2" height="11.39" transform="translate(-27.55 81.56) rotate(-45)"/><rect class="cls-6" x="83.05" y="79.52" width="26.2" height="11.39" transform="translate(-32.1 92.95) rotate(-45)"/><path class="cls-1" d="M70.78,41.26a3.42,3.42,0,0,0-3.43,3.43v9.82L73.87,61a3.59,3.59,0,0,1,0,5.07h0a3.59,3.59,0,0,1-5.07,0l-9-9-11-11H14.94"/><path class="cls-4" d="M71.33,67.66a4,4,0,0,1-2.89-1.2L48.58,46.6H14.94a.5.5,0,1,1,0-1H48.79a.47.47,0,0,1,.35.15l20,20a3.09,3.09,0,0,0,4.37-4.37L67,54.86a.5.5,0,0,1-.14-.35V44.69a3.93,3.93,0,0,1,3.93-3.93.5.5,0,0,1,.5.5.51.51,0,0,1-.5.5,2.93,2.93,0,0,0-2.93,2.93V54.3l6.38,6.38a4.09,4.09,0,0,1-2.9,7Z"/><polyline class="cls-8" points="0.5 50.95 28.69 50.95 28.69 41.29 22.39 37.66 28.69 34.02 28.69 24.36 0.5 24.36"/><path class="cls-4" d="M0,24.36a.5.5,0,0,1,.5-.5H28.69a.5.5,0,0,1,.5.5V34a.5.5,0,0,1-.25.43l-5.55,3.2,5.55,3.21a.5.5,0,0,1,.25.43V51a.5.5,0,0,1-.5.5H.5A.5.5,0,0,1,0,51m1-.5H28.19V41.58l-6.05-3.49a.5.5,0,0,1,0-.87l6.05-3.49V24.86H1"/><polygon class="cls-8" points="28.69 34.31 16.09 31.12 16.09 17.76 28.69 20.94 28.69 34.31"/><path class="cls-4" d="M28.69,34.81h-.13L16,31.61a.51.51,0,0,1-.38-.49V17.76a.51.51,0,0,1,.19-.4.51.51,0,0,1,.43-.09l12.6,3.19a.49.49,0,0,1,.38.48V34.31a.49.49,0,0,1-.2.4A.54.54,0,0,1,28.69,34.81Zm-12.1-4.08,11.6,2.94V21.33L16.59,18.4Z"/><polygon class="cls-8" points="16.09 56.87 28.69 53.68 28.69 40.31 16.09 43.5 16.09 56.87"/><path class="cls-4" d="M16.09,57.36a.5.5,0,0,1-.31-.1.51.51,0,0,1-.19-.4V43.5A.51.51,0,0,1,16,43l12.59-3.18a.51.51,0,0,1,.63.48V53.68a.49.49,0,0,1-.38.48l-12.6,3.19Zm.5-13.47V56.22l11.6-2.93V41Z"/><rect class="cls-2" x="43.05" y="27.03" width="3.81" height="19.01"/></svg>