<svg id="圖層_1" data-name="圖層 1" xmlns="http://www.w3.org/2000/svg" viewBox="0 0 230 200"><defs><style>.cls-1{fill:#424242;}.cls-2{fill:#fff;}.cls-3{fill:#2caff5;}.cls-4{fill:#f4f4f4;}.cls-5{fill:#f8f8f8;}.cls-6{fill:#00ffa7;}.cls-7{fill:#ffda6a;}</style></defs><title>10</title><rect class="cls-1" x="66.04" y="68.62" width="97.92" height="118.4" rx="46.81"/><path class="cls-2" d="M145.34,40.66A8,8,0,0,0,139,32.88v-9.2A23.68,23.68,0,0,0,115.29,0h-3.13A23.68,23.68,0,0,0,88.48,23.68v9.21A7.93,7.93,0,0,0,88.8,48.5a23.69,23.69,0,0,0,11.74,16.74,16,16,0,0,0,2.36,1.44v2.67a10.56,10.56,0,0,0,21.12,0V66.68l.41-.23a23.67,23.67,0,0,0,14.21-18A8,8,0,0,0,145.34,40.66Z"/><path class="cls-1" d="M115.29,1A22.71,22.71,0,0,1,138,23.68v10l.8.17a6.93,6.93,0,0,1-.29,13.65l-.71.12-.11.71a22.85,22.85,0,0,1-13.61,17.19l0,0,0,0-.19.11-.19.11-.56.27v3.29a9.56,9.56,0,0,1-19.12,0V66.06l-.56-.27a16.49,16.49,0,0,1-2.21-1.36l0,0,0,0a22.55,22.55,0,0,1-11.25-16l-.12-.71L89,47.51a6.93,6.93,0,0,1-.28-13.64l.8-.16v-10A22.7,22.7,0,0,1,112.16,1h3.13m0-1h-3.13A23.68,23.68,0,0,0,88.48,23.68v9.21A7.93,7.93,0,0,0,88.8,48.5a23.69,23.69,0,0,0,11.74,16.74,16,16,0,0,0,2.36,1.44v2.67a10.56,10.56,0,0,0,21.12,0V66.68l.41-.23a23.67,23.67,0,0,0,14.21-18A7.94,7.94,0,0,0,139,32.88v-9.2A23.68,23.68,0,0,0,115.29,0Z"/><polyline class="cls-2" points="104.17 88.19 113.34 78.75 123.22 88.19 113.93 112.64"/><polygon class="cls-3" points="116.16 91.02 110.76 91.02 107.75 79.65 119.17 79.65 116.16 91.02"/><polygon class="cls-3" points="110.76 91.02 116.16 91.02 120.26 109.57 113.49 114.77 106.65 109.64 110.76 91.02"/><path class="cls-2" d="M114.17,79.17a1,1,0,0,0,0,1.41l6,6a1,1,0,0,0,1.42,0l9.45-9.42a1,1,0,0,0,0-1.41l-6-6a1,1,0,0,0-1.42,0Z"/><path class="cls-1" d="M120.93,87.27a1.36,1.36,0,0,1-1-.4l-6.06-6a1.41,1.41,0,0,1-.4-1,1.38,1.38,0,0,1,.4-1h0l9.46-9.41a1.38,1.38,0,0,1,2,0l6.05,6a1.39,1.39,0,0,1,0,1.95l-9.46,9.41A1.35,1.35,0,0,1,120.93,87.27Zm-6.5-7.84a.67.67,0,0,0-.18.44.63.63,0,0,0,.18.44l6.06,6a.61.61,0,0,0,.88,0l9.46-9.41a.62.62,0,0,0,.18-.44.59.59,0,0,0-.18-.44l-6.05-6a.63.63,0,0,0-.89,0Z"/><path class="cls-1" d="M126.64,70.6l13,12.93a1,1,0,0,1,0,1.41L128.55,96a1,1,0,0,0,0,1.41l5.52,5.49a.69.69,0,0,1-.18,1.17l-20.4,10.73"/><path class="cls-2" d="M113,79.17a1,1,0,0,1,0,1.41l-6,6a1,1,0,0,1-1.42,0l-9.46-9.42a1,1,0,0,1,0-1.41l6.06-6a1,1,0,0,1,1.41,0Z"/><path class="cls-1" d="M106.23,87.27a1.37,1.37,0,0,1-1-.4L95.8,77.46a1.39,1.39,0,0,1,0-1.95l6-6a1.38,1.38,0,0,1,2,0l9.45,9.41h0a1.36,1.36,0,0,1,0,1.95l-6,6A1.36,1.36,0,0,1,106.23,87.27Zm-3.41-17.43a.62.62,0,0,0-.44.18l-6,6a.59.59,0,0,0-.18.44.62.62,0,0,0,.18.44l9.45,9.41a.62.62,0,0,0,.89,0l6-6a.6.6,0,0,0,.19-.44.63.63,0,0,0-.19-.44L103.27,70A.63.63,0,0,0,102.82,69.84Z"/><path class="cls-1" d="M100.31,70.76l-13,12.93a1,1,0,0,0,0,1.41l11.06,11a1,1,0,0,1,0,1.41L92.88,103a.69.69,0,0,0,.18,1.17l20.4,10.73"/><path class="cls-1" d="M128.79,97.61l5.28,5.25a.87.87,0,0,1-.08,1.33l-20.29,16"/><path class="cls-2" d="M113.7,120.41a.25.25,0,0,1-.16-.44l20.3-16a.61.61,0,0,0,0-.95l-5.28-5.26a.26.26,0,0,1,0-.35.25.25,0,0,1,.36,0l5.27,5.26a1.13,1.13,0,0,1,.35.87,1.14,1.14,0,0,1-.44.82l-20.3,16A.21.21,0,0,1,113.7,120.41Z"/><path class="cls-1" d="M128.21,72.17l11.41,11.36a1,1,0,0,1,0,1.41L127.85,96.67"/><path class="cls-2" d="M127.85,96.92a.25.25,0,0,1-.18-.08.24.24,0,0,1,0-.35l11.78-11.73a.77.77,0,0,0,0-1.06L128,72.34a.25.25,0,1,1,.35-.35L139.8,83.35a1.25,1.25,0,0,1,.36.88,1.27,1.27,0,0,1-.36.89L128,96.84A.25.25,0,0,1,127.85,96.92Z"/><path class="cls-1" d="M98.32,97.61,92.88,103a.91.91,0,0,0,.05,1.36l18.39,15.78"/><path class="cls-2" d="M111.32,120.41a.22.22,0,0,1-.16-.06L92.77,104.57a1.15,1.15,0,0,1-.42-.85,1.18,1.18,0,0,1,.35-.87l5.44-5.42a.25.25,0,0,1,.35.35l-5.43,5.42a.7.7,0,0,0-.21.5.68.68,0,0,0,.24.49L111.49,120a.25.25,0,0,1,0,.35A.24.24,0,0,1,111.32,120.41Z"/><path class="cls-1" d="M98.38,72.68l-11,11a1,1,0,0,0,0,1.41L99.1,96.82"/><path class="cls-2" d="M99.1,97.07a.23.23,0,0,1-.17-.07L87.15,85.27a1.2,1.2,0,0,1-.37-.88,1.22,1.22,0,0,1,.37-.88l11-11a.25.25,0,0,1,.36,0,.24.24,0,0,1,0,.35l-11.06,11a.75.75,0,0,0,0,1.06L99.28,96.65a.25.25,0,0,1-.18.42Z"/><path class="cls-1" d="M88.78,33.79h0a2.88,2.88,0,0,0,2.88-2.88s.07-4.19.07-11.07,2-9.71,2-9.71-4.9,6.44-4.9,14.06Z"/><path class="cls-1" d="M138.64,33.79h0a2.88,2.88,0,0,1-2.88-2.88s-.07-4.19-.07-11.07-2-9.71-2-9.71,4.91,6.44,4.91,14.06Z"/><polyline class="cls-4" points="222.74 174.97 170.12 135.91 170.12 174.97"/><path class="cls-1" d="M222.74,175.48a.46.46,0,0,1-.29-.1l-51.84-38.47V175a.5.5,0,1,1-1,0V135.91a.5.5,0,0,1,.27-.45.49.49,0,0,1,.52,0L223,174.56a.52.52,0,0,1,.11.71A.49.49,0,0,1,222.74,175.48Z"/><polygon class="cls-4" points="59.22 135.83 59.22 174.89 6.59 174.89 59.22 135.83"/><path class="cls-1" d="M59.22,175.4H6.59a.5.5,0,0,1-.48-.35.53.53,0,0,1,.18-.57l52.63-39.06a.51.51,0,0,1,.52,0,.5.5,0,0,1,.27.45v39.06A.5.5,0,0,1,59.22,175.4Zm-51.11-1H58.72V136.83Z"/><polygon class="cls-2" points="229.45 169.68 224.29 165.82 221.59 163.71 221.48 163.71 184.36 135.91 170.69 135.91 207.81 163.71 21.98 163.71 59.2 135.83 45.54 135.83 0.45 169.6 0.67 169.6 0.45 169.75 229.35 169.75 229.25 169.68 229.45 169.68"/><path class="cls-1" d="M229.35,170.26H.45A.5.5,0,0,1,0,169.9a.41.41,0,0,1,0-.22.51.51,0,0,1,.19-.49l45.09-33.76a.47.47,0,0,1,.3-.1H59.21a.5.5,0,0,1,.47.35.51.51,0,0,1-.18.56l-36,27H206.3l-35.9-26.89a.51.51,0,0,1-.18-.56.5.5,0,0,1,.47-.35h13.67a.43.43,0,0,1,.29.1l37,27.7a.43.43,0,0,1,.24.1l2.7,2.1,5.16,3.86a.51.51,0,0,1,.17.57.5.5,0,0,1-.24.29A.51.51,0,0,1,229.35,170.26Zm-227.59-1H228l-4-3-2.59-2a.5.5,0,0,1-.23-.09l-37-27.7h-12l35.9,26.88a.53.53,0,0,1,.18.57.5.5,0,0,1-.48.35H22a.5.5,0,0,1-.48-.35.53.53,0,0,1,.18-.57l36-27h-12Z"/><rect class="cls-5" x="0.5" y="169.75" width="228.9" height="29.74"/><path class="cls-1" d="M229.4,200H.5a.5.5,0,0,1-.5-.51V169.75a.5.5,0,0,1,.5-.5H229.4a.5.5,0,0,1,.5.5v29.74A.5.5,0,0,1,229.4,200ZM1,199H228.9V170.26H1Z"/><path class="cls-1" d="M180,152.72h-3V113.9A47.07,47.07,0,0,0,163.5,80.69L152.26,69.26l2.11-2.15,11.24,11.43A50.09,50.09,0,0,1,180,113.9Z"/><path class="cls-1" d="M156.24,65.5a3.89,3.89,0,0,0-5.56,0,4,4,0,0,0,0,5.65,3.87,3.87,0,0,0,5.56,0A4.05,4.05,0,0,0,156.24,65.5Z"/><path class="cls-1" d="M52.3,152.72h-3V113.9A50.09,50.09,0,0,1,63.72,78.54L75,67.11l2.11,2.15L65.83,80.69A47.07,47.07,0,0,0,52.3,113.9Z"/><path class="cls-1" d="M78.65,71.15a4,4,0,0,0,0-5.65,3.89,3.89,0,0,0-5.56,0,4.05,4.05,0,0,0,0,5.65A3.87,3.87,0,0,0,78.65,71.15Z"/><path class="cls-6" d="M127.88,122.72a10.52,10.52,0,0,0-10.06,7.59,7.33,7.33,0,0,0-3.57-.93,7.41,7.41,0,0,0-6.51,3.9,13.43,13.43,0,0,0-25.45,4,10.4,10.4,0,0,0-7.27-3A10.56,10.56,0,0,0,64.56,144h0a7.39,7.39,0,0,0-5.89,3,12.09,12.09,0,0,0-1.21-.07,10.53,10.53,0,0,0-10.11,7.77,10.41,10.41,0,0,0-4-.8A10.54,10.54,0,0,0,32.9,163.2H197a10.52,10.52,0,0,0-10.08-7.68h-.2a7.34,7.34,0,0,0-10.38-.95,8.84,8.84,0,0,0-8.72-7.72,8.67,8.67,0,0,0-2.29.31c0-.1,0-.21,0-.31a12.5,12.5,0,0,0-12.42-12.58,12.13,12.13,0,0,0-4.28.78,7.4,7.4,0,0,0-5.72-2.72,7.31,7.31,0,0,0-4.57,1.6c0-.2,0-.39,0-.59A10.56,10.56,0,0,0,127.88,122.72Z"/><ellipse class="cls-7" cx="68.85" cy="143.43" rx="4.92" ry="4.98"/><ellipse class="cls-7" cx="100.24" cy="155.36" rx="4.92" ry="4.98"/><ellipse class="cls-7" cx="131.1" cy="135.83" rx="4.92" ry="4.98"/><ellipse class="cls-7" cx="145.74" cy="152.72" rx="4.92" ry="4.98"/><ellipse class="cls-7" cx="159.69" cy="143.43" rx="4.92" ry="4.98"/></svg>