<svg id="圖層_1" data-name="圖層 1" xmlns="http://www.w3.org/2000/svg" viewBox="0 0 599 297"><defs><style>.cls-1{fill:#424242;}.cls-2{fill:#fff;}.cls-3{fill:#2caff5;}.cls-4{fill:#f4f4f4;}.cls-5{fill:#f8f8f8;}.cls-6{fill:#00ffa7;}.cls-7{fill:#ffda6a;}</style></defs><title>10</title><rect class="cls-1" x="240.62" y="110.73" width="117.84" height="142.49" rx="56.33"/><path class="cls-2" d="M336.05,77.08a9.62,9.62,0,0,0-7.63-9.36V56.65a28.5,28.5,0,0,0-28.49-28.5h-3.81a28.49,28.49,0,0,0-28.49,28.5V67.73A9.55,9.55,0,0,0,268,86.52a28.54,28.54,0,0,0,14.13,20.15A19.92,19.92,0,0,0,285,108.4v3.21a12.71,12.71,0,1,0,25.42,0V108.4l.49-.28A28.49,28.49,0,0,0,328,86.46,9.63,9.63,0,0,0,336.05,77.08Z"/><path class="cls-1" d="M299.89,29.35a27.34,27.34,0,0,1,27.33,27.3v12l1,.21a8.34,8.34,0,0,1-.35,16.43l-.85.14-.13.86A27.51,27.51,0,0,1,310.47,107h0l-.23.14-.23.13-.67.32v4a11.51,11.51,0,1,1-23,0v-3.9l-.68-.32a20.23,20.23,0,0,1-2.66-1.64h0a27.1,27.1,0,0,1-13.53-19.25l-.15-.86-1.06-.25a8.34,8.34,0,0,1-.34-16.42l1-.19v-12a27.32,27.32,0,0,1,27.24-27.34h3.77m0-1.2h-3.77a28.49,28.49,0,0,0-28.49,28.5V67.73A9.55,9.55,0,0,0,268,86.52a28.54,28.54,0,0,0,14.13,20.15A19.92,19.92,0,0,0,285,108.4v3.21a12.71,12.71,0,1,0,25.42,0V108.4l.49-.28A28.49,28.49,0,0,0,328,86.46a9.56,9.56,0,0,0,.43-18.74V56.65a28.5,28.5,0,0,0-28.49-28.5Z"/><polyline class="cls-2" points="286.51 134.29 297.54 122.93 309.43 134.29 298.25 163.71"/><polygon class="cls-3" points="300.94 137.69 294.44 137.69 290.82 124.01 304.56 124.01 300.94 137.69"/><polygon class="cls-3" points="294.44 137.69 300.94 137.69 305.87 160.02 297.72 166.28 289.49 160.1 294.44 137.69"/><path class="cls-2" d="M298.54,123.43a1.2,1.2,0,0,0,0,1.7l7.22,7.22a1.21,1.21,0,0,0,1.7,0h0L318.84,121a1.19,1.19,0,0,0,0-1.69l-7.22-7.23a1.2,1.2,0,0,0-1.7,0h0Z"/><path class="cls-1" d="M306.68,133.18a1.66,1.66,0,0,1-1.21-.48l-7.29-7.22a1.7,1.7,0,0,1-.48-1.21,1.64,1.64,0,0,1,.48-1.2h0l11.38-11.32a1.65,1.65,0,0,1,2.35-.06l.06.06,7.28,7.22a1.67,1.67,0,0,1,0,2.34l-11.38,11.33A1.66,1.66,0,0,1,306.68,133.18Zm-7.83-9.44a.82.82,0,0,0-.21.53.78.78,0,0,0,.21.53l7.3,7.22a.72.72,0,0,0,1,0l0,0,11.38-11.32a.75.75,0,0,0,0-1.06l-7.28-7.22a.75.75,0,0,0-1.07,0Z"/><path class="cls-1" d="M313.55,113.12l15.64,15.56a1.2,1.2,0,0,1,0,1.7l-13.34,13.31a1.19,1.19,0,0,0,0,1.69l6.64,6.61a.84.84,0,0,1,.11,1.17.88.88,0,0,1-.33.24l-24.55,12.91"/><path class="cls-2" d="M297.13,123.43a1.2,1.2,0,0,1,0,1.7l-7.22,7.22a1.21,1.21,0,0,1-1.7,0h0L276.82,121a1.19,1.19,0,0,1,0-1.69l7.29-7.23a1.22,1.22,0,0,1,1.7,0Z"/><path class="cls-1" d="M289,133.18a1.66,1.66,0,0,1-1.21-.48l-11.35-11.33a1.67,1.67,0,0,1,0-2.34l7.23-7.22a1.64,1.64,0,0,1,2.34-.06l.06.06,11.37,11.32h0a1.63,1.63,0,0,1,0,2.31l0,0-7.22,7.22A1.64,1.64,0,0,1,289,133.18Zm-4.11-21a.75.75,0,0,0-.53.22l-7.22,7.22a.7.7,0,0,0-.21.53.74.74,0,0,0,.21.53L288.51,132a.73.73,0,0,0,1.05,0l0,0,7.22-7.22a.74.74,0,0,0,.23-.53.8.8,0,0,0-.23-.53L285.42,112.4A.71.71,0,0,0,284.88,112.2Z"/><path class="cls-1" d="M281.86,113.31l-15.64,15.56a1.2,1.2,0,0,0,0,1.7l13.31,13.24a1.21,1.21,0,0,1,0,1.69l-6.61,6.61a.84.84,0,0,0-.11,1.17.88.88,0,0,0,.33.24l24.55,12.91"/><path class="cls-1" d="M316.14,145.62l6.35,6.32a1,1,0,0,1,0,1.48.53.53,0,0,1-.14.12L298,172.8"/><path class="cls-2" d="M298,173.06a.29.29,0,0,1-.3-.3.33.33,0,0,1,.1-.23l24.43-19.25a.72.72,0,0,0,.11-1,.63.63,0,0,0-.11-.12l-6.35-6.33a.31.31,0,0,1,0-.42.29.29,0,0,1,.42,0h0l6.34,6.33a1.34,1.34,0,0,1,.42,1,1.37,1.37,0,0,1-.52,1L298.1,173Z"/><path class="cls-1" d="M315.44,115l13.73,13.67a1.22,1.22,0,0,1,0,1.7L315,144.49"/><path class="cls-2" d="M315,144.79a.27.27,0,0,1-.21-.09.3.3,0,0,1,0-.41h0L329,130.16a.93.93,0,0,0,0-1.28l-13.78-13.67a.3.3,0,0,1-.06-.42.31.31,0,0,1,.43-.06l.06.06,13.77,13.67a1.5,1.5,0,0,1,.44,1.06,1.52,1.52,0,0,1-.44,1.07l-14.2,14.11A.28.28,0,0,1,315,144.79Z"/><path class="cls-1" d="M279.47,145.62l-6.55,6.49a1.09,1.09,0,0,0,0,1.55l.09.09,22.13,19"/><path class="cls-2" d="M295.11,173.06a.23.23,0,0,1-.19-.07l-22.13-19a1.41,1.41,0,0,1-.51-1,1.46,1.46,0,0,1,.42-1l6.55-6.52a.29.29,0,0,1,.42.06.3.3,0,0,1,0,.36l-6.53,6.52a.87.87,0,0,0-.26.6.82.82,0,0,0,.29.59l22.15,19a.31.31,0,0,1,0,.42A.27.27,0,0,1,295.11,173.06Z"/><path class="cls-1" d="M279.54,115.62,266.3,128.86a1.22,1.22,0,0,0,0,1.7l14.11,14.11"/><path class="cls-2" d="M280.41,145a.28.28,0,0,1-.21-.08L266,130.77a1.45,1.45,0,0,1-.45-1.06,1.47,1.47,0,0,1,.45-1.06l13.23-13.23a.3.3,0,0,1,.43,0h0a.28.28,0,0,1,0,.4v0l-13.31,13.24a.88.88,0,0,0,0,1.27l14.23,14.12a.29.29,0,0,1,0,.42A.32.32,0,0,1,280.41,145Z"/><path class="cls-1" d="M268,68.82h0a3.47,3.47,0,0,0,3.46-3.47s.09-5,.09-13.32,2.4-11.69,2.4-11.69-5.89,7.75-5.89,16.92Z"/><path class="cls-1" d="M328,68.82h0a3.47,3.47,0,0,1-3.47-3.47h0s-.08-5-.08-13.32S322,40.34,322,40.34s5.91,7.75,5.91,16.92Z"/><polyline class="cls-4" points="429.2 238.73 365.87 191.72 365.87 238.73"/><path class="cls-1" d="M429.2,239.34a.55.55,0,0,1-.35-.12l-62.39-46.3v45.84a.6.6,0,0,1-1.2,0v-47a.64.64,0,0,1,.95-.54l63.3,47a.64.64,0,0,1,.13.86A.61.61,0,0,1,429.2,239.34Z"/><polygon class="cls-4" points="232.41 191.62 232.41 238.63 169.08 238.63 232.41 191.62"/><path class="cls-1" d="M232.41,239.24H169.08a.59.59,0,0,1-.58-.42.62.62,0,0,1,.22-.68l63.33-47a.6.6,0,0,1,.63,0,.58.58,0,0,1,.32.54v47A.59.59,0,0,1,232.41,239.24Zm-61.5-1.2h60.9V192.82Z"/><polygon class="cls-2" points="437.27 232.36 431.06 227.71 427.81 225.18 427.68 225.18 383.01 191.72 366.56 191.72 411.23 225.18 187.6 225.18 232.39 191.62 215.95 191.62 161.69 232.26 161.95 232.26 161.69 232.44 437.15 232.44 437.03 232.36 437.27 232.36"/><path class="cls-1" d="M437.15,233.06H161.69a.61.61,0,0,1-.54-.44.39.39,0,0,1,0-.26.62.62,0,0,1,.23-.59l54.26-40.63A.58.58,0,0,1,216,191h16.4a.6.6,0,0,1,.35,1.09l-43.32,32.5h220l-43.2-32.36a.63.63,0,0,1-.22-.68.63.63,0,0,1,.57-.42H383a.55.55,0,0,1,.35.12l44.52,33.34a.5.5,0,0,1,.29.12l3.25,2.53,6.21,4.64a.62.62,0,0,1-.08,1A.72.72,0,0,1,437.15,233.06Zm-273.88-1.21H435.53l-4.82-3.61-3.11-2.4a.69.69,0,0,1-.28-.11l-44.53-33.34H368.35l43.2,32.35a.63.63,0,0,1,.22.69.6.6,0,0,1-.58.42H187.62a.59.59,0,0,1-.57-.42.64.64,0,0,1,.21-.69l43.32-32.49H216.14Z"/><rect class="cls-5" x="161.75" y="232.44" width="275.46" height="35.79"/><path class="cls-1" d="M437.21,268.85H161.75a.6.6,0,0,1-.6-.6h0v-35.8a.6.6,0,0,1,.6-.6H437.21a.6.6,0,0,1,.6.6v35.8a.6.6,0,0,1-.59.61Zm-274.86-1.2H436.61V233.06H162.35Z"/><path class="cls-1" d="M377.76,212h-3.61V165.23a56.66,56.66,0,0,0-16.24-40L344.38,111.5l2.54-2.58,13.52,13.75a60.28,60.28,0,0,1,17.32,42.56Z"/><path class="cls-1" d="M349.17,107a4.68,4.68,0,0,0-6.62-.07l-.07.07a4.8,4.8,0,0,0,0,6.8,4.65,4.65,0,0,0,6.58.1l.11-.1A4.88,4.88,0,0,0,349.17,107Z"/><path class="cls-1" d="M224.09,212h-3.61V165.23a60.25,60.25,0,0,1,17.35-42.56l13.57-13.75,2.54,2.58-13.57,13.76a56.63,56.63,0,0,0-16.28,40Z"/><path class="cls-1" d="M255.8,113.78a4.82,4.82,0,0,0,0-6.8,4.68,4.68,0,0,0-6.62-.07l-.07.07a4.86,4.86,0,0,0,0,6.8,4.65,4.65,0,0,0,6.58.1Z"/><path class="cls-6" d="M315,175.84A12.69,12.69,0,0,0,302.93,185a8.72,8.72,0,0,0-4.29-1.12,8.93,8.93,0,0,0-7.84,4.69,16.16,16.16,0,0,0-30.62,4.82,12.49,12.49,0,0,0-8.75-3.61,12.7,12.7,0,0,0-12.59,11.69h0a8.91,8.91,0,0,0-7.09,3.61,14.09,14.09,0,0,0-1.45-.08,12.67,12.67,0,0,0-12.17,9.35,12.64,12.64,0,0,0-17.39,10.23H398.22a12.66,12.66,0,0,0-12.13-9.24h-.24a8.84,8.84,0,0,0-12.44-1.19l-.05,0a10.65,10.65,0,0,0-10.5-9.29,10.25,10.25,0,0,0-2.75.38v-.38a15.06,15.06,0,0,0-14.95-15.14h0a14.63,14.63,0,0,0-5.15.94,8.86,8.86,0,0,0-12.38-1.35v-.71A12.71,12.71,0,0,0,315,175.84Z"/><ellipse class="cls-7" cx="244" cy="200.77" rx="5.92" ry="5.99"/><ellipse class="cls-7" cx="281.78" cy="215.13" rx="5.92" ry="5.99"/><ellipse class="cls-7" cx="318.92" cy="191.62" rx="5.92" ry="5.99"/><ellipse class="cls-7" cx="336.53" cy="211.95" rx="5.92" ry="5.99"/><ellipse class="cls-7" cx="353.32" cy="200.77" rx="5.92" ry="5.99"/></svg>