<svg id="圖層_1" data-name="圖層 1" xmlns="http://www.w3.org/2000/svg" viewBox="0 0 599 297"><defs><style>.cls-1{fill:#424242;}.cls-2{fill:#fff;}.cls-3{fill:#ffda6a;}.cls-4{fill:#f4f4f4;}.cls-5{fill:#f8f8f8;}.cls-6{fill:#00ffa7;}</style></defs><title>8</title><path class="cls-1" d="M297,109.16h5.19a62.51,62.51,0,0,1,62.5,62.51v35a62.5,62.5,0,0,1-62.5,62.51H297a62.5,62.5,0,0,1-62.5-62.51v-35A62.51,62.51,0,0,1,297,109.16Z"/><polyline class="cls-2" points="285.15 135.61 297.34 122.86 310.48 135.61 298.13 168.68"/><polygon class="cls-3" points="301.08 139.45 293.91 139.45 289.9 124.08 305.09 124.08 301.08 139.45"/><polygon class="cls-3" points="293.91 139.45 301.08 139.45 306.54 164.53 297.53 171.55 288.44 164.6 293.91 139.45"/><path class="cls-1" d="M278.87,28.31h.5V79.18h0A19.07,19.07,0,0,1,260.3,60.12V46.85A18.57,18.57,0,0,1,278.87,28.31Z"/><path class="cls-1" d="M288.51,15H294a39.36,39.36,0,0,1,39.36,39.35V67.67A9.35,9.35,0,0,1,324,77H282.75a9.34,9.34,0,0,1-9.35-9.34V30.05A15.08,15.08,0,0,1,288.49,15Z"/><path class="cls-2" d="M266.07,63.11v.23a10.74,10.74,0,1,0,.36,21.47h.36a31.79,31.79,0,0,0,16.73,21.73v3.62a14,14,0,1,0,28,1.73,12.49,12.49,0,0,0,0-1.73v-3.62a31.85,31.85,0,0,0,16.68-21.78,9,9,0,0,0,1,0,10.75,10.75,0,1,0,0-21.49h-.36"/><path class="cls-1" d="M297.5,125.05a14.82,14.82,0,0,1-14.69-14.89V107a32.25,32.25,0,0,1-16.55-21.47,11.42,11.42,0,0,1-.21-22.82v.44h.67V64h-.64a10.07,10.07,0,0,0,.34,20.13h.88l.12.55A31,31,0,0,0,283.73,106l.38.19v4a13.35,13.35,0,0,0,26.7,0v-4l.37-.19a31,31,0,0,0,16.33-21.36l.12-.59h.58a8.17,8.17,0,0,0,1,0,10.07,10.07,0,1,0,0-20.14h-.28V62.53h.38a11.43,11.43,0,0,1,0,22.84h-.52a32.27,32.27,0,0,1-16.55,21.48v3.2a14.81,14.81,0,0,1-14.62,15Z"/><path class="cls-2" d="M298.44,123.42a1.33,1.33,0,0,0,0,1.89l0,0,8,8.15a1.35,1.35,0,0,0,1.88,0l12.58-12.73a1.33,1.33,0,0,0,0-1.89l0,0-8-8.15a1.35,1.35,0,0,0-1.88,0Z"/><path class="cls-1" d="M307.42,134.38a1.76,1.76,0,0,1-1.33-.54l-8-8.15a1.81,1.81,0,0,1-.54-1.33,1.87,1.87,0,0,1,.54-1.34h0l12.56-12.73a1.83,1.83,0,0,1,2.57,0l0,0,8,8.15a1.88,1.88,0,0,1,0,2.66h0l-12.52,12.7A1.78,1.78,0,0,1,307.42,134.38Zm-8.62-10.6a.91.91,0,0,0-.26.6.83.83,0,0,0,.26.59l8,8.15a.83.83,0,0,0,1.17,0h0l12.59-12.66a.86.86,0,0,0,0-1.19l-8-8.15a.82.82,0,0,0-1.15,0l0,0Z"/><path class="cls-1" d="M315,111.84l17.27,17.47a1.35,1.35,0,0,1,0,1.89l0,0-14.69,14.9a1.33,1.33,0,0,0,0,1.89l0,0,7.34,7.43a1,1,0,0,1,.09,1.34.86.86,0,0,1-.33.23l-27.13,14.52"/><path class="cls-2" d="M296.87,123.42a1.34,1.34,0,0,1,0,1.89l0,0-8,8.15a1.35,1.35,0,0,1-1.88,0l-12.57-12.73a1.35,1.35,0,0,1,0-1.89l0,0,8-8.15a1.35,1.35,0,0,1,1.88,0Z"/><path class="cls-1" d="M287.89,134.38a1.78,1.78,0,0,1-1.34-.54L274,121.11a1.88,1.88,0,0,1,0-2.66h0l8-8.15a1.81,1.81,0,0,1,2.56,0l0,0,12.64,12.84h0a1.92,1.92,0,0,1,0,2.67l-8,8.14A1.77,1.77,0,0,1,287.89,134.38Zm-4.53-23.58a.88.88,0,0,0-.59.25l-8,8.15a.85.85,0,0,0-.24.6.82.82,0,0,0,.24.59l12.57,12.73a.83.83,0,0,0,1.17,0h0l8-8.15a.82.82,0,0,0,.25-.59.86.86,0,0,0-.25-.6L284,111.11A.86.86,0,0,0,283.36,110.8Z"/><path class="cls-1" d="M280,112.06l-17.25,17.46a1.33,1.33,0,0,0,0,1.89l0,0,14.69,14.91a1.35,1.35,0,0,1,0,1.89l0,0-7.28,7.42a1,1,0,0,0-.11,1.34.9.9,0,0,0,.33.25l27.14,14.5"/><path class="cls-1" d="M317.88,148.35l7,7.11a1.19,1.19,0,0,1,0,1.68l-.12.11-27,21.59"/><path class="cls-2" d="M297.81,179.21a.31.31,0,0,1-.25-.13.32.32,0,0,1,0-.45l0,0,27-21.6a.84.84,0,0,0,.25-1.15,1.54,1.54,0,0,0-.17-.19l-7-7.1a.36.36,0,0,1,0-.48.34.34,0,0,1,.48,0h0l7,7.1a1.53,1.53,0,0,1,0,2.17.86.86,0,0,1-.14.13l-27,21.59A.29.29,0,0,1,297.81,179.21Z"/><path class="cls-1" d="M317.12,114l15.17,15.36a1.35,1.35,0,0,1,0,1.89l0,0-15.67,15.86"/><path class="cls-2" d="M316.62,147.42a.38.38,0,0,1-.24-.11.35.35,0,0,1,0-.47L332.05,131a1,1,0,0,0,.29-.71,1.06,1.06,0,0,0-.29-.72L316.9,114.19a.33.33,0,0,1,0-.47h0a.35.35,0,0,1,.47,0l15.17,15.37a1.69,1.69,0,0,1,0,2.38L316.9,147.31A.31.31,0,0,1,316.62,147.42Z"/><path class="cls-1" d="M277.36,148.35l-7.19,7.32a1.23,1.23,0,0,0-.1,1.74l.1.09,24.45,21.37"/><path class="cls-2" d="M294.66,179.21a.27.27,0,0,1-.22-.08L270,157.77a1.62,1.62,0,0,1-.55-1.14,1.66,1.66,0,0,1,.47-1.19l7.22-7.31a.34.34,0,0,1,.48,0h0a.36.36,0,0,1,0,.48l-7.23,7.31a.93.93,0,0,0-.27.69.91.91,0,0,0,.32.65l24.45,21.37a.32.32,0,0,1,0,.47h0A.3.3,0,0,1,294.66,179.21Z"/><path class="cls-1" d="M277.45,114.65l-14.69,14.87a1.33,1.33,0,0,0,0,1.89l0,0,15.65,15.87"/><path class="cls-2" d="M278.41,147.63a.32.32,0,0,1-.23-.09l-15.66-15.87a1.59,1.59,0,0,1-.48-1.18,1.56,1.56,0,0,1,.48-1.19l14.68-14.89a.33.33,0,0,1,.46,0v0a.33.33,0,0,1,0,.47h0L263,129.8a1,1,0,0,0,0,1.45l15.67,15.81a.36.36,0,0,1,0,.48A.38.38,0,0,1,278.41,147.63Z"/><path class="cls-2" d="M329.2,63.33V59.68a31.63,31.63,0,0,0-31.42-31.82h0a31.63,31.63,0,0,0-31.43,31.82v3.7"/><path class="cls-1" d="M267,64.06h-1.34V59.68a32.09,32.09,0,0,1,64.18,0V64h-1.34V59.68a30.76,30.76,0,0,0-61.52,0Z"/><polyline class="cls-4" points="443.41 248.62 373.15 196.46 373.15 248.62"/><path class="cls-1" d="M443.41,249.3a.59.59,0,0,1-.38-.14L373.8,197.79v50.87a.67.67,0,0,1-1.33,0v-52.2a.71.71,0,0,1,1-.61l70.24,52.22a.68.68,0,0,1-.35,1.23Z"/><polygon class="cls-4" points="225.06 196.35 225.06 248.51 154.78 248.51 225.06 196.35"/><path class="cls-1" d="M225.06,249.19H154.78a.68.68,0,0,1-.64-.47.71.71,0,0,1,.24-.76l70.28-52.16a.66.66,0,0,1,.69,0,.65.65,0,0,1,.36.6v52.16A.67.67,0,0,1,225.06,249.19Zm-68.25-1.33h67.58V197.68Z"/><polygon class="cls-2" points="452.37 241.55 445.48 236.4 441.88 233.58 441.73 233.58 392.16 196.46 373.91 196.46 423.48 233.58 175.33 233.58 225.03 196.35 206.79 196.35 146.58 241.44 146.88 241.44 146.58 241.65 452.24 241.65 452.11 241.55 452.37 241.55"/><path class="cls-1" d="M452.24,242.33H146.58a.67.67,0,0,1-.6-.48.76.76,0,0,1,0-.3.68.68,0,0,1,.26-.65l60.21-45.09a.62.62,0,0,1,.4-.13h18.2a.64.64,0,0,1,.62.47.68.68,0,0,1-.24.75l-48.07,36h244.1L373.52,197a.69.69,0,0,1-.24-.75.67.67,0,0,1,.63-.46h18.25a.56.56,0,0,1,.39.13L442,233a.55.55,0,0,1,.32.14l3.6,2.8,6.89,5.15a.69.69,0,0,1,.23.77.67.67,0,0,1-.32.38A.7.7,0,0,1,452.24,242.33ZM148.33,241H450.44l-5.34-4-3.46-2.68a.59.59,0,0,1-.31-.12l-49.41-37h-16l47.94,35.9a.71.71,0,0,1,.24.76.68.68,0,0,1-.64.47H175.36a.68.68,0,0,1-.64-.47.69.69,0,0,1,.24-.76L223,197H207Z"/><rect class="cls-5" x="146.65" y="241.65" width="305.66" height="39.72"/><path class="cls-1" d="M452.31,282H146.65a.67.67,0,0,1-.67-.67h0V241.65a.67.67,0,0,1,.67-.67H452.31a.67.67,0,0,1,.66.67v39.71a.66.66,0,0,1-.65.68Zm-305-1.33H451.64V242.33H147.32Z"/><path class="cls-1" d="M386.34,218.9h-4V167.06a62.86,62.86,0,0,0-18-44.35l-15-15.26,2.82-2.87,15,15.26a66.92,66.92,0,0,1,19.21,47.22Z"/><path class="cls-1" d="M354.61,102.43a5.18,5.18,0,0,0-7.34-.08l-.08.08a5.34,5.34,0,0,0,0,7.54,5.17,5.17,0,0,0,7.31.12l.11-.12A5.39,5.39,0,0,0,354.61,102.43Z"/><path class="cls-1" d="M215.82,218.9h-4V167.06a67,67,0,0,1,19.26-47.22l15.06-15.26,2.82,2.87-15.06,15.26a62.83,62.83,0,0,0-18.07,44.35Z"/><path class="cls-1" d="M251,110a5.34,5.34,0,0,0,0-7.54,5.2,5.2,0,0,0-7.35-.08l-.08.08a5.41,5.41,0,0,0,0,7.54,5.17,5.17,0,0,0,7.31.12Z"/><path class="cls-6" d="M316.74,178.84A14,14,0,0,0,303.31,189a9.81,9.81,0,0,0-13.46,4,17.93,17.93,0,0,0-34,5.34,13.91,13.91,0,0,0-9.71-4,14.09,14.09,0,0,0-14,13h0a9.86,9.86,0,0,0-7.86,4q-.81-.07-1.62-.09a14.07,14.07,0,0,0-13.5,10.38,13.8,13.8,0,0,0-5.34-1.07,14.07,14.07,0,0,0-14,12.42H409a14.05,14.05,0,0,0-13.46-10.26h-.27a9.8,9.8,0,0,0-13.79-1.32l-.07.05a11.68,11.68,0,0,0-14.7-9.89v-.42a16.69,16.69,0,0,0-16.58-16.8h0a16.19,16.19,0,0,0-5.72,1.05,9.81,9.81,0,0,0-13.74-1.5V193A14.1,14.1,0,0,0,316.74,178.84Z"/><ellipse class="cls-3" cx="237.92" cy="206.5" rx="6.57" ry="6.65"/><ellipse class="cls-3" cx="279.84" cy="222.43" rx="6.57" ry="6.65"/><ellipse class="cls-3" cx="321.04" cy="196.35" rx="6.57" ry="6.65"/><ellipse class="cls-3" cx="340.59" cy="218.9" rx="6.57" ry="6.65"/><ellipse class="cls-3" cx="359.22" cy="206.5" rx="6.57" ry="6.65"/></svg>