<svg id="圖層_1" data-name="圖層 1" xmlns="http://www.w3.org/2000/svg" viewBox="0 0 599 297"><defs><style>.cls-1{fill:#fff;}.cls-2{fill:#424242;}.cls-3{fill:none;}.cls-4{fill:#ffda6a;}.cls-5{fill:#2caff5;}.cls-6{fill:#00ffa7;}.cls-7{fill:#525252;}</style></defs><title>5</title><rect class="cls-1" x="152.77" y="65.98" width="215.35" height="165.07" transform="translate(74.03 383.34) rotate(-81.25)"/><path class="cls-2" d="M325.65,268.7h-.18L162.33,243.58a1.2,1.2,0,0,1-.79-.48,1.18,1.18,0,0,1-.24-.85l32.76-212.9a1.2,1.2,0,0,1,1.34-1h0L358.58,53.43a1.23,1.23,0,0,1,.8.49,1.2,1.2,0,0,1,.22.9L326.85,267.66A1.2,1.2,0,0,1,325.65,268.7ZM163.9,241.36l160.74,24.73L357,55.65,196.27,30.92Z"/><line class="cls-3" x1="254.43" y1="237.52" x2="228.18" y2="233.48"/><path class="cls-2" d="M254.43,238.12h-.08l-26.27-4a.6.6,0,0,1-.51-.68v0a.58.58,0,0,1,.66-.5h0l26.27,4a.59.59,0,0,1,.51.66v0A.61.61,0,0,1,254.43,238.12Z"/><rect class="cls-4" x="174.67" y="185.53" width="47.68" height="32.1" transform="translate(-30.93 367.11) rotate(-81.25)"/><line class="cls-3" x1="275.73" y1="240.79" x2="264.78" y2="239.11"/><path class="cls-2" d="M275.73,241.4h-.1l-10.93-1.68a.62.62,0,0,1-.52-.69.61.61,0,0,1,.7-.51h0l10.93,1.68a.61.61,0,0,1-.08,1.2Z"/><polyline class="cls-1" points="337.32 100.19 314.78 246.8 269.5 239.84"/><path class="cls-2" d="M314.78,247.41h-.1l-45.22-7a.63.63,0,0,1-.51-.7.6.6,0,0,1,.68-.5h0l44.67,6.87L337.15,97.27a.62.62,0,0,1,.7-.5.59.59,0,0,1,.51.68h0l-23,149.43a.58.58,0,0,1-.24.4A.66.66,0,0,1,314.78,247.41Z"/><polyline class="cls-1" points="249.93 56.86 341.82 71 339.11 88.63"/><path class="cls-2" d="M339.16,89.23h-.1a.6.6,0,0,1-.5-.68v0l2.61-17-91.34-14a.62.62,0,0,1-.5-.7.6.6,0,0,1,.68-.51h0l91.89,14.13a.61.61,0,0,1,.51.69L339.7,88.7A.61.61,0,0,1,339.16,89.23Z"/><rect class="cls-5" x="193.25" y="64.84" width="47.68" height="32.1" transform="translate(104.11 283.14) rotate(-81.25)"/><rect class="cls-6" x="183.86" y="125.79" width="47.68" height="32.1" transform="translate(35.91 325.54) rotate(-81.25)"/><path class="cls-1" d="M240.9,86a10.33,10.33,0,1,0-10.08-1.55,13.88,13.88,0,0,0-10.64,11.37l-1.2,7.66,27.46,4.21,1.2-7.64A13.85,13.85,0,0,0,240.9,86Z"/><path class="cls-5" d="M243.81,88.25l-9.47,6.94-7-9.49a13.81,13.81,0,0,0-7.21,10.13l-1.2,7.66,27.46,4.21,1.2-7.64A13.81,13.81,0,0,0,243.81,88.25Z"/><path class="cls-2" d="M247,108.4,218.3,104l1.27-8.26a14.41,14.41,0,0,1,10-11.62A10.94,10.94,0,1,1,242.19,86a14.43,14.43,0,0,1,6,14.1ZM219.68,103,246,107,247,100a13.21,13.21,0,0,0-6.42-13.47l-1.1-.65,1.2-.44a9.76,9.76,0,1,0-9.49-1.47l1,.79L231,85a13.22,13.22,0,0,0-10.18,10.93Z"/><path class="cls-2" d="M304.75,99.72l-6-.92,1.48-9.62,6,.93Zm-9.61-1.48-6-.92,1.49-9.62,6,.93Zm-9.62-1.47-6-.93L281,86.23l6,.92Zm-9.61-1.48-6-.93,1.48-9.61,6,.92Zm-9.61-1.48-6-.93,1.48-9.61,6,.92Z"/><path class="cls-2" d="M295.8,157.93l-6-.93,1.48-9.61,6,.91Zm-9.61-1.48-6-.92,1.48-9.62,6,.93ZM276.57,155l-6-.92,1.48-9.62,6,.93ZM267,153.5l-6-.93,1.48-9.62,6,.93ZM257.34,152l-6-.93,1.48-9.61,6,.92Z"/><path class="cls-2" d="M286.52,218.22l-6-.92,1.48-9.61,6,.92Zm-9.61-1.48-6-.92,1.48-9.61,6,.93Zm-9.62-1.48-6-.93,1.48-9.61,6,.93Zm-9.61-1.48-6-.91,1.48-9.62,6,.93Zm-9.61-1.48-6-.92,1.47-9.62,6,.93Z"/><path class="cls-1" d="M219.67,202.3a9.47,9.47,0,0,0,10.81-7.92l.51-3.29a9.48,9.48,0,0,0-7.9-10.82h0l-.54-.08a9.48,9.48,0,0,0-10.77,8h0l-.5,3.3a9.47,9.47,0,0,0,7.9,10.82h.5Z"/><path class="cls-2" d="M232,145.23,224.52,144c-6.4-1-10.55-3.79-9.61-10.2h0c1-6.36,13.18-13,13.18-13l7.48,1.21s9.17,9.7,8.18,16.1h0C242.77,144.53,238.4,146.21,232,145.23Z"/><path class="cls-1" d="M223.42,142.5a13.88,13.88,0,0,0-10.65,11.43l-1.2,7.65L239,165.8l1.2-7.65a13.88,13.88,0,0,0-6.73-14.09"/><path class="cls-6" d="M236.41,146.38l-9.47,6.94-7-9.49A13.84,13.84,0,0,0,212.77,154l-1.2,7.66L239,165.84l1.2-7.66A13.85,13.85,0,0,0,236.41,146.38Z"/><path class="cls-2" d="M239.57,166.54l-28.68-4.42,1.28-8.25A14.4,14.4,0,0,1,223.28,142l.28,1.2a13.22,13.22,0,0,0-10.19,10.92l-1.08,7.05,26.26,4,1.08-7a13.22,13.22,0,0,0-6.43-13.48l.61-1a14.43,14.43,0,0,1,7,14.71Z"/><rect class="cls-1" x="218.29" y="122.71" width="23.48" height="20.68" rx="9.95" transform="translate(63.53 340.16) rotate(-81.25)"/><path class="cls-2" d="M230.06,145.42a11.06,11.06,0,0,1-1.62-.13h0l-.54-.09A10.67,10.67,0,0,1,219,133l.51-3.31a10.7,10.7,0,0,1,12.17-8.93l.54.07a10.7,10.7,0,0,1,8.93,12.19l-.52,3.31A10.71,10.71,0,0,1,230.06,145.42Zm-1.46-1.34a9.45,9.45,0,0,0,10.81-7.87v0l.51-3.3a9.46,9.46,0,0,0-7.9-10.81h0l-.54-.09a9.48,9.48,0,0,0-10.82,7.92l-.47,3.31A9.46,9.46,0,0,0,228,144h.05Z"/><path class="cls-2" d="M219.82,131.46s14.59,3.47,16.4-8.19l-4.39-1.78L225,122.76l-3.6,3.69Z"/><path class="cls-1" d="M214.46,200.77a13.85,13.85,0,0,0-10.64,11.41l-1.21,7.66,27.46,4.22,1.21-7.65a13.88,13.88,0,0,0-6.73-14.09"/><path class="cls-4" d="M227.45,204.6l-9.47,7-6.95-9.5a13.8,13.8,0,0,0-7.21,10.13l-1.21,7.66,27.46,4.22,1.21-7.65A13.81,13.81,0,0,0,227.45,204.6Z"/><path class="cls-2" d="M230.6,224.75l-28.66-4.41,1.27-8.24a14.43,14.43,0,0,1,11.12-11.91l.27,1.2a13.2,13.2,0,0,0-10.18,10.93l-1.09,7.05,26.26,4,1.09-7.06a13.25,13.25,0,0,0-6.43-13.47l.61-1.06a14.45,14.45,0,0,1,7,14.73Z"/><path class="cls-2" d="M221.11,203.63a10.94,10.94,0,0,1-1.62-.12h0l-.53-.09A10.7,10.7,0,0,1,210,191.23l.5-3.29A10.69,10.69,0,0,1,222.71,179l.54.09a10.69,10.69,0,0,1,8.95,12.17l-.5,3.31A10.72,10.72,0,0,1,221.11,203.63Zm-1.44-1.33a9.47,9.47,0,0,0,10.81-7.92l.51-3.29a9.48,9.48,0,0,0-7.9-10.82h0l-.54-.08a9.48,9.48,0,0,0-10.77,8h0l-.5,3.3a9.47,9.47,0,0,0,7.9,10.82h.5Z"/><path class="cls-2" d="M212.13,186.13s5.64-.09,6.71-7.09C218.84,179,213.16,179.38,212.13,186.13Z"/><path class="cls-2" d="M231.31,192.83S217,184.7,218.84,179C218.84,179,234.1,179,231.31,192.83Z"/><path class="cls-1" d="M313.37,145.6l22.38-8.95h16.07c9.33,0,13.81,5.56,13.81,5.56l11.39,29,17.37,17.36-19.61,19.6"/><path class="cls-7" d="M374.81,209.23a1.08,1.08,0,0,1-1.08-1.09,1.1,1.1,0,0,1,.31-.75l18.85-18.84L376.29,172a1.29,1.29,0,0,1-.25-.36l-11.32-28.81c-.69-.78-4.84-5.05-12.88-5.05H336l-22.22,8.88a1.08,1.08,0,0,1-.8-2h0l22.42-9a.89.89,0,0,1,.4-.07h16c9.73,0,14.47,5.72,14.66,6a.88.88,0,0,1,.17.28l11.27,28.76,17.3,17.2a1.07,1.07,0,0,1,0,1.53l-19.61,19.6A1.06,1.06,0,0,1,374.81,209.23Z"/><polygon class="cls-1" points="284.46 142.07 302.49 155.96 307.08 139.48 284.46 142.07"/><path class="cls-7" d="M302.49,156.5a.55.55,0,0,1-.33-.11l-18-13.9a.53.53,0,0,1,.26-1L307,139a.57.57,0,0,1,.48.18.54.54,0,0,1,.11.5L303,156.1a.56.56,0,0,1-.35.37Zm-16.64-14.07L302.22,155l4.17-14.93Z"/><rect class="cls-4" x="335.53" y="116.91" width="18.01" height="83.86" transform="translate(99.09 448.14) rotate(-74.44)"/><polygon class="cls-7" points="294.33 140.75 292.27 148.2 284.95 142.38 294.33 140.75"/><polygon class="cls-1" points="382.26 164.64 309.34 144.35 308.21 148.39 307.18 148.11 308.59 143.01 309.11 143.16 382.54 163.6 382.26 164.64"/><polygon class="cls-1" points="380.33 170.96 307.89 150.8 306.72 155.01 305.68 154.72 307.14 149.47 307.66 149.62 380.62 169.92 380.33 170.96"/><path class="cls-1" d="M372.76,204.23l-10.82-10.82H341.76l-25.4-37s12.33-7.09,17.93,0a123.49,123.49,0,0,0,13.82,14.19"/><path class="cls-7" d="M372.76,205.31A1.07,1.07,0,0,1,372,205l-10.53-10.51H341.76a1.12,1.12,0,0,1-.89-.48l-25.4-37a1.09,1.09,0,0,1,.35-1.55c.54-.31,13.21-7.47,19.32.26a121.13,121.13,0,0,0,13.68,14.06,1.09,1.09,0,0,1-1.42,1.65,126.15,126.15,0,0,1-14-14.35c-4.08-5.16-12.54-1.71-15.49-.27l24.38,35.49h19.6a1.07,1.07,0,0,1,.77.32l10.81,10.81a1.08,1.08,0,0,1,0,1.53,1.06,1.06,0,0,1-.78.32Z"/><polyline class="cls-1" points="359.87 208.42 390.36 177.94 412.84 200.41 370.07 218.62 359.87 208.42"/><path class="cls-7" d="M370.07,219.16a.59.59,0,0,1-.39-.16l-10.2-10.2a.56.56,0,0,1,0-.76L390,177.56a.54.54,0,0,1,.77,0h0L413.23,200a.5.5,0,0,1,.14.49.54.54,0,0,1-.31.39l-42.78,18.2A.58.58,0,0,1,370.07,219.16Zm-9.44-10.74,9.56,9.55,41.71-17.74L390.36,178.7Z"/><polygon class="cls-2" points="439.59 221.32 367.08 221.45 362.19 216.57 398.52 180.25 439.59 221.32"/></svg>