<svg id="圖層_1" data-name="圖層 1" xmlns="http://www.w3.org/2000/svg" xmlns:xlink="http://www.w3.org/1999/xlink" viewBox="0 0 230 200"><defs><style>.cls-1,.cls-12,.cls-13,.cls-18{fill:none;}.cls-2{font-size:20.96px;font-family:DFNYuan-W9-WIN-BF, DFNYuanXBold-B5;}.cls-11,.cls-14,.cls-19,.cls-2,.cls-6{fill:#fff;}.cls-3{fill:#f4f4f4;}.cls-4{fill:#ffda6a;}.cls-5{fill:#2caff5;}.cls-7{fill:#00ffa7;}.cls-8{fill:#525252;}.cls-9{fill:#424242;}.cls-10{fill:#f8f8f8;}.cls-11{opacity:0.6;}.cls-12,.cls-13{stroke:#d2d2d2;}.cls-12,.cls-13,.cls-14,.cls-18,.cls-19{stroke-linecap:round;stroke-linejoin:round;}.cls-12,.cls-14{stroke-width:0.93px;}.cls-13{stroke-width:0.93px;}.cls-14,.cls-15,.cls-18,.cls-19{stroke:#424242;}.cls-15{fill:#e0e0e0;stroke-miterlimit:10;}.cls-16{clip-path:url(#clip-path);}.cls-17{clip-path:url(#clip-path-2);}.cls-18{stroke-width:2px;}</style><clipPath id="clip-path"><circle class="cls-1" cx="151.37" cy="174.57" r="17.12"/></clipPath><clipPath id="clip-path-2"><circle class="cls-1" cx="106.9" cy="171.34" r="17.12"/></clipPath></defs><title>6</title><text class="cls-2" transform="translate(36.11 46.62) rotate(9.3)">XX</text><text class="cls-2" transform="translate(29.28 97.45) rotate(9.3)">XX</text><text class="cls-2" transform="translate(20.88 147.58) rotate(9.3)">XX</text><rect class="cls-3" x="53.08" y="80.87" width="61.86" height="39.38" transform="translate(15.86 -11.36) rotate(8.54)"/><rect class="cls-3" x="45.62" y="130.61" width="61.86" height="39.38" transform="translate(23.16 -9.7) rotate(8.54)"/><rect class="cls-4" x="19.43" y="123.91" width="26.71" height="39.67" transform="translate(21.66 -3.27) rotate(8.52)"/><rect class="cls-5" x="34.49" y="23.43" width="26.71" height="39.67" transform="translate(6.94 -6.61) rotate(8.52)"/><path class="cls-6" d="M45.31,48.56a1.19,1.19,0,0,1-.61.84,1.7,1.7,0,0,1-1.11.23,1.39,1.39,0,0,1-1.25-1l-1.12-3.58-2.12,3.1a1.37,1.37,0,0,1-1.42.59,1.86,1.86,0,0,1-1.08-.54,1.14,1.14,0,0,1-.32-1,1.4,1.4,0,0,1,.25-.6l3.52-5.06L38.24,36a1.18,1.18,0,0,1-.07-.61,1.13,1.13,0,0,1,.65-.86A1.83,1.83,0,0,1,40,34.37a1.31,1.31,0,0,1,1.14,1l1.06,3.16,1.94-2.71a1.37,1.37,0,0,1,1.46-.61,1.64,1.64,0,0,1,1,.55,1.19,1.19,0,0,1,.33,1,1.26,1.26,0,0,1-.25.56L43.37,42l1.87,5.87A1.36,1.36,0,0,1,45.31,48.56Z"/><path class="cls-6" d="M55.67,50.11a1.17,1.17,0,0,1-.6.85,1.7,1.7,0,0,1-1.11.22,1.42,1.42,0,0,1-1.26-1L51.58,46.6l-2.12,3.1a1.34,1.34,0,0,1-1.41.6A2,2,0,0,1,47,49.76a1.15,1.15,0,0,1-.33-1,1.38,1.38,0,0,1,.26-.6l3.51-5.07-1.8-5.5a1.21,1.21,0,0,1-.07-.62,1.1,1.1,0,0,1,.64-.85,1.86,1.86,0,0,1,1.19-.2,1.34,1.34,0,0,1,1.14,1l1.05,3.16,1.94-2.71A1.39,1.39,0,0,1,56,36.74a1.77,1.77,0,0,1,1,.55,1.18,1.18,0,0,1,.32,1,1.3,1.3,0,0,1-.25.57l-3.34,4.73,1.88,5.87A1.48,1.48,0,0,1,55.67,50.11Z"/><rect class="cls-7" x="26.89" y="74.17" width="26.71" height="39.67" transform="translate(14.37 -4.92) rotate(8.52)"/><path class="cls-6" d="M39.16,99.48a1.15,1.15,0,0,1-.6.84,1.7,1.7,0,0,1-1.11.23,1.42,1.42,0,0,1-1.26-1L35.08,96,33,99.06a1.34,1.34,0,0,1-1.41.6,1.86,1.86,0,0,1-1.08-.54,1.18,1.18,0,0,1-.33-1,1.57,1.57,0,0,1,.26-.6l3.51-5.06L32.1,87a1.18,1.18,0,0,1-.07-.61,1.14,1.14,0,0,1,.64-.86,1.86,1.86,0,0,1,1.19-.19,1.32,1.32,0,0,1,1.14,1l1.06,3.16L38,86.72a1.36,1.36,0,0,1,1.45-.61,1.64,1.64,0,0,1,1,.55,1.19,1.19,0,0,1,.33,1,1.39,1.39,0,0,1-.25.56L37.22,93l1.88,5.87A1.48,1.48,0,0,1,39.16,99.48Z"/><path class="cls-6" d="M49.53,101a1.17,1.17,0,0,1-.6.85,1.7,1.7,0,0,1-1.11.22,1.42,1.42,0,0,1-1.26-1l-1.12-3.59-2.12,3.1a1.34,1.34,0,0,1-1.41.6,2,2,0,0,1-1.08-.54,1.12,1.12,0,0,1-.33-1,1.38,1.38,0,0,1,.26-.6L44.27,94l-1.8-5.5a1.21,1.21,0,0,1-.08-.62A1.14,1.14,0,0,1,43,87a1.86,1.86,0,0,1,1.19-.2,1.34,1.34,0,0,1,1.14,1L46.42,91l1.94-2.71a1.39,1.39,0,0,1,1.46-.61,1.71,1.71,0,0,1,1,.55,1.15,1.15,0,0,1,.33,1,1.3,1.3,0,0,1-.25.57l-3.34,4.73,1.87,5.87A1.36,1.36,0,0,1,49.53,101Z"/><path class="cls-6" d="M31.43,149.71a1.15,1.15,0,0,1-.6.84,1.65,1.65,0,0,1-1.11.23,1.42,1.42,0,0,1-1.26-1l-1.12-3.58-2.12,3.1a1.32,1.32,0,0,1-1.41.59,1.91,1.91,0,0,1-1.08-.53,1.19,1.19,0,0,1-.33-1,1.41,1.41,0,0,1,.26-.61l3.51-5.06-1.8-5.51a1.17,1.17,0,0,1-.07-.61,1.09,1.09,0,0,1,.64-.85,1.86,1.86,0,0,1,1.19-.2,1.34,1.34,0,0,1,1.14,1l1.06,3.16L30.26,137a1.39,1.39,0,0,1,1.46-.61,1.69,1.69,0,0,1,1,.55,1.17,1.17,0,0,1,.32,1,1.12,1.12,0,0,1-.25.56l-3.34,4.74,1.88,5.87A1.48,1.48,0,0,1,31.43,149.71Z"/><path class="cls-6" d="M41.8,151.27a1.15,1.15,0,0,1-.6.84,1.72,1.72,0,0,1-1.11.23,1.42,1.42,0,0,1-1.26-1l-1.12-3.58-2.12,3.09a1.36,1.36,0,0,1-1.42.6,1.86,1.86,0,0,1-1.07-.54,1.12,1.12,0,0,1-.33-1,1.43,1.43,0,0,1,.26-.6l3.51-5.06-1.8-5.51a1.19,1.19,0,0,1-.08-.61,1.13,1.13,0,0,1,.65-.86,1.86,1.86,0,0,1,1.19-.19,1.3,1.3,0,0,1,1.13,1l1.06,3.16,1.94-2.71a1.37,1.37,0,0,1,1.46-.61,1.62,1.62,0,0,1,1,.55,1.16,1.16,0,0,1,.33,1,1.26,1.26,0,0,1-.25.56l-3.34,4.74,1.87,5.87A1.36,1.36,0,0,1,41.8,151.27Z"/><rect class="cls-3" x="60.72" y="30" width="61.86" height="39.38" transform="matrix(0.99, 0.15, -0.15, 0.99, 8.39, -13.05)"/><path class="cls-8" d="M115.52,41.9a.57.57,0,0,1-.18,0,2.69,2.69,0,0,1-1.54-1.54,2.74,2.74,0,0,1,.11-2.19l7-13.79a.47.47,0,0,1,.15-.19l12.89-9.08a3,3,0,0,1,1.18-.49l9.79-1.75a.5.5,0,1,1,.17,1l-9.78,1.74a2,2,0,0,0-.78.33l-12.79,9-6.9,13.68a1.7,1.7,0,0,0,.22,1.87v-.28a.5.5,0,0,1,.68-.47c2.56,1,4.23.81,5-.56l5.59-10.33a.46.46,0,0,1,.14-.17l10-7.47a.5.5,0,0,1,.6.8l-10,7.41-5.54,10.23c-.66,1.22-2.15,2.38-5.54,1.27v.52a.5.5,0,0,1-.22.41A.46.46,0,0,1,115.52,41.9Z"/><path class="cls-6" d="M132.74,14.93l-17,8.75L109.54,43a2,2,0,0,0,1.35,2.53l1.23.35a4.7,4.7,0,0,0,5.81-3.24l4.3-15.27"/><path class="cls-8" d="M113.42,46.51a5.5,5.5,0,0,1-1.44-.2L110.75,46a2.5,2.5,0,0,1-1.68-3.16l6.19-19.27a.48.48,0,0,1,.25-.29l17-8.76a.5.5,0,0,1,.46.89L116.15,24,110,43.1a1.47,1.47,0,0,0,.1,1.16A1.56,1.56,0,0,0,111,45l1.23.35a4.2,4.2,0,0,0,5.19-2.9l4.29-15.26a.5.5,0,0,1,1,.27l-4.3,15.26a5.2,5.2,0,0,1-5,3.79Z"/><path class="cls-6" d="M135.17,12.34l-23.35,15.1-6.19,19.27A2,2,0,0,0,107,49.24l1.23.35a4.69,4.69,0,0,0,5.8-3.24l4.3-15.26"/><path class="cls-8" d="M109.5,50.27a5,5,0,0,1-1.43-.2l-1.23-.35a2.5,2.5,0,0,1-1.69-3.16l6.2-19.27a.54.54,0,0,1,.2-.27l23.35-15.1a.5.5,0,0,1,.54.84l-23.19,15-6.15,19.1a1.52,1.52,0,0,0,.11,1.16,1.46,1.46,0,0,0,.9.73l1.23.35a4.19,4.19,0,0,0,5.19-2.9L117.83,31a.5.5,0,1,1,1,.27l-4.3,15.27a5.21,5.21,0,0,1-5,3.78Z"/><path class="cls-6" d="M212.76,7.44H125.82a10.5,10.5,0,0,0-7.43,3.07l-16.1,16.11V50.68A2.27,2.27,0,0,0,104.56,53h1.23a4.72,4.72,0,0,0,4.72-4.72V35.4a2.51,2.51,0,0,1,.73-1.77L118.92,26a2.6,2.6,0,0,1,1.84-.76h21.09a4.9,4.9,0,0,1,4.9,4.9V42l-8.27,8.27a4.56,4.56,0,0,0,0,6.43h0a4.55,4.55,0,0,0,6.44,0l11.37-11.37,14-14h42.48"/><path class="cls-9" d="M141.7,59a5.55,5.55,0,0,1-3.93-9.47l8-8V30.09a3.91,3.91,0,0,0-3.9-3.9H120.76a1.59,1.59,0,0,0-1.13.47L112,34.33a1.54,1.54,0,0,0-.44,1.07V48.23A5.73,5.73,0,0,1,105.79,54h-1.23a3.27,3.27,0,0,1-3.27-3.27V26.62a1,1,0,0,1,.29-.71l16.11-16.1a11.39,11.39,0,0,1,8.13-3.37h86.94a1,1,0,1,1,0,2H125.82a9.45,9.45,0,0,0-6.72,2.78L103.29,27V50.68A1.27,1.27,0,0,0,104.56,52h1.23a3.73,3.73,0,0,0,3.72-3.72V35.4a3.5,3.5,0,0,1,1-2.48l7.68-7.68a3.54,3.54,0,0,1,2.54-1h21.09a5.9,5.9,0,0,1,5.9,5.9V42a1,1,0,0,1-.29.71L139.19,51a3.55,3.55,0,1,0,5,5l25.36-25.37a1,1,0,0,1,.71-.29h42.48a1,1,0,0,1,0,2H170.69L145.62,57.4A5.53,5.53,0,0,1,141.7,59Z"/><path class="cls-6" d="M142.59,25.27a4.31,4.31,0,0,1,4.31,4.3v9.08a7.82,7.82,0,0,1-2.29,5.52l-5.89,5.9a4.49,4.49,0,0,0,0,6.36h0a4.49,4.49,0,0,0,6.36,0l11.24-11.25,13.84-13.84H212.6"/><path class="cls-8" d="M141.9,58.24a5,5,0,0,1-3.54-8.53l5.89-5.89a7.24,7.24,0,0,0,2.15-5.17V29.57a3.81,3.81,0,0,0-3.81-3.8.5.5,0,0,1,0-1,4.81,4.81,0,0,1,4.81,4.8v9.08A8.27,8.27,0,0,1,145,44.53l-5.89,5.89a4,4,0,0,0,0,5.66,4,4,0,0,0,5.65,0L169.81,31a.51.51,0,0,1,.35-.15H212.6a.5.5,0,0,1,.5.5.5.5,0,0,1-.5.5H170.37L145.43,56.78A4.94,4.94,0,0,1,141.9,58.24Z"/><rect class="cls-6" x="174" y="2.97" width="41.67" height="35.56"/><path class="cls-9" d="M215.67,39H174a.47.47,0,0,1-.46-.46V3a.47.47,0,0,1,.46-.46h41.68a.46.46,0,0,1,.46.46V38.54A.46.46,0,0,1,215.67,39Zm-41.21-.93H215.2V3.44H174.46Z"/><rect class="cls-9" x="181.36" width="48.64" height="41.51"/><circle class="cls-10" cx="191.39" cy="33.97" r="3.45"/><circle class="cls-10" cx="201.14" cy="33.97" r="3.45"/><g id="Group_8331" data-name="Group 8331"><path id="Path_2863-5" data-name="Path 2863-5" class="cls-11" d="M74.63,73H151l24.73,18.26H49.9Z"/><polyline id="Rectangle_1408" data-name="Rectangle 1408" class="cls-11" points="175.69 91.32 175.69 198.93 49.82 198.93 49.82 91.32"/><path id="Path_2863-2" data-name="Path 2863-2" class="cls-12" d="M76.22,180.14h63.63"/><path id="Path_2863-3" data-name="Path 2863-3" class="cls-12" d="M52.72,196.33,73.43,181"/><path id="Path_2863-3-2" data-name="Path 2863-3" class="cls-12" d="M152.27,181.05,173,196.33"/><path id="Path_2863-4" data-name="Path 2863-4" class="cls-12" d="M142,180.14h7.5"/><line id="Line_41" data-name="Line 41" class="cls-13" x1="74.63" y1="75.67" x2="74.63" y2="179.09"/><line id="Line_42" data-name="Line 42" class="cls-12" x1="151.04" y1="75.76" x2="151.04" y2="179.26"/><path id="Path_2863-6" data-name="Path 2863-6" class="cls-14" d="M94,77.93H131.7l9.91,8.35H84.06Z"/><g id="Group_8353" data-name="Group 8353"><circle id="Ellipse_423" data-name="Ellipse 423" class="cls-15" cx="151.37" cy="174.57" r="17.12"/><g class="cls-16"><g id="Group_8347" data-name="Group 8347"><path id="Path_2900" data-name="Path 2900" class="cls-9" d="M146.68,168.49l1.45.81,1.29.72a5.83,5.83,0,0,0,2.39.93,2.18,2.18,0,0,0,1.31-.8l1,.91a22.61,22.61,0,0,0-1.63,1.62c-.54.58-1.07,1.21-1.6,1.89-1-.62-1.82-1.14-2.56-1.58s-1.42-.83-2.07-1.19-1.35-.72-2.11-1.12-1.71-.85-2.81-1.38l.14-1.38a27.2,27.2,0,0,0,6.63-1.72,6.78,6.78,0,0,0,3.44-2.56,2.19,2.19,0,0,0,.22-1.73,2.26,2.26,0,0,0-1.13-1.35,2.81,2.81,0,0,0-1.61-.31,5.3,5.3,0,0,0-1.93.68l-.85-1.54A9.78,9.78,0,0,1,150,158a5.18,5.18,0,0,1,3.13.65,5.49,5.49,0,0,1,2.66,2.93,4.16,4.16,0,0,1-.29,3.56,5,5,0,0,1-2.6,2.16A25.53,25.53,0,0,1,146.68,168.49Z"/></g></g><circle id="Ellipse_425" data-name="Ellipse 425" class="cls-15" cx="74.78" cy="177.21" r="17.12"/><g id="Group_8349" data-name="Group 8349"><path id="Path_2901" data-name="Path 2901" class="cls-9" d="M77.31,172.82c.28.9.62,1.94,1,3.1s.85,2.4,1.34,3.7l.6,1.6c.55,1.45.94,2.42,1.17,2.9a2.62,2.62,0,0,0,.62.92,1.27,1.27,0,0,0,.78.25,5.13,5.13,0,0,0,1.38-.37l.45,1.19c-1,.32-1.89.6-2.59.84s-1.32.46-1.83.65-.86.33-1.47.59-1.44.61-2.46,1.06l-.45-1.2a6.75,6.75,0,0,0,1.61-.75,1.23,1.23,0,0,0,.43-.7,3.52,3.52,0,0,0-.21-1.36q-.28-1-1.58-4.44c-.27-.71-.54-1.42-.83-2.15s-.58-1.46-.89-2.21c-.44.16-.87.34-1.31.53s-.88.38-1.32.59l-.64-1.3c1.11-.54,2.17-1.1,3.2-1.67S76.35,173.42,77.31,172.82Z"/></g><circle id="Ellipse_426" data-name="Ellipse 426" class="cls-15" cx="106.9" cy="171.34" r="17.12"/><g class="cls-17"><g id="Group_8351" data-name="Group 8351"><path id="Path_2902" data-name="Path 2902" class="cls-9" d="M115.86,177.83l.51-.2.32-.13a3.3,3.3,0,0,1,2.58.08,3.17,3.17,0,0,1,1.63,1.92,4.38,4.38,0,0,1-.61,4,7.34,7.34,0,0,1-4,2.91,7.22,7.22,0,0,1-3.85.4,2.51,2.51,0,0,1-2.09-1.56,1.46,1.46,0,0,1,.12-1.19,1.66,1.66,0,0,1,1-.82,1.16,1.16,0,0,1,.8,0,4.06,4.06,0,0,1,1.09.89,2.58,2.58,0,0,0,1.09.75,1.85,1.85,0,0,0,1.16-.07,2.48,2.48,0,0,0,1.49-1.4,2.91,2.91,0,0,0,.09-2.17,2.13,2.13,0,0,0-1.11-1.31,2.32,2.32,0,0,0-1.79,0,3.93,3.93,0,0,0-.78.36,8.7,8.7,0,0,0-.9.59l-.81-1a9.42,9.42,0,0,0,2.29-2.38,2.37,2.37,0,0,0,.19-2,1.71,1.71,0,0,0-.94-1.06,2.12,2.12,0,0,0-1.53,0,2.8,2.8,0,0,0-1.27,1,6.38,6.38,0,0,0-.94,1.88l-1.57-.45a7.82,7.82,0,0,1,1.5-3.38,5.85,5.85,0,0,1,2.75-1.92,5.08,5.08,0,0,1,3.46-.08,3.24,3.24,0,0,1,2.08,2.08,2.92,2.92,0,0,1-.08,2.23A5.78,5.78,0,0,1,115.86,177.83Z"/></g></g></g><g id="Path_2801" data-name="Path 2801"><path id="Path_2863" data-name="Path 2863" class="cls-18" d="M49.9,91.24,74.63,73H151l24.73,18.26"/></g><line id="Rectangle_1408-2" data-name="Rectangle 1408" class="cls-19" x1="145.17" y1="91.32" x2="168.49" y2="91.32"/><line id="Rectangle_1408-3" data-name="Rectangle 1408" class="cls-19" x1="54.79" y1="91.32" x2="140.83" y2="91.32"/></g><polyline id="Rectangle_1408-4" data-name="Rectangle 1408" class="cls-18" points="175.69 91.32 175.69 198.93 49.82 198.93 49.82 91.32"/></svg>