<svg id="圖層_1" data-name="圖層 1" xmlns="http://www.w3.org/2000/svg" viewBox="0 0 599 297"><defs><style>.cls-1{fill:#afafaf;}.cls-2{fill:#e0e0e0;}.cls-3{fill:#fff;}.cls-4{fill:#424242;}.cls-5{fill:none;}.cls-6{fill:#525252;}.cls-7{fill:#ffda6a;}</style></defs><title>12</title><rect class="cls-1" x="195.86" y="64.7" width="215.51" height="165.19" transform="matrix(0.15, -0.99, 0.99, 0.15, 111.84, 424.97)"/><rect class="cls-2" x="171.14" y="64.71" width="215.51" height="165.19" transform="matrix(0.15, -0.99, 0.99, 0.15, 90.88, 400.54)"/><rect class="cls-3" x="152.66" y="65.92" width="215.51" height="165.19" transform="matrix(0.15, -0.99, 0.99, 0.15, 74.01, 383.31)"/><path class="cls-4" d="M325.67,268.78h-.18L162.23,243.65a1.23,1.23,0,0,1-1-1.33L194,29.26a1.21,1.21,0,0,1,1.34-1h0L358.63,53.36a1.18,1.18,0,0,1,.79.49,1.21,1.21,0,0,1,.23.9l-32.78,213A1.18,1.18,0,0,1,325.67,268.78ZM163.8,241.43l160.86,24.74L357.05,55.58,196.19,30.83Z"/><line class="cls-5" x1="254.4" y1="237.58" x2="228.12" y2="233.54"/><path class="cls-4" d="M254.4,238.19h-.08l-26.29-4a.61.61,0,0,1-.51-.69h0a.59.59,0,0,1,.66-.51h0l26.29,4a.6.6,0,0,1,.51.66v0A.6.6,0,0,1,254.4,238.19Z"/><line class="cls-5" x1="275.71" y1="240.86" x2="264.76" y2="239.17"/><path class="cls-4" d="M275.71,241.47h-.09l-10.95-1.68a.61.61,0,1,1,.18-1.21h0l10.95,1.69a.62.62,0,0,1,.44.75A.63.63,0,0,1,275.71,241.47Z"/><polyline class="cls-3" points="337.35 100.16 314.79 246.87 269.48 239.91"/><path class="cls-4" d="M314.79,247.48h-.1l-45.26-7a.63.63,0,0,1-.5-.7.6.6,0,0,1,.68-.51h0l44.7,6.88L337.18,97.23a.62.62,0,0,1,.7-.5.6.6,0,0,1,.51.68v0L315.41,247a.56.56,0,0,1-.24.39A.58.58,0,0,1,314.79,247.48Z"/><polyline class="cls-3" points="249.89 56.8 341.85 70.94 339.14 88.58"/><path class="cls-4" d="M339.19,89.19h-.1a.61.61,0,0,1-.5-.69h0l2.61-17L249.79,57.4a.62.62,0,0,1-.5-.7.6.6,0,0,1,.68-.51h0l91.95,14.14a.6.6,0,0,1,.51.69l-2.72,17.64A.61.61,0,0,1,339.19,89.19Z"/><path class="cls-3" d="M198,197.32a13.87,13.87,0,0,0-10.66,11.42l-1.2,7.66,27.51,4.27,1.2-7.66a13.88,13.88,0,0,0-6.71-14.14"/><path class="cls-4" d="M211,201.14l-9.48,7-7-9.49a13.83,13.83,0,0,0-7.22,10.14l-1.2,7.66,27.51,4.27,1.2-7.66A13.87,13.87,0,0,0,211,201.14Z"/><path class="cls-4" d="M214.11,221.32l-28.68-4.41,1.27-8.26a14.44,14.44,0,0,1,11.13-11.94l.26,1.21a13.23,13.23,0,0,0-10.19,10.93l-1.08,7.05,26.28,4,1.08-7.05a13.23,13.23,0,0,0-6.43-13.49l.61-1.05a14.44,14.44,0,0,1,7,14.72Z"/><path class="cls-4" d="M204.61,200.23a11.34,11.34,0,0,1-1.64-.14h0l-.52-.08a10.66,10.66,0,0,1-8.95-12.13v0l.5-3.3a10.67,10.67,0,0,1,12.16-8.94h0l.54.08a10.7,10.7,0,0,1,8.93,12.19l-.5,3.3A10.72,10.72,0,0,1,204.61,200.23Zm-1.44-1.34A9.47,9.47,0,0,0,214,191h0l.51-3.31a9.5,9.5,0,0,0-7.93-10.83l-.53-.07a9.48,9.48,0,0,0-10.82,7.91h0l-.51,3.3a9.46,9.46,0,0,0,7.86,10.82h.06Z"/><path class="cls-4" d="M294.43,98.48l-6-.92,1.48-9.62,6,.92ZM284.8,97l-6-.92,1.48-9.62,6,.92Zm-9.62-1.47-6-.93L270.65,85l6,1Zm-9.62-1.48-6-.93L261,83.56l6,.92Zm-9.62-1.48-6-.93L251.41,82l6,.92Z"/><path class="cls-4" d="M285.47,156.73l-6-.92,1.48-9.62,6,.91Zm-9.63-1.47-6-.93,1.48-9.62,6,.92Zm-9.62-1.48-6-.93,1.48-9.62,6,.92Zm-9.62-1.48-6-.93,1.48-9.62,6,.92ZM247,150.82l-6-.93,1.48-9.62,6,.92Z"/><path class="cls-4" d="M276.18,217.07l-6-.92,1.48-9.62,6,.93Zm-9.62-1.48-6-.92,1.48-9.62,6,.93Zm-9.62-1.48-6-.93,1.47-9.62,6,.92Zm-9.62-1.48-6-.92,1.48-9.62,6,.93Zm-9.62-1.48-6-.93,1.48-9.62,6,.93Z"/><rect class="cls-4" x="194.78" y="121.18" width="36.23" height="25.04" rx="10.92" transform="translate(48.36 323.78) rotate(-81.25)"/><path class="cls-3" d="M206.89,139.05a13.88,13.88,0,0,0-10.65,11.44l-1.2,7.65,27.49,4.24,1.2-7.67a13.9,13.9,0,0,0-6.73-14.1"/><path class="cls-1" d="M219.92,142.89l-9.42,7-7-9.49a13.81,13.81,0,0,0-7.22,10.14l-1.2,7.65,27.41,4.24,1.2-7.67A13.83,13.83,0,0,0,219.92,142.89Z"/><path class="cls-4" d="M223.07,163.06l-28.68-4.41,1.27-8.25a14.44,14.44,0,0,1,11.13-11.94l.26,1.21a13.23,13.23,0,0,0-10.19,10.93l-1.08,7.06,26.28,4.08,1.08-7.06a13.24,13.24,0,0,0-6.43-13.49l.61-1a14.43,14.43,0,0,1,7,14.72Z"/><rect class="cls-3" x="201.79" y="119.19" width="23.5" height="20.7" rx="9.96" transform="translate(53.02 320.89) rotate(-81.25)"/><path class="cls-4" d="M213.57,141.92a11.31,11.31,0,0,1-1.64-.12h0l-.52-.09a10.69,10.69,0,0,1-8.94-12.18l.5-3.31a10.7,10.7,0,0,1,12.19-9l.54.08a10.7,10.7,0,0,1,8.93,12.18l-.5,3.37A10.73,10.73,0,0,1,213.57,141.92Zm-1.44-1.33a9.47,9.47,0,0,0,10.82-7.9v0l.51-3.3a9.48,9.48,0,0,0-7.91-10.82h0l-.56-.11a9.47,9.47,0,0,0-10.82,7.91h0l-.5,3.3a9.47,9.47,0,0,0,7.9,10.82h0Z"/><path class="cls-4" d="M224.47,128s-14.6,3.47-16.37-8.25l4.39-1.78,6.84,1.31,3.61,3.71Z"/><path class="cls-4" d="M198.08,178s4.55,9.34,15.41,2.76C213.49,180.75,208.51,171.67,198.08,178Z"/><path class="cls-4" d="M220.16,56.73l9.42,1.47a6,6,0,0,1,5,6.78l-.88,5.66a8.42,8.42,0,0,1-9.62,7l-7-1.08A8.42,8.42,0,0,1,210,67l.51-3.28a8.43,8.43,0,0,1,9.62-7Z"/><path class="cls-3" d="M215.76,80.27A13.89,13.89,0,0,0,205.1,91.7l-1.2,7.66,27.48,4.22,1.2-7.65a13.86,13.86,0,0,0-6.73-14.1"/><path class="cls-4" d="M228.76,84.1l-9.48,7-7-9.49A13.86,13.86,0,0,0,205.1,91.7l-1.2,7.66,27.48,4.22,1.2-7.65A13.85,13.85,0,0,0,228.76,84.1Z"/><path class="cls-4" d="M231.91,104.28l-28.62-4.41,1.2-8.27a14.44,14.44,0,0,1,11.12-11.93l.28,1.21a13.21,13.21,0,0,0-10.2,10.92l-1.08,7L231,102.9,232,95.84a13.22,13.22,0,0,0-6.48-13.48l.61-1a14.43,14.43,0,0,1,7,14.72Z"/><path class="cls-4" d="M222.41,83.14a11,11,0,0,1-1.62-.14h0l-.53-.08a10.69,10.69,0,0,1-8.94-12.18h0l.51-3.3A10.66,10.66,0,0,1,224,58.5h0l.54.08a10.69,10.69,0,0,1,8.92,12.19l-.5,3.3A10.72,10.72,0,0,1,222.41,83.14ZM221,81.8a9.48,9.48,0,0,0,10.82-7.88v0l.51-3.31a9.48,9.48,0,0,0-7.91-10.82h0l-.54-.07A9.48,9.48,0,0,0,213,67.59h0l-.51,3.3a9.45,9.45,0,0,0,7.86,10.82h.06Z"/><path class="cls-3" d="M221,81.8a9.48,9.48,0,0,0,10.82-7.88v0l.51-3.31a9.48,9.48,0,0,0-7.91-10.82h0l-.54-.07A9.48,9.48,0,0,0,213,67.59h0l-.51,3.3a9.45,9.45,0,0,0,7.86,10.82h.06Z"/><path class="cls-4" d="M212.18,53.59l14.26,2.22a3.13,3.13,0,0,1,2.62,3.58h0l-.39,2.5a2.79,2.79,0,0,1-3.19,2.34h-.06l-11.77-1.83a2.8,2.8,0,0,1-2.34-3.2h0Z"/><path class="cls-3" d="M416.47,192.7l17.16,5.06A5,5,0,0,1,437,204l-1.42,4.81a4.68,4.68,0,0,1-5.8,3.16h0l-17.5-5.16a3.38,3.38,0,0,1-2.28-4.2l2.24-7.63A3.38,3.38,0,0,1,416.47,192.7Z"/><path class="cls-6" d="M431.1,212.76a5.32,5.32,0,0,1-1.49-.22l-17.49-5.1a4,4,0,0,1-2.69-4.94l2.25-7.63a4,4,0,0,1,4.94-2.69l17.16,5.06a5.62,5.62,0,0,1,3.81,7h0L436.16,209A5.27,5.27,0,0,1,431.1,212.76Zm-15.64-19.59a2.77,2.77,0,0,0-2.65,2l-2.25,7.63a2.77,2.77,0,0,0,1.87,3.45l17.5,5.15a4.07,4.07,0,0,0,5.05-2.75h0l1.42-4.81a4.41,4.41,0,0,0-3-5.47h0l-17.16-5.06a2.53,2.53,0,0,0-.77-.12Z"/><polygon class="cls-3" points="384.39 260.41 360.77 253.45 393.5 185.94 417.14 192.9 384.39 260.41"/><path class="cls-6" d="M384.39,261.57a1,1,0,0,1-.34,0l-23.63-7a1.19,1.19,0,0,1-.82-1.49,1.46,1.46,0,0,1,.07-.19l32.75-67.51a1.21,1.21,0,0,1,1.42-.63l23.63,7a1.22,1.22,0,0,1,.76,1.67L385.48,261A1.18,1.18,0,0,1,384.39,261.57Zm-21.93-8.93,21.29,6.28,31.68-65.32-21.29-6.28Z"/><path class="cls-3" d="M414.13,216.7a6.67,6.67,0,0,1-2.08-.3l-23.16-6.83L398,178.73l22.85,6.74A7.65,7.65,0,0,1,426,195l-4.81,16.47a7.36,7.36,0,0,1-7,5.25Z"/><path class="cls-6" d="M398.8,180.22l21.64,6.4a6.49,6.49,0,0,1,4.37,8L420,211.11a6.15,6.15,0,0,1-5.87,4.39,5.94,5.94,0,0,1-1.73-.25l-22-6.48,8.42-28.55m-1.63-3-9.77,33.15,24.31,7.22a8.54,8.54,0,0,0,10.6-5.77h0l4.81-16.45a8.89,8.89,0,0,0-6-11l-24-7.07Z"/><circle class="cls-3" cx="313.28" cy="167.94" r="19.76"/><path class="cls-6" d="M313.27,188.31a21.15,21.15,0,0,1-5.75-.83,20.37,20.37,0,1,1,5.75.83Zm0-39.54a19.16,19.16,0,1,0,5.41.78,19.61,19.61,0,0,0-5.38-.78Z"/><polygon class="cls-7" points="325.97 123.11 400.02 178.1 390.26 211.23 298.9 214.97 325.97 123.11"/><rect class="cls-3" x="261.6" y="163.31" width="101.2" height="13.13" rx="4.32" transform="matrix(0.28, -0.96, 0.96, 0.28, 61, 421.32)"/><path class="cls-6" d="M301.26,220.43a5.24,5.24,0,0,1-1.57-.23h0l-4.3-1.26a5.52,5.52,0,0,1-3.75-6.85v0l26.17-88.82a5.54,5.54,0,0,1,6.87-3.74l4.29,1.33a5.53,5.53,0,0,1,3.74,6.86h0l-26.17,88.79a5.44,5.44,0,0,1-2.66,3.28A5.38,5.38,0,0,1,301.26,220.43Zm-.89-2.52a3.14,3.14,0,0,0,2.4-.25,3.06,3.06,0,0,0,1.49-1.87L330.41,127a3.12,3.12,0,0,0-2-3.87l-4.31-1.27a3.11,3.11,0,0,0-3.87,2.1h0L294,212.76a3.11,3.11,0,0,0,2.1,3.87h0Z"/><line class="cls-5" x1="400.37" y1="189.79" x2="416.32" y2="194.48"/><path class="cls-6" d="M416.32,195.09h-.17L400.2,190.4a.63.63,0,0,1-.41-.75.6.6,0,0,1,.75-.4l15.95,4.7a.6.6,0,0,1,.41.74A.64.64,0,0,1,416.32,195.09Z"/><line class="cls-5" x1="398.78" y1="195.16" x2="414.73" y2="199.87"/><path class="cls-6" d="M414.73,200.47h-.17l-15.94-4.71a.62.62,0,0,1-.44-.77.63.63,0,0,1,.77-.43h0l16,4.73a.61.61,0,1,1-.17,1.2h0Z"/><line class="cls-5" x1="397.2" y1="200.55" x2="413.14" y2="205.25"/><path class="cls-6" d="M413.14,205.86H413l-16-4.71a.6.6,0,0,1,.33-1.16h0l15.93,4.7a.61.61,0,0,1,.41.75A.63.63,0,0,1,413.14,205.86Z"/><path class="cls-3" d="M389,184a1.24,1.24,0,0,1-.7-.22l-55.79-39.55a1.2,1.2,0,0,1,1.24-2.06l.14.1L389.7,181.8A1.2,1.2,0,0,1,389,184Z"/><path class="cls-3" d="M387,190.6a1.2,1.2,0,0,1-.69-.21l-37.49-26.34a1.2,1.2,0,0,1-.29-1.67,1.22,1.22,0,0,1,1.68-.31l37.53,26.31a1.19,1.19,0,0,1,.3,1.67,1.21,1.21,0,0,1-1,.52Z"/></svg>