<svg id="圖層_1" data-name="圖層 1" xmlns="http://www.w3.org/2000/svg" xmlns:xlink="http://www.w3.org/1999/xlink" viewBox="0 0 599 297"><defs><style>.cls-1,.cls-12,.cls-17,.cls-18{fill:none;}.cls-11,.cls-2{isolation:isolate;}.cls-2{font-size:25.35px;font-family:DFNYuan-W9-WIN-BF, DFNYuanXBold-B5;}.cls-11,.cls-13,.cls-2,.cls-6{fill:#fff;}.cls-3{fill:#f4f4f4;}.cls-4{fill:#ffda6a;}.cls-5{fill:#2caff5;}.cls-7{fill:#00ffa7;}.cls-8{fill:#525252;}.cls-9{fill:#424242;}.cls-10{fill:#f8f8f8;}.cls-11{opacity:0.6;}.cls-12{stroke:#d2d2d2;}.cls-12,.cls-13,.cls-17,.cls-18{stroke-linecap:round;stroke-linejoin:round;}.cls-12,.cls-13{stroke-width:0.75px;}.cls-13,.cls-14,.cls-17,.cls-18{stroke:#424242;}.cls-14{fill:#e0e0e0;stroke-miterlimit:10;}.cls-14,.cls-18{stroke-width:0.81px;}.cls-15{clip-path:url(#clip-path);}.cls-16{clip-path:url(#clip-path-2);}.cls-17{stroke-width:1.62px;}</style><clipPath id="clip-path"><circle class="cls-1" cx="333.42" cy="239.33" r="20.7"/></clipPath><clipPath id="clip-path-2"><circle class="cls-1" cx="279.64" cy="235.42" r="20.7"/></clipPath></defs><title>6</title><text class="cls-2" transform="matrix(0.99, 0.16, -0.16, 0.99, 203.04, 85.59)">XX</text><rect class="cls-3" x="237.15" y="113.42" width="47.62" height="74.81" transform="translate(73.05 386.49) rotate(-81.46)"/><rect class="cls-3" x="228.12" y="173.58" width="47.62" height="74.81" transform="matrix(0.15, -0.99, 0.99, 0.15, 5.88, 428.78)"/><rect class="cls-4" x="175.03" y="186.9" width="47.98" height="32.3" transform="translate(-31.28 369.79) rotate(-81.48)"/><rect class="cls-5" x="193.24" y="65.38" width="47.98" height="32.3" transform="translate(104.41 284.29) rotate(-81.48)"/><path class="cls-6" d="M214.16,87.94a1.41,1.41,0,0,1-.73,1,2.07,2.07,0,0,1-1.35.28A1.69,1.69,0,0,1,210.57,88l-1.35-4.33-2.57,3.75a1.63,1.63,0,0,1-1.71.71,2.19,2.19,0,0,1-1.31-.65,1.39,1.39,0,0,1-.39-1.21,1.72,1.72,0,0,1,.31-.72l4.25-6.12-2.19-6.7a1.44,1.44,0,0,1-.08-.74,1.35,1.35,0,0,1,.79-1,2.18,2.18,0,0,1,1.42-.19A1.58,1.58,0,0,1,209.12,72l1.28,3.82,2.35-3.28a1.65,1.65,0,0,1,1.76-.74,2,2,0,0,1,1.21.67,1.4,1.4,0,0,1,.1,1.88l-4,5.66,2.26,7.1A1.61,1.61,0,0,1,214.16,87.94Z"/><path class="cls-6" d="M226.69,89.81a1.41,1.41,0,0,1-.72,1,2.12,2.12,0,0,1-1.35.27,1.72,1.72,0,0,1-1.52-1.21l-1.35-4.33-2.57,3.75a1.62,1.62,0,0,1-1.7.72,2.39,2.39,0,0,1-1.27-.65,1.4,1.4,0,0,1-.4-1.21,1.69,1.69,0,0,1,.31-.73l4.25-6.13-2.18-6.65a1.48,1.48,0,0,1-.08-.75,1.32,1.32,0,0,1,.77-1,2.25,2.25,0,0,1,1.44-.24,1.63,1.63,0,0,1,1.38,1.21L223,77.68l2.34-3.28a1.71,1.71,0,0,1,1.78-.76,2.12,2.12,0,0,1,1.21.67,1.46,1.46,0,0,1,.39,1.21,1.77,1.77,0,0,1-.3.69l-4,5.72,2.27,7.1A1.72,1.72,0,0,1,226.69,89.81Z"/><rect class="cls-7" x="184.05" y="126.75" width="47.98" height="32.3" transform="matrix(0.15, -0.99, 0.99, 0.15, 35.89, 327.47)"/><path class="cls-6" d="M206.73,149.52a1.39,1.39,0,0,1-.73,1,2,2,0,0,1-1.34.28,1.7,1.7,0,0,1-1.52-1.21l-1.35-4.29-2.51,3.7a1.63,1.63,0,0,1-1.71.73,2.26,2.26,0,0,1-1.3-.66,1.39,1.39,0,0,1-.4-1.21,1.86,1.86,0,0,1,.31-.72l4.25-6.12-2.24-6.6a1.56,1.56,0,0,1-.09-.74,1.36,1.36,0,0,1,.78-1,2.19,2.19,0,0,1,1.44-.23,1.59,1.59,0,0,1,1.38,1.21l1.28,3.82,2.34-3.36a1.65,1.65,0,0,1,1.76-.74,2,2,0,0,1,1.21.66,1.46,1.46,0,0,1,.4,1.21,1.69,1.69,0,0,1-.31.68l-4,5.78,2.27,7.1A1.86,1.86,0,0,1,206.73,149.52Z"/><path class="cls-6" d="M219.27,151.36a1.42,1.42,0,0,1-.73,1,2,2,0,0,1-1.34.27,1.7,1.7,0,0,1-1.52-1.21l-1.36-4.34-2.56,3.75a1.63,1.63,0,0,1-1.71.72,2.31,2.31,0,0,1-1.3-.65,1.33,1.33,0,0,1-.4-1.21,1.6,1.6,0,0,1,.31-.72l4.25-6.1-2.18-6.65a1.49,1.49,0,0,1-.1-.75,1.38,1.38,0,0,1,.74-1.06,2.26,2.26,0,0,1,1.44-.25,1.63,1.63,0,0,1,1.38,1.21l1.32,3.87,2.34-3.27a1.68,1.68,0,0,1,1.77-.74,2.05,2.05,0,0,1,1.21.66,1.4,1.4,0,0,1,.4,1.21,1.6,1.6,0,0,1-.31.69l-4,5.72,2.27,7.1A1.81,1.81,0,0,1,219.27,151.36Z"/><path class="cls-6" d="M197.38,210.26a1.39,1.39,0,0,1-.73,1,2,2,0,0,1-1.34.28,1.72,1.72,0,0,1-1.52-1.21L192.43,206l-2.56,3.75a1.6,1.6,0,0,1-1.71.71,2.29,2.29,0,0,1-1.3-.64,1.42,1.42,0,0,1-.4-1.21,1.67,1.67,0,0,1,.31-.74l4.25-6.12-2.18-6.66a1.43,1.43,0,0,1-.08-.74,1.29,1.29,0,0,1,.77-1,2.26,2.26,0,0,1,1.44-.25,1.62,1.62,0,0,1,1.38,1.21l1.28,3.82,2.33-3.24a1.68,1.68,0,0,1,1.77-.73,2,2,0,0,1,1.21.66,1.43,1.43,0,0,1,.39,1.21,1.37,1.37,0,0,1-.31.68l-4,5.73,2.28,7.1A1.79,1.79,0,0,1,197.38,210.26Z"/><path class="cls-6" d="M209.92,212.15a1.4,1.4,0,0,1-.73,1,2.09,2.09,0,0,1-1.34.28,1.72,1.72,0,0,1-1.52-1.21L205,207.91l-2.56,3.73a1.64,1.64,0,0,1-1.72.73,2.28,2.28,0,0,1-1.29-.65,1.35,1.35,0,0,1-.4-1.21,1.76,1.76,0,0,1,.31-.73l4.25-6.12L201.38,197a1.45,1.45,0,0,1-.09-.74,1.34,1.34,0,0,1,.78-1,2.32,2.32,0,0,1,1.44-.23,1.58,1.58,0,0,1,1.37,1.21l1.28,3.82,2.34-3.28a1.66,1.66,0,0,1,1.77-.73,1.93,1.93,0,0,1,1.21.66,1.4,1.4,0,0,1,.4,1.21,1.67,1.67,0,0,1-.3.68l-4,5.73,2.26,7.1A1.64,1.64,0,0,1,209.92,212.15Z"/><rect class="cls-3" x="246.38" y="52.09" width="47.69" height="74.9" transform="translate(141.21 343.31) rotate(-81.38)"/><text class="cls-2" transform="matrix(0.99, 0.16, -0.16, 0.99, 185.78, 146.07)">XX</text><text class="cls-2" transform="matrix(0.99, 0.16, -0.16, 0.99, 175.62, 206.69)">XX</text><path class="cls-8" d="M290.07,78.88a.81.81,0,0,1-.22,0A3.22,3.22,0,0,1,288,77a3.31,3.31,0,0,1,.13-2.65l8.47-16.68a.43.43,0,0,1,.18-.22l15.58-11a3.74,3.74,0,0,1,1.43-.59l11.84-2.12a.63.63,0,0,1,.71.51.61.61,0,0,1-.5.7L314,47.09a2.31,2.31,0,0,0-.94.4L297.59,58.37l-8.34,16.55a2,2,0,0,0,.26,2.26v-.34a.61.61,0,0,1,.6-.61.54.54,0,0,1,.22,0q4.65,1.82,6.05-.68l6.76-12.49a.55.55,0,0,1,.17-.2l12.09-9a.61.61,0,0,1,.85.12.62.62,0,0,1-.12.85h0l-12.1,9-6.69,12.37c-.8,1.48-2.6,2.88-6.7,1.54v.63a.63.63,0,0,1-.27.49A.52.52,0,0,1,290.07,78.88Z"/><path class="cls-6" d="M310.89,46.27,290.33,56.85l-7.49,23.36a2.41,2.41,0,0,0,1.56,3l.07,0,1.49.43a5.68,5.68,0,0,0,7-3.91h0l5.2-18.47"/><path class="cls-8" d="M287.53,84.46a7.23,7.23,0,0,1-1.74-.24l-1.49-.38a3,3,0,0,1-2.05-3.75.19.19,0,0,1,0-.07l7.48-23.3a.58.58,0,0,1,.31-.36l20.55-10.59a.61.61,0,0,1,.56,1.08h0L290.83,57.24l-7.44,23.09a1.82,1.82,0,0,0,.12,1.41,1.92,1.92,0,0,0,1.09.89l1.49.43a5.08,5.08,0,0,0,6.27-3.5h0l5.18-18.46a.63.63,0,0,1,1.21.33l-5.2,18.45a6.28,6.28,0,0,1-6,4.59Z"/><path class="cls-6" d="M313.83,43.13,285.59,61.4l-7.48,23.3a2.42,2.42,0,0,0,1.57,3l.08,0,1.49.42a5.67,5.67,0,0,0,7-3.9v0l5.2-18.45"/><path class="cls-8" d="M282.79,89a5.94,5.94,0,0,1-1.73-.25l-1.49-.42a3,3,0,0,1-2.07-3.74l0-.08L285,61.21a.66.66,0,0,1,.25-.32L313.5,42.63a.6.6,0,0,1,.66,1L286.11,61.78l-7.43,23.1a1.8,1.8,0,0,0,.13,1.4,1.73,1.73,0,0,0,1.09.89l1.48.42a5.07,5.07,0,0,0,6.27-3.47v0l5.2-18.38a.63.63,0,1,1,1.21.33l-5.2,18.46a6.31,6.31,0,0,1-6.05,4.58Z"/><path class="cls-6" d="M407.66,37.21H302.52a12.65,12.65,0,0,0-9,3.71L274.07,60.4V89.5a2.75,2.75,0,0,0,2.68,2.81h1.55A5.71,5.71,0,0,0,284,86.6h0V71a3.06,3.06,0,0,1,.88-2.14l9.29-9.23a3.14,3.14,0,0,1,2.22-.92h25.51a5.93,5.93,0,0,1,5.92,5.93V79l-10,10a5.5,5.5,0,0,0,0,7.77h0a5.5,5.5,0,0,0,7.78,0h0L339.37,83,356.3,66.1h51.37"/><path class="cls-9" d="M321.73,99.56A6.71,6.71,0,0,1,317,88.11l9.68-9.67V64.6a4.74,4.74,0,0,0-4.72-4.72H296.4a1.93,1.93,0,0,0-1.36.57l-9.23,9.28a1.83,1.83,0,0,0-.53,1.29V86.54a6.93,6.93,0,0,1-6.88,7h-1.59a4,4,0,0,1-3.95-4V60.4a1.17,1.17,0,0,1,.35-.85l19.48-19.48A13.79,13.79,0,0,1,302.52,36H407.66a1.21,1.21,0,0,1,0,2.42H302.52a11.4,11.4,0,0,0-8.12,3.36L275.28,60.86V89.5a1.53,1.53,0,0,0,1.47,1.6h1.55a4.52,4.52,0,0,0,4.5-4.5V71A4.21,4.21,0,0,1,284,68l9.29-9.29a4.26,4.26,0,0,1,3.07-1.2h25.5A7.14,7.14,0,0,1,329,64.66V79a1.24,1.24,0,0,1-.35.86l-10,10a4.29,4.29,0,1,0,5.5,6.59,4.08,4.08,0,0,0,.55-.55L355.4,65.25a1.25,1.25,0,0,1,.86-.35h51.37a1.21,1.21,0,0,1,0,2.42H356.78L326.47,97.63A6.68,6.68,0,0,1,321.73,99.56Z"/><path class="cls-6" d="M322.8,58.77A5.2,5.2,0,0,1,328,64V75a9.44,9.44,0,0,1-2.76,6.68l-7.13,7.13a5.43,5.43,0,0,0,0,7.68h0a5.43,5.43,0,0,0,7.68,0v0l13.6-13.6,16.73-16.74h51.32"/><path class="cls-8" d="M322,98.64a6,6,0,0,1-4.28-10.31l7.12-7.13a8.73,8.73,0,0,0,2.6-6.25V64a4.61,4.61,0,0,0-4.61-4.59.61.61,0,0,1,0-1.21,5.81,5.81,0,0,1,5.82,5.8V75a10,10,0,0,1-2.9,7.11l-7.13,7.13a4.83,4.83,0,0,0,0,6.84h0a4.83,4.83,0,0,0,6.84,0L355.72,65.7a.6.6,0,0,1,.42-.18h51.32a.61.61,0,1,1,0,1.21H356.4L326.24,96.88A6,6,0,0,1,322,98.64Z"/><rect class="cls-6" x="360.79" y="31.8" width="50.39" height="43.01"/><path class="cls-9" d="M411.18,75.38H360.79a.58.58,0,0,1-.56-.56v-43a.57.57,0,0,1,.56-.56h50.4a.55.55,0,0,1,.55.56h0v43a.55.55,0,0,1-.55.56Zm-49.84-1.13h49.27V32.37H361.34Z"/><rect class="cls-9" x="369.69" y="28.21" width="58.82" height="50.2"/><circle class="cls-10" cx="381.82" cy="69.29" r="4.17"/><circle class="cls-10" cx="393.61" cy="69.29" r="4.17"/><path id="Path_2863-5" data-name="Path 2863-5" class="cls-11" d="M240.62,116.49H333l29.91,22.09H210.71Z"/><polyline id="Rectangle_1408" data-name="Rectangle 1408" class="cls-11" points="362.83 138.65 362.83 268.79 210.62 268.79 210.62 138.65"/><path id="Path_2863-2" data-name="Path 2863-2" class="cls-12" d="M242.54,246.07h77"/><path id="Path_2863-3" data-name="Path 2863-3" class="cls-12" d="M214.12,265.65l25-18.54"/><path id="Path_2863-3-2" data-name="Path 2863-3-2" class="cls-12" d="M334.51,247.17l25.07,18.48"/><path id="Path_2863-4" data-name="Path 2863-4" class="cls-12" d="M322.09,246.07h9.07"/><line id="Line_41" data-name="Line 41" class="cls-12" x1="240.62" y1="119.72" x2="240.62" y2="244.8"/><line id="Line_42" data-name="Line 42" class="cls-12" x1="333.02" y1="119.83" x2="333.02" y2="245"/><path id="Path_2863-6" data-name="Path 2863-6" class="cls-13" d="M264,122.46h45.59l12,10.09H252Z"/><circle id="Ellipse_423" data-name="Ellipse 423" class="cls-14" cx="333.42" cy="239.33" r="20.7"/><g class="cls-15"><g id="Group_8347" data-name="Group 8347"><path id="Path_2900" data-name="Path 2900" class="cls-9" d="M327.75,232l1.75,1,1.56.87A7.07,7.07,0,0,0,334,235a2.64,2.64,0,0,0,1.59-1l1.21,1.1c-.69.62-1.35,1.28-2,2s-1.29,1.47-1.93,2.29c-1.21-.75-2.2-1.38-3.1-1.91s-1.71-1-2.5-1.44-1.63-.87-2.55-1.36-2.07-1-3.4-1.66l.17-1.67a33.23,33.23,0,0,0,8-2.08,8.25,8.25,0,0,0,4.16-3.1,2.64,2.64,0,0,0,.26-2.09,2.69,2.69,0,0,0-1.36-1.63,3.39,3.39,0,0,0-2-.38,6.43,6.43,0,0,0-2.33.82l-1-1.86a11.73,11.73,0,0,1,4.53-1.68,6.26,6.26,0,0,1,3.79.79,6.68,6.68,0,0,1,3.22,3.54,5.06,5.06,0,0,1-.36,4.31,6.07,6.07,0,0,1-3.14,2.61A31.06,31.06,0,0,1,327.75,232Z"/></g></g><circle id="Ellipse_425" data-name="Ellipse 425" class="cls-14" cx="240.8" cy="242.52" r="20.7"/><g id="Group_8349" data-name="Group 8349"><path id="Path_2901" data-name="Path 2901" class="cls-9" d="M243.86,237.21c.34,1.09.75,2.35,1.21,3.75s1,2.9,1.62,4.48l.73,1.93q1,2.64,1.41,3.51a3.12,3.12,0,0,0,.75,1.11,1.51,1.51,0,0,0,.94.3,6.33,6.33,0,0,0,1.67-.44l.55,1.44c-1.21.38-2.29.72-3.14,1s-1.59.56-2.21.79-1,.4-1.78.71l-3,1.28-.54-1.45a7.81,7.81,0,0,0,1.94-.91,1.44,1.44,0,0,0,.52-.84,4.22,4.22,0,0,0-.25-1.65c-.23-.8-.86-2.59-1.91-5.37-.33-.85-.66-1.71-1-2.6s-.7-1.76-1.07-2.67c-.53.19-1,.41-1.59.64s-1.06.46-1.59.72l-.78-1.58c1.35-.65,2.63-1.33,3.87-2S242.7,237.94,243.86,237.21Z"/></g><circle id="Ellipse_426" data-name="Ellipse 426" class="cls-14" cx="279.64" cy="235.42" r="20.7"/><g class="cls-16"><g id="Group_8351" data-name="Group 8351"><path id="Path_2902" data-name="Path 2902" class="cls-9" d="M290.48,243.27l.62-.24.38-.16a4,4,0,0,1,3.12.1,3.81,3.81,0,0,1,2,2.32,5.3,5.3,0,0,1-.73,4.84,8.9,8.9,0,0,1-4.84,3.52,8.72,8.72,0,0,1-4.66.48,3,3,0,0,1-2.52-1.88,1.77,1.77,0,0,1,.14-1.44,2,2,0,0,1,1.21-1,1.47,1.47,0,0,1,1,0,5.08,5.08,0,0,1,1.32,1.08,3.08,3.08,0,0,0,1.31.91,2.27,2.27,0,0,0,1.41-.09A3,3,0,0,0,292,250a3.55,3.55,0,0,0,.11-2.62,2.6,2.6,0,0,0-1.35-1.59,2.79,2.79,0,0,0-2.16,0,4.48,4.48,0,0,0-.94.44,9.69,9.69,0,0,0-1.09.71l-1-1.21a11.49,11.49,0,0,0,2.77-2.88,2.89,2.89,0,0,0,.23-2.42,2.09,2.09,0,0,0-1.14-1.28,2.57,2.57,0,0,0-1.85,0,3.44,3.44,0,0,0-1.53,1.21,7.51,7.51,0,0,0-1.14,2.28l-1.9-.55a9.5,9.5,0,0,1,1.81-4.09,7.09,7.09,0,0,1,3.33-2.32,6.19,6.19,0,0,1,4.18-.1,3.93,3.93,0,0,1,2.52,2.52,3.56,3.56,0,0,1-.1,2.7A7,7,0,0,1,290.48,243.27Z"/></g></g><path id="Path_2863" data-name="Path 2863" class="cls-17" d="M210.71,138.55l29.91-22.06H333l29.91,22.09"/><line id="Rectangle_1408-2" data-name="Rectangle 1408-2" class="cls-18" x1="325.92" y1="138.65" x2="354.12" y2="138.65"/><line id="Rectangle_1408-3" data-name="Rectangle 1408-3" class="cls-18" x1="216.63" y1="138.65" x2="320.67" y2="138.65"/><polyline id="Rectangle_1408-4" data-name="Rectangle 1408-4" class="cls-17" points="362.83 138.65 362.83 268.79 210.62 268.79 210.62 138.65"/></svg>