<svg id="圖層_1" data-name="圖層 1" xmlns="http://www.w3.org/2000/svg" viewBox="0 0 599 297"><defs><style>.cls-1{fill:#fff;}.cls-2{fill:#424242;}.cls-3{fill:none;}.cls-4{fill:#00ffa7;}.cls-5{fill:#afafaf;}.cls-6{fill:#525252;}.cls-7{fill:#ffda6a;}</style></defs><title>1</title><rect class="cls-1" x="152.97" y="65.98" width="215.35" height="165.07" transform="translate(74.2 383.53) rotate(-81.25)"/><path class="cls-2" d="M325.85,268.7h-.19L162.52,243.58a1.2,1.2,0,0,1-1-1.33l32.74-212.9a1.21,1.21,0,0,1,1.35-1h0L358.77,53.43a1.19,1.19,0,0,1,.79.49,1.17,1.17,0,0,1,.23.9L327,267.66A1.21,1.21,0,0,1,325.85,268.7ZM164.09,241.36l160.74,24.73L357.21,55.65,196.46,30.92Z"/><line class="cls-3" x1="254.63" y1="237.52" x2="228.36" y2="233.48"/><path class="cls-2" d="M254.63,238.12h-.09l-26.27-4a.6.6,0,0,1-.51-.68v0a.58.58,0,0,1,.66-.5h0l26.27,4a.61.61,0,0,1,.52.68A.62.62,0,0,1,254.63,238.12Z"/><line class="cls-3" x1="275.92" y1="240.79" x2="264.97" y2="239.11"/><path class="cls-2" d="M275.92,241.4h-.1l-10.93-1.68a.62.62,0,0,1-.52-.69.61.61,0,0,1,.7-.51L276,240.2a.63.63,0,0,1,.51.7A.61.61,0,0,1,275.92,241.4Z"/><polyline class="cls-1" points="337.52 100.19 314.96 246.8 269.69 239.84"/><path class="cls-2" d="M314.93,247.41h0l-45.27-7a.63.63,0,0,1-.51-.7.6.6,0,0,1,.68-.5h0l44.67,6.87L337.35,97.28a.62.62,0,0,1,.7-.5.6.6,0,0,1,.51.68v0l-23,149.43a.58.58,0,0,1-.24.39A.61.61,0,0,1,314.93,247.41Z"/><polyline class="cls-1" points="250.12 56.86 342 71 339.3 88.63"/><path class="cls-2" d="M339.3,89.23h-.1a.6.6,0,0,1-.5-.68v0l2.67-17L250,57.47a.62.62,0,0,1-.5-.7.6.6,0,0,1,.68-.51h0L342.1,70.39a.59.59,0,0,1,.51.68h0L339.9,88.7A.61.61,0,0,1,339.3,89.23Z"/><circle class="cls-2" cx="212.48" cy="70.59" r="2.78"/><circle class="cls-2" cx="233.23" cy="73.78" r="2.78"/><path class="cls-1" d="M226.22,82.4a10.34,10.34,0,1,0-10.08-1.55,13.89,13.89,0,0,0-10.66,11.42l-1.2,7.66,27.48,4.22L233,96.5A13.88,13.88,0,0,0,226.22,82.4Z"/><path class="cls-4" d="M229.13,84.69l-9.48,6.93-7-9.48a13.87,13.87,0,0,0-7.21,10.13l-1.2,7.66,27.48,4.22L233,96.5A13.81,13.81,0,0,0,229.13,84.69Z"/><path class="cls-2" d="M232.28,104.84l-28.66-4.41,1.2-8.25a14.43,14.43,0,0,1,10-11.63,10.94,10.94,0,1,1,15.47-.14,11.08,11.08,0,0,1-2.86,2.09,14.45,14.45,0,0,1,6,14.09ZM205,99.42l26.26,4,1.08-7a13.22,13.22,0,0,0-6.43-13.49l-1.12-.64,1.21-.44a9.75,9.75,0,1,0-9.5-1.47l1,.8-1.2.27a13.21,13.21,0,0,0-10.19,10.93Z"/><circle class="cls-2" cx="234.12" cy="70.19" r="2.78"/><circle class="cls-2" cx="211.74" cy="67.67" r="2.78"/><circle class="cls-2" cx="215.94" cy="63.25" r="2.78" transform="translate(152.33 279.08) rotate(-89.9)"/><circle class="cls-2" cx="220.04" cy="61.91" r="2.78" transform="translate(157.75 281.85) rotate(-89.9)"/><circle class="cls-2" cx="224.72" cy="61.78" r="2.78" transform="translate(162.56 286.4) rotate(-89.9)"/><circle class="cls-2" cx="216.95" cy="59.21" r="2.78" transform="translate(157.37 276.06) rotate(-89.9)"/><circle class="cls-2" cx="222.21" cy="59.01" r="2.78" transform="translate(162.82 281.12) rotate(-89.9)"/><circle class="cls-2" cx="214.44" cy="61.78" r="2.78" transform="translate(152.3 276.12) rotate(-89.9)"/><circle class="cls-2" cx="226.23" cy="59.46" r="2.78" transform="translate(166.39 285.6) rotate(-89.9)"/><circle class="cls-2" cx="225.89" cy="57.12" r="3.58"/><circle class="cls-2" cx="220.17" cy="57.88" r="3.58"/><circle class="cls-2" cx="230.1" cy="59.81" r="3.58"/><circle class="cls-2" cx="228.62" cy="62.8" r="2.78" transform="translate(165.44 291.31) rotate(-89.9)"/><circle class="cls-2" cx="230.38" cy="61.43" r="2.78" transform="translate(168.56 291.71) rotate(-89.9)"/><circle class="cls-2" cx="234.07" cy="63.05" r="2.78" transform="translate(170.63 297.01) rotate(-89.9)"/><circle class="cls-2" cx="232.18" cy="64.51" r="2.78"/><circle class="cls-2" cx="233.51" cy="67.53" r="2.78"/><circle class="cls-2" cx="212.92" cy="64.71" r="2.78"/><path class="cls-2" d="M218.6,74.12a5.58,5.58,0,0,1-.91-.07,5,5,0,0,1-2.33-.94,1.64,1.64,0,0,1-.72-2.21,1.68,1.68,0,0,1,1.19-.88,5.09,5.09,0,0,1,2.51-.19c2,.3,3.37,1.47,3.19,2.65h0C221.37,73.47,220.15,74.12,218.6,74.12Zm-1.2-3.75a3.81,3.81,0,0,0-1.38.23c-.55.21-.89.52-1,.89a1.27,1.27,0,0,0,.64,1.14,4.45,4.45,0,0,0,2,.82c1.59.24,3-.24,3.15-1.06h0c.12-.81-1.11-1.72-2.68-2a5.23,5.23,0,0,0-.79,0Z"/><path class="cls-2" d="M226.82,75.39a6.84,6.84,0,0,1-.9-.08c-2-.3-3.37-1.46-3.18-2.64s1.86-1.88,3.83-1.58a5.15,5.15,0,0,1,2.33,1,1.83,1.83,0,0,1,.86,1.71h0a1.84,1.84,0,0,1-1.36,1.37A4.73,4.73,0,0,1,226.82,75.39Zm-1.2-3.75c-1.2,0-2.23.44-2.33,1.13s1.14,1.7,2.71,1.94a4.4,4.4,0,0,0,2.19-.15c.56-.22.89-.53.94-.91h0a1.33,1.33,0,0,0-.62-1.14,4.67,4.67,0,0,0-2.06-.81,5.23,5.23,0,0,0-.78-.11Z"/><rect class="cls-2" x="221.82" y="71.65" width="0.61" height="1.83" transform="translate(116.73 281.13) rotate(-81.28)"/><path class="cls-1" d="M198.22,197.28a13.86,13.86,0,0,0-10.65,11.42l-1.2,7.65,27.49,4.27,1.2-7.66a13.88,13.88,0,0,0-6.73-14.08"/><path class="cls-2" d="M211.21,201.1l-9.47,7-7-9.48a13.81,13.81,0,0,0-7.21,10.13l-1.2,7.65,27.52,4.27,1.2-7.66A13.79,13.79,0,0,0,211.21,201.1Z"/><path class="cls-2" d="M214.36,221.27l-28.66-4.41L187,208.6a14.43,14.43,0,0,1,11.12-11.92l.28,1.2a13.21,13.21,0,0,0-10.19,10.93l-1.09,7,26.26,4,1.08-7A13.2,13.2,0,0,0,208,199.35l.61-1a14.43,14.43,0,0,1,7,14.71Z"/><path class="cls-2" d="M204.87,200.19a10.84,10.84,0,0,1-1.62-.13h0l-.53-.09a10.66,10.66,0,0,1-8.93-12.17h0l.5-3.3a10.66,10.66,0,0,1,12.15-8.93h0l.54.08a10.69,10.69,0,0,1,8.93,12.18l-.51,3.3A10.7,10.7,0,0,1,204.87,200.19Zm-1.44-1.34A9.45,9.45,0,0,0,214.24,191v0l.51-3.31a9.46,9.46,0,0,0-7.9-10.81h0l-.54-.07a9.48,9.48,0,0,0-10.82,7.9h0L195,188a9.43,9.43,0,0,0,7.85,10.8h.06Z"/><path class="cls-2" d="M294.63,98.52l-6-.92L290.1,88l6,.93ZM285,97l-6-.92,1.48-9.62,6,.93Zm-9.62-1.48-6-.92L270.87,85l6,.93Zm-9.61-1.47-6-.93,1.48-9.61,6,.92Zm-9.62-1.48-6-.93,1.48-9.61,6,.92Z"/><path class="cls-2" d="M285.66,156.73l-6-.93,1.47-9.61,6,.91Zm-9.61-1.48-6-.93,1.48-9.61,6,.93Zm-9.61-1.48-6-.92,1.48-9.62,6,.93Zm-9.62-1.48-6-.92,1.48-9.62,6,.93Zm-9.61-1.47-6-.93,1.48-9.62,6,.93Z"/><path class="cls-2" d="M276.39,217l-6-.91,1.48-9.61,6,.92Zm-9.62-1.47-6-.92,1.48-9.61,6,.92Zm-9.61-1.48-6-.93,1.48-9.61,6,.92Zm-9.62-1.48-6-.91,1.48-9.62,6,.93Zm-9.61-1.48-6-.92,1.48-9.62,6,.93Z"/><rect class="cls-2" x="201.26" y="129.72" width="22.34" height="21.86" transform="translate(41.54 329.61) rotate(-81.38)"/><path class="cls-1" d="M207.18,139.06a13.85,13.85,0,0,0-10.65,11.43l-1.2,7.64,27.46,4.24,1.2-7.66a13.9,13.9,0,0,0-6.73-14.1"/><path class="cls-5" d="M220.17,142.89l-9.47,7-7-9.48a13.83,13.83,0,0,0-7.21,10.13l-1.2,7.64,27.46,4.24,1.2-7.66A13.83,13.83,0,0,0,220.17,142.89Z"/><path class="cls-2" d="M223.33,163.05l-28.68-4.41,1.3-8.25a14.44,14.44,0,0,1,11.12-11.92l.27,1.2a13.24,13.24,0,0,0-10.19,10.9l-1.08,7.06,26.24,4.1,1.08-7.06A13.24,13.24,0,0,0,217,141.2l.62-1.11a14.44,14.44,0,0,1,7,14.72Z"/><rect class="cls-1" x="202.06" y="119.21" width="23.48" height="20.68" rx="9.95" transform="translate(53.23 321.16) rotate(-81.25)"/><path class="cls-2" d="M213.82,141.92a11,11,0,0,1-1.62-.12h0l-.54-.08a10.69,10.69,0,0,1-8.93-12.18l.5-3.3a10.71,10.71,0,0,1,12.19-9l.53.08a10.69,10.69,0,0,1,8.93,12.18l-.51,3.36A10.7,10.7,0,0,1,213.82,141.92Zm-1.44-1.32a9.46,9.46,0,0,0,10.81-7.9v0l.5-3.29a9.47,9.47,0,0,0-7.9-10.82h0l-.61-.11a9.46,9.46,0,0,0-10.81,7.9v0l-.5,3.29a9.47,9.47,0,0,0,7.9,10.82h0Z"/><path class="cls-2" d="M203.58,128s14.59,3.46,16.41-8.25L215.6,118l-6.84,1.31-3.6,3.7Z"/><path class="cls-2" d="M194.63,186.2s10.07,2.5,12-10C206.63,176.15,196.48,174.16,194.63,186.2Z"/><path class="cls-2" d="M215.07,189.37s-10.37-.64-8.41-13.22C206.63,176.15,216.92,177.35,215.07,189.37Z"/><path class="cls-1" d="M297.27,113.29l24.87-10H340c10.37,0,15.34,6.18,15.34,6.18L368,141.72,387.29,161,365.5,182.79"/><path class="cls-6" d="M365.54,184a1.2,1.2,0,0,1-.85-2.05L385.63,161l-18.45-18.44a1.22,1.22,0,0,1-.27-.41l-12.59-32c-.75-.87-5.37-5.62-14.3-5.62H322.4l-24.68,9.87a1.21,1.21,0,0,1-.89-2.24h0l24.9-10a1.12,1.12,0,0,1,.45-.08H340c10.82,0,16.07,6.36,16.29,6.63a1.26,1.26,0,0,1,.18.32L369,141l19.23,19.11a1.25,1.25,0,0,1,.35.86,1.23,1.23,0,0,1-.35.85l-21.79,21.78A1.19,1.19,0,0,1,365.54,184Z"/><polygon class="cls-1" points="265.15 109.36 285.18 124.8 290.28 106.49 265.15 109.36"/><path class="cls-6" d="M285.18,125.4a.63.63,0,0,1-.37-.12l-20-15.45a.58.58,0,0,1-.22-.64.61.61,0,0,1,.51-.43l25.13-2.86a.57.57,0,0,1,.53.21.64.64,0,0,1,.12.55L285.76,125a.67.67,0,0,1-.4.42Zm-18.49-15.63,18.19,14,4.63-16.58Z"/><rect class="cls-7" x="321.89" y="81.42" width="20.01" height="93.18" transform="translate(119.55 413.4) rotate(-74.44)"/><polygon class="cls-6" points="276.11 107.9 273.83 116.18 265.69 109.71 276.11 107.9"/><polygon class="cls-1" points="373.82 134.45 292.79 111.9 291.54 116.39 290.39 116.08 291.96 110.41 292.54 110.58 374.13 133.29 373.82 134.45"/><polygon class="cls-1" points="371.67 141.47 291.18 119.06 289.88 123.75 288.73 123.42 290.35 117.58 290.93 117.75 371.99 140.31 371.67 141.47"/><path class="cls-1" d="M363.25,178.43l-12-12H328.81l-28.22-41.1s13.7-7.88,19.93,0a137.66,137.66,0,0,0,15.34,15.77"/><path class="cls-6" d="M363.25,179.64a1.22,1.22,0,0,1-.84-.35l-11.69-11.68H328.81a1.26,1.26,0,0,1-1-.53L299.61,126a1.21,1.21,0,0,1,.38-1.72c.6-.35,14.67-8.31,21.46.29a135.19,135.19,0,0,0,15.21,15.62,1.21,1.21,0,0,1-1.58,1.83,139.85,139.85,0,0,1-15.51-15.94c-4.53-5.73-13.93-1.9-17.21-.3l27.09,39.44h21.77a1.2,1.2,0,0,1,.86.34l12,12a1.19,1.19,0,0,1,0,1.7h0A1.18,1.18,0,0,1,363.25,179.64Z"/><polyline class="cls-1" points="348.94 183.09 382.82 149.22 407.79 174.19 360.27 194.42 348.94 183.09"/><path class="cls-6" d="M360.27,195a.58.58,0,0,1-.43-.18l-11.33-11.33a.6.6,0,0,1,0-.84l33.88-33.87a.59.59,0,0,1,.84,0h0l25,24.95a.55.55,0,0,1,.16.54.61.61,0,0,1-.35.43L360.5,195A.88.88,0,0,1,360.27,195Zm-10.49-11.93L360.4,193.7,406.75,174l-23.93-23.92Z"/><polygon class="cls-2" points="437.51 197.42 356.94 197.57 351.51 192.15 391.88 151.79 437.51 197.42"/></svg>