<svg id="圖層_1" data-name="圖層 1" xmlns="http://www.w3.org/2000/svg" viewBox="0 0 598 296"><defs><style>.cls-1{fill:#424242;}.cls-2{fill:#fff;}.cls-3{fill:#ffda6a;}.cls-4{fill:#f4f4f4;}.cls-5{fill:#f8f8f8;}.cls-6{fill:#00ffa7;}.cls-7{fill:none;stroke:#fff;stroke-miterlimit:10;}</style></defs><title>8</title><rect class="cls-1" x="240.1" y="112.38" width="117.88" height="144.92" rx="56.59"/><polyline class="cls-2" points="286.01 136.33 297.05 124.78 308.94 136.33 297.76 166.27"/><polygon class="cls-3" points="300.43 139.8 293.94 139.8 290.31 125.89 304.06 125.89 300.43 139.8"/><polygon class="cls-3" points="293.94 139.8 300.43 139.8 305.38 162.51 297.21 168.87 288.98 162.58 293.94 139.8"/><path class="cls-1" d="M280.33,39.18h.44V85.24h0A17.26,17.26,0,0,1,263.51,68V56A16.82,16.82,0,0,1,280.33,39.18Z"/><path class="cls-1" d="M289.05,27.09h5a35.63,35.63,0,0,1,35.63,35.63V74.81a8.47,8.47,0,0,1-8.46,8.47H283.83a8.47,8.47,0,0,1-8.46-8.47V40.75A13.66,13.66,0,0,1,289,27.09Z"/><path class="cls-2" d="M268.73,70.69v.21a9.72,9.72,0,1,0,.33,19.44h.32A28.8,28.8,0,0,0,284.53,110v3.28a12.72,12.72,0,1,0,25.39,1.56,13.53,13.53,0,0,0,0-1.56V110A28.84,28.84,0,0,0,325,90.29a7.53,7.53,0,0,0,1,0,9.73,9.73,0,0,0,0-19.45h-.33"/><path class="cls-1" d="M297.19,126.77a13.41,13.41,0,0,1-13.3-13.48v-2.9A29.2,29.2,0,0,1,268.9,91a10.34,10.34,0,0,1-.18-20.67v.4h.6v.8h-.58a9.12,9.12,0,0,0,.31,18.22h.79l.11.5a28,28,0,0,0,14.78,19.27l.33.17v3.62a12.09,12.09,0,1,0,24.18,0v-3.62l.33-.17a28,28,0,0,0,14.79-19.35l.11-.53H325a6.61,6.61,0,0,0,.89,0,9.12,9.12,0,0,0,0-18.23h-.25V70.16H326a10.35,10.35,0,0,1,0,20.69h-.47a29.25,29.25,0,0,1-15,19.44v2.9a13.42,13.42,0,0,1-13.24,13.58Z"/><path class="cls-2" d="M298,125.29a1.2,1.2,0,0,0,0,1.71l0,0,7.25,7.38a1.21,1.21,0,0,0,1.71,0l11.38-11.52a1.2,1.2,0,0,0,0-1.71l0,0-7.25-7.38a1.2,1.2,0,0,0-1.7,0Z"/><path class="cls-1" d="M306.17,135.22a1.64,1.64,0,0,1-1.21-.5l-7.25-7.37a1.77,1.77,0,0,1,0-2.42h0l11.38-11.52a1.63,1.63,0,0,1,2.32,0l0,0,7.26,7.37a1.71,1.71,0,0,1,0,2.41h0l-11.34,11.5A1.61,1.61,0,0,1,306.17,135.22Zm-7.81-9.6a.83.83,0,0,0-.23.54.76.76,0,0,0,.23.54l7.26,7.37a.75.75,0,0,0,1.06,0v0l11.4-11.46a.67.67,0,0,0,.22-.53.75.75,0,0,0-.22-.55l-7.25-7.37a.72.72,0,0,0-1,0l0,0Z"/><path class="cls-1" d="M313.05,114.81l15.64,15.82a1.21,1.21,0,0,1,0,1.71h0l-13.3,13.5a1.2,1.2,0,0,0,0,1.71l0,0L322,154.3a.86.86,0,0,1,.07,1.21.89.89,0,0,1-.29.22l-24.57,13.14"/><path class="cls-2" d="M296.62,125.29a1.2,1.2,0,0,1,0,1.71l0,0-7.25,7.38a1.21,1.21,0,0,1-1.71,0l-11.37-11.52a1.2,1.2,0,0,1,0-1.71l0,0,7.25-7.38a1.21,1.21,0,0,1,1.71,0Z"/><path class="cls-1" d="M288.49,135.22a1.61,1.61,0,0,1-1.21-.5L275.89,123.2a1.71,1.71,0,0,1,0-2.41h0l7.25-7.37a1.64,1.64,0,0,1,2.33,0l0,0L296.94,125h0a1.77,1.77,0,0,1,0,2.42l-7.26,7.37A1.59,1.59,0,0,1,288.49,135.22Zm-4.1-21.35a.72.72,0,0,0-.53.23l-7.26,7.37a.8.8,0,0,0-.22.55.75.75,0,0,0,.22.53L288,134.07a.75.75,0,0,0,1.06,0v0l7.26-7.37a.76.76,0,0,0,.23-.54.78.78,0,0,0-.23-.54l-11.39-11.47A.7.7,0,0,0,284.39,113.87Z"/><path class="cls-1" d="M281.35,115l-15.62,15.82a1.22,1.22,0,0,0,0,1.71l0,0L279,146a1.2,1.2,0,0,1,0,1.71l0,0-6.59,6.72a.86.86,0,0,0,.21,1.44l24.56,13.13"/><path class="cls-1" d="M315.64,147.87,322,154.3a1.07,1.07,0,0,1,0,1.52.52.52,0,0,1-.11.1l-24.43,19.55"/><path class="cls-2" d="M297.47,175.81a.33.33,0,0,1-.23-.12.29.29,0,0,1,0-.41h0l24.42-19.57a.75.75,0,0,0,.23-1,.69.69,0,0,0-.16-.18l-6.36-6.43a.32.32,0,0,1,0-.43.29.29,0,0,1,.43,0h0l6.35,6.43a1.39,1.39,0,0,1,0,2l-.12.12-24.43,19.55A.28.28,0,0,1,297.47,175.81Z"/><path class="cls-1" d="M315,116.72l13.74,13.91a1.21,1.21,0,0,1,0,1.71h0L314.5,146.72"/><path class="cls-2" d="M314.5,147a.28.28,0,0,1-.21-.1.31.31,0,0,1,0-.42l14.18-14.36a.9.9,0,0,0,.26-.64,1,1,0,0,0-.26-.66l-13.71-13.9a.3.3,0,0,1,0-.43h0a.31.31,0,0,1,.42,0l13.74,13.92a1.45,1.45,0,0,1,.44,1.08,1.52,1.52,0,0,1-.44,1.07l-14.16,14.35A.28.28,0,0,1,314.5,147Z"/><path class="cls-1" d="M279,147.87l-6.52,6.62a1.12,1.12,0,0,0-.08,1.57l.08.09,22.14,19.34"/><path class="cls-2" d="M294.62,175.81a.32.32,0,0,1-.2-.07l-22.15-19.35a1.41,1.41,0,0,1-.49-1,1.42,1.42,0,0,1,.42-1.07l6.54-6.63a.31.31,0,0,1,.43,0h0a.33.33,0,0,1,0,.44l-6.54,6.62a.81.81,0,0,0-.25.62.82.82,0,0,0,.29.59l22.14,19.35a.3.3,0,0,1,0,.42h0A.32.32,0,0,1,294.62,175.81Z"/><path class="cls-1" d="M279,117.35l-13.3,13.47a1.22,1.22,0,0,0,0,1.71l0,0,14.17,14.36"/><path class="cls-2" d="M279.9,147.21a.3.3,0,0,1-.2-.08l-14.19-14.36a1.57,1.57,0,0,1,0-2.16l13.3-13.48a.3.3,0,0,1,.41,0h0a.3.3,0,0,1,0,.43h0l-13.3,13.5a.93.93,0,0,0,0,1.31l14.18,14.31a.33.33,0,0,1,0,.44A.35.35,0,0,1,279.9,147.21Z"/><path class="cls-2" d="M325.89,70.88v-3.3a28.64,28.64,0,0,0-28.45-28.81h0A28.65,28.65,0,0,0,269,67.58v3.35"/><path class="cls-1" d="M269.59,71.55h-1.21v-4a29.05,29.05,0,0,1,58.1,0V71.5h-1.2V67.58a27.85,27.85,0,1,0-55.7,0Z"/><polyline class="cls-4" points="429.3 238.65 365.68 191.42 365.68 238.65"/><path class="cls-1" d="M429.3,239.26a.55.55,0,0,1-.35-.12l-62.68-46.51v46.05a.61.61,0,1,1-1.21,0V191.42a.63.63,0,0,1,.33-.55.6.6,0,0,1,.63,0l63.59,47.28a.63.63,0,0,1,.14.86A.59.59,0,0,1,429.3,239.26Z"/><polygon class="cls-4" points="231.6 191.32 231.6 238.55 167.97 238.55 231.6 191.32"/><path class="cls-1" d="M231.6,239.17H168a.61.61,0,0,1-.58-.43.66.66,0,0,1,.22-.69l63.63-47.22a.6.6,0,0,1,.63,0,.58.58,0,0,1,.32.54V238.6A.6.6,0,0,1,231.6,239.17ZM169.81,238H231V192.53Z"/><polygon class="cls-2" points="437.41 232.25 431.17 227.58 427.91 225.03 427.77 225.03 382.9 191.42 366.37 191.42 411.25 225.03 186.58 225.03 231.58 191.32 215.06 191.32 160.55 232.15 160.81 232.15 160.55 232.33 437.29 232.33 437.17 232.25 437.41 232.25"/><path class="cls-1" d="M437.29,233H160.55a.59.59,0,0,1-.54-.43.42.42,0,0,1,0-.27.6.6,0,0,1,.22-.59l54.52-40.82a.52.52,0,0,1,.36-.12h16.48a.6.6,0,0,1,.57.42.62.62,0,0,1-.22.68l-43.52,32.64h221L366,192a.62.62,0,0,1-.22-.68.6.6,0,0,1,.57-.42H382.9a.57.57,0,0,1,.35.12L428,224.46a.5.5,0,0,1,.29.12l3.27,2.54,6.23,4.67a.61.61,0,0,1,.21.69.75.75,0,0,1-.69.47Zm-275.16-1.21H435.66l-4.84-3.63-3.13-2.41a.69.69,0,0,1-.28-.11L382.68,192.1H368.17l43.4,32.5a.63.63,0,0,1,.22.69.6.6,0,0,1-.58.42H186.6a.61.61,0,0,1-.58-.42.64.64,0,0,1,.22-.69L229.76,192h-14.5Z"/><rect class="cls-5" x="160.61" y="232.33" width="276.74" height="35.96"/><path class="cls-1" d="M437.35,268.91H160.61a.62.62,0,0,1-.61-.61h0v-36a.6.6,0,0,1,.6-.6H437.35a.61.61,0,0,1,.61.6v36a.61.61,0,0,1-.6.62ZM161.21,267.7H436.75V233H161.21Z"/><path class="cls-1" d="M377.63,211.74H374V164.81a56.93,56.93,0,0,0-16.32-40.16l-13.59-13.82,2.55-2.6,13.59,13.82a60.62,60.62,0,0,1,17.4,42.76Z"/><path class="cls-1" d="M348.9,106.29a4.71,4.71,0,0,0-6.65-.08l-.07.08a4.82,4.82,0,0,0,0,6.83,4.68,4.68,0,0,0,6.61.1l.11-.1A4.9,4.9,0,0,0,348.9,106.29Z"/><path class="cls-1" d="M223.24,211.74h-3.63V164.81A60.57,60.57,0,0,1,237,122.05l13.64-13.82,2.55,2.6-13.64,13.82a56.94,56.94,0,0,0-16.35,40.16Z"/><path class="cls-1" d="M255.09,113.12a4.82,4.82,0,0,0,0-6.83,4.7,4.7,0,0,0-6.65-.08l-.07.08a4.9,4.9,0,0,0,0,6.83,4.69,4.69,0,0,0,6.62.1Z"/><path class="cls-6" d="M314.61,175.47a12.71,12.71,0,0,0-12.16,9.18,8.84,8.84,0,0,0-4.32-1.13,9,9,0,0,0-7.87,4.72,16.24,16.24,0,0,0-30.77,4.83,12.55,12.55,0,0,0-8.79-3.62,12.76,12.76,0,0,0-12.64,11.75h0a8.91,8.91,0,0,0-7.12,3.63,14.5,14.5,0,0,0-1.47-.09,12.73,12.73,0,0,0-12.22,9.4,12.51,12.51,0,0,0-4.83-1,12.75,12.75,0,0,0-12.64,11.24h198.4A12.73,12.73,0,0,0,386,215.13h-.24a8.87,8.87,0,0,0-12.49-1.2l-.06,0a10.69,10.69,0,0,0-10.54-9.33,10.33,10.33,0,0,0-2.77.37v-.37a15.11,15.11,0,0,0-15-15.21h0a14.74,14.74,0,0,0-5.17.94A8.9,8.9,0,0,0,327.26,189v-.71A12.78,12.78,0,0,0,314.61,175.47Z"/><ellipse class="cls-3" cx="243.24" cy="200.51" rx="5.95" ry="6.02"/><ellipse class="cls-3" cx="281.2" cy="214.94" rx="5.95" ry="6.02"/><ellipse class="cls-3" cx="318.51" cy="191.32" rx="5.95" ry="6.02"/><ellipse class="cls-3" cx="336.21" cy="211.74" rx="5.95" ry="6.02"/><ellipse class="cls-3" cx="353.07" cy="200.51" rx="5.95" ry="6.02"/><rect class="cls-7" width="598" height="296"/></svg>