<svg id="圖層_1" data-name="圖層 1" xmlns="http://www.w3.org/2000/svg" viewBox="0 0 598 296"><defs><style>.cls-1{fill:#424242;}.cls-2{fill:#fff;}.cls-3{fill:#ffda6a;}.cls-4{fill:#f4f4f4;}.cls-5{fill:#f8f8f8;}.cls-6{fill:#00ffa7;}</style></defs><title>8</title><rect class="cls-1" x="233.95" y="108.66" width="130.19" height="160.06" rx="62.51"/><polyline class="cls-2" points="284.65 135.11 296.84 122.36 309.98 135.11 297.63 168.18"/><polygon class="cls-3" points="300.58 138.95 293.41 138.95 289.4 123.58 304.59 123.58 300.58 138.95"/><polygon class="cls-3" points="293.41 138.95 300.58 138.95 306.04 164.03 297.03 171.05 287.94 164.1 293.41 138.95"/><path class="cls-1" d="M278.37,27.81h.5V78.68h0A19.07,19.07,0,0,1,259.8,59.62V46.35A18.57,18.57,0,0,1,278.37,27.81Z"/><path class="cls-1" d="M288,14.46h5.49a39.36,39.36,0,0,1,39.36,39.35V67.17a9.35,9.35,0,0,1-9.35,9.34H282.25a9.34,9.34,0,0,1-9.35-9.34V29.55A15.08,15.08,0,0,1,288,14.46Z"/><path class="cls-2" d="M265.57,62.61v.23a10.74,10.74,0,1,0,.36,21.47h.36A31.79,31.79,0,0,0,283,106v3.62a14,14,0,1,0,28,1.73,12.49,12.49,0,0,0,0-1.73V106a31.85,31.85,0,0,0,16.68-21.78,9,9,0,0,0,1,0,10.75,10.75,0,1,0,0-21.49h-.36"/><path class="cls-1" d="M297,124.55a14.82,14.82,0,0,1-14.69-14.89v-3.2A32.25,32.25,0,0,1,265.76,85a11.42,11.42,0,0,1-.21-22.82v.44h.67v.88h-.64a10.07,10.07,0,0,0,.34,20.13h.88l.12.55a31,31,0,0,0,16.31,21.28l.38.19v4a13.35,13.35,0,0,0,26.7,0v-4l.37-.19A31,31,0,0,0,327,84.09l.12-.59h.58a8.18,8.18,0,0,0,1,0,10.07,10.07,0,1,0,0-20.14h-.28V62h.38a11.43,11.43,0,0,1,0,22.84h-.52a32.27,32.27,0,0,1-16.55,21.48v3.2a14.81,14.81,0,0,1-14.62,15Z"/><path class="cls-2" d="M297.94,122.92a1.33,1.33,0,0,0,0,1.89l0,0,8,8.15a1.35,1.35,0,0,0,1.88,0l12.58-12.73a1.33,1.33,0,0,0,0-1.89l0,0-8-8.15a1.35,1.35,0,0,0-1.88,0Z"/><path class="cls-1" d="M306.92,133.88a1.76,1.76,0,0,1-1.33-.54l-8-8.15a1.81,1.81,0,0,1-.54-1.33,1.87,1.87,0,0,1,.54-1.34h0l12.56-12.73a1.83,1.83,0,0,1,2.57,0l0,0,8,8.15a1.88,1.88,0,0,1,0,2.66h0l-12.52,12.7A1.78,1.78,0,0,1,306.92,133.88Zm-8.62-10.6a.91.91,0,0,0-.26.6.83.83,0,0,0,.26.59l8,8.15a.83.83,0,0,0,1.17,0h0L320.09,120a.86.86,0,0,0,0-1.19l-8-8.15a.82.82,0,0,0-1.15,0l0,0Z"/><path class="cls-1" d="M314.52,111.34l17.27,17.47a1.35,1.35,0,0,1,0,1.89l0,0-14.69,14.9a1.33,1.33,0,0,0,0,1.89l0,0,7.34,7.43a1,1,0,0,1,.09,1.34.86.86,0,0,1-.33.23l-27.13,14.52"/><path class="cls-2" d="M296.37,122.92a1.34,1.34,0,0,1,0,1.89l0,0-8,8.15a1.35,1.35,0,0,1-1.88,0l-12.57-12.73a1.35,1.35,0,0,1,0-1.89l0,0,8-8.15a1.35,1.35,0,0,1,1.88,0Z"/><path class="cls-1" d="M287.39,133.88a1.78,1.78,0,0,1-1.34-.54l-12.58-12.73a1.88,1.88,0,0,1,0-2.66h0l8-8.15a1.81,1.81,0,0,1,2.56,0l0,0,12.64,12.84h0a1.92,1.92,0,0,1,0,2.67l-8,8.14A1.77,1.77,0,0,1,287.39,133.88Zm-4.53-23.58a.88.88,0,0,0-.59.25l-8,8.15a.85.85,0,0,0-.24.6.82.82,0,0,0,.24.59l12.57,12.73a.83.83,0,0,0,1.17,0h0l8-8.15a.82.82,0,0,0,.25-.59.86.86,0,0,0-.25-.6l-12.58-12.67A.86.86,0,0,0,282.86,110.3Z"/><path class="cls-1" d="M279.51,111.56,262.26,129a1.33,1.33,0,0,0,0,1.89l0,0L277,145.84a1.35,1.35,0,0,1,0,1.89l0,0-7.28,7.42a1,1,0,0,0-.11,1.34.9.9,0,0,0,.33.25L297,171.26"/><path class="cls-1" d="M317.38,147.85l7,7.11a1.19,1.19,0,0,1,0,1.68l-.12.11-27,21.59"/><path class="cls-2" d="M297.31,178.71a.31.31,0,0,1-.25-.13.32.32,0,0,1,0-.45l0,0,27-21.6a.84.84,0,0,0,.25-1.15,1.54,1.54,0,0,0-.17-.19l-7-7.1a.36.36,0,0,1,0-.48.34.34,0,0,1,.48,0h0l7,7.1a1.53,1.53,0,0,1,0,2.17.86.86,0,0,1-.14.13l-27,21.59A.29.29,0,0,1,297.31,178.71Z"/><path class="cls-1" d="M316.62,113.45l15.17,15.36a1.35,1.35,0,0,1,0,1.89l0,0-15.67,15.86"/><path class="cls-2" d="M316.12,146.92a.38.38,0,0,1-.24-.11.35.35,0,0,1,0-.47l15.67-15.86a1,1,0,0,0,.29-.71,1.06,1.06,0,0,0-.29-.72L316.4,113.69a.33.33,0,0,1,0-.47h0a.35.35,0,0,1,.47,0L332,128.58a1.69,1.69,0,0,1,0,2.38L316.4,146.81A.31.31,0,0,1,316.12,146.92Z"/><path class="cls-1" d="M276.86,147.85l-7.19,7.32a1.23,1.23,0,0,0-.1,1.74l.1.09,24.45,21.37"/><path class="cls-2" d="M294.16,178.71a.27.27,0,0,1-.22-.08l-24.46-21.36a1.62,1.62,0,0,1-.55-1.14,1.66,1.66,0,0,1,.47-1.19l7.22-7.31a.34.34,0,0,1,.48,0h0a.36.36,0,0,1,0,.48l-7.23,7.31a.93.93,0,0,0-.27.69.91.91,0,0,0,.32.65l24.45,21.37a.32.32,0,0,1,0,.47h0A.3.3,0,0,1,294.16,178.71Z"/><path class="cls-1" d="M277,114.15,262.26,129a1.33,1.33,0,0,0,0,1.89l0,0,15.65,15.87"/><path class="cls-2" d="M277.91,147.13a.32.32,0,0,1-.23-.09L262,131.17a1.59,1.59,0,0,1-.48-1.18,1.56,1.56,0,0,1,.48-1.19l14.68-14.89a.33.33,0,0,1,.46,0v0a.33.33,0,0,1,0,.47h0L262.48,129.3a1,1,0,0,0,0,1.45l15.67,15.81a.36.36,0,0,1,0,.48A.38.38,0,0,1,277.91,147.13Z"/><path class="cls-2" d="M328.7,62.83V59.18a31.63,31.63,0,0,0-31.42-31.82h0a31.63,31.63,0,0,0-31.43,31.82v3.7"/><path class="cls-1" d="M266.52,63.56h-1.34V59.18a32.09,32.09,0,0,1,64.18,0v4.33H328V59.18a30.76,30.76,0,0,0-61.52,0Z"/><polyline class="cls-4" points="442.91 248.12 372.65 195.96 372.65 248.12"/><path class="cls-1" d="M442.91,248.8a.59.59,0,0,1-.38-.14L373.3,197.29v50.87a.67.67,0,0,1-1.33,0V196a.71.71,0,0,1,1-.61l70.24,52.22a.68.68,0,0,1-.35,1.23Z"/><polygon class="cls-4" points="224.56 195.85 224.56 248.01 154.28 248.01 224.56 195.85"/><path class="cls-1" d="M224.56,248.69H154.28a.68.68,0,0,1-.64-.47.71.71,0,0,1,.24-.76l70.28-52.16a.66.66,0,0,1,.69,0,.65.65,0,0,1,.36.6v52.16A.67.67,0,0,1,224.56,248.69Zm-68.25-1.33h67.58V197.18Z"/><polygon class="cls-2" points="451.87 241.05 444.98 235.9 441.38 233.08 441.23 233.08 391.66 195.96 373.41 195.96 422.98 233.08 174.83 233.08 224.53 195.85 206.29 195.85 146.08 240.94 146.38 240.94 146.08 241.15 451.74 241.15 451.61 241.05 451.87 241.05"/><path class="cls-1" d="M451.74,241.83H146.08a.67.67,0,0,1-.6-.48.76.76,0,0,1,0-.3.68.68,0,0,1,.26-.65L206,195.31a.62.62,0,0,1,.4-.13h18.2a.64.64,0,0,1,.62.47.68.68,0,0,1-.24.75l-48.07,36H421L373,196.54a.69.69,0,0,1-.24-.75.67.67,0,0,1,.63-.46h18.25a.56.56,0,0,1,.39.13l49.41,37a.55.55,0,0,1,.32.14l3.6,2.8,6.89,5.15a.69.69,0,0,1,.23.77.67.67,0,0,1-.32.38A.7.7,0,0,1,451.74,241.83Zm-303.91-1.34H449.94l-5.34-4-3.46-2.68a.59.59,0,0,1-.31-.12l-49.41-37h-16l47.94,35.9a.71.71,0,0,1,.24.76.68.68,0,0,1-.64.47H174.86a.68.68,0,0,1-.64-.47.69.69,0,0,1,.24-.76l48.07-36.06h-16Z"/><rect class="cls-5" x="146.15" y="241.15" width="305.66" height="39.72"/><path class="cls-1" d="M451.81,281.54H146.15a.67.67,0,0,1-.67-.67h0V241.15a.67.67,0,0,1,.67-.67H451.81a.67.67,0,0,1,.66.67v39.71a.66.66,0,0,1-.65.68Zm-305-1.33H451.14V241.83H146.82Z"/><path class="cls-1" d="M385.84,218.4h-4V166.56a62.86,62.86,0,0,0-18-44.35L348.8,107l2.82-2.87,15,15.26a66.92,66.92,0,0,1,19.21,47.22Z"/><path class="cls-1" d="M354.11,101.93a5.18,5.18,0,0,0-7.34-.08l-.08.08a5.34,5.34,0,0,0,0,7.54,5.17,5.17,0,0,0,7.31.12l.11-.12A5.39,5.39,0,0,0,354.11,101.93Z"/><path class="cls-1" d="M215.32,218.4h-4V166.56a67,67,0,0,1,19.26-47.22l15.06-15.26,2.82,2.87-15.06,15.26a62.83,62.83,0,0,0-18.07,44.35Z"/><path class="cls-1" d="M250.51,109.47a5.34,5.34,0,0,0,0-7.54,5.2,5.2,0,0,0-7.35-.08l-.08.08a5.41,5.41,0,0,0,0,7.54,5.17,5.17,0,0,0,7.31.12Z"/><path class="cls-6" d="M316.24,178.34a14,14,0,0,0-13.43,10.14,9.81,9.81,0,0,0-13.46,4,17.93,17.93,0,0,0-34,5.34,13.91,13.91,0,0,0-9.71-4,14.09,14.09,0,0,0-14,13h0a9.86,9.86,0,0,0-7.86,4q-.81-.07-1.62-.09a14.07,14.07,0,0,0-13.5,10.38,13.8,13.8,0,0,0-5.34-1.07,14.07,14.07,0,0,0-14,12.42H408.54a14.05,14.05,0,0,0-13.46-10.26h-.27A9.8,9.8,0,0,0,381,220.82l-.07.05a11.68,11.68,0,0,0-14.7-9.89v-.42a16.69,16.69,0,0,0-16.58-16.8h0a16.19,16.19,0,0,0-5.72,1.05,9.81,9.81,0,0,0-13.74-1.5v-.79A14.1,14.1,0,0,0,316.24,178.34Z"/><ellipse class="cls-3" cx="237.42" cy="206" rx="6.57" ry="6.65"/><ellipse class="cls-3" cx="279.34" cy="221.93" rx="6.57" ry="6.65"/><ellipse class="cls-3" cx="320.54" cy="195.85" rx="6.57" ry="6.65"/><ellipse class="cls-3" cx="340.09" cy="218.4" rx="6.57" ry="6.65"/><ellipse class="cls-3" cx="358.72" cy="206" rx="6.57" ry="6.65"/></svg>