<svg id="圖層_1" data-name="圖層 1" xmlns="http://www.w3.org/2000/svg" viewBox="0 0 599 297"><defs><style>.cls-1{fill:#fff;}.cls-2{fill:#424242;}.cls-3{fill:none;}.cls-4{fill:#ffda6a;}.cls-5{fill:#2caff5;}.cls-6{fill:#00ffa7;}.cls-7{fill:#525252;}</style></defs><title>5</title><rect class="cls-1" x="164.74" y="64.13" width="193.82" height="148.56" transform="translate(85.05 375.96) rotate(-81.25)"/><path class="cls-2" d="M320.34,246.57h-.16L173.35,224a1.09,1.09,0,0,1-.93-1.19L201.9,31.16a1.09,1.09,0,0,1,1.21-.94h0L350,52.82a1.11,1.11,0,0,1,.72.45,1.06,1.06,0,0,1,.2.81L321.42,245.64A1.1,1.1,0,0,1,320.34,246.57ZM174.76,222l144.67,22.25L348.56,54.83,203.89,32.56Z"/><line class="cls-3" x1="256.24" y1="218.51" x2="232.61" y2="214.87"/><path class="cls-2" d="M256.24,219.05h-.07l-23.65-3.64a.53.53,0,0,1-.45-.61h0a.53.53,0,0,1,.59-.46h0L256.33,218a.53.53,0,0,1,.46.59v0A.55.55,0,0,1,256.24,219.05Z"/><rect class="cls-4" x="184.45" y="171.72" width="42.91" height="28.89" transform="translate(-9.41 361.35) rotate(-81.25)"/><line class="cls-3" x1="275.41" y1="221.45" x2="265.55" y2="219.94"/><path class="cls-2" d="M275.41,222h-.09l-9.84-1.51a.55.55,0,1,1,.16-1.09h0l9.84,1.51a.55.55,0,0,1,.4.67A.57.57,0,0,1,275.41,222Z"/><path class="cls-2" d="M310.55,227.41h-.09l-40.7-6.27a.57.57,0,0,1-.45-.63.54.54,0,0,1,.61-.46h0l40.2,6.19,20.55-134a.56.56,0,0,1,.63-.45.53.53,0,0,1,.45.61v0L311.11,226.94a.53.53,0,0,1-.21.36A.66.66,0,0,1,310.55,227.41Z"/><polyline class="cls-1" points="252.19 55.92 334.89 68.64 332.45 84.51"/><path class="cls-2" d="M332.5,85.05h-.09a.55.55,0,0,1-.46-.62h0l2.35-15.33L252.1,56.46a.55.55,0,0,1,.16-1.09h0L335,68.09a.56.56,0,0,1,.46.62L333,84.57A.54.54,0,0,1,332.5,85.05Z"/><rect class="cls-5" x="201.17" y="63.09" width="42.91" height="28.89" transform="translate(112.12 285.78) rotate(-81.25)"/><rect class="cls-6" x="192.72" y="117.95" width="42.91" height="28.89" transform="translate(50.74 323.94) rotate(-81.25)"/><path class="cls-1" d="M244.06,82.15a9.31,9.31,0,1,0-9.07-1.4A12.47,12.47,0,0,0,225.42,91l-1.09,6.89,24.72,3.79,1.08-6.88A12.46,12.46,0,0,0,244.06,82.15Z"/><path class="cls-5" d="M246.68,84.16l-8.52,6.25-6.25-8.54A12.41,12.41,0,0,0,225.42,91l-1.09,6.89,24.72,3.79,1.08-6.88A12.42,12.42,0,0,0,246.68,84.16Z"/><path class="cls-2" d="M249.51,102.3l-25.79-3.93,1.14-7.43a13,13,0,0,1,9-10.46,9.85,9.85,0,1,1,13.94-.25,9.7,9.7,0,0,1-2.58,1.92,13,13,0,0,1,5.41,12.69ZM225,97.42l23.65,3.64,1-6.35a11.91,11.91,0,0,0-5.78-12.13l-1-.58,1.08-.4a8.77,8.77,0,1,0-11.3-5.08,8.67,8.67,0,0,0,2.76,3.76l.89.71-1.08.25A11.89,11.89,0,0,0,226,91.07Z"/><path class="cls-2" d="M301.53,94.49l-5.41-.83L297.45,85l5.41.84Zm-8.65-1.33-5.41-.83,1.34-8.66,5.41.84Zm-8.66-1.33-5.4-.83,1.33-8.66,5.4.84Zm-8.65-1.33-5.41-.83L271.49,81l5.41.84Zm-8.65-1.33-5.41-.83,1.33-8.66,5.41.84Z"/><path class="cls-2" d="M293.47,146.88l-5.41-.84,1.33-8.65,5.41.82Zm-8.65-1.33-5.41-.84,1.33-8.65,5.41.83Zm-8.65-1.33-5.41-.84,1.33-8.65,5.41.83Zm-8.66-1.33-5.41-.84,1.33-8.65,5.41.83Zm-8.65-1.33-5.41-.84,1.33-8.65,5.41.83Z"/><path class="cls-2" d="M285.12,201.14l-5.41-.83,1.33-8.65,5.41.83Zm-8.65-1.34-5.41-.82,1.33-8.65,5.41.83Zm-8.65-1.33-5.41-.83,1.33-8.65,5.41.83Zm-8.66-1.33-5.41-.82,1.33-8.65,5.41.83Zm-8.65-1.33L245.1,195l1.33-8.65,5.41.83Z"/><path class="cls-1" d="M225,186.81a8.54,8.54,0,0,0,9.74-7.12l.45-3A8.52,8.52,0,0,0,228,167h0l-.48-.08a8.51,8.51,0,0,0-9.69,7.17h0l-.45,3a8.52,8.52,0,0,0,7.11,9.73H225Z"/><path class="cls-2" d="M236.05,135.44l-6.73-1.08c-5.76-.88-9.5-3.42-8.65-9.18h0c.93-5.72,11.86-11.66,11.86-11.66l6.73,1.08s8.25,8.73,7.37,14.49h0C245.74,134.82,241.81,136.33,236.05,135.44Z"/><path class="cls-1" d="M228.33,133a12.5,12.5,0,0,0-9.59,10.29l-1.08,6.89L242.38,154l1.08-6.89a12.51,12.51,0,0,0-6.06-12.68"/><path class="cls-6" d="M240,136.48l-8.53,6.24-6.26-8.53a12.46,12.46,0,0,0-6.49,9.12l-1.08,6.89,24.72,3.8,1.08-6.9A12.46,12.46,0,0,0,240,136.48Z"/><path class="cls-2" d="M242.86,154.62l-25.81-4,1.15-7.43a13,13,0,0,1,10-10.73l.25,1.08a11.91,11.91,0,0,0-9.18,9.84l-1,6.33,23.63,3.64,1-6.34a11.91,11.91,0,0,0-5.79-12.14l.55-.94A13,13,0,0,1,244,147.2Z"/><rect class="cls-1" x="223.71" y="115.18" width="21.14" height="18.61" rx="8.96" transform="translate(75.6 337.1) rotate(-81.25)"/><path class="cls-2" d="M234.31,135.62a8.9,8.9,0,0,1-1.46-.12h0l-.49-.08a9.61,9.61,0,0,1-8-11l.46-3a9.63,9.63,0,0,1,11-8l.48.07a9.62,9.62,0,0,1,8,11l-.47,3A9.64,9.64,0,0,1,234.31,135.62Zm-1.32-1.2a8.52,8.52,0,0,0,9.73-7.09v0l.46-3a8.53,8.53,0,0,0-7.11-9.74h0l-.49-.08a8.54,8.54,0,0,0-9.73,7.13l-.42,3a8.49,8.49,0,0,0,7.06,9.72h.05Z"/><path class="cls-2" d="M225.09,123.06s13.13,3.11,14.75-7.38l-3.94-1.6-6.16,1.15-3.24,3.32Z"/><path class="cls-1" d="M220.27,185.43a12.49,12.49,0,0,0-9.59,10.28l-1.08,6.89,24.72,3.79,1.08-6.88a12.49,12.49,0,0,0-6.06-12.69"/><path class="cls-4" d="M232,188.88l-8.52,6.25-6.27-8.54a12.46,12.46,0,0,0-6.49,9.12l-1.08,6.89,24.72,3.79,1.08-6.88A12.44,12.44,0,0,0,232,188.88Z"/><path class="cls-2" d="M234.79,207l-25.79-4,1.14-7.42a13,13,0,0,1,10-10.72l.24,1.08a11.9,11.9,0,0,0-9.16,9.83l-1,6.35,23.63,3.64,1-6.35a11.91,11.91,0,0,0-5.79-12.13l.55-1a13,13,0,0,1,6.32,13.25Z"/><path class="cls-2" d="M226.25,188a8.88,8.88,0,0,1-1.46-.1h0l-.48-.08a9.62,9.62,0,0,1-8-11l.45-3a9.61,9.61,0,0,1,11-8l.48.08a9.61,9.61,0,0,1,8.06,10.95l-.45,3A9.63,9.63,0,0,1,226.25,188Zm-1.3-1.19a8.54,8.54,0,0,0,9.74-7.12l.45-3A8.52,8.52,0,0,0,228,167h0l-.48-.08a8.51,8.51,0,0,0-9.69,7.17h0l-.45,3a8.52,8.52,0,0,0,7.11,9.73H225Z"/><path class="cls-2" d="M218.17,172.25s5.07-.07,6-6.38C224.2,165.87,219.1,166.19,218.17,172.25Z"/><path class="cls-2" d="M235.43,178.29S222.58,171,224.2,165.87C224.2,165.87,237.94,165.87,235.43,178.29Z"/><path class="cls-1" d="M300.37,128.6l22.38-8.95h16.07c9.33,0,13.81,5.56,13.81,5.56l11.39,29,17.37,17.36-19.61,19.6"/><path class="cls-7" d="M361.81,192.23a1.08,1.08,0,0,1-1.08-1.09,1.1,1.1,0,0,1,.31-.75l18.85-18.84L363.29,155a1.29,1.29,0,0,1-.25-.36l-11.32-28.81c-.69-.78-4.84-5-12.88-5H323l-22.22,8.88a1.08,1.08,0,0,1-.8-2h0l22.42-9a.89.89,0,0,1,.4-.07h16c9.73,0,14.47,5.72,14.66,6a.88.88,0,0,1,.17.28l11.27,28.76,17.3,17.2a1.07,1.07,0,0,1,0,1.53l-19.61,19.6A1.06,1.06,0,0,1,361.81,192.23Z"/><polygon class="cls-1" points="271.46 125.07 289.49 138.96 294.08 122.48 271.46 125.07"/><path class="cls-7" d="M289.49,139.5a.55.55,0,0,1-.33-.11l-18-13.9a.53.53,0,0,1,.26-1L294,122a.57.57,0,0,1,.48.18.54.54,0,0,1,.11.5L290,139.1a.56.56,0,0,1-.35.37Zm-16.64-14.07L289.22,138l4.17-14.93Z"/><rect class="cls-4" x="322.53" y="99.91" width="18.01" height="83.86" transform="translate(105.95 423.17) rotate(-74.44)"/><polygon class="cls-7" points="281.33 123.75 279.27 131.2 271.95 125.38 281.33 123.75"/><polygon class="cls-1" points="369.26 147.64 296.34 127.35 295.21 131.39 294.18 131.11 295.59 126.01 296.11 126.16 369.54 146.6 369.26 147.64"/><polygon class="cls-1" points="367.33 153.96 294.89 133.8 293.72 138.01 292.68 137.72 294.14 132.47 294.66 132.62 367.62 152.92 367.33 153.96"/><path class="cls-1" d="M359.76,187.23l-10.82-10.82H328.76l-25.4-37s12.33-7.09,17.93,0a123.49,123.49,0,0,0,13.82,14.19"/><path class="cls-7" d="M359.76,188.31A1.07,1.07,0,0,1,359,188l-10.53-10.51H328.76a1.12,1.12,0,0,1-.89-.48l-25.4-37a1.09,1.09,0,0,1,.35-1.55c.54-.31,13.21-7.47,19.32.26a121.13,121.13,0,0,0,13.68,14.06,1.09,1.09,0,0,1-1.42,1.65,126.15,126.15,0,0,1-14-14.35c-4.08-5.16-12.54-1.71-15.49-.27l24.38,35.49h19.6a1.07,1.07,0,0,1,.77.32l10.81,10.81a1.08,1.08,0,0,1,0,1.53,1.06,1.06,0,0,1-.78.32Z"/><polyline class="cls-1" points="346.87 191.42 377.36 160.94 399.84 183.41 357.07 201.62 346.87 191.42"/><path class="cls-7" d="M357.07,202.16a.59.59,0,0,1-.39-.16l-10.2-10.2a.56.56,0,0,1,0-.76L377,160.56a.54.54,0,0,1,.77,0h0L400.23,183a.5.5,0,0,1,.14.49.54.54,0,0,1-.31.39l-42.78,18.2A.58.58,0,0,1,357.07,202.16Zm-9.44-10.74,9.56,9.55,41.71-17.74L377.36,161.7Z"/><polygon class="cls-2" points="426.59 204.32 354.08 204.45 349.19 199.57 385.52 163.25 426.59 204.32"/></svg>