<svg id="圖層_1" data-name="圖層 1" xmlns="http://www.w3.org/2000/svg" viewBox="0 0 599 297"><defs><style>.cls-1{fill:#fff;}.cls-2{fill:#424242;}.cls-3{fill:none;}.cls-4{fill:#00ffa7;}.cls-5{fill:#afafaf;}.cls-6{fill:#525252;}.cls-7{fill:#ffda6a;}</style></defs><title>2</title><rect class="cls-1" x="152.72" y="65.98" width="215.35" height="165.07" transform="matrix(0.15, -0.99, 0.99, 0.15, 74, 383.29)"/><path class="cls-2" d="M325.61,268.7h-.18L162.28,243.58a1.23,1.23,0,0,1-1-1.33L194,29.35a1.21,1.21,0,0,1,1.35-1h0L358.54,53.43a1.24,1.24,0,0,1,1,1.39L326.81,267.66A1.22,1.22,0,0,1,325.61,268.7ZM163.86,241.36,324.6,266.09,357,55.65,196.22,30.92Z"/><line class="cls-3" x1="254.39" y1="237.52" x2="228.13" y2="233.48"/><path class="cls-2" d="M254.39,238.12h-.09l-26.27-4a.6.6,0,0,1-.5-.68v0a.58.58,0,0,1,.66-.5h0l26.28,4a.57.57,0,0,1,.5.66v0A.6.6,0,0,1,254.39,238.12Z"/><line class="cls-3" x1="275.68" y1="240.79" x2="264.74" y2="239.11"/><path class="cls-2" d="M275.68,241.4h-.09l-10.94-1.68a.61.61,0,1,1,.18-1.2h0l10.94,1.68a.61.61,0,0,1,.44.75A.62.62,0,0,1,275.68,241.4Z"/><polyline class="cls-1" points="337.28 100.19 314.73 246.8 269.46 239.84"/><path class="cls-2" d="M314.73,247.41h-.09l-45.23-7a.62.62,0,0,1-.5-.7.59.59,0,0,1,.68-.5h0l44.67,6.87L337.11,97.27a.62.62,0,0,1,.7-.5.59.59,0,0,1,.5.68h0L315.36,246.89a.62.62,0,0,1-.24.4A.69.69,0,0,1,314.73,247.41Z"/><polyline class="cls-1" points="249.88 56.86 341.77 71 339.07 88.63"/><path class="cls-2" d="M339.12,89.23H339a.6.6,0,0,1-.51-.68v0l2.61-17-91.33-14a.62.62,0,0,1-.51-.7.6.6,0,0,1,.68-.51h0l91.89,14.13a.6.6,0,0,1,.5.69L339.66,88.7A.62.62,0,0,1,339.12,89.23Z"/><circle class="cls-2" cx="212.2" cy="70.42" r="2.78"/><circle class="cls-2" cx="233" cy="73.8" r="2.78"/><path class="cls-1" d="M226,82.4a10.35,10.35,0,1,0-10.08-1.55,13.87,13.87,0,0,0-10.65,11.42l-1.2,7.66,27.46,4.22,1.2-7.65A13.87,13.87,0,0,0,226,82.4Z"/><path class="cls-4" d="M228.89,84.69l-9.47,6.93-7-9.48a13.87,13.87,0,0,0-7.21,10.13l-1.2,7.66,27.46,4.22,1.2-7.65A13.8,13.8,0,0,0,228.89,84.69Z"/><path class="cls-2" d="M232,104.84l-28.67-4.41,1.28-8.25a14.41,14.41,0,0,1,10-11.63,10.95,10.95,0,1,1,12.61,2,14.44,14.44,0,0,1,6.1,14.09Zm-27.27-5.42,26.26,4,1.08-7a13.23,13.23,0,0,0-6.43-13.49l-1.1-.64,1.21-.44a9.76,9.76,0,1,0-9.49-1.47l1,.8-1.2.27A13.21,13.21,0,0,0,205.9,92.37Z"/><circle class="cls-2" cx="233.88" cy="70.18" r="2.78"/><circle class="cls-2" cx="211.51" cy="67.67" r="2.78"/><circle class="cls-2" cx="215.7" cy="63.24" r="2.78" transform="translate(152.09 278.83) rotate(-89.9)"/><circle class="cls-2" cx="219.81" cy="61.91" r="2.78" transform="translate(157.53 281.61) rotate(-89.9)"/><circle class="cls-2" cx="224.48" cy="61.79" r="2.78" transform="translate(162.31 286.16) rotate(-89.9)"/><circle class="cls-2" cx="216.77" cy="59.37" r="2.78" transform="translate(157.03 276.04) rotate(-89.9)"/><circle class="cls-2" cx="221.97" cy="59.01" r="2.78" transform="translate(162.59 280.88) rotate(-89.9)"/><circle class="cls-2" cx="214.21" cy="61.79" r="2.78" transform="translate(152.06 275.9) rotate(-89.9)"/><circle class="cls-2" cx="225.99" cy="59.46" r="2.78" transform="translate(166.16 285.35) rotate(-89.9)"/><circle class="cls-2" cx="225.64" cy="57.11" r="3.58"/><circle class="cls-2" cx="219.92" cy="57.87" r="3.58"/><circle class="cls-2" cx="229.86" cy="59.82" r="3.58"/><circle class="cls-2" cx="228.39" cy="62.79" r="2.78" transform="translate(165.21 291.08) rotate(-89.9)"/><circle class="cls-2" cx="230.15" cy="61.43" r="2.78" transform="translate(168.33 291.47) rotate(-89.9)"/><circle class="cls-2" cx="233.94" cy="63.24" r="2.78" transform="translate(170.3 297.07) rotate(-89.9)"/><circle class="cls-2" cx="231.95" cy="64.51" r="2.78"/><circle class="cls-2" cx="233.27" cy="67.52" r="2.78"/><circle class="cls-2" cx="212.68" cy="64.7" r="2.78"/><path class="cls-2" d="M218.36,74.12a5.49,5.49,0,0,1-.91-.07,5.11,5.11,0,0,1-2.34-.94,1.66,1.66,0,0,1-.67-2.24A1.69,1.69,0,0,1,215.6,70a5,5,0,0,1,2.49-.19c2,.3,3.38,1.47,3.2,2.65h0C221.14,73.47,219.92,74.12,218.36,74.12Zm-1.2-3.75a3.81,3.81,0,0,0-1.38.23c-.56.21-.89.52-.95.89a1.26,1.26,0,0,0,.63,1.14,4.49,4.49,0,0,0,2,.82c1.58.24,3-.24,3.14-1.06h0c.12-.81-1.1-1.72-2.68-2a5,5,0,0,0-.78,0Z"/><path class="cls-2" d="M226.59,75.39a6.84,6.84,0,0,1-.9-.08c-1.95-.3-3.38-1.46-3.15-2.64s1.86-1.88,3.85-1.58a5.24,5.24,0,0,1,2.33,1,1.84,1.84,0,0,1,.85,1.71h0a1.87,1.87,0,0,1-1.33,1.37A4.65,4.65,0,0,1,226.59,75.39Zm-1.2-3.75c-1.2,0-2.24.44-2.34,1.13s1.1,1.7,2.68,1.94a4.48,4.48,0,0,0,2.21-.15c.54-.22.87-.53.94-.91h0a1.34,1.34,0,0,0-.63-1.14,4.63,4.63,0,0,0-2.05-.81,5,5,0,0,0-.76-.11Z"/><rect class="cls-2" x="221.58" y="71.66" width="0.61" height="1.83" transform="translate(116.52 280.89) rotate(-81.28)"/><path class="cls-1" d="M198,197.28a13.84,13.84,0,0,0-10.65,11.42l-1.2,7.65,27.48,4.27,1.21-7.66a13.89,13.89,0,0,0-6.71-14.13"/><path class="cls-2" d="M211,201.1l-9.47,7-7-9.48a13.81,13.81,0,0,0-7.21,10.13l-1.2,7.65,27.48,4.27,1.21-7.66A13.85,13.85,0,0,0,211,201.1Z"/><path class="cls-2" d="M214.13,221.27l-28.66-4.41,1.27-8.26a14.43,14.43,0,0,1,11.12-11.92l.26,1.2a13.22,13.22,0,0,0-10.18,10.93l-1.08,7,26.26,4,1.08-7a13.21,13.21,0,0,0-6.43-13.48l.61-1.05a14.42,14.42,0,0,1,7,14.71Z"/><path class="cls-2" d="M204.63,200.19a11.19,11.19,0,0,1-1.63-.13h0l-.53-.09a10.66,10.66,0,0,1-8.94-12.12v0l.51-3.3a10.65,10.65,0,0,1,12.14-8.93h0l.54.08a10.7,10.7,0,0,1,8.93,12.18l-.5,3.3A10.72,10.72,0,0,1,204.63,200.19Zm-1.44-1.34A9.47,9.47,0,0,0,214,191h0l.5-3.31a9.49,9.49,0,0,0-7.92-10.82l-.53-.07a9.47,9.47,0,0,0-10.81,7.9h0l-.51,3.31a9.44,9.44,0,0,0,7.86,10.8h.05Z"/><path class="cls-2" d="M294.38,98.52l-6-.92L289.85,88l6,.93ZM284.77,97l-6-.92,1.48-9.62,6,.93Zm-9.61-1.48-6-.92L270.63,85l6,1Zm-9.62-1.47-6-.93L261,83.61l6,.92Zm-9.61-1.48-6-.93,1.48-9.61,6,.92Z"/><path class="cls-2" d="M285.43,156.73l-6-.93,1.48-9.61,6,.91Zm-9.61-1.48-6-.93,1.48-9.61,6,.93Zm-9.62-1.48-6-.92,1.48-9.62,6,.93Zm-9.61-1.48-6-.92,1.48-9.62,6,.93ZM247,150.82l-6-.93,1.47-9.62,6,.93Z"/><path class="cls-2" d="M276.15,217l-6-.91,1.48-9.61,6,.92Zm-9.61-1.47-6-.92L262,205l6,.92Zm-9.62-1.48-6-.93,1.47-9.61,6,.92Zm-9.61-1.48-6-.91,1.48-9.62,6,.93Zm-9.61-1.48-6-.92,1.48-9.62,6,.93Z"/><rect class="cls-2" x="201.02" y="129.72" width="22.34" height="21.86" transform="translate(41.33 329.37) rotate(-81.38)"/><path class="cls-1" d="M206.92,139.06a13.87,13.87,0,0,0-10.65,11.43l-1.2,7.64,27.47,4.24,1.2-7.66a13.88,13.88,0,0,0-6.73-14.1"/><path class="cls-5" d="M219.93,142.89l-9.41,7-7-9.48a13.8,13.8,0,0,0-7.22,10.13l-1.2,7.64,27.39,4.24,1.2-7.66A13.83,13.83,0,0,0,219.93,142.89Z"/><path class="cls-2" d="M223.08,163.05l-28.66-4.41,1.27-8.25a14.44,14.44,0,0,1,11.12-11.92l.26,1.2A13.22,13.22,0,0,0,196.9,150.6l-1.09,7.05,26.26,4.08,1.08-7.06a13.22,13.22,0,0,0-6.43-13.47l.62-1a14.44,14.44,0,0,1,7,14.72Z"/><rect class="cls-1" x="201.82" y="119.22" width="23.48" height="20.68" rx="9.95" transform="translate(53.02 320.92) rotate(-81.25)"/><path class="cls-2" d="M213.59,141.92a11.21,11.21,0,0,1-1.64-.12h0l-.53-.08a10.68,10.68,0,0,1-8.92-12.18l.5-3.3a10.7,10.7,0,0,1,12.17-9l.55.08a10.69,10.69,0,0,1,8.92,12.18l-.5,3.36A10.7,10.7,0,0,1,213.59,141.92Zm-1.44-1.32A9.47,9.47,0,0,0,223,132.7v0l.51-3.29a9.48,9.48,0,0,0-7.9-10.82h0l-.57-.11a9.47,9.47,0,0,0-10.81,7.9v0l-.51,3.29a9.49,9.49,0,0,0,7.9,10.82h0Z"/><path class="cls-2" d="M203.31,128s14.59,3.46,16.4-8.25L215.33,118l-6.84,1.31-3.6,3.7Z"/><path class="cls-2" d="M194.4,186.2s10.07,2.5,12-10C206.4,176.15,196.25,174.16,194.4,186.2Z"/><path class="cls-2" d="M214.84,189.37s-10.37-.64-8.41-13.22C206.4,176.15,216.69,177.35,214.84,189.37Z"/><path class="cls-1" d="M417,192.12l17.17,5a5,5,0,0,1,3.4,6.21l-1.4,4.82a4.66,4.66,0,0,1-5.78,3.17h0l-17.5-5.11a3.38,3.38,0,0,1-2.3-4.19l2.22-7.62a3.39,3.39,0,0,1,4.19-2.3Z"/><path class="cls-6" d="M431,212.71a5.31,5.31,0,0,1-1.49-.21L412,207.4a4,4,0,0,1-2.69-4.94l2.25-7.62a4,4,0,0,1,4.94-2.69l17.15,5.06a5.61,5.61,0,0,1,3.8,6.95h0L436,209A5.27,5.27,0,0,1,431,212.71Zm-15.63-19.58a2.79,2.79,0,0,0-2.65,2l-2.25,7.62a2.78,2.78,0,0,0,1.87,3.45l17.49,5.14a4.08,4.08,0,0,0,5-2.75l1.42-4.81a4.42,4.42,0,0,0-3-5.47h0l-17.15-5.06a3.34,3.34,0,0,0-.77-.12Z"/><polygon class="cls-1" points="384.28 260.33 360.68 253.37 393.39 185.91 417 192.87 384.28 260.33"/><path class="cls-6" d="M384.28,261.48a1,1,0,0,1-.34,0l-23.61-7a1.22,1.22,0,0,1-.76-.68,1.19,1.19,0,0,1,0-1l32.71-67.46a1.2,1.2,0,0,1,1.42-.62l23.64,7a1.22,1.22,0,0,1,.76,1.67l-32.73,67.47A1.19,1.19,0,0,1,384.28,261.48Zm-21.91-8.91,21.27,6.27,31.66-65.27L394,187.29Z"/><path class="cls-1" d="M414,216.65a7,7,0,0,1-2.08-.3l-23.15-6.82,9.09-30.82,22.83,6.73a7.65,7.65,0,0,1,5.18,9.51l-4.8,16.45a7.35,7.35,0,0,1-7,5.25Z"/><path class="cls-6" d="M398.68,180.2l21.63,6.4a6.44,6.44,0,0,1,4.36,8l-4.81,16.46a6.13,6.13,0,0,1-5.86,4.38,5.94,5.94,0,0,1-1.73-.25l-22-6.48,8.41-28.52m-1.62-3-9.77,33.12,24.3,7.22a8.52,8.52,0,0,0,10.58-5.76h0L427,195.34a8.87,8.87,0,0,0-6-11l-24-7.07Z"/><circle class="cls-1" cx="313.23" cy="167.93" r="19.75"/><path class="cls-6" d="M313.22,188.28a21.07,21.07,0,0,1-5.74-.83,20.34,20.34,0,1,1,5.74.83Zm0-39.51a19.15,19.15,0,1,0,5.4.78,19.55,19.55,0,0,0-5.38-.78Z"/><polygon class="cls-7" points="325.91 123.12 399.9 178.07 390.14 211.19 298.86 214.92 325.91 123.12"/><rect class="cls-1" x="261.58" y="163.3" width="101.13" height="13.12" rx="4.31" transform="translate(60.97 421.26) rotate(-73.58)"/><path class="cls-6" d="M301.21,220.38a5.51,5.51,0,0,1-1.56-.23h0l-4.3-1.26A5.52,5.52,0,0,1,291.6,212h0l26.15-88.76a5.55,5.55,0,0,1,6.86-3.74l4.29,1.33a5.53,5.53,0,0,1,3.75,6.85v0L306.5,216.44a5.47,5.47,0,0,1-2.66,3.28A5.35,5.35,0,0,1,301.21,220.38Zm-.89-2.52a3.17,3.17,0,0,0,2.41-.26,3.08,3.08,0,0,0,1.49-1.86L330.34,127a3.1,3.1,0,0,0-2-3.87l-4.3-1.27a3.12,3.12,0,0,0-3.87,2.11L294,212.71a3.11,3.11,0,0,0,2.1,3.87h0Z"/><line class="cls-3" x1="400.25" y1="189.76" x2="416.19" y2="194.44"/><path class="cls-6" d="M416.19,195.06H416l-15.94-4.69a.63.63,0,0,1-.41-.75.6.6,0,0,1,.75-.4l15.93,4.69a.6.6,0,0,1,.41.75A.63.63,0,0,1,416.19,195.06Z"/><line class="cls-3" x1="398.66" y1="195.13" x2="414.6" y2="199.83"/><path class="cls-6" d="M414.6,200.43h-.17l-15.93-4.7a.62.62,0,1,1,.33-1.2h0l16,4.72a.62.62,0,0,1,.52.69.61.61,0,0,1-.69.51h0Z"/><line class="cls-3" x1="397.08" y1="200.51" x2="413.01" y2="205.21"/><path class="cls-6" d="M413,205.81h-.16l-15.94-4.7a.61.61,0,0,1-.41-.74.59.59,0,0,1,.74-.41h0l15.92,4.7a.6.6,0,0,1,.41.74A.61.61,0,0,1,413,205.81Z"/><path class="cls-1" d="M388.83,184a1.14,1.14,0,0,1-.69-.22l-55.75-39.51a1.2,1.2,0,0,1,1.24-2.06l.14.1,55.82,39.52a1.2,1.2,0,0,1,.29,1.67A1.22,1.22,0,0,1,388.83,184Z"/><path class="cls-1" d="M386.87,190.57a1.19,1.19,0,0,1-.68-.21L348.73,164a1.21,1.21,0,0,1,1.38-2l37.51,26.29a1.2,1.2,0,0,1-.7,2.19Z"/></svg>