<svg id="圖層_1" data-name="圖層 1" xmlns="http://www.w3.org/2000/svg" viewBox="0 0 599 297"><defs><style>.cls-1{fill:#fff;}.cls-2{fill:#424242;}.cls-3{fill:none;}.cls-4{fill:#ffda6a;}.cls-5{fill:#2caff5;}.cls-6{fill:#00ffa7;}.cls-7{fill:#525252;}</style></defs><title>7</title><rect class="cls-1" x="152.77" y="65.98" width="215.35" height="165.07" transform="translate(74.03 383.34) rotate(-81.25)"/><path class="cls-2" d="M325.65,268.7h-.18L162.33,243.58a1.2,1.2,0,0,1-.79-.48,1.18,1.18,0,0,1-.24-.85l32.76-212.9a1.2,1.2,0,0,1,1.34-1h0L358.58,53.43a1.23,1.23,0,0,1,.8.49,1.2,1.2,0,0,1,.22.9L326.85,267.66A1.2,1.2,0,0,1,325.65,268.7ZM163.9,241.36l160.74,24.73L357,55.65,196.27,30.92Z"/><line class="cls-3" x1="254.43" y1="237.52" x2="228.18" y2="233.48"/><path class="cls-2" d="M254.43,238.12h-.08l-26.27-4a.6.6,0,0,1-.51-.68v0a.58.58,0,0,1,.66-.5h0l26.27,4a.59.59,0,0,1,.51.66v0A.61.61,0,0,1,254.43,238.12Z"/><rect class="cls-4" x="174.67" y="185.53" width="47.68" height="32.1" transform="translate(-30.93 367.11) rotate(-81.25)"/><line class="cls-3" x1="275.73" y1="240.79" x2="264.78" y2="239.11"/><path class="cls-2" d="M275.73,241.4h-.1l-10.93-1.68a.62.62,0,0,1-.52-.69.61.61,0,0,1,.7-.51h0l10.93,1.68a.61.61,0,0,1-.08,1.2Z"/><polyline class="cls-1" points="337.32 100.19 314.78 246.8 269.5 239.84"/><path class="cls-2" d="M314.78,247.41h-.1l-45.22-7a.63.63,0,0,1-.51-.7.6.6,0,0,1,.68-.5h0l44.67,6.87L337.15,97.27a.62.62,0,0,1,.7-.5.59.59,0,0,1,.51.68h0l-23,149.43a.58.58,0,0,1-.24.4A.66.66,0,0,1,314.78,247.41Z"/><polyline class="cls-1" points="249.93 56.86 341.82 71 339.11 88.63"/><path class="cls-2" d="M339.16,89.23h-.1a.6.6,0,0,1-.5-.68v0l2.61-17-91.34-14a.62.62,0,0,1-.5-.7.6.6,0,0,1,.68-.51h0l91.89,14.13a.61.61,0,0,1,.51.69L339.7,88.7A.61.61,0,0,1,339.16,89.23Z"/><rect class="cls-5" x="193.25" y="64.84" width="47.68" height="32.1" transform="translate(104.11 283.14) rotate(-81.25)"/><path class="cls-1" d="M213.87,87.33a1.41,1.41,0,0,1-.73,1,2,2,0,0,1-1.33.27,1.69,1.69,0,0,1-1.51-1.21L209,83.09l-2.56,3.71a1.62,1.62,0,0,1-1.71.71,2.11,2.11,0,0,1-1.28-.65,1.35,1.35,0,0,1-.4-1.2,1.86,1.86,0,0,1,.31-.72l4.25-6-2.14-6.63a1.45,1.45,0,0,1-.09-.74,1.36,1.36,0,0,1,.78-1,2.3,2.3,0,0,1,1.43-.23,1.58,1.58,0,0,1,1.36,1.21l1.2,3.81,2.41-3.26a1.62,1.62,0,0,1,1.75-.72,2,2,0,0,1,1.2.66,1.41,1.41,0,0,1,.09,1.88l-4,5.68,2.22,7.06A1.55,1.55,0,0,1,213.87,87.33Z"/><path class="cls-1" d="M226.32,89.25a1.37,1.37,0,0,1-.73,1,2,2,0,0,1-1.33.27,1.69,1.69,0,0,1-1.5-1.2L221.39,85l-2.53,3.72a1.66,1.66,0,0,1-1.71.71,2.45,2.45,0,0,1-1.29-.65,1.4,1.4,0,0,1-.39-1.21,1.82,1.82,0,0,1,.31-.73L220,80.78l-2.14-6.62a1.52,1.52,0,0,1-.09-.73,1.37,1.37,0,0,1,.79-1,2.14,2.14,0,0,1,1.43-.22,1.53,1.53,0,0,1,1.35,1.2l1.21,3.8,2.4-3.25a1.64,1.64,0,0,1,1.75-.72,2,2,0,0,1,1.21.66,1.4,1.4,0,0,1,.38,1.2,1.55,1.55,0,0,1-.3.68l-4,5.68,2.21,7A1.64,1.64,0,0,1,226.32,89.25Z"/><rect class="cls-6" x="183.86" y="125.79" width="47.68" height="32.1" transform="translate(35.91 325.54) rotate(-81.25)"/><path class="cls-1" d="M206.24,148.51a1.33,1.33,0,0,1-.72,1,2.13,2.13,0,0,1-1.33.27,1.76,1.76,0,0,1-1.52-1.2l-1.32-4.32L198.78,148a1.64,1.64,0,0,1-1.7.71,2.45,2.45,0,0,1-1.29-.65,1.38,1.38,0,0,1-.39-1.2,1.86,1.86,0,0,1,.31-.72l4.25-6-2.14-6.63a1.51,1.51,0,0,1-.09-.73,1.32,1.32,0,0,1,.82-1.07,2.22,2.22,0,0,1,1.43-.24,1.6,1.6,0,0,1,1.36,1.2l1.26,3.8,2.33-3.24a1.7,1.7,0,0,1,1.77-.74,2,2,0,0,1,1.2.68,1.43,1.43,0,0,1,.39,1.2,1.63,1.63,0,0,1-.3.67l-4,5.69,2.22,7.05A1.78,1.78,0,0,1,206.24,148.51Z"/><path class="cls-1" d="M218.69,150.42a1.37,1.37,0,0,1-.72,1,2,2,0,0,1-1.33.26,1.69,1.69,0,0,1-1.52-1.2l-1.32-4.31-2.57,3.71a1.59,1.59,0,0,1-1.69.71,2.28,2.28,0,0,1-1.3-.65,1.37,1.37,0,0,1-.39-1.2,1.74,1.74,0,0,1,.32-.72l4.24-6-2.14-6.73a1.6,1.6,0,0,1-.09-.75,1.35,1.35,0,0,1,.79-1,2.27,2.27,0,0,1,1.43-.23,1.58,1.58,0,0,1,1.35,1.2L215,138.3l2.4-3.24a1.64,1.64,0,0,1,1.75-.73,2,2,0,0,1,1.21.67,1.39,1.39,0,0,1,.38,1.2,1.46,1.46,0,0,1-.3.67l-4,5.68,2.23,7.06A1.87,1.87,0,0,1,218.69,150.42Z"/><path class="cls-1" d="M196.71,208.84a1.35,1.35,0,0,1-.72,1,2.06,2.06,0,0,1-1.33.27,1.73,1.73,0,0,1-1.52-1.21l-1.32-4.31-2.56,3.71a1.62,1.62,0,0,1-1.71.71,2.28,2.28,0,0,1-1.29-.65,1.37,1.37,0,0,1-.39-1.2,1.76,1.76,0,0,1,.31-.73l4.25-6-2.14-6.64a1.51,1.51,0,0,1-.09-.73,1.35,1.35,0,0,1,.78-1,2.19,2.19,0,0,1,1.44-.23,1.55,1.55,0,0,1,1.35,1.2l1.26,3.81,2.35-3.25a1.64,1.64,0,0,1,1.75-.73,2,2,0,0,1,1.2.67,1.4,1.4,0,0,1,.39,1.2,1.55,1.55,0,0,1-.3.68l-4,5.68,2.22,7.06A1.58,1.58,0,0,1,196.71,208.84Z"/><path class="cls-1" d="M209.16,210.77a1.32,1.32,0,0,1-.72,1,2,2,0,0,1-1.33.28,1.72,1.72,0,0,1-1.52-1.2l-1.32-4.32-2.57,3.72A1.64,1.64,0,0,1,200,211a2.44,2.44,0,0,1-1.3-.65,1.4,1.4,0,0,1-.39-1.21,1.79,1.79,0,0,1,.32-.72l4.24-6.07-2.14-6.62a1.51,1.51,0,0,1-.09-.73,1.37,1.37,0,0,1,.79-1,2.35,2.35,0,0,1,1.43-.22,1.55,1.55,0,0,1,1.35,1.2l1.27,3.8,2.34-3.25a1.64,1.64,0,0,1,1.75-.73,2.07,2.07,0,0,1,1.21.67,1.4,1.4,0,0,1,.38,1.2,1.44,1.44,0,0,1-.3.68l-4,5.68,2.22,7.06A1.66,1.66,0,0,1,209.16,210.77Z"/><path class="cls-1" d="M240.9,86a10.33,10.33,0,1,0-10.08-1.55,13.88,13.88,0,0,0-10.64,11.37l-1.2,7.66,27.46,4.21,1.2-7.64A13.85,13.85,0,0,0,240.9,86Z"/><path class="cls-5" d="M243.81,88.25l-9.47,6.94-7-9.49a13.81,13.81,0,0,0-7.21,10.13l-1.2,7.66,27.46,4.21,1.2-7.64A13.81,13.81,0,0,0,243.81,88.25Z"/><path class="cls-2" d="M247,108.4,218.3,104l1.27-8.26a14.41,14.41,0,0,1,10-11.62A10.94,10.94,0,1,1,242.19,86a14.43,14.43,0,0,1,6,14.1ZM219.68,103,246,107,247,100a13.21,13.21,0,0,0-6.42-13.47l-1.1-.65,1.2-.44a9.76,9.76,0,1,0-9.49-1.47l1,.79L231,85a13.22,13.22,0,0,0-10.18,10.93Z"/><path class="cls-2" d="M304.75,99.72l-6-.92,1.48-9.62,6,.93Zm-9.61-1.48-6-.92,1.49-9.62,6,.93Zm-9.62-1.47-6-.93L281,86.23l6,.92Zm-9.61-1.48-6-.93,1.48-9.61,6,.92Zm-9.61-1.48-6-.93,1.48-9.61,6,.92Z"/><path class="cls-2" d="M295.8,157.93l-6-.93,1.48-9.61,6,.91Zm-9.61-1.48-6-.92,1.48-9.62,6,.93ZM276.57,155l-6-.92,1.48-9.62,6,.93ZM267,153.5l-6-.93,1.48-9.62,6,.93ZM257.34,152l-6-.93,1.48-9.61,6,.92Z"/><path class="cls-2" d="M286.52,218.22l-6-.92,1.48-9.61,6,.92Zm-9.61-1.48-6-.92,1.48-9.61,6,.93Zm-9.62-1.48-6-.93,1.48-9.61,6,.93Zm-9.61-1.48-6-.91,1.48-9.62,6,.93Zm-9.61-1.48-6-.92,1.47-9.62,6,.93Z"/><path class="cls-1" d="M219.67,202.3a9.47,9.47,0,0,0,10.81-7.92l.51-3.29a9.48,9.48,0,0,0-7.9-10.82h0l-.54-.08a9.48,9.48,0,0,0-10.77,8h0l-.5,3.3a9.47,9.47,0,0,0,7.9,10.82h.5Z"/><path class="cls-2" d="M232,145.23,224.52,144c-6.4-1-10.55-3.79-9.61-10.2h0c1-6.36,13.18-13,13.18-13l7.48,1.21s9.17,9.7,8.18,16.1h0C242.77,144.53,238.4,146.21,232,145.23Z"/><path class="cls-1" d="M223.42,142.5a13.88,13.88,0,0,0-10.65,11.43l-1.2,7.65L239,165.8l1.2-7.65a13.88,13.88,0,0,0-6.73-14.09"/><path class="cls-6" d="M236.41,146.38l-9.47,6.94-7-9.49A13.84,13.84,0,0,0,212.77,154l-1.2,7.66L239,165.84l1.2-7.66A13.85,13.85,0,0,0,236.41,146.38Z"/><path class="cls-2" d="M239.57,166.54l-28.68-4.42,1.28-8.25A14.4,14.4,0,0,1,223.28,142l.28,1.2a13.22,13.22,0,0,0-10.19,10.92l-1.08,7.05,26.26,4,1.08-7a13.22,13.22,0,0,0-6.43-13.48l.61-1a14.43,14.43,0,0,1,7,14.71Z"/><rect class="cls-1" x="218.29" y="122.71" width="23.48" height="20.68" rx="9.95" transform="matrix(0.15, -0.99, 0.99, 0.15, 63.53, 340.16)"/><path class="cls-2" d="M230.06,145.42a11.06,11.06,0,0,1-1.62-.13h0l-.54-.09A10.67,10.67,0,0,1,219,133l.51-3.31a10.7,10.7,0,0,1,12.17-8.93l.54.07a10.7,10.7,0,0,1,8.93,12.19l-.52,3.31A10.71,10.71,0,0,1,230.06,145.42Zm-1.46-1.34a9.45,9.45,0,0,0,10.81-7.87v0l.51-3.3a9.46,9.46,0,0,0-7.9-10.81h0l-.54-.09a9.48,9.48,0,0,0-10.82,7.92l-.47,3.31A9.46,9.46,0,0,0,228,144h.05Z"/><path class="cls-2" d="M219.82,131.46s14.59,3.47,16.4-8.19l-4.39-1.78L225,122.76l-3.6,3.69Z"/><path class="cls-1" d="M214.46,200.77a13.85,13.85,0,0,0-10.64,11.41l-1.21,7.66,27.46,4.22,1.21-7.65a13.88,13.88,0,0,0-6.73-14.09"/><path class="cls-4" d="M227.45,204.6l-9.47,7-6.95-9.5a13.8,13.8,0,0,0-7.21,10.13l-1.21,7.66,27.46,4.22,1.21-7.65A13.81,13.81,0,0,0,227.45,204.6Z"/><path class="cls-2" d="M230.6,224.75l-28.66-4.41,1.27-8.24a14.43,14.43,0,0,1,11.12-11.91l.27,1.2a13.2,13.2,0,0,0-10.18,10.93l-1.09,7.05,26.26,4,1.09-7.06a13.25,13.25,0,0,0-6.43-13.47l.61-1.06a14.45,14.45,0,0,1,7,14.73Z"/><path class="cls-2" d="M221.11,203.63a10.94,10.94,0,0,1-1.62-.12h0l-.53-.09A10.7,10.7,0,0,1,210,191.23l.5-3.29A10.69,10.69,0,0,1,222.71,179l.54.09a10.69,10.69,0,0,1,8.95,12.17l-.5,3.31A10.72,10.72,0,0,1,221.11,203.63Zm-1.44-1.33a9.47,9.47,0,0,0,10.81-7.92l.51-3.29a9.48,9.48,0,0,0-7.9-10.82h0l-.54-.08a9.48,9.48,0,0,0-10.77,8h0l-.5,3.3a9.47,9.47,0,0,0,7.9,10.82h.5Z"/><path class="cls-2" d="M212.13,186.13s5.64-.09,6.71-7.09C218.84,179,213.16,179.38,212.13,186.13Z"/><path class="cls-2" d="M231.31,192.83S217,184.7,218.84,179C218.84,179,234.1,179,231.31,192.83Z"/><path class="cls-1" d="M416.38,192.67l17.15,5.05a5,5,0,0,1,3.39,6.23l-1.41,4.8a4.66,4.66,0,0,1-5.79,3.16h0l-17.49-5.15a3.39,3.39,0,0,1-2.29-4.2l2.25-7.62a3.37,3.37,0,0,1,4.19-2.28Z"/><path class="cls-7" d="M431,212.71a5.42,5.42,0,0,1-1.49-.21L412,207.4a4,4,0,0,1-2.69-4.94l2.24-7.62a4,4,0,0,1,4.94-2.69l17.15,5.06a5.6,5.6,0,0,1,3.8,6.95h0l-1.42,4.8A5.27,5.27,0,0,1,431,212.71Zm-15.62-19.58a2.8,2.8,0,0,0-2.66,2l-2.24,7.62a2.77,2.77,0,0,0,1.87,3.45l17.49,5.14a4.06,4.06,0,0,0,5-2.75l1.42-4.81a4.42,4.42,0,0,0-3-5.47h0l-17.15-5.06a3.34,3.34,0,0,0-.77-.12Z"/><polygon class="cls-1" points="384.32 260.33 360.72 253.37 393.43 185.91 417.05 192.87 384.32 260.33"/><path class="cls-7" d="M384.32,261.48a.91.91,0,0,1-.33,0l-23.62-7a1.2,1.2,0,0,1-.75-.68,1.19,1.19,0,0,1,0-1l32.71-67.46a1.2,1.2,0,0,1,1.42-.62l23.64,7a1.17,1.17,0,0,1,.75.66,1.19,1.19,0,0,1,0,1l-32.72,67.47A1.21,1.21,0,0,1,384.32,261.48Zm-21.9-8.91,21.27,6.27,31.65-65.27-21.27-6.28Z"/><path class="cls-1" d="M414,216.65a6.91,6.91,0,0,1-2.07-.3l-23.15-6.82,9.08-30.82,22.84,6.73a7.67,7.67,0,0,1,5.18,9.51l-4.81,16.45a7.35,7.35,0,0,1-7,5.25Z"/><path class="cls-7" d="M398.72,180.2l21.63,6.4a6.48,6.48,0,0,1,4.37,8l-4.81,16.46a6.14,6.14,0,0,1-5.87,4.38,6,6,0,0,1-1.73-.25l-22-6.48,8.41-28.52m-1.62-3-9.77,33.12,24.3,7.22a8.54,8.54,0,0,0,10.59-5.76h0L427,195.34a8.88,8.88,0,0,0-6-11l-24-7.07Z"/><circle class="cls-1" cx="313.27" cy="167.93" r="19.75"/><path class="cls-7" d="M313.26,188.28a21,21,0,0,1-5.73-.83,20.33,20.33,0,1,1,5.73.83Zm0-39.51a19.14,19.14,0,1,0,5.41.78,19.61,19.61,0,0,0-5.38-.78Z"/><polygon class="cls-4" points="325.95 123.12 399.95 178.07 390.19 211.19 298.9 214.92 325.95 123.12"/><rect class="cls-1" x="261.63" y="163.3" width="101.13" height="13.12" rx="4.31" transform="translate(61 421.3) rotate(-73.58)"/><path class="cls-7" d="M301.26,220.38a5.57,5.57,0,0,1-1.57-.23h0l-4.3-1.26a5.52,5.52,0,0,1-3.74-6.85h0l26.16-88.76a5.54,5.54,0,0,1,6.86-3.74l4.29,1.33a5.52,5.52,0,0,1,3.74,6.85v0l-26.16,88.71a5.48,5.48,0,0,1-5.28,3.94Zm-.89-2.52a3.14,3.14,0,0,0,2.4-.26,3,3,0,0,0,1.49-1.86L330.39,127a3.12,3.12,0,0,0-2.05-3.87l-4.3-1.27a3.12,3.12,0,0,0-3.87,2.11L294,212.71a3.11,3.11,0,0,0,2.1,3.87h0Z"/><line class="cls-3" x1="400.3" y1="189.76" x2="416.23" y2="194.44"/><path class="cls-7" d="M416.23,195.06h-.17l-15.93-4.69a.61.61,0,0,1-.41-.75.59.59,0,0,1,.74-.4l15.94,4.69a.61.61,0,0,1,.41.75A.63.63,0,0,1,416.23,195.06Z"/><line class="cls-3" x1="398.71" y1="195.13" x2="414.65" y2="199.83"/><path class="cls-7" d="M414.65,200.43h-.17l-15.94-4.7a.63.63,0,0,1-.43-.77.62.62,0,0,1,.77-.43h0l16,4.72a.61.61,0,1,1-.16,1.2h0Z"/><line class="cls-3" x1="397.12" y1="200.51" x2="413.06" y2="205.21"/><path class="cls-7" d="M413.06,205.81h-.17L397,201.11a.6.6,0,0,1-.41-.74.59.59,0,0,1,.74-.41h0l15.93,4.7a.6.6,0,0,1,.41.74A.61.61,0,0,1,413.06,205.81Z"/><path class="cls-1" d="M388.88,184a1.19,1.19,0,0,1-.7-.22l-55.75-39.51a1.2,1.2,0,1,1,1.24-2.06.71.71,0,0,1,.14.1l55.83,39.52a1.2,1.2,0,0,1-.76,2.17Z"/><path class="cls-1" d="M386.92,190.57a1.19,1.19,0,0,1-.68-.21L348.78,164a1.21,1.21,0,0,1,1.38-2l37.51,26.29a1.21,1.21,0,0,1-.7,2.19Z"/></svg>