<svg id="圖層_1" data-name="圖層 1" xmlns="http://www.w3.org/2000/svg" viewBox="0 0 599 297"><defs><style>.cls-1{fill:#fff;}.cls-2{fill:#424242;}.cls-3{fill:#525252;}.cls-4{fill:#e0e0e0;}.cls-5{fill:#f4f4f4;}.cls-6{fill:#f8f8f8;}.cls-7{fill:#ffda6a;}</style></defs><title>14</title><g id="Group_8331" data-name="Group 8331"><g id="Path_2863-5" data-name="Path 2863-5"><path class="cls-1" d="M254.55,147.18h90l29.2,21.5H225.43Z"/></g><g id="Rectangle_1408" data-name="Rectangle 1408"><polyline class="cls-1" points="373.57 168.77 373.57 295.51 225.33 295.51 225.33 168.77"/><path class="cls-2" d="M373.57,297H225.33a1.49,1.49,0,0,1-1.49-1.49V168.77a1.49,1.49,0,0,1,3,0V294H372.08V168.77a1.49,1.49,0,0,1,3,0V295.51A1.48,1.48,0,0,1,373.57,297Z"/></g><g id="Path_2863-6" data-name="Path 2863-6"><path class="cls-1" d="M277.33,153h44.44l11.66,9.83H265.66Z"/><path class="cls-2" d="M333.43,163.53H265.66a.68.68,0,0,1-.64-.45.7.7,0,0,1,.19-.77l11.68-9.83a.65.65,0,0,1,.44-.16h44.44a.73.73,0,0,1,.45.16l11.66,9.83a.69.69,0,0,1,.11,1A.71.71,0,0,1,333.43,163.53Zm-65.88-1.37h64l-10-8.46H277.58Z"/></g><g id="Path_2801" data-name="Path 2801"><g id="Path_2863" data-name="Path 2863"><path class="cls-2" d="M373.66,170.17a1.45,1.45,0,0,1-.88-.29l-28.73-21.22H255l-28.73,21.22a1.48,1.48,0,0,1-1.75-2.39L253.68,146a1.44,1.44,0,0,1,.87-.29h90a1.5,1.5,0,0,1,.89.29l29.12,21.51a1.49,1.49,0,0,1,.31,2.08h0A1.51,1.51,0,0,1,373.66,170.17Z"/></g></g><g id="Rectangle_1408-2" data-name="Rectangle 1408-2"><path class="cls-2" d="M365.1,169.51H337.63a.74.74,0,1,1,0-1.48H365.1a.74.74,0,1,1,0,1.48Z"/></g><g id="Rectangle_1408-3" data-name="Rectangle 1408-3"><path class="cls-2" d="M332.51,169.51H231.19a.74.74,0,0,1-.74-.74.76.76,0,0,1,.74-.74H332.51a.74.74,0,1,1,0,1.48Z"/></g></g><g id="投票_開票" data-name="投票 開票"><path class="cls-2" d="M233.14,234.63a2.24,2.24,0,0,1-.37-1.49v-4.36a2.59,2.59,0,0,1,.37-1.72,2.19,2.19,0,0,1,1.49-.37h13.66v-3H237.55a1.9,1.9,0,0,1-1.48-.47,2.24,2.24,0,0,1-.42-1.48V217.4a2.46,2.46,0,0,1,.42-1.72,2.06,2.06,0,0,1,1.48-.41h10.78v-2.69a1.38,1.38,0,0,1,.43-1.07,1.49,1.49,0,0,1,1.07-.33h6.5a1.9,1.9,0,0,1,1.16.33,1.36,1.36,0,0,1,.46,1.07v2.69h10.74a2,2,0,0,1,1.48.41,3,3,0,0,1,.48,1.72v4.37a2.35,2.35,0,0,1-.42,1.48,2.08,2.08,0,0,1-1.59.47H257.92v3h13.62a2.29,2.29,0,0,1,1.59.37,3.32,3.32,0,0,1,.41,1.72v4.36a2.19,2.19,0,0,1-.37,1.49,2.13,2.13,0,0,1-1.63.48H256.05l-7.9,9.34h10l-2.51-3c-.37-.69-.42-1.21-.2-1.49a1.92,1.92,0,0,1,1.49-.41h6.65a1.74,1.74,0,0,1,1.35.41l1.38,1.49,7.12,8.46a1.06,1.06,0,0,1,.1,1.4,1.76,1.76,0,0,1-1.35.55h-38a1.77,1.77,0,0,1-1.35-.55,1,1,0,0,1,.11-1.4l12.4-14.85H234.63A2,2,0,0,1,233.14,234.63Z"/><path class="cls-2" d="M279.25,224.93a2,2,0,0,1-.42-1.48v-2.18a2.48,2.48,0,0,1,.42-1.73,2,2,0,0,1,1.48-.41h2.44v-5.94a2.28,2.28,0,0,1,.32-1.49,2.86,2.86,0,0,1,1.49-.33h4a2.54,2.54,0,0,1,1.49.38,2,2,0,0,1,.41,1.48v5.94h1.21a2.28,2.28,0,0,1,1.57.42,2.54,2.54,0,0,1,.42,1.72v2.23a1.66,1.66,0,0,1-1.31,1.93,1.73,1.73,0,0,1-.68,0H291V228l1.25-.56c.74-.18,1.26-.14,1.48.24a2.75,2.75,0,0,1,.29,1.57v4.6a2,2,0,0,1-.38,1.4,11.66,11.66,0,0,1-1.48.79l-1.11.46v14a1.5,1.5,0,0,1-.42,1.17,2.55,2.55,0,0,1-1.48.31h-6.92a2.42,2.42,0,0,1-1.49-.31,1.49,1.49,0,0,1-.41-1.17v-4.28a1.92,1.92,0,0,1,.41-1.49,2.43,2.43,0,0,1,1.49-.37h.17a.84.84,0,0,0,.94-.74.81.81,0,0,0,0-.22v-3.77l-2.55,1.11a1.12,1.12,0,0,1-1.31-.13,2.17,2.17,0,0,1-.46-1.68v-4.25a1.8,1.8,0,0,1,.33-1.4,11.36,11.36,0,0,1,1.57-1l2.42-1.07v-5.72h-2.47A1.75,1.75,0,0,1,279.25,224.93Zm38.29,4.84a2,2,0,0,1,1.29.6,2.27,2.27,0,0,1,.66,1.26v3.82a10,10,0,0,1-1.3,4,12.41,12.41,0,0,1-3.44,3.95c1.2.22,2.46.5,3.77.83a3,3,0,0,1,1.38.5,1.53,1.53,0,0,1,.57,1.22v4.46a1.5,1.5,0,0,1-.57,1.21,2.43,2.43,0,0,1-1.38.46A87.54,87.54,0,0,1,307,248.26a37.22,37.22,0,0,1-3.63,1.72,19.86,19.86,0,0,1-7.06,2.05,2.2,2.2,0,0,1-1.35-.46,1.57,1.57,0,0,1-.5-1.21V245.9a1.61,1.61,0,0,1,.5-1.22,2.74,2.74,0,0,1,1.35-.5c.88-.09,1.81-.28,2.73-.46a8.31,8.31,0,0,1-1.15-1.22,6.53,6.53,0,0,1-1.86-3c0-.52.09-.83.37-1a1.9,1.9,0,0,1,1.16-.29h3.77a2.27,2.27,0,0,1,1.2.29,7.82,7.82,0,0,1,1.12.87,14.23,14.23,0,0,0,3.29,2c2.8-1.12,4.46-2.51,5.17-4.13h-14.6a2,2,0,0,1-1.35-.48,1.49,1.49,0,0,1-.55-1.2v-3.92a1.71,1.71,0,0,1,.55-1.26,2.12,2.12,0,0,1,1.35-.6Zm-19.75-1.26a2.76,2.76,0,0,1-1.68-.37,1.31,1.31,0,0,1-.46-1.16v-4.23a1.86,1.86,0,0,1,.46-1.48,2.7,2.7,0,0,1,1.68-.38.86.86,0,0,0,1-.74,1,1,0,0,0,0-.24v-6.55a2.21,2.21,0,0,1,.52-1.72,2.37,2.37,0,0,1,1.62-.41h13.24a2.58,2.58,0,0,1,1.77.41,2.51,2.51,0,0,1,.41,1.72v6.55a.92.92,0,0,0,.82,1h.21a3,3,0,0,1,1.72.38,2,2,0,0,1,.46,1.48V227a1.37,1.37,0,0,1-.46,1.16,2.87,2.87,0,0,1-1.72.37h-5a2.81,2.81,0,0,1-1.7-.37,1.37,1.37,0,0,1-.43-1.16v-8.22H305V227a1.3,1.3,0,0,1-.48,1.16,2.67,2.67,0,0,1-1.7.37Z"/><path class="cls-2" d="M326,241.34a2.29,2.29,0,0,1-.37-1.48v-1.12A2.87,2.87,0,0,1,326,237a2.1,2.1,0,0,1,1.49-.41h37.12a2.33,2.33,0,0,1,1.62.41,2.87,2.87,0,0,1,.37,1.72v1.12a2.29,2.29,0,0,1-.37,1.48,2.14,2.14,0,0,1-1.62.52H350.25v8.5a1.46,1.46,0,0,1-.37,1.07,1.72,1.72,0,0,1-1.07.37h-5.43a1.82,1.82,0,0,1-1.13-.37,1.23,1.23,0,0,1-.46-1.07v-8.5h-14.4A1.94,1.94,0,0,1,326,241.34Zm.09-25.93a2.56,2.56,0,0,1-.37-1.48v-.74a2.9,2.9,0,0,1,.37-1.73,2.16,2.16,0,0,1,1.48-.37h37a2.35,2.35,0,0,1,1.59.37,2.76,2.76,0,0,1,.37,1.73v.74a2.41,2.41,0,0,1-.37,1.48,2,2,0,0,1-1.59.46h-9v1.49h9a2.32,2.32,0,0,1,1.59.43,2.57,2.57,0,0,1,.37,1.71v7.11a2.2,2.2,0,0,1-.37,1.49,2.15,2.15,0,0,1-1.59.52h-36.9a2,2,0,0,1-1.49-.52,2.44,2.44,0,0,1-.37-1.49V219.5a2.82,2.82,0,0,1,.37-1.71,2.16,2.16,0,0,1,1.49-.43h9v-1.49h-9A1.9,1.9,0,0,1,326.05,215.41Zm12.18,27.51a1.91,1.91,0,0,1,1.15.52,1.64,1.64,0,0,1,.52,1.2v2.14a4.93,4.93,0,0,1-1.3,3.72,6.38,6.38,0,0,1-4.32,1.39H328a1.84,1.84,0,0,1-1.3-.51,1.65,1.65,0,0,1-.52-1.16v-1.76a1.61,1.61,0,0,1,.52-1.16,2.23,2.23,0,0,1,1.3-.52h3.07a1.62,1.62,0,0,0,1.31-.51,1.75,1.75,0,0,0,.5-1.3v-.33a1.75,1.75,0,0,1,.51-1.2,2.27,2.27,0,0,1,1.21-.52Zm-10.09-8.29a2.26,2.26,0,0,1-.41-1.49v-1.06a2.41,2.41,0,0,1,.41-1.73,2.2,2.2,0,0,1,1.49-.41h32.86a2.31,2.31,0,0,1,1.57.41,2.46,2.46,0,0,1,.42,1.73v1.06a2.26,2.26,0,0,1-.42,1.49,2.07,2.07,0,0,1-1.57.48H329.67A2,2,0,0,1,328.14,234.63Zm5.53-10.87h3v-1.49h-3Zm11-7.9v1.48h2.84v-1.48Zm0,6.37v1.49h2.84v-1.49Zm14.26,21.21a1.78,1.78,0,0,1,.5,1.2V245a1.72,1.72,0,0,0,.51,1.31,1.67,1.67,0,0,0,1.3.51h3.06a2.26,2.26,0,0,1,1.31.52,1.61,1.61,0,0,1,.52,1.15v1.77a1.65,1.65,0,0,1-.52,1.16,1.82,1.82,0,0,1-1.31.51H358a6.39,6.39,0,0,1-4.32-1.39,4.86,4.86,0,0,1-1.3-3.72V244.7a1.64,1.64,0,0,1,.52-1.2,1.93,1.93,0,0,1,1.15-.52h3.63A2.29,2.29,0,0,1,358.9,243.44Zm-.39-21.19h-3v1.48h3Z"/></g><path class="cls-1" d="M366.8,12.86H355a2.87,2.87,0,0,0-1.22.28L336.87,21l-11,14.6a2.62,2.62,0,0,0,.54,3.66l.19.13h0a5.29,5.29,0,0,0,6.89-1.22l8.67-10.89,13.32-6.53"/><path class="cls-3" d="M329.44,41a6,6,0,0,1-3.14-.88,3.37,3.37,0,0,1-.95-4.89l11-14.65a1,1,0,0,1,.28-.23l16.91-7.91a3.65,3.65,0,0,1,1.49-.34h11.77a.74.74,0,1,1,0,1.48H355a2.17,2.17,0,0,0-.91.21l-16.74,7.84L326.5,36.13a1.87,1.87,0,0,0,.37,2.62l.15.1a4.57,4.57,0,0,0,5.93-1l8.66-10.88a1.64,1.64,0,0,1,.25-.21l13.28-6.62a.74.74,0,0,1,1,.21.75.75,0,0,1-.22,1,.8.8,0,0,1-.16.08L342.68,28l-8.57,10.75A5.92,5.92,0,0,1,329.44,41Z"/><path class="cls-1" d="M363.65,10.11,336,28l-7.33,22.82a2.35,2.35,0,0,0,1.52,3l.08,0,1.49.42a5.56,5.56,0,0,0,6.87-3.81v0l5.1-18.09"/><path class="cls-3" d="M333.24,55.2A6.36,6.36,0,0,1,331.5,55L330,54.53A3,3,0,0,1,328.13,53a3,3,0,0,1-.21-2.4l7.34-22.83a.77.77,0,0,1,.29-.4L363.2,9.59a.78.78,0,0,1,1,.23.74.74,0,0,1-.22,1l-27.4,17.64-7.26,22.57a1.61,1.61,0,0,0,.11,1.27,1.56,1.56,0,0,0,1,.78l1.48.42a4.75,4.75,0,0,0,3.67-.42,4.86,4.86,0,0,0,2.29-3L343,32.06a.75.75,0,0,1,.91-.52.77.77,0,0,1,.52.92L339.3,50.61A6.34,6.34,0,0,1,333.24,55.2Z"/><path class="cls-1" d="M449.85,8.81H369.2a12.46,12.46,0,0,0-8.82,3.65L341.33,31.53V60A2.68,2.68,0,0,0,344,62.71h1.51a5.58,5.58,0,0,0,5.6-5.57h0V40.7l10.74-10.87h4.58A5.16,5.16,0,0,1,371.61,35h0V49.73l-9.8,9.8a5.38,5.38,0,0,0,0,7.61h0a5.37,5.37,0,0,0,7.6,0v0l13.47-13.47,16.63-16.56h50.33"/><path class="cls-3" d="M365.68,69.47a6.12,6.12,0,0,1-4.33-10.4l9.57-9.59V35a4.46,4.46,0,0,0-4.45-4.46h-4.28L351.8,40.93v16.2a6.34,6.34,0,0,1-6.27,6.32h-1.48a3.4,3.4,0,0,1-3.43-3.4V31.53a.75.75,0,0,1,.2-.52l19.06-19.13A13.14,13.14,0,0,1,369.2,8h80.65a.76.76,0,0,1,.74.74.74.74,0,0,1-.74.74H369.2a11.63,11.63,0,0,0-8.27,3.43L342.07,31.79V60A2,2,0,0,0,344,62h1.53a4.86,4.86,0,0,0,4.86-4.84V40.7a.73.73,0,0,1,.21-.52l10.86-10.87a.84.84,0,0,1,.52-.22h4.59A5.94,5.94,0,0,1,372.51,35V49.78a.74.74,0,0,1-.22.52l-9.8,9.8a4.65,4.65,0,1,0,6.58,6.58h0L399,36.59a.71.71,0,0,1,.52-.22h50.32a.74.74,0,1,1,0,1.48h-50L370,67.69A6.18,6.18,0,0,1,365.68,69.47Z"/><rect class="cls-4" x="300.85" y="50.59" width="80.93" height="54.25" transform="translate(45.01 264.1) rotate(-45)"/><rect class="cls-5" x="350.14" y="41.96" width="16.91" height="38.91" transform="translate(61.6 271.54) rotate(-45)"/><rect class="cls-5" x="333.18" y="58.51" width="16.91" height="38.91" transform="translate(44.93 264.4) rotate(-45)"/><rect class="cls-5" x="316.55" y="75.55" width="16.91" height="38.91" transform="translate(28.01 257.63) rotate(-45)"/><path class="cls-1" d="M366.74,29.94A5.08,5.08,0,0,1,371.83,35V49.61l-9.68,9.69a5.34,5.34,0,0,0,0,7.54h0a5.34,5.34,0,0,0,7.53,0L383,53.47l16.33-16.33h50.27"/><path class="cls-3" d="M365.9,69.14a6.07,6.07,0,0,1-4.29-10.39l9.48-9.48V35a4.35,4.35,0,0,0-4.35-4.35.74.74,0,1,1,0-1.48A5.83,5.83,0,0,1,372.57,35V49.61a.72.72,0,0,1-.21.52l-9.69,9.7a4.59,4.59,0,0,0,6.49,6.49l29.69-29.7a.7.7,0,0,1,.52-.22h50.27a.74.74,0,1,1,0,1.48H399.7L370.21,67.36A6.09,6.09,0,0,1,365.9,69.14Zm5.94-19.53Z"/><rect class="cls-1" x="403.93" y="3.52" width="49.36" height="42.13"/><path class="cls-2" d="M453.29,46.33H403.93a.69.69,0,0,1-.7-.67h0V3.52a.68.68,0,0,1,.69-.68h49.37a.66.66,0,0,1,.68.65V45.65a.66.66,0,0,1-.65.68ZM404.62,45h48V4.22h-48Z"/><rect class="cls-2" x="412.65" width="57.61" height="49.17"/><circle class="cls-6" cx="424.53" cy="41.57" r="4.08"/><circle class="cls-6" cx="436.08" cy="41.57" r="4.08"/><path class="cls-1" d="M233.78,44.19h11.77a3,3,0,0,1,1.22.29l16.91,7.91,11,14.64a2.6,2.6,0,0,1-.53,3.64l-.19.13h0a5.26,5.26,0,0,1-6.89-1.21L258.38,58.7l-13.26-6.62"/><path class="cls-3" d="M271.12,72.35a5.94,5.94,0,0,1-4.7-2.27l-8.5-10.68-13.11-6.56a.75.75,0,0,1-.34-1h0a.73.73,0,0,1,1-.34h0l13.21,6.55a.93.93,0,0,1,.23.21l8.67,10.89a4.58,4.58,0,0,0,5.94,1,1.94,1.94,0,0,0,.93-1.28,1.87,1.87,0,0,0-.35-1.48L263.22,53l-16.76-7.82a2.16,2.16,0,0,0-.91-.2H233.78a.75.75,0,0,1-.74-.75.74.74,0,0,1,.74-.74h11.77a3.82,3.82,0,0,1,1.49.34L264,51.71a.85.85,0,0,1,.26.24l11,14.64a3.29,3.29,0,0,1,.61,2.63,3.37,3.37,0,0,1-1.48,2.22A6.14,6.14,0,0,1,271.12,72.35Z"/><path class="cls-1" d="M236.93,41.45,264.58,59.4,272,82.22a2.36,2.36,0,0,1-1.55,3h-.05l-1.49.42A5.56,5.56,0,0,1,262,81.82s0-.1,0-.14l-5.09-18"/><path class="cls-3" d="M267.34,86.53a6.29,6.29,0,0,1-6.06-4.59l-5.09-18.08a.77.77,0,1,1,1.48-.41l5,18.08a4.8,4.8,0,0,0,5.91,3.33h0l1.49-.41a1.66,1.66,0,0,0,1-.79,1.58,1.58,0,0,0,.11-1.26L264,59.82,236.54,42a.75.75,0,0,1-.22-1,.77.77,0,0,1,1-.22l27.63,18a.85.85,0,0,1,.3.4l7.33,22.82a3,3,0,0,1-.2,2.41,3.05,3.05,0,0,1-1.89,1.48l-1.49.42A5.76,5.76,0,0,1,267.34,86.53Z"/><path class="cls-1" d="M150.73,40.1h80.64a12.48,12.48,0,0,1,8.81,3.65l19.06,19.11v28.5a2.69,2.69,0,0,1-2.68,2.69h-1.49a5.6,5.6,0,0,1-5.6-5.57V72L238.62,61.17h-4.56a5.15,5.15,0,0,0-5.15,5.15h0V81.07l9.8,9.8a5.41,5.41,0,0,1,0,7.62h0a5.37,5.37,0,0,1-7.6,0h0L217.62,85,201.05,68.44H150.73"/><path class="cls-3" d="M234.89,100.8A6.11,6.11,0,0,1,230.56,99L200.74,69.19h-50a.75.75,0,0,1-.74-.75.74.74,0,0,1,.74-.74h50.32a.71.71,0,0,1,.52.22l30,30.09a4.65,4.65,0,0,0,6.57-6.57h0l-9.78-9.75a.7.7,0,0,1-.22-.54V66.32a5.94,5.94,0,0,1,5.94-5.94h4.51a.74.74,0,0,1,.52.22L250,71.47a.78.78,0,0,1,.21.52V88.46a4.85,4.85,0,0,0,4.85,4.84h1.49a1.94,1.94,0,0,0,1.94-1.94V63.14L239.64,44.28a11.63,11.63,0,0,0-8.27-3.43H150.73a.74.74,0,0,1,0-1.48h80.64a13.12,13.12,0,0,1,9.33,3.86l19.06,19.14a.68.68,0,0,1,.23.52V91.36a3.44,3.44,0,0,1-3.43,3.43h-1.49a6.35,6.35,0,0,1-6.34-6.33V72.35L238.34,62h-4.28a4.46,4.46,0,0,0-4.45,4.46V80.86l9.57,9.58a6.11,6.11,0,0,1-4.33,10.39Z"/><rect class="cls-4" x="227.36" y="68.55" width="54.25" height="80.93" transform="translate(-2.55 211.88) rotate(-45)"/><rect class="cls-5" x="218.46" y="84.5" width="38.91" height="16.91" transform="translate(3.96 195.47) rotate(-45)"/><rect class="cls-5" x="235.01" y="101.47" width="38.91" height="16.91" transform="translate(-3.2 212.14) rotate(-45)"/><rect class="cls-5" x="252.05" y="118.09" width="38.91" height="16.91" transform="translate(-9.96 229.06) rotate(-45)"/><path class="cls-1" d="M233.84,61.27a5.08,5.08,0,0,0-5.1,5.06V81l9.69,9.64a5.33,5.33,0,0,1,0,7.52h0a5.32,5.32,0,0,1-7.53,0L217.53,84.75,201.2,68.41H150.92"/><path class="cls-3" d="M234.65,100.48a5.93,5.93,0,0,1-4.29-1.79L200.87,69.2h-50a.74.74,0,1,1,0-1.48h50.27a.63.63,0,0,1,.51.22l29.7,29.7a4.59,4.59,0,0,0,6.49-6.49l-9.66-9.68A.73.73,0,0,1,228,81V66.36a5.83,5.83,0,0,1,5.83-5.83h0a.74.74,0,1,1,0,1.48,4.35,4.35,0,0,0-4.35,4.35h0V80.64L239,90.11a6.07,6.07,0,0,1-4.31,10.39Z"/><polyline class="cls-7" points="129.48 75.66 171.34 75.66 171.34 61.32 161.98 55.92 171.34 50.52 171.34 36.17 129.48 36.17"/><path class="cls-3" d="M128.74,36.17a.74.74,0,0,1,.74-.74h41.86a.74.74,0,0,1,.74.74V50.49a.74.74,0,0,1-.37.64l-8.24,4.75,8.24,4.77a.73.73,0,0,1,.37.64V75.74a.74.74,0,0,1-.74.74H129.48a.74.74,0,0,1-.74-.74m1.48-.75H170.6V61.75l-9-5.19a.75.75,0,0,1-.28-1,.83.83,0,0,1,.28-.28l9-5.18V36.92H130.22"/><polygon class="cls-7" points="171.34 50.95 152.63 46.21 152.63 26.37 171.34 31.1 171.34 50.95"/><path class="cls-3" d="M171.34,51.69h-.19L152.5,46.94a.75.75,0,0,1-.57-.73V26.37a.73.73,0,0,1,.92-.72l18.71,4.73a.75.75,0,0,1,.57.72V51a.72.72,0,0,1-.3.59A.73.73,0,0,1,171.34,51.69Zm-18-6.06L170.6,50V31.68l-17.23-4.36Z"/><polygon class="cls-7" points="152.63 84.45 171.34 79.72 171.34 59.86 152.63 64.6 152.63 84.45"/><path class="cls-3" d="M152.63,85.18a.72.72,0,0,1-.74-.74V64.6a.75.75,0,0,1,.61-.74l18.69-4.73a.74.74,0,0,1,.91.56.76.76,0,0,1,0,.16V79.71a.74.74,0,0,1-.57.72l-18.71,4.73Zm.74-20V83.49l17.23-4.35V60.88Z"/><rect class="cls-2" x="192.66" y="40.14" width="5.66" height="28.23"/></svg>