<svg id="圖層_1" data-name="圖層 1" xmlns="http://www.w3.org/2000/svg" viewBox="0 0 599 297"><defs><style>.cls-1{fill:#424242;}.cls-2{fill:#fff;}.cls-3{fill:#afafaf;}.cls-4{fill:#f4f4f4;}.cls-5{fill:#f8f8f8;}.cls-6{fill:#00ffa7;}.cls-7{fill:#ffda6a;}</style></defs><title>13</title><path class="cls-1" d="M297,115.64h5.16a56.17,56.17,0,0,1,56.17,56.18v29.73a56.17,56.17,0,0,1-56.17,56.18H297a56.17,56.17,0,0,1-56.17-56.18V171.82A56.17,56.17,0,0,1,297,115.64Z"/><polyline class="cls-2" points="286.55 139.13 297.55 127.8 309.4 139.13 298.26 168.47"/><polygon class="cls-3" points="300.93 142.52 294.45 142.52 290.84 128.88 304.54 128.88 300.93 142.52"/><polygon class="cls-3" points="294.45 142.52 300.93 142.52 305.85 164.78 297.73 171.02 289.52 164.87 294.45 142.52"/><path class="cls-1" d="M293,33.78h17.74a20.53,20.53,0,0,1,20.53,20.53v20a28.86,28.86,0,0,1-28.87,28.87H293a28.86,28.86,0,0,1-28.84-28.86V62.65A28.87,28.87,0,0,1,293,33.78Z"/><path class="cls-2" d="M326.36,75h-.3v-.22A28.31,28.31,0,0,0,297.69,46.5h0a28.3,28.3,0,0,0-28.35,28.23V75A9.53,9.53,0,0,0,269.65,94H270a28.29,28.29,0,0,0,15,19.29v3.2a12.67,12.67,0,1,0,25.34,0v-3.2A28.29,28.29,0,0,0,325.42,94a7.37,7.37,0,0,0,.94,0,9.6,9.6,0,1,0,0-19.08Z"/><path class="cls-1" d="M297.69,129.74a13.19,13.19,0,0,1-13.27-13.12V113.7a28.79,28.79,0,0,1-14.88-19.07,10.13,10.13,0,0,1-.75-20.22,29,29,0,1,1,57.9,0,10.14,10.14,0,0,1-.28,20.27h-.47a28.67,28.67,0,0,1-15,19v2.83a13.19,13.19,0,0,1-13.18,13.21ZM270.45,93.41l.11.48a27.55,27.55,0,0,0,14.72,18.89l.34.16v3.6a12.07,12.07,0,1,0,24.14,0v-3.6l.34-.16a27.54,27.54,0,0,0,14.73-18.92l.11-.51h1.42a8.94,8.94,0,0,0,0-17.88h-.9v-.83a27.77,27.77,0,0,0-55.52,0v.79h-.59a8.93,8.93,0,0,0,.3,17.86Z"/><path class="cls-1" d="M264.12,28.5h36.75a12.6,12.6,0,0,1,12.61,12.61h0a11.26,11.26,0,0,1-11.25,11.26H275.37a11.26,11.26,0,0,1-11.25-11.26V28.5Z"/><path class="cls-2" d="M298.54,128.3a1.22,1.22,0,0,0,0,1.7l7.2,7.2a1.2,1.2,0,0,0,1.7,0h0l11.34-11.31a1.21,1.21,0,0,0,0-1.69l-7.2-7.2a1.21,1.21,0,0,0-1.7,0h0Z"/><path class="cls-1" d="M306.66,138a1.58,1.58,0,0,1-1.2-.48l-7.28-7.2a1.68,1.68,0,0,1,0-2.34l11.36-11.29a1.66,1.66,0,0,1,2.34-.06l.06.06,7.26,7.2a1.68,1.68,0,0,1,0,2.34l-11.36,11.29A1.59,1.59,0,0,1,306.66,138Zm4.08-20.92a.75.75,0,0,0-.53.22l-11.35,11.3h0a.77.77,0,0,0-.22.54.72.72,0,0,0,.22.51l7.27,7.2a.73.73,0,0,0,1,0l0,0,11.36-11.29a.78.78,0,0,0,.21-.53.7.7,0,0,0-.21-.53l-7.26-7.2A.79.79,0,0,0,310.74,117.1Zm-12.2,11.2Z"/><path class="cls-1" d="M313.51,118l15.6,15.52a1.21,1.21,0,0,1,0,1.69l-13.29,13.2a1.21,1.21,0,0,0,0,1.69l6.63,6.59a.82.82,0,0,1,.11,1.16.78.78,0,0,1-.33.24L297.75,171"/><path class="cls-2" d="M297.14,128.3a1.2,1.2,0,0,1,0,1.7l-7.2,7.2a1.2,1.2,0,0,1-1.7,0h0l-11.35-11.31a1.19,1.19,0,0,1,0-1.69l7.27-7.2a1.19,1.19,0,0,1,1.69,0Z"/><path class="cls-1" d="M289,138a1.62,1.62,0,0,1-1.2-.48L276.5,126.25a1.67,1.67,0,0,1,0-2.34l7.2-7.2a1.66,1.66,0,0,1,2.34-.06l.06.06L297.44,128a1.63,1.63,0,0,1,0,2.31l0,0-7.2,7.2A1.6,1.6,0,0,1,289,138Zm-4.09-20.91a.74.74,0,0,0-.53.21l-7.2,7.2a.71.71,0,0,0-.22.53.75.75,0,0,0,.22.53l11.34,11.29a.74.74,0,0,0,1,0v0l7.2-7.2a.68.68,0,0,0,.23-.51.73.73,0,0,0-.23-.54h0L285.46,117.3A.74.74,0,0,0,284.93,117.11Z"/><path class="cls-1" d="M281.91,118.21l-15.6,15.52a1.21,1.21,0,0,0,0,1.69l13.28,13.2a1.21,1.21,0,0,1,0,1.69L273,156.9a.84.84,0,0,0-.11,1.17.9.9,0,0,0,.32.23l24.48,12.88"/><path class="cls-1" d="M316.09,150.43l6.33,6.3a1,1,0,0,1,0,1.48l-.13.12L298,177.53"/><path class="cls-2" d="M298,177.79a.29.29,0,0,1-.3-.3.3.3,0,0,1,.11-.23l24.36-19.2a.74.74,0,0,0,.11-1l-.11-.11-6.34-6.31a.3.3,0,0,1,.43-.43h0l6.33,6.31a1.33,1.33,0,0,1,.42,1.05,1.36,1.36,0,0,1-.53,1l-24.36,19.2A.27.27,0,0,1,298,177.79Z"/><path class="cls-1" d="M315.39,119.9l13.69,13.64a1.19,1.19,0,0,1,0,1.69L315,149.3"/><path class="cls-2" d="M315,149.6a.31.31,0,0,1-.22-.09.3.3,0,0,1,0-.41h0L328.88,135a.92.92,0,0,0,0-1.27l-13.74-13.63a.3.3,0,0,1-.06-.42.29.29,0,0,1,.42-.06.17.17,0,0,1,.06.06l13.74,13.63a1.49,1.49,0,0,1,.43,1.06,1.51,1.51,0,0,1-.43,1.06l-14.16,14.07A.31.31,0,0,1,315,149.6Z"/><path class="cls-1" d="M279.53,150.43,273,156.9a1.09,1.09,0,0,0,0,1.54.43.43,0,0,0,.1.09l22.06,18.94"/><path class="cls-2" d="M295.12,177.79a.34.34,0,0,1-.19-.07l-22.06-18.94a1.39,1.39,0,0,1-.51-1,1.43,1.43,0,0,1,.42-1l6.53-6.49a.29.29,0,0,1,.42.06.3.3,0,0,1,0,.36l-6.52,6.5a.79.79,0,0,0,0,1.19l22.08,19a.32.32,0,0,1,0,.43A.31.31,0,0,1,295.12,177.79Z"/><path class="cls-1" d="M279.6,120.52l-13.2,13.2a1.19,1.19,0,0,0,0,1.69l14.06,14.07"/><path class="cls-2" d="M280.46,149.8a.3.3,0,0,1-.2-.1l-14.14-14.08a1.38,1.38,0,0,1-.44-1.05,1.5,1.5,0,0,1,.44-1.06l13.2-13.2a.31.31,0,0,1,.43,0h0a.29.29,0,0,1,0,.41h0l-13.27,13.2a.9.9,0,0,0,0,1.27l14.14,14.08a.3.3,0,0,1,0,.41h0A.34.34,0,0,1,280.46,149.8Z"/><polyline class="cls-4" points="428.82 238.47 365.68 191.59 365.68 238.47"/><path class="cls-1" d="M428.82,239.08a.55.55,0,0,1-.35-.12l-62.2-46.17V238.5a.6.6,0,1,1-1.2,0V191.59a.62.62,0,0,1,.32-.54.6.6,0,0,1,.63,0L429.13,238a.61.61,0,0,1-.31,1.11Z"/><polygon class="cls-4" points="232.61 191.5 232.61 238.37 169.46 238.37 232.61 191.5"/><path class="cls-1" d="M232.61,239H169.46a.6.6,0,0,1-.58-.42.62.62,0,0,1,.22-.68L232.25,191a.64.64,0,0,1,.95.54v46.88A.6.6,0,0,1,232.61,239Zm-61.33-1.2H232V192.7Z"/><polygon class="cls-2" points="436.87 232.12 430.68 227.49 427.44 224.95 427.31 224.95 382.77 191.59 366.37 191.59 410.91 224.95 187.92 224.95 232.58 191.5 216.19 191.5 162.09 232.02 162.35 232.02 162.09 232.2 436.75 232.2 436.63 232.12 436.87 232.12"/><path class="cls-1" d="M436.75,232.81H162.09a.58.58,0,0,1-.54-.43.39.39,0,0,1,0-.26.61.61,0,0,1,.23-.59L215.88,191a.52.52,0,0,1,.36-.12H232.6a.6.6,0,0,1,.56.42.61.61,0,0,1-.22.67l-43.19,32.4H409.09L366,192.12a.6.6,0,0,1,.34-1.09h16.41a.52.52,0,0,1,.35.12l44.39,33.24a.5.5,0,0,1,.29.12L431,227l6.19,4.63a.63.63,0,0,1,.21.69.61.61,0,0,1-.29.34A.59.59,0,0,1,436.75,232.81Zm-273.09-1.2H435.13l-4.8-3.6-3.1-2.4a.67.67,0,0,1-.28-.1l-44.4-33.25h-14.4l43.08,32.26a.64.64,0,0,1,.22.69.61.61,0,0,1-.58.42H188a.6.6,0,0,1-.58-.42.63.63,0,0,1,.22-.69l43.19-32.4h-14.4Z"/><rect class="cls-5" x="162.15" y="232.2" width="274.66" height="35.69"/><path class="cls-1" d="M436.81,268.5H162.15a.6.6,0,0,1-.6-.6h0V232.2a.6.6,0,0,1,.6-.6H436.81a.6.6,0,0,1,.6.6v35.69a.59.59,0,0,1-.59.61Zm-274.06-1.2H436.21V232.81H162.75Z"/><path class="cls-1" d="M377.54,211.77h-3.6V165.18a56.53,56.53,0,0,0-16.2-39.85l-13.49-13.72,2.53-2.58,13.49,13.72a60.11,60.11,0,0,1,17.27,42.43Z"/><path class="cls-1" d="M349,107.1a4.68,4.68,0,0,0-6.61-.07l-.07.07a4.8,4.8,0,0,0,0,6.78,4.64,4.64,0,0,0,6.57.1l.11-.1A4.87,4.87,0,0,0,349,107.1Z"/><path class="cls-1" d="M224.3,211.77h-3.6V165.18A60.09,60.09,0,0,1,238,122.75L251.54,109l2.53,2.58-13.53,13.72a56.5,56.5,0,0,0-16.24,39.85Z"/><path class="cls-1" d="M255.92,113.88a4.8,4.8,0,0,0,0-6.78,4.67,4.67,0,0,0-6.6-.07l-.07.07a4.85,4.85,0,0,0,0,6.78,4.64,4.64,0,0,0,6.57.1A.94.94,0,0,0,255.92,113.88Z"/><path class="cls-6" d="M315,175.76a12.65,12.65,0,0,0-12.08,9.11,8.84,8.84,0,0,0-12.09,3.57,16.11,16.11,0,0,0-30.54,4.8,12.45,12.45,0,0,0-8.72-3.6A12.66,12.66,0,0,0,239,201.3h0a8.88,8.88,0,0,0-7.07,3.6,14.09,14.09,0,0,0-1.45-.08,12.64,12.64,0,0,0-12.14,9.32A12.59,12.59,0,0,0,201,224.34h196.9a12.6,12.6,0,0,0-12.09-9.21h-.24a8.8,8.8,0,0,0-12.4-1.19l-.06.05a10.52,10.52,0,0,0-13.21-8.9v-.37a15,15,0,0,0-14.9-15.1h0a14.61,14.61,0,0,0-5.14.94A8.86,8.86,0,0,0,333,187.3a8.73,8.73,0,0,0-5.48,1.92v-.71A12.68,12.68,0,0,0,315,175.76Z"/><ellipse class="cls-7" cx="244.16" cy="200.62" rx="5.9" ry="5.98"/><ellipse class="cls-7" cx="281.83" cy="214.93" rx="5.9" ry="5.98"/><ellipse class="cls-7" cx="318.86" cy="191.5" rx="5.9" ry="5.98"/><ellipse class="cls-7" cx="336.43" cy="211.77" rx="5.9" ry="5.98"/><ellipse class="cls-7" cx="353.17" cy="200.62" rx="5.9" ry="5.98"/></svg>