<svg id="圖層_1" data-name="圖層 1" xmlns="http://www.w3.org/2000/svg" viewBox="0 0 230 200"><defs><style>.cls-1{fill:#fff;}.cls-2{fill:#424242;}.cls-3{fill:#00ffa7;}.cls-4{fill:#afafaf;}.cls-5{fill:#525252;}.cls-6{fill:#ffda6a;}</style></defs><title>1</title><rect class="cls-1" x="14.16" y="10.41" width="137.35" height="179.18" transform="translate(16.17 -11.43) rotate(8.75)"/><path class="cls-2" d="M137.09,200h-.16L1.18,179.1a1,1,0,0,1-.66-.4A1,1,0,0,1,.33,178L27.58.86A1,1,0,0,1,28.73,0L164.48,20.89a1,1,0,0,1,.66.41,1,1,0,0,1,.19.75L138.08,199.14A1,1,0,0,1,137.09,200ZM2.49,177.26l133.75,20.57L163.18,22.74,29.42,2.16Z"/><line class="cls-1" x1="77.83" y1="174.06" x2="55.97" y2="170.7"/><path class="cls-2" d="M77.83,174.56h-.08L55.89,171.2a.5.5,0,0,1-.42-.58.49.49,0,0,1,.57-.42l21.86,3.36a.51.51,0,0,1,.43.57A.51.51,0,0,1,77.83,174.56Z"/><line class="cls-1" x1="95.54" y1="176.78" x2="86.43" y2="175.38"/><path class="cls-2" d="M95.54,177.29h-.08l-9.1-1.4a.51.51,0,0,1-.43-.57.52.52,0,0,1,.58-.43l9.11,1.4a.52.52,0,0,1,.42.58A.51.51,0,0,1,95.54,177.29Z"/><polyline class="cls-1" points="146.8 59.8 128.03 181.78 90.36 175.99"/><path class="cls-2" d="M128,182.29H128l-37.67-5.79a.52.52,0,0,1-.42-.58.5.5,0,0,1,.58-.42l37.17,5.72,19-123.84a.52.52,0,0,1,.58-.42.5.5,0,0,1,.42.58l-19.1,124.33a.5.5,0,0,1-.2.33A.54.54,0,0,1,128,182.29Z"/><polyline class="cls-1" points="74.07 23.75 150.53 35.51 148.28 50.18"/><path class="cls-2" d="M148.28,50.68h-.08a.5.5,0,0,1-.42-.58L150,35.93,74,24.25a.52.52,0,0,1-.42-.58.5.5,0,0,1,.58-.42L150.61,35a.5.5,0,0,1,.42.58l-2.25,14.66A.51.51,0,0,1,148.28,50.68Z"/><circle class="cls-2" cx="42.75" cy="35.17" r="2.31" transform="translate(1.49 72.07) rotate(-81.25)"/><circle class="cls-2" cx="60.02" cy="37.83" r="2.31" transform="translate(13.5 91.39) rotate(-81.25)"/><path class="cls-1" d="M54.19,45a8.61,8.61,0,1,0-8.39-1.29,11.55,11.55,0,0,0-8.87,9.5l-1,6.37L58.8,63.09l1-6.36A11.54,11.54,0,0,0,54.19,45Z"/><path class="cls-3" d="M56.61,46.9l-7.89,5.77-5.79-7.89a11.54,11.54,0,0,0-6,8.43l-1,6.37L58.8,63.09l1-6.36A11.5,11.5,0,0,0,56.61,46.9Z"/><path class="cls-2" d="M59.23,63.67,35.38,60l1-6.87a12,12,0,0,1,8.33-9.67,9.1,9.1,0,1,1,10.49,1.62,12,12,0,0,1,5,11.72Zm-22.7-4.51,21.85,3.36.9-5.87a11,11,0,0,0-5.35-11.22L53,44.9l1-.37a8.11,8.11,0,1,0-7.9-1.22l.83.66-1,.23a11,11,0,0,0-8.48,9.09Z"/><circle class="cls-2" cx="60.75" cy="34.83" r="2.31" transform="translate(17.09 89.58) rotate(-81.25)"/><circle class="cls-2" cx="42.15" cy="32.74" r="2.31" transform="translate(3.37 69.42) rotate(-81.25)"/><circle class="cls-2" cx="45.63" cy="29.05" r="2.31" transform="translate(9.98 69.74) rotate(-81.25)"/><circle class="cls-2" cx="49.04" cy="27.94" r="2.31" transform="translate(13.97 72.17) rotate(-81.25)"/><circle class="cls-2" cx="52.94" cy="27.84" r="2.31" transform="translate(17.37 75.93) rotate(-81.25)"/><circle class="cls-2" cx="46.52" cy="25.84" r="2.31" transform="matrix(0.15, -0.99, 0.99, 0.15, 13.91, 67.88)"/><circle class="cls-2" cx="50.84" cy="25.53" r="2.31" transform="translate(17.88 71.9) rotate(-81.25)"/><circle class="cls-2" cx="44.39" cy="27.84" r="2.31" transform="translate(10.12 67.48) rotate(-81.25)"/><circle class="cls-2" cx="54.26" cy="26.06" r="2.31" transform="matrix(0.15, -0.99, 0.99, 0.15, 20.26, 75.72)"/><circle class="cls-2" cx="53.9" cy="23.96" r="2.98" transform="translate(22.03 73.59) rotate(-81.25)"/><circle class="cls-2" cx="49.14" cy="24.59" r="2.98" transform="translate(17.37 69.42) rotate(-81.25)"/><circle class="cls-2" cx="57.41" cy="26.2" r="2.98" transform="translate(22.79 78.96) rotate(-81.25)"/><circle class="cls-2" cx="56.19" cy="28.68" r="2.31" transform="translate(19.29 79.86) rotate(-81.25)"/><circle class="cls-2" cx="57.65" cy="27.55" r="2.31" transform="translate(21.65 80.34) rotate(-81.25)"/><circle class="cls-2" cx="60.8" cy="29.05" r="2.31" transform="matrix(0.15, -0.99, 0.99, 0.15, 22.84, 84.73)"/><circle class="cls-2" cx="59.15" cy="30.11" r="2.31" transform="translate(20.39 83.99) rotate(-81.25)"/><circle class="cls-2" cx="60.25" cy="32.61" r="2.31" transform="translate(18.86 87.21) rotate(-81.25)"/><circle class="cls-2" cx="43.11" cy="30.27" r="2.31" transform="translate(6.64 68.28) rotate(-81.25)"/><path class="cls-2" d="M47.85,38.11a5,5,0,0,1-.76-.06,4.2,4.2,0,0,1-1.94-.78,1.37,1.37,0,0,1,.39-2.57,4.22,4.22,0,0,1,2.09-.16c1.63.25,2.8,1.22,2.65,2.2h0C50.15,37.57,49.14,38.11,47.85,38.11Zm-1-3.12a3.19,3.19,0,0,0-1.15.19c-.46.17-.74.43-.79.74a1.07,1.07,0,0,0,.53.95,3.74,3.74,0,0,0,1.7.68c1.32.2,2.51-.2,2.62-.88h0c.1-.68-.92-1.43-2.23-1.63A4,4,0,0,0,46.87,35Z"/><path class="cls-2" d="M54.69,39.16a4.93,4.93,0,0,1-.75-.06c-1.64-.25-2.81-1.22-2.65-2.2s1.55-1.56,3.19-1.31a4.21,4.21,0,0,1,1.94.79,1.52,1.52,0,0,1,.71,1.42h0A1.53,1.53,0,0,1,56,38.94,3.77,3.77,0,0,1,54.69,39.16Zm-1-3.12c-1,0-1.86.37-1.94.94S52.7,38.4,54,38.6a3.66,3.66,0,0,0,1.83-.13c.46-.18.74-.44.78-.75h0a1.09,1.09,0,0,0-.52-.95,3.89,3.89,0,0,0-1.71-.68A5.16,5.16,0,0,0,53.73,36Z"/><rect class="cls-2" x="50.53" y="36.06" width="0.51" height="1.52" transform="translate(6.69 81.43) rotate(-81.28)"/><path class="cls-1" d="M30.89,140.58a11.53,11.53,0,0,0-8.86,9.5l-1,6.37L43.9,160l1-6.37a11.54,11.54,0,0,0-5.6-11.72"/><path class="cls-2" d="M41.7,143.76l-7.88,5.78L28,141.65a11.51,11.51,0,0,0-6,8.43l-1,6.37L43.9,160l1-6.37A11.5,11.5,0,0,0,41.7,143.76Z"/><path class="cls-2" d="M44.32,160.54l-23.85-3.67L21.53,150a12,12,0,0,1,9.25-9.92l.23,1a11,11,0,0,0-8.48,9.09l-.9,5.86,21.85,3.36.9-5.86A11,11,0,0,0,39,142.3l.51-.87a12,12,0,0,1,5.84,12.24Z"/><path class="cls-2" d="M36.42,143a8.78,8.78,0,0,1-1.35-.11h0l-.44-.07a8.88,8.88,0,0,1-7.43-10.13l.42-2.74a8.87,8.87,0,0,1,10.13-7.43l.45.06a8.9,8.9,0,0,1,7.43,10.14l-.42,2.74A8.91,8.91,0,0,1,36.42,143Zm-1.2-1.11a7.87,7.87,0,0,0,9-6.58l.42-2.75a7.88,7.88,0,0,0-6.58-9l-.45-.06a7.88,7.88,0,0,0-9,6.58l-.42,2.75a7.86,7.86,0,0,0,6.58,9Z"/><path class="cls-2" d="M111.11,58.41l-5-.77,1.23-8,5,.77Zm-8-1.23-5-.77,1.23-8,5,.77Zm-8-1.23-5-.77,1.23-8,5,.77Zm-8-1.23-5-.77,1.23-8,5,.77Zm-8-1.23-5-.77,1.23-8,5,.77Z"/><path class="cls-2" d="M103.65,106.84l-5-.77,1.23-8,5,.76Zm-8-1.23-5-.77,1.23-8,5,.77Zm-8-1.23-5-.77,1.23-8,5,.77Zm-8-1.23-5-.77,1.23-8,5,.77Zm-8-1.23-5-.77,1.23-8,5,.77Z"/><path class="cls-2" d="M95.93,157l-5-.76,1.23-8,5,.77Zm-8-1.23-5-.76,1.23-8,5,.77Zm-8-1.23-5-.77,1.23-8,5,.77Zm-8-1.23-5-.76,1.23-8,5,.77Zm-8-1.23-5-.77,1.23-8,5,.77Z"/><rect class="cls-2" x="33.36" y="84.12" width="18.17" height="18.56" transform="matrix(0.99, 0.15, -0.15, 0.99, 14.7, -5.37)"/><path class="cls-1" d="M38.34,92.14a11.54,11.54,0,0,0-8.86,9.51l-1,6.36,22.85,3.52,1-6.37a11.56,11.56,0,0,0-5.6-11.73"/><path class="cls-4" d="M49.15,95.33l-7.88,5.78-5.79-7.89a11.52,11.52,0,0,0-6,8.43l-1,6.36,22.85,3.52,1-6.37A11.49,11.49,0,0,0,49.15,95.33Z"/><path class="cls-2" d="M51.78,112.1l-23.86-3.67L29,101.57a12,12,0,0,1,9.25-9.92l.23,1A11,11,0,0,0,30,101.72l-.9,5.87L50.93,111l.9-5.87a11,11,0,0,0-5.35-11.21L47,93a12,12,0,0,1,5.84,12.24Z"/><rect class="cls-1" x="35.25" y="74.46" width="17.21" height="19.54" rx="8.28" transform="translate(13.32 -5.69) rotate(8.75)"/><path class="cls-2" d="M43.87,94.52a8.76,8.76,0,0,1-1.35-.1h0l-.45-.07a8.89,8.89,0,0,1-7.43-10.13l.42-2.75A8.91,8.91,0,0,1,45.2,74l.44.07a8.89,8.89,0,0,1,7.43,10.13L52.65,87A8.91,8.91,0,0,1,43.87,94.52Zm-1.2-1.1a7.88,7.88,0,0,0,9-6.59l.42-2.74a7.88,7.88,0,0,0-6.58-9L45,75a7.88,7.88,0,0,0-9,6.59l-.42,2.74a7.88,7.88,0,0,0,6.58,9Z"/><path class="cls-2" d="M35.35,82.92S47.49,85.8,49,76.06l-3.65-1.48-5.69,1.09-3,3.08Z"/><path class="cls-2" d="M27.9,131.36s8.38,2.08,10-8.35C37.89,123,29.44,121.34,27.9,131.36Z"/><path class="cls-2" d="M44.91,134s-8.63-.53-7-11C37.89,123,46.45,124,44.91,134Z"/><path class="cls-1" d="M113.31,70.7,134,62.42h14.85c8.63,0,12.77,5.14,12.77,5.14l10.53,26.79,16.06,16.05-18.13,18.12"/><path class="cls-5" d="M170.11,129.52a1,1,0,0,1-.7-.29,1,1,0,0,1,0-1.41l17.42-17.42L171.48,95.06a1.08,1.08,0,0,1-.23-.34L160.78,68.09c-.63-.72-4.47-4.67-11.9-4.67H134.22l-20.54,8.21a1,1,0,0,1-.74-1.86l20.72-8.28a.9.9,0,0,1,.37-.07h14.85c9,0,13.37,5.29,13.55,5.52a.84.84,0,0,1,.15.26L173,93.79,189,109.69a1,1,0,0,1,.29.71,1,1,0,0,1-.29.71l-18.13,18.12A1,1,0,0,1,170.11,129.52Z"/><polygon class="cls-1" points="86.58 67.43 103.25 80.27 107.49 65.04 86.58 67.43"/><path class="cls-5" d="M103.25,80.77a.5.5,0,0,1-.31-.1L86.28,67.82a.47.47,0,0,1-.18-.53.49.49,0,0,1,.42-.36l20.91-2.38a.49.49,0,0,1,.44.17.51.51,0,0,1,.1.46L103.73,80.4a.55.55,0,0,1-.33.35Zm-15.39-13L103,79.42l3.85-13.8Z"/><rect class="cls-6" x="103.36" y="74.61" width="77.53" height="16.65" transform="translate(27.45 -35.08) rotate(15.56)"/><polygon class="cls-5" points="95.7 66.21 93.8 73.1 87.03 67.72 95.7 66.21"/><polygon class="cls-1" points="177 88.3 109.58 69.54 108.54 73.28 107.58 73.02 108.89 68.3 109.37 68.44 177.26 87.34 177 88.3"/><polygon class="cls-1" points="175.21 94.14 108.24 75.5 107.16 79.4 106.2 79.13 107.55 74.27 108.03 74.41 175.48 93.18 175.21 94.14"/><path class="cls-1" d="M168.21,124.9l-10-10H139.55L116.07,80.71s11.4-6.56,16.58,0a114.59,114.59,0,0,0,12.77,13.12"/><path class="cls-5" d="M168.21,125.9a1,1,0,0,1-.7-.29l-9.73-9.72H139.55a1,1,0,0,1-.82-.44L115.25,81.28a1,1,0,0,1-.15-.79,1,1,0,0,1,.47-.64c.5-.29,12.21-6.91,17.86.24a112.77,112.77,0,0,0,12.65,13,1,1,0,0,1-1.31,1.52,116.48,116.48,0,0,1-12.91-13.26c-3.77-4.77-11.59-1.58-14.32-.25l22.54,32.81H158.2a1,1,0,0,1,.71.29l10,10a1,1,0,0,1,0,1.42A1,1,0,0,1,168.21,125.9Z"/><polyline class="cls-1" points="156.3 128.77 184.49 100.59 205.27 121.37 165.73 138.2 156.3 128.77"/><path class="cls-5" d="M165.73,138.7a.51.51,0,0,1-.36-.15l-9.43-9.43a.51.51,0,0,1,0-.7l28.19-28.18a.5.5,0,0,1,.71,0L205.63,121a.46.46,0,0,1,.13.45.49.49,0,0,1-.29.36l-39.55,16.83A.65.65,0,0,1,165.73,138.7ZM157,128.77l8.84,8.83,38.56-16.4-19.91-19.9Z"/><polygon class="cls-2" points="230 140.7 162.96 140.82 158.44 136.31 192.03 102.73 230 140.7"/></svg>