<svg id="圖層_1" data-name="圖層 1" xmlns="http://www.w3.org/2000/svg" viewBox="0 0 230 200"><defs><style>.cls-1{fill:#fff;}.cls-2{fill:#424242;}.cls-3{fill:#ffda6a;}.cls-4{fill:#2caff5;}.cls-5{fill:#00ffa7;}.cls-6{fill:#525252;}</style></defs><title>5</title><rect class="cls-1" x="13.84" y="10.41" width="137.35" height="179.18" transform="translate(16.16 -11.38) rotate(8.75)"/><path class="cls-2" d="M136.76,200h-.15L.86,179.1a1,1,0,0,1-.66-.4A1,1,0,0,1,0,178L27.26.86A1,1,0,0,1,28.41,0L164.16,20.89a1,1,0,0,1,.66.41,1,1,0,0,1,.19.75L137.76,199.14A1,1,0,0,1,136.76,200ZM2.17,177.26l133.75,20.57L162.85,22.74,29.1,2.16Z"/><line class="cls-1" x1="77.5" y1="174.06" x2="55.65" y2="170.7"/><path class="cls-2" d="M77.5,174.56h-.07L55.57,171.2a.5.5,0,0,1-.42-.58.49.49,0,0,1,.57-.42l21.86,3.36a.49.49,0,0,1,.42.57A.5.5,0,0,1,77.5,174.56Z"/><rect class="cls-3" x="17.62" y="124.32" width="26.71" height="39.67" transform="translate(22.28 -3.03) rotate(8.75)"/><line class="cls-1" x1="95.22" y1="176.78" x2="86.11" y2="175.38"/><path class="cls-2" d="M95.22,177.29h-.08l-9.1-1.4a.51.51,0,0,1-.43-.57.51.51,0,0,1,.58-.43l9.1,1.4a.51.51,0,0,1-.07,1Z"/><polyline class="cls-1" points="146.47 59.8 127.71 181.78 90.04 175.99"/><path class="cls-2" d="M127.71,182.29h-.08L90,176.49a.52.52,0,0,1-.42-.58.5.5,0,0,1,.58-.42l37.17,5.72,19-123.84a.52.52,0,0,1,.58-.42.5.5,0,0,1,.42.58l-19.1,124.33a.5.5,0,0,1-.2.33A.54.54,0,0,1,127.71,182.29Z"/><polyline class="cls-1" points="73.75 23.75 150.21 35.51 147.96 50.18"/><path class="cls-2" d="M148,50.68h-.08a.5.5,0,0,1-.42-.58l2.17-14.17-76-11.68a.51.51,0,0,1-.42-.58.5.5,0,0,1,.58-.42L150.29,35a.51.51,0,0,1,.42.58l-2.26,14.66A.5.5,0,0,1,148,50.68Z"/><rect class="cls-4" x="33.07" y="23.9" width="26.71" height="39.67" transform="translate(7.19 -6.55) rotate(8.75)"/><rect class="cls-5" x="25.26" y="74.61" width="26.71" height="39.67" transform="translate(14.81 -4.77) rotate(8.75)"/><path class="cls-1" d="M66.24,48a8.6,8.6,0,1,0-8.39-1.29A11.54,11.54,0,0,0,49,56.17l-1,6.37,22.85,3.51,1-6.36A11.54,11.54,0,0,0,66.24,48Z"/><path class="cls-4" d="M68.66,49.86l-7.88,5.78L55,47.74a11.49,11.49,0,0,0-6,8.43l-1,6.37,22.85,3.51,1-6.36A11.51,11.51,0,0,0,68.66,49.86Z"/><path class="cls-2" d="M71.28,66.63,47.43,63l1.06-6.87a12,12,0,0,1,8.32-9.67A9.11,9.11,0,1,1,67.31,48a12,12,0,0,1,5,11.73Zm-22.7-4.51,21.86,3.36.9-5.87A11,11,0,0,0,66,48.4l-.92-.54,1-.37a8.1,8.1,0,1,0-7.9-1.22l.83.66-1,.23a11,11,0,0,0-8.47,9.09Z"/><path class="cls-2" d="M119.37,59.41l-5-.77,1.23-8,5,.77Zm-8-1.23-5-.77,1.24-8,5,.77Zm-8-1.23-5-.77,1.23-8,5,.77Zm-8-1.23-5-.77,1.23-8,5,.77Zm-8-1.23-5-.77,1.23-8,5,.77Z"/><path class="cls-2" d="M111.92,107.84l-5-.77,1.23-8,5,.76Zm-8-1.23-5-.77,1.23-8,5,.77Zm-8-1.23-5-.77,1.23-8,5,.77Zm-8-1.23-5-.77,1.23-8,5,.77Zm-8-1.23-5-.77,1.23-8,5,.77Z"/><path class="cls-2" d="M104.2,158l-5-.76,1.23-8,5,.77Zm-8-1.23-5-.76,1.23-8,5,.77Zm-8-1.23-5-.77,1.23-8,5,.77Zm-8-1.23-5-.76,1.23-8,5,.77Zm-8-1.23-5-.77,1.23-8,5,.77Z"/><path class="cls-1" d="M48.57,144.76a7.89,7.89,0,0,0,9-6.59l.42-2.74a7.88,7.88,0,0,0-6.58-9l-.45-.07A7.88,7.88,0,0,0,42,133l-.42,2.75a7.88,7.88,0,0,0,6.58,9Z"/><path class="cls-2" d="M58.83,97.27l-6.22-1c-5.33-.82-8.78-3.16-8-8.49h0C45.47,82.49,55.58,77,55.58,77l6.22,1s7.63,8.07,6.81,13.4h0C67.79,96.69,64.16,98.09,58.83,97.27Z"/><path class="cls-1" d="M51.69,95a11.56,11.56,0,0,0-8.86,9.51l-1,6.37,22.85,3.51,1-6.37a11.54,11.54,0,0,0-5.6-11.72"/><path class="cls-5" d="M62.5,98.23,54.62,104l-5.79-7.89a11.52,11.52,0,0,0-6,8.43l-1,6.37,22.85,3.51,1-6.37A11.5,11.5,0,0,0,62.5,98.23Z"/><path class="cls-2" d="M65.13,115l-23.86-3.67,1.06-6.87a12,12,0,0,1,9.25-9.92l.23,1a11,11,0,0,0-8.48,9.09l-.9,5.86,21.85,3.36.9-5.86a11,11,0,0,0-5.35-11.22l.51-.87a12,12,0,0,1,5.84,12.24Z"/><rect class="cls-1" x="48.6" y="77.37" width="17.21" height="19.54" rx="8.28" transform="translate(13.91 -7.69) rotate(8.75)"/><path class="cls-2" d="M57.22,97.43a8.78,8.78,0,0,1-1.35-.11h0l-.45-.07A8.88,8.88,0,0,1,48,87.12l.42-2.75a8.9,8.9,0,0,1,10.13-7.43L59,77a8.9,8.9,0,0,1,7.43,10.14L66,89.89A8.91,8.91,0,0,1,57.22,97.43ZM56,96.32a7.87,7.87,0,0,0,9-6.58L65.42,87a7.88,7.88,0,0,0-6.58-9l-.45-.07a7.89,7.89,0,0,0-9,6.59L49,87.27a7.86,7.86,0,0,0,6.58,9Z"/><path class="cls-2" d="M48.7,85.82S60.84,88.7,62.34,79l-3.65-1.48L53,78.58l-3,3.07Z"/><path class="cls-1" d="M44.24,143.48a11.54,11.54,0,0,0-8.86,9.5l-1,6.37,22.85,3.51,1-6.36a11.54,11.54,0,0,0-5.6-11.73"/><path class="cls-3" d="M55.05,146.67l-7.88,5.78-5.79-7.9a11.51,11.51,0,0,0-6,8.43l-1,6.37,22.85,3.51,1-6.36A11.49,11.49,0,0,0,55.05,146.67Z"/><path class="cls-2" d="M57.67,163.44l-23.85-3.67,1.06-6.86A12,12,0,0,1,44.13,143l.22,1a11,11,0,0,0-8.47,9.09l-.9,5.87,21.85,3.36.9-5.87a11,11,0,0,0-5.35-11.21l.51-.88a12,12,0,0,1,5.84,12.25Z"/><path class="cls-2" d="M49.77,145.86a8.76,8.76,0,0,1-1.35-.1h0l-.44-.07a8.9,8.9,0,0,1-7.43-10.14l.42-2.74a8.89,8.89,0,0,1,10.13-7.43l.45.07A8.9,8.9,0,0,1,59,135.58l-.42,2.75A8.91,8.91,0,0,1,49.77,145.86Zm-1.2-1.1a7.89,7.89,0,0,0,9-6.59l.42-2.74a7.88,7.88,0,0,0-6.58-9l-.45-.07A7.88,7.88,0,0,0,42,133l-.42,2.75a7.88,7.88,0,0,0,6.58,9Z"/><path class="cls-2" d="M42.3,131.3s4.69-.07,5.58-5.9C47.88,125.4,43.16,125.69,42.3,131.3Z"/><path class="cls-2" d="M58.26,136.88s-11.88-6.77-10.38-11.48C47.88,125.4,60.58,125.4,58.26,136.88Z"/><path class="cls-1" d="M113.31,70.7,134,62.42h14.85c8.63,0,12.77,5.14,12.77,5.14l10.53,26.79,16.06,16.05-18.13,18.12"/><path class="cls-6" d="M170.11,129.52a1,1,0,0,1-.71-1.7l17.43-17.42L171.48,95.06a1.08,1.08,0,0,1-.23-.34L160.78,68.09c-.64-.72-4.47-4.67-11.91-4.67H134.22l-20.54,8.21a1,1,0,0,1-.74-1.86l20.72-8.28a.9.9,0,0,1,.37-.07h14.84c9,0,13.38,5.29,13.56,5.52a.84.84,0,0,1,.15.26L173,93.79,189,109.69a1,1,0,0,1,.29.71,1,1,0,0,1-.29.71l-18.13,18.12A1,1,0,0,1,170.11,129.52Z"/><polygon class="cls-1" points="86.58 67.43 103.25 80.27 107.49 65.04 86.58 67.43"/><path class="cls-6" d="M103.25,80.77a.5.5,0,0,1-.31-.1L86.28,67.82a.47.47,0,0,1-.18-.53.49.49,0,0,1,.42-.36l20.91-2.38a.49.49,0,0,1,.44.17.51.51,0,0,1,.1.46L103.73,80.4a.55.55,0,0,1-.33.35Zm-15.39-13L103,79.42l3.85-13.8Z"/><rect class="cls-3" x="103.36" y="74.61" width="77.53" height="16.65" transform="translate(27.45 -35.08) rotate(15.56)"/><polygon class="cls-6" points="95.7 66.21 93.8 73.1 87.03 67.72 95.7 66.21"/><polygon class="cls-1" points="177 88.3 109.58 69.54 108.54 73.28 107.58 73.02 108.89 68.3 109.37 68.44 177.26 87.34 177 88.3"/><polygon class="cls-1" points="175.21 94.14 108.24 75.5 107.16 79.4 106.2 79.13 107.55 74.27 108.03 74.41 175.48 93.18 175.21 94.14"/><path class="cls-1" d="M168.21,124.9l-10-10H139.55L116.07,80.71s11.4-6.56,16.58,0a114.59,114.59,0,0,0,12.77,13.12"/><path class="cls-6" d="M168.21,125.9a1,1,0,0,1-.7-.29l-9.73-9.72H139.55a1,1,0,0,1-.82-.44L115.25,81.28a1,1,0,0,1-.15-.79,1,1,0,0,1,.47-.64c.5-.29,12.21-6.91,17.86.24a112.77,112.77,0,0,0,12.65,13,1,1,0,0,1-1.31,1.52,116.48,116.48,0,0,1-12.91-13.26c-3.77-4.77-11.59-1.58-14.32-.25l22.54,32.81H158.2a1,1,0,0,1,.71.29l10,10a1,1,0,0,1-.71,1.71Z"/><polyline class="cls-1" points="156.3 128.77 184.49 100.59 205.27 121.37 165.73 138.2 156.3 128.77"/><path class="cls-6" d="M165.73,138.7a.51.51,0,0,1-.36-.15l-9.43-9.43a.51.51,0,0,1,0-.7l28.19-28.18a.5.5,0,0,1,.71,0L205.63,121a.46.46,0,0,1,.13.45.49.49,0,0,1-.29.36l-39.55,16.83A.65.65,0,0,1,165.73,138.7ZM157,128.77l8.84,8.83,38.56-16.4-19.91-19.9Z"/><polygon class="cls-2" points="230 140.7 162.96 140.82 158.44 136.31 192.03 102.73 230 140.7"/></svg>