<svg id="圖層_1" data-name="圖層 1" xmlns="http://www.w3.org/2000/svg" viewBox="0 0 230 200"><defs><style>.cls-1{fill:#fff;}.cls-2{fill:#424242;}.cls-3{fill:#00ffa7;}.cls-4{fill:#afafaf;}.cls-5{fill:#e0e0e0;}</style></defs><title>3</title><rect class="cls-1" x="13.01" y="10.57" width="137.35" height="179.18" transform="translate(16.18 -11.26) rotate(8.75)"/><path class="cls-2" d="M136.76,200h-.15L.86,179.1a1,1,0,0,1-.66-.4A1,1,0,0,1,0,178L27.26.86A1,1,0,0,1,28.41,0L164.16,20.89a1,1,0,0,1,.66.41,1,1,0,0,1,.19.75L137.76,199.14A1,1,0,0,1,136.76,200ZM2.17,177.26l133.75,20.57L162.85,22.74,29.1,2.16Z"/><line class="cls-1" x1="77.5" y1="174.06" x2="55.65" y2="170.7"/><path class="cls-2" d="M77.5,174.56h-.07L55.57,171.2a.5.5,0,0,1-.42-.58.49.49,0,0,1,.57-.42l21.86,3.36a.49.49,0,0,1,.42.57A.5.5,0,0,1,77.5,174.56Z"/><line class="cls-1" x1="95.22" y1="176.78" x2="86.11" y2="175.38"/><path class="cls-2" d="M95.22,177.29h-.08l-9.1-1.4a.51.51,0,0,1-.43-.57.51.51,0,0,1,.58-.43l9.1,1.4a.51.51,0,0,1-.07,1Z"/><polyline class="cls-1" points="146.47 59.8 127.71 181.78 90.04 175.99"/><path class="cls-2" d="M127.71,182.29h-.08L90,176.49a.52.52,0,0,1-.42-.58.5.5,0,0,1,.58-.42l37.17,5.72,19-123.84a.52.52,0,0,1,.58-.42.5.5,0,0,1,.42.58l-19.1,124.33a.5.5,0,0,1-.2.33A.54.54,0,0,1,127.71,182.29Z"/><polyline class="cls-1" points="73.75 23.75 150.21 35.51 147.96 50.18"/><path class="cls-2" d="M148,50.68h-.08a.5.5,0,0,1-.42-.58l2.17-14.17-76-11.68a.51.51,0,0,1-.42-.58.5.5,0,0,1,.58-.42L150.29,35a.51.51,0,0,1,.42.58l-2.26,14.66A.5.5,0,0,1,148,50.68Z"/><circle class="cls-2" cx="42.42" cy="35.17" r="2.31" transform="translate(1.21 71.75) rotate(-81.25)"/><circle class="cls-2" cx="59.69" cy="37.83" r="2.31" transform="translate(13.23 91.08) rotate(-81.25)"/><path class="cls-1" d="M53.86,45a8.6,8.6,0,1,0-8.39-1.29,11.54,11.54,0,0,0-8.86,9.5l-1,6.37,22.85,3.51,1-6.36A11.54,11.54,0,0,0,53.86,45Z"/><path class="cls-3" d="M56.28,46.9,48.4,52.67l-5.79-7.89a11.54,11.54,0,0,0-6,8.43l-1,6.37,22.85,3.51,1-6.36A11.48,11.48,0,0,0,56.28,46.9Z"/><path class="cls-2" d="M58.9,63.67,35.05,60l1.06-6.87a12,12,0,0,1,8.32-9.67,9.11,9.11,0,1,1,10.5,1.62A12,12,0,0,1,60,56.8ZM36.21,59.16l21.85,3.36.9-5.87a11,11,0,0,0-5.35-11.22l-.91-.53,1-.37a8.11,8.11,0,1,0-7.89-1.22l.82.66-1,.23a11,11,0,0,0-8.48,9.09Z"/><circle class="cls-2" cx="60.43" cy="34.83" r="2.31" transform="translate(16.82 89.26) rotate(-81.25)"/><circle class="cls-2" cx="41.83" cy="32.74" r="2.31" transform="translate(3.1 69.1) rotate(-81.25)"/><circle class="cls-2" cx="45.31" cy="29.05" r="2.31" transform="translate(9.7 69.42) rotate(-81.25)"/><circle class="cls-2" cx="48.72" cy="27.94" r="2.31" transform="translate(13.7 71.85) rotate(-81.25)"/><circle class="cls-2" cx="52.61" cy="27.84" r="2.31" transform="translate(17.09 75.61) rotate(-81.25)"/><circle class="cls-2" cx="46.19" cy="25.84" r="2.31" transform="matrix(0.15, -0.99, 0.99, 0.15, 13.63, 67.56)"/><circle class="cls-2" cx="50.52" cy="25.53" r="2.31" transform="translate(17.61 71.58) rotate(-81.25)"/><circle class="cls-2" cx="44.07" cy="27.84" r="2.31" transform="translate(9.85 67.17) rotate(-81.25)"/><circle class="cls-2" cx="53.94" cy="26.06" r="2.31" transform="matrix(0.15, -0.99, 0.99, 0.15, 19.98, 75.4)"/><circle class="cls-2" cx="53.58" cy="23.96" r="2.98" transform="translate(21.75 73.27) rotate(-81.25)"/><circle class="cls-2" cx="48.82" cy="24.59" r="2.98" transform="translate(17.09 69.1) rotate(-81.25)"/><circle class="cls-2" cx="57.09" cy="26.2" r="2.98" transform="translate(22.51 78.65) rotate(-81.25)"/><circle class="cls-2" cx="55.87" cy="28.68" r="2.31" transform="translate(19.02 79.54) rotate(-81.25)"/><circle class="cls-2" cx="57.33" cy="27.55" r="2.31" transform="translate(21.38 80.02) rotate(-81.25)"/><circle class="cls-2" cx="60.48" cy="29.05" r="2.31" transform="matrix(0.15, -0.99, 0.99, 0.15, 22.57, 84.41)"/><circle class="cls-2" cx="58.82" cy="30.11" r="2.31" transform="translate(20.12 83.67) rotate(-81.25)"/><circle class="cls-2" cx="59.93" cy="32.61" r="2.31" transform="translate(18.58 86.89) rotate(-81.25)"/><circle class="cls-2" cx="42.79" cy="30.27" r="2.31" transform="translate(6.37 67.96) rotate(-81.25)"/><path class="cls-2" d="M47.52,38.11a5.06,5.06,0,0,1-.76-.06,4.29,4.29,0,0,1-1.94-.78,1.38,1.38,0,0,1,.4-2.57,4.19,4.19,0,0,1,2.08-.16c1.64.25,2.81,1.22,2.66,2.2h0C49.83,37.57,48.82,38.11,47.52,38.11Zm-1-3.12a3.15,3.15,0,0,0-1.15.19c-.46.17-.74.43-.79.74a1.07,1.07,0,0,0,.53.95,3.69,3.69,0,0,0,1.7.68c1.32.2,2.51-.2,2.62-.88h0c.1-.68-.92-1.43-2.23-1.63A4,4,0,0,0,46.55,35Z"/><path class="cls-2" d="M54.37,39.16a4.84,4.84,0,0,1-.75-.06C52,38.85,50.81,37.88,51,36.9s1.55-1.56,3.2-1.31a4.3,4.3,0,0,1,1.94.79,1.54,1.54,0,0,1,.71,1.42h0a1.55,1.55,0,0,1-1.11,1.14A3.71,3.71,0,0,1,54.37,39.16Zm-1-3.12c-1,0-1.86.37-1.95.94s.92,1.42,2.23,1.62a3.69,3.69,0,0,0,1.84-.13c.45-.18.73-.44.78-.75h0a1.09,1.09,0,0,0-.52-.95,3.89,3.89,0,0,0-1.71-.68A5.29,5.29,0,0,0,53.41,36Z"/><rect class="cls-2" x="50.21" y="36.06" width="0.51" height="1.52" transform="translate(6.41 81.12) rotate(-81.28)"/><path class="cls-1" d="M30.57,140.58a11.53,11.53,0,0,0-8.86,9.5l-1,6.37L43.58,160l1-6.37A11.54,11.54,0,0,0,39,141.87"/><path class="cls-2" d="M41.38,143.76l-7.88,5.78-5.79-7.89a11.49,11.49,0,0,0-6,8.43l-1,6.37L43.58,160l1-6.37A11.53,11.53,0,0,0,41.38,143.76Z"/><path class="cls-2" d="M44,160.54l-23.85-3.67L21.21,150a12,12,0,0,1,9.25-9.92l.22,1a11,11,0,0,0-8.47,9.09l-.9,5.86,21.85,3.36.9-5.86a11,11,0,0,0-5.35-11.22l.51-.87a12,12,0,0,1,5.84,12.24Z"/><path class="cls-2" d="M36.1,143a9,9,0,0,1-1.36-.11h0l-.44-.07a8.86,8.86,0,0,1-7.43-10.13l.42-2.74a8.87,8.87,0,0,1,10.13-7.43l.45.06a8.91,8.91,0,0,1,7.43,10.14l-.42,2.74A8.91,8.91,0,0,1,36.1,143Zm-1.2-1.11a7.88,7.88,0,0,0,9-6.58l.42-2.75a7.89,7.89,0,0,0-6.59-9l-.44-.06a7.88,7.88,0,0,0-9,6.58l-.42,2.75a7.86,7.86,0,0,0,6.58,9Z"/><path class="cls-2" d="M110.78,58.41l-5-.77,1.23-8,5,.77Zm-8-1.23-5-.77,1.23-8,5,.77Zm-8-1.23-5-.77,1.23-8L96,48Zm-8-1.23-5-.77L83,46l5,.77Zm-8-1.23-5-.77,1.23-8,5,.77Z"/><path class="cls-2" d="M103.33,106.84l-5-.77,1.23-8,5,.76Zm-8-1.23-5-.77,1.23-8,5,.77Zm-8-1.23-5-.77,1.23-8,5,.77Zm-8-1.23-5-.77,1.23-8,5,.77Zm-8-1.23-5-.77,1.23-8,5,.77Z"/><path class="cls-2" d="M95.61,157l-5-.76,1.23-8,5,.77Zm-8-1.23-5-.76,1.23-8,5,.77Zm-8-1.23-5-.77,1.23-8,5,.77Zm-8-1.23-5-.76,1.23-8,5,.77Zm-8-1.23-5-.77,1.23-8,5,.77Z"/><rect class="cls-2" x="33.04" y="84.12" width="18.17" height="18.56" transform="matrix(0.99, 0.15, -0.15, 0.99, 14.69, -5.32)"/><path class="cls-1" d="M38,92.14a11.54,11.54,0,0,0-8.86,9.51l-1,6.36L51,111.53l1-6.37a11.56,11.56,0,0,0-5.6-11.73"/><path class="cls-4" d="M48.83,95.33,41,101.11l-5.79-7.89a11.47,11.47,0,0,0-6,8.43l-1,6.36L51,111.53l1-6.37A11.49,11.49,0,0,0,48.83,95.33Z"/><path class="cls-2" d="M51.45,112.1,27.6,108.43l1.06-6.86a12,12,0,0,1,9.25-9.92l.22,1a11,11,0,0,0-8.47,9.09l-.9,5.87L50.61,111l.9-5.87a11,11,0,0,0-5.35-11.21l.51-.87a12,12,0,0,1,5.84,12.24Z"/><rect class="cls-1" x="34.93" y="74.46" width="17.21" height="19.54" rx="8.28" transform="translate(13.31 -5.64) rotate(8.75)"/><path class="cls-2" d="M43.55,94.52a9,9,0,0,1-1.36-.1h0l-.44-.07a8.89,8.89,0,0,1-7.43-10.13l.42-2.75A8.9,8.9,0,0,1,44.87,74l.45.07a8.9,8.9,0,0,1,7.43,10.13L52.33,87A8.91,8.91,0,0,1,43.55,94.52Zm-1.2-1.1a7.88,7.88,0,0,0,9-6.59l.42-2.74a7.88,7.88,0,0,0-6.58-9L44.72,75a7.88,7.88,0,0,0-9,6.59l-.42,2.74a7.88,7.88,0,0,0,6.58,9Z"/><path class="cls-2" d="M35,82.92s12.14,2.88,13.64-6.86L45,74.58l-5.69,1.09-3,3.08Z"/><path class="cls-2" d="M27.58,131.36s8.38,2.08,10-8.35C37.57,123,29.12,121.34,27.58,131.36Z"/><path class="cls-2" d="M44.59,134s-8.63-.53-7-11C37.57,123,46.13,124,44.59,134Z"/><rect class="cls-1" x="119.64" y="75.82" width="104.66" height="73.94" transform="translate(-11.67 20.21) rotate(-6.51)"/><path class="cls-2" d="M124.17,156a.49.49,0,0,1-.5-.44l-8.38-73.46a.5.5,0,0,1,.11-.37.53.53,0,0,1,.33-.19l104-11.85a.49.49,0,0,1,.55.44l8.38,73.46a.47.47,0,0,1-.11.37.48.48,0,0,1-.33.18L124.22,156Zm-7.83-73.52,8.27,72.47,103-11.74-8.26-72.47Z"/><rect class="cls-4" x="123.97" y="87.38" width="32.27" height="2" transform="translate(-9.11 16.45) rotate(-6.51)"/><rect class="cls-4" x="124.77" y="93.24" width="32.27" height="2" transform="translate(-9.77 16.58) rotate(-6.51)"/><rect class="cls-4" x="125.58" y="99.56" width="32.27" height="2" transform="translate(-10.48 16.71) rotate(-6.51)"/><rect class="cls-4" x="126.51" y="105.89" width="32.27" height="2" transform="translate(-11.19 16.85) rotate(-6.51)"/><rect class="cls-5" x="162.92" y="82.02" width="48.63" height="34.76" transform="translate(-10.06 21.85) rotate(-6.51)"/><rect class="cls-4" x="166.24" y="86.65" width="40.88" height="25.81" rx="3.04" transform="translate(-10.08 21.79) rotate(-6.51)"/><rect class="cls-4" x="129.5" y="133.66" width="86.35" height="2" transform="translate(-14.15 20.44) rotate(-6.51)"/><rect class="cls-4" x="128.5" y="128.02" width="86.35" height="2" transform="translate(-13.52 20.29) rotate(-6.51)"/><rect class="cls-4" x="130.5" y="139.26" width="86.35" height="2" transform="translate(-14.78 20.59) rotate(-6.51)"/><rect class="cls-1" x="169.62" y="91.01" width="10.25" height="13.97" transform="translate(-9.98 20.43) rotate(-6.51)"/><rect class="cls-1" x="110.81" y="88.06" width="104.66" height="73.94" transform="translate(-13.11 19.29) rotate(-6.51)"/><path class="cls-2" d="M115.34,168.19a.51.51,0,0,1-.5-.45l-8.38-73.46a.56.56,0,0,1,.11-.37.48.48,0,0,1,.33-.18l104-11.86a.48.48,0,0,1,.55.44l8.38,73.46a.5.5,0,0,1-.1.37.52.52,0,0,1-.34.18l-104,11.86Zm-7.83-73.53,8.27,72.47,103-11.74-8.26-72.47Z"/><rect class="cls-4" x="115.14" y="99.61" width="32.27" height="2" transform="translate(-10.56 15.52) rotate(-6.51)"/><rect class="cls-4" x="115.94" y="105.47" width="32.27" height="2" transform="translate(-11.22 15.65) rotate(-6.51)"/><rect class="cls-4" x="116.75" y="111.79" width="32.27" height="2" transform="translate(-11.93 15.79) rotate(-6.51)"/><rect class="cls-4" x="117.68" y="118.12" width="32.27" height="2" transform="translate(-12.64 15.93) rotate(-6.51)"/><rect class="cls-5" x="154.09" y="94.25" width="48.63" height="34.76" transform="translate(-11.5 20.93) rotate(-6.51)"/><rect class="cls-4" x="157.41" y="98.88" width="40.88" height="25.81" rx="3.04" transform="translate(-11.52 20.87) rotate(-6.51)"/><rect class="cls-4" x="120.67" y="145.89" width="86.35" height="2" transform="translate(-15.59 19.51) rotate(-6.51)"/><rect class="cls-4" x="119.67" y="140.25" width="86.35" height="2" transform="translate(-14.96 19.36) rotate(-6.51)"/><rect class="cls-4" x="121.67" y="151.49" width="86.35" height="2" transform="translate(-16.22 19.66) rotate(-6.51)"/><rect class="cls-1" x="160.79" y="103.24" width="10.25" height="13.97" transform="translate(-11.42 19.51) rotate(-6.51)"/><rect class="cls-1" x="101.98" y="100.29" width="104.66" height="73.94" transform="translate(-14.56 18.37) rotate(-6.51)"/><path class="cls-2" d="M106.51,180.42a.51.51,0,0,1-.5-.45l-8.37-73.46a.5.5,0,0,1,.1-.37.48.48,0,0,1,.34-.18l104-11.86a.49.49,0,0,1,.56.44L211,168a.49.49,0,0,1-.1.37.53.53,0,0,1-.34.19l-104,11.85Zm-7.82-73.53L107,179.36l103-11.74-8.26-72.47Z"/><rect class="cls-4" x="106.31" y="111.84" width="32.27" height="2" transform="translate(-12 14.6) rotate(-6.51)"/><rect class="cls-4" x="107.11" y="117.7" width="32.27" height="2" transform="translate(-12.66 14.73) rotate(-6.51)"/><rect class="cls-4" x="107.92" y="124.03" width="32.27" height="2" transform="translate(-13.37 14.86) rotate(-6.51)"/><rect class="cls-4" x="108.85" y="130.35" width="32.27" height="2" transform="translate(-14.08 15.01) rotate(-6.51)"/><rect class="cls-5" x="145.26" y="106.48" width="48.63" height="34.76" transform="translate(-12.94 20.01) rotate(-6.51)"/><rect class="cls-4" x="148.58" y="111.11" width="40.88" height="25.81" rx="3.04" transform="translate(-12.96 19.95) rotate(-6.51)"/><rect class="cls-4" x="111.84" y="158.12" width="86.35" height="2" transform="translate(-17.03 18.59) rotate(-6.51)"/><rect class="cls-4" x="110.84" y="152.48" width="86.35" height="2" transform="translate(-16.4 18.44) rotate(-6.51)"/><rect class="cls-4" x="112.84" y="163.72" width="86.35" height="2" transform="translate(-17.66 18.74) rotate(-6.51)"/><rect class="cls-1" x="151.96" y="115.47" width="10.25" height="13.97" transform="translate(-12.86 18.58) rotate(-6.51)"/><rect class="cls-1" x="93.16" y="112.52" width="104.66" height="73.94" transform="translate(-16 17.45) rotate(-6.51)"/><path class="cls-2" d="M97.68,192.65a.51.51,0,0,1-.5-.45l-8.37-73.46a.5.5,0,0,1,.1-.37.52.52,0,0,1,.34-.18l104-11.86a.5.5,0,0,1,.55.44l8.38,73.46a.54.54,0,0,1-.11.37.53.53,0,0,1-.33.19l-104,11.85Zm-7.82-73.53,8.26,72.47,103-11.74-8.27-72.47Z"/><rect class="cls-4" x="97.48" y="124.07" width="32.27" height="2" transform="translate(-13.44 13.68) rotate(-6.51)"/><rect class="cls-4" x="98.29" y="129.93" width="32.27" height="2" transform="translate(-14.1 13.81) rotate(-6.51)"/><rect class="cls-4" x="99.09" y="136.26" width="32.27" height="2" transform="translate(-14.81 13.94) rotate(-6.51)"/><rect class="cls-4" x="100.02" y="142.58" width="32.27" height="2" transform="translate(-15.52 14.09) rotate(-6.51)"/><rect class="cls-5" x="136.43" y="118.71" width="48.63" height="34.76" transform="translate(-14.38 19.09) rotate(-6.51)"/><rect class="cls-4" x="139.75" y="123.34" width="40.88" height="25.81" rx="3.04" transform="translate(-14.4 19.03) rotate(-6.51)"/><rect class="cls-4" x="103.01" y="170.35" width="86.35" height="2" transform="translate(-18.48 17.67) rotate(-6.51)"/><rect class="cls-4" x="102.01" y="164.71" width="86.35" height="2" transform="translate(-17.84 17.52) rotate(-6.51)"/><rect class="cls-4" x="104.01" y="175.95" width="86.35" height="2" transform="translate(-19.11 17.82) rotate(-6.51)"/><rect class="cls-1" x="143.13" y="127.7" width="10.25" height="13.97" transform="translate(-14.3 17.66) rotate(-6.51)"/></svg>