<svg id="圖層_1" data-name="圖層 1" xmlns="http://www.w3.org/2000/svg" viewBox="0 0 230 200"><defs><style>.cls-1{fill:#424242;}.cls-2{fill:#fff;}.cls-3{fill:#afafaf;}.cls-4{fill:#f4f4f4;}.cls-5{fill:#f8f8f8;}.cls-6{fill:#00ffa7;}.cls-7{fill:#ffda6a;}</style></defs><title>13</title><rect class="cls-1" x="66.04" y="72.62" width="97.92" height="118.4" rx="46.81"/><polyline class="cls-2" points="104.17 92.19 113.34 82.75 123.22 92.19 113.93 116.64"/><polygon class="cls-3" points="116.16 95.02 110.76 95.02 107.75 83.65 119.17 83.65 116.16 95.02"/><polygon class="cls-3" points="110.76 95.02 116.16 95.02 120.26 113.57 113.49 118.77 106.65 113.64 110.76 95.02"/><path class="cls-1" d="M109.53,4.4h14.79a17.11,17.11,0,0,1,17.11,17.11v16.7a24.06,24.06,0,0,1-24.06,24.06h-7.85A24.06,24.06,0,0,1,85.48,38.22V28.46A24.06,24.06,0,0,1,109.53,4.4Z"/><path class="cls-2" d="M137.35,38.71l-.25,0v-.18A23.59,23.59,0,0,0,113.46,15h0A23.58,23.58,0,0,0,89.83,38.55v.18a7.94,7.94,0,0,0,.26,15.88h.27A23.55,23.55,0,0,0,102.9,70.68v2.67a10.56,10.56,0,0,0,21.12,0V70.68a23.57,23.57,0,0,0,12.55-16.11,6.79,6.79,0,0,0,.78,0,8,8,0,1,0,0-15.9Z"/><path class="cls-1" d="M113.46,84.37a11,11,0,0,1-11.06-11V71A24,24,0,0,1,90,55.11a8.44,8.44,0,0,1-.63-16.85,24.13,24.13,0,0,1,48.26,0,8.45,8.45,0,0,1-.24,16.89H137A23.91,23.91,0,0,1,124.52,71v2.36A11,11,0,0,1,113.46,84.37ZM90.76,54.09l.09.4a22.92,22.92,0,0,0,12.27,15.74l.28.14v3a10.06,10.06,0,0,0,20.12,0v-3l.28-.14a22.94,22.94,0,0,0,12.28-15.76l.09-.43.45,0c.24,0,.48,0,.73,0a7.45,7.45,0,1,0,0-14.9l-.75,0v-.69a23.14,23.14,0,0,0-46.27,0v.66l-.49,0a7.44,7.44,0,0,0,.25,14.88Z"/><path class="cls-1" d="M85.48,0h30.63a10.51,10.51,0,0,1,10.51,10.51v0a9.38,9.38,0,0,1-9.38,9.38H94.86a9.38,9.38,0,0,1-9.38-9.38V0A0,0,0,0,1,85.48,0Z"/><path class="cls-2" d="M114.17,83.17a1,1,0,0,0,0,1.41l6,6a1,1,0,0,0,1.42,0l9.45-9.42a1,1,0,0,0,0-1.41l-6-6a1,1,0,0,0-1.42,0Z"/><path class="cls-1" d="M120.93,91.27a1.36,1.36,0,0,1-1-.4l-6.06-6a1.39,1.39,0,0,1,0-1.95l9.46-9.41a1.38,1.38,0,0,1,2,0l6.05,6a1.39,1.39,0,0,1,0,1.95l-9.46,9.41A1.35,1.35,0,0,1,120.93,91.27Zm3.4-17.44a.63.63,0,0,0-.44.19l-9.46,9.41h0a.67.67,0,0,0-.18.45.62.62,0,0,0,.18.43l6.06,6a.61.61,0,0,0,.88,0l9.46-9.41a.62.62,0,0,0,.18-.44.59.59,0,0,0-.18-.44l-6.05-6A.67.67,0,0,0,124.33,73.83Zm-10.16,9.34h0Z"/><path class="cls-1" d="M126.64,74.6l13,12.93a1,1,0,0,1,0,1.41l-11.07,11a1,1,0,0,0,0,1.41l5.52,5.49a.69.69,0,0,1-.18,1.17l-20.4,10.73"/><path class="cls-2" d="M113,83.17a1,1,0,0,1,0,1.41l-6,6a1,1,0,0,1-1.42,0l-9.46-9.42a1,1,0,0,1,0-1.41l6.06-6a1,1,0,0,1,1.41,0Z"/><path class="cls-1" d="M106.23,91.27a1.37,1.37,0,0,1-1-.4L95.8,81.46a1.39,1.39,0,0,1,0-1.95l6-6a1.38,1.38,0,0,1,2,0l9.45,9.41a1.36,1.36,0,0,1,0,1.95l-6,6A1.36,1.36,0,0,1,106.23,91.27Zm-3.41-17.43a.62.62,0,0,0-.44.18l-6,6a.59.59,0,0,0-.18.44.62.62,0,0,0,.18.44l9.45,9.41a.62.62,0,0,0,.89,0l6-6a.59.59,0,0,0,.19-.43.64.64,0,0,0-.19-.45h0L103.27,74A.63.63,0,0,0,102.82,73.84Z"/><path class="cls-1" d="M100.31,74.76l-13,12.93a1,1,0,0,0,0,1.41l11.06,11a1,1,0,0,1,0,1.41L92.88,107a.69.69,0,0,0,.18,1.17l20.4,10.73"/><path class="cls-1" d="M128.79,101.61l5.28,5.25a.87.87,0,0,1-.08,1.33l-20.29,16"/><path class="cls-2" d="M113.7,124.41a.25.25,0,0,1-.16-.44l20.3-16a.61.61,0,0,0,0-.95l-5.28-5.26a.26.26,0,0,1,0-.35.25.25,0,0,1,.36,0l5.27,5.26a1.1,1.1,0,0,1,.35.87,1.14,1.14,0,0,1-.44.82l-20.3,16A.21.21,0,0,1,113.7,124.41Z"/><path class="cls-1" d="M128.21,76.17l11.41,11.36a1,1,0,0,1,0,1.41l-11.77,11.73"/><path class="cls-2" d="M127.85,100.92a.25.25,0,0,1-.18-.08.24.24,0,0,1,0-.35l11.78-11.73a.77.77,0,0,0,0-1.06L128,76.34a.25.25,0,1,1,.35-.35L139.8,87.35a1.25,1.25,0,0,1,.36.88,1.27,1.27,0,0,1-.36.89L128,100.84A.25.25,0,0,1,127.85,100.92Z"/><path class="cls-1" d="M98.32,101.61,92.88,107a.91.91,0,0,0,.05,1.36l18.39,15.78"/><path class="cls-2" d="M111.32,124.41a.27.27,0,0,1-.16-.06L92.77,108.57a1.15,1.15,0,0,1-.42-.85,1.18,1.18,0,0,1,.35-.88l5.44-5.41a.25.25,0,0,1,.35.35l-5.43,5.42a.7.7,0,0,0-.21.5.68.68,0,0,0,.24.49L111.49,124a.26.26,0,0,1,0,.36A.27.27,0,0,1,111.32,124.41Z"/><path class="cls-1" d="M98.38,76.68l-11,11a1,1,0,0,0,0,1.41L99.1,100.82"/><path class="cls-2" d="M99.1,101.08a.25.25,0,0,1-.17-.08L87.15,89.27a1.2,1.2,0,0,1-.37-.88,1.22,1.22,0,0,1,.37-.88l11-11a.25.25,0,0,1,.36,0,.24.24,0,0,1,0,.35l-11.06,11a.75.75,0,0,0,0,1.06l11.78,11.73a.24.24,0,0,1,0,.35A.25.25,0,0,1,99.1,101.08Z"/><polyline class="cls-4" points="222.74 174.97 170.12 135.91 170.12 174.97"/><path class="cls-1" d="M222.74,175.48a.46.46,0,0,1-.29-.1l-51.84-38.47V175a.5.5,0,1,1-1,0V135.91a.5.5,0,0,1,.27-.45.49.49,0,0,1,.52,0L223,174.56a.52.52,0,0,1,.11.71A.49.49,0,0,1,222.74,175.48Z"/><polygon class="cls-4" points="59.22 135.83 59.22 174.89 6.59 174.89 59.22 135.83"/><path class="cls-1" d="M59.22,175.4H6.59a.5.5,0,0,1-.48-.35.53.53,0,0,1,.18-.57l52.63-39.06a.51.51,0,0,1,.52,0,.5.5,0,0,1,.27.45v39.06A.5.5,0,0,1,59.22,175.4Zm-51.11-1H58.72V136.83Z"/><polygon class="cls-2" points="229.45 169.68 224.29 165.82 221.59 163.71 221.48 163.71 184.36 135.91 170.69 135.91 207.81 163.71 21.98 163.71 59.2 135.83 45.54 135.83 0.45 169.6 0.67 169.6 0.45 169.75 229.35 169.75 229.25 169.68 229.45 169.68"/><path class="cls-1" d="M229.35,170.26H.45A.5.5,0,0,1,0,169.9a.41.41,0,0,1,0-.22.51.51,0,0,1,.19-.49l45.09-33.76a.47.47,0,0,1,.3-.1H59.21a.5.5,0,0,1,.47.35.51.51,0,0,1-.18.56l-36,27H206.3l-35.9-26.89a.51.51,0,0,1-.18-.56.5.5,0,0,1,.47-.35h13.67a.43.43,0,0,1,.29.1l37,27.7a.43.43,0,0,1,.24.1l2.7,2.1,5.16,3.86a.51.51,0,0,1,.17.57.5.5,0,0,1-.24.29A.51.51,0,0,1,229.35,170.26Zm-227.59-1H228l-4-3-2.59-2a.5.5,0,0,1-.23-.09l-37-27.7h-12l35.9,26.88a.53.53,0,0,1,.18.57.5.5,0,0,1-.48.35H22a.5.5,0,0,1-.48-.35.53.53,0,0,1,.18-.57l36-27h-12Z"/><rect class="cls-5" x="0.5" y="169.75" width="228.9" height="29.74"/><path class="cls-1" d="M229.4,200H.5a.5.5,0,0,1-.5-.51V169.75a.5.5,0,0,1,.5-.5H229.4a.5.5,0,0,1,.5.5v29.74A.5.5,0,0,1,229.4,200ZM1,199H228.9V170.26H1Z"/><path class="cls-1" d="M180,152.72h-3V113.9A47.07,47.07,0,0,0,163.5,80.69L152.26,69.26l2.11-2.15,11.24,11.43A50.09,50.09,0,0,1,180,113.9Z"/><path class="cls-1" d="M156.24,65.5a3.89,3.89,0,0,0-5.56,0,4,4,0,0,0,0,5.65,3.87,3.87,0,0,0,5.56,0A4.05,4.05,0,0,0,156.24,65.5Z"/><path class="cls-1" d="M52.3,152.72h-3V113.9A50.09,50.09,0,0,1,63.72,78.54L75,67.11l2.11,2.15L65.83,80.69A47.07,47.07,0,0,0,52.3,113.9Z"/><path class="cls-1" d="M78.65,71.15a4,4,0,0,0,0-5.65,3.89,3.89,0,0,0-5.56,0,4.05,4.05,0,0,0,0,5.65A3.87,3.87,0,0,0,78.65,71.15Z"/><path class="cls-6" d="M127.88,122.72a10.52,10.52,0,0,0-10.06,7.59,7.33,7.33,0,0,0-3.57-.93,7.41,7.41,0,0,0-6.51,3.9,13.43,13.43,0,0,0-25.45,4,10.4,10.4,0,0,0-7.27-3A10.56,10.56,0,0,0,64.56,144h0a7.39,7.39,0,0,0-5.89,3,12.09,12.09,0,0,0-1.21-.07,10.53,10.53,0,0,0-10.11,7.77,10.41,10.41,0,0,0-4-.8A10.54,10.54,0,0,0,32.9,163.2H197a10.52,10.52,0,0,0-10.08-7.68h-.2a7.34,7.34,0,0,0-10.38-.95,8.84,8.84,0,0,0-8.72-7.72,8.67,8.67,0,0,0-2.29.31c0-.1,0-.21,0-.31a12.5,12.5,0,0,0-12.42-12.58,12.13,12.13,0,0,0-4.28.78,7.4,7.4,0,0,0-5.72-2.72,7.31,7.31,0,0,0-4.57,1.6c0-.2,0-.39,0-.59A10.56,10.56,0,0,0,127.88,122.72Z"/><ellipse class="cls-7" cx="68.85" cy="143.43" rx="4.92" ry="4.98"/><ellipse class="cls-7" cx="100.24" cy="155.36" rx="4.92" ry="4.98"/><ellipse class="cls-7" cx="131.1" cy="135.83" rx="4.92" ry="4.98"/><ellipse class="cls-7" cx="145.74" cy="152.72" rx="4.92" ry="4.98"/><ellipse class="cls-7" cx="159.69" cy="143.43" rx="4.92" ry="4.98"/></svg>