<svg xmlns="http://www.w3.org/2000/svg" width="29.954" height="30" viewBox="0 0 29.954 30">
  <g id="psharp-header-link" transform="translate(-208 -35)">
    <path id="Path_728" data-name="Path 728" d="M29.792,0H.171A.171.171,0,0,0,0,.171V24.059a.171.171,0,0,0,.143.171l3.886.7c.619-3.381,1.257-6.886,1.524-8.267.333-1.772.81-5.9,3.534-5.9A5.043,5.043,0,0,1,4.867,7.905,34.694,34.694,0,0,1,3.152,2.981a.162.162,0,0,1,.152-.2H17.744c5.057,0,9.934,3.648,9.267,9.667-.591,5.305-4.038,9.172-8.839,9.172H13.715a.162.162,0,0,0-.162.133l-.81,4.743,3.324.619c1.562.3,4.8.924,5.677,2.781a.171.171,0,0,0,.324-.029A5.185,5.185,0,0,1,24.82,26.44a35.057,35.057,0,0,1,5.01-1.752.171.171,0,0,0,.124-.162V.171A.171.171,0,0,0,29.792,0Z" transform="translate(208 35)" fill="#424242"/>
    <path id="Path_729" data-name="Path 729" d="M118.218,63.776h-2.181l.354-2.181h1.361a.1.1,0,0,0,.1-.084l.457-2.693a.1.1,0,0,0-.093-.121h-1.342l.317-1.91a.158.158,0,0,0-.13-.186h-2.647a.158.158,0,0,0-.158.13l-.326,1.966h-2.209l.317-1.91a.158.158,0,0,0-.13-.186h-2.647a.158.158,0,0,0-.14.121L108.8,58.7H106.1a.1.1,0,0,0-.1.1,2.8,2.8,0,0,0,2.311,2.759l-.373,2.218H106.1a.1.1,0,0,0-.1.1,2.8,2.8,0,0,0,1.51,2.488l-.373,2.218a.158.158,0,0,0,.13.186h2.647a.158.158,0,0,0,.158-.13l.326-1.966h2.218l-.326,1.92a.158.158,0,0,0,.13.186h2.647a.158.158,0,0,0,.158-.13l.326-1.966h2.209a.1.1,0,0,0,.1-.084l.457-2.693a.1.1,0,0,0-.093-.121Zm-7.334,0,.354-2.181h2.218l-.354,2.181Z" transform="translate(112.254 -16.127)" fill="#424242"/>
  </g>
</svg>
