<svg xmlns="http://www.w3.org/2000/svg" id="footer_money" width="114.755" height="134.611" viewBox="0 0 114.755 134.611">
    <defs>
        <style>
            .cls-1{fill:#ffda6a}.cls-2{fill:#fdb657}.cls-3{fill:#dc8700}.cls-4{clip-path:url(#clip-path)}.cls-5{fill:#e6a839}.cls-6{fill:#dc8600}.cls-7{fill:#c06800}.cls-8{clip-path:url(#clip-path-2)}.cls-9{fill:none}.cls-10{clip-path:url(#clip-path-3)}.cls-11{clip-path:url(#clip-path-4)}.cls-12{clip-path:url(#clip-path-5)}.cls-13{fill:#424242}.cls-14{clip-path:url(#clip-path-6)}.cls-15{fill:#dc9600}.cls-16{fill:#dc8200}.cls-17{clip-path:url(#clip-path-7)}
        </style>
        <clipPath id="clip-path">
            <ellipse id="Ellipse_571" cx="3.705" cy="13.365" class="cls-1" data-name="Ellipse 571" rx="3.705" ry="13.365"/>
        </clipPath>
        <clipPath id="clip-path-2">
            <ellipse id="Ellipse_578" cx="4.527" cy="14.254" class="cls-1" data-name="Ellipse 578" rx="4.527" ry="14.254"/>
        </clipPath>
        <clipPath id="clip-path-3">
            <ellipse id="Ellipse_586" cx="5.654" cy="17.546" class="cls-1" data-name="Ellipse 586" rx="5.654" ry="17.546"/>
        </clipPath>
        <clipPath id="clip-path-4">
            <ellipse id="Ellipse_594" cx="7.206" cy="18.625" class="cls-1" data-name="Ellipse 594" rx="7.206" ry="18.625"/>
        </clipPath>
        <clipPath id="clip-path-5">
            <ellipse id="Ellipse_602" cx="8.559" cy="23.242" class="cls-1" data-name="Ellipse 602" rx="8.559" ry="23.242"/>
        </clipPath>
        <clipPath id="clip-path-6">
            <ellipse id="Ellipse_610" cx="12.288" cy="25.706" class="cls-1" data-name="Ellipse 610" rx="12.288" ry="25.706"/>
        </clipPath>
        <clipPath id="clip-path-7">
            <ellipse id="Ellipse_618" cx="17.258" cy="36.133" class="cls-1" data-name="Ellipse 618" rx="17.258" ry="36.133"/>
        </clipPath>
    </defs>
    <g id="Group_8569" data-name="Group 8569" transform="translate(102.892 82.638)">
        <g id="Group_8552" data-name="Group 8552" transform="translate(3.648 26.722)">
            <path id="Line_69" d="M0 0h4.504" class="cls-2" data-name="Line 69" transform="translate(0 .109)"/>
            <path id="Rectangle_1513" d="M0 0h4.504v.219H0z" class="cls-3" data-name="Rectangle 1513"/>
        </g>
        <g id="Group_8568" data-name="Group 8568">
            <g id="Group_8565" data-name="Group 8565">
                <g id="Group_8553" data-name="Group 8553">
                    <path id="Path_3215" d="M1063.791 589.027c0 7.379 1.585 13.361 3.539 13.361s3.538-5.982 3.538-13.361-1.584-13.361-3.538-13.361-3.539 5.982-3.539 13.361z" class="cls-2" data-name="Path 3215" transform="translate(-1063.681 -575.556)"/>
                    <path id="Path_3216" d="M1067.189 602.358c-2.046 0-3.648-5.917-3.648-13.471s1.6-13.471 3.648-13.471 3.648 5.917 3.648 13.471-1.602 13.471-3.648 13.471zm0-26.722c-1.859 0-3.429 6.068-3.429 13.251s1.57 13.252 3.429 13.252 3.428-6.069 3.428-13.252-1.569-13.251-3.428-13.251z" class="cls-3" data-name="Path 3216" transform="translate(-1063.541 -575.416)"/>
                </g>
                <g id="Group_8554" data-name="Group 8554" transform="translate(1.113)">
                    <ellipse id="Ellipse_566" cx="3.538" cy="13.361" class="cls-2" data-name="Ellipse 566" rx="3.538" ry="13.361" transform="translate(.11 .11)"/>
                    <path id="Path_3217" d="M1069.723 602.358c-2.046 0-3.648-5.917-3.648-13.471s1.6-13.471 3.648-13.471 3.647 5.917 3.647 13.471-1.601 13.471-3.647 13.471zm0-26.722c-1.859 0-3.429 6.068-3.429 13.251s1.57 13.252 3.429 13.252 3.428-6.069 3.428-13.252-1.57-13.251-3.428-13.251z" class="cls-3" data-name="Path 3217" transform="translate(-1066.075 -575.416)"/>
                </g>
                <g id="Group_8555" data-name="Group 8555" transform="translate(2.225)">
                    <ellipse id="Ellipse_567" cx="3.538" cy="13.361" class="cls-2" data-name="Ellipse 567" rx="3.538" ry="13.361" transform="translate(.11 .11)"/>
                    <path id="Path_3218" d="M1072.257 602.358c-2.045 0-3.648-5.917-3.648-13.471s1.6-13.471 3.648-13.471 3.648 5.917 3.648 13.471-1.605 13.471-3.648 13.471zm0-26.722c-1.858 0-3.429 6.068-3.429 13.251s1.57 13.252 3.429 13.252 3.428-6.069 3.428-13.252-1.57-13.251-3.428-13.251z" class="cls-3" data-name="Path 3218" transform="translate(-1068.609 -575.416)"/>
                </g>
                <g id="Group_8556" data-name="Group 8556" transform="translate(3.339)">
                    <ellipse id="Ellipse_568" cx="3.538" cy="13.361" class="cls-2" data-name="Ellipse 568" rx="3.538" ry="13.361" transform="translate(.11 .11)"/>
                    <path id="Path_3219" d="M1074.792 602.358c-2.045 0-3.648-5.917-3.648-13.471s1.6-13.471 3.648-13.471 3.648 5.917 3.648 13.471-1.602 13.471-3.648 13.471zm0-26.722c-1.859 0-3.428 6.068-3.428 13.251s1.57 13.252 3.428 13.252 3.428-6.069 3.428-13.252-1.57-13.251-3.428-13.251z" class="cls-3" data-name="Path 3219" transform="translate(-1071.144 -575.416)"/>
                </g>
                <g id="Group_8564" data-name="Group 8564" transform="translate(3.648)">
                    <g id="Group_8557" data-name="Group 8557">
                        <path id="Line_70" d="M0 0h4.509" class="cls-2" data-name="Line 70" transform="translate(0 .109)"/>
                        <path id="Rectangle_1514" d="M0 0h4.509v.219H0z" class="cls-3" data-name="Rectangle 1514"/>
                    </g>
                    <g id="Group_8562" data-name="Group 8562" transform="translate(.804 .181)">
                        <ellipse id="Ellipse_569" cx="3.705" cy="13.365" class="cls-1" data-name="Ellipse 569" rx="3.705" ry="13.365"/>
                        <g id="Group_8561" class="cls-4" data-name="Group 8561">
                            <g id="Group_8560" data-name="Group 8560" transform="translate(-.404)">
                                <g id="Group_8558" data-name="Group 8558" transform="translate(.433 .433)">
                                    <ellipse id="Ellipse_570" cx="3.272" cy="12.932" class="cls-1" data-name="Ellipse 570" rx="3.272" ry="12.932"/>
                                </g>
                                <g id="Group_8559" data-name="Group 8559">
                                    <path id="Path_3220" d="M1076.465 576.7c.849 0 2.839 4.252 2.839 12.5s-1.99 12.5-2.839 12.5-2.839-4.252-2.839-12.5 1.99-12.5 2.839-12.5m0-.866c-2.046 0-3.705 5.984-3.705 13.365s1.659 13.365 3.705 13.365 3.705-5.983 3.705-13.365-1.659-13.365-3.705-13.365z" class="cls-5" data-name="Path 3220" transform="translate(-1072.76 -575.829)"/>
                                </g>
                            </g>
                        </g>
                    </g>
                    <g id="Group_8563" data-name="Group 8563" transform="translate(.685 .005)">
                        <path id="Path_3221" d="M1077.174 576.3c.346 0 1.146.9 1.818 3.3a40.726 40.726 0 0 1 0 18.553c-.673 2.4-1.472 3.3-1.818 3.3s-1.146-.9-1.818-3.3a40.745 40.745 0 0 1 0-18.553c.673-2.4 1.472-3.3 1.818-3.3m0-.876c-2.079 0-3.765 6.023-3.765 13.453s1.685 13.453 3.765 13.453 3.765-6.023 3.765-13.453-1.686-13.453-3.765-13.453z" class="cls-6" data-name="Path 3221" transform="translate(-1073.409 -575.428)"/>
                    </g>
                </g>
            </g>
            <g id="Group_8566" data-name="Group 8566" transform="translate(5.654 4.594)">
                <path id="Path_3222" d="M1081.386 597.306a3.927 3.927 0 0 0-.23-.945 5.078 5.078 0 0 0-.662-1.228 19.126 19.126 0 0 0-.784-.962q.007-.663 0-1.43v-.692c.021.02.042.048.063.065a.477.477 0 0 0 .237.108h.599a.291.291 0 0 0 .307-.154.911.911 0 0 0 .107-.429 2.4 2.4 0 0 0-.063-.589 3.289 3.289 0 0 0-.205-.633 3.684 3.684 0 0 0-.494-.862c-.19-.242-.373-.465-.55-.664v-.928a5.723 5.723 0 0 0-.088-.967 2.754 2.754 0 0 0-.157-.567 1.646 1.646 0 0 0-.214-.39.379.379 0 0 0-.237-.161H1078.823a.154.154 0 0 0-.016 0 .149.149 0 0 0-.016 0 .158.158 0 0 0-.016 0 .157.157 0 0 0-.016 0 .15.15 0 0 0-.016 0h-.016a.154.154 0 0 0-.016 0 .145.145 0 0 0-.016 0 .158.158 0 0 0-.016 0 .149.149 0 0 0-.016 0 .149.149 0 0 0-.016 0 .158.158 0 0 0-.016 0 .151.151 0 0 0-.016 0 .158.158 0 0 0-.016 0 .153.153 0 0 0-.016 0 .15.15 0 0 0-.016 0 .155.155 0 0 0-.016 0 .151.151 0 0 0-.016 0 .157.157 0 0 0-.016 0c-.082-.011-.155.044-.217.169a1.241 1.241 0 0 0-.127.4 4.426 4.426 0 0 0-.055.535q-.013.289-.013.6v.546h-.164a.844.844 0 0 0-.534.22 2.214 2.214 0 0 0-.584.9 5.136 5.136 0 0 0-.294 1.47 6.323 6.323 0 0 0 .16 1.832 6.244 6.244 0 0 0 .629 1.713 11.95 11.95 0 0 0 .8 1.2V597.629a3.339 3.339 0 0 0-.139-.263.451.451 0 0 0-.2-.189.338.338 0 0 0-.191-.032h-.5a.237.237 0 0 0-.249.1 1.2 1.2 0 0 0-.2.491 3.075 3.075 0 0 0-.05.724 3.7 3.7 0 0 0 .1.751 6.324 6.324 0 0 0 .638 1.374 2.242 2.242 0 0 0 .789.779v1.066a2.958 2.958 0 0 0 .14.986.573.573 0 0 0 .258.367.268.268 0 0 0 .154.016H1079.248a.321.321 0 0 0 .164-.068.933.933 0 0 0 .259-.362 1.722 1.722 0 0 0 .141-.573 6.852 6.852 0 0 0 .021-.689c0-.256-.006-.478-.007-.667a3.147 3.147 0 0 0 1.285-1.263 2.648 2.648 0 0 0 .3-.8 5.7 5.7 0 0 0 .129-1.014 6.285 6.285 0 0 0-.154-1.057z" class="cls-7" data-name="Path 3222" transform="translate(-1076.417 -585.878)"/>
            </g>
            <g id="Group_8567" data-name="Group 8567" transform="translate(6.272 4.594)">
                <path id="Path_3223" d="M1080.7 598.974a1.092 1.092 0 0 0 .358-.5 1.134 1.134 0 0 0 .036-.544 1.852 1.852 0 0 0-.2-.566 4.123 4.123 0 0 0-.371-.57v2.301c.032-.024.062-.045.09-.062a1.045 1.045 0 0 0 .087-.059zm-1.821-7.8q.01.2.029.362a1.772 1.772 0 0 0 .077.338 4.1 4.1 0 0 0 .157.4c.066.148.157.331.271.546l-.006-2.109c-.164-.08-.285-.059-.364.062a1.2 1.2 0 0 0-.159.405zm-.889 8.034a3.7 3.7 0 0 1-.1-.751 3.055 3.055 0 0 1 .051-.724 1.192 1.192 0 0 1 .2-.491.249.249 0 0 1 .341-.067.423.423 0 0 1 .2.189 3.084 3.084 0 0 1 .176.334c.057.126.113.249.167.372a2.71 2.71 0 0 0 .167.323c.032.047.07.1.114.153a1.672 1.672 0 0 0 .114.13v-1.608-1.608a11.874 11.874 0 0 1-.8-1.2 6.242 6.242 0 0 1-.629-1.713 6.307 6.307 0 0 1-.16-1.833 5.145 5.145 0 0 1 .294-1.47 2.214 2.214 0 0 1 .584-.9.78.78 0 0 1 .7-.2v-.565q0-.31.013-.6a4.477 4.477 0 0 1 .055-.535 1.251 1.251 0 0 1 .126-.4c.062-.124.135-.18.216-.169a.378.378 0 0 1 .237.161 1.645 1.645 0 0 1 .214.39 2.775 2.775 0 0 1 .157.567 5.823 5.823 0 0 1 .088.967v.928q.265.3.55.664a3.66 3.66 0 0 1 .494.862 3.307 3.307 0 0 1 .206.633 2.411 2.411 0 0 1 .063.589.908.908 0 0 1-.107.43.3.3 0 0 1-.307.154.477.477 0 0 1-.237-.108 1.385 1.385 0 0 1-.223-.229q-.109-.14-.218-.29c-.073-.1-.147-.2-.224-.287v1.433q0 .766-.005 1.43.418.479.784.962a5 5 0 0 1 .662 1.228 3.927 3.927 0 0 1 .231.945 6.311 6.311 0 0 1 .047 1.061 5.718 5.718 0 0 1-.129 1.014 2.634 2.634 0 0 1-.3.8 3.145 3.145 0 0 1-1.285 1.263c0 .189 0 .411.007.667a6.637 6.637 0 0 1-.022.689 1.7 1.7 0 0 1-.141.573.929.929 0 0 1-.259.362.285.285 0 0 1-.3.052.573.573 0 0 1-.257-.367 2.963 2.963 0 0 1-.141-.986v-1.066a2.239 2.239 0 0 1-.789-.779 6.3 6.3 0 0 1-.62-1.375z" class="cls-3" data-name="Path 3223" transform="translate(-1077.825 -585.878)"/>
            </g>
        </g>
    </g>
    <g id="Group_8589" data-name="Group 8589" transform="translate(92.852 105.871)">
        <g id="Group_8570" data-name="Group 8570" transform="translate(4.584 .012)">
            <path id="Line_71" d="M0 0h4.504" class="cls-2" data-name="Line 71" transform="translate(0 .109)"/>
            <path id="Rectangle_1515" d="M0 0h4.504v.219H0z" class="cls-3" data-name="Rectangle 1515"/>
        </g>
        <g id="Group_8586" data-name="Group 8586">
            <g id="Group_8578" data-name="Group 8578" transform="translate(0 .007)">
                <g id="Group_8572" data-name="Group 8572">
                    <g id="Group_8571" data-name="Group 8571">
                        <ellipse id="Ellipse_572" cx="4.527" cy="14.254" class="cls-2" data-name="Ellipse 572" rx="4.527" ry="14.254" transform="translate(.11 .11)"/>
                        <path id="Path_3224" d="M1045.312 657.068c-2.557 0-4.636-6.444-4.636-14.364s2.08-14.364 4.636-14.364 4.637 6.444 4.637 14.364-2.08 14.364-4.637 14.364zm0-28.509c-2.435 0-4.417 6.345-4.417 14.144s1.981 14.145 4.417 14.145 4.417-6.345 4.417-14.145-1.981-14.143-4.417-14.143z" class="cls-3" data-name="Path 3224" transform="translate(-1040.676 -628.34)"/>
                    </g>
                </g>
                <g id="Group_8573" data-name="Group 8573" transform="translate(1.113)">
                    <ellipse id="Ellipse_573" cx="4.527" cy="14.254" class="cls-2" data-name="Ellipse 573" rx="4.527" ry="14.254" transform="translate(.11 .11)"/>
                    <path id="Path_3225" d="M1047.847 657.068c-2.557 0-4.637-6.444-4.637-14.364s2.08-14.364 4.637-14.364 4.637 6.444 4.637 14.364-2.084 14.364-4.637 14.364zm0-28.509c-2.435 0-4.417 6.345-4.417 14.144s1.982 14.145 4.417 14.145 4.417-6.345 4.417-14.145-1.982-14.143-4.417-14.143z" class="cls-3" data-name="Path 3225" transform="translate(-1043.21 -628.34)"/>
                </g>
                <g id="Group_8574" data-name="Group 8574" transform="translate(2.225)">
                    <ellipse id="Ellipse_574" cx="4.527" cy="14.254" class="cls-2" data-name="Ellipse 574" rx="4.527" ry="14.254" transform="translate(.11 .11)"/>
                    <path id="Path_3226" d="M1050.381 657.068c-2.557 0-4.637-6.444-4.637-14.364s2.08-14.364 4.637-14.364 4.636 6.444 4.636 14.364-2.08 14.364-4.636 14.364zm0-28.509c-2.435 0-4.417 6.345-4.417 14.144s1.982 14.145 4.417 14.145 4.417-6.345 4.417-14.145-1.982-14.143-4.417-14.143z" class="cls-3" data-name="Path 3226" transform="translate(-1045.744 -628.34)"/>
                </g>
                <g id="Group_8575" data-name="Group 8575" transform="translate(3.338)">
                    <ellipse id="Ellipse_575" cx="4.527" cy="14.254" class="cls-2" data-name="Ellipse 575" rx="4.527" ry="14.254" transform="translate(.11 .11)"/>
                    <path id="Path_3227" d="M1052.915 657.068c-2.557 0-4.637-6.444-4.637-14.364s2.08-14.364 4.637-14.364 4.637 6.444 4.637 14.364-2.081 14.364-4.637 14.364zm0-28.509c-2.435 0-4.417 6.345-4.417 14.144s1.982 14.145 4.417 14.145 4.417-6.345 4.417-14.145-1.982-14.143-4.417-14.143z" class="cls-3" data-name="Path 3227" transform="translate(-1048.278 -628.34)"/>
                </g>
                <g id="Group_8577" data-name="Group 8577" transform="translate(4.451)">
                    <g id="Group_8576" data-name="Group 8576">
                        <ellipse id="Ellipse_576" cx="4.527" cy="14.254" class="cls-1" data-name="Ellipse 576" rx="4.527" ry="14.254" transform="translate(.109 .11)"/>
                        <path id="Path_3228" d="M1055.449 657.068c-2.557 0-4.636-6.444-4.636-14.364s2.08-14.364 4.636-14.364 4.637 6.444 4.637 14.364-2.08 14.364-4.637 14.364zm0-28.509c-2.436 0-4.417 6.345-4.417 14.144s1.981 14.145 4.417 14.145 4.417-6.345 4.417-14.145-1.981-14.143-4.417-14.143z" class="cls-7" data-name="Path 3228" transform="translate(-1050.813 -628.34)"/>
                    </g>
                </g>
            </g>
            <g id="Group_8583" data-name="Group 8583" transform="translate(4.561 .117)">
                <ellipse id="Ellipse_577" cx="4.527" cy="14.254" class="cls-1" data-name="Ellipse 577" rx="4.527" ry="14.254"/>
                <g id="Group_8582" class="cls-8" data-name="Group 8582">
                    <g id="Group_8581" data-name="Group 8581" transform="translate(-.493)">
                        <g id="Group_8579" data-name="Group 8579" transform="translate(.494 .495)">
                            <path id="Path_3229" d="M1055.1 657.236c-1.908 0-4.033-5.651-4.033-13.76s2.125-13.76 4.033-13.76 4.032 5.651 4.032 13.76-2.127 13.76-4.032 13.76z" class="cls-1" data-name="Path 3229" transform="translate(-1051.065 -629.716)"/>
                        </g>
                        <g id="Group_8580" data-name="Group 8580">
                            <path id="Path_3230" d="M1054.466 629.578c1.409 0 3.538 5.291 3.538 13.266s-2.129 13.266-3.538 13.266-3.538-5.291-3.538-13.266 2.129-13.266 3.538-13.266m0-.989c-2.5 0-4.527 6.382-4.527 14.255s2.027 14.255 4.527 14.255 4.527-6.382 4.527-14.255-2.026-14.255-4.527-14.255z" class="cls-5" data-name="Path 3230" transform="translate(-1049.939 -628.589)"/>
                        </g>
                    </g>
                </g>
            </g>
            <g id="Group_8584" data-name="Group 8584" transform="translate(4.438)">
                <path id="Path_3231" d="M1055.427 629.329c.594 0 1.544 1.086 2.328 3.512a37.645 37.645 0 0 1 0 19.7c-.784 2.427-1.734 3.513-2.328 3.513s-1.543-1.086-2.328-3.513a37.655 37.655 0 0 1 0-19.7c.784-2.426 1.734-3.512 2.328-3.512m0-1.006c-2.565 0-4.646 6.434-4.646 14.37s2.08 14.37 4.646 14.37 4.646-6.434 4.646-14.37-2.08-14.37-4.646-14.37z" class="cls-6" data-name="Path 3231" transform="translate(-1050.782 -628.323)"/>
            </g>
            <g id="Group_8585" data-name="Group 8585" transform="translate(4.584 28.516)">
                <path id="Line_72" d="M0 0h4.504" class="cls-2" data-name="Line 72" transform="translate(0 .109)"/>
                <path id="Rectangle_1516" d="M0 0h4.504v.219H0z" class="cls-3" data-name="Rectangle 1516"/>
            </g>
        </g>
        <g id="Group_8587" data-name="Group 8587" transform="translate(6.962 4.612)">
            <path id="Path_3232" d="M1061.918 650.757a3.735 3.735 0 0 0-.239-.936 5.137 5.137 0 0 0-.684-1.226 22.785 22.785 0 0 0-.809-.983q.009-.692.008-1.493v-.519c.014 0 .028.011.042.014a.416.416 0 0 0 .1 0 .313.313 0 0 0 .032 0h.828a.275.275 0 0 0 .241-.141.871.871 0 0 0 .111-.427 2.5 2.5 0 0 0-.065-.6 3.663 3.663 0 0 0-.211-.664 4.453 4.453 0 0 0-.507-.937c-.2-.272-.383-.524-.564-.753v-.969a6.322 6.322 0 0 0-.089-1.023 3.316 3.316 0 0 0-.16-.621 2.114 2.114 0 0 0-.218-.445.484.484 0 0 0-.242-.21.133.133 0 0 0-.065 0 .1.1 0 0 0-.029 0 .1.1 0 0 0-.029 0 .1.1 0 0 0-.028 0 .1.1 0 0 0-.029 0 .1.1 0 0 0-.029 0 .1.1 0 0 0-.028 0 .1.1 0 0 0-.028 0 .1.1 0 0 0-.029 0 .1.1 0 0 0-.029 0 .1.1 0 0 0-.028 0 .1.1 0 0 0-.029 0 .1.1 0 0 0-.029 0 .1.1 0 0 0-.029 0 .1.1 0 0 0-.029 0 .1.1 0 0 0-.029 0 .1.1 0 0 0-.028 0 .1.1 0 0 0-.029 0 .1.1 0 0 0-.028 0 .1.1 0 0 0-.029 0 .1.1 0 0 0-.028 0 .1.1 0 0 0-.029 0 .1.1 0 0 0-.028 0 .1.1 0 0 0-.028 0 .1.1 0 0 0-.029 0 .1.1 0 0 0-.029 0 .1.1 0 0 0-.028 0 .1.1 0 0 0-.029 0 .1.1 0 0 0-.028 0 .1.1 0 0 0-.029 0 .121.121 0 0 0-.028 0c-.069 0-.131.044-.186.148a1.2 1.2 0 0 0-.131.4 4.836 4.836 0 0 0-.058.564q-.015.308-.015.637v.567H1058a.776.776 0 0 0-.545.191 2.2 2.2 0 0 0-.6.946 5.825 5.825 0 0 0-.31 1.6 7.361 7.361 0 0 0 .157 2.015 6.783 6.783 0 0 0 .643 1.854 11.3 11.3 0 0 0 .822 1.256q0 .8-.005 1.72v.256a.353.353 0 0 0-.092-.054.385.385 0 0 0-.125-.022.223.223 0 0 0-.029 0 .225.225 0 0 0-.029 0 .221.221 0 0 0-.028 0 .221.221 0 0 0-.028 0 .225.225 0 0 0-.029 0 .223.223 0 0 0-.029 0 .221.221 0 0 0-.028 0 .225.225 0 0 0-.029 0 .223.223 0 0 0-.029 0 .221.221 0 0 0-.028 0 .221.221 0 0 0-.028 0 .223.223 0 0 0-.029 0 .221.221 0 0 0-.028 0 .223.223 0 0 0-.029 0 .223.223 0 0 0-.029 0 .223.223 0 0 0-.029 0 .221.221 0 0 0-.028 0 .225.225 0 0 0-.029 0 .221.221 0 0 0-.028 0 .223.223 0 0 0-.029 0 .223.223 0 0 0-.029 0 .223.223 0 0 0-.029 0 .221.221 0 0 0-.028 0 .225.225 0 0 0-.029 0 .223.223 0 0 0-.029 0 .221.221 0 0 0-.028 0 .223.223 0 0 0-.029 0 .223.223 0 0 0-.029 0 .223.223 0 0 0-.029 0h-.018a.263.263 0 0 0-.268.13 1.492 1.492 0 0 0-.207.56 3.652 3.652 0 0 0-.056.8 4.111 4.111 0 0 0 .1.812 5.8 5.8 0 0 0 .658 1.4 1.823 1.823 0 0 0 .818.705c0 .349 0 .73-.006 1.141a2.955 2.955 0 0 0 .144 1.024c.073.2.161.311.267.332H1059.44a.343.343 0 0 0 .312-.125 1.343 1.343 0 0 0 .272-.44 2.108 2.108 0 0 0 .149-.632c.019-.217.027-.459.024-.725s-.006-.5-.006-.7a4.622 4.622 0 0 0 .71-.625 4.347 4.347 0 0 0 .629-.89 3.033 3.033 0 0 0 .308-.845 5.769 5.769 0 0 0 .134-1.031 6 6 0 0 0-.054-1.036z" class="cls-7" data-name="Path 3232" transform="translate(-1056.53 -638.826)"/>
        </g>
        <g id="Group_8588" data-name="Group 8588" transform="translate(7.875 4.611)">
            <path id="Path_3233" d="M1061.564 652.605a1.329 1.329 0 0 0 .373-.555 1.182 1.182 0 0 0 .038-.565 1.768 1.768 0 0 0-.207-.567 3.952 3.952 0 0 0-.384-.565v2.4c.033-.029.064-.055.094-.076s.053-.043.086-.072zm-1.863-8.193c.006.144.016.275.029.391a1.984 1.984 0 0 0 .078.366 4.553 4.553 0 0 0 .161.432c.068.16.161.357.278.587v-2.255c-.169-.093-.294-.076-.375.05a1.307 1.307 0 0 0-.172.429zm-.953 8.8a4.112 4.112 0 0 1-.1-.812 3.682 3.682 0 0 1 .056-.8 1.5 1.5 0 0 1 .208-.56.265.265 0 0 1 .354-.107.392.392 0 0 1 .211.185 3.193 3.193 0 0 1 .182.344l.172.384a2.419 2.419 0 0 0 .172.329c.033.046.072.1.118.151a1.53 1.53 0 0 0 .118.125q0-.8.006-1.72t.005-1.72a11.345 11.345 0 0 1-.822-1.256 6.791 6.791 0 0 1-.643-1.854 7.361 7.361 0 0 1-.157-2.015 5.839 5.839 0 0 1 .31-1.6 2.2 2.2 0 0 1 .6-.945.728.728 0 0 1 .719-.155v-.6c0-.22.005-.432.015-.637a4.777 4.777 0 0 1 .058-.564 1.2 1.2 0 0 1 .131-.4c.064-.122.139-.17.223-.145a.485.485 0 0 1 .242.21 2.117 2.117 0 0 1 .218.445 3.335 3.335 0 0 1 .16.62 6.465 6.465 0 0 1 .089 1.023v.969q.272.342.564.753a4.389 4.389 0 0 1 .507.937 3.654 3.654 0 0 1 .211.664 2.5 2.5 0 0 1 .065.6.865.865 0 0 1-.111.426.289.289 0 0 1-.316.138.525.525 0 0 1-.244-.123 1.554 1.554 0 0 1-.23-.248q-.112-.151-.224-.313a5.14 5.14 0 0 0-.23-.312v1.5q0 .8-.008 1.493.431.494.809.983a5.021 5.021 0 0 1 .684 1.227 3.73 3.73 0 0 1 .239.936 6.04 6.04 0 0 1 .048 1.058 5.859 5.859 0 0 1-.134 1.031 3.024 3.024 0 0 1-.308.845 4.259 4.259 0 0 1-.629.89 4.47 4.47 0 0 1-.71.625c0 .2 0 .428.006.7a7.133 7.133 0 0 1-.024.725 2.1 2.1 0 0 1-.148.632 1.339 1.339 0 0 1-.272.44.345.345 0 0 1-.312.125c-.105-.022-.195-.132-.267-.332a2.944 2.944 0 0 1-.143-1.024c0-.411.005-.792.005-1.141a1.823 1.823 0 0 1-.818-.705 5.8 5.8 0 0 1-.655-1.421z" class="cls-3" data-name="Path 3233" transform="translate(-1058.609 -638.823)"/>
        </g>
    </g>
    <g id="Group_8608" data-name="Group 8608" transform="translate(83.052 66.392)">
        <g id="Group_8606" data-name="Group 8606">
            <g id="Group_8590" data-name="Group 8590">
                <ellipse id="Ellipse_579" cx="5.489" cy="17.387" class="cls-2" data-name="Ellipse 579" rx="5.489" ry="17.387" transform="translate(.165 .165)"/>
                <path id="Path_3234" d="M1024.013 573.524c-3.17 0-5.654-7.709-5.654-17.551s2.484-17.552 5.654-17.552 5.654 7.71 5.654 17.552-2.483 17.551-5.654 17.551zm0-34.774c-2.936 0-5.325 7.726-5.325 17.223s2.389 17.222 5.325 17.222 5.324-7.726 5.324-17.222-2.388-17.223-5.324-17.223z" class="cls-3" data-name="Path 3234" transform="translate(-1018.359 -538.421)"/>
            </g>
            <g id="Group_8591" data-name="Group 8591" transform="translate(1.333)">
                <ellipse id="Ellipse_580" cx="5.489" cy="17.387" class="cls-2" data-name="Ellipse 580" rx="5.489" ry="17.387" transform="translate(.165 .165)"/>
                <path id="Path_3235" d="M1027.048 573.524c-3.171 0-5.654-7.709-5.654-17.551s2.484-17.552 5.654-17.552 5.654 7.71 5.654 17.552-2.484 17.551-5.654 17.551zm0-34.774c-2.936 0-5.325 7.726-5.325 17.223s2.389 17.222 5.325 17.222 5.324-7.726 5.324-17.222-2.388-17.223-5.324-17.223z" class="cls-3" data-name="Path 3235" transform="translate(-1021.394 -538.421)"/>
            </g>
            <g id="Group_8592" data-name="Group 8592" transform="translate(2.665)">
                <ellipse id="Ellipse_581" cx="5.489" cy="17.387" class="cls-2" data-name="Ellipse 581" rx="5.489" ry="17.387" transform="translate(.165 .165)"/>
                <path id="Path_3236" d="M1030.082 573.524c-3.171 0-5.654-7.709-5.654-17.551s2.484-17.552 5.654-17.552 5.654 7.71 5.654 17.552-2.484 17.551-5.654 17.551zm0-34.774c-2.937 0-5.325 7.726-5.325 17.223s2.388 17.222 5.325 17.222 5.324-7.726 5.324-17.222-2.388-17.223-5.324-17.223z" class="cls-3" data-name="Path 3236" transform="translate(-1024.428 -538.421)"/>
            </g>
            <g id="Group_8593" data-name="Group 8593" transform="translate(3.997)">
                <ellipse id="Ellipse_582" cx="5.489" cy="17.387" class="cls-2" data-name="Ellipse 582" rx="5.489" ry="17.387" transform="translate(.165 .165)"/>
                <path id="Path_3237" d="M1033.116 573.524c-3.171 0-5.654-7.709-5.654-17.551s2.483-17.552 5.654-17.552 5.654 7.71 5.654 17.552-2.484 17.551-5.654 17.551zm0-34.774c-2.936 0-5.324 7.726-5.324 17.223s2.388 17.222 5.324 17.222 5.325-7.726 5.325-17.222-2.389-17.223-5.325-17.223z" class="cls-3" data-name="Path 3237" transform="translate(-1027.462 -538.421)"/>
            </g>
            <g id="Group_8597" data-name="Group 8597" transform="translate(5.33)">
                <g id="Group_8596" data-name="Group 8596">
                    <g id="Group_8594" data-name="Group 8594">
                        <ellipse id="Ellipse_583" cx="5.489" cy="17.387" class="cls-1" data-name="Ellipse 583" rx="5.489" ry="17.387" transform="translate(.165 .165)"/>
                        <path id="Path_3238" d="M1036.15 573.524c-3.171 0-5.654-7.709-5.654-17.551s2.483-17.552 5.654-17.552 5.654 7.71 5.654 17.552-2.484 17.551-5.654 17.551zm0-34.774c-2.935 0-5.324 7.726-5.324 17.223s2.389 17.222 5.324 17.222 5.325-7.726 5.325-17.222-2.389-17.223-5.325-17.223z" class="cls-7" data-name="Path 3238" transform="translate(-1030.496 -538.421)"/>
                    </g>
                    <g id="Group_8595" data-name="Group 8595" transform="translate(.165 .165)">
                        <ellipse id="Ellipse_584" cx="5.489" cy="17.387" class="cls-9" data-name="Ellipse 584" rx="5.489" ry="17.387"/>
                    </g>
                </g>
            </g>
            <g id="Group_8604" data-name="Group 8604" transform="translate(5.33 .011)">
                <g id="Group_8602" data-name="Group 8602">
                    <ellipse id="Ellipse_585" cx="5.654" cy="17.546" class="cls-1" data-name="Ellipse 585" rx="5.654" ry="17.546"/>
                    <g id="Group_8601" class="cls-10" data-name="Group 8601">
                        <g id="Group_8600" data-name="Group 8600" transform="translate(-.616)">
                            <g id="Group_8598" data-name="Group 8598" transform="translate(.613 .613)">
                                <path id="Path_3239" d="M1035.532 573.708c-2.384 0-5.042-6.954-5.042-16.933s2.657-16.932 5.042-16.932 5.041 6.954 5.041 16.932-2.657 16.933-5.041 16.933z" class="cls-1" data-name="Path 3239" transform="translate(-1030.49 -539.843)"/>
                            </g>
                            <g id="Group_8599" data-name="Group 8599">
                                <path id="Path_3240" d="M1034.749 539.673c.722 0 1.876 1.326 2.831 4.289a46.108 46.108 0 0 1 0 24.061c-.955 2.963-2.109 4.289-2.831 4.289s-1.876-1.326-2.831-4.289a46.125 46.125 0 0 1 0-24.061c.955-2.963 2.11-4.289 2.831-4.289m0-1.226c-3.123 0-5.654 7.856-5.654 17.546s2.531 17.545 5.654 17.545 5.654-7.856 5.654-17.545-2.531-17.546-5.654-17.546z" class="cls-5" data-name="Path 3240" transform="translate(-1029.095 -538.447)"/>
                            </g>
                        </g>
                    </g>
                </g>
                <g id="Group_8603" data-name="Group 8603">
                    <path id="Path_3241" d="M1036.151 539.673c.721 0 1.876 1.326 2.831 4.289a46.122 46.122 0 0 1 0 24.061c-.955 2.963-2.11 4.289-2.831 4.289s-1.876-1.326-2.831-4.289a46.108 46.108 0 0 1 0-24.061c.955-2.963 2.109-4.289 2.831-4.289m0-1.226c-3.123 0-5.654 7.856-5.654 17.546s2.531 17.545 5.654 17.545 5.654-7.856 5.654-17.545-2.531-17.546-5.654-17.546z" class="cls-6" data-name="Path 3241" transform="translate(-1030.497 -538.447)"/>
                </g>
            </g>
            <g id="Group_8605" data-name="Group 8605" transform="translate(5.654)">
                <path id="Rectangle_1517" d="M0 0h5.329v.329H0z" class="cls-3" data-name="Rectangle 1517"/>
            </g>
        </g>
        <g id="Group_8607" data-name="Group 8607" transform="translate(5.654 34.774)">
            <path id="Rectangle_1518" d="M0 0h5.329v.329H0z" class="cls-3" data-name="Rectangle 1518"/>
        </g>
    </g>
    <g id="Group_8626" data-name="Group 8626" transform="translate(68.605 92.258)">
        <g id="Group_8609" data-name="Group 8609" transform="translate(0 .003)">
            <ellipse id="Ellipse_587" cx="7.034" cy="18.466" class="cls-2" data-name="Ellipse 587" rx="7.034" ry="18.466" transform="translate(.165 .165)"/>
            <path id="Path_3242" d="M992.659 634.593c-3.97 0-7.2-8.358-7.2-18.631s3.229-18.631 7.2-18.631 7.2 8.357 7.2 18.631-3.231 18.631-7.2 18.631zm0-36.933c-3.788 0-6.87 8.21-6.87 18.3s3.082 18.3 6.87 18.3 6.869-8.21 6.869-18.3-3.082-18.3-6.869-18.3z" class="cls-3" data-name="Path 3242" transform="translate(-985.46 -597.331)"/>
        </g>
        <g id="Group_8610" data-name="Group 8610" transform="translate(1.332 .003)">
            <ellipse id="Ellipse_588" cx="7.034" cy="18.466" class="cls-2" data-name="Ellipse 588" rx="7.034" ry="18.466" transform="translate(.165 .165)"/>
            <path id="Path_3243" d="M995.693 634.593c-3.969 0-7.2-8.358-7.2-18.631s3.23-18.631 7.2-18.631 7.2 8.357 7.2 18.631-3.231 18.631-7.2 18.631zm0-36.933c-3.788 0-6.87 8.21-6.87 18.3s3.082 18.3 6.87 18.3 6.869-8.21 6.869-18.3-3.081-18.3-6.869-18.3z" class="cls-3" data-name="Path 3243" transform="translate(-988.494 -597.331)"/>
        </g>
        <g id="Group_8611" data-name="Group 8611" transform="translate(2.665 .003)">
            <ellipse id="Ellipse_589" cx="7.034" cy="18.466" class="cls-2" data-name="Ellipse 589" rx="7.034" ry="18.466" transform="translate(.165 .165)"/>
            <path id="Path_3244" d="M998.727 634.593c-3.969 0-7.2-8.358-7.2-18.631s3.23-18.631 7.2-18.631 7.2 8.357 7.2 18.631-3.227 18.631-7.2 18.631zm0-36.933c-3.788 0-6.87 8.21-6.87 18.3s3.082 18.3 6.87 18.3 6.869-8.21 6.869-18.3-3.081-18.3-6.869-18.3z" class="cls-3" data-name="Path 3244" transform="translate(-991.528 -597.331)"/>
        </g>
        <g id="Group_8612" data-name="Group 8612" transform="translate(3.997 .003)">
            <ellipse id="Ellipse_590" cx="7.034" cy="18.466" class="cls-2" data-name="Ellipse 590" rx="7.034" ry="18.466" transform="translate(.165 .165)"/>
            <path id="Path_3245" d="M1001.761 634.593c-3.969 0-7.2-8.358-7.2-18.631s3.23-18.631 7.2-18.631 7.2 8.357 7.2 18.631-3.231 18.631-7.2 18.631zm0-36.933c-3.788 0-6.87 8.21-6.87 18.3s3.082 18.3 6.87 18.3 6.869-8.21 6.869-18.3-3.081-18.3-6.869-18.3z" class="cls-3" data-name="Path 3245" transform="translate(-994.562 -597.331)"/>
        </g>
        <g id="Group_8616" data-name="Group 8616" transform="translate(5.33 .003)">
            <g id="Group_8615" data-name="Group 8615">
                <g id="Group_8613" data-name="Group 8613">
                    <ellipse id="Ellipse_591" cx="7.034" cy="18.466" class="cls-1" data-name="Ellipse 591" rx="7.034" ry="18.466" transform="translate(.165 .165)"/>
                    <path id="Path_3246" d="M1004.8 634.593c-3.969 0-7.2-8.358-7.2-18.631s3.229-18.631 7.2-18.631 7.2 8.357 7.2 18.631-3.235 18.631-7.2 18.631zm0-36.933c-3.788 0-6.869 8.21-6.869 18.3s3.081 18.3 6.869 18.3 6.869-8.21 6.869-18.3-3.086-18.3-6.869-18.3z" class="cls-7" data-name="Path 3246" transform="translate(-997.597 -597.331)"/>
                </g>
                <g id="Group_8614" data-name="Group 8614" transform="translate(.165 .165)">
                    <ellipse id="Ellipse_592" cx="7.034" cy="18.466" class="cls-9" data-name="Ellipse 592" rx="7.034" ry="18.466"/>
                </g>
            </g>
        </g>
        <g id="Group_8625" data-name="Group 8625" transform="translate(5.32)">
            <g id="Group_8617" data-name="Group 8617" transform="translate(1.716)">
                <path id="Line_73" d="M0 0h5.49" class="cls-2" data-name="Line 73" transform="translate(0 .167)"/>
                <path id="Rectangle_1519" d="M0 0h5.49v.335H0z" class="cls-3" data-name="Rectangle 1519"/>
            </g>
            <g id="Group_8618" data-name="Group 8618" transform="translate(1.716 36.933)">
                <path id="Line_74" d="M0 0h5.49" class="cls-2" data-name="Line 74" transform="translate(0 .168)"/>
                <path id="Rectangle_1520" d="M0 0h5.49v.335H0z" class="cls-3" data-name="Rectangle 1520"/>
            </g>
            <g id="Group_8623" data-name="Group 8623" transform="translate(0 .009)">
                <ellipse id="Ellipse_593" cx="7.206" cy="18.625" class="cls-1" data-name="Ellipse 593" rx="7.206" ry="18.625"/>
                <g id="Group_8622" class="cls-11" data-name="Group 8622">
                    <g id="Group_8621" data-name="Group 8621" transform="translate(-.785)">
                        <g id="Group_8619" data-name="Group 8619" transform="translate(.713 .713)">
                            <path id="Path_3247" d="M1003.9 634.793c-3.135 0-6.492-7.2-6.492-17.912s3.357-17.912 6.492-17.912 6.492 7.2 6.492 17.912-3.352 17.912-6.492 17.912z" class="cls-1" data-name="Path 3247" transform="translate(-997.412 -598.969)"/>
                        </g>
                        <g id="Group_8620" data-name="Group 8620">
                            <path id="Path_3248" d="M1002.994 598.771c2.413 0 5.78 6.544 5.78 17.2s-3.366 17.2-5.78 17.2-5.779-6.543-5.779-17.2 3.366-17.2 5.779-17.2m0-1.426c-3.979 0-7.206 8.339-7.206 18.626s3.226 18.625 7.206 18.625 7.206-8.339 7.206-18.625-3.226-18.626-7.206-18.626z" class="cls-5" data-name="Path 3248" transform="translate(-995.788 -597.345)"/>
                        </g>
                    </g>
                </g>
            </g>
            <g id="Group_8624" data-name="Group 8624" transform="translate(0 .009)">
                <path id="Path_3249" d="M1004.781 598.771c2.413 0 5.78 6.544 5.78 17.2s-3.366 17.2-5.78 17.2-5.781-6.545-5.781-17.2 3.366-17.2 5.779-17.2m0-1.426c-3.979 0-7.205 8.339-7.205 18.626s3.226 18.625 7.205 18.625 7.206-8.339 7.206-18.625-3.226-18.626-7.206-18.626z" class="cls-6" data-name="Path 3249" transform="translate(-997.576 -597.345)"/>
            </g>
        </g>
    </g>
    <g id="Group_8645" data-name="Group 8645" transform="translate(56.906 44.553)">
        <g id="Group_8643" data-name="Group 8643">
            <g id="Group_8632" data-name="Group 8632" transform="translate(0 .045)">
                <g id="Group_8627" data-name="Group 8627">
                    <ellipse id="Ellipse_595" cx="8.659" cy="23.11" class="cls-2" data-name="Ellipse 595" rx="8.659" ry="23.11" transform="translate(.22 .22)"/>
                    <path id="Path_3250" d="M967.7 535.449c-4.9 0-8.879-10.465-8.879-23.329s3.979-23.33 8.879-23.33 8.878 10.466 8.878 23.329-3.985 23.33-8.878 23.33zm0-46.219c-4.654 0-8.44 10.269-8.44 22.89s3.786 22.89 8.44 22.89 8.439-10.268 8.439-22.89-3.789-22.891-8.439-22.891z" class="cls-3" data-name="Path 3250" transform="translate(-958.818 -488.79)"/>
                </g>
                <g id="Group_8628" data-name="Group 8628" transform="translate(1.552)">
                    <ellipse id="Ellipse_596" cx="8.659" cy="23.11" class="cls-2" data-name="Ellipse 596" rx="8.659" ry="23.11" transform="translate(.219 .22)"/>
                    <path id="Path_3251" d="M971.231 535.449c-4.9 0-8.878-10.465-8.878-23.329s3.983-23.329 8.878-23.329 8.878 10.466 8.878 23.329-3.982 23.329-8.878 23.329zm0-46.219c-4.653 0-8.439 10.269-8.439 22.89s3.786 22.89 8.439 22.89 8.439-10.268 8.439-22.89-3.785-22.891-8.439-22.891z" class="cls-3" data-name="Path 3251" transform="translate(-962.353 -488.79)"/>
                </g>
                <g id="Group_8629" data-name="Group 8629" transform="translate(3.104)">
                    <ellipse id="Ellipse_597" cx="8.659" cy="23.11" class="cls-2" data-name="Ellipse 597" rx="8.659" ry="23.11" transform="translate(.219 .22)"/>
                    <path id="Path_3252" d="M974.765 535.449c-4.9 0-8.878-10.465-8.878-23.329s3.983-23.329 8.878-23.329 8.878 10.466 8.878 23.329-3.982 23.329-8.878 23.329zm0-46.219c-4.653 0-8.439 10.269-8.439 22.89s3.786 22.89 8.439 22.89 8.439-10.268 8.439-22.89-3.785-22.891-8.439-22.891z" class="cls-3" data-name="Path 3252" transform="translate(-965.887 -488.79)"/>
                </g>
                <g id="Group_8630" data-name="Group 8630" transform="translate(4.656)">
                    <ellipse id="Ellipse_598" cx="8.659" cy="23.11" class="cls-2" data-name="Ellipse 598" rx="8.659" ry="23.11" transform="translate(.219 .22)"/>
                    <path id="Path_3253" d="M978.3 535.449c-4.9 0-8.878-10.465-8.878-23.329s3.978-23.33 8.878-23.33 8.878 10.466 8.878 23.329-3.983 23.33-8.878 23.33zm0-46.219c-4.653 0-8.439 10.269-8.439 22.89s3.786 22.89 8.439 22.89 8.439-10.268 8.439-22.89-3.786-22.891-8.439-22.891z" class="cls-3" data-name="Path 3253" transform="translate(-969.421 -488.79)"/>
                </g>
                <g id="Group_8631" data-name="Group 8631" transform="translate(6.208)">
                    <ellipse id="Ellipse_599" cx="8.659" cy="23.11" class="cls-1" data-name="Ellipse 599" rx="8.659" ry="23.11" transform="translate(.219 .22)"/>
                    <path id="Path_3254" d="M981.833 535.449c-4.9 0-8.878-10.465-8.878-23.329s3.982-23.329 8.878-23.329 8.879 10.466 8.879 23.329-3.983 23.329-8.879 23.329zm0-46.219c-4.653 0-8.439 10.269-8.439 22.89s3.786 22.89 8.439 22.89 8.439-10.268 8.439-22.89-3.785-22.891-8.439-22.891z" class="cls-7" data-name="Path 3254" transform="translate(-972.955 -488.79)"/>
                </g>
            </g>
            <g id="Group_8634" data-name="Group 8634" transform="translate(6.427 .264)">
                <g id="Group_8633" data-name="Group 8633">
                    <ellipse id="Ellipse_600" cx="8.659" cy="23.11" class="cls-9" data-name="Ellipse 600" rx="8.659" ry="23.11"/>
                </g>
            </g>
            <g id="Group_8641" data-name="Group 8641" transform="translate(6.192)">
                <g id="Group_8639" data-name="Group 8639" transform="translate(.434)">
                    <ellipse id="Ellipse_601" cx="8.559" cy="23.242" class="cls-1" data-name="Ellipse 601" rx="8.559" ry="23.242"/>
                    <g id="Group_8638" class="cls-12" data-name="Group 8638">
                        <g id="Group_8637" data-name="Group 8637" transform="translate(-.932)">
                            <g id="Group_8635" data-name="Group 8635" transform="translate(.868 .869)">
                                <path id="Path_3255" d="M981.453 535.413c-1.868 0-3.777-2.274-5.237-6.24a54.278 54.278 0 0 1 0-32.268c1.461-3.965 3.369-6.239 5.237-6.239s3.778 2.274 5.238 6.239a54.268 54.268 0 0 1 0 32.268c-1.46 3.966-3.37 6.24-5.238 6.24z" class="cls-1" data-name="Path 3255" transform="translate(-973.762 -490.666)"/>
                            </g>
                            <g id="Group_8636" data-name="Group 8636">
                                <path id="Path_3256" d="M980.344 490.424c1.44 0 3.135 2.173 4.423 5.671a53.43 53.43 0 0 1 0 31.669c-1.288 3.5-2.983 5.671-4.423 5.671s-3.135-2.173-4.423-5.671a53.437 53.437 0 0 1 0-31.669c1.288-3.5 2.983-5.671 4.423-5.671m0-1.736c-4.727 0-8.56 10.406-8.56 23.242s3.832 23.242 8.56 23.242 8.559-10.406 8.559-23.242-3.832-23.242-8.559-23.242z" class="cls-5" data-name="Path 3256" transform="translate(-971.785 -488.688)"/>
                            </g>
                        </g>
                    </g>
                </g>
                <g id="Group_8640" data-name="Group 8640">
                    <path id="Path_3257" d="M981.827 490.464c2.978 0 7.132 8.212 7.132 21.586s-4.154 21.586-7.132 21.586-7.132-8.212-7.132-21.586 4.154-21.586 7.132-21.586m0-1.776c-4.92 0-8.908 10.46-8.908 23.362s3.988 23.362 8.908 23.362 8.908-10.46 8.908-23.362-3.988-23.362-8.908-23.362z" class="cls-6" data-name="Path 3257" transform="translate(-972.919 -488.688)"/>
                </g>
            </g>
            <g id="Group_8642" data-name="Group 8642" transform="translate(8.879 .045)">
                <path id="Rectangle_1521" d="M0 0h6.339v.439H0z" class="cls-3" data-name="Rectangle 1521"/>
            </g>
        </g>
        <g id="Group_8644" data-name="Group 8644" transform="translate(8.879 46.297)">
            <path id="Rectangle_1522" d="M0 0h6.339v.439H0z" class="cls-3" data-name="Rectangle 1522"/>
        </g>
    </g>
    <g id="Group_8663" data-name="Group 8663" transform="translate(29.958 69.939)">
        <g id="Group_8646" data-name="Group 8646" transform="translate(0 .025)">
            <ellipse id="Ellipse_603" cx="12.071" cy="25.598" class="cls-2" data-name="Ellipse 603" rx="12.071" ry="25.598" transform="translate(.22 .219)"/>
            <path id="Path_3258" d="M909.741 598.189c-6.777 0-12.29-11.582-12.29-25.818s5.513-25.818 12.29-25.818 12.29 11.582 12.29 25.818-5.513 25.818-12.29 25.818zm0-51.2c-6.535 0-11.851 11.385-11.851 25.379s5.317 25.379 11.851 25.379 11.851-11.385 11.851-25.379-5.316-25.376-11.851-25.376z" class="cls-3" data-name="Path 3258" transform="translate(-897.451 -546.553)"/>
        </g>
        <g id="Group_8647" data-name="Group 8647" transform="translate(1.771 .025)">
            <ellipse id="Ellipse_604" cx="12.071" cy="25.598" class="cls-2" data-name="Ellipse 604" rx="12.071" ry="25.598" transform="translate(.22 .219)"/>
            <path id="Path_3259" d="M913.775 598.189c-6.777 0-12.29-11.582-12.29-25.818s5.514-25.818 12.29-25.818 12.29 11.582 12.29 25.818-5.513 25.818-12.29 25.818zm0-51.2c-6.535 0-11.851 11.385-11.851 25.379s5.316 25.379 11.851 25.379 11.851-11.385 11.851-25.379-5.316-25.376-11.851-25.376z" class="cls-3" data-name="Path 3259" transform="translate(-901.485 -546.553)"/>
        </g>
        <g id="Group_8648" data-name="Group 8648" transform="translate(3.543 .025)">
            <ellipse id="Ellipse_605" cx="12.071" cy="25.598" class="cls-2" data-name="Ellipse 605" rx="12.071" ry="25.598" transform="translate(.22 .219)"/>
            <path id="Path_3260" d="M917.809 598.189c-6.777 0-12.29-11.582-12.29-25.818s5.513-25.818 12.29-25.818 12.29 11.582 12.29 25.818-5.513 25.818-12.29 25.818zm0-51.2c-6.535 0-11.851 11.385-11.851 25.379s5.316 25.379 11.851 25.379 11.851-11.385 11.851-25.379-5.316-25.376-11.851-25.376z" class="cls-3" data-name="Path 3260" transform="translate(-905.519 -546.553)"/>
        </g>
        <g id="Group_8649" data-name="Group 8649" transform="translate(5.314 .025)">
            <ellipse id="Ellipse_606" cx="12.071" cy="25.598" class="cls-2" data-name="Ellipse 606" rx="12.071" ry="25.598" transform="translate(.22 .219)"/>
            <path id="Path_3261" d="M921.843 598.189c-6.777 0-12.29-11.582-12.29-25.818s5.513-25.818 12.29-25.818 12.29 11.582 12.29 25.818-5.513 25.818-12.29 25.818zm0-51.2c-6.535 0-11.851 11.385-11.851 25.379s5.316 25.379 11.851 25.379 11.851-11.385 11.851-25.379-5.316-25.376-11.851-25.376z" class="cls-3" data-name="Path 3261" transform="translate(-909.553 -546.553)"/>
        </g>
        <g id="Group_8653" data-name="Group 8653" transform="translate(7.086 .025)">
            <g id="Group_8652" data-name="Group 8652">
                <g id="Group_8650" data-name="Group 8650">
                    <ellipse id="Ellipse_607" cx="12.071" cy="25.598" class="cls-1" data-name="Ellipse 607" rx="12.071" ry="25.598" transform="translate(.22 .219)"/>
                    <path id="Path_3262" d="M925.877 598.189c-6.777 0-12.29-11.582-12.29-25.818s5.514-25.818 12.29-25.818 12.29 11.582 12.29 25.818-5.513 25.818-12.29 25.818zm0-51.2c-6.535 0-11.851 11.385-11.851 25.379s5.316 25.379 11.851 25.379 11.851-11.385 11.851-25.379-5.316-25.376-11.851-25.376z" class="cls-13" data-name="Path 3262" transform="translate(-913.587 -546.553)"/>
                </g>
                <g id="Group_8651" data-name="Group 8651">
                    <ellipse id="Ellipse_608" cx="12.071" cy="25.598" class="cls-1" data-name="Ellipse 608" rx="12.071" ry="25.598" transform="translate(.22 .219)"/>
                    <path id="Path_3263" d="M925.877 598.189c-6.777 0-12.29-11.582-12.29-25.818s5.514-25.818 12.29-25.818 12.29 11.582 12.29 25.818-5.513 25.818-12.29 25.818zm0-51.2c-6.535 0-11.851 11.385-11.851 25.379s5.316 25.379 11.851 25.379 11.851-11.385 11.851-25.379-5.316-25.376-11.851-25.376z" class="cls-7" data-name="Path 3263" transform="translate(-913.587 -546.553)"/>
                </g>
            </g>
        </g>
        <g id="Group_8661" data-name="Group 8661" transform="translate(7.091)">
            <g id="Group_8654" data-name="Group 8654" transform="translate(5.08 .03)">
                <path id="Line_75" d="M0 0h7.209" class="cls-2" data-name="Line 75" transform="translate(0 .222)"/>
                <path id="Rectangle_1523" d="M0 0h7.209v.444H0z" class="cls-3" data-name="Rectangle 1523"/>
            </g>
            <g id="Group_8659" data-name="Group 8659" transform="translate(0 .245)">
                <ellipse id="Ellipse_609" cx="12.288" cy="25.706" class="cls-1" data-name="Ellipse 609" rx="12.288" ry="25.706"/>
                <g id="Group_8658" class="cls-14" data-name="Group 8658">
                    <g id="Group_8657" data-name="Group 8657" transform="translate(-1.339)">
                        <g id="Group_8655" data-name="Group 8655" transform="translate(1.094 1.094)">
                            <path id="Path_3264" d="M924.236 598.771c-6.068 0-11.194-11.271-11.194-24.613s5.126-24.612 11.194-24.612 11.194 11.271 11.194 24.612-5.13 24.613-11.194 24.613z" class="cls-1" data-name="Path 3264" transform="translate(-913.042 -549.546)"/>
                        </g>
                        <g id="Group_8656" data-name="Group 8656">
                            <path id="Path_3265" d="M922.839 549.243c4.778 0 10.1 9.659 10.1 23.518s-5.323 23.519-10.1 23.519-10.1-9.659-10.1-23.519 5.323-23.518 10.1-23.518m0-2.188c-6.787 0-12.289 11.509-12.289 25.706s5.5 25.707 12.289 25.707 12.288-11.509 12.288-25.707-5.5-25.706-12.288-25.706z" class="cls-5" data-name="Path 3265" transform="translate(-910.55 -547.055)"/>
                        </g>
                    </g>
                </g>
            </g>
            <g id="Group_8660" data-name="Group 8660">
                <path id="Path_3266" d="M925.887 548.69c4.775 0 10.1 9.707 10.1 23.636s-5.32 23.635-10.1 23.635-10.1-9.707-10.1-23.635 5.32-23.636 10.1-23.636m0-2.193c-6.787 0-12.288 11.564-12.288 25.829s5.5 25.829 12.288 25.829 12.289-11.564 12.289-25.829-5.5-25.829-12.289-25.829z" class="cls-6" data-name="Path 3266" transform="translate(-913.599 -546.497)"/>
            </g>
        </g>
        <g id="Group_8662" data-name="Group 8662" transform="translate(12.171 51.218)">
            <path id="Line_76" d="M0 0h7.209" class="cls-2" data-name="Line 76" transform="translate(0 .222)"/>
            <path id="Rectangle_1524" d="M0 0h7.209v.444H0z" class="cls-3" data-name="Rectangle 1524"/>
        </g>
    </g>
    <g id="Group_8683" data-name="Group 8683">
        <g id="Group_8664" data-name="Group 8664" transform="translate(17.184 72.375)">
            <path id="Rectangle_1525" d="M0 0h10.124v.439H0z" class="cls-15" data-name="Rectangle 1525"/>
        </g>
        <g id="Group_8682" data-name="Group 8682">
            <g id="Group_8665" data-name="Group 8665">
                <ellipse id="Ellipse_611" cx="17.258" cy="36.133" class="cls-2" data-name="Ellipse 611" rx="17.258" ry="36.133" transform="translate(.329 .329)"/>
                <path id="Path_3267" d="M846.818 460.153c-9.7 0-17.588-16.357-17.588-36.462s7.89-36.462 17.588-36.462 17.588 16.357 17.588 36.462-7.89 36.462-17.588 36.462zm0-72.265c-9.335 0-16.929 16.061-16.929 35.8s7.594 35.8 16.929 35.8 16.929-16.061 16.929-35.8-7.595-35.8-16.929-35.8z" class="cls-3" data-name="Path 3267" transform="translate(-829.23 -387.229)"/>
            </g>
            <g id="Group_8666" data-name="Group 8666" transform="translate(2.43)">
                <ellipse id="Ellipse_612" cx="17.258" cy="36.133" class="cls-2" data-name="Ellipse 612" rx="17.258" ry="36.133" transform="translate(.329 .329)"/>
                <path id="Path_3268" d="M852.352 460.153c-9.7 0-17.588-16.357-17.588-36.462s7.89-36.462 17.588-36.462 17.588 16.357 17.588 36.462-7.89 36.462-17.588 36.462zm0-72.265c-9.334 0-16.929 16.061-16.929 35.8s7.595 35.8 16.929 35.8 16.929-16.061 16.929-35.8-7.595-35.8-16.929-35.8z" class="cls-3" data-name="Path 3268" transform="translate(-834.764 -387.229)"/>
            </g>
            <g id="Group_8667" data-name="Group 8667" transform="translate(4.86)">
                <ellipse id="Ellipse_613" cx="17.258" cy="36.133" class="cls-2" data-name="Ellipse 613" rx="17.258" ry="36.133" transform="translate(.329 .329)"/>
                <path id="Path_3269" d="M857.886 460.153c-9.7 0-17.588-16.357-17.588-36.462s7.89-36.462 17.588-36.462 17.588 16.357 17.588 36.462-7.89 36.462-17.588 36.462zm0-72.265c-9.335 0-16.929 16.061-16.929 35.8s7.595 35.8 16.929 35.8 16.929-16.061 16.929-35.8-7.594-35.8-16.929-35.8z" class="cls-3" data-name="Path 3269" transform="translate(-840.298 -387.229)"/>
            </g>
            <g id="Group_8668" data-name="Group 8668" transform="translate(7.291)">
                <ellipse id="Ellipse_614" cx="17.258" cy="36.133" class="cls-2" data-name="Ellipse 614" rx="17.258" ry="36.133" transform="translate(.329 .329)"/>
                <path id="Path_3270" d="M863.42 460.153c-9.7 0-17.587-16.357-17.587-36.462s7.89-36.462 17.587-36.462 17.588 16.357 17.588 36.462-7.889 36.462-17.588 36.462zm0-72.265c-9.334 0-16.929 16.061-16.929 35.8s7.594 35.8 16.929 35.8 16.929-16.061 16.929-35.8-7.594-35.8-16.929-35.8z" class="cls-3" data-name="Path 3270" transform="translate(-845.833 -387.229)"/>
            </g>
            <g id="Group_8672" data-name="Group 8672" transform="translate(9.721)">
                <g id="Group_8671" data-name="Group 8671">
                    <g id="Group_8669" data-name="Group 8669">
                        <ellipse id="Ellipse_615" cx="17.258" cy="36.133" class="cls-1" data-name="Ellipse 615" rx="17.258" ry="36.133" transform="translate(.329 .329)"/>
                        <path id="Path_3271" d="M868.954 460.153c-9.7 0-17.588-16.357-17.588-36.462s7.89-36.462 17.588-36.462 17.588 16.357 17.588 36.462-7.89 36.462-17.588 36.462zm0-72.265c-9.335 0-16.929 16.061-16.929 35.8s7.595 35.8 16.929 35.8 16.929-16.061 16.929-35.8-7.595-35.8-16.929-35.8z" class="cls-7" data-name="Path 3271" transform="translate(-851.366 -387.229)"/>
                    </g>
                    <g id="Group_8670" data-name="Group 8670">
                        <path id="Path_3272" d="M868.954 460.153c-9.7 0-17.588-16.357-17.588-36.462s7.89-36.462 17.588-36.462 17.588 16.357 17.588 36.462-7.89 36.462-17.588 36.462zm0-72.265c-9.335 0-16.929 16.061-16.929 35.8s7.595 35.8 16.929 35.8 16.929-16.061 16.929-35.8-7.595-35.8-16.929-35.8z" class="cls-16" data-name="Path 3272" transform="translate(-851.366 -387.229)"/>
                    </g>
                </g>
            </g>
            <g id="Group_8681" data-name="Group 8681" transform="translate(10.05 .01)">
                <g id="Group_8673" data-name="Group 8673" transform="translate(7.134)">
                    <path id="Line_77" d="M0 0h10.124" class="cls-2" data-name="Line 77" transform="translate(0 .329)"/>
                    <path id="Rectangle_1526" d="M0 0h10.124v.659H0z" class="cls-3" data-name="Rectangle 1526"/>
                </g>
                <g id="Group_8674" data-name="Group 8674" transform="translate(7.134 72.255)">
                    <path id="Line_78" d="M0 0h10.124" class="cls-2" data-name="Line 78" transform="translate(0 .329)"/>
                    <path id="Rectangle_1527" d="M0 0h10.124v.659H0z" class="cls-3" data-name="Rectangle 1527"/>
                </g>
                <g id="Group_8679" data-name="Group 8679" transform="translate(0 .319)">
                    <ellipse id="Ellipse_616" cx="17.258" cy="36.133" class="cls-1" data-name="Ellipse 616" rx="17.258" ry="36.133"/>
                    <g id="Group_8678" class="cls-17" data-name="Group 8678">
                        <g id="Group_8677" data-name="Group 8677" transform="translate(-1.88)">
                            <g id="Group_8675" data-name="Group 8675" transform="translate(1.537 1.537)">
                                <ellipse id="Ellipse_617" cx="15.722" cy="34.596" class="cls-1" data-name="Ellipse 617" rx="15.722" ry="34.596"/>
                            </g>
                            <g id="Group_8676" data-name="Group 8676">
                                <path id="Path_3273" d="M865.094 391.052c6.709 0 14.185 13.577 14.185 33.059s-7.476 33.059-14.185 33.059-14.185-13.576-14.185-33.059 7.476-33.059 14.185-33.059m0-3.074c-9.532 0-17.259 16.177-17.259 36.133s7.727 36.133 17.259 36.133 17.258-16.177 17.258-36.133-7.727-36.133-17.258-36.133z" class="cls-5" data-name="Path 3273" transform="translate(-847.835 -387.978)"/>
                            </g>
                        </g>
                    </g>
                </g>
                <g id="Group_8680" data-name="Group 8680" transform="translate(0 .319)">
                    <path id="Path_3274" d="M869.375 391.052c6.709 0 14.185 13.577 14.185 33.059s-7.476 33.059-14.185 33.059-14.185-13.576-14.185-33.059 7.476-33.059 14.185-33.059m0-3.074c-9.532 0-17.258 16.177-17.258 36.133s7.727 36.133 17.258 36.133 17.259-16.177 17.259-36.133-7.727-36.133-17.259-36.133z" class="cls-6" data-name="Path 3274" transform="translate(-852.116 -387.978)"/>
                </g>
            </g>
        </g>
    </g>
    <g id="Group_8684" data-name="Group 8684" transform="translate(91.287 71.755)">
        <path id="Path_3275" d="M1043.917 565.7a4.739 4.739 0 0 0-.3-1.182 6.471 6.471 0 0 0-.864-1.549c-.321-.41-.658-.826-1.021-1.242q.011-.874.01-1.886v-.65c.018 0 .035.014.052.018a.515.515 0 0 0 .126 0H1043.006a.349.349 0 0 0 .3-.178 1.094 1.094 0 0 0 .14-.539 3.127 3.127 0 0 0-.082-.759 4.592 4.592 0 0 0-.266-.838 5.627 5.627 0 0 0-.64-1.184 25.233 25.233 0 0 0-.713-.95v-1.223a7.965 7.965 0 0 0-.112-1.292 4.179 4.179 0 0 0-.2-.783 2.694 2.694 0 0 0-.275-.563.612.612 0 0 0-.306-.265.177.177 0 0 0-.083 0 .2.2 0 0 0-.036 0 .2.2 0 0 0-.036 0 .2.2 0 0 0-.036 0 .2.2 0 0 0-.036 0 .2.2 0 0 0-.036 0 .2.2 0 0 0-.036 0 .2.2 0 0 0-.036 0 .2.2 0 0 0-.036 0 .2.2 0 0 0-.037 0 .191.191 0 0 0-.035 0 .2.2 0 0 0-.036 0 .2.2 0 0 0-.036 0 .2.2 0 0 0-.036 0 .2.2 0 0 0-.036 0 .2.2 0 0 0-.036 0 .2.2 0 0 0-.036 0 .2.2 0 0 0-.036 0 .2.2 0 0 0-.036 0 .2.2 0 0 0-.036 0 .2.2 0 0 0-.036 0 .2.2 0 0 0-.036 0 .2.2 0 0 0-.036 0 .2.2 0 0 0-.036 0 .2.2 0 0 0-.036 0 .2.2 0 0 0-.036 0 .2.2 0 0 0-.036 0 .2.2 0 0 0-.036 0 .2.2 0 0 0-.036 0 .2.2 0 0 0-.036 0 .193.193 0 0 0-.036 0c-.087 0-.166.055-.235.187a1.531 1.531 0 0 0-.165.511 6.025 6.025 0 0 0-.074.712q-.018.389-.019.8v.716h-.22a.981.981 0 0 0-.688.241 2.78 2.78 0 0 0-.764 1.194 7.368 7.368 0 0 0-.392 2.026 9.3 9.3 0 0 0 .2 2.545 8.584 8.584 0 0 0 .812 2.341 14.3 14.3 0 0 0 1.039 1.586q0 1.008-.007 2.172v.324a.456.456 0 0 0-.116-.068.481.481 0 0 0-.158-.028.354.354 0 0 0-.036 0h-.037a.354.354 0 0 0-.036 0 .352.352 0 0 0-.036 0 .357.357 0 0 0-.036 0 .35.35 0 0 0-.036 0 .357.357 0 0 0-.036 0 .354.354 0 0 0-.036 0 .357.357 0 0 0-.036 0 .354.354 0 0 0-.036 0 .352.352 0 0 0-.036 0 .354.354 0 0 0-.036 0 .354.354 0 0 0-.036 0 .354.354 0 0 0-.036 0 .354.354 0 0 0-.036 0 .364.364 0 0 0-.036 0 .354.354 0 0 0-.036 0 .354.354 0 0 0-.036 0 .354.354 0 0 0-.036 0 .352.352 0 0 0-.036 0 .357.357 0 0 0-.036 0 .354.354 0 0 0-.036 0 .354.354 0 0 0-.036 0 .354.354 0 0 0-.036 0 .354.354 0 0 0-.036 0 .352.352 0 0 0-.036 0 .354.354 0 0 0-.036 0 .354.354 0 0 0-.036 0 .357.357 0 0 0-.036 0h-.023a.331.331 0 0 0-.339.164 1.89 1.89 0 0 0-.262.708 4.61 4.61 0 0 0-.071 1.013 5.205 5.205 0 0 0 .129 1.025 7.354 7.354 0 0 0 .831 1.775 2.292 2.292 0 0 0 1.034.891c0 .441 0 .923-.007 1.441a3.728 3.728 0 0 0 .181 1.294q.138.379.338.419h1.117a.434.434 0 0 0 .394-.158 1.7 1.7 0 0 0 .343-.556 2.655 2.655 0 0 0 .187-.8c.024-.274.035-.58.03-.915s-.007-.63-.007-.879a5.818 5.818 0 0 0 .9-.789 5.518 5.518 0 0 0 .8-1.125 3.834 3.834 0 0 0 .389-1.068 7.361 7.361 0 0 0 .169-1.3 7.631 7.631 0 0 0-.073-1.334z" class="cls-7" data-name="Path 3275" transform="translate(-1037.112 -550.632)"/>
    </g>
    <g id="Group_8685" data-name="Group 8685" transform="translate(92.44 71.754)">
        <path id="Path_3276" d="M1043.471 568.036a1.687 1.687 0 0 0 .471-.7 1.5 1.5 0 0 0 .048-.714 2.238 2.238 0 0 0-.262-.716 4.973 4.973 0 0 0-.484-.714v1.517q0 .824-.005 1.519l.118-.1c.037-.031.072-.055.114-.092zm-2.353-10.349c.008.183.02.348.037.494a2.555 2.555 0 0 0 .1.462 5.63 5.63 0 0 0 .2.545c.086.2.2.451.351.741v-2.848c-.214-.117-.371-.1-.474.064a1.625 1.625 0 0 0-.214.543zm-1.2 11.119a5.234 5.234 0 0 1-.129-1.025 4.634 4.634 0 0 1 .071-1.013 1.891 1.891 0 0 1 .262-.708.335.335 0 0 1 .447-.135.49.49 0 0 1 .266.234 4.021 4.021 0 0 1 .23.435l.217.484a3.164 3.164 0 0 0 .217.415c.042.058.091.122.149.191a1.985 1.985 0 0 0 .149.158q0-1.009.007-2.173t.007-2.172a14.253 14.253 0 0 1-1.038-1.587 8.563 8.563 0 0 1-.812-2.341 9.3 9.3 0 0 1-.2-2.545 7.38 7.38 0 0 1 .392-2.026 2.781 2.781 0 0 1 .764-1.194.92.92 0 0 1 .909-.195v-.762q0-.416.019-.8a6.023 6.023 0 0 1 .074-.712 1.509 1.509 0 0 1 .166-.51c.081-.155.175-.215.281-.183a.613.613 0 0 1 .306.265 2.7 2.7 0 0 1 .275.563 4.286 4.286 0 0 1 .2.783 8.136 8.136 0 0 1 .112 1.292v1.223q.343.433.713.95a5.554 5.554 0 0 1 .64 1.184 4.6 4.6 0 0 1 .266.838 3.15 3.15 0 0 1 .082.759 1.09 1.09 0 0 1-.14.539.364.364 0 0 1-.4.173.659.659 0 0 1-.308-.155 1.949 1.949 0 0 1-.29-.314q-.141-.19-.283-.395a7.302 7.302 0 0 0-.29-.394v1.89q0 1.011-.01 1.886.545.624 1.021 1.242a6.334 6.334 0 0 1 .864 1.549 4.722 4.722 0 0 1 .3 1.182 7.63 7.63 0 0 1 .061 1.337 7.3 7.3 0 0 1-.169 1.3 3.816 3.816 0 0 1-.389 1.068 5.4 5.4 0 0 1-.795 1.125 5.629 5.629 0 0 1-.9.789c0 .249 0 .542.008.879a9.016 9.016 0 0 1-.03.915 2.645 2.645 0 0 1-.187.8 1.681 1.681 0 0 1-.344.556.436.436 0 0 1-.394.158q-.2-.041-.338-.419a3.725 3.725 0 0 1-.181-1.294c0-.519.007-1 .007-1.441a2.294 2.294 0 0 1-1.034-.891 7.351 7.351 0 0 1-.825-1.777z" class="cls-3" data-name="Path 3276" transform="translate(-1039.738 -550.629)"/>
    </g>
    <g id="Group_8686" data-name="Group 8686" transform="translate(77.459 98.481)">
        <path id="Path_3277" d="M1012.428 626.565a4.739 4.739 0 0 0-.3-1.182 6.5 6.5 0 0 0-.864-1.549c-.321-.41-.659-.826-1.021-1.242q.011-.874.01-1.886v-.65c.017 0 .035.015.052.018a.521.521 0 0 0 .126 0H1011.517a.35.35 0 0 0 .3-.178 1.1 1.1 0 0 0 .139-.539 3.13 3.13 0 0 0-.082-.759 4.6 4.6 0 0 0-.266-.838 5.616 5.616 0 0 0-.64-1.184 24.467 24.467 0 0 0-.712-.95v-1.224a8.048 8.048 0 0 0-.112-1.292 4.208 4.208 0 0 0-.2-.784 2.664 2.664 0 0 0-.275-.563.612.612 0 0 0-.306-.265.173.173 0 0 0-.083 0 .152.152 0 0 0-.036 0 .149.149 0 0 0-.036 0 .148.148 0 0 0-.036 0 .148.148 0 0 0-.036 0 .148.148 0 0 0-.036 0 .148.148 0 0 0-.036 0 .148.148 0 0 0-.036 0 .148.148 0 0 0-.036 0 .148.148 0 0 0-.036 0 .148.148 0 0 0-.036 0 .149.149 0 0 0-.036 0 .147.147 0 0 0-.036 0 .148.148 0 0 0-.036 0 .149.149 0 0 0-.036 0 .148.148 0 0 0-.036 0 .152.152 0 0 0-.036 0 .147.147 0 0 0-.036 0 .15.15 0 0 0-.036 0 .147.147 0 0 0-.036 0 .148.148 0 0 0-.036 0 .149.149 0 0 0-.036 0 .148.148 0 0 0-.036 0 .147.147 0 0 0-.036 0 .148.148 0 0 0-.036 0 .149.149 0 0 0-.036 0 .148.148 0 0 0-.036 0 .148.148 0 0 0-.036 0 .148.148 0 0 0-.036 0 .148.148 0 0 0-.036 0 .169.169 0 0 0-.036 0c-.087 0-.166.055-.235.187a1.522 1.522 0 0 0-.166.511 6.088 6.088 0 0 0-.074.712q-.018.389-.018.8v.716h-.22a.982.982 0 0 0-.688.241 2.782 2.782 0 0 0-.764 1.194 7.4 7.4 0 0 0-.392 2.026 9.293 9.293 0 0 0 .2 2.545 8.551 8.551 0 0 0 .812 2.341 14.25 14.25 0 0 0 1.038 1.587q0 1.008-.007 2.172v.324a.464.464 0 0 0-.116-.068.478.478 0 0 0-.158-.028.3.3 0 0 0-.036 0 .3.3 0 0 0-.036 0 .3.3 0 0 0-.036 0 .3.3 0 0 0-.036 0 .293.293 0 0 0-.036 0 .3.3 0 0 0-.036 0 .3.3 0 0 0-.036 0 .287.287 0 0 0-.036 0 .3.3 0 0 0-.036 0 .3.3 0 0 0-.036 0 .3.3 0 0 0-.036 0 .3.3 0 0 0-.036 0 .3.3 0 0 0-.036 0 .3.3 0 0 0-.036 0 .3.3 0 0 0-.036 0 .294.294 0 0 0-.036 0 .3.3 0 0 0-.036 0 .3.3 0 0 0-.036 0 .3.3 0 0 0-.036 0 .294.294 0 0 0-.036 0 .3.3 0 0 0-.036 0 .3.3 0 0 0-.036 0 .3.3 0 0 0-.037 0 .293.293 0 0 0-.036 0 .3.3 0 0 0-.036 0 .3.3 0 0 0-.036 0 .3.3 0 0 0-.036 0 .3.3 0 0 0-.036 0 .3.3 0 0 0-.036 0h-.023a.33.33 0 0 0-.338.164 1.883 1.883 0 0 0-.262.708 4.584 4.584 0 0 0-.071 1.013 5.158 5.158 0 0 0 .129 1.025 7.331 7.331 0 0 0 .831 1.774 2.3 2.3 0 0 0 1.034.891c0 .441 0 .923-.007 1.441a3.757 3.757 0 0 0 .181 1.294q.138.379.338.419H1009.295a.433.433 0 0 0 .394-.158 1.688 1.688 0 0 0 .344-.556 2.67 2.67 0 0 0 .187-.8c.024-.274.035-.58.03-.915s-.007-.63-.008-.879a5.778 5.778 0 0 0 .9-.789 5.5 5.5 0 0 0 .795-1.125 3.808 3.808 0 0 0 .389-1.068 7.289 7.289 0 0 0 .169-1.3 7.588 7.588 0 0 0-.067-1.332z" class="cls-7" data-name="Path 3277" transform="translate(-1005.622 -611.495)"/>
    </g>
    <g id="Group_8687" data-name="Group 8687" transform="translate(78.612 98.48)">
        <path id="Path_3278" d="M1011.981 628.9a1.68 1.68 0 0 0 .471-.7 1.5 1.5 0 0 0 .049-.714 2.24 2.24 0 0 0-.263-.716 4.982 4.982 0 0 0-.484-.714V629.092l.118-.1a1.515 1.515 0 0 0 .109-.092zm-2.353-10.349c.008.183.02.348.037.494a2.561 2.561 0 0 0 .1.462c.05.159.117.342.2.545s.2.45.351.741v-2.848c-.213-.117-.371-.1-.474.064a1.638 1.638 0 0 0-.214.542zm-1.2 11.119a5.174 5.174 0 0 1-.129-1.025 4.585 4.585 0 0 1 .071-1.013 1.88 1.88 0 0 1 .262-.708.335.335 0 0 1 .447-.135.493.493 0 0 1 .267.234 4.007 4.007 0 0 1 .229.435c.075.164.147.324.217.484a3.177 3.177 0 0 0 .217.415c.042.059.091.122.149.191a1.912 1.912 0 0 0 .149.158q0-1.008.007-2.173t.007-2.172a14.25 14.25 0 0 1-1.038-1.587 8.554 8.554 0 0 1-.812-2.341 9.318 9.318 0 0 1-.2-2.545 7.391 7.391 0 0 1 .392-2.025 2.78 2.78 0 0 1 .764-1.194.92.92 0 0 1 .909-.2v-.762q0-.417.018-.8a6.089 6.089 0 0 1 .074-.712 1.522 1.522 0 0 1 .166-.51c.081-.155.175-.215.281-.183a.613.613 0 0 1 .306.265 2.671 2.671 0 0 1 .275.563 4.231 4.231 0 0 1 .2.783 8.126 8.126 0 0 1 .112 1.292v1.223q.343.433.712.95a5.546 5.546 0 0 1 .64 1.184 4.6 4.6 0 0 1 .266.838 3.122 3.122 0 0 1 .082.759 1.09 1.09 0 0 1-.139.539.365.365 0 0 1-.4.173.659.659 0 0 1-.308-.155 1.981 1.981 0 0 1-.29-.314q-.142-.19-.283-.395a7.302 7.302 0 0 0-.29-.394v1.891q0 1.012-.01 1.886.545.624 1.022 1.242a6.37 6.37 0 0 1 .864 1.549 4.735 4.735 0 0 1 .3 1.182 7.62 7.62 0 0 1 .066 1.337 7.326 7.326 0 0 1-.169 1.3 3.811 3.811 0 0 1-.389 1.068 5.369 5.369 0 0 1-.795 1.125 5.63 5.63 0 0 1-.9.789c0 .249 0 .542.008.879a9.019 9.019 0 0 1-.03.915 2.641 2.641 0 0 1-.187.8 1.679 1.679 0 0 1-.344.556.435.435 0 0 1-.394.158q-.2-.041-.337-.419a3.732 3.732 0 0 1-.181-1.294c0-.519.007-1 .007-1.441a2.294 2.294 0 0 1-1.034-.891 7.348 7.348 0 0 1-.831-1.775z" class="cls-3" data-name="Path 3278" transform="translate(-1008.248 -611.492)"/>
    </g>
    <g id="Group_8688" data-name="Group 8688" transform="translate(67.723 51.883)">
        <path id="Path_3279" d="M992.544 525.512a6.331 6.331 0 0 0-.4-1.58 8.672 8.672 0 0 0-1.154-2.07c-.429-.548-.88-1.1-1.365-1.659q.015-1.168.014-2.52v-.869c.023.007.046.019.07.024a.687.687 0 0 0 .169.005H991.324a.466.466 0 0 0 .406-.238 1.467 1.467 0 0 0 .187-.72 4.193 4.193 0 0 0-.109-1.014 6.184 6.184 0 0 0-.356-1.12 7.506 7.506 0 0 0-.855-1.582c-.33-.459-.646-.884-.952-1.27v-1.635a10.711 10.711 0 0 0-.149-1.727 5.607 5.607 0 0 0-.27-1.046 3.559 3.559 0 0 0-.368-.752.814.814 0 0 0-.408-.354.225.225 0 0 0-.11-.005.217.217 0 0 0-.048 0 .216.216 0 0 0-.048 0 .213.213 0 0 0-.048 0 .217.217 0 0 0-.048 0 .212.212 0 0 0-.048 0 .217.217 0 0 0-.048 0 .217.217 0 0 0-.048 0 .213.213 0 0 0-.048 0 .216.216 0 0 0-.048 0 .217.217 0 0 0-.048 0 .214.214 0 0 0-.048 0 .215.215 0 0 0-.048 0 .217.217 0 0 0-.048 0 .213.213 0 0 0-.048 0 .217.217 0 0 0-.048 0 .213.213 0 0 0-.048 0 .217.217 0 0 0-.048 0 .216.216 0 0 0-.048 0 .213.213 0 0 0-.048 0 .216.216 0 0 0-.048 0 .217.217 0 0 0-.048 0 .214.214 0 0 0-.048 0 .215.215 0 0 0-.048 0 .217.217 0 0 0-.048 0 .213.213 0 0 0-.048 0 .217.217 0 0 0-.048 0 .216.216 0 0 0-.048 0 .213.213 0 0 0-.048 0 .217.217 0 0 0-.048 0 .209.209 0 0 0-.047 0c-.116 0-.222.074-.314.249a2.037 2.037 0 0 0-.221.682 8.091 8.091 0 0 0-.1.952q-.024.519-.025 1.075v.957h-.29a1.312 1.312 0 0 0-.92.321 3.718 3.718 0 0 0-1.021 1.6 9.847 9.847 0 0 0-.523 2.706 12.452 12.452 0 0 0 .265 3.4 11.462 11.462 0 0 0 1.085 3.127 19.169 19.169 0 0 0 1.387 2.12q0 1.346-.009 2.9v.433a.59.59 0 0 0-.155-.091.648.648 0 0 0-.211-.037H984.426a.441.441 0 0 0-.451.22 2.508 2.508 0 0 0-.35.945 6.157 6.157 0 0 0-.094 1.353 6.936 6.936 0 0 0 .172 1.37 9.814 9.814 0 0 0 1.11 2.371 3.073 3.073 0 0 0 1.381 1.19q0 .884-.009 1.925a4.989 4.989 0 0 0 .241 1.729q.184.506.451.56c.013 0 .026-.005.039 0h.009c.013 0 .026-.005.039 0h.009c.013 0 .025-.005.039 0h.009c.013 0 .026-.005.039 0h.009c.013 0 .026-.005.039 0h.01c.013 0 .025-.005.039 0h.009c.013 0 .026-.005.039 0h.009c.013 0 .026-.005.039 0h.01c.013 0 .025-.005.039 0h.009c.013 0 .026-.005.039 0h.009c.013 0 .026-.005.039 0h.009c.013 0 .026-.005.039 0h.009c.013 0 .026-.005.039 0h.009c.013 0 .026-.005.039 0h.009c.013 0 .026-.005.039 0h.009c.013 0 .026-.005.039 0h.01c.013 0 .025-.005.039 0h.009c.013 0 .026-.005.039 0h.009c.013 0 .026-.005.039 0h.01c.013 0 .025-.005.039 0h.009c.013 0 .026-.005.039 0h.009c.013 0 .026-.005.039 0h.009c.013 0 .026-.005.039 0h.009c.013 0 .026-.005.039 0h.009c.013 0 .025-.005.039 0h.009c.013 0 .026-.005.039 0h.009c.013 0 .026-.005.039 0h.01c.013 0 .026-.005.039 0h.009c.013 0 .026-.005.039 0h.009c.013 0 .026-.005.039 0h.01c.013 0 .025-.005.039 0h.009a.581.581 0 0 0 .527-.211 2.264 2.264 0 0 0 .458-.742 3.557 3.557 0 0 0 .25-1.067c.032-.367.047-.774.041-1.223s-.01-.841-.01-1.174a7.749 7.749 0 0 0 1.2-1.054 7.331 7.331 0 0 0 1.062-1.5 5.1 5.1 0 0 0 .52-1.426 9.791 9.791 0 0 0 .226-1.739 10.137 10.137 0 0 0-.101-1.789z" class="cls-7" data-name="Path 3279" transform="translate(-983.453 -505.379)"/>
    </g>
    <g id="Group_8689" data-name="Group 8689" transform="translate(69.264 51.882)">
        <path id="Path_3280" d="M991.948 528.631a2.249 2.249 0 0 0 .629-.937 2.008 2.008 0 0 0 .065-.954 3 3 0 0 0-.35-.957 6.687 6.687 0 0 0-.647-.953q0 .926-.006 2.027t-.007 2.03q.084-.074.158-.129c.05-.037.102-.078.158-.127zm-3.148-13.825q.016.367.049.66a3.4 3.4 0 0 0 .131.617 7.743 7.743 0 0 0 .271.729c.115.271.271.6.469.99V514c-.285-.156-.5-.129-.633.085a2.178 2.178 0 0 0-.287.721zm-1.6 14.855a6.956 6.956 0 0 1-.173-1.37 6.189 6.189 0 0 1 .094-1.353 2.514 2.514 0 0 1 .35-.945.448.448 0 0 1 .6-.181.655.655 0 0 1 .355.312 5.151 5.151 0 0 1 .306.581c.1.219.2.434.29.648a4.353 4.353 0 0 0 .29.555c.056.078.122.163.2.254a2.519 2.519 0 0 0 .2.211q0-1.347.009-2.9t.009-2.9a19.119 19.119 0 0 1-1.387-2.12 11.452 11.452 0 0 1-1.085-3.128 12.45 12.45 0 0 1-.266-3.4 9.878 9.878 0 0 1 .523-2.706 3.719 3.719 0 0 1 1.021-1.6 1.23 1.23 0 0 1 1.214-.26v-1.018q0-.556.025-1.075a8.071 8.071 0 0 1 .1-.952 2.04 2.04 0 0 1 .221-.682c.108-.206.234-.286.375-.244a.815.815 0 0 1 .408.354 3.585 3.585 0 0 1 .368.752 5.646 5.646 0 0 1 .27 1.046 10.826 10.826 0 0 1 .149 1.727v1.635q.458.578.951 1.269a7.412 7.412 0 0 1 .855 1.582 6.18 6.18 0 0 1 .355 1.12 4.193 4.193 0 0 1 .11 1.013 1.459 1.459 0 0 1-.187.72.487.487 0 0 1-.534.232.88.88 0 0 1-.411-.208 2.612 2.612 0 0 1-.387-.418q-.189-.254-.378-.527a9.675 9.675 0 0 0-.387-.526v2.525q0 1.35-.014 2.52.728.833 1.365 1.659a8.492 8.492 0 0 1 1.154 2.07 6.336 6.336 0 0 1 .4 1.58 10.207 10.207 0 0 1 .081 1.785 9.738 9.738 0 0 1-.226 1.739 5.07 5.07 0 0 1-.52 1.426 7.178 7.178 0 0 1-1.061 1.5 7.537 7.537 0 0 1-1.2 1.054c0 .333 0 .723.01 1.174a11.929 11.929 0 0 1-.04 1.223 3.545 3.545 0 0 1-.25 1.067 2.259 2.259 0 0 1-.459.743.582.582 0 0 1-.526.211q-.268-.055-.451-.56a4.993 4.993 0 0 1-.242-1.729c.006-.693.009-1.336.009-1.925a3.071 3.071 0 0 1-1.381-1.19 9.823 9.823 0 0 1-1.102-2.37z" class="cls-3" data-name="Path 3280" transform="translate(-986.961 -505.376)"/>
    </g>
    <g id="Group_8690" data-name="Group 8690" transform="translate(43.179 77.578)">
        <path id="Path_3281" d="M941.269 587.581a6.185 6.185 0 0 0-.607-1.858 9.885 9.885 0 0 0-1.74-2.435 50.857 50.857 0 0 0-2.058-1.952q.023-1.373.021-2.964v-1.022c.035.008.069.023.1.028a1.333 1.333 0 0 0 .255.006h2.183a.755.755 0 0 0 .613-.28 1.44 1.44 0 0 0 .281-.847 3.891 3.891 0 0 0-.165-1.193 6.168 6.168 0 0 0-.536-1.317 8.489 8.489 0 0 0-1.289-1.861c-.5-.54-.974-1.04-1.435-1.494v-1.923a9.925 9.925 0 0 0-.225-2.032 5.472 5.472 0 0 0-.408-1.231 3.922 3.922 0 0 0-.555-.884 1.2 1.2 0 0 0-.616-.417.436.436 0 0 0-.167-.006.441.441 0 0 0-.073 0 .434.434 0 0 0-.072 0 .435.435 0 0 0-.072 0 .441.441 0 0 0-.073 0 .434.434 0 0 0-.072 0 .437.437 0 0 0-.073 0 .434.434 0 0 0-.072 0 .441.441 0 0 0-.073 0 .434.434 0 0 0-.072 0 .435.435 0 0 0-.072 0 .44.44 0 0 0-.073 0 .435.435 0 0 0-.072 0 .435.435 0 0 0-.072 0 .442.442 0 0 0-.073 0 .435.435 0 0 0-.072 0 .434.434 0 0 0-.072 0 .441.441 0 0 0-.073 0 .434.434 0 0 0-.072 0 .437.437 0 0 0-.073 0 .439.439 0 0 0-.073 0 .436.436 0 0 0-.073 0 .435.435 0 0 0-.072 0 .439.439 0 0 0-.073 0 .437.437 0 0 0-.073 0 .434.434 0 0 0-.072 0 .435.435 0 0 0-.072 0 .442.442 0 0 0-.073 0 .435.435 0 0 0-.072 0 .435.435 0 0 0-.072 0 .43.43 0 0 0-.072 0 .55.55 0 0 0-.473.293 2.061 2.061 0 0 0-.333.8 7.49 7.49 0 0 0-.148 1.12q-.037.61-.038 1.264v1.126h-.438a2.351 2.351 0 0 0-1.386.379 4.448 4.448 0 0 0-1.539 1.877 9.412 9.412 0 0 0-.789 3.184 11.524 11.524 0 0 0 .4 4 11.655 11.655 0 0 0 1.636 3.68 22.887 22.887 0 0 0 2.091 2.494q0 1.584-.013 3.415v.509a.975.975 0 0 0-.234-.107 1.227 1.227 0 0 0-.318-.043h-2.146a.744.744 0 0 0-.682.259 2.6 2.6 0 0 0-.527 1.112 5.7 5.7 0 0 0-.142 1.593 6.491 6.491 0 0 0 .26 1.612 10.66 10.66 0 0 0 1.674 2.789 4.522 4.522 0 0 0 2.082 1.4q0 1.041-.014 2.265a4.694 4.694 0 0 0 .364 2.034q.277.6.68.659c.02 0 .039-.007.058 0h.014c.02 0 .039-.007.059 0h.014c.005 0 .039-.007.058 0h.014c.02 0 .039-.007.058 0h.014c.02 0 .039-.007.059 0h.014c.02 0 .039-.007.059 0h.014c.02 0 .039-.007.058 0h.014c.02 0 .039-.007.059 0h.014c.019 0 .039-.007.058 0h.014c.02 0 .039-.007.058 0h.014c.02 0 .039-.007.058 0h.014c.02 0 .039-.007.059 0h.014c.02 0 .039-.007.059 0h.014c.02 0 .039-.007.059 0h.014c.019 0 .039-.007.058 0h.014c.019 0 .039-.007.058 0h.014c.02 0 .039-.007.058 0h.014c.02 0 .039-.007.059 0s.009 0 .014 0 .039-.007.058 0h.014c.02 0 .039-.007.058 0h.014c.02 0 .039-.007.059 0h.014c.019 0 .039-.007.058 0h.014c.02 0 .039-.007.058 0h.014c.02 0 .039-.007.058 0h.015c.019 0 .039-.007.059 0h.014c.02 0 .039-.007.058 0h.014c.02 0 .039-.007.058 0h.014c.02 0 .039-.007.059 0h.014c.02 0 .039-.007.058 0h.014c.02 0 .039-.007.058 0h.014c.019 0 .039-.007.058 0s.009 0 .014 0a1.017 1.017 0 0 0 .794-.248 2.675 2.675 0 0 0 .692-.874 3.445 3.445 0 0 0 .377-1.255 11.3 11.3 0 0 0 .061-1.438c-.01-.531-.014-.99-.015-1.382a11.281 11.281 0 0 0 1.806-1.24 9.038 9.038 0 0 0 1.6-1.767 5.253 5.253 0 0 0 .783-1.678 9.139 9.139 0 0 0 .34-2.046 9.408 9.408 0 0 0-.128-2.104z" class="cls-7" data-name="Path 3281" transform="translate(-927.56 -563.893)"/>
    </g>
    <g id="Group_8691" data-name="Group 8691" transform="translate(45.502 77.577)">
        <path id="Path_3282" d="M940.368 591.251a2.7 2.7 0 0 0 .949-1.1 1.859 1.859 0 0 0 .1-1.122 3.076 3.076 0 0 0-.528-1.126 8.072 8.072 0 0 0-.976-1.122q0 1.089-.009 2.385t-.01 2.388c.084-.058.164-.108.238-.152s.152-.093.236-.151zm-4.74-16.267c.016.288.04.547.074.776a3.278 3.278 0 0 0 .2.726 7.953 7.953 0 0 0 .409.857c.173.318.409.708.707 1.165v-4.476c-.43-.184-.747-.152-.954.1a2.284 2.284 0 0 0-.435.852zm-2.428 17.479a6.482 6.482 0 0 1-.26-1.612 5.706 5.706 0 0 1 .142-1.593 2.6 2.6 0 0 1 .527-1.112.782.782 0 0 1 .9-.213.961.961 0 0 1 .536.368 5.822 5.822 0 0 1 .462.683c.15.258.3.51.437.762a4.863 4.863 0 0 0 .437.653c.084.092.184.191.3.3a3.671 3.671 0 0 0 .3.248q0-1.585.014-3.415t.013-3.415a22.851 22.851 0 0 1-2.091-2.494 11.649 11.649 0 0 1-1.636-3.68 11.519 11.519 0 0 1-.4-4 9.427 9.427 0 0 1 .789-3.184 4.453 4.453 0 0 1 1.539-1.877 2.257 2.257 0 0 1 1.83-.306v-1.2q0-.658.038-1.264a7.481 7.481 0 0 1 .148-1.12 2.059 2.059 0 0 1 .333-.8.523.523 0 0 1 .566-.288 1.2 1.2 0 0 1 .616.417 3.908 3.908 0 0 1 .555.884 5.54 5.54 0 0 1 .408 1.231 10.053 10.053 0 0 1 .225 2.032v1.923q.691.68 1.435 1.494a8.38 8.38 0 0 1 1.29 1.861 6.182 6.182 0 0 1 .536 1.317 3.909 3.909 0 0 1 .165 1.193 1.431 1.431 0 0 1-.281.847.825.825 0 0 1-.8.273 1.5 1.5 0 0 1-.62-.245 3.535 3.535 0 0 1-.584-.492q-.285-.3-.571-.62a11.544 11.544 0 0 0-.584-.619v2.971q0 1.588-.021 2.965 1.1.981 2.058 1.952a9.673 9.673 0 0 1 1.74 2.435 6.19 6.19 0 0 1 .607 1.858 9.4 9.4 0 0 1 .122 2.1 9.145 9.145 0 0 1-.341 2.046 5.231 5.231 0 0 1-.783 1.678 8.844 8.844 0 0 1-1.6 1.768 10.954 10.954 0 0 1-1.806 1.24c0 .392 0 .851.015 1.382a11.046 11.046 0 0 1-.061 1.439 3.4 3.4 0 0 1-.377 1.255 2.662 2.662 0 0 1-.691.874 1.019 1.019 0 0 1-.794.248c-.269-.043-.5-.262-.68-.66a4.694 4.694 0 0 1-.365-2.034q.013-1.223.014-2.266a4.521 4.521 0 0 1-2.082-1.4 10.648 10.648 0 0 1-1.669-2.788z" class="cls-3" data-name="Path 3282" transform="translate(-932.85 -563.89)"/>
    </g>
    <g id="Group_8692" data-name="Group 8692" transform="translate(17.758 10.571)">
        <path id="Path_3283" d="M888.484 443.814a8.471 8.471 0 0 0-.834-2.55 13.543 13.543 0 0 0-2.387-3.343 73.205 73.205 0 0 0-2.824-2.68q.032-1.885.028-4.069v-1.4c.048.011.1.032.145.039a1.856 1.856 0 0 0 .349.008H885.974a1.035 1.035 0 0 0 .841-.384 1.98 1.98 0 0 0 .386-1.162 5.364 5.364 0 0 0-.227-1.637 8.47 8.47 0 0 0-.736-1.808 11.625 11.625 0 0 0-1.77-2.554 58.017 58.017 0 0 0-1.97-2.05v-2.64a13.584 13.584 0 0 0-.309-2.788 7.517 7.517 0 0 0-.56-1.69 5.371 5.371 0 0 0-.761-1.214 1.644 1.644 0 0 0-.845-.573.6.6 0 0 0-.228-.008.642.642 0 0 0-.1 0 .644.644 0 0 0-.1 0 .644.644 0 0 0-.1 0 .643.643 0 0 0-.1 0 .637.637 0 0 0-.1 0 .649.649 0 0 0-.1 0 .636.636 0 0 0-.1 0 .645.645 0 0 0-.1 0 .643.643 0 0 0-.1 0 .643.643 0 0 0-.1 0 .642.642 0 0 0-.1 0 .644.644 0 0 0-.1 0 .642.642 0 0 0-.1 0 .639.639 0 0 0-.1 0 .643.643 0 0 0-.1 0 .642.642 0 0 0-.1 0 .644.644 0 0 0-.1 0 .642.642 0 0 0-.1 0 .644.644 0 0 0-.1 0 .642.642 0 0 0-.1 0 .643.643 0 0 0-.1 0 .644.644 0 0 0-.1 0 .643.643 0 0 0-.1 0 .644.644 0 0 0-.1 0 .638.638 0 0 0-.1 0 .642.642 0 0 0-.1 0 .642.642 0 0 0-.1 0 .645.645 0 0 0-.1 0 .644.644 0 0 0-.1 0 .63.63 0 0 0-.1 0 .755.755 0 0 0-.649.4 2.822 2.822 0 0 0-.458 1.1 10.282 10.282 0 0 0-.2 1.537q-.051.838-.052 1.735v1.545h-.607a3.218 3.218 0 0 0-1.9.52 6.1 6.1 0 0 0-2.113 2.576 12.911 12.911 0 0 0-1.083 4.37 15.8 15.8 0 0 0 .549 5.49 16 16 0 0 0 2.245 5.051 31.466 31.466 0 0 0 2.87 3.423q0 2.174-.018 4.686v.7a1.32 1.32 0 0 0-.321-.147 1.653 1.653 0 0 0-.437-.06H871.658a1.018 1.018 0 0 0-.935.355 3.573 3.573 0 0 0-.724 1.526 7.822 7.822 0 0 0-.195 2.186 8.89 8.89 0 0 0 .357 2.212 14.628 14.628 0 0 0 2.3 3.828 6.207 6.207 0 0 0 2.858 1.921q0 1.428-.019 3.109a6.445 6.445 0 0 0 .5 2.792q.38.817.934.9c.027 0 .053-.008.08-.007.007 0 .013.006.02.007.027 0 .053-.008.08-.006.007 0 .012.005.019.006.027 0 .053-.008.08-.006.007 0 .012.005.019.006.027 0 .053-.008.08-.006.007 0 .012.005.019.006.027 0 .053-.008.08-.006.007 0 .013.005.019.006.027 0 .054-.008.08-.006.007 0 .013.005.019.006.027 0 .054-.008.08-.006.007 0 .013.005.019.006.027 0 .054-.008.08-.006.007 0 .013.005.019.006.027 0 .054-.008.08-.006.007 0 .013.005.019.006.027 0 .054-.008.08-.006.007 0 .012.005.019.006.027 0 .054-.008.08-.006.007 0 .012.005.019.006.027 0 .053-.008.08-.006.007 0 .012.005.019.006.027 0 .053-.008.08-.006.007 0 .012.005.019.006.027 0 .053-.008.08-.006.007 0 .012.005.019.006.027 0 .053-.008.08-.006.007 0 .013.005.019.006.027 0 .054-.008.08-.006.007 0 .013.005.019.006.027 0 .054-.008.08-.006.007 0 .012.005.019.006.027 0 .054-.008.08-.006.007 0 .012.005.019.006.027 0 .053-.008.08-.006.007 0 .012.005.019.006.027 0 .053-.008.08-.006.007 0 .012.005.019.006.027 0 .053-.008.08-.006.007 0 .012.005.019.006.027 0 .053-.008.08-.006.007 0 .012.005.019.006.027 0 .053-.008.081-.006.007 0 .012.005.019.006.027 0 .054-.008.08-.006.007 0 .013.005.019.006.027 0 .054-.008.08-.006.007 0 .013.005.019.006.027 0 .054-.008.08-.006.007 0 .013.005.019.006.027 0 .054-.008.08-.006.007 0 .013.005.019.006.027 0 .054-.008.08-.006.007 0 .012.005.019.006.027 0 .053-.008.08-.006.007 0 .012.005.019.006.027 0 .053-.008.08-.006.007 0 .012.005.019.006.027 0 .053-.008.08-.006.007 0 .013.005.019.006a1.394 1.394 0 0 0 1.09-.341 3.672 3.672 0 0 0 .949-1.2 4.722 4.722 0 0 0 .517-1.723 15.5 15.5 0 0 0 .084-1.974 109.38 109.38 0 0 1-.021-1.9 15.514 15.514 0 0 0 2.479-1.7 12.4 12.4 0 0 0 2.2-2.426 7.187 7.187 0 0 0 1.075-2.3 12.542 12.542 0 0 0 .468-2.809 12.906 12.906 0 0 0-.162-2.879z" class="cls-7" data-name="Path 3283" transform="translate(-869.668 -411.302)"/>
    </g>
    <g id="Group_8693" data-name="Group 8693" transform="translate(20.946 10.569)">
        <path id="Path_3284" d="M887.248 448.851a3.713 3.713 0 0 0 1.3-1.513 2.555 2.555 0 0 0 .134-1.54 4.223 4.223 0 0 0-.725-1.546 11.1 11.1 0 0 0-1.339-1.539q0 1.5-.012 3.274t-.013 3.278c.115-.079.224-.149.326-.208s.214-.127.329-.206zm-6.5-22.326c.022.394.056.75.1 1.065a4.5 4.5 0 0 0 .271 1 10.953 10.953 0 0 0 .562 1.176c.238.437.562.972.971 1.6v-6.144c-.59-.253-1.026-.209-1.31.138a3.137 3.137 0 0 0-.599 1.165zm-3.328 23.989a8.874 8.874 0 0 1-.357-2.212 7.806 7.806 0 0 1 .2-2.186 3.569 3.569 0 0 1 .724-1.526 1.072 1.072 0 0 1 1.236-.292 1.318 1.318 0 0 1 .736.5 7.984 7.984 0 0 1 .635.938c.205.353.4.7.6 1.046a6.625 6.625 0 0 0 .6.9c.115.126.252.263.412.411a4.866 4.866 0 0 0 .412.34q0-2.175.019-4.687t.018-4.686a31.427 31.427 0 0 1-2.87-3.423 16.017 16.017 0 0 1-2.245-5.051 15.809 15.809 0 0 1-.549-5.49 12.934 12.934 0 0 1 1.083-4.37 6.106 6.106 0 0 1 2.113-2.577 3.1 3.1 0 0 1 2.512-.42v-1.645q0-.901.052-1.735a10.347 10.347 0 0 1 .2-1.537 2.822 2.822 0 0 1 .458-1.1.718.718 0 0 1 .777-.395 1.645 1.645 0 0 1 .845.572 5.4 5.4 0 0 1 .761 1.214 7.63 7.63 0 0 1 .559 1.69 13.766 13.766 0 0 1 .309 2.788v2.64q.949.934 1.969 2.05a11.468 11.468 0 0 1 1.77 2.554 8.463 8.463 0 0 1 .736 1.808 5.346 5.346 0 0 1 .226 1.637 1.966 1.966 0 0 1-.385 1.162 1.133 1.133 0 0 1-1.1.375 2.06 2.06 0 0 1-.851-.336 4.878 4.878 0 0 1-.8-.676q-.392-.411-.783-.852c-.263-.3-.528-.58-.8-.849q0 1.9.006 4.078t-.028 4.069q1.506 1.346 2.824 2.68a13.291 13.291 0 0 1 2.388 3.342 8.483 8.483 0 0 1 .834 2.55 12.9 12.9 0 0 1 .168 2.884 12.569 12.569 0 0 1-.468 2.809 7.186 7.186 0 0 1-1.075 2.3 12.127 12.127 0 0 1-2.2 2.426 15.039 15.039 0 0 1-2.479 1.7c0 .538.007 1.168.021 1.9a15.129 15.129 0 0 1-.084 1.975 4.69 4.69 0 0 1-.517 1.722 3.653 3.653 0 0 1-.949 1.2 1.4 1.4 0 0 1-1.09.34q-.553-.088-.933-.9a6.438 6.438 0 0 1-.5-2.792q.018-1.679.019-3.109a6.2 6.2 0 0 1-2.858-1.921 14.608 14.608 0 0 1-2.306-3.833z" class="cls-3" data-name="Path 3284" transform="translate(-876.929 -411.297)"/>
    </g>
</svg>
