<svg xmlns="http://www.w3.org/2000/svg" width="115.251" height="135" viewBox="0 0 115.251 135">
    <defs>
        <style>
            .cls-1,.cls-15,.cls-29,.cls-3{fill:#fff}.cls-2{fill:#ffda6a}.cls-18,.cls-20,.cls-3,.cls-4,.cls-5{stroke:#000}.cls-19,.cls-29,.cls-3,.cls-4,.cls-5{stroke-miterlimit:10}.cls-3{stroke-width:.501px}.cls-16,.cls-18,.cls-20,.cls-25,.cls-26,.cls-28,.cls-31,.cls-4,.cls-5,.cls-9{fill:none}.cls-18,.cls-4{stroke-width:.25px}.cls-5{stroke-width:.913px}.cls-6{fill:#2c5379}.cls-7{fill:#46698a}.cls-8{clip-path:url(#clip-path)}.cls-9{stroke:#939393;stroke-width:6.642px}.cls-15,.cls-16,.cls-18,.cls-20,.cls-25,.cls-26,.cls-28,.cls-9{stroke-linecap:round;stroke-linejoin:round}.cls-10{fill:#5e5e5e}.cls-11{fill:#44201f}.cls-12{fill:#5e3f3e}.cls-13{clip-path:url(#clip-path-2)}.cls-14{fill:#bdbdbd}.cls-15,.cls-16,.cls-19,.cls-25,.cls-28,.cls-29{stroke:#424242}.cls-15,.cls-16{stroke-width:.415px}.cls-17{fill:#ff7c6b}.cls-19{fill:#c06800}.cls-19,.cls-26{stroke-width:.5px}.cls-20{stroke-width:.333px}.cls-21{fill:#424242}.cls-22{fill:#ffab0e}.cls-23{fill:#a2a2a2}.cls-24{fill:#aaa}.cls-25{stroke-width:.401px}.cls-26{stroke:#ffab0e}.cls-27{clip-path:url(#clip-path-3)}.cls-28{stroke-width:.457px}.cls-29{stroke-width:.594px}.cls-30{stroke:none}
        </style>
        <clipPath id="clip-path">
            <path id="Path_3078" d="M888.179 661.3a9.034 9.034 0 0 1 18.056 0h.009v.173c0 .057.008.113.008.17s-.008.113-.008.171v19.173h-18.083V661.3z" class="cls-1" data-name="Path 3078" transform="translate(-888.161 -652.578)"/>
        </clipPath>
        <clipPath id="clip-path-2">
            <rect id="Rectangle_1503" width="16.982" height="23.48" class="cls-2" data-name="Rectangle 1503" rx="8.491" transform="rotate(180 8.491 11.74)"/>
        </clipPath>
        <clipPath id="clip-path-3">
            <path id="Path_3021" d="M1002.289 759.227a9.974 9.974 0 0 1-9.935-9.954v-2.747a9.974 9.974 0 0 1 9.935-9.954 9.974 9.974 0 0 1 9.935 9.954v2.747a9.974 9.974 0 0 1-9.935 9.954z" class="cls-2" data-name="Path 3021" transform="translate(-992.354 -736.572)"/>
        </clipPath>
    </defs>
    <g id="footer_fans" transform="translate(-505 -3067.441)">
        <g id="Group_8512" data-name="Group 8512" transform="translate(505 3067.441)">
            <g id="文青左手" transform="translate(9.435 30.644)">
                <path id="Path_3069" d="M898.906 659.529v14.4a3.181 3.181 0 0 1-3.178 3.184 3.181 3.181 0 0 1-3.178-3.184v-14.4" class="cls-3" data-name="Path 3069" transform="translate(-892.551 -659.529)"/>
            </g>
            <g id="文青左手2" transform="translate(12.515 41.678)">
                <path id="Path_3070" d="M922.681 673.746h-3.763a3.523 3.523 0 0 0 0 7.046h3.643a7.323 7.323 0 0 1 .993-2.179.832.832 0 0 1 .161-1.344.828.828 0 0 0-.176-.511h2.072a.834.834 0 0 0 0-1.667h-2.854a1.2 1.2 0 0 0 .126-.111.963.963 0 0 0 .282-.7.493.493 0 0 0-.484-.534z" class="cls-2" data-name="Path 3070" transform="translate(-900.78 -673.746)"/>
                <g id="Group_8502" data-name="Group 8502" transform="translate(8.011 1.337)">
                    <path id="Rectangle_1494" d="M0 0h4.372v7.481H0z" class="cls-2" data-name="Rectangle 1494" transform="rotate(-90 2.186 2.186)"/>
                </g>
                <path id="Path_3071" d="M899.615 673.993l10.068.024-.014 6.368-13.143-.031" class="cls-3" data-name="Path 3071" transform="translate(-896.526 -673.801)"/>
                <g id="Group_8503" data-name="Group 8503" transform="translate(18.002 1.345)">
                    <path id="Path_3072" d="M921.6 675.592a.113.113 0 0 1 .113-.113h-.965a.113.113 0 0 0-.113.113 2.018 2.018 0 0 1-.824 1.624.113.113 0 1 0 .133.183 2.246 2.246 0 0 0 .914-1.694h.854a.114.114 0 0 1-.112-.113z" data-name="Path 3072" transform="translate(-919.765 -675.479)"/>
                    <path id="Path_3073" d="M922.62 675.77h.091-.02z" data-name="Path 3073" transform="translate(-920.408 -675.544)"/>
                    <path id="Path_3074" d="M924.377 675.592a.113.113 0 0 0-.113-.113h-2.017a.113.113 0 0 0 0 .227h2.016a.114.114 0 0 0 .114-.114z" data-name="Path 3074" transform="translate(-920.299 -675.479)"/>
                </g>
                <path id="Path_3075" d="M922.881 678.868h1.7a.62.62 0 0 0 .62-.62.62.62 0 0 0-.62-.621h-1.7a.62.62 0 0 0-.62.621.62.62 0 0 0 .62.62z" class="cls-4" data-name="Path 3075" transform="translate(-902.325 -674.615)"/>
                <rect id="Rectangle_1495" width="2.838" height="1.382" class="cls-4" data-name="Rectangle 1495" rx=".691" transform="translate(19.936 4.254)"/>
                <rect id="Rectangle_1496" width="2.675" height="1.298" class="cls-4" data-name="Rectangle 1496" rx=".649" transform="translate(19.936 5.636)"/>
            </g>
            <g id="文青身">
                <path id="Path_3076" d="M888.173 661.3a9.034 9.034 0 0 1 18.056 0h.008v.173c0 .057.009.113.009.17s-.007.113-.009.171v19.173h-18.081V661.3z" class="cls-5" data-name="Path 3076" transform="translate(-882.126 -627.329)"/>
                <path id="Rectangle_1497" d="M0 0h5.28v33.515H0z" class="cls-6" data-name="Rectangle 1497" transform="rotate(180 9.851 45.19)"/>
                <path id="Path_3206" d="M8.164-.007A8.168 8.168 0 1 1-.007 8.168 8.148 8.148 0 0 1 8.164-.007z" class="cls-7" data-name="Path 3206" transform="rotate(-38.791 75.875 20.957)"/>
                <g id="Group_8505" data-name="Group 8505" transform="translate(6.034 25.249)">
                    <path id="Path_3077" d="M888.179 661.3a9.034 9.034 0 0 1 18.056 0h.009v.173c0 .057.008.113.008.17s-.008.113-.008.171v19.173h-18.083V661.3z" class="cls-1" data-name="Path 3077" transform="translate(-888.161 -652.578)"/>
                    <g id="Group_8504" class="cls-8" data-name="Group 8504">
                        <path id="Line_59" d="M19.345 0L0 19.381" class="cls-9" data-name="Line 59" transform="translate(-2.145 4.478)"/>
                    </g>
                </g>
                <path id="Rectangle_1498" d="M0 0h5.28v35.136H0z" class="cls-7" data-name="Rectangle 1498" transform="rotate(180 6.098 45.19)"/>
                <path id="Path_3079" d="M880.372 678.356a3.648 3.648 0 1 0 3.648-3.656 3.652 3.652 0 0 0-3.648 3.656z" class="cls-10" data-name="Path 3079" transform="translate(-880.372 -632.282)"/>
                <path id="Rectangle_1499" d="M0 0h7.297v14.568H0z" class="cls-10" data-name="Rectangle 1499" transform="rotate(180 3.648 30.321)"/>
                <path id="Path_3080" d="M898.99 740.513h11.385a4.012 4.012 0 0 0-4.009-4.016h-7.376z" class="cls-11" data-name="Path 3080" transform="translate(-884.567 -646.117)"/>
                <path id="Path_3081" d="M889.3 740.513h11.385a4.012 4.012 0 0 0-4.009-4.016H889.3z" class="cls-12" data-name="Path 3081" transform="translate(-882.384 -646.117)"/>
                <path id="Rectangle_1500" d="M0 0h6.753v3.22H0z" class="cls-2" data-name="Rectangle 1500" transform="rotate(180 9.228 12.624)"/>
                <g id="Group_8507" data-name="Group 8507" transform="translate(7.143 1.467)">
                    <rect id="Rectangle_1501" width="16.982" height="23.48" class="cls-2" data-name="Rectangle 1501" rx="8.491" transform="rotate(180 8.491 11.74)"/>
                    <g id="Group_8506" class="cls-13" data-name="Group 8506">
                        <rect id="Rectangle_1502" width="5.48" height="9.647" class="cls-14" data-name="Rectangle 1502" rx="2.74" transform="translate(-.788 1.473)"/>
                    </g>
                </g>
                <path id="Path_3082" d="M889.912 635.27a3.779 3.779 0 0 0 0 7.557" class="cls-2" data-name="Path 3082" transform="translate(-881.671 -623.454)"/>
                <path id="Path_3083" d="M891.048 635.27a3.779 3.779 0 0 1 0 7.557" class="cls-2" data-name="Path 3083" transform="translate(-882.777 -623.454)"/>
                <path id="Path_3084" d="M895.479 637.074a2.925 2.925 0 1 0 2.925-2.931 2.927 2.927 0 0 0-2.925 2.931z" class="cls-15" data-name="Path 3084" transform="translate(-883.776 -623.202)"/>
                <path id="Path_3085" d="M905.8 637.074a2.925 2.925 0 1 0 2.925-2.931 2.928 2.928 0 0 0-2.925 2.931z" class="cls-15" data-name="Path 3085" transform="translate(-886.102 -623.202)"/>
                <path id="Path_3086" d="M890.3 638.28a1.442 1.442 0 0 0 0 2.885" class="cls-16" data-name="Path 3086" transform="translate(-882.285 -624.128)"/>
                <path id="Line_60" d="M2.149 0H0" class="cls-16" data-name="Line 60" transform="translate(17.553 13.871)"/>
                <path id="Path_3087" d="M905.311 639.881a1.253 1.253 0 0 1 0 2.507" class="cls-16" data-name="Path 3087" transform="translate(-885.991 -624.486)"/>
                <path id="Path_3088" d="M902.232 651.747a3.376 3.376 0 1 1-3.376-3.383 3.379 3.379 0 0 1 3.376 3.383z" class="cls-2" data-name="Path 3088" transform="translate(-883.776 -626.386)"/>
                <path id="Path_3089" d="M896.706 646.12a1.974 1.974 0 1 0 1.975-1.978 1.976 1.976 0 0 0-1.975 1.978z" class="cls-17" data-name="Path 3089" transform="translate(-884.052 -625.44)"/>
                <path id="Rectangle_1504" d="M2.905 0h8.985a2.905 2.905 0 0 1 2.91 2.905 2.905 2.905 0 0 1-2.91 2.906H0V2.905A2.905 2.905 0 0 1 2.905 0z" class="cls-10" data-name="Rectangle 1504" transform="rotate(180 11.816 2.906)"/>
                <path id="Rectangle_1505" d="M0 0h3.869v.869H0z" class="cls-10" data-name="Rectangle 1505" transform="translate(20.571 8.784)"/>
                <path id="Rectangle_1506" d="M0 0h3.869v.869H0z" class="cls-10" data-name="Rectangle 1506" transform="translate(12.693 7.923)"/>
            </g>
            <g id="文青右手" transform="translate(8.792 29.555)">
                <path id="Path_3090" d="M896.215 658.126l10.165 10.185a3.188 3.188 0 0 1 0 4.5 3.173 3.173 0 0 1-4.494 0l-10.165-10.184" class="cls-3" data-name="Path 3090" transform="translate(-891.721 -658.126)"/>
            </g>
            <g id="文青右手2" transform="translate(21.076 23.345)">
                <g id="Group_8509" data-name="Group 8509" transform="translate(3.641)">
                    <path id="Path_3207" d="M0 0h4.368l.007 7.489H.007z" class="cls-2" data-name="Path 3207" transform="rotate(-134.999 4.655 6.875)"/>
                    <g id="Group_8508" data-name="Group 8508" transform="translate(4.937)">
                        <path id="Path_3092" d="M926.844 655.181a.8.8 0 0 1-.8-1.024.8.8 0 0 1-.8-1.024.791.791 0 0 0-.466-.227l1.409-1.412a.8.8 0 0 0-1.131-1.133l-3.193 3.2.269-.576a1.317 1.317 0 0 0-.147-1.54 1.227 1.227 0 0 0-.232-.181.477.477 0 0 0-.391-.056.465.465 0 0 0-.286.253v.006a17.228 17.228 0 0 1-1.622 3.045 3.093 3.093 0 0 0 .194 4.341 3.209 3.209 0 0 0 2.446 1.039 3.521 3.521 0 0 0 2.281-1.094l1.238-1.24.751-.753.487-.488a.8.8 0 0 0-.007-1.136z" class="cls-2" data-name="Path 3092" transform="translate(-918.651 -650.126)"/>
                        <path id="Path_3093" d="M926.028 658.865l3.456-3.462a.8.8 0 0 0-.466-1.362l.648-.65a.8.8 0 0 0 0-1.133.794.794 0 0 0-.466-.228.8.8 0 0 0-1.132-1.133.8.8 0 0 0-.228-.467" class="cls-2" data-name="Path 3093" transform="translate(-920.313 -650.194)"/>
                        <path id="Path_3094" d="M927.272 650.713a.492.492 0 0 1 0 .695l-2.754 2.76a.155.155 0 0 0 .218.219l2.755-2.759.45-.451a.491.491 0 0 1 .693.695l-.45.451-2.754 2.759a.156.156 0 0 0 0 .22.154.154 0 0 0 .218 0l2.755-2.759a.491.491 0 1 1 .693.695l-.913.914-.182.182-1.659 1.666a.155.155 0 0 0 .219.22l1.659-1.663a.491.491 0 0 1 .693.695l-3.456 3.462" class="cls-2" data-name="Path 3094" transform="translate(-919.962 -650.257)"/>
                        <path id="Path_3208" d="M0 0h1.292v2.442H0z" class="cls-2" data-name="Path 3208" transform="rotate(45 1.552 9.54)"/>
                    </g>
                    <path id="Line_61" d="M0 3.215L3.209 0" class="cls-18" data-name="Line 61" transform="translate(9.478 .763)"/>
                    <path id="Line_62" d="M0 3.215L3.209 0" class="cls-18" data-name="Line 62" transform="translate(10.575 1.861)"/>
                    <path id="Line_63" d="M0 2.14L2.136 0" class="cls-18" data-name="Line 63" transform="translate(11.495 3.858)"/>
                </g>
                <path id="Path_3095" d="M907.579 666.472l7.136-7.116 4.484 4.512-9.315 9.289" class="cls-3" data-name="Path 3095" transform="translate(-907.579 -652.192)"/>
            </g>
        </g>
        <g id="Group_8511" data-name="Group 8511" transform="translate(583.667 3083.15)">
            <g id="啊罵右手" transform="translate(10.325 24.92)">
                <path id="Path_3035" d="M1042.8 707.25l-6.431 6.444a3.085 3.085 0 0 1-4.368 0 3.1 3.1 0 0 1 0-4.376l6.431-6.444" class="cls-19" data-name="Path 3035" transform="translate(-1031.093 -702.874)"/>
            </g>
            <g id="啊罵右手2" transform="translate(0 20.342)">
                <g id="Group_8490" data-name="Group 8490">
                    <path id="Path_3036" d="M1020.055 696.742a.459.459 0 0 0-.328.161.974.974 0 0 0-.241.752l-1.768-1.772a.727.727 0 0 0-1.236.425.729.729 0 0 0-1.029 1.031.722.722 0 0 0-.424.207.73.73 0 0 0 0 1.031l.59.591a.722.722 0 0 0-.424.207.731.731 0 0 0 0 1.031l3.144 3.15a3.078 3.078 0 0 0 4.349-4.357l-.9-.9-.91-.912-.517-.518a.417.417 0 0 0-.306-.127z" class="cls-2" data-name="Path 3036" transform="translate(-1014.816 -695.671)"/>
                    <g id="Group_8489" data-name="Group 8489" transform="translate(4.682 1.964)">
                        <path id="Path_3037" d="M1024.171 700.736a.093.093 0 0 0 0-.129l.547.548a.091.091 0 0 1 0 .128 1.619 1.619 0 0 0-.452 1.39.089.089 0 0 1-.026.078.086.086 0 0 1-.05.025.09.09 0 0 1-.1-.076 1.8 1.8 0 0 1 .44-1.48l-.485-.485a.092.092 0 0 0 .126.001z" data-name="Path 3037" transform="translate(-1022.873 -699.434)"/>
                        <path id="Path_3038" d="M1023.778 700.544l-.051-.051.012.01z" data-name="Path 3038" transform="translate(-1022.757 -699.393)"/>
                        <path id="Path_3039" d="M1022.225 698.788a.091.091 0 0 1 .128 0l.186.186.958.96a.091.091 0 0 1-.129.129l-.149-.15-.039-.041-.012-.01-.943-.945a.092.092 0 0 1 0-.129z" data-name="Path 3039" transform="translate(-1022.198 -698.761)"/>
                    </g>
                    <path id="Line_51" d="M0 0l2.58 2.585" class="cls-20" data-name="Line 51" transform="translate(1.754 .726)"/>
                    <path id="Line_52" d="M0 0l2.606 2.611" class="cls-20" data-name="Line 52" transform="translate(.7 1.732)"/>
                    <path id="Line_53" d="M0 0l1.803 1.807" class="cls-20" data-name="Line 53" transform="translate(.852 3.56)"/>
                    <path id="Path_3040" d="M1018.792 703.468a5.862 5.862 0 0 1 2.4-2.967" class="cls-20" data-name="Path 3040" transform="translate(-1016.27 -697.432)"/>
                </g>
                <path id="Path_3041" d="M1028.964 713.845l-6.167-6.178 4.368-4.376 6.166 6.178" class="cls-19" data-name="Path 3041" transform="translate(-1017.735 -698.449)"/>
            </g>
            <g id="啊罵身" transform="translate(5.209)">
                <g id="Group_8499" data-name="Group 8499" transform="translate(1.166)">
                    <path id="Path_3042" d="M1059.645 705.233a10.761 10.761 0 0 0-10.705-9.784 10.914 10.914 0 0 0-10.714 9.95 10.72 10.72 0 0 0-.042.826l.042 10.192h21.474l-.05-11.184z" class="cls-19" data-name="Path 3042" transform="translate(-1029.738 -675.248)"/>
                    <path id="Path_3043" d="M1059.7 728.127a10.756 10.756 0 1 1-21.511 0" class="cls-21" data-name="Path 3043" transform="translate(-1029.738 -687.16)"/>
                    <path id="Path_3044" d="M1051.748 698.747a3.46 3.46 0 1 1-3.459-3.466 3.463 3.463 0 0 1 3.459 3.466z" class="cls-22" data-name="Path 3044" transform="translate(-1032.168 -675.187)"/>
                    <g id="Group_8494" data-name="Group 8494" transform="translate(0 2.011)">
                        <g id="Group_8491" data-name="Group 8491" transform="translate(9.767)">
                            <path id="Path_3045" d="M1044.014 674.343a3.714 3.714 0 0 1-1.434-.292 3.546 3.546 0 0 1-.649-.345 3.811 3.811 0 0 1-.568-.468 3.741 3.741 0 0 1-.466-.569 3.916 3.916 0 0 1-.346-.644 3.872 3.872 0 0 1-.209-.7 3.367 3.367 0 0 1-.075-.739 3.815 3.815 0 0 1 1.1-2.657 4.781 4.781 0 0 1 .568-.467 4.023 4.023 0 0 1 .649-.346 4.458 4.458 0 0 1 .7-.21 3.575 3.575 0 0 1 1.468 0 4.137 4.137 0 0 1 .7.21 3.711 3.711 0 0 1 .649.346 4.246 4.246 0 0 1 .568.467 3.791 3.791 0 0 1 1.1 2.657 3.852 3.852 0 0 1-.075.739 3.794 3.794 0 0 1-.216.7 3.857 3.857 0 0 1-.345.644 3.4 3.4 0 0 1-.467.569 3.465 3.465 0 0 1-.568.468 3.3 3.3 0 0 1-.649.345 3.6 3.6 0 0 1-.7.217 3.923 3.923 0 0 1-.735.075z" class="cls-23" data-name="Path 3045" transform="translate(-1040.267 -666.825)"/>
                        </g>
                        <g id="Group_8492" data-name="Group 8492" transform="translate(1.305 1.313)">
                            <path id="Path_3046" d="M1028.8 679.48a3.752 3.752 0 0 1-1.367-5.13 3.75 3.75 0 0 1 3.071-1.877 3.766 3.766 0 0 1 1.867-3.077 3.752 3.752 0 0 1 5.127 1.369 3.767 3.767 0 0 1-1.366 5.137 3.746 3.746 0 0 1-1.705.5 3.762 3.762 0 0 1-.5 1.708 3.748 3.748 0 0 1-3.254 1.877 3.693 3.693 0 0 1-1.873-.507z" class="cls-24" data-name="Path 3046" transform="translate(-1026.926 -668.891)"/>
                        </g>
                        <g id="Group_8493" data-name="Group 8493" transform="translate(0 9.789)">
                            <path id="Path_3047" d="M1028.622 689.744a3.868 3.868 0 0 1-.737-.074 3.781 3.781 0 0 1-.7-.217 3.886 3.886 0 0 1-.643-.345 3.507 3.507 0 0 1-.575-.468 3.787 3.787 0 0 1-.46-.569 3.318 3.318 0 0 1-.345-.651 3.635 3.635 0 0 1-.217-.7 3.931 3.931 0 0 1-.074-.739 3.857 3.857 0 0 1 .074-.732 3.7 3.7 0 0 1 .217-.7 3.531 3.531 0 0 1 .345-.651 4.16 4.16 0 0 1 .46-.569 3.784 3.784 0 0 1 4.092-.813 3.861 3.861 0 0 1 1.218.813 3.785 3.785 0 0 1 1.1 2.657 3.892 3.892 0 0 1-.075.739 3.617 3.617 0 0 1-.217.7 3.3 3.3 0 0 1-.345.651 3.751 3.751 0 0 1-.46.569 3.5 3.5 0 0 1-.575.468 3.916 3.916 0 0 1-.643.345 3.8 3.8 0 0 1-.7.217 3.861 3.861 0 0 1-.74.069z" class="cls-24" data-name="Path 3047" transform="translate(-1024.868 -682.228)"/>
                        </g>
                    </g>
                    <rect id="Rectangle_1489" width="18.614" height="17.528" class="cls-2" data-name="Rectangle 1489" rx="8.764" transform="translate(4.535 7.077)"/>
                    <g id="Group_8498" data-name="Group 8498" transform="translate(8.354)">
                        <g id="Group_8495" data-name="Group 8495">
                            <path id="Path_3048" d="M1042.347 672.294a4.336 4.336 0 0 1-3.051-1.267 4.414 4.414 0 0 1-.534-.651 4.571 4.571 0 0 1-.393-.745 4.29 4.29 0 0 1-.244-.814 4.051 4.051 0 0 1 0-1.681 4.411 4.411 0 0 1 .636-1.552 4.154 4.154 0 0 1 .534-.657 4.3 4.3 0 0 1 6.1 0 4.424 4.424 0 0 1 .933 1.4 4.141 4.141 0 0 1 .244.806 4.406 4.406 0 0 1 .088.841 4.322 4.322 0 0 1-4.309 4.317z" class="cls-14" data-name="Path 3048" transform="translate(-1038.038 -663.66)"/>
                        </g>
                        <g id="Group_8496" data-name="Group 8496" transform="translate(5.611 1.507)">
                            <path id="Path_3049" d="M1051.569 676.622a4.274 4.274 0 0 1-.575-1.965 4.256 4.256 0 0 1-1.962-.576 4.321 4.321 0 0 1-1.569-5.9 4.308 4.308 0 0 1 5.886-1.572 4.325 4.325 0 0 1 2.151 3.538 4.3 4.3 0 0 1 3.524 2.149 4.321 4.321 0 0 1-1.57 5.9 4.3 4.3 0 0 1-2.151.583 4.305 4.305 0 0 1-3.734-2.157z" class="cls-14" data-name="Path 3049" transform="translate(-1046.884 -666.032)"/>
                        </g>
                        <g id="Group_8497" data-name="Group 8497" transform="translate(11.215 11.242)">
                            <path id="Path_3050" d="M1060.029 689.979a4.314 4.314 0 0 1-3.044-7.366 4.467 4.467 0 0 1 .65-.535 4.6 4.6 0 0 1 .744-.4 4.46 4.46 0 0 1 .805-.244 4.314 4.314 0 1 1 .845 8.546z" class="cls-14" data-name="Path 3050" transform="translate(-1055.72 -681.35)"/>
                        </g>
                    </g>
                    <path id="Path_3051" d="M1055.876 684.965a3.207 3.207 0 0 1 0 6.413" class="cls-2" data-name="Path 3051" transform="translate(-1036.208 -671.426)"/>
                    <path id="Path_3052" d="M1054.03 691.378a3.207 3.207 0 0 1 0-6.413" class="cls-2" data-name="Path 3052" transform="translate(-1034.363 -671.426)"/>
                    <path id="Path_3053" d="M1056.5 688.085a1.224 1.224 0 0 1 0 2.448" class="cls-25" data-name="Path 3053" transform="translate(-1036.436 -672.563)"/>
                    <path id="Path_3054" d="M1044.1 688.1a.853.853 0 1 1 1.706 0" data-name="Path 3054" transform="translate(-1031.9 -672.257)"/>
                    <path id="Path_3055" d="M1037.227 688.1a.853.853 0 1 1 1.705 0" data-name="Path 3055" transform="translate(-1029.388 -672.257)"/>
                    <path id="Path_3056" d="M1048.333 683.963h-3.65a.59.59 0 0 1-.587-.589.59.59 0 0 1 .587-.588h3.65a.589.589 0 0 1 .587.588.589.589 0 0 1-.587.589z" class="cls-14" data-name="Path 3056" transform="translate(-1031.9 -670.632)"/>
                    <rect id="Rectangle_1490" width="3.586" height="1.177" class="cls-14" data-name="Rectangle 1490" rx=".588" transform="translate(5.958 12.154)"/>
                    <path id="Path_3057" d="M1040.705 691.8a.9.9 0 0 1-.9-.9v-.671a.9.9 0 0 1 .9-.9.9.9 0 0 1 .9.9v.671a.9.9 0 0 1-.9.9z" class="cls-22" data-name="Path 3057" transform="translate(-1030.331 -673.015)"/>
                    <path id="Path_3058" d="M1044.625 697.4h-2.647a1.428 1.428 0 0 1-1.423-1.426v-1.334a.089.089 0 0 1 .089-.089h3.981a1.429 1.429 0 0 1 1.423 1.426 1.429 1.429 0 0 1-1.423 1.423z" class="cls-17" data-name="Path 3058" transform="translate(-1030.605 -674.92)"/>
                    <path id="Path_3059" d="M1048.844 691.94a2.931 2.931 0 0 1 2.928 2.934" class="cls-26" data-name="Path 3059" transform="translate(-1033.636 -673.969)"/>
                    <path id="Path_3060" d="M1040.017 691.94a2.931 2.931 0 0 0-2.928 2.934" class="cls-26" data-name="Path 3060" transform="translate(-1029.338 -673.969)"/>
                    <path id="Line_54" d="M0 0h6.829" class="cls-26" data-name="Line 54" transform="translate(7.53 10.304)"/>
                    <path id="Line_55" d="M0 0h6.829" class="cls-26" data-name="Line 55" transform="translate(7.53 11.341)"/>
                    <path id="Path_3061" d="M1052.148 767.954h-7.548a3.369 3.369 0 0 1 3.366-3.373h4.182z" class="cls-12" data-name="Path 3061" transform="translate(-1032.084 -700.449)"/>
                    <path id="Path_3062" d="M1066.586 767.954h-7.548a3.37 3.37 0 0 1 3.366-3.373h4.182z" class="cls-12" data-name="Path 3062" transform="translate(-1037.364 -700.449)"/>
                    <path id="Rectangle_1491" d="M0 0h7.875v22.956H0z" class="cls-21" data-name="Rectangle 1491" transform="translate(22.082 41.169)"/>
                    <path id="Rectangle_1492" d="M0 0h7.875v22.956H0z" class="cls-21" data-name="Rectangle 1492" transform="translate(12.352 41.169)"/>
                </g>
            </g>
            <g id="啊罵左手" transform="translate(25.719 26.937)">
                <path id="Path_3064" d="M1061.541 706.049v9.112a3.091 3.091 0 0 1-3.088 3.094 3.092 3.092 0 0 1-3.089-3.094v-9.112" class="cls-19" data-name="Path 3064" transform="translate(-1055.364 -706.049)"/>
            </g>
            <g id="啊罵左手2" transform="translate(10.962 32.117)">
                <g id="Group_8501" data-name="Group 8501">
                    <g id="Group_8500" data-name="Group 8500">
                        <path id="Path_3065" d="M1036.309 720.918h3.116a3.129 3.129 0 0 0 2.121-.748 2.864 2.864 0 0 0 .886-2.194 2.746 2.746 0 0 0-2.6-2.853 15.258 15.258 0 0 1-2.932-.893h-.005a.41.41 0 0 0-.339.02.425.425 0 0 0-.21.281 1.092 1.092 0 0 0-.032.26 1.169 1.169 0 0 0 .874 1.061l.531.192h-4.019a.713.713 0 0 0 0 1.426h1.773a1.366 1.366 0 0 1-.012 1.587.712.712 0 0 1 .138 1.15.713.713 0 0 0 .71.711z" class="cls-2" data-name="Path 3065" transform="translate(-1032.424 -714.2)"/>
                        <path id="Path_3066" d="M1032.665 718.221a.71.71 0 0 0 .15.437.713.713 0 0 0 0 1.426.713.713 0 0 0 .562 1.15h.816a.712.712 0 0 0 .562 1.15h4.347" class="cls-2" data-name="Path 3066" transform="translate(-1032.099 -715.666)"/>
                        <path id="Path_3067" d="M1039.261 722.108h-4.347a.437.437 0 0 1 0-.874H1037a.138.138 0 0 0 0-.276h-3.465a.437.437 0 0 1 0-.874H1037a.138.138 0 0 0 0-.276h-4.032a.437.437 0 0 1 0-.874H1037a.138.138 0 0 0 0-.276h-3.465a.437.437 0 0 1-.436-.437" class="cls-2" data-name="Path 3067" transform="translate(-1032.258 -715.666)"/>
                        <path id="Rectangle_1493" d="M0 0h1.15v2.17H0z" class="cls-2" data-name="Rectangle 1493" transform="rotate(90 .297 3.565)"/>
                    </g>
                    <path id="Line_56" d="M3.699 0H0" class="cls-20" data-name="Line 56" transform="translate(.734 3.017)"/>
                    <path id="Line_57" d="M3.699 0H0" class="cls-20" data-name="Line 57" transform="translate(.734 4.417)"/>
                    <path id="Line_58" d="M2.31 0H0" class="cls-20" data-name="Line 58" transform="translate(2.094 5.566)"/>
                </g>
                <path id="Path_3068" d="M1055.205 721.707h-8.721v-6.188h8.721" class="cls-19" data-name="Path 3068" transform="translate(-1037.36 -714.681)"/>
            </g>
        </g>
        <g id="Group_8516" data-name="Group 8516" transform="translate(531.304 3109.39)">
            <g id="老闆右手" transform="translate(35.979 25.223)">
                <g id="Group_8481" data-name="Group 8481">
                    <path id="Path_3014" d="M1029.1 797.647a3.54 3.54 0 0 1-2.511-1.042l-7.619-7.634a3.555 3.555 0 0 1 5.023-5.032l7.62 7.634a3.558 3.558 0 0 1-2.512 6.074z" class="cls-21" data-name="Path 3014" transform="translate(-1017.926 -782.897)"/>
                </g>
            </g>
            <g id="老闆右手2" transform="translate(43.598 18.14)">
                <path id="Path_3209" d="M0 0h4.5v7.713H0z" class="cls-2" data-name="Path 3209" transform="rotate(-135.001 8.096 5.95)"/>
                <g id="Group_8482" data-name="Group 8482" transform="translate(11)">
                    <path id="Path_3015" d="M1061.392 775.568a.893.893 0 0 0-.675-.261.9.9 0 0 0-.227-.888.9.9 0 0 1-.9-1.151.893.893 0 0 0-.524-.255l1.583-1.586a.9.9 0 1 0-1.27-1.274l-3.586 3.593.3-.647a1.479 1.479 0 0 0-.165-1.73 1.4 1.4 0 0 0-.261-.2.534.534 0 0 0-.438-.063.52.52 0 0 0-.321.285v.007a19.372 19.372 0 0 1-1.822 3.42 3.475 3.475 0 0 0 .219 4.876 3.605 3.605 0 0 0 2.747 1.167 3.956 3.956 0 0 0 2.562-1.229l1.39-1.393.845-.846.548-.549a.9.9 0 0 0-.005-1.276z" class="cls-2" data-name="Path 3015" transform="translate(-1052.188 -769.889)"/>
                    <path id="Path_3016" d="M1064 779.853l3.883-3.889a.9.9 0 0 0 0-1.274.893.893 0 0 0-.523-.256l.728-.73a.9.9 0 0 0-.524-1.53.9.9 0 0 0-1.271-1.273.9.9 0 0 0-.255-.524" class="cls-2" data-name="Path 3016" transform="translate(-1057.581 -770.111)"/>
                    <path id="Path_3017" d="M1064.654 770.83a.553.553 0 0 1 0 .78l-3.094 3.1a.174.174 0 0 0 .246.246l3.094-3.1.505-.507a.551.551 0 0 1 .779.781l-.506.506-3.094 3.1a.174.174 0 0 0 .246.246l3.095-3.1a.551.551 0 0 1 .779.78l-1.025 1.027-.2.205-1.864 1.868a.174.174 0 0 0 .246.247l1.864-1.868a.552.552 0 0 1 .779.781l-3.882 3.89" class="cls-2" data-name="Path 3017" transform="translate(-1056.444 -770.318)"/>
                    <path id="Path_3210" d="M0 0h1.451v2.743H0z" class="cls-2" data-name="Path 3210" transform="rotate(45 1.74 10.717)"/>
                </g>
                <g id="Group_8483" data-name="Group 8483" transform="translate(0 8.128)">
                    <path id="Path_3018" d="M1035.5 798.522a3.558 3.558 0 0 1-2.511-6.074l6.577-6.588a3.554 3.554 0 0 1 5.021 5.031l-6.576 6.589a3.54 3.54 0 0 1-2.511 1.042z" class="cls-21" data-name="Path 3018" transform="translate(-1031.947 -784.818)"/>
                </g>
                <path id="Path_3211" d="M0 0l7.074.007.008 8.439-7.074-.007z" class="cls-21" data-name="Path 3211" transform="rotate(-135 8.351 6.656)"/>
                <path id="Line_45" d="M0 3.309L3.303 0" class="cls-20" data-name="Line 45" transform="translate(16.416 .827)"/>
                <path id="Line_46" d="M0 3.309L3.303 0" class="cls-20" data-name="Line 46" transform="translate(17.664 2.077)"/>
                <path id="Line_47" d="M0 2.066L2.063 0" class="cls-20" data-name="Line 47" transform="translate(18.714 4.32)"/>
            </g>
            <g id="老闆身" transform="translate(19.27)">
                <rect id="Rectangle_1481" width="3.577" height="1.87" class="cls-22" data-name="Rectangle 1481" rx=".935" transform="translate(1.321 12.671)"/>
                <g id="Group_8485" data-name="Group 8485" transform="translate(2.811)">
                    <path id="Path_3019" d="M1002.289 759.227a9.974 9.974 0 0 1-9.935-9.954v-2.747a9.974 9.974 0 0 1 9.935-9.954 9.974 9.974 0 0 1 9.935 9.954v2.747a9.974 9.974 0 0 1-9.935 9.954z" class="cls-2" data-name="Path 3019" transform="translate(-992.354 -736.572)"/>
                    <g id="Group_8484" class="cls-27" data-name="Group 8484">
                        <path id="Path_3020" d="M991.318 767.279a1.985 1.985 0 1 0 1.985-1.989 1.987 1.987 0 0 0-1.985 1.989z" class="cls-17" data-name="Path 3020" transform="translate(-991.881 -749.654)"/>
                    </g>
                </g>
                <path id="Path_3022" d="M995.143 751.734h-3.08a.748.748 0 0 1-.745-.746.748.748 0 0 1 .745-.747h3.08a.748.748 0 0 1 .745.747.748.748 0 0 1-.745.746z" class="cls-21" data-name="Path 3022" transform="translate(-989.07 -742.798)"/>
                <path id="Path_3023" d="M1013.709 740.259h-4.944a4.208 4.208 0 0 0-4.191 4.2 4.207 4.207 0 0 0 4.191 4.2h4.944a4.208 4.208 0 0 0 4.192-4.2 4.208 4.208 0 0 0-4.192-4.2z" class="cls-21" data-name="Path 3023" transform="translate(-995.121 -738.251)"/>
                <path id="Path_3024" d="M1016.194 757.058a5.252 5.252 0 0 0 5.232-5.242V745.5a5.252 5.252 0 0 0-5.232-5.242 5.252 5.252 0 0 0-5.232 5.242v6.316a5.252 5.252 0 0 0 5.232 5.242z" class="cls-21" data-name="Path 3024" transform="translate(-998.038 -738.251)"/>
                <path id="Path_3025" d="M1008.84 755.128a3.212 3.212 0 0 1 0 6.424" class="cls-2" data-name="Path 3025" transform="translate(-997.069 -745.025)"/>
                <path id="Path_3026" d="M1008.84 758.776a1.226 1.226 0 0 1 0 2.452" class="cls-28" data-name="Path 3026" transform="translate(-997.069 -746.686)"/>
                <path id="Rectangle_1482" d="M0 0h9.733v28.192H0z" class="cls-21" data-name="Rectangle 1482" transform="translate(3.393 60.57)"/>
                <path id="Rectangle_1483" d="M0 0h9.733v28.192H0z" class="cls-21" data-name="Rectangle 1483" transform="translate(14.506 60.57)"/>
                <path id="Path_3027" d="M999.563 903.82h-12.382a4.364 4.364 0 0 1 4.359-4.368h8.023z" class="cls-12" data-name="Path 3027" transform="translate(-987.181 -810.769)"/>
                <path id="Path_3028" d="M1015.515 903.82h12.385a4.364 4.364 0 0 0-4.359-4.368h-8.024z" class="cls-12" data-name="Path 3028" transform="translate(-1000.116 -810.769)"/>
                <g id="Rectangle_1484" class="cls-29" data-name="Rectangle 1484">
                    <path d="M2.463 0h5.9a2.463 2.463 0 0 1 2.463 2.463v.825a1.191 1.191 0 0 1-1.194 1.191H1.191A1.191 1.191 0 0 1 0 3.289v-.826A2.463 2.463 0 0 1 2.463 0z" class="cls-30" transform="translate(8.056 21.199)"/>
                    <path d="M2.463.3h5.9a2.166 2.166 0 0 1 2.166 2.166v.825a.894.894 0 0 1-.894.894H1.191A.894.894 0 0 1 .3 3.289v-.826A2.166 2.166 0 0 1 2.463.3z" class="cls-31" transform="translate(8.056 21.199)"/>
                </g>
                <path id="Rectangle_1485" d="M12.963 0a12.963 12.963 0 0 1 12.962 12.963V38.2H0V12.963A12.963 12.963 0 0 1 12.963 0z" class="cls-21" data-name="Rectangle 1485" transform="translate(.505 22.36)"/>
                <path id="Path_3029" d="M993.345 756.286h-.745a.58.58 0 0 1-.578-.579.581.581 0 0 1 .578-.579h.748a.58.58 0 0 1 .578.579.58.58 0 0 1-.581.579z" class="cls-21" data-name="Path 3029" transform="translate(-989.39 -745.025)"/>
                <ellipse id="Ellipse_492" cx="10.423" cy="5.718" class="cls-21" data-name="Ellipse 492" rx="10.423" ry="5.718" transform="translate(3.393 55.991)"/>
            </g>
            <g id="老闆左手" transform="translate(14.667 25.223)">
                <g id="Group_8486" data-name="Group 8486">
                    <path id="Path_3030" d="M982.262 797.647a3.558 3.558 0 0 1-2.511-6.074l7.619-7.634a3.555 3.555 0 0 1 5.023 5.032l-7.62 7.634a3.539 3.539 0 0 1-2.511 1.042z" class="cls-21" data-name="Path 3030" transform="translate(-978.711 -782.898)"/>
                </g>
            </g>
            <g id="老闆左手2" transform="translate(0 18.14)">
                <path id="Path_3212" d="M0 0h4.5l-.011 7.7h-4.5z" class="cls-2" data-name="Path 3212" transform="rotate(-45 15.942 -2.887)"/>
                <g id="Group_8487" data-name="Group 8487">
                    <path id="Path_3031" d="M954.383 776.841l.547.549.844.846 1.39 1.393a3.956 3.956 0 0 0 2.562 1.229 3.6 3.6 0 0 0 2.747-1.167 3.474 3.474 0 0 0 .219-4.876 19.309 19.309 0 0 1-1.822-3.42v-.007a.519.519 0 0 0-.321-.285.534.534 0 0 0-.438.063 1.386 1.386 0 0 0-.26.2 1.48 1.48 0 0 0-.166 1.73l.3.647-3.586-3.593a.9.9 0 0 0-1.271 1.274l1.583 1.586a1.721 1.721 0 0 1-1.426 1.406.9.9 0 0 0-.227.888.892.892 0 0 0-.675.261.9.9 0 0 0 0 1.276z" class="cls-2" data-name="Path 3031" transform="translate(-952.817 -769.889)"/>
                    <path id="Path_3032" d="M954.035 770.377a.9.9 0 0 0-.256.524.9.9 0 1 0-1.271 1.273.893.893 0 0 0-.523.256.9.9 0 0 0 0 1.273l.728.73a.9.9 0 0 0-.523 1.53l3.882 3.889" class="cls-2" data-name="Path 3032" transform="translate(-951.722 -770.111)"/>
                    <path id="Path_3033" d="M956.611 779.813l-3.882-3.89a.551.551 0 0 1 .779-.781l1.864 1.868a.174.174 0 1 0 .246-.247l-1.864-1.868-.2-.205-1.025-1.027a.551.551 0 0 1 .779-.78l3.094 3.1a.174.174 0 0 0 .246-.246l-3.094-3.1-.506-.506a.551.551 0 0 1 .779-.781l.506.507 3.094 3.1a.174.174 0 0 0 .246-.246l-3.094-3.1a.553.553 0 0 1 0-.78" class="cls-2" data-name="Path 3033" transform="translate(-952.014 -770.318)"/>
                    <path id="Path_3213" d="M0 0h1.451v2.743H0z" class="cls-2" data-name="Path 3213" transform="rotate(134.998 1.512 2.882)"/>
                </g>
                <g id="Group_8488" data-name="Group 8488" transform="translate(8.091 8.128)">
                    <path id="Path_3034" d="M976.738 798.522a3.538 3.538 0 0 1-2.511-1.042l-6.576-6.589a3.554 3.554 0 1 1 5.022-5.031l6.576 6.588a3.558 3.558 0 0 1-2.511 6.074z" class="cls-21" data-name="Path 3034" transform="translate(-966.611 -784.818)"/>
                </g>
                <path id="Path_3214" d="M0 0l7.08-.007-.008 8.439-7.08.007z" class="cls-21" data-name="Path 3214" transform="rotate(-45 16.763 -1.904)"/>
                <path id="Line_48" d="M3.303 3.309L0 0" class="cls-20" data-name="Line 48" transform="translate(2.05 .827)"/>
                <path id="Line_49" d="M3.303 3.309L0 0" class="cls-20" data-name="Line 49" transform="translate(.803 2.077)"/>
                <path id="Line_50" d="M2.063 2.066L0 0" class="cls-20" data-name="Line 50" transform="translate(.993 4.32)"/>
            </g>
        </g>
    </g>
</svg>
