<svg id="google-login" xmlns="http://www.w3.org/2000/svg" width="33.145" height="33.814" viewBox="0 0 33.145 33.814">
  <path id="Path_2874" data-name="Path 2874" d="M288.339,226.535a19.883,19.883,0,0,0-.292-3.435H272.1v6.51h9.132a7.825,7.825,0,0,1-3.379,5.137v4.224H283.3A16.511,16.511,0,0,0,288.339,226.535Z" transform="translate(-255.194 -209.24)" fill="#4285f4"/>
  <path id="Path_2875" data-name="Path 2875" d="M44.008,337.967a16.184,16.184,0,0,0,11.207-4.081l-5.448-4.224A10.254,10.254,0,0,1,34.522,324.3H28.9v4.355A16.909,16.909,0,0,0,44.008,337.967Z" transform="translate(-27.102 -304.153)" fill="#34a853"/>
  <path id="Path_2876" data-name="Path 2876" d="M7.364,160.828a10.127,10.127,0,0,1,0-6.473V150H1.748a16.921,16.921,0,0,0,0,15.182Z" transform="translate(0.05 -140.681)" fill="#fbbc04"/>
  <path id="Path_2877" data-name="Path 2877" d="M44.008,6.673a9.187,9.187,0,0,1,6.485,2.535h0L55.32,4.381a16.249,16.249,0,0,0-11.312-4.4A16.9,16.9,0,0,0,28.9,9.3l5.616,4.355A10.112,10.112,0,0,1,44.008,6.673Z" transform="translate(-27.102 0.018)" fill="#ea4335"/>
</svg>
