<svg xmlns="http://www.w3.org/2000/svg" width="160.002" height="216" viewBox="0 0 160.002 216">
  <g id="Han" transform="translate(-387.756 -319.301)">
    <path id="Path_6362" data-name="Path 6362" d="M505.432,382.654c0,6.462-5.576,10.726-12.455,10.726s-12.454-4.264-12.454-10.726,5.576-11.7,12.454-11.7S505.432,376.193,505.432,382.654Z" fill="#1e1e3a"/>
    <g id="Group_9059" data-name="Group 9059">
      <circle id="Ellipse_728" data-name="Ellipse 728" cx="20" cy="20" r="20" transform="translate(447.756 319.301)" fill="#00a"/>
      <path id="path6" d="M467.828,359.3l-9.966-37.193,27.223,27.225-37.193-9.966,37.193-9.966-27.227,27.232,9.97-37.2,9.966,37.193L450.567,329.4l37.193,9.966-37.2,9.968,27.227-27.227Z" fill="#fff"/>
      <circle id="Ellipse_729" data-name="Ellipse 729" cx="11.344" cy="11.344" r="11.344" transform="translate(456.48 328.025)" fill="#00a"/>
      <circle id="Ellipse_730" data-name="Ellipse 730" cx="10.023" cy="10.023" r="10.023" transform="translate(457.801 329.346)" fill="#fff"/>
    </g>
    <g id="Group_9003" data-name="Group 9003">
      <g id="Path_2801-2" data-name="Path 2801-2">
        <path id="Path_2863-2" data-name="Path 2863-2" d="M419.291,508.228h96.925l31.366,23.158H387.927Z" fill="#fff"/>
      </g>
      <g id="Rectangle_1361-2" data-name="Rectangle 1361-2">
        <rect id="Rectangle_1396-2" data-name="Rectangle 1396-2" width="159.654" height="4.087" transform="translate(387.926 531.044)" fill="#f8f8f8"/>
      </g>
      <g id="Group_8257-2" data-name="Group 8257-2">
        <path id="Path_2864-2" data-name="Path 2864-2" d="M547.581,535.3H387.927a.169.169,0,0,1-.171-.167h0v-4.039a.17.17,0,0,1,.139-.165l31.3-22.838a.171.171,0,0,1,.1-.033H516.22a.169.169,0,0,1,.1.033l31.3,22.838a.168.168,0,0,1,.138.165v4.039a.168.168,0,0,1-.168.168h-.009ZM388.1,534.965H547.412V531.2l-31.25-22.806H419.348L388.1,531.2Z" fill="#424242"/>
      </g>
      <g id="Group_8258-2" data-name="Group 8258-2">
        <path id="Path_2865-2" data-name="Path 2865-2" d="M517.257,531.215H391.164a.171.171,0,0,1-.171-.169h0a.171.171,0,0,1,.17-.171H517.257a.17.17,0,0,1,.17.17h0a.169.169,0,0,1-.169.171h0Z" fill="#424242"/>
      </g>
      <g id="Group_8259-2" data-name="Group 8259-2">
        <path id="Path_2866-2" data-name="Path 2866-2" d="M544.813,531.215H520a.171.171,0,0,1,0-.341h24.816a.171.171,0,0,1,.171.169h0a.17.17,0,0,1-.171.171h0Z" fill="#424242"/>
      </g>
    </g>
    <g id="Group_9012" data-name="Group 9012">
      <g id="Group_9005" data-name="Group 9005">
        <g id="Group_9004" data-name="Group 9004">
          <path id="Path_2990" data-name="Path 2990" d="M462.473,466.109v-5.237a5.265,5.265,0,0,0-1.259-3.567,4.819,4.819,0,0,0-3.689-1.489,4.617,4.617,0,0,0-4.8,4.376,25.613,25.613,0,0,1-1.5,4.929v.009a.694.694,0,0,0,.034.569.711.711,0,0,0,.472.354,1.91,1.91,0,0,0,.438.054,1.964,1.964,0,0,0,1.784-1.47l.324-.892V470.5a1.2,1.2,0,1,0,2.4,0v-2.98a2.294,2.294,0,0,1,2.668.022,1.2,1.2,0,0,1,1.934-.231A1.2,1.2,0,0,0,462.473,466.109Z" fill="#ffda6a"/>
          <path id="Path_2991" data-name="Path 2991" d="M455.475,471.688a1.2,1.2,0,0,0,.734-.251v.007a1.2,1.2,0,1,0,2.4,0v-.009a1.2,1.2,0,0,0,1.933-.946v-1.37a1.2,1.2,0,0,0,1.934-.946v-7.309" fill="#ffda6a"/>
          <path id="Path_2992" data-name="Path 2992" d="M462.009,460.866v7.309a.735.735,0,0,1-1.47,0v-3.509a.232.232,0,0,0-.464,0v5.825a.735.735,0,1,1-1.469,0v-5.825a.232.232,0,0,0-.464,0v6.778a.735.735,0,0,1-1.47,0v-6.778a.232.232,0,0,0-.464,0v5.825a.733.733,0,0,1-.734.734h0" fill="#ffda6a"/>
          <rect id="Rectangle_1734" data-name="Rectangle 1734" width="1.933" height="3.649" transform="translate(456.673 466.15)" fill="#ffda6a"/>
        </g>
        <line id="Line_63" data-name="Line 63" y2="6.219" transform="translate(456.251 465.188)" fill="none" stroke="#000" stroke-linecap="round" stroke-linejoin="round" stroke-width="0.333"/>
        <line id="Line_64" data-name="Line 64" y2="6.219" transform="translate(458.603 465.188)" fill="none" stroke="#000" stroke-linecap="round" stroke-linejoin="round" stroke-width="0.333"/>
        <line id="Line_65" data-name="Line 65" y2="3.883" transform="translate(460.535 465.238)" fill="none" stroke="#000" stroke-linecap="round" stroke-linejoin="round" stroke-width="0.333"/>
      </g>
      <g id="Group_9007" data-name="Group 9007">
        <g id="Group_9006" data-name="Group 9006">
          <path id="Path_2993" data-name="Path 2993" d="M421.952,467.306a11.347,11.347,0,0,0,3.629.16,1.2,1.2,0,0,1,.238.3,1.19,1.19,0,0,0,.734-.253v2.98a1.2,1.2,0,1,0,2.4,0v-6.751l.323.892a1.968,1.968,0,0,0,1.785,1.47,1.894,1.894,0,0,0,.437-.054.711.711,0,0,0,.472-.354.69.69,0,0,0,.035-.569v-.009a25.774,25.774,0,0,1-1.5-4.929,4.615,4.615,0,0,0-4.8-4.376,4.82,4.82,0,0,0-3.688,1.489,5.27,5.27,0,0,0-1.259,3.567v5.238A1.2,1.2,0,0,0,421.952,467.306Z" fill="#ffda6a"/>
          <path id="Path_2994" data-name="Path 2994" d="M427.751,471.688a1.2,1.2,0,0,1-.735-.251v.007a1.2,1.2,0,1,1-2.4,0v-.009a1.2,1.2,0,0,1-1.934-.946v-1.37a1.2,1.2,0,0,1-1.933-.946v-7.309" fill="#ffda6a"/>
          <path id="Path_2995" data-name="Path 2995" d="M421.217,460.866v7.309a.734.734,0,1,0,1.469,0v-3.509a.232.232,0,0,1,.464,0v5.825a.735.735,0,0,0,1.47,0v-5.825a.232.232,0,0,1,.464,0v6.778a.734.734,0,1,0,1.469,0v-6.778a.232.232,0,0,1,.464,0v5.825a.735.735,0,0,0,.735.734" fill="#ffda6a"/>
          <rect id="Rectangle_1735" data-name="Rectangle 1735" width="1.933" height="3.649" transform="translate(424.619 466.149)" fill="#ffda6a"/>
        </g>
        <line id="Line_66" data-name="Line 66" y2="6.219" transform="translate(426.974 465.188)" fill="none" stroke="#000" stroke-linecap="round" stroke-linejoin="round" stroke-width="0.333"/>
        <line id="Line_67" data-name="Line 67" y2="6.219" transform="translate(424.622 465.188)" fill="none" stroke="#000" stroke-linecap="round" stroke-linejoin="round" stroke-width="0.333"/>
        <line id="Line_68" data-name="Line 68" y2="3.883" transform="translate(422.69 465.238)" fill="none" stroke="#000" stroke-linecap="round" stroke-linejoin="round" stroke-width="0.333"/>
      </g>
      <rect id="Rectangle_1736" data-name="Rectangle 1736" width="7.573" height="21.765" transform="translate(422.183 441.115)" fill="#ffda6a"/>
      <rect id="Rectangle_1737" data-name="Rectangle 1737" width="7.573" height="21.765" transform="translate(453.509 441.115)" fill="#ffda6a"/>
      <rect id="Rectangle_1738" data-name="Rectangle 1738" width="27.024" height="19.368" transform="translate(428.041 445.802)" fill="#424242"/>
      <rect id="Rectangle_1739" data-name="Rectangle 1739" width="12.23" height="65.496" transform="translate(428.081 450.769)" fill="#424242"/>
      <rect id="Rectangle_1740" data-name="Rectangle 1740" width="12.23" height="65.496" transform="translate(442.835 450.769)" fill="#424242"/>
      <rect id="Rectangle_1741" data-name="Rectangle 1741" width="27.024" height="3.47" transform="translate(428.041 450.36)" fill="#5e3f3e"/>
      <g id="Group_9008" data-name="Group 9008">
        <path id="Rectangle_1742" data-name="Rectangle 1742" d="M440.9,406.894h1.428a20.29,20.29,0,0,1,20.29,20.29h0v17.623H420.609V427.184A20.29,20.29,0,0,1,440.9,406.894Z" fill="#dadada"/>
      </g>
      <g id="Path_2996" data-name="Path 2996">
        <path id="Path_6363" data-name="Path 6363" d="M453.2,450.519H429.945a4.407,4.407,0,0,1-4.406-4.4V422.732a16.676,16.676,0,0,1,4.4-11.308,15.677,15.677,0,0,1,10.861-5.139c.258-.012.519-.019.776-.019a16.021,16.021,0,0,1,16.033,16.006v23.849A4.407,4.407,0,0,1,453.2,450.519Z" fill="#fff"/>
        <path id="Path_6364" data-name="Path 6364" d="M441.575,406.516c-.253,0-.51.006-.765.018a15.434,15.434,0,0,0-10.688,5.059,16.43,16.43,0,0,0-4.333,11.139v23.389a4.157,4.157,0,0,0,4.156,4.148H453.2a4.156,4.156,0,0,0,4.156-4.148V422.272a15.769,15.769,0,0,0-15.783-15.756h0m0-.5a16.27,16.27,0,0,1,16.283,16.256v23.849a4.652,4.652,0,0,1-4.656,4.648H429.945a4.652,4.652,0,0,1-4.656-4.648V422.732c0-8.754,6.739-16.286,15.5-16.7C441.051,406.023,441.314,406.016,441.575,406.016Z" fill="#fff"/>
      </g>
      <rect id="Rectangle_1743" data-name="Rectangle 1743" width="11.338" height="9.997" transform="translate(435.904 399.203)" fill="#ffba00"/>
      <g id="Path_2997" data-name="Path 2997">
        <path id="Path_6365" data-name="Path 6365" d="M443.878,413.1l-1.986-3.837,5.3-4.012,2.059,2.781Z" fill="#fff"/>
        <path id="Path_6366" data-name="Path 6366" d="M447.141,405.6l-4.93,3.732,1.737,3.355,4.97-4.687-1.777-2.4m.1-.7,2.341,3.163-5.775,5.447-2.236-4.319Z" fill="#fff"/>
      </g>
      <g id="Path_2998" data-name="Path 2998">
        <path id="Path_6367" data-name="Path 6367" d="M439.269,413.1l-5.373-5.068,2.059-2.781,5.3,4.012Z" fill="#fff"/>
        <path id="Path_6368" data-name="Path 6368" d="M436.006,405.6l-1.777,2.4,4.97,4.687,1.737-3.355-4.93-3.732m-.1-.7,5.669,4.291-2.236,4.319-5.775-5.447Z" fill="#fff"/>
      </g>
      <path id="Rectangle_1744" data-name="Rectangle 1744" d="M462.471,522.975H443.38v-6.709h12.6a6.493,6.493,0,0,1,6.493,6.492v.217Z" fill="#5e3f3e"/>
      <path id="Rectangle_1745" data-name="Rectangle 1745" d="M427.247,516.265h12.6v6.709H420.754v-.216A6.493,6.493,0,0,1,427.247,516.265Z" fill="#5e3f3e"/>
      <path id="Path_2999" data-name="Path 2999" d="M449.031,401.852a6.334,6.334,0,0,0,3.419-5.466l.495-14.082a11.509,11.509,0,0,0-7.11-10.779l-2.054-.81a5.891,5.891,0,0,0-4.339,0l-2.055.81a11.509,11.509,0,0,0-7.109,10.779l.494,14.082a6.334,6.334,0,0,0,3.42,5.466l5.25,2.629a5.891,5.891,0,0,0,4.339,0Z" fill="#ffda6a"/>
      <g id="Group_9009" data-name="Group 9009">
        <path id="Path_3000" data-name="Path 3000" d="M444.1,384.714v1.3l2.3-.282h2.342l2.447.831L448.95,384.6l-2.551-.058Z" fill="#373737"/>
        <path id="Path_3001" data-name="Path 3001" d="M445.345,389.5a1.628,1.628,0,0,1,3.256,0"/>
      </g>
      <g id="Group_9010" data-name="Group 9010">
        <path id="Path_3002" data-name="Path 3002" d="M439.126,384.714v1.3l-2.3-.282h-2.342l-2.447.831,2.238-1.968,2.551-.058Z" fill="#373737"/>
        <path id="Path_3003" data-name="Path 3003" d="M437.879,389.5a1.628,1.628,0,0,0-3.255,0"/>
      </g>
      <g id="Group_9011" data-name="Group 9011">
        <rect id="Rectangle_1746" data-name="Rectangle 1746" width="5.943" height="2.785" rx="1.347" transform="translate(438.641 391.12)" fill="#ffba00"/>
        <rect id="Rectangle_1747" data-name="Rectangle 1747" width="2.486" height="6.062" rx="1.149" transform="translate(440.37 388.887)" fill="#ffba00"/>
      </g>
      <path id="Path_3004" data-name="Path 3004" d="M445.884,397.023a7.714,7.714,0,0,1-8.621.008" fill="none" stroke="#000" stroke-linecap="round" stroke-linejoin="round" stroke-width="0.25"/>
      <path id="Path_3005" data-name="Path 3005" d="M445.108,398.3a6.322,6.322,0,0,1-7.07.007" fill="none" stroke="#c48000" stroke-linecap="round" stroke-linejoin="round" stroke-width="0.25"/>
      <path id="Path_3006" data-name="Path 3006" d="M439.124,397.25a2.227,2.227,0,0,1,2.489,0" fill="none" stroke="#c48000" stroke-linecap="round" stroke-linejoin="round" stroke-width="0.25"/>
      <path id="Path_3007" data-name="Path 3007" d="M441.612,397.25a2.227,2.227,0,0,1,2.489,0" fill="none" stroke="#c48000" stroke-linecap="round" stroke-linejoin="round" stroke-width="0.25"/>
      <path id="Path_3008" data-name="Path 3008" d="M430.368,388.687l-.139-5.539a10.7,10.7,0,0,1,.512-3.547l1.711-4.254" fill="none" stroke="#5d5d5d" stroke-linecap="round" stroke-linejoin="round" stroke-width="1"/>
      <path id="Path_3009" data-name="Path 3009" d="M453.033,388.687l.137-5.488a9.641,9.641,0,0,0-.607-3.617l-1.81-4.234" fill="none" stroke="#5d5d5d" stroke-linecap="round" stroke-linejoin="round" stroke-width="1"/>
      <ellipse id="Ellipse_429" data-name="Ellipse 429" cx="3.506" cy="3.5" rx="3.506" ry="3.5" transform="translate(427.144 387.166)" fill="#ffda6a"/>
      <ellipse id="Ellipse_430" data-name="Ellipse 430" cx="3.506" cy="3.5" rx="3.506" ry="3.5" transform="translate(449.098 387.166)" fill="#ffda6a"/>
    </g>
    <g id="Group_8996-2" data-name="Group 8996-2">
      <g id="Group_8995-2" data-name="Group 8995-2">
        <path id="Path_2966-2" data-name="Path 2966-2" d="M513.476,461.522v-5.205a5.225,5.225,0,0,0-1.254-3.543,4.8,4.8,0,0,0-3.674-1.479,4.592,4.592,0,0,0-4.781,4.347,25.485,25.485,0,0,1-1.494,4.9v.009a.685.685,0,0,0,.035.565.715.715,0,0,0,.47.353,1.886,1.886,0,0,0,.436.054,1.958,1.958,0,0,0,1.777-1.461l.322-.886v6.707a1.2,1.2,0,0,0,2.391,0V462.92a2.289,2.289,0,0,1,2.657.022,1.193,1.193,0,0,1,1.925-.23A1.2,1.2,0,0,0,513.476,461.522Z" fill="#ffda6a"/>
        <path id="Path_2967-2" data-name="Path 2967-2" d="M506.505,467.065a1.187,1.187,0,0,0,.732-.25v.007a1.2,1.2,0,1,0,2.39,0v-.007a1.194,1.194,0,0,0,1.926-.939v-1.361a1.2,1.2,0,0,0,1.926-.94v-7.261" fill="#ffda6a"/>
        <path id="Path_2968-2" data-name="Path 2968-2" d="M513.012,456.313v7.262a.732.732,0,0,1-1.463,0v-3.486a.231.231,0,0,0-.462,0v5.788a.732.732,0,0,1-1.464,0v-5.788a.231.231,0,0,0-.462,0v6.734a.732.732,0,0,1-1.463,0v-6.734a.231.231,0,0,0-.462,0v5.788a.731.731,0,0,1-.732.729" fill="#ffda6a"/>
        <rect id="Rectangle_1725-2" data-name="Rectangle 1725-2" width="1.925" height="3.624" transform="translate(507.699 461.562)" fill="#ffda6a"/>
      </g>
      <line id="Line_57-2" data-name="Line 57-2" y2="6.179" transform="translate(507.278 460.607)" fill="none" stroke="#000" stroke-linecap="round" stroke-linejoin="round" stroke-width="0.332"/>
      <line id="Line_58-2" data-name="Line 58-2" y2="6.179" transform="translate(509.622 460.607)" fill="none" stroke="#000" stroke-linecap="round" stroke-linejoin="round" stroke-width="0.332"/>
      <line id="Line_59-2" data-name="Line 59-2" y2="3.859" transform="translate(511.545 460.656)" fill="none" stroke="#000" stroke-linecap="round" stroke-linejoin="round" stroke-width="0.332"/>
    </g>
    <g id="Group_8998-2" data-name="Group 8998-2">
      <g id="Group_8997-2" data-name="Group 8997-2">
        <path id="Path_2969-2" data-name="Path 2969-2" d="M473.116,462.706a1.2,1.2,0,0,1,1.689-.072,1.177,1.177,0,0,1,.237.3,1.2,1.2,0,0,1,1.926.23,1.192,1.192,0,0,0,.732-.252v2.961a1.195,1.195,0,1,0,2.39,0v-6.707l.323.886a1.958,1.958,0,0,0,1.777,1.461,1.886,1.886,0,0,0,.436-.054.715.715,0,0,0,.47-.353.685.685,0,0,0,.034-.565v-.009a25.462,25.462,0,0,1-1.494-4.9,4.592,4.592,0,0,0-4.781-4.347,4.8,4.8,0,0,0-3.674,1.479,5.225,5.225,0,0,0-1.254,3.544v5.2A1.2,1.2,0,0,0,473.116,462.706Z" fill="#ffda6a"/>
        <path id="Path_2970-2" data-name="Path 2970-2" d="M478.892,467.065a1.193,1.193,0,0,1-.731-.25v.007a1.2,1.2,0,1,1-2.39,0v-.007a1.2,1.2,0,0,1-1.926-.939v-1.361a1.2,1.2,0,0,1-1.926-.94v-7.261" fill="#ffda6a"/>
        <path id="Path_2971-2" data-name="Path 2971-2" d="M472.384,456.313v7.262a.732.732,0,0,0,1.464,0v-3.486a.231.231,0,0,1,.462,0v5.788a.732.732,0,0,0,1.464,0v-5.788a.231.231,0,0,1,.462,0v6.734a.732.732,0,0,0,1.464,0v-6.734a.231.231,0,0,1,.462,0v5.788a.73.73,0,0,0,.731.729h0" fill="#ffda6a"/>
        <rect id="Rectangle_1726-2" data-name="Rectangle 1726-2" width="1.925" height="3.624" transform="translate(475.774 461.562)" fill="#ffda6a"/>
      </g>
      <line id="Line_60-2" data-name="Line 60-2" y2="6.179" transform="translate(478.119 460.607)" fill="none" stroke="#000" stroke-linecap="round" stroke-linejoin="round" stroke-width="0.332"/>
      <line id="Line_61-2" data-name="Line 61-2" y2="6.179" transform="translate(475.776 460.607)" fill="none" stroke="#000" stroke-linecap="round" stroke-linejoin="round" stroke-width="0.332"/>
      <line id="Line_62-2" data-name="Line 62-2" y2="3.859" transform="translate(473.852 460.656)" fill="none" stroke="#000" stroke-linecap="round" stroke-linejoin="round" stroke-width="0.332"/>
    </g>
    <g id="Group_8999-2" data-name="Group 8999-2">
      <path id="Rectangle_1727-2" data-name="Rectangle 1727-2" d="M492.275,400.672h1.48a21.009,21.009,0,0,1,21.007,21.009v37.158h-43.5V421.681A21.009,21.009,0,0,1,492.275,400.672Z" fill="#1e1e3a"/>
    </g>
    <g id="Rectangle_1728-2" data-name="Rectangle 1728-2">
      <rect id="Rectangle_1956" data-name="Rectangle 1956" width="12.181" height="58.766" transform="translate(479.586 457.527)" fill="#1e1e3a"/>
      <rect id="Rectangle_1957" data-name="Rectangle 1957" width="11.683" height="58.222" transform="translate(479.835 457.798)" fill="#1e1e3a"/>
    </g>
    <g id="Rectangle_1729-2" data-name="Rectangle 1729-2">
      <rect id="Rectangle_1958" data-name="Rectangle 1958" width="12.181" height="58.766" transform="translate(494.281 457.527)" fill="#1e1e3a"/>
      <rect id="Rectangle_1959" data-name="Rectangle 1959" width="11.683" height="58.222" transform="translate(494.53 457.798)" fill="#1e1e3a"/>
    </g>
    <g id="Path_2972-2" data-name="Path 2972-2">
      <path id="Path_6369" data-name="Path 6369" d="M509.625,462.395H476.4V416.743a16.612,16.612,0,0,1,33.224,0Z" fill="#2f2f57"/>
    </g>
    <rect id="Rectangle_1730-2" data-name="Rectangle 1730-2" width="11.74" height="18.022" transform="translate(487.145 394.794)" fill="#ffba00"/>
    <path id="Path_2973-2" data-name="Path 2973-2" d="M484.719,403.938l8.3,1.166,8.294-1.166-8.294,23.634Z" fill="#fff"/>
    <path id="Path_2974-2" data-name="Path 2974-2" d="M494.236,408.507H491.8l-1.03-3.386h4.5Z" fill="#6284d3"/>
    <path id="Path_2975-2" data-name="Path 2975-2" d="M491.8,408.51h2.439l1.136,10.5-2.359,8.559-2.36-8.475Z" fill="#6284d3"/>
    <g id="Path_2983-2" data-name="Path 2983-2">
      <path id="Path_6370" data-name="Path 6370" d="M495.4,409.158l-2.066-3.981,5.5-4.155,2.143,2.887Z" fill="#fff"/>
      <path id="Path_6371" data-name="Path 6371" d="M498.784,401.372l-5.134,3.877,1.817,3.5,5.178-4.871-1.861-2.508m.1-.7,2.425,3.267-5.98,5.626-2.315-4.46Z" fill="#fff"/>
    </g>
    <g id="Path_2984-2" data-name="Path 2984-2">
      <path id="Path_6372" data-name="Path 6372" d="M490.63,409.158l-5.579-5.249,2.144-2.887,5.5,4.155Z" fill="#fff"/>
      <path id="Path_6373" data-name="Path 6373" d="M487.245,401.372l-1.862,2.508,5.178,4.871,1.818-3.5-5.134-3.877m-.1-.7,5.87,4.433-2.314,4.46-5.981-5.626Z" fill="#fff"/>
    </g>
    <g id="Path_2985-2" data-name="Path 2985-2">
      <path id="Path_6374" data-name="Path 6374" d="M493.014,427.572l-10.775-14.744,2.082-2.385.123-.14-.1-.157-2.746-4.3,5.394-4.7Z" fill="#1e1e3a"/>
    </g>
    <g id="Path_2986-2" data-name="Path 2986-2">
      <path id="Path_6375" data-name="Path 6375" d="M493.014,427.572l6.022-26.435,5.395,4.7-2.746,4.3-.1.157.123.14,2.082,2.385Z" fill="#1e1e3a"/>
    </g>
    <path id="Path_6376" data-name="Path 6376" d="M492.924,399.487h0c-6.1,0-9.931-3.428-11.047-10.073v-9.327a11.047,11.047,0,0,1,11.047-11.047h0a11.046,11.046,0,0,1,11.046,11.047v9.327C502.855,396.376,499.025,399.487,492.924,399.487Z" fill="#ffda6a"/>
    <path id="Rectangle_1744-2" data-name="Rectangle 1744-2" d="M513.811,522.975H494.8v-6.682h12.548a6.467,6.467,0,0,1,6.467,6.466v.216Z"/>
    <path id="Rectangle_1745-2" data-name="Rectangle 1745-2" d="M478.728,516.292h12.55v6.682H472.261v-.215A6.467,6.467,0,0,1,478.728,516.292Z"/>
    <path id="Path_6377" data-name="Path 6377" d="M499.9,372.366c1.239,1.429,5.352,4.92,4.342,14.332,0,0,2.357-2.486,2.357-9.069,0-5.108-2.448-7.011-4.987-7.982a1.12,1.12,0,0,0-1.489.466l-.4,1.023A1.145,1.145,0,0,0,499.9,372.366Z"/>
    <path id="Path_6378" data-name="Path 6378" d="M498.038,371.4a1.224,1.224,0,0,0,1.377-.641l.576-1.179c.191-.383.908-4.768-4.976-5.586-7.215-1-15.541,6.277-15.961,15.572a19.177,19.177,0,0,0,.894,6.007L481.6,386.7s-1.414-11.243,6.1-14.661A15.482,15.482,0,0,1,498.038,371.4Z"/>
    <ellipse id="Ellipse_429-2" data-name="Ellipse 429-2" cx="3.587" cy="3.581" rx="3.587" ry="3.581" transform="translate(478.105 382.569)" fill="#ffda6a"/>
    <ellipse id="Ellipse_430-2" data-name="Ellipse 430-2" cx="3.587" cy="3.581" rx="3.587" ry="3.581" transform="translate(500.568 382.569)" fill="#ffda6a"/>
    <rect id="Rectangle_1731-2" data-name="Rectangle 1731-2" width="5.659" height="1.988" rx="0.964" transform="translate(490.187 387.132)" fill="#ffba00"/>
    <rect id="Rectangle_1732-2" data-name="Rectangle 1732-2" width="2.367" height="6.484" rx="1.143" transform="translate(491.827 383.471)" fill="#ffba00"/>
    <g id="Group_9025-2" data-name="Group 9025-2">
      <path id="Path_3030-2" data-name="Path 3030-2" d="M491.5,383.477s-.674-1.195-4.066-1.021c-3.839.193-4.382.957-4.4,1.282a2.692,2.692,0,0,0,.41,1.947,6.012,6.012,0,0,0,3.945,1.368,5.884,5.884,0,0,0,3.2-.759C491.176,385.846,492.13,384.2,491.5,383.477Z" fill="none" stroke="#1e1e1e" stroke-miterlimit="10" stroke-width="0.249"/>
      <path id="Path_3031-2" data-name="Path 3031-2" d="M494.345,383.477s.674-1.195,4.066-1.021c3.839.193,4.382.957,4.4,1.282a2.693,2.693,0,0,1-.409,1.947,6.012,6.012,0,0,1-3.946,1.368,5.884,5.884,0,0,1-3.2-.759C494.672,385.846,493.716,384.2,494.345,383.477Z" fill="none" stroke="#1e1e1e" stroke-miterlimit="10" stroke-width="0.249"/>
      <path id="Path_3032-2" data-name="Path 3032-2" d="M494.159,384.18a3.217,3.217,0,0,0-2.471,0" fill="none" stroke="#1e1e1e" stroke-miterlimit="10" stroke-width="0.498"/>
    </g>
    <path id="Path_3004-2" data-name="Path 3004-2" d="M497.219,391.756a7.684,7.684,0,0,1-8.587.008" fill="none" stroke="#000" stroke-linecap="round" stroke-linejoin="round" stroke-width="0.249"/>
    <path id="Path_6379" data-name="Path 6379" d="M495.135,379.383l4.133.1,1.434,1.879-2.194-.9-3.493.131Z"/>
    <path id="Path_3001-2" data-name="Path 3001-2" d="M496.356,384.751a1.622,1.622,0,0,1,3.243-.007"/>
    <path id="Path_3001-2-2" data-name="Path 3001-2" d="M486.563,384.751a1.622,1.622,0,0,1,3.243-.007"/>
    <path id="Path_6380" data-name="Path 6380" d="M490.67,379.383l-4.133.1-1.434,1.879,2.194-.9,3.493.131Z"/>
  </g>
</svg>
