<svg id="home-story" xmlns="http://www.w3.org/2000/svg" width="27.036" height="27.036" viewBox="0 0 27.036 27.036">
  <path id="Path_2868" data-name="Path 2868" d="M163.53,150.9a.934.934,0,0,1-.638,1.586l-12.6-.089-12.644-.089a.935.935,0,0,1-.625-1.586l12.537-13.045a.869.869,0,0,1,1.263,0Z" transform="translate(-136.757 -137.408)" fill="#fff"/>
  <path id="Path_2869" data-name="Path 2869" d="M161.579,235.365v14.146a1.375,1.375,0,0,0,1.339,1.408h5.21v-8.087a1.931,1.931,0,0,1,1.881-1.978h4.181a1.931,1.931,0,0,1,1.881,1.978v8.087h5.21a1.375,1.375,0,0,0,1.339-1.408V235.365Z" transform="translate(-158.67 -223.884)" fill="#fff"/>
</svg>
