<svg xmlns="http://www.w3.org/2000/svg" width="85.495" height="85.494" viewBox="0 0 85.495 85.494">
    <defs>
        <style>
            .cls-1{fill:#ff7c6b}
        </style>
    </defs>
    <g id="icon-win" transform="translate(-922 -478.691)">
        <path id="Path_2387" d="M993.595 614.772a42.747 42.747 0 1 1 42.747-42.747 42.8 42.8 0 0 1-42.747 42.747zm0-76.154A33.407 33.407 0 1 0 1027 572.026a33.446 33.446 0 0 0-33.405-33.408z" class="cls-1" data-name="Path 2387" transform="translate(-28.847 -50.587)"/>
        <path id="Path_2388" d="M963.67 614.772A4.672 4.672 0 0 1 959 610.1v-76.152a4.67 4.67 0 1 1 9.34 0V610.1a4.672 4.672 0 0 1-4.67 4.672z" class="cls-1" data-name="Path 2388" transform="rotate(-24 844.647 543.867)"/>
        <path id="Path_2389" d="M958.649 570.017a4.67 4.67 0 0 1-3.3-7.972l22.771-22.773a4.67 4.67 0 0 1 6.6 6.6l-22.77 22.777a4.654 4.654 0 0 1-3.301 1.368z" class="cls-1" data-name="Path 2389" transform="rotate(-24 928.267 571.36)"/>
    </g>
</svg>
