<svg xmlns="http://www.w3.org/2000/svg" width="30" height="30" viewBox="0 0 30 30">
    <defs>
        <style>
            .cls-1,.cls-3,.cls-6{fill:none}.cls-1{stroke:#424242}.cls-2{fill:#424242}.cls-3{stroke:#fff}.cls-4{fill:#fff}.cls-5{stroke:none}
        </style>
    </defs>
    <g id="fb-header-share" transform="translate(-1166 -34)">
        <g id="Group_5827" data-name="Group 5827" transform="translate(2)">
            <g id="Rectangle_824" class="cls-1" data-name="Rectangle 824" transform="translate(1164 34)">
                <rect width="30" height="30" class="cls-5" rx="15"/>
                <rect width="29" height="29" x=".5" y=".5" class="cls-6" rx="14.5"/>
            </g>
        </g>
        <g id="Group_8369" data-name="Group 8369" transform="translate(-3325.859 -969.859)">
            <path id="Path_2905" d="M2.286 0h11.428A2.286 2.286 0 0 1 16 2.286v11.428A2.286 2.286 0 0 1 13.714 16H2.286A2.286 2.286 0 0 1 0 13.714V2.286A2.286 2.286 0 0 1 2.286 0z" class="cls-2" data-name="Path 2905" transform="translate(4498.859 1010.859)"/>
            <g id="Ellipse_410" class="cls-3" data-name="Ellipse 410" transform="translate(4502.859 1014.859)">
                <circle cx="4" cy="4" r="4" class="cls-5"/>
                <circle cx="4" cy="4" r="3.5" class="cls-6"/>
            </g>
            <circle id="Ellipse_411" cx="1.018" cy="1.018" r="1.018" class="cls-4" data-name="Ellipse 411" transform="translate(4510.259 1013.709)"/>
        </g>
    </g>
</svg>
