<svg xmlns="http://www.w3.org/2000/svg" width="363.75" height="132.753" viewBox="0 0 363.75 132.753">
  <g id="Group_8826" data-name="Group 8826" transform="translate(-1332.352 -413.164)">
    <g id="Group_8825" data-name="Group 8825" transform="translate(1337.475 420.053)">
      <path id="Path_3402" data-name="Path 3402" d="M1535.632,504.138a30.294,30.294,0,0,1-30.294-30.294h12.092a18.2,18.2,0,0,0,18.2,18.2Z" transform="translate(-1289.186 -404.074)" fill="none" stroke="#c4c4c4" stroke-miterlimit="10" stroke-width="1.5"/>
      <rect id="Rectangle_1577" data-name="Rectangle 1577" width="18.798" height="12.095" transform="translate(179.152 87.969)" fill="none" stroke="#c4c4c4" stroke-miterlimit="10" stroke-width="1.5"/>
      <rect id="Rectangle_1578" data-name="Rectangle 1578" width="18.798" height="12.095" transform="translate(246.445 87.969)" fill="none" stroke="#c4c4c4" stroke-miterlimit="10" stroke-width="1.5"/>
      <path id="Path_3403" data-name="Path 3403" d="M1491.13,504.138a30.3,30.3,0,0,0,30.294-30.294h-12.092a18.2,18.2,0,0,1-18.2,18.2Z" transform="translate(-1293.181 -404.074)" fill="none" stroke="#c4c4c4" stroke-miterlimit="10" stroke-width="1.5"/>
      <path id="Path_3404" data-name="Path 3404" d="M1485.21,523.691a30.294,30.294,0,0,1-30.294-30.293h12.091a18.2,18.2,0,0,0,18.2,18.2Z" transform="translate(-1303.363 -398.576)" fill="none" stroke="#c4c4c4" stroke-miterlimit="10" stroke-width="1.5"/>
      <rect id="Rectangle_1579" data-name="Rectangle 1579" width="30.14" height="12.095" transform="translate(0.154 47.468)" fill="none" stroke="#c4c4c4" stroke-miterlimit="10" stroke-width="1.5"/>
      <rect id="Rectangle_1580" data-name="Rectangle 1580" width="30.14" height="12.095" transform="translate(94.921 35.373)" fill="none" stroke="#c4c4c4" stroke-miterlimit="10" stroke-width="1.5"/>
      <rect id="Rectangle_1581" data-name="Rectangle 1581" width="30.14" height="12.095" transform="translate(0.154 26.691)" fill="none" stroke="#c4c4c4" stroke-miterlimit="10" stroke-width="1.5"/>
      <rect id="Rectangle_1582" data-name="Rectangle 1582" width="30.14" height="12.095" transform="translate(136.92 35.373)" fill="none" stroke="#c4c4c4" stroke-miterlimit="10" stroke-width="1.5"/>
      <rect id="Rectangle_1583" data-name="Rectangle 1583" width="47.035" height="12.095" transform="translate(48.12 100.924)" fill="none" stroke="#c4c4c4" stroke-miterlimit="10" stroke-width="1.5"/>
      <path id="Path_3405" data-name="Path 3405" d="M1336.622,508.858a30.294,30.294,0,0,0,30.294-30.293h-12.092a18.2,18.2,0,0,1-18.2,18.2Z" transform="translate(-1336.622 -402.747)" fill="none" stroke="#c4c4c4" stroke-miterlimit="10" stroke-width="1.5"/>
      <rect id="Rectangle_1584" data-name="Rectangle 1584" width="30.14" height="12.095" transform="translate(94.921 59.563)" fill="none" stroke="#c4c4c4" stroke-miterlimit="10" stroke-width="1.5"/>
      <rect id="Rectangle_1585" data-name="Rectangle 1585" width="85.366" height="12.095" transform="translate(177.356 47.468)" fill="none" stroke="#c4c4c4" stroke-miterlimit="10" stroke-width="1.5"/>
      <rect id="Rectangle_1586" data-name="Rectangle 1586" width="21.039" height="12.095" transform="translate(59.01 54.623)" fill="none" stroke="#c4c4c4" stroke-miterlimit="10" stroke-width="1.5"/>
      <rect id="Rectangle_1587" data-name="Rectangle 1587" width="21.039" height="12.095" transform="translate(59.01 72.822)" fill="none" stroke="#c4c4c4" stroke-miterlimit="10" stroke-width="1.5"/>
      <rect id="Rectangle_1588" data-name="Rectangle 1588" width="42.232" height="12.095" transform="translate(136.92 75.818)" fill="none" stroke="#c4c4c4" stroke-miterlimit="10" stroke-width="1.5"/>
      <path id="Path_3406" data-name="Path 3406" d="M1410.593,504.647a30.294,30.294,0,0,0,30.293-30.294h-12.092a18.2,18.2,0,0,1-18.2,18.2Z" transform="translate(-1315.825 -403.931)" fill="none" stroke="#c4c4c4" stroke-miterlimit="10" stroke-width="1.5"/>
      <path id="Path_3407" data-name="Path 3407" d="M1438.566,523.691a30.293,30.293,0,0,0,30.293-30.293h-12.092a18.2,18.2,0,0,1-18.2,18.2Z" transform="translate(-1307.96 -398.576)" fill="none" stroke="#c4c4c4" stroke-miterlimit="10" stroke-width="1.5"/>
      <path id="Path_3408" data-name="Path 3408" d="M1448.153,485.971a30.294,30.294,0,0,0,30.294-30.293h-12.092a18.2,18.2,0,0,1-18.2,18.2Z" transform="translate(-1305.264 -409.182)" fill="none" stroke="#c4c4c4" stroke-miterlimit="10" stroke-width="1.5"/>
      <path id="Path_3409" data-name="Path 3409" d="M1622.892,515.034a31.58,31.58,0,0,1-31.581-31.579h12.605a18.975,18.975,0,0,0,18.975,18.975Z" transform="translate(-1265.014 -401.372)" fill="none" stroke="#c4c4c4" stroke-miterlimit="10" stroke-width="1.5"/>
      <path id="Path_3410" data-name="Path 3410" d="M1574.267,515.034a31.579,31.579,0,0,0,31.579-31.579h-12.6a18.975,18.975,0,0,1-18.975,18.975Z" transform="translate(-1269.807 -401.372)" fill="none" stroke="#c4c4c4" stroke-miterlimit="10" stroke-width="1.5"/>
      <path id="Path_3411" data-name="Path 3411" d="M1417.542,472.525a30.294,30.294,0,0,1-30.294-30.293h12.093a18.2,18.2,0,0,0,18.2,18.2Z" transform="translate(-1322.388 -412.962)" fill="none" stroke="#c4c4c4" stroke-miterlimit="10" stroke-width="1.5"/>
      <path id="Path_3412" data-name="Path 3412" d="M1370.9,472.525a30.294,30.294,0,0,0,30.294-30.293H1389.1a18.2,18.2,0,0,1-18.2,18.2Z" transform="translate(-1326.985 -412.962)" fill="none" stroke="#c4c4c4" stroke-miterlimit="10" stroke-width="1.5"/>
      <path id="Path_3413" data-name="Path 3413" d="M1382.721,492.315a30.294,30.294,0,0,0,30.294-30.294h-12.092a18.2,18.2,0,0,1-18.2,18.2Z" transform="translate(-1323.661 -407.398)" fill="none" stroke="#c4c4c4" stroke-miterlimit="10" stroke-width="1.5"/>
      <path id="Path_3414" data-name="Path 3414" d="M1382.721,506.52a30.3,30.3,0,0,0,30.294-30.294h-12.092a18.2,18.2,0,0,1-18.2,18.2Z" transform="translate(-1323.661 -403.405)" fill="none" stroke="#c4c4c4" stroke-miterlimit="10" stroke-width="1.5"/>
      <path id="Path_3415" data-name="Path 3415" d="M1364.957,492.315a30.293,30.293,0,0,0,30.293-30.294h-12.092a18.2,18.2,0,0,1-18.2,18.2Z" transform="translate(-1328.655 -407.398)" fill="none" stroke="#c4c4c4" stroke-miterlimit="10" stroke-width="1.5"/>
      <path id="Path_3416" data-name="Path 3416" d="M1381.131,502.158a18.2,18.2,0,0,1-18.2-18.2h-12.092a30.294,30.294,0,0,0,30.294,30.293Z" transform="translate(-1332.625 -401.231)" fill="none" stroke="#c4c4c4" stroke-miterlimit="10" stroke-width="1.5"/>
      <rect id="Rectangle_1589" data-name="Rectangle 1589" width="12.092" height="28.67" transform="translate(18.203 59.563)" fill="none" stroke="#c4c4c4" stroke-miterlimit="10" stroke-width="1.5"/>
      <rect id="Rectangle_1590" data-name="Rectangle 1590" width="30.14" height="12.095" transform="translate(262.876 59.526)" fill="none" stroke="#c4c4c4" stroke-miterlimit="10" stroke-width="1.5"/>
      <rect id="Rectangle_1591" data-name="Rectangle 1591" width="30.14" height="12.095" transform="translate(262.876 35.373)" fill="none" stroke="#c4c4c4" stroke-miterlimit="10" stroke-width="1.5"/>
      <rect id="Rectangle_1592" data-name="Rectangle 1592" width="53.416" height="12.095" transform="translate(304.461 61.906)" fill="none" stroke="#c4c4c4" stroke-miterlimit="10" stroke-width="1.5"/>
      <rect id="Rectangle_1593" data-name="Rectangle 1593" width="53.416" height="12.095" transform="translate(304.461 77.601)" fill="none" stroke="#c4c4c4" stroke-miterlimit="10" stroke-width="1.5"/>
      <rect id="Rectangle_1594" data-name="Rectangle 1594" width="47.035" height="12.095" transform="translate(310.842 112.982)" fill="none" stroke="#c4c4c4" stroke-miterlimit="10" stroke-width="1.5"/>
      <path id="Path_3417" data-name="Path 3417" d="M1541.689,518.27a30.3,30.3,0,0,0,30.294-30.294H1559.89a18.2,18.2,0,0,1-18.2,18.2Z" transform="translate(-1278.966 -400.101)" fill="none" stroke="#c4c4c4" stroke-miterlimit="10" stroke-width="1.5"/>
      <path id="Path_3418" data-name="Path 3418" d="M1586.2,511.571a18.2,18.2,0,0,1-18.2-18.2H1555.9a30.294,30.294,0,0,0,30.294,30.294Z" transform="translate(-1274.969 -398.585)" fill="none" stroke="#c4c4c4" stroke-miterlimit="10" stroke-width="1.5"/>
      <rect id="Rectangle_1595" data-name="Rectangle 1595" width="12.092" height="28.67" transform="translate(280.925 71.621)" fill="none" stroke="#c4c4c4" stroke-miterlimit="10" stroke-width="1.5"/>
      <rect id="Rectangle_1596" data-name="Rectangle 1596" width="12.092" height="48.798" transform="translate(112.97 70.422)" fill="none" stroke="#c4c4c4" stroke-miterlimit="10" stroke-width="1.5"/>
      <rect id="Rectangle_1597" data-name="Rectangle 1597" width="12.092" height="47.207" transform="translate(216.152 26.691)" fill="none" stroke="#c4c4c4" stroke-miterlimit="10" stroke-width="1.5"/>
      <rect id="Rectangle_1598" data-name="Rectangle 1598" width="12.092" height="49.126" transform="translate(136.92 38.787)" fill="none" stroke="#c4c4c4" stroke-miterlimit="10" stroke-width="1.5"/>
      <rect id="Rectangle_1599" data-name="Rectangle 1599" width="12.092" height="52.54" transform="translate(167.06 35.373)" fill="none" stroke="#c4c4c4" stroke-miterlimit="10" stroke-width="1.5"/>
      <rect id="Rectangle_1600" data-name="Rectangle 1600" width="25.654" height="12.095" transform="translate(332.222 10.773)" fill="none" stroke="#c4c4c4" stroke-miterlimit="10" stroke-width="1.5"/>
      <rect id="Rectangle_1601" data-name="Rectangle 1601" width="25.654" height="12.095" transform="translate(332.222 45.17)" fill="none" stroke="#c4c4c4" stroke-miterlimit="10" stroke-width="1.5"/>
      <rect id="Rectangle_1602" data-name="Rectangle 1602" width="25.654" height="12.095" transform="translate(332.222 28.435)" fill="none" stroke="#c4c4c4" stroke-miterlimit="10" stroke-width="1.5"/>
      <rect id="Rectangle_1603" data-name="Rectangle 1603" width="12.804" height="19.411" transform="translate(332.222 28.435)" fill="none" stroke="#c4c4c4" stroke-miterlimit="10" stroke-width="1.5"/>
      <rect id="Rectangle_1604" data-name="Rectangle 1604" width="12.851" height="29.757" transform="translate(345.026 10.773)" fill="none" stroke="#c4c4c4" stroke-miterlimit="10" stroke-width="1.5"/>
      <rect id="Rectangle_1605" data-name="Rectangle 1605" width="25.654" height="12.095" transform="translate(304.461 10.773)" fill="none" stroke="#c4c4c4" stroke-miterlimit="10" stroke-width="1.5"/>
      <rect id="Rectangle_1606" data-name="Rectangle 1606" width="25.654" height="12.095" transform="translate(304.461 45.17)" fill="none" stroke="#c4c4c4" stroke-miterlimit="10" stroke-width="1.5"/>
      <rect id="Rectangle_1607" data-name="Rectangle 1607" width="25.654" height="12.095" transform="translate(304.461 28.435)" fill="none" stroke="#c4c4c4" stroke-miterlimit="10" stroke-width="1.5"/>
      <rect id="Rectangle_1608" data-name="Rectangle 1608" width="12.804" height="19.411" transform="translate(304.461 28.435)" fill="none" stroke="#c4c4c4" stroke-miterlimit="10" stroke-width="1.5"/>
      <rect id="Rectangle_1609" data-name="Rectangle 1609" width="12.851" height="29.757" transform="translate(317.264 10.773)" fill="none" stroke="#c4c4c4" stroke-miterlimit="10" stroke-width="1.5"/>
      <rect id="Rectangle_1610" data-name="Rectangle 1610" width="12.092" height="41.048" transform="translate(314.205 47.844)" fill="none" stroke="#c4c4c4" stroke-miterlimit="10" stroke-width="1.5"/>
      <rect id="Rectangle_1611" data-name="Rectangle 1611" width="12.092" height="41.048" transform="translate(336.041 47.844)" fill="none" stroke="#c4c4c4" stroke-miterlimit="10" stroke-width="1.5"/>
      <rect id="Rectangle_1612" data-name="Rectangle 1612" width="42.232" height="12.095" transform="translate(48.559 17.174)" fill="none" stroke="#c4c4c4" stroke-miterlimit="10" stroke-width="1.5"/>
      <rect id="Rectangle_1613" data-name="Rectangle 1613" width="42.232" height="12.095" transform="translate(48.559)" fill="none" stroke="#c4c4c4" stroke-miterlimit="10" stroke-width="1.5"/>
      <rect id="Rectangle_1614" data-name="Rectangle 1614" width="15.171" height="23.222" transform="translate(61.944 6.048)" fill="none" stroke="#c4c4c4" stroke-miterlimit="10" stroke-width="1.5"/>
    </g>
    <g id="Group_8824" data-name="Group 8824" transform="translate(1332.352 413.164)">
      <path id="Path_3385" data-name="Path 3385" d="M1533.361,508.268a30.293,30.293,0,0,1-30.293-30.293h12.092a18.2,18.2,0,0,0,18.2,18.2Z" transform="translate(-1286.916 -408.205)" fill="#424242"/>
      <rect id="Rectangle_1539" data-name="Rectangle 1539" width="18.798" height="12.095" transform="translate(179.151 87.969)" fill="#424242"/>
      <rect id="Rectangle_1540" data-name="Rectangle 1540" width="18.798" height="12.095" transform="translate(246.445 87.969)" fill="#424242"/>
      <path id="Path_3386" data-name="Path 3386" d="M1488.86,508.268a30.294,30.294,0,0,0,30.294-30.293h-12.092a18.2,18.2,0,0,1-18.2,18.2Z" transform="translate(-1290.911 -408.205)" fill="#424242"/>
      <path id="Path_3387" data-name="Path 3387" d="M1482.939,527.822a30.294,30.294,0,0,1-30.293-30.294h12.092a18.2,18.2,0,0,0,18.2,18.2Z" transform="translate(-1301.093 -402.707)" fill="#424242"/>
      <rect id="Rectangle_1541" data-name="Rectangle 1541" width="30.14" height="12.095" transform="translate(0.153 47.468)" fill="#424242"/>
      <rect id="Rectangle_1542" data-name="Rectangle 1542" width="30.14" height="12.095" transform="translate(94.921 35.373)" fill="#424242"/>
      <rect id="Rectangle_1543" data-name="Rectangle 1543" width="30.14" height="12.095" transform="translate(0.153 26.691)" fill="#424242"/>
      <rect id="Rectangle_1544" data-name="Rectangle 1544" width="30.14" height="12.095" transform="translate(136.919 35.373)" fill="#424242"/>
      <rect id="Rectangle_1545" data-name="Rectangle 1545" width="47.035" height="12.095" transform="translate(48.119 100.924)" fill="#424242"/>
      <path id="Path_3388" data-name="Path 3388" d="M1334.352,512.989a30.3,30.3,0,0,0,30.294-30.294h-12.092a18.2,18.2,0,0,1-18.2,18.2Z" transform="translate(-1334.352 -406.878)" fill="#424242"/>
      <rect id="Rectangle_1546" data-name="Rectangle 1546" width="30.14" height="12.095" transform="translate(94.921 59.563)" fill="#424242"/>
      <rect id="Rectangle_1547" data-name="Rectangle 1547" width="85.366" height="12.095" transform="translate(177.356 47.468)" fill="#424242"/>
      <rect id="Rectangle_1548" data-name="Rectangle 1548" width="21.039" height="12.095" transform="translate(59.009 54.623)" fill="#424242"/>
      <rect id="Rectangle_1549" data-name="Rectangle 1549" width="21.039" height="12.095" transform="translate(59.009 72.822)" fill="#424242"/>
      <rect id="Rectangle_1550" data-name="Rectangle 1550" width="42.232" height="12.095" transform="translate(136.919 75.818)" fill="#424242"/>
      <path id="Path_3389" data-name="Path 3389" d="M1408.322,508.778a30.3,30.3,0,0,0,30.294-30.294h-12.092a18.2,18.2,0,0,1-18.2,18.2Z" transform="translate(-1313.555 -408.062)" fill="#424242"/>
      <path id="Path_3390" data-name="Path 3390" d="M1436.3,527.822a30.294,30.294,0,0,0,30.294-30.294H1454.5a18.2,18.2,0,0,1-18.2,18.2Z" transform="translate(-1305.69 -402.707)" fill="#424242"/>
      <path id="Path_3391" data-name="Path 3391" d="M1445.883,490.1a30.3,30.3,0,0,0,30.294-30.294h-12.093a18.2,18.2,0,0,1-18.2,18.2Z" transform="translate(-1302.994 -413.312)" fill="#424242"/>
      <path id="Path_3392" data-name="Path 3392" d="M1620.62,519.165a31.58,31.58,0,0,1-31.579-31.58h12.605a18.975,18.975,0,0,0,18.974,18.975Z" transform="translate(-1262.745 -405.503)" fill="#424242"/>
      <path id="Path_3393" data-name="Path 3393" d="M1572,519.165a31.58,31.58,0,0,0,31.579-31.58h-12.605A18.975,18.975,0,0,1,1572,506.56Z" transform="translate(-1267.537 -405.503)" fill="#424242"/>
      <path id="Path_3394" data-name="Path 3394" d="M1415.272,476.656a30.3,30.3,0,0,1-30.294-30.294h12.092a18.2,18.2,0,0,0,18.2,18.2Z" transform="translate(-1320.118 -417.093)" fill="#424242"/>
      <path id="Path_3395" data-name="Path 3395" d="M1368.628,476.656a30.3,30.3,0,0,0,30.294-30.294h-12.093a18.2,18.2,0,0,1-18.2,18.2Z" transform="translate(-1324.715 -417.093)" fill="#424242"/>
      <path id="Path_3396" data-name="Path 3396" d="M1380.451,496.446a30.293,30.293,0,0,0,30.293-30.294h-12.092a18.2,18.2,0,0,1-18.2,18.2Z" transform="translate(-1321.391 -411.529)" fill="#424242"/>
      <path id="Path_3397" data-name="Path 3397" d="M1380.451,510.65a30.292,30.292,0,0,0,30.293-30.293h-12.092a18.2,18.2,0,0,1-18.2,18.2Z" transform="translate(-1321.391 -407.535)" fill="#424242"/>
      <path id="Path_3398" data-name="Path 3398" d="M1362.686,496.446a30.294,30.294,0,0,0,30.294-30.294h-12.092a18.2,18.2,0,0,1-18.2,18.2Z" transform="translate(-1326.386 -411.529)" fill="#424242"/>
      <path id="Path_3399" data-name="Path 3399" d="M1378.861,506.29a18.2,18.2,0,0,1-18.2-18.2h-12.092a30.3,30.3,0,0,0,30.294,30.294Z" transform="translate(-1330.355 -405.362)" fill="#424242"/>
      <rect id="Rectangle_1551" data-name="Rectangle 1551" width="12.092" height="28.67" transform="translate(18.202 59.563)" fill="#424242"/>
      <rect id="Rectangle_1552" data-name="Rectangle 1552" width="30.14" height="12.095" transform="translate(262.876 59.526)" fill="#424242"/>
      <rect id="Rectangle_1553" data-name="Rectangle 1553" width="30.14" height="12.095" transform="translate(262.876 35.373)" fill="#424242"/>
      <rect id="Rectangle_1554" data-name="Rectangle 1554" width="53.416" height="12.095" transform="translate(304.46 61.906)" fill="#424242"/>
      <rect id="Rectangle_1555" data-name="Rectangle 1555" width="53.416" height="12.095" transform="translate(304.46 77.601)" fill="#424242"/>
      <rect id="Rectangle_1556" data-name="Rectangle 1556" width="47.035" height="12.095" transform="translate(310.841 112.982)" fill="#424242"/>
      <path id="Path_3400" data-name="Path 3400" d="M1539.418,522.4a30.293,30.293,0,0,0,30.294-30.293h-12.092a18.2,18.2,0,0,1-18.2,18.2Z" transform="translate(-1276.696 -404.231)" fill="#424242"/>
      <path id="Path_3401" data-name="Path 3401" d="M1583.927,515.7a18.2,18.2,0,0,1-18.2-18.2h-12.092a30.293,30.293,0,0,0,30.293,30.293Z" transform="translate(-1272.7 -402.715)" fill="#424242"/>
      <rect id="Rectangle_1557" data-name="Rectangle 1557" width="12.092" height="28.67" transform="translate(280.924 71.621)" fill="#424242"/>
      <rect id="Rectangle_1558" data-name="Rectangle 1558" width="12.092" height="48.798" transform="translate(112.97 70.422)" fill="#424242"/>
      <rect id="Rectangle_1559" data-name="Rectangle 1559" width="12.092" height="47.207" transform="translate(216.151 26.691)" fill="#424242"/>
      <rect id="Rectangle_1560" data-name="Rectangle 1560" width="12.092" height="49.126" transform="translate(136.919 38.787)" fill="#424242"/>
      <rect id="Rectangle_1561" data-name="Rectangle 1561" width="12.092" height="52.54" transform="translate(167.06 35.373)" fill="#424242"/>
      <rect id="Rectangle_1562" data-name="Rectangle 1562" width="25.654" height="12.095" transform="translate(332.222 10.773)" fill="#424242"/>
      <rect id="Rectangle_1563" data-name="Rectangle 1563" width="25.654" height="12.095" transform="translate(332.222 45.17)" fill="#424242"/>
      <rect id="Rectangle_1564" data-name="Rectangle 1564" width="25.654" height="12.095" transform="translate(332.222 28.435)" fill="#424242"/>
      <rect id="Rectangle_1565" data-name="Rectangle 1565" width="12.804" height="19.411" transform="translate(332.222 28.435)" fill="#424242"/>
      <rect id="Rectangle_1566" data-name="Rectangle 1566" width="12.851" height="29.757" transform="translate(345.025 10.773)" fill="#424242"/>
      <rect id="Rectangle_1567" data-name="Rectangle 1567" width="25.654" height="12.095" transform="translate(304.46 10.773)" fill="#424242"/>
      <rect id="Rectangle_1568" data-name="Rectangle 1568" width="25.654" height="12.095" transform="translate(304.46 45.17)" fill="#424242"/>
      <rect id="Rectangle_1569" data-name="Rectangle 1569" width="25.654" height="12.095" transform="translate(304.46 28.435)" fill="#424242"/>
      <rect id="Rectangle_1570" data-name="Rectangle 1570" width="12.804" height="19.411" transform="translate(304.46 28.435)" fill="#424242"/>
      <rect id="Rectangle_1571" data-name="Rectangle 1571" width="12.851" height="29.757" transform="translate(317.264 10.773)" fill="#424242"/>
      <rect id="Rectangle_1572" data-name="Rectangle 1572" width="12.092" height="41.048" transform="translate(314.204 47.844)" fill="#424242"/>
      <rect id="Rectangle_1573" data-name="Rectangle 1573" width="12.092" height="41.048" transform="translate(336.04 47.844)" fill="#424242"/>
      <rect id="Rectangle_1574" data-name="Rectangle 1574" width="42.232" height="12.095" transform="translate(48.558 17.174)" fill="#424242"/>
      <rect id="Rectangle_1575" data-name="Rectangle 1575" width="42.232" height="12.095" transform="translate(48.558)" fill="#424242"/>
      <rect id="Rectangle_1576" data-name="Rectangle 1576" width="15.171" height="23.222" transform="translate(61.944 6.048)" fill="#424242"/>
    </g>
  </g>
</svg>
