<svg xmlns="http://www.w3.org/2000/svg" width="30" height="30" viewBox="0 0 30 30">
  <g id="line_header_share" data-name="line header share" transform="translate(-1215 -35)">
    <g id="Rectangle_823" data-name="Rectangle 823" transform="translate(1215 35)" fill="none" stroke="#424242" stroke-width="1">
      <rect width="30" height="30" rx="15" stroke="none"/>
      <rect x="0.5" y="0.5" width="29" height="29" rx="14.5" fill="none"/>
    </g>
    <path id="line_header_share-2" data-name="line header share" d="M17.385,7.178C17.385,3.2,13.459,0,8.692,0S0,3.2,0,7.178s3.084,6.505,7.29,7.066c.28.056.673.168.785.449a1.851,1.851,0,0,1,0,.785l-.112.729c-.056.224-.168.9.729.449a30.59,30.59,0,0,0,6.842-5.1h0a6.449,6.449,0,0,0,1.851-4.374ZM5.608,9.253a.168.168,0,0,1-.168.168H2.916V9.309h0V5.44a.168.168,0,0,1,.168-.168h.561a.168.168,0,0,1,.168.168h0V8.468H5.5a.168.168,0,0,1,.168.168h0Zm1.458,0a.168.168,0,0,1-.168.168H6.337a.168.168,0,0,1-.168-.168h0V5.44a.168.168,0,0,1,.168-.168h.617a.168.168,0,0,1,.168.168h0Zm4.206,0a.168.168,0,0,1-.168.168h-.729L8.636,7.01v2.3a.168.168,0,0,1-.168.168H7.851a.168.168,0,0,1-.168-.168h0V5.44a.168.168,0,0,1,.168-.168H8.58l1.738,2.355V5.44a.168.168,0,0,1,.168-.168H11.1a.168.168,0,0,1,.168.168h0ZM14.637,6a.168.168,0,0,1-.168.168H12.786v.673h1.682a.168.168,0,0,1,.168.168h0v.617a.168.168,0,0,1-.168.168H12.786v.673h1.682a.168.168,0,0,1,.168.168h0v.617a.168.168,0,0,1-.168.168H11.945V9.309h0V5.44h0V5.328h2.58a.168.168,0,0,1,.168.168h0Z" transform="translate(1221 42)" fill="#424242"/>
  </g>
</svg>
