<svg xmlns="http://www.w3.org/2000/svg" width="115.004" height="85.132" viewBox="0 0 115.004 85.132">
  <g id="party-chart-5_icon" data-name="party-chart-5%icon" transform="translate(-763.33 -3147.868)">
    <g id="Group_9315" data-name="Group 9315" transform="translate(832.663 3148)">
      <g id="Group_9266" data-name="Group 9266" transform="translate(0 30.783)">
        <path id="Path_6313" data-name="Path 6313" d="M552.821,158.96H530.634a11.7,11.7,0,0,1,2.25-10.28c3.8-4.834,10.2-5.788,10.2-5.788a11.33,11.33,0,0,0,4.29,7.285,10.9,10.9,0,0,0,5.449,1.988,10.565,10.565,0,0,0,9.8-9.273s6.4.954,10.2,5.788a11.7,11.7,0,0,1,2.251,10.28H552.88" transform="translate(-530.266 -142.892)" fill="none" stroke="#ff8d8d" stroke-width="1"/>
      </g>
      <g id="Group_9267" data-name="Group 9267" transform="translate(11.45 28.223)">
        <path id="Path_6314" data-name="Path 6314" d="M562.589,144.192a.391.391,0,0,1-.219-.067L558.29,141.3H545.262l-3.988,2.824a.383.383,0,0,1-.526-.081.361.361,0,0,1,.084-.514l4.086-2.893a.378.378,0,0,1,.221-.07H558.41a.388.388,0,0,1,.218.067l4.18,2.893a.364.364,0,0,1,.089.514A.379.379,0,0,1,562.589,144.192Z" transform="translate(-540.675 -140.564)" fill="#ff8d8d"/>
      </g>
      <g id="Group_9268" data-name="Group 9268" transform="translate(9.274)">
        <path id="Path_6315" data-name="Path 6315" d="M563.569,130.084a14.5,14.5,0,0,0-1.335-8.783,11.717,11.717,0,0,0-20.522,0,14.507,14.507,0,0,0-1.335,8.783s-1.337.476-1.337,3.336,3.094,4.017,3.094,4.017c2.039,8.169,8.175,8.918,9.809,8.918,1.4,0,7.828-.749,9.868-8.918,0,0,3.094-1.158,3.094-4.017S563.569,130.084,563.569,130.084Z" transform="translate(-538.663 -114.873)" fill="#fff"/>
        <path id="Path_6316" data-name="Path 6316" d="M551.978,146.756c-.8,0-7.848-.254-10.13-9.02-.708-.315-3.151-1.595-3.151-4.283,0-2.3.844-3.2,1.3-3.524a14.654,14.654,0,0,1,1.418-8.77,12.1,12.1,0,0,1,21.185,0,14.654,14.654,0,0,1,1.418,8.77c.455.322,1.3,1.229,1.3,3.524,0,2.688-2.442,3.969-3.149,4.283C559.841,146.654,552.3,146.756,551.978,146.756Zm.058-31.115a11.684,11.684,0,0,0-9.958,5.866,14.2,14.2,0,0,0-1.3,8.54l.058.307-.3.108s-1.088.474-1.088,2.991c0,2.566,2.736,3.629,2.852,3.674l.184.068.047.187c2.052,8.222,8.226,8.639,9.443,8.639.3,0,7.371-.1,9.5-8.639l.047-.186.183-.069c.118-.045,2.852-1.108,2.852-3.674,0-2.517-1.084-2.99-1.1-2.994l-.282-.116.048-.3a14.244,14.244,0,0,0-1.3-8.54A11.627,11.627,0,0,0,552.036,115.642Z" transform="translate(-538.697 -114.906)" fill="#ff8d8d"/>
      </g>
      <path id="Path_6341" data-name="Path 6341" d="M563.632,128.075a13.614,13.614,0,0,0-1.513-6.775,11.717,11.717,0,0,0-20.522,0,12.9,12.9,0,0,0-1.479,5.3l.144,3.485s1.686-5.411,3.743-6.738C544,123.345,550.679,130.981,563.632,128.075Z" transform="translate(-529.281 -114.873)" fill="none" stroke="#ff8d8d" stroke-width="1"/>
    </g>
    <g id="Group_9319" data-name="Group 9319" transform="translate(763.832 3148)">
      <g id="Group_9266-2" data-name="Group 9266" transform="translate(0 30.783)">
        <path id="Path_6313-2" data-name="Path 6313" d="M552.821,158.96H530.634a11.7,11.7,0,0,1,2.25-10.28c3.8-4.834,10.2-5.788,10.2-5.788a11.33,11.33,0,0,0,4.29,7.285,10.9,10.9,0,0,0,5.449,1.988,10.565,10.565,0,0,0,9.8-9.273s6.4.954,10.2,5.788a11.7,11.7,0,0,1,2.251,10.28H552.88" transform="translate(-530.266 -142.892)" fill="none" stroke="#ff8d8d" stroke-width="1"/>
      </g>
      <g id="Group_9267-2" data-name="Group 9267" transform="translate(11.45 28.223)">
        <path id="Path_6314-2" data-name="Path 6314" d="M562.589,144.192a.391.391,0,0,1-.219-.067L558.29,141.3H545.262l-3.988,2.824a.383.383,0,0,1-.526-.081.361.361,0,0,1,.084-.514l4.086-2.893a.378.378,0,0,1,.221-.07H558.41a.388.388,0,0,1,.218.067l4.18,2.893a.364.364,0,0,1,.089.514A.379.379,0,0,1,562.589,144.192Z" transform="translate(-540.675 -140.564)" fill="#ff8d8d"/>
      </g>
      <g id="Group_9268-2" data-name="Group 9268" transform="translate(9.274)">
        <path id="Path_6315-2" data-name="Path 6315" d="M563.569,130.084a14.5,14.5,0,0,0-1.335-8.783,11.717,11.717,0,0,0-20.522,0,14.507,14.507,0,0,0-1.335,8.783s-1.337.476-1.337,3.336,3.094,4.017,3.094,4.017c2.039,8.169,8.175,8.918,9.809,8.918,1.4,0,7.828-.749,9.868-8.918,0,0,3.094-1.158,3.094-4.017S563.569,130.084,563.569,130.084Z" transform="translate(-538.663 -114.873)" fill="#fff"/>
        <path id="Path_6316-2" data-name="Path 6316" d="M551.978,146.756c-.8,0-7.848-.254-10.13-9.02-.708-.315-3.151-1.595-3.151-4.283,0-2.3.844-3.2,1.3-3.524a14.654,14.654,0,0,1,1.418-8.77,12.1,12.1,0,0,1,21.185,0,14.654,14.654,0,0,1,1.418,8.77c.455.322,1.3,1.229,1.3,3.524,0,2.688-2.442,3.969-3.149,4.283C559.841,146.654,552.3,146.756,551.978,146.756Zm.058-31.115a11.684,11.684,0,0,0-9.958,5.866,14.2,14.2,0,0,0-1.3,8.54l.058.307-.3.108s-1.088.474-1.088,2.991c0,2.566,2.736,3.629,2.852,3.674l.184.068.047.187c2.052,8.222,8.226,8.639,9.443,8.639.3,0,7.371-.1,9.5-8.639l.047-.186.183-.069c.118-.045,2.852-1.108,2.852-3.674,0-2.517-1.084-2.99-1.1-2.994l-.282-.116.048-.3a14.244,14.244,0,0,0-1.3-8.54A11.627,11.627,0,0,0,552.036,115.642Z" transform="translate(-538.697 -114.906)" fill="#ff8d8d"/>
      </g>
      <path id="Path_6341-2" data-name="Path 6341" d="M563.632,128.075a13.614,13.614,0,0,0-1.513-6.775,11.717,11.717,0,0,0-20.522,0,12.9,12.9,0,0,0-1.479,5.3l.144,3.485s1.686-5.411,3.743-6.738C544,123.345,550.679,130.981,563.632,128.075Z" transform="translate(-529.281 -114.873)" fill="none" stroke="#ff8d8d" stroke-width="1"/>
    </g>
    <g id="Group_9320" data-name="Group 9320" transform="translate(2.3 4.388)">
      <g id="Group_9317" data-name="Group 9317" transform="translate(778.909 3152.899)">
        <g id="Group_9270" data-name="Group 9270" transform="translate(0 0)">
          <path id="Path_6317" data-name="Path 6317" d="M480.283,195.511v-7.33h-.157a2.846,2.846,0,0,1-2.888-2.8v-6.7a2.846,2.846,0,0,1,2.888-2.8h6.739a17.068,17.068,0,0,1,3.726-11.3c4.389-5.6,11.139-7.439,13.389-7.914l.838-.595a19.113,19.113,0,0,1-2.19-4.77,7.965,7.965,0,0,1-4.158-6.769,8.072,8.072,0,0,1,1.459-5.089,19.809,19.809,0,0,1,2.1-10.85,17.514,17.514,0,0,1,14.938-8.793,17.23,17.23,0,0,1,14.866,8.793,19.784,19.784,0,0,1,2.1,10.85,8.072,8.072,0,0,1,1.46,5.089,7.964,7.964,0,0,1-4.161,6.77A18.694,18.694,0,0,1,529,156.072l.857.595c2.233.471,9,2.306,13.4,7.918a17.063,17.063,0,0,1,3.726,11.3h6.74a2.845,2.845,0,0,1,2.888,2.8v6.7a2.845,2.845,0,0,1-2.888,2.8h-.157v7.33m-23.684-52.371,0,0Zm-25.92,0,0,0Zm25.917,0h0Zm-25.913,0h0Zm0,0Z" transform="translate(-477.238 -119.805)" fill="#fff"/>
        </g>
        <g id="Group_9314" data-name="Group 9314" transform="translate(2.608 2.312)">
          <g id="Group_9275" data-name="Group 9275" transform="translate(10.084)">
            <g id="Group_9272" data-name="Group 9272" transform="translate(14.927 34.048)">
              <path id="Path_6318" data-name="Path 6318" d="M530.564,161.805a.459.459,0,0,1-.263-.082l-3.7-2.564H510.88l-3.618,2.562a.464.464,0,0,1-.635-.1.437.437,0,0,1,.1-.619l3.737-2.647a.464.464,0,0,1,.267-.083h16.01a.471.471,0,0,1,.263.08l3.82,2.647a.436.436,0,0,1,.109.618A.458.458,0,0,1,530.564,161.805Z" transform="translate(-506.541 -158.272)" fill="#ff4040"/>
            </g>
            <g id="Group_9273" data-name="Group 9273" transform="translate(11.11)">
              <path id="Path_6319" data-name="Path 6319" d="M532.575,140.626a17.5,17.5,0,0,0-1.612-10.6,14.136,14.136,0,0,0-24.756,0,17.5,17.5,0,0,0-1.613,10.6s-1.612.575-1.612,4.025,3.733,4.846,3.733,4.846c2.46,9.857,9.861,10.76,11.833,10.76,1.69,0,9.445-.9,11.905-10.76,0,0,3.733-1.4,3.733-4.846S532.575,140.626,532.575,140.626Z" transform="translate(-502.529 -122.277)" fill="#fff"/>
              <path id="Path_6320" data-name="Path 6320" d="M518.523,160.675c-.967,0-9.468-.306-12.22-10.882-.854-.38-3.8-1.924-3.8-5.167,0-2.769,1.016-3.862,1.567-4.251a17.684,17.684,0,0,1,1.711-10.58,14.594,14.594,0,0,1,25.557,0,17.678,17.678,0,0,1,1.709,10.58c.551.388,1.567,1.481,1.567,4.251,0,3.243-2.946,4.788-3.8,5.167C528.009,160.551,518.911,160.675,518.523,160.675Zm.071-37.536a14.1,14.1,0,0,0-12.013,7.077,17.186,17.186,0,0,0-1.567,10.3l.072.37-.362.129s-1.314.573-1.314,3.608c0,3.1,3.3,4.379,3.441,4.432l.222.083.057.226c2.476,9.919,9.924,10.422,11.393,10.422.361,0,8.891-.118,11.463-10.422l.056-.225.223-.084c.14-.053,3.442-1.336,3.442-4.432,0-3.035-1.31-3.606-1.323-3.612l-.339-.139.059-.356a17.187,17.187,0,0,0-1.565-10.3A14.031,14.031,0,0,0,518.594,123.139Z" transform="translate(-502.503 -122.251)" fill="#ff4040"/>
            </g>
            <g id="Group_9274" data-name="Group 9274" transform="translate(0 37.136)">
              <path id="Path_6321" data-name="Path 6321" d="M517.794,180.923H491.109a14.145,14.145,0,0,1,2.707-12.4c4.568-5.832,12.265-6.982,12.265-6.982.592,5.5,5.16,8.789,5.16,8.789s3.273,2.4,6.554,2.4,6.626-2.4,6.626-2.4,4.567-3.285,5.16-8.789c0,0,7.7,1.15,12.264,6.982a14.145,14.145,0,0,1,2.707,12.4H517.866" transform="translate(-490.665 -161.539)" fill="#ff4040"/>
            </g>
          </g>
          <g id="Group_9276" data-name="Group 9276" transform="translate(3.05 56.077)">
            <rect id="Rectangle_1949" data-name="Rectangle 1949" width="67.489" height="16.438" transform="translate(0.454 0.444)" fill="#fff"/>
            <path id="Path_6322" data-name="Path 6322" d="M551.621,198.9h-68.4V181.578h68.4Zm-67.491-.886h66.585V182.465H484.13Z" transform="translate(-483.224 -181.578)" fill="#ff4040"/>
          </g>
          <g id="Group_9277" data-name="Group 9277" transform="translate(0 56.077)">
            <rect id="Rectangle_1950" data-name="Rectangle 1950" width="73.59" height="6.696" transform="translate(0.454 0.444)" fill="#fff"/>
            <path id="Path_6323" data-name="Path 6323" d="M554.495,189.161H480v-7.583h74.5Zm-73.592-.886h72.687v-5.81H480.9Z" transform="translate(-479.997 -181.578)" fill="#ff4040"/>
          </g>
        </g>
      </g>
      <path id="Path_6342" data-name="Path 6342" d="M532.873,138.2a16.42,16.42,0,0,0-1.826-8.173,14.136,14.136,0,0,0-24.756,0,15.56,15.56,0,0,0-1.786,6.392l.173,4.2s2.036-6.528,4.517-8.129C509.2,132.5,517.246,141.709,532.873,138.2Z" transform="translate(300.097 3032.934)" fill="#ff4040"/>
    </g>
  </g>
</svg>
