<svg xmlns="http://www.w3.org/2000/svg" width="28" height="38" viewBox="0 0 28 38">
    <defs>
        <style>
            .cls-1{fill:#ff4040}.cls-2{fill:#ffc000}.cls-3{fill:#ffda6a}.cls-4{isolation:isolate}.cls-5{fill:#e8af00}
        </style>
    </defs>
    <g id="party-chart-no.1" transform="translate(-361 -2333)">
        <g id="Group_8987" data-name="Group 8987" transform="translate(258.216 2908.024)">
            <g id="Subtraction_5" data-name="Subtraction 5">
                <g id="Group_8976" data-name="Group 8976">
                    <g id="Path_3514" data-name="Path 3514">
                        <path id="Path_3496" d="M104.418-542.071l8.529-14.8 7.946 4.6-8.527 14.8-1.943-4.984-.2-.5-.53.08z" class="cls-1" data-name="Path 3496"/>
                    </g>
                    <g id="Path_3515" data-name="Path 3515">
                        <path id="Path_3497" d="M112.332-537.024l-2.229-5.717-6.056.925 8.828-15.326 8.283 4.793zm-1.981-6.15l2.048 5.252 8.224-14.283-7.609-4.4-8.224 14.283z" data-name="Path 3497"/>
                    </g>
                </g>
            </g>
            <g id="Subtraction_5-2" data-name="Subtraction 5-2">
                <g id="Group_8977" data-name="Group 8977">
                    <g id="Path_3516" data-name="Path 3516">
                        <path id="Path_3498" d="M124.12-542.877l-.53-.08-.2.5-1.943 4.984-8.527-14.8 7.946-4.6 8.529 14.8z" class="cls-1" data-name="Path 3498"/>
                    </g>
                    <g id="Path_3517" data-name="Path 3517">
                        <path id="Path_3499" d="M121.486-537.024l-8.827-15.325 8.283-4.793 8.828 15.326-6.055-.925zm-8.3-15.181l8.225 14.283 2.047-5.252 5.563.849-8.221-14.283z" data-name="Path 3499"/>
                    </g>
                </g>
            </g>
            <g id="Group_8978" data-name="Group 8978">
                <g id="Ellipse_705" data-name="Ellipse 705">
                    <ellipse id="Ellipse_700" cx="13.634" cy="13.666" class="cls-2" data-name="Ellipse 700" rx="13.634" ry="13.666" transform="translate(103.174 -574.636)"/>
                </g>
            </g>
            <g id="Group_8979" data-name="Group 8979">
                <g id="Ellipse_706" data-name="Ellipse 706">
                    <ellipse id="Ellipse_701" cx="9.662" cy="9.685" class="cls-3" data-name="Ellipse 701" rx="9.662" ry="9.685" transform="translate(107.355 -570.678)"/>
                </g>
            </g>
            <g id="Group_8980" data-name="Group 8980">
                <g id="Path_3518" data-name="Path 3518">
                    <path id="Path_3500" d="M116.784-547.11a13.882 13.882 0 0 1-13.851-13.881 13.883 13.883 0 0 1 13.851-13.884 13.883 13.883 0 0 1 13.851 13.884 13.883 13.883 0 0 1-13.851 13.881zm0-27.378a13.492 13.492 0 0 0-13.465 13.5 13.492 13.492 0 0 0 13.463 13.488 13.491 13.491 0 0 0 13.464-13.494 13.493 13.493 0 0 0-13.462-13.494z" data-name="Path 3500"/>
                    <path id="Path_3501" d="M116.785-546.961a14.055 14.055 0 0 1-14-14.03 14.054 14.054 0 0 1 14-14.033 14.054 14.054 0 0 1 14 14.033 14.055 14.055 0 0 1-14 14.03zm0-27.765a13.756 13.756 0 0 0-13.7 13.735 13.757 13.757 0 0 0 13.7 13.732 13.758 13.758 0 0 0 13.7-13.732 13.756 13.756 0 0 0-13.7-13.735zm0 27.378a13.662 13.662 0 0 1-13.611-13.643 13.661 13.661 0 0 1 13.615-13.645 13.662 13.662 0 0 1 13.61 13.645 13.662 13.662 0 0 1-13.618 13.643zm0-26.991a13.365 13.365 0 0 0-13.318 13.348 13.366 13.366 0 0 0 13.314 13.346 13.366 13.366 0 0 0 13.319-13.346 13.366 13.366 0 0 0-13.313-13.348z" data-name="Path 3501"/>
                </g>
            </g>
            <g id="Group_8981" data-name="Group 8981">
                <g id="Path_3519" data-name="Path 3519">
                    <path id="Path_3502" d="M116.831-551.036a9.97 9.97 0 0 1-9.022-5.785.131.131 0 0 1 .063-.173.131.131 0 0 1 .173.064 9.71 9.71 0 0 0 8.786 5.632 9.657 9.657 0 0 0 8.564-5.179.129.129 0 0 1 .175-.055.131.131 0 0 1 .055.176 9.915 9.915 0 0 1-8.794 5.32z" data-name="Path 3502"/>
                </g>
            </g>
            <g id="Group_8982" data-name="Group 8982">
                <g id="Path_3520" data-name="Path 3520">
                    <path id="Path_3503" d="M126.636-560.864a.13.13 0 0 1-.13-.13 9.7 9.7 0 0 0-9.675-9.7c-.254 0-.509.01-.762.03a.13.13 0 0 1-.14-.119.131.131 0 0 1 .119-.14 10.2 10.2 0 0 1 .782-.031 9.958 9.958 0 0 1 9.935 9.958.13.13 0 0 1-.129.132z" data-name="Path 3503"/>
                </g>
            </g>
            <g id="Group_8983" data-name="Group 8983">
                <g id="Path_3521" data-name="Path 3521">
                    <path id="Path_3504" d="M113.421-570.082a.131.131 0 0 1-.122-.085.131.131 0 0 1 .077-.167c.3-.111.607-.209.916-.291a.13.13 0 0 1 .159.092.13.13 0 0 1-.092.159c-.3.08-.6.175-.892.283a.122.122 0 0 1-.046.009z" data-name="Path 3504"/>
                </g>
            </g>
            <g id="Group_8984" data-name="Group 8984">
                <g id="Path_3522" data-name="Path 3522">
                    <path id="Path_3505" d="M110.084-567.995a.128.128 0 0 1-.094-.041.129.129 0 0 1 0-.183A9.98 9.98 0 0 1 112-569.7a.131.131 0 0 1 .177.05.131.131 0 0 1-.051.177 9.74 9.74 0 0 0-1.958 1.442.128.128 0 0 1-.084.036z" data-name="Path 3505"/>
                </g>
            </g>
        </g>
        <g id="_1" class="cls-4" data-name="1" transform="translate(258.216 2908.024)">
            <g id="Group_8950" class="cls-4" data-name="Group 8950">
                <path id="Path_3506" d="M113.492-557.573h2.37v-6.345h-2.055v-1.649a7.566 7.566 0 0 0 2.76-1.005h1.965v9h2.01v2.16h-7.05z" class="cls-5" data-name="Path 3506"/>
            </g>
        </g>
    </g>
</svg>
