<svg xmlns="http://www.w3.org/2000/svg" width="28" height="38" viewBox="0 0 28 38">
    <defs>
        <style>
            .cls-1{fill:#fff;stroke:#707070;opacity:0}.cls-2{fill:#ab3f00}.cls-3{fill:#c67200}.cls-4{isolation:isolate}.cls-5{stroke:none}.cls-6{fill:none}
        </style>
    </defs>
    <g id="party-chart-no.4" transform="translate(-379 -2847)">
        <g id="Rectangle_1712" class="cls-1" data-name="Rectangle 1712">
            <path d="M0 0h28v38H0z" class="cls-5" transform="translate(379 2847)"/>
            <path d="M.5.5h27v37H.5z" class="cls-6" transform="translate(379 2847)"/>
        </g>
        <g id="party-chart-no.4-2" data-name="party-chart-no.4" transform="translate(18 377.979)">
            <g id="Group_8987" data-name="Group 8987" transform="translate(361 2474.021)">
                <g id="Group_8978" data-name="Group 8978" transform="translate(.39 .388)">
                    <g id="Ellipse_705" data-name="Ellipse 705">
                        <ellipse id="Ellipse_706" cx="13.634" cy="13.635" class="cls-2" data-name="Ellipse 706" rx="13.634" ry="13.635"/>
                    </g>
                </g>
                <g id="Group_8979" data-name="Group 8979" transform="translate(4.362 4.438)">
                    <g id="Ellipse_706-2" data-name="Ellipse 706">
                        <ellipse id="Ellipse_707" cx="9.662" cy="9.685" class="cls-3" data-name="Ellipse 707" rx="9.662" ry="9.685"/>
                    </g>
                </g>
                <g id="Group_8980" data-name="Group 8980">
                    <g id="Path_3518" data-name="Path 3518">
                        <path id="Path_3529" d="M116.784-406.152A13.866 13.866 0 0 1 102.933-420a13.868 13.868 0 0 1 13.851-13.854A13.867 13.867 0 0 1 130.635-420a13.867 13.867 0 0 1-13.851 13.848zm0-27.316A13.477 13.477 0 0 0 103.319-420a13.478 13.478 0 0 0 13.463 13.464A13.478 13.478 0 0 0 130.246-420a13.477 13.477 0 0 0-13.462-13.468z" data-name="Path 3529" transform="translate(-102.784 434.003)"/>
                        <path id="Path_3530" d="M116.785-406a14.039 14.039 0 0 1-14-14 14.038 14.038 0 0 1 14-14 14.038 14.038 0 0 1 14 14 14.039 14.039 0 0 1-14 14zm0-27.7a13.741 13.741 0 0 0-13.704 13.7 13.742 13.742 0 0 0 13.7 13.7 13.741 13.741 0 0 0 13.7-13.7 13.741 13.741 0 0 0-13.696-13.707zm0 27.318A13.648 13.648 0 0 1 103.17-420a13.647 13.647 0 0 1 13.615-13.616A13.648 13.648 0 0 1 130.4-420a13.648 13.648 0 0 1-13.619 13.612zm0-26.931A13.35 13.35 0 0 0 103.467-420a13.35 13.35 0 0 0 13.314 13.316A13.35 13.35 0 0 0 130.1-420a13.35 13.35 0 0 0-13.313-13.319z" data-name="Path 3530" transform="translate(-102.784 434.003)"/>
                    </g>
                </g>
                <g id="Group_8981" data-name="Group 8981" transform="translate(5.013 17.956)">
                    <g id="Path_3519" data-name="Path 3519">
                        <path id="Path_3531" d="M116.831-410.016a9.969 9.969 0 0 1-9.022-5.785.129.129 0 0 1 .063-.172.13.13 0 0 1 .173.063 9.709 9.709 0 0 0 8.786 5.633 9.657 9.657 0 0 0 8.564-5.18.129.129 0 0 1 .175-.055.132.132 0 0 1 .055.176 9.913 9.913 0 0 1-8.794 5.32z" data-name="Path 3531" transform="translate(-107.797 415.985)"/>
                    </g>
                </g>
                <g id="Group_8982" data-name="Group 8982" transform="translate(13.145 4.072)">
                    <g id="Path_3520" data-name="Path 3520">
                        <path id="Path_3532" d="M126.636-419.843a.13.13 0 0 1-.13-.13 9.7 9.7 0 0 0-9.675-9.7c-.254 0-.509.01-.762.03a.131.131 0 0 1-.14-.12.131.131 0 0 1 .119-.14c.259-.019.522-.03.782-.03a9.958 9.958 0 0 1 9.935 9.958.131.131 0 0 1-.129.132z" data-name="Path 3532" transform="translate(-115.929 429.931)"/>
                    </g>
                </g>
                <g id="Group_8983" data-name="Group 8983" transform="translate(10.507 4.394)">
                    <g id="Path_3521" data-name="Path 3521">
                        <path id="Path_3533" d="M113.421-429.061a.13.13 0 0 1-.122-.086.132.132 0 0 1 .077-.167c.3-.111.607-.208.916-.291a.13.13 0 0 1 .159.093.131.131 0 0 1-.092.159c-.3.079-.6.174-.892.283a.144.144 0 0 1-.046.009z" data-name="Path 3533" transform="translate(-113.291 429.609)"/>
                    </g>
                </g>
                <g id="Group_8984" data-name="Group 8984" transform="translate(7.168 5.294)">
                    <g id="Path_3522" data-name="Path 3522">
                        <path id="Path_3534" d="M110.084-426.975a.127.127 0 0 1-.094-.04.13.13 0 0 1 0-.184 9.98 9.98 0 0 1 2.01-1.481.13.13 0 0 1 .177.051.131.131 0 0 1-.051.177 9.7 9.7 0 0 0-1.958 1.442.132.132 0 0 1-.084.035z" data-name="Path 3534" transform="translate(-109.952 428.696)"/>
                    </g>
                </g>
            </g>
            <g id="_4" class="cls-4" data-name="4" transform="translate(370.974 2482.595)">
                <g id="Group_8953" class="cls-4" data-name="Group 8953">
                    <path id="Path_3535" d="M120.858-417.178h-1.32v2.88h-2.054v-2.88h-4.726v-1.5l4.14-6.719h2.64v6.54h1.32zm-3.374-1.679v-2.266c0-.645.059-1.649.089-2.294h-.06c-.27.585-.569 1.2-.884 1.8l-1.726 2.76z" class="cls-2" data-name="Path 3535" transform="translate(-112.758 425.397)"/>
                </g>
            </g>
        </g>
    </g>
</svg>
