<svg xmlns="http://www.w3.org/2000/svg" width="114" height="85" viewBox="0 0 114 85">
  <g id="party-chart-3_icon" data-name="party-chart-3%icon" transform="translate(-77.038 -115.351)">
    <g id="Group_9304" data-name="Group 9304" transform="translate(77.038 146.733)">
      <g id="Group_9298" data-name="Group 9298" transform="translate(45.048 6.205)">
        <path id="Path_6327" data-name="Path 6327" d="M123.881,166.024H136.27l14.266,14.317h26.937A4.232,4.232,0,0,0,181.7,176.1h0a4.232,4.232,0,0,0-4.224-4.239H157.951l-11.908-11.951a24.793,24.793,0,0,0-17.564-7.3h-3.941" transform="translate(-123.881 -151.991)" fill="#fff"/>
        <path id="Path_6328" data-name="Path 6328" d="M177.473,180.962h-27.2l-14.266-14.318H123.881V165.4h12.65L150.8,179.722h26.676a3.62,3.62,0,0,0,0-7.239H157.69L145.6,160.348a24.011,24.011,0,0,0-17.12-7.117h-3.941v-1.24h3.941a25.251,25.251,0,0,1,18.008,7.485l11.725,11.767h19.261a4.86,4.86,0,0,1,0,9.719Z" transform="translate(-123.881 -151.991)" fill="#bf7800"/>
      </g>
      <g id="Group_9299" data-name="Group 9299" transform="translate(34.536 12.099)">
        <path id="Path_6329" data-name="Path 6329" d="M113.369,170.669h15.768l18.157,18.223h34.283a5.386,5.386,0,0,0,5.376-5.4h0a5.385,5.385,0,0,0-5.376-5.395H156.731l-19.71-19.781" transform="translate(-113.369 -157.885)" fill="#fff"/>
        <path id="Path_6330" data-name="Path 6330" d="M181.577,189.512H147.033l-18.157-18.223H113.369v-1.24H129.4l18.157,18.223h34.023a4.775,4.775,0,0,0,0-9.55H156.47l-19.893-19.965.888-.872,19.526,19.6h24.586a6.015,6.015,0,0,1,0,12.03Z" transform="translate(-113.369 -157.885)" fill="#bf7800"/>
      </g>
      <g id="Group_9300" data-name="Group 9300" transform="translate(39.792 17.374)">
        <path id="Path_6331" data-name="Path 6331" d="M118.625,175.944h15.768l18.157,18.223h34.283a5.386,5.386,0,0,0,5.376-5.4h0a5.385,5.385,0,0,0-5.376-5.4H161.987L142.277,163.6" transform="translate(-118.625 -163.16)" fill="#fff"/>
        <path id="Path_6332" data-name="Path 6332" d="M186.833,194.787H152.289l-18.157-18.223H118.625v-1.24h16.028l18.158,18.223h34.022a4.775,4.775,0,0,0,0-9.55H161.726l-19.894-19.965.889-.872,19.526,19.6h24.586a6.015,6.015,0,0,1,0,12.03Z" transform="translate(-118.625 -163.16)" fill="#bf7800"/>
      </g>
      <g id="Group_9301" data-name="Group 9301" transform="translate(28.312 5.98)">
        <path id="Path_6333" data-name="Path 6333" d="M113.369,182.538h13.949a4.385,4.385,0,0,1,3.105,1.29l13.614,13.664a4.382,4.382,0,0,0,3.1,1.29h35.422a4.4,4.4,0,0,0,4.39-4.406h0a4.4,4.4,0,0,0-4.39-4.405H158.549a4.383,4.383,0,0,1-3.1-1.291l-18.424-18.491-17.167-16.572a4.379,4.379,0,0,0-3.043-1.231h-3.442" transform="translate(-107.145 -151.766)" fill="#fff"/>
        <path id="Path_6334" data-name="Path 6334" d="M182.563,199.4H147.141a4.974,4.974,0,0,1-3.548-1.475l-13.615-13.663a3.726,3.726,0,0,0-2.659-1.107H107.145v-1.241h20.174a5.045,5.045,0,0,1,3.548,1.475l13.614,13.664a3.733,3.733,0,0,0,2.66,1.106h35.422a3.786,3.786,0,0,0,0-7.571H158.549A4.974,4.974,0,0,1,155,189.116l-18.424-18.49-17.158-16.565a3.739,3.739,0,0,0-2.608-1.054h-3.442v-1.241h3.442a4.986,4.986,0,0,1,3.479,1.406l17.166,16.573,18.433,18.5a3.733,3.733,0,0,0,2.66,1.106h24.014a5.027,5.027,0,0,1,0,10.053Z" transform="translate(-107.145 -151.766)" fill="#bf7800"/>
      </g>
      <g id="Group_9302" data-name="Group 9302" transform="translate(30.198 5.98)">
        <path id="Path_6335" data-name="Path 6335" d="M108.113,152.386h16.914a24.073,24.073,0,0,1,17.311,7.353l15.285,15.816a7.123,7.123,0,0,1,0,10.047h0a5.208,5.208,0,0,1-7.383,0l-11.883-11.926" transform="translate(-108.113 -151.766)" fill="#fff"/>
        <path id="Path_6336" data-name="Path 6336" d="M153.932,187.756a5.8,5.8,0,0,1-4.136-1.718l-11.883-11.926.889-.872,11.882,11.926a4.58,4.58,0,0,0,6.494,0,6.511,6.511,0,0,0,0-9.175l-15.291-15.823a23.572,23.572,0,0,0-16.86-7.161H108.113v-1.241h16.914a24.828,24.828,0,0,1,17.762,7.544l15.284,15.816a7.747,7.747,0,0,1-.006,10.912A5.8,5.8,0,0,1,153.932,187.756Z" transform="translate(-108.113 -151.766)" fill="#bf7800"/>
      </g>
      <g id="Group_9303" data-name="Group 9303" transform="translate(0)">
        <rect id="Rectangle_1951" data-name="Rectangle 1951" width="42" height="40.792" transform="translate(0 42) rotate(-90)" fill="#ffc000"/>
      </g>
    </g>
    <g id="Group_9308" data-name="Group 9308" transform="translate(145.093 115.351)">
      <g id="Group_9305" data-name="Group 9305" transform="translate(0)">
        <ellipse id="Ellipse_847" data-name="Ellipse 847" cx="22.865" cy="22.4" rx="22.865" ry="22.4" transform="translate(0 0.105) rotate(-0.131)" fill="#ffc000"/>
      </g>
      <g id="Group_9306" data-name="Group 9306" transform="translate(3.197 12.865)">
        <path id="Path_6337" data-name="Path 6337" d="M151.072,141.5a.749.749,0,0,1-.739-.626,19.053,19.053,0,0,1,2.128-12.271.751.751,0,0,1,1.018-.294.743.743,0,0,1,.3,1.011,17.57,17.57,0,0,0-1.962,11.317.743.743,0,0,1-.62.853A.713.713,0,0,1,151.072,141.5Z" transform="translate(-150.086 -128.215)" fill="#fff"/>
      </g>
      <g id="Group_9307" data-name="Group 9307" transform="translate(4.669 3.124)">
        <path id="Path_6338" data-name="Path 6338" d="M169.8,157.13a19.676,19.676,0,0,1-18.184-11.848.741.741,0,0,1,.4-.976.75.75,0,0,1,.983.393A18.184,18.184,0,0,0,169.8,155.642h.081a18.3,18.3,0,0,0,12.864-5.284,17.54,17.54,0,0,0,5.278-12.633,18.054,18.054,0,0,0-18.217-17.761h-.08a18.377,18.377,0,0,0-12.372,4.814.753.753,0,0,1-1.059-.041.741.741,0,0,1,.042-1.052,19.875,19.875,0,0,1,13.382-5.21h.087a19.548,19.548,0,0,1,19.716,19.243,19.009,19.009,0,0,1-5.719,13.695,19.794,19.794,0,0,1-13.915,5.717Z" transform="translate(-151.557 -118.475)" fill="#fff"/>
      </g>
    </g>
    <g id="Group_9309" data-name="Group 9309" transform="translate(161.1 126.273)">
      <path id="Path_6339" data-name="Path 6339" d="M174.573,134.3a6.97,6.97,0,0,0-4.307-1.653c-1.58,0-2.633.472-2.633,1.653,0,2.5,9.142,1.512,9.142,7.228,0,2.717-1.795,4.819-5.265,5.386v3.118h-2.776v-3.023A10.19,10.19,0,0,1,162.9,144.7l1.866-2.835a7.265,7.265,0,0,0,4.835,1.795c2.177,0,3.111-.59,3.111-1.747,0-2.528-9.142-1.607-9.142-7.324,0-2.881,1.962-4.842,5.169-5.244v-3.07h2.776v3.07a9.368,9.368,0,0,1,5.169,2.457Z" transform="translate(-162.895 -126.273)" fill="#fff"/>
    </g>
  </g>
</svg>
