<svg xmlns="http://www.w3.org/2000/svg" width="28" height="38" viewBox="0 0 28 38">
    <defs>
        <style>
            .cls-1{fill:#ff4040}.cls-2{fill:#c67200}.cls-3{fill:#ffc000}.cls-4{isolation:isolate}
        </style>
    </defs>
    <g id="party-chart-no.3" transform="translate(-361 -2427.411)">
        <g id="Group_8987" data-name="Group 8987" transform="translate(258.216 2908.024)">
            <g id="Subtraction_5" data-name="Subtraction 5">
                <g id="Group_8976" data-name="Group 8976">
                    <g id="Path_3514" data-name="Path 3514">
                        <path id="Path_3518" d="M104.418-447.66l8.529-14.8 7.946 4.6-8.527 14.8-1.943-4.984-.2-.5-.53.08z" class="cls-1" data-name="Path 3518"/>
                    </g>
                    <g id="Path_3515" data-name="Path 3515">
                        <path id="Path_3519" d="M112.332-442.613l-2.229-5.718-6.056.925 8.828-15.325 8.283 4.793zm-1.981-6.151l2.048 5.253 8.224-14.284-7.609-4.4-8.224 14.284z" data-name="Path 3519"/>
                    </g>
                </g>
            </g>
            <g id="Subtraction_5-2" data-name="Subtraction 5-2">
                <g id="Group_8977" data-name="Group 8977">
                    <g id="Path_3516" data-name="Path 3516">
                        <path id="Path_3520" d="M124.12-448.467l-.53-.08-.2.5-1.943 4.984-8.527-14.8 7.946-4.6 8.529 14.8z" class="cls-1" data-name="Path 3520"/>
                    </g>
                    <g id="Path_3517" data-name="Path 3517">
                        <path id="Path_3521" d="M121.486-442.613l-8.827-15.325 8.283-4.793 8.828 15.325-6.055-.925zm-8.3-15.182l8.225 14.284 2.047-5.253 5.563.85L120.8-462.2z" data-name="Path 3521"/>
                    </g>
                </g>
            </g>
            <g id="Group_8978" data-name="Group 8978">
                <g id="Ellipse_705" data-name="Ellipse 705">
                    <ellipse id="Ellipse_704" cx="13.634" cy="13.666" class="cls-2" data-name="Ellipse 704" rx="13.634" ry="13.666" transform="translate(103.174 -480.225)"/>
                </g>
            </g>
            <g id="Group_8979" data-name="Group 8979">
                <g id="Ellipse_706" data-name="Ellipse 706">
                    <ellipse id="Ellipse_705-2" cx="9.662" cy="9.685" class="cls-3" data-name="Ellipse 705" rx="9.662" ry="9.685" transform="translate(107.147 -476.338)"/>
                </g>
            </g>
            <g id="Group_8980" data-name="Group 8980">
                <g id="Path_3518-2" data-name="Path 3518">
                    <path id="Path_3522" d="M116.784-452.7a13.882 13.882 0 0 1-13.851-13.88 13.884 13.884 0 0 1 13.851-13.885 13.883 13.883 0 0 1 13.851 13.885 13.882 13.882 0 0 1-13.851 13.88zm0-27.377a13.492 13.492 0 0 0-13.465 13.5 13.493 13.493 0 0 0 13.463 13.494 13.493 13.493 0 0 0 13.464-13.494 13.492 13.492 0 0 0-13.462-13.5z" data-name="Path 3522"/>
                    <path id="Path_3523" d="M116.785-452.551a14.055 14.055 0 0 1-14-14.029 14.054 14.054 0 0 1 14-14.033 14.053 14.053 0 0 1 14 14.033 14.054 14.054 0 0 1-14 14.029zm0-27.765a13.756 13.756 0 0 0-13.7 13.736 13.758 13.758 0 0 0 13.7 13.732 13.758 13.758 0 0 0 13.7-13.732 13.757 13.757 0 0 0-13.7-13.736zm0 27.379a13.663 13.663 0 0 1-13.615-13.643 13.662 13.662 0 0 1 13.615-13.646A13.663 13.663 0 0 1 130.4-466.58a13.663 13.663 0 0 1-13.619 13.643zm0-26.991a13.365 13.365 0 0 0-13.318 13.348 13.365 13.365 0 0 0 13.314 13.345A13.365 13.365 0 0 0 130.1-466.58a13.365 13.365 0 0 0-13.313-13.348z" data-name="Path 3523"/>
                </g>
            </g>
            <g id="Group_8981" data-name="Group 8981">
                <g id="Path_3519-2" data-name="Path 3519">
                    <path id="Path_3524" d="M116.831-456.626a9.969 9.969 0 0 1-9.022-5.785.129.129 0 0 1 .063-.172.13.13 0 0 1 .173.063 9.709 9.709 0 0 0 8.786 5.633 9.657 9.657 0 0 0 8.564-5.18.129.129 0 0 1 .175-.055.132.132 0 0 1 .055.176 9.913 9.913 0 0 1-8.794 5.32z" data-name="Path 3524"/>
                </g>
            </g>
            <g id="Group_8982" data-name="Group 8982">
                <g id="Path_3520-2" data-name="Path 3520">
                    <path id="Path_3525" d="M126.636-466.453a.13.13 0 0 1-.13-.13 9.7 9.7 0 0 0-9.675-9.7c-.254 0-.509.01-.762.03a.131.131 0 0 1-.14-.12.131.131 0 0 1 .119-.14c.259-.019.522-.03.782-.03a9.958 9.958 0 0 1 9.935 9.958.131.131 0 0 1-.129.132z" data-name="Path 3525"/>
                </g>
            </g>
            <g id="Group_8983" data-name="Group 8983">
                <g id="Path_3521-2" data-name="Path 3521">
                    <path id="Path_3526" d="M113.421-475.671a.13.13 0 0 1-.122-.086.132.132 0 0 1 .077-.167c.3-.111.607-.208.916-.291a.13.13 0 0 1 .159.093.131.131 0 0 1-.092.159c-.3.079-.6.175-.892.283a.122.122 0 0 1-.046.009z" data-name="Path 3526"/>
                </g>
            </g>
            <g id="Group_8984" data-name="Group 8984">
                <g id="Path_3522-2" data-name="Path 3522">
                    <path id="Path_3527" d="M110.084-473.585a.127.127 0 0 1-.094-.04.13.13 0 0 1 0-.184 9.98 9.98 0 0 1 2.01-1.481.13.13 0 0 1 .177.051.131.131 0 0 1-.051.177 9.7 9.7 0 0 0-1.958 1.442.127.127 0 0 1-.084.035z" data-name="Path 3527"/>
                </g>
            </g>
        </g>
        <g id="_3" class="cls-4" data-name="3" transform="translate(258.216 2908.024)">
            <g id="Group_8952" class="cls-4" data-name="Group 8952">
                <path id="Path_3528" d="M113-462.438l1.035-1.394a3.529 3.529 0 0 0 2.475 1.139c1.125 0 1.89-.554 1.89-1.545 0-1.094-.645-1.77-3.06-1.77v-1.59c2.04 0 2.7-.7 2.7-1.694a1.328 1.328 0 0 0-1.485-1.4 3.177 3.177 0 0 0-2.1.99l-1.125-1.349a4.925 4.925 0 0 1 3.33-1.365c2.145 0 3.6 1.049 3.6 2.955a2.631 2.631 0 0 1-1.86 2.535v.074a2.775 2.775 0 0 1 2.22 2.73c0 2.041-1.785 3.225-3.9 3.225a4.719 4.719 0 0 1-3.72-1.541z" class="cls-2" data-name="Path 3528"/>
            </g>
        </g>
    </g>
</svg>
