<svg xmlns="http://www.w3.org/2000/svg" width="28" height="38" viewBox="0 0 28 38">
    <defs>
        <style>
            .cls-1{fill:#fff;stroke:#707070;opacity:0}.cls-2{fill:#ab3f00}.cls-3{fill:#c67200}.cls-4{isolation:isolate}.cls-5{stroke:none}.cls-6{fill:none}
        </style>
    </defs>
    <g id="party-chart-no.5" transform="translate(-379 -2907)">
        <g id="Rectangle_1713" class="cls-1" data-name="Rectangle 1713">
            <path d="M0 0h28v38H0z" class="cls-5" transform="translate(379 2907)"/>
            <path d="M.5.5h27v37H.5z" class="cls-6" transform="translate(379 2907)"/>
        </g>
        <g id="party-chart-no.5-2" data-name="party-chart-no.5" transform="translate(276.158 3305.919)">
            <g id="Group_8987" data-name="Group 8987" transform="translate(102.842 -393.919)">
                <g id="Group_8978" data-name="Group 8978" transform="translate(.39 .389)">
                    <g id="Ellipse_705" data-name="Ellipse 705">
                        <ellipse id="Ellipse_716" cx="13.634" cy="13.634" class="cls-2" data-name="Ellipse 716" rx="13.634" ry="13.634"/>
                    </g>
                </g>
                <g id="Group_8979" data-name="Group 8979" transform="translate(4.362 4.439)">
                    <g id="Ellipse_706" data-name="Ellipse 706">
                        <ellipse id="Ellipse_717" cx="9.662" cy="9.685" class="cls-3" data-name="Ellipse 717" rx="9.662" ry="9.685"/>
                    </g>
                </g>
                <g id="Group_8980" data-name="Group 8980">
                    <g id="Path_3518" data-name="Path 3518">
                        <path id="Path_3576" d="M116.842-366.068a13.868 13.868 0 0 1-13.852-13.849 13.868 13.868 0 0 1 13.852-13.853 13.867 13.867 0 0 1 13.851 13.853 13.867 13.867 0 0 1-13.851 13.849zm0-27.315a13.476 13.476 0 0 0-13.465 13.466 13.476 13.476 0 0 0 13.462 13.463 13.478 13.478 0 0 0 13.461-13.463 13.476 13.476 0 0 0-13.458-13.466z" data-name="Path 3576" transform="translate(-102.842 393.919)"/>
                        <path id="Path_3577" d="M116.842-365.919a14.039 14.039 0 0 1-14-14 14.039 14.039 0 0 1 14-14 14.04 14.04 0 0 1 14 14 14.04 14.04 0 0 1-14 14zm0-27.7a13.74 13.74 0 0 0-13.7 13.705 13.74 13.74 0 0 0 13.7 13.7 13.742 13.742 0 0 0 13.7-13.7 13.741 13.741 0 0 0-13.7-13.708zm0 27.318a13.647 13.647 0 0 1-13.611-13.612 13.646 13.646 0 0 1 13.614-13.615 13.647 13.647 0 0 1 13.611 13.615 13.648 13.648 0 0 1-13.617 13.613zm0-26.93a13.347 13.347 0 0 0-13.317 13.318 13.35 13.35 0 0 0 13.314 13.313 13.349 13.349 0 0 0 13.316-13.315 13.349 13.349 0 0 0-13.313-13.318z" data-name="Path 3577" transform="translate(-102.842 393.919)"/>
                    </g>
                </g>
                <g id="Group_8981" data-name="Group 8981" transform="translate(5.013 17.955)">
                    <g id="Path_3519" data-name="Path 3519">
                        <path id="Path_3578" d="M116.889-369.931a9.97 9.97 0 0 1-9.022-5.785.131.131 0 0 1 .063-.173.13.13 0 0 1 .172.064 9.71 9.71 0 0 0 8.786 5.633 9.657 9.657 0 0 0 8.563-5.18.131.131 0 0 1 .176-.055.13.13 0 0 1 .054.176 9.915 9.915 0 0 1-8.792 5.32z" data-name="Path 3578" transform="translate(-107.855 375.901)"/>
                    </g>
                </g>
                <g id="Group_8982" data-name="Group 8982" transform="translate(13.145 4.072)">
                    <g id="Path_3520" data-name="Path 3520">
                        <path id="Path_3579" d="M126.694-379.758a.13.13 0 0 1-.13-.13 9.7 9.7 0 0 0-9.675-9.7c-.254 0-.509.01-.762.029a.129.129 0 0 1-.14-.119.131.131 0 0 1 .119-.14 10.2 10.2 0 0 1 .782-.031 9.958 9.958 0 0 1 9.935 9.959.131.131 0 0 1-.129.132z" data-name="Path 3579" transform="translate(-115.987 389.847)"/>
                    </g>
                </g>
                <g id="Group_8983" data-name="Group 8983" transform="translate(10.507 4.395)">
                    <g id="Path_3521" data-name="Path 3521">
                        <path id="Path_3580" d="M113.479-388.976a.133.133 0 0 1-.122-.086.13.13 0 0 1 .077-.167c.3-.111.607-.208.916-.291a.131.131 0 0 1 .159.093.131.131 0 0 1-.093.159c-.3.079-.6.174-.891.283a.179.179 0 0 1-.046.009z" data-name="Path 3580" transform="translate(-113.349 389.524)"/>
                    </g>
                </g>
                <g id="Group_8984" data-name="Group 8984" transform="translate(7.168 5.295)">
                    <g id="Path_3522" data-name="Path 3522">
                        <path id="Path_3581" d="M110.142-386.89a.127.127 0 0 1-.094-.04.13.13 0 0 1 0-.184 9.953 9.953 0 0 1 2.01-1.481.13.13 0 0 1 .177.051.13.13 0 0 1-.051.176 9.742 9.742 0 0 0-1.958 1.443.132.132 0 0 1-.084.035z" data-name="Path 3581" transform="translate(-110.01 388.611)"/>
                    </g>
                </g>
            </g>
            <g id="_5" data-name="5" transform="translate(112.875 -385.604)">
                <g id="Group_8964" class="cls-4" data-name="Group 8964">
                    <path id="Path_3582" d="M112.875-375.748l1.215-1.679a3.4 3.4 0 0 0 2.294 1.064 1.584 1.584 0 0 0 1.755-1.739 1.554 1.554 0 0 0-1.634-1.726 2.474 2.474 0 0 0-1.576.54l-1.17-.764.286-5.52h6.269v2.22h-3.974l-.165 1.89a2.81 2.81 0 0 1 1.154-.225 3.252 3.252 0 0 1 3.48 3.524 3.852 3.852 0 0 1-4.034 3.96 5.314 5.314 0 0 1-3.9-1.545z" class="cls-2" data-name="Path 3582" transform="translate(-112.875 385.572)"/>
                </g>
            </g>
        </g>
    </g>
</svg>
