<svg xmlns="http://www.w3.org/2000/svg" width="85" height="36.302" viewBox="0 0 85 36.302">
    <defs>
        <style>
            .cls-1,.cls-2{fill:#fff}.cls-2{fill-rule:evenodd}
        </style>
    </defs>
    <g id="pts_footer_home" transform="translate(88.9 37.967)">
        <g id="Group_104" data-name="Group 104" transform="translate(-88.9 -37.967)">
            <g id="Group_101" data-name="Group 101">
                <g id="Group_100" data-name="Group 100" transform="translate(.363)">
                    <path id="Path_78" d="M1.162 18.57c1.029 1.373 3.824 3.382 5.343 2.7.735-.343 1.765-2.206-1.127-3.088a4.236 4.236 0 0 1-2.059-1.667 1.471 1.471 0 0 0-2.108-.049 1.471 1.471 0 0 0-.049 2.108z" class="cls-1" data-name="Path 78" transform="translate(-.741 -8.169)"/>
                    <path id="Path_79" d="M54.089 21.834a1.324 1.324 0 0 0 1.029-1.52 1.223 1.223 0 0 0-1.52-1.029 18.53 18.53 0 0 0-4.706.931 1.141 1.141 0 0 0-.49 1.716c.343.637.686.784 1.667.588z" class="cls-1" data-name="Path 79" transform="translate(-24.941 -9.815)"/>
                    <path id="Path_80" d="M39.777 2.189c-1.078.49-2.647 3.382-2.794 3.726s-.833 1.667-.294 2.4a1.422 1.422 0 0 0 1.961.441c1.029-.49.637-2.451 2.745-4.265a1.373 1.373 0 0 0 .343-1.863 1.471 1.471 0 0 0-1.961-.441z" class="cls-1" data-name="Path 80" transform="translate(-18.963 -1.005)"/>
                    <path id="Path_81" d="M15.758 2.2a15.638 15.638 0 0 0 1.716 5.343c.49.735 1.177 1.618 2.206 1.226s1.029-1.618.539-2.6a16.832 16.832 0 0 1-1.471-4.8 1.569 1.569 0 0 0-1.715-1.377C15.366.188 15.758 2.2 15.758 2.2z" class="cls-1" data-name="Path 81" transform="translate(-8.376 .017)"/>
                </g>
                <path id="Path_82" d="M6.618 36.3L0 45.761 8.383 51.5l-2.01-11.229a8.579 8.579 0 0 1 .245-3.971z" class="cls-1" data-name="Path 82" transform="translate(0 -19.42)"/>
                <path id="Path_83" d="M33.281 16.585c-.441-.735-.294-2.206.588-2.5l.637-.2-3.235-2.157a4.265 4.265 0 0 1-.931.931 2.244 2.244 0 0 1-2.941-.735c-.343-.49-.049-2.059.2-2.7L26.32 8.3l-6.52 9.314a8.628 8.628 0 0 1 13.236 9.9l6.912-9.853-1.078-.735-2.843.49c-1.668.492-2.354-.096-2.746-.831z" class="cls-1" data-name="Path 83" transform="translate(-10.094 -4.223)"/>
                <path id="Path_84" d="M22.4 55.878l1.373 7.794 1.275.882 6.813-9.754a8.628 8.628 0 0 1-9.461 1.078z" class="cls-1" data-name="Path 84" transform="translate(-11.419 -28.851)"/>
                <path id="Path_85" d="M25.9 41.078a5.147 5.147 0 1 0-3.855-.842 5.147 5.147 0 0 0 3.855.842z" class="cls-1" data-name="Path 85" transform="translate(-10.113 -16.257)"/>
            </g>
            <g id="Group_103" data-name="Group 103" transform="translate(21.321 21.919)">
                <g id="Group_102" data-name="Group 102" transform="translate(48.123 .598)">
                    <path id="Path_86" d="M162.98 57.212a2.059 2.059 0 0 0 .98-1.226l2.4-8.187h-6.814l-1.667 5.686a1.716 1.716 0 0 1 1.029 2.3 3.431 3.431 0 0 1-1.422 1.863l-.735 1.471a.735.735 0 0 1-.637.441s-.588-.147-.735.98.686.833.686.833h.588a1.814 1.814 0 0 0 1.765-1.078l1.52-2.843h.588l-.735 2.549q-.392 1.324.98 1.422h2.059s.49.049.784-.931-.245-.882-.245-.882h-.686c-.245 0-.294-.1-.245-.343zm-1.47-7.892h2.108l-.392 1.078h-2.108zm.245 5.932a.441.441 0 0 1-.441.343h-1.765l.343-1.078H162zm-1.471-2.206l.343-1.078h2.108l-.343 1.078z" class="cls-2" data-name="Path 86" transform="translate(-150.807 -47.799)"/>
                    <path id="Path_87" d="M149.269 55.741a3.53 3.53 0 0 1 1.961-2.157 18.334 18.334 0 0 0 2.206-2.7 2.01 2.01 0 0 0 .147-.98q-.147-.392-.735-.392h-1.029l.294-.98a.539.539 0 0 0-.147-.588 1.471 1.471 0 0 0-.686-.147 1.863 1.863 0 0 0-.833.2 1.127 1.127 0 0 0-.49.539l-.294.98h-.931a.98.98 0 0 0-.686.2 1.765 1.765 0 0 0-.392.637.931.931 0 0 0 0 .588.637.637 0 0 0 .539.294h2.843a18.592 18.592 0 0 1-4.167 3.628q-1.029.392-.735 1.324a.735.735 0 0 0 .392.49c.147.1.343.1.686 0l.833-.539-1.324 4.461a.392.392 0 0 0 .147.49.98.98 0 0 0 .637.147 1.863 1.863 0 0 0 .784-.147.784.784 0 0 0 .49-.49l.833-2.892a1.814 1.814 0 0 1-.343-1.961z" class="cls-2" data-name="Path 87" transform="translate(-146.067 -47.799)"/>
                    <path id="Path_88" d="M155 63.878a2.549 2.549 0 0 0 2.353-1.667 1.275 1.275 0 0 0-1.226-1.814 2.549 2.549 0 0 0-2.353 1.667A1.275 1.275 0 0 0 155 63.878z" class="cls-1" data-name="Path 88" transform="translate(-149.935 -54.221)"/>
                </g>
                <path id="Path_89" d="M84.788 50.609h-1.47a.588.588 0 0 1-.49-.294 1.128 1.128 0 0 1-.049-.735 1.324 1.324 0 0 1 .343-.637.931.931 0 0 1 .686-.343h1.52l.343-1.226a1.226 1.226 0 0 1 .441-.637 1.863 1.863 0 0 1 .784-.147.882.882 0 0 1 .637.147.539.539 0 0 1 .147.637l-.343 1.226h3.431l.343-1.226a1.226 1.226 0 0 1 .441-.637 1.863 1.863 0 0 1 .784-.147.882.882 0 0 1 .637.147.539.539 0 0 1 .147.637l-.341 1.226h1.569a.539.539 0 0 1 .441.294 1.128 1.128 0 0 1 .049.735 1.912 1.912 0 0 1-.343.686.931.931 0 0 1-.637.294h-1.569l-.931 3.382h2.3a.539.539 0 0 1 .441.294 1.127 1.127 0 0 1 .049.735 1.961 1.961 0 0 1-.343.686.931.931 0 0 1-.637.294H81.112a.588.588 0 0 1-.49-.294 1.128 1.128 0 0 1-.049-.735 1.324 1.324 0 0 1 .343-.637.931.931 0 0 1 .686-.343h2.255zm4.461 3.333l.882-3.284h-3.284l-.882 3.284zm-4.9 2.745h.931c.343.049.588.1.637.245s.1.294-.1.441a24.413 24.413 0 0 1-4.317 2.893 1.961 1.961 0 0 1-.931.147 4.02 4.02 0 0 1-.98-.294.735.735 0 0 1-.294-.49q-.049-.2 1.078-.686a19.021 19.021 0 0 0 3.137-1.961 1.471 1.471 0 0 1 .837-.294zm3.628 1.226c-.245-.1-.294-.245-.2-.441a1.373 1.373 0 0 1 .588-.441 2.451 2.451 0 0 1 .833-.2 1.275 1.275 0 0 1 .833.2 17.451 17.451 0 0 1 3.284 2.647.315.315 0 0 1 .049.441l-.735.294a2.451 2.451 0 0 1-.931.1 1.961 1.961 0 0 1-.735-.294 23.286 23.286 0 0 0-2.988-2.306z" class="cls-1" data-name="Path 89" transform="translate(-63.905 -46.579)"/>
                <path id="Path_90" d="M120.331 55.6h2.059l.245.1a.735.735 0 0 1-.049.294l-.147.245-.294.147h-2.059l-.294-.147a.735.735 0 0 1 .049-.294l.1-.245zm-.441 1.373H122l.245.1a.735.735 0 0 1-.049.294l-.1.245-.294.147h-2.108l-.294-.147a.736.736 0 0 1 .049-.294l.1-.245z" class="cls-1" data-name="Path 90" transform="translate(-84.349 -51.178)"/>
                <path id="Path_91" d="M132.031 55.6h2.059l.245.1a.735.735 0 0 1-.049.294l-.147.245-.294.147h-2.059l-.294-.147a.736.736 0 0 1 .049-.294l.1-.245zm-.441 1.373h2.11l.245.1a.736.736 0 0 1-.049.294l-.1.245-.294.147h-2.108l-.294-.147a.735.735 0 0 1 .049-.294l.1-.245z" class="cls-1" data-name="Path 91" transform="translate(-90.314 -51.178)"/>
                <path id="Path_92" d="M126.329 65.467a.735.735 0 0 0-.049-.637c-.049-.147-.343-.2-.539-.2l-.392.1.931-3.431h-11.618l-1.078 3.971a1.324 1.324 0 0 0-.049.931.98.98 0 0 0 .735.294h3.775l-.147.49a1.176 1.176 0 0 0 .147 1.127.98.98 0 0 0 .882.343h5.686a1.029 1.029 0 0 0 .686-.392 6.165 6.165 0 0 0 1.03-2.596zm-7.353-2.206h-2.892l.2-.686h2.843zm-.49 1.863h-2.892l.2-.686h2.843zm2.6-2.5h2.892l-.2.686h-2.892zm-.49 1.863h2.892l-.2.686H120.4zm3.382 2.549H120.1c-.2 0-.1-.294-.049-.49h3.284c.49 0 1.078.049 1.275-.2s-.095.689-.634.689z" class="cls-1" data-name="Path 92" transform="translate(-81.327 -54.084)"/>
                <path id="Path_93" d="M123.7 49.273h4.853a.98.98 0 0 0 .882-.686.539.539 0 0 0-.49-.686h-11.619a.98.98 0 0 0-.882.686c-.2.686.539.686.588.686h4.755l-.147.637h-5.54l-.833 3.186a.637.637 0 0 0 .637.833 1.177 1.177 0 0 0 1.078-.833l.539-2.01h3.824l-.588 2.157a.686.686 0 0 0 .686.98 1.324 1.324 0 0 0 1.226-.98l.588-2.157h3.775l-.539 2.01a.637.637 0 0 0 .588.833 1.176 1.176 0 0 0 1.078-.833l.833-3.186H123.5z" class="cls-1" data-name="Path 93" transform="translate(-82.227 -47.252)"/>
                <path id="Path_94" d="M67.654 52.261h-.49c-.147 0-.245-.147-.294-.392l-.735-4.069h-7.5a1.324 1.324 0 0 0-1.078.98c-.147.539.1.98.588.98h6.079l.588 3.333q.2 1.078 1.029 1.127h1.226a1.324 1.324 0 0 0 1.078-.98c.196-.54 0-.979-.491-.979z" class="cls-1" data-name="Path 94" transform="translate(-52.801 -47.201)"/>
                <path id="Path_95" d="M53.07 57.126A2.023 2.023 0 0 0 54.687 56l1.713-2.6h-2.056l-.931 1.275a1.078 1.078 0 0 1-.833.49h-.245a1.324 1.324 0 0 0-1.078.98c-.147.539.1.98.588.98z" class="cls-1" data-name="Path 95" transform="translate(-49.589 -50.056)"/>
                <path id="Path_96" d="M60.351 64.259l-.784-2.892a1.127 1.127 0 0 0-1.177-.882 1.422 1.422 0 0 0-1.422.882l.686 2.3c0 .392-.147.588-.49.588h-6.03l6.079-6.177c.147-.49-.147-.882-.735-.882a2.5 2.5 0 0 0-1.716.882l-6.471 6.373-.391 1.475h10.932q1.668 0 1.519-1.667z" class="cls-1" data-name="Path 96" transform="translate(-47.9 -51.993)"/>
            </g>
        </g>
    </g>
</svg>
