<svg xmlns="http://www.w3.org/2000/svg" xmlns:xlink="http://www.w3.org/1999/xlink" width="36.03" height="36.03" viewBox="0 0 36.03 36.03">
  <defs>
    <linearGradient id="linear-gradient" x1="0.751" y1="0.25" x2="0.963" y2="0.039" gradientUnits="objectBoundingBox">
      <stop offset="0" stop-color="#482314"/>
      <stop offset="0.125" stop-color="#482314"/>
      <stop offset="1" stop-color="#85370e"/>
    </linearGradient>
    <radialGradient id="radial-gradient" cx="0.5" cy="0.5" r="0.528" gradientTransform="matrix(0, 1, 0.901, 0, 10.451, -11.224)" gradientUnits="objectBoundingBox">
      <stop offset="0" stop-color="#ffd45f"/>
      <stop offset="1" stop-color="#ffa702"/>
    </radialGradient>
    <linearGradient id="linear-gradient-2" x1="0.015" y1="0.414" x2="1.153" y2="0.616" gradientUnits="objectBoundingBox">
      <stop offset="0.04" stop-color="#006200"/>
      <stop offset="0.378" stop-color="#006200"/>
      <stop offset="1" stop-color="#85370e"/>
    </linearGradient>
  </defs>
  <g id="reaction-story-mango" transform="translate(0 0)">
    <path id="Path_2885" data-name="Path 2885" d="M3567.519-302.552a.981.981,0,0,1-.685-.275.919.919,0,0,1,0-1.328l16.4-15.9a.989.989,0,0,1,1.369,0,.919.919,0,0,1,0,1.328l-16.4,15.9A.981.981,0,0,1,3567.519-302.552Z" transform="translate(-3549.1 325.06)" fill="url(#linear-gradient)"/>
    <path id="Path_2886" data-name="Path 2886" d="M3542.823-289.626a15.908,15.908,0,0,1-6.317-2.209,6.952,6.952,0,0,1-3.546-6.046,6.173,6.173,0,0,1,1.358-3.74c1.56-2.061,3.154-4.1,4.734-6.143,1.9-2.616,3.284-5.543,5.461-8.007,2.594-2.935,5.657-4.9,9.689-4.946,6.109-.064,10.721,2.5,13.235,8a14.276,14.276,0,0,1-2.019,15.953,19.983,19.983,0,0,1-6.6,5.128,13.659,13.659,0,0,1-3.341,1.3.169.169,0,0,1-.121.036.253.253,0,0,1-.266.087c-.146.05-.289.11-.439.15A28.757,28.757,0,0,1,3542.823-289.626Z" transform="translate(-3532.96 325.247)" fill="url(#radial-gradient)"/>
    <path id="Path_2887" data-name="Path 2887" d="M3584.135-290.066c-2.308-.552-3.6-3.327-2.888-6.2s3.162-4.747,5.47-4.192,3.6,3.329,2.889,6.2-3.159,4.747-5.47,4.193" transform="translate(-3556.121 315.557)" fill="#fff" fill-rule="evenodd" opacity="0.3"/>
    <path id="Path_2888" data-name="Path 2888" d="M3577.743-329.088a6.026,6.026,0,0,0,1.433,6.574,6.5,6.5,0,0,0,6.778,1.39,6.027,6.027,0,0,0-1.433-6.574A6.5,6.5,0,0,0,3577.743-329.088Z" transform="translate(-3554.314 329.499)" fill="url(#linear-gradient-2)"/>
  </g>
</svg>
