<svg id="reaction-story-like" xmlns="http://www.w3.org/2000/svg" xmlns:xlink="http://www.w3.org/1999/xlink" width="36.03" height="36.029" viewBox="0 0 36.03 36.029">
  <defs>
    <linearGradient id="linear-gradient" x1="0.5" y1="0.004" x2="0.5" y2="1.002" gradientUnits="objectBoundingBox">
      <stop offset="0" stop-color="#37aeff"/>
      <stop offset="0.05" stop-color="#37aeff"/>
      <stop offset="1" stop-color="#1861f7"/>
    </linearGradient>
  </defs>
  <path id="Path_2878" data-name="Path 2878" d="M241.666,170.354a18.015,18.015,0,1,0,18.015-18.015,18.015,18.015,0,0,0-18.015,18.015" transform="translate(-241.666 -152.339)" fill="url(#linear-gradient)"/>
  <path id="Path_2879" data-name="Path 2879" d="M276.96,177.588a1.769,1.769,0,0,0-.722-1.68,3.564,3.564,0,0,0,.674-1.659c0-1.626-1.47-2.111-3.74-2.1a18.537,18.537,0,0,0-4.016.493c.12-.7,1.005-2.721,1.005-3.4,0-1.4-.323-3.15-1.564-3.841a2.135,2.135,0,0,0-1.142-.307,1.876,1.876,0,0,0-1.358.5,1.3,1.3,0,0,0-.123.677l.226,2.653c0,2.129-3.136,4.731-3.136,7.8V183.1c0,1.132,1.466,1.935,3.579,1.935h5.827c1.523,0,1.868-.277,2.261-1.017a1.5,1.5,0,0,0-.031-1.541,2.345,2.345,0,0,0,1.437-1.719,2.084,2.084,0,0,0-.192-1.361,1.837,1.837,0,0,0,1.014-1.8m-19.046-3.663h1.824a1.582,1.582,0,0,1,1.552,1.61v8.806a1.582,1.582,0,0,1-1.552,1.61h-1.824a1.582,1.582,0,0,1-1.552-1.61v-8.806a1.582,1.582,0,0,1,1.552-1.61" transform="translate(-248.595 -158.679)" fill="#fff"/>
</svg>
