<svg id="reaction-story-cat" xmlns="http://www.w3.org/2000/svg" xmlns:xlink="http://www.w3.org/1999/xlink" width="36.03" height="36.03" viewBox="0 0 36.03 36.03">
  <defs>
    <radialGradient id="radial-gradient" cx="0.5" cy="0.5" r="0.5" gradientUnits="objectBoundingBox">
      <stop offset="0" stop-color="#ffda6a"/>
      <stop offset="0.783" stop-color="#ffd45f"/>
      <stop offset="1" stop-color="#ffa702"/>
    </radialGradient>
  </defs>
  <path id="Path_2824" data-name="Path 2824" d="M3184.56,580.758c0-1.543-.9-1.912-1.99-.822l-7.008,6.983a15.632,15.632,0,0,0-9.057-2.884h0a15.633,15.633,0,0,0-9.009,2.852l-6.976-6.951c-1.094-1.091-1.99-.721-1.99.822V601.6h0a13.807,13.807,0,0,0,13.791,13.743h8.448A13.808,13.808,0,0,0,3184.56,601.6h0V580.758Z" transform="translate(-3148.53 -579.31)" fill="url(#radial-gradient)"/>
  <path id="Path_2826" data-name="Path 2826" d="M3278.937,824.349a1.624,1.624,0,1,0,1.63,1.624,1.626,1.626,0,0,0-1.63-1.624Z" transform="translate(-3267.468 -806.768)"/>
  <path id="Path_2827" data-name="Path 2827" d="M3450.258,824.349a1.624,1.624,0,1,0,1.629,1.624,1.627,1.627,0,0,0-1.629-1.624Z" transform="translate(-3425.697 -806.768)"/>
  <line id="Line_28" data-name="Line 28" y2="3.27" transform="translate(14.347 4.243)" fill="#ffda6a"/>
  <path id="Path_2828" data-name="Path 2828" d="M3329.364,644.626c-.317,0-.574-.17-.574-.38V642.07c0-.21.257-.38.574-.38s.573.17.573.38v2.176C3329.938,644.456,3329.68,644.626,3329.364,644.626Z" transform="translate(-3315.015 -636.542)"/>
  <line id="Line_29" data-name="Line 29" y2="4.945" transform="translate(18.015 3.753)" fill="#ffda6a"/>
  <path id="Path_2829" data-name="Path 2829" d="M3377.365,639.844c-.316,0-.573-.193-.573-.432v-3.738c0-.238.257-.432.573-.432s.574.194.574.432v3.738C3377.938,639.651,3377.682,639.844,3377.365,639.844Z" transform="translate(-3359.349 -630.576)"/>
  <line id="Line_30" data-name="Line 30" y2="3.27" transform="translate(21.683 4.243)" fill="#ffda6a"/>
  <path id="Path_2830" data-name="Path 2830" d="M3425.367,644.626c-.317,0-.573-.17-.573-.38V642.07c0-.21.256-.38.573-.38s.573.17.573.38v2.176C3425.939,644.456,3425.683,644.626,3425.367,644.626Z" transform="translate(-3403.684 -636.542)"/>
  <path id="Path_2837" data-name="Path 2837" d="M3340.382,917.183a4.627,4.627,0,0,0,3.355-2.066,4.219,4.219,0,0,0,3.355,2.066,3.425,3.425,0,0,1-6.711,0Z" transform="translate(-3325.722 -890.624)" fill="#ff6855"/>
  <path id="Path_2838" data-name="Path 2838" d="M3338.366,914.989a3.511,3.511,0,0,1-3.8-3.155.444.444,0,0,1,.414-.468,4.14,4.14,0,0,0,3.008-1.859.441.441,0,0,1,.4-.208.447.447,0,0,1,.378.244,3.75,3.75,0,0,0,3,1.824.443.443,0,0,1,.4.468A3.508,3.508,0,0,1,3338.366,914.989Zm-2.839-2.814a3.057,3.057,0,0,0,5.677.011,4.686,4.686,0,0,1-2.852-1.674A5.079,5.079,0,0,1,3335.527,912.175Zm-.518-.368h0Z" transform="translate(-3320.35 -885.249)"/>
  <path id="Path_2839" data-name="Path 2839" d="M3293.211,895.181a3.914,3.914,0,0,1-3.916-3.9.573.573,0,0,1,1.146,0,2.77,2.77,0,0,0,5.54,0,.573.573,0,0,1,1.146,0A3.913,3.913,0,0,1,3293.211,895.181Z" transform="translate(-3278.539 -868.074)"/>
  <path id="Path_2840" data-name="Path 2840" d="M3380.707,895.181a3.913,3.913,0,0,1-3.916-3.9.573.573,0,0,1,1.147,0,2.77,2.77,0,0,0,5.539,0,.573.573,0,0,1,1.146,0A3.914,3.914,0,0,1,3380.707,895.181Z" transform="translate(-3359.349 -868.074)"/>
  <path id="Path_2841" data-name="Path 2841" d="M3350.618,875.114l2.068-2.373a.761.761,0,0,0-.576-1.261h-4.137a.762.762,0,0,0-.578,1.261l2.068,2.373A.766.766,0,0,0,3350.618,875.114Z" transform="translate(-3332.026 -850.31)"/>
  <path id="Path_2842" data-name="Path 2842" d="M3183.86,654.946c-.352-.338-.64-.217-.64.27V657.9a.891.891,0,0,0,.889.886h2.848c.49,0,.6-.277.251-.616Z" transform="translate(-3180.57 -650.087)" fill="#ff6855"/>
  <path id="Path_2843" data-name="Path 2843" d="M3539.279,654.946c.352-.338.639-.217.639.27V657.9a.89.89,0,0,1-.889.886h-2.848c-.489,0-.6-.277-.25-.616Z" transform="translate(-3506.14 -650.087)" fill="#ff6855"/>
</svg>
