<svg xmlns="http://www.w3.org/2000/svg" width="35" height="44" viewBox="0 0 35 44">
    <defs>
        <style>
            .cls-1{fill:none}.cls-2{fill:#fff}.cls-3{fill:#424242}.cls-4{clip-path:url(#clip-path)}.cls-5{fill:#ff7c6b}.cls-6{fill:#ddd}
        </style>
        <clipPath id="clip-path">
            <path id="Intersection_10" d="M0 18.545V0h20.494v18.545zm.387-.386h19.72V.387H.387z" class="cls-1" data-name="Intersection 10"/>
        </clipPath>
    </defs>
    <g id="slider-ending" transform="translate(-387 -1220.174)">
        <g id="Group_7508" data-name="Group 7508" transform="translate(387 1220.174)">
            <g id="Group_7506" data-name="Group 7506" transform="translate(6.936)">
                <path id="Rectangle_1259" d="M0 0h20.493v18.545H0z" class="cls-2" data-name="Rectangle 1259" transform="translate(.386 .386)"/>
                <path id="Path_2368" d="M966.471 522.074h-20.494a.386.386 0 0 1-.386-.386v-18.546a.386.386 0 0 1 .386-.386h20.493a.386.386 0 0 1 .386.386v18.545a.386.386 0 0 1-.385.387zm-20.107-.773h19.72v-17.772h-19.72z" class="cls-3" data-name="Path 2368" transform="translate(-945.591 -502.756)"/>
            </g>
            <g id="Group_7507" data-name="Group 7507" transform="translate(0 10.37)">
                <path id="Rectangle_1262" d="M0 0h34.226v32.857H0z" class="cls-2" data-name="Rectangle 1262" transform="translate(.386 .387)"/>
                <path id="Path_2370" d="M971.615 549.8H937.4a.385.385 0 0 1-.393-.378v-32.869a.385.385 0 0 1 .393-.378h34.214a.386.386 0 0 1 .393.378v32.874a.385.385 0 0 1-.392.373zm-33.82-.756h33.427V516.93h-33.428z" class="cls-3" data-name="Path 2370" transform="translate(-937.008 -516.175)"/>
            </g>
        </g>
        <g id="Group_8403" data-name="Group 8403" transform="translate(397.829 1240.156)">
            <g id="Group_7521" data-name="Group 7521">
                <path id="Path_2387" d="M957.92 543.425a7.073 7.073 0 1 1 7.073-7.073 7.081 7.081 0 0 1-7.073 7.073zm0-12.6a5.528 5.528 0 1 0 5.528 5.528 5.534 5.534 0 0 0-5.528-5.529z" class="cls-5" data-name="Path 2387" transform="translate(-950.847 -529.278)"/>
            </g>
            <g id="Group_7522" data-name="Group 7522" transform="translate(6.301)">
                <path id="Path_2388" d="M959.773 543.425a.773.773 0 0 1-.773-.773v-12.6a.773.773 0 1 1 1.546 0v12.6a.773.773 0 0 1-.773.773z" class="cls-5" data-name="Path 2388" transform="translate(-959 -529.278)"/>
            </g>
            <g id="Group_7523" data-name="Group 7523" transform="translate(2.422 6.665)">
                <path id="Path_2389" d="M954.753 543.217a.773.773 0 0 1-.546-1.319l3.768-3.768a.773.773 0 0 1 1.093 1.093l-3.768 3.767a.77.77 0 0 1-.547.227z" class="cls-5" data-name="Path 2389" transform="translate(-953.98 -537.903)"/>
            </g>
        </g>
        <g id="Group_8404" data-name="Group 8404" transform="translate(394.791 1226.588)">
            <path id="Rectangle_1260" d="M0 0h19.631v3.956H0z" class="cls-6" data-name="Rectangle 1260"/>
        </g>
    </g>
</svg>
