<svg xmlns="http://www.w3.org/2000/svg" width="160.002" height="216.001" viewBox="0 0 160.002 216.001">
  <g id="Song" transform="translate(-113.756 -319.301)">
    <g id="Group_9075" data-name="Group 9075">
      <circle id="Ellipse_742" data-name="Ellipse 742" cx="20" cy="20" r="20" transform="translate(173.756 319.301)" fill="#fe6407"/>
      <g id="Group_9075-2" data-name="Group 9075-2">
        <path id="path2906-7" d="M184.817,329.238l.209.036.353.3.339.5-.043.332-.238.231-1.189.4-.317.2-.159.231-2.148.461-.548.3-.411.05-.094-.065-.187.137-.5.058-.26.266.2.389h.151l.966.382.079.087.144.014.173-.115.166.014.151.151.252.072.836.014,1.665-.3.454-.4.62-.31,1.521-.612.209-.332.555-.447.367-.036.3.209.238-.173.851-.021.6.015.332-.216.49-.577.764.036.288-.036.425-.425v-.18l-.173-.375-.411-.3-.18.015-.368.267-.187.3-.584-.058-1.636-.67-.1-.4-.324-.541-.159-.1-.634-.086-.5-.13-.31-.18-.281.093-.649-.029-.98-.065-.461.108-.231.123-.122.238.036.209.159.216.2.159.223.238.072.31Z" fill="#fff"/>
        <path id="path2908-4" d="M183.562,335.221l.159-.267,2.271-.353.137-.108.065.079-.18.188-.238.7-.209.367-.31.123-.325.425-.3.123-.433-.252-.418-.476Z" fill="#fff"/>
        <path id="path2910-0" d="M184.42,339.164l.44-.36h.166v-.2l1.341-.678.187.022.144-.166,1.117-.62.793-1.182.555-1.024.079-.418.223-.231.324-1.038.411-.245,1.074.223.274.476.029.245-.151.231-.267.238-.411,1.19.18.786.166.194-.187.317-.555.216-.281.288-.555.151-.461.389-.123,1.117.108.281.267.18.382.05h.8l.346.043.252.173.6.836-.447.461-.887.036-.562-.072-.49.065-.454.224-.4.367-.281.533-.123.606.029.411.216.6-.152.613-.094.656.014.678.072.692.087.375-.029.447-.166.512-.224.281-.079.4.043.714-.043.6-.195-.159-.317-.656-.3-.649-.259-.245-.043-.339.1-.469.231-.411.252-.685.007-.368-.094-.245.065-.4.245.123.087-.238-.137-.079h-.281l-.18-.18.072-.418.4-.678.014-.425-.187-.389-.281-.382-.259-.238-1.19.043-1,.245-.317.317-.5.223-.526.043-.418.093-.245.173-.123.245-.771-.152-.915-.065-.159-.079.036-.389,1.514-.9.937-.065.843-.526.98-.49.577.043.368-.137.13-.18.2-.05.245-.252.029-.252-.108-.209-.194-.115-.642.194-.634.252-.375-.029-.433.086-.245-.13-.5-.079-.562.029-.3-.065-.216-.152-.087-.122-.461-.1V339.6l.087-.094.3-.029.173-.144.533.26.541.014.115.065h.166l.065-.216.187-.159.663-.137Z" fill="#fff"/>
        <path id="path2912-9" d="M182.452,346.978l.245-.31.18-.051.5-.332.281-.418.1-.3.137-.087.2.043.5.361.072.461-.087.36-.187.187-.173.159-.159.375-.014.461-.093.115-.49.087-.159-.072-.086-.13v-.166l-.26-.152-.245-.115-.209-.187-.05-.288Z" fill="#fff"/>
        <path id="path2914-4" d="M202.319,328.554l-.3-.115-.2.115-.368-.014-.187-.216-.425-.072-.144.072-.108-.123-.627-.108-.418.144-.541-.26-.166.13-.627.094-.57-.13-.332.62-.526.123-.274.209-.18-.043-.022.18-.166.058L196,329.11l-.094.108-.216-.014-.382.223-.634.649-.418.122-.065.094.072.094.187.043v.432l.173.253.014.36-.144.231-.007.742.115.259v.238l.065.137-.058.13-.007.512-.087.2v.281l-.231.252-.014.108.13.151-.014.743-.173.18-.05.187.231.5-.043.238-.051.087.051.2v.115l-.094.108.014.065.122.072-.058.187-.245.31.115.7-.173.137-.065-.065-.05.267.173.187.115.433-.065.31-.187.151-.007.065.079.094-.029.5-.173.159.058.13-.18.274.079.108-.231.209-.36.4-.187.108-.137-.007-.123-.2-.166-.007-.476.173-.281-.072.022.317-.166.158-.1-.014-.115.166.094.267-.014.223.144.115v.187l-.13.231.274.014.281.3.468.036.476-.267.223.058.3-.18.122.079.043-.238.62-.426.245.022.541-.49.267.1.137.043-.05.2-.13.014.043.187-.26.353-.007.173-.173-.087h-.166l-.123.123.123.144-.065.18-.159.238-.029.274-.281.606-1.053,1.1-.007.173-.252.274-.577.908-.584.5-.029.26-.094.253-.2.3.223.216.533-.476.231-.029.54-.6.238-.065.014-.13.3.122.187-.433.079.159.18-.094.166-.245.238-.021.152-.18.05-.577.2-.166.065-.267.764-.793-.108-.173.2-.231-.029-.375.036-.144.281-.079.26-.512.3-.353v-.115l.08-.036.685-1.168.7-.5.692-.13.245-.339.548-.26h.187l.389-.2.072-.151.173.029.187.368-.159.151-.007.13.461.411.014.476-.108.151.065.173.014.512-.231.3.058.324.238.13.13.44-.036.18.173.468.05.5.043.144-.166.223v.159l-.2.079.108.476.18.058.029.266.274.3-.072.13.656.685.209-.007.1.159.151-.022.022-.159.079-.137-.115-.108.115-.447.3-.389-.065-.079.144-.231.058-.36-.209-.382-.137.007-.094-.389-.159-.065-.079-.2v-.44l.151-.418.231-.18.238-.231.007-.18-.18-.2h-.152l-.065-.332v-.425l-.2-.325-.137-.483v-.5l.137-.346.036-.209-.18-.324.043-.065-.122-.337.2-.317-.115-.13-.216-.779.13-.18-.058-.122.144-.3-.13-.447.224-.555-.094-.4-.079.043-.079-.072.072-.173-.151-.231-.2.065v-.094l.173-.072.05-.6.13.094.2-.223-.288-.49.072-.266.079-.043-.108-.166.187-1.29-.187-.267.043-.353.3-.238-.193-.183.072-.043.087-.18-.18-.31.26-.577-.029-.706.173-.425.058-.5-.4-.5-.007-.166Zm-6.488,1.99.339.418.058.339-.043.728-.245.447v.238l.137.079-.022.346.13.158.793-.173.216.043.245-.086.224-.2.382-.094.4-.029.281-.267.223.007.173-.159.3-.021.4-.317.173-.029.087-.245.014-.367h.31l.058-.231-.1-.065.288-.173v-.2l-.159-.367.13-.2-.022-.2-.187.022-.562-.346h-.216l-.459-.245-.3.021-.094-.115-.173-.022-.13.137-.476.13h-.5l-.216.216-.252-.021-.094.151-.324.058-.043.159-.209.036-.3.187v.2l-.151-.072-.087.115Zm.036,3.619.426-.26,1.348-.014.094.159.108-.137,1.881-.454.209.159.3-.029.173-.159.231.043.05.187.094.051-.173.6-.3.007-.137.122.05.166.137-.029.2.087.13.425-.087.18-.786.382h-.159l-.173.2-.512-.022-.159.26-.656.007-.043.058-.274.072-.036.144-.288.1h-.18l-.389.231-.058.245h-.382l-.166.166.115.194.519.058.627-.072.325.087.2.014.231-.194.115-.108.281-.086.916.108.1-.065.187.087.4-.014-.007.67-.187.31-.728.829h-.187l-.123.1-.144.021-.389.375-.389.029-.339.144-.087.137-.166-.007-1.312.613-.187.245-.2.007-.18-.115.245-.209-.022-.18.13-.137-.014-.368-.115-.159v-.375l-.087-.1.072-.519.144-.151-.115-.3.108-.382-.317-.361.007-.187.13-.108.043-.231-.159-.332L195.9,336l.014-.353.1-.108-.07-.775.072-.079-.007-.173-.137-.346Z" fill="#fff" fill-rule="evenodd"/>
        <path id="path2916-8" d="M190.721,344.485l.187.065.087.223.13-.151.447.166.115.3v.562l-.036.454.173.411-.144.252-.353-.072-.325-.3-.216-.281-.173-.123-.068-.273.029-.627.079-.353.065-.252Z" fill="#fff"/>
        <path id="path2918-8" d="M206.414,343.922l.115.209v.569l-.094.108v.173l-.26.476-.094.317.079.072h.137l.144.209-.022.13-.007,1.153-.2.447.108.18-.346.483-.389.663-1.067.281h-.5l-.036.144-.137.029-.087-.115-.166-.043v.187l-.173-.014-.014-.13-.238.05-.18-.115-.663-.094-.1-.209-.187-.13-.252.029-.433-.3-.231-.115-.159-.224-.288-.159-.3.022-.238-.368-.094.007-1.088-.944v-.3l-.281-.31h.2l.05-.26-.2-.123-.123-.252-.065-.389-.152-.144-.072-.382.094-.425.231-.4-.1-.49.05-.187-.166-.187.238-.2-.122-.36.144-.346-.368-.368-.275.731-.353.324-.043.634-.274.526-.1.678.007.656.3.613-.058.065v.245l.159.152.007.627-.18.18.115.13.137-.014.166.13-.029.274.216.115-.065.346.123.317.3.238-.043.375.079.087.058-.065.18.115.036.223.13-.021.728.606.115.036.029.18.058-.029.187.058-.007.094.288-.029.2.267.425.029.663.173.858-.115.375.065.512-.05.043.108.166-.108.007.166.728.057.18-.173.231.007-.022-.18.123-.115.375.043.807-.13.137-.152.317.043.13-.18.915-.043.115-.187.13.036-.05-.166.043-.173v-.425l.18-.3-.036-.159.043-.238-.317-.519-.051-.634-.159-.086-.159-.389.036-.454-.216-.425-.014-.642-.108-.461L207,344.4l-.1-.361-.123.015-.05-.1.159-.029v-.281l.079-.18-.3-.224.014-.461-.332-.223.216.908-.151.461Zm-8.777,1.651.137-.151.065.216h.13l-.029-.159.166-.259.065.159-.1.13.072.159-.1.065.094.152-.065.115.058.152-.209.281-.079-.389L198,346l.029-.122-.022-.072-.3.072.058-.216-.123-.086Z" fill="#fff" fill-rule="evenodd"/>
      </g>
    </g>
    <g id="Group_8994" data-name="Group 8994">
      <g id="Path_2801" data-name="Path 2801">
        <path id="Path_2863" data-name="Path 2863" d="M145.291,508.3h96.925l31.366,23.1H113.927Z" fill="#fff"/>
      </g>
      <g id="Rectangle_1361" data-name="Rectangle 1361">
        <rect id="Rectangle_1396" data-name="Rectangle 1396" width="159.654" height="4.076" transform="translate(113.926 531.055)" fill="#f8f8f8"/>
      </g>
      <g id="Group_8257" data-name="Group 8257">
        <path id="Path_2864" data-name="Path 2864" d="M273.581,535.3H113.927a.169.169,0,0,1-.171-.167h0V531.1a.17.17,0,0,1,.139-.165l31.3-22.782a.171.171,0,0,1,.1-.033H242.22a.169.169,0,0,1,.1.033l31.3,22.782a.166.166,0,0,1,.138.165v4.029a.168.168,0,0,1-.168.168h-.009ZM114.1,534.966H273.413V531.21l-31.25-22.75H145.349L114.1,531.21Z" fill="#424242"/>
      </g>
      <g id="Group_8258" data-name="Group 8258">
        <path id="Path_2865" data-name="Path 2865" d="M243.257,531.225H117.164a.17.17,0,0,1-.171-.169h0a.17.17,0,0,1,.17-.17H243.257a.17.17,0,0,1,.17.17h0a.17.17,0,0,1-.17.17h0Z" fill="#424242"/>
      </g>
      <g id="Group_8259" data-name="Group 8259">
        <path id="Path_2866" data-name="Path 2866" d="M270.814,531.225H246a.17.17,0,1,1,0-.34h24.817a.17.17,0,0,1,.171.169h0a.171.171,0,0,1-.171.17Z" fill="#424242"/>
      </g>
    </g>
    <path id="Rectangle_1724" data-name="Rectangle 1724" d="M184.533,521.012H165.442v-6.693h12.6a6.493,6.493,0,0,1,6.493,6.493v.2Z" fill="#5e3f3e"/>
    <g id="Group_9000" data-name="Group 9000">
      <g id="Group_8996" data-name="Group 8996">
        <g id="Group_8995" data-name="Group 8995">
          <path id="Path_2966" data-name="Path 2966" d="M184.134,467.287v-5.225a5.241,5.241,0,0,0-1.259-3.558,4.823,4.823,0,0,0-3.688-1.485,4.611,4.611,0,0,0-4.8,4.365,25.568,25.568,0,0,1-1.5,4.917v.009a.688.688,0,0,0,.035.568.719.719,0,0,0,.472.354,1.9,1.9,0,0,0,.437.054,1.962,1.962,0,0,0,1.784-1.466l.324-.89v6.734a1.2,1.2,0,1,0,2.4,0v-2.973a2.3,2.3,0,0,1,2.668.022,1.2,1.2,0,0,1,1.933-.231A1.2,1.2,0,0,0,184.134,467.287Z" fill="#ffda6a"/>
          <path id="Path_2967" data-name="Path 2967" d="M177.135,472.853a1.193,1.193,0,0,0,.735-.251v.007a1.2,1.2,0,0,0,2.4,0V472.6a1.2,1.2,0,0,0,1.934-.943v-1.367a1.2,1.2,0,0,0,1.933-.943v-7.291" fill="#ffda6a"/>
          <path id="Path_2968" data-name="Path 2968" d="M183.669,462.058v7.291a.735.735,0,0,1-1.469,0v-3.5a.232.232,0,0,0-.464,0v5.811a.735.735,0,0,1-1.47,0v-5.811a.232.232,0,0,0-.464,0v6.761a.735.735,0,0,1-1.469,0v-6.761a.232.232,0,0,0-.464,0v5.811a.734.734,0,0,1-.735.732" fill="#ffda6a"/>
          <rect id="Rectangle_1725" data-name="Rectangle 1725" width="1.933" height="3.639" transform="translate(178.334 467.328)" fill="#ffda6a"/>
        </g>
        <line id="Line_57" data-name="Line 57" y2="6.204" transform="translate(177.912 466.369)" fill="none" stroke="#000" stroke-linecap="round" stroke-linejoin="round" stroke-width="0.333"/>
        <line id="Line_58" data-name="Line 58" y2="6.204" transform="translate(180.265 466.369)" fill="none" stroke="#000" stroke-linecap="round" stroke-linejoin="round" stroke-width="0.333"/>
        <line id="Line_59" data-name="Line 59" y2="3.874" transform="translate(182.196 466.418)" fill="none" stroke="#000" stroke-linecap="round" stroke-linejoin="round" stroke-width="0.333"/>
      </g>
      <g id="Group_8998" data-name="Group 8998">
        <g id="Group_8997" data-name="Group 8997">
          <path id="Path_2969" data-name="Path 2969" d="M143.613,468.476a1.2,1.2,0,0,1,1.934.231,1.2,1.2,0,0,1,1.933.231,1.2,1.2,0,0,0,.735-.253v2.973a1.2,1.2,0,1,0,2.4,0v-6.734l.324.89a1.964,1.964,0,0,0,1.784,1.466,1.9,1.9,0,0,0,.438-.054.714.714,0,0,0,.472-.354.688.688,0,0,0,.034-.568V466.3a25.569,25.569,0,0,1-1.5-4.917,4.611,4.611,0,0,0-4.8-4.365,4.827,4.827,0,0,0-3.689,1.485,5.251,5.251,0,0,0-1.259,3.558v5.225A1.2,1.2,0,0,0,143.613,468.476Z" fill="#ffda6a"/>
          <path id="Path_2970" data-name="Path 2970" d="M149.412,472.853a1.2,1.2,0,0,1-.734-.251v.007a1.2,1.2,0,0,1-2.4,0V472.6a1.2,1.2,0,0,1-1.933-.943v-1.367a1.2,1.2,0,0,1-1.934-.943v-7.291" fill="#ffda6a"/>
          <path id="Path_2971" data-name="Path 2971" d="M142.878,462.058v7.291a.735.735,0,0,0,1.47,0v-3.5a.232.232,0,0,1,.464,0v5.811a.735.735,0,1,0,1.469,0v-5.811a.232.232,0,0,1,.464,0v6.761a.735.735,0,0,0,1.47,0v-6.761a.232.232,0,0,1,.464,0v5.811a.733.733,0,0,0,.734.732h0" fill="#ffda6a"/>
          <rect id="Rectangle_1726" data-name="Rectangle 1726" width="1.933" height="3.639" transform="translate(146.281 467.328)" fill="#ffda6a"/>
        </g>
        <line id="Line_60" data-name="Line 60" y2="6.204" transform="translate(148.636 466.369)" fill="none" stroke="#000" stroke-linecap="round" stroke-linejoin="round" stroke-width="0.333"/>
        <line id="Line_61" data-name="Line 61" y2="6.204" transform="translate(146.283 466.369)" fill="none" stroke="#000" stroke-linecap="round" stroke-linejoin="round" stroke-width="0.333"/>
        <line id="Line_62" data-name="Line 62" y2="3.874" transform="translate(144.352 466.418)" fill="none" stroke="#000" stroke-linecap="round" stroke-linejoin="round" stroke-width="0.333"/>
      </g>
      <g id="Group_8999" data-name="Group 8999">
        <path id="Rectangle_1727" data-name="Rectangle 1727" d="M162.849,410.194h1.485a21.093,21.093,0,0,1,21.092,21.093v33.307h-43.67V431.287A21.093,21.093,0,0,1,162.849,410.194Z" fill="#afaf8a"/>
      </g>
      <g id="Rectangle_1728" data-name="Rectangle 1728">
        <rect id="Rectangle_1952" data-name="Rectangle 1952" width="12.23" height="51.043" transform="translate(150.109 463.276)" fill="#c7c7ad"/>
        <rect id="Rectangle_1953" data-name="Rectangle 1953" width="11.73" height="50.543" transform="translate(150.359 463.526)" fill="none" stroke="#424242" stroke-miterlimit="10" stroke-width="0.5"/>
      </g>
      <g id="Rectangle_1729" data-name="Rectangle 1729">
        <rect id="Rectangle_1954" data-name="Rectangle 1954" width="12.23" height="51.043" transform="translate(164.863 463.276)" fill="#c7c7ad"/>
        <rect id="Rectangle_1955" data-name="Rectangle 1955" width="11.73" height="50.543" transform="translate(165.113 463.526)" fill="none" stroke="#424242" stroke-miterlimit="10" stroke-width="0.5"/>
      </g>
      <g id="Path_2972" data-name="Path 2972">
        <path id="Path_6343" data-name="Path 6343" d="M180.268,468.164H146.911V426.33a16.679,16.679,0,0,1,33.357,0Z" fill="#c7c7ad"/>
        <path id="Path_6344" data-name="Path 6344" d="M163.59,409.972a16.394,16.394,0,0,0-16.429,16.358v41.584h32.857V426.33a16.394,16.394,0,0,0-16.428-16.358m0-.5a16.892,16.892,0,0,1,16.928,16.858v42.084H146.661V426.33A16.894,16.894,0,0,1,163.59,409.472Z" fill="#424242"/>
      </g>
      <rect id="Rectangle_1730" data-name="Rectangle 1730" width="11.787" height="18.094" transform="translate(157.698 404.292)" fill="#ffba00"/>
      <path id="Path_2973" data-name="Path 2973" d="M155.262,413.473l8.328,1.17,8.328-1.17L163.59,437.2Z" fill="#fff"/>
      <path id="Path_2974" data-name="Path 2974" d="M164.817,418.06h-2.448l-1.035-3.4h4.518Z" fill="#f70"/>
      <path id="Path_2975" data-name="Path 2975" d="M162.37,418.063h2.448l1.141,10.545-2.463,8.6-2.275-8.516Z" fill="#f70"/>
      <ellipse id="Ellipse_427" data-name="Ellipse 427" cx="3.645" cy="3.63" rx="3.645" ry="3.63" transform="translate(148.742 391.81)" fill="#ffda6a"/>
      <ellipse id="Ellipse_428" data-name="Ellipse 428" cx="3.645" cy="3.63" rx="3.645" ry="3.63" transform="translate(170.364 391.81)" fill="#ffda6a"/>
      <path id="Path_2976" data-name="Path 2976" d="M164.779,409.757H161.77a6.965,6.965,0,0,1-6.015-3.321l-2.6-4.382a6.158,6.158,0,0,1-.87-3.15V386.95c0-5.674,4.944-10.316,10.98-10.316h0c6.04,0,10.983,4.644,10.984,10.32v11.953a6.156,6.156,0,0,1-.87,3.146l-2.6,4.383A6.967,6.967,0,0,1,164.779,409.757Z" fill="#ffda6a"/>
      <path id="Path_2977" data-name="Path 2977" d="M155.1,380.181s-2.21-4.359,4.956-6.519c5.562-1.677,12.645,2.879,14.27,5.879s2.259,4.955-.119,13.274c0,0-.646-3.1-1.449-3.506,0,0,.742-4.088.284-5.369s-4.689-8.307-12.79-6.327A11.716,11.716,0,0,0,155.1,380.181Z"/>
      <path id="Path_2978" data-name="Path 2978" d="M155.373,379.911s-1.99,2.826-2.265,4.308a20.6,20.6,0,0,0,.365,5.012s-1.236,1.078-1.236,4.045c0,0-1.855-2.052-1.806-6.947C150.473,381.873,153.3,377.941,155.373,379.911Z"/>
      <path id="Path_2979" data-name="Path 2979" d="M165.32,388.424h4.6l1.94,1.449.849,1.932-1.455-1.328-1.476-.743h-3.85" fill="#373737"/>
      <path id="Path_2980" data-name="Path 2980" d="M160.8,388.424h-4.6l-1.94,1.449-.849,1.932,1.455-1.328,1.476-.743h3.85" fill="#373737"/>
      <path id="Path_2981" data-name="Path 2981" d="M156.258,393.383a1.585,1.585,0,0,1,3.169-.009"/>
      <path id="Path_2982" data-name="Path 2982" d="M166.7,393.383a1.585,1.585,0,0,1,3.169-.009"/>
      <rect id="Rectangle_1731" data-name="Rectangle 1731" width="5.682" height="1.996" rx="0.968" transform="translate(160.264 396.623)" fill="#ffba00"/>
      <rect id="Rectangle_1732" data-name="Rectangle 1732" width="2.376" height="6.51" rx="1.148" transform="translate(161.911 392.948)" fill="#ffba00"/>
      <g id="Path_2983" data-name="Path 2983">
        <path id="Path_6345" data-name="Path 6345" d="M165.984,418.714l-2.074-4,5.524-4.171,2.152,2.9Z" fill="#fff"/>
        <path id="Path_6346" data-name="Path 6346" d="M169.384,410.9l-5.155,3.892,1.825,3.516,5.2-4.89-1.868-2.518m.1-.7,2.434,3.28-6,5.649-2.324-4.479Z" fill="#fff"/>
      </g>
      <g id="Path_2984" data-name="Path 2984">
        <path id="Path_6347" data-name="Path 6347" d="M161.2,418.714l-5.6-5.27,2.152-2.9,5.524,4.171Z" fill="#fff"/>
        <path id="Path_6348" data-name="Path 6348" d="M157.8,410.9l-1.869,2.518,5.2,4.89,1.825-3.516L157.8,410.9m-.1-.7,5.893,4.45-2.324,4.479-6-5.649Z" fill="#fff"/>
      </g>
      <g id="Path_2985" data-name="Path 2985">
        <path id="Path_6349" data-name="Path 6349" d="M163.1,436.137,152.772,422.4l2.091-2.393.123-.142-.1-.157-2.757-4.322,5.416-4.723Z" fill="#c7c7ad"/>
        <path id="Path_6350" data-name="Path 6350" d="M157.39,411.127l-4.935,4.3,2.641,4.14.2.316-.246.282-1.957,2.241,9.521,12.661-5.225-23.944m.308-.933,5.894,27.008-11.141-14.815,2.223-2.547-2.872-4.5Z" fill="#424242"/>
      </g>
      <g id="Path_2986" data-name="Path 2986">
        <path id="Path_6351" data-name="Path 6351" d="M164.078,436.137l5.559-25.476,5.416,4.723-2.757,4.322-.1.157.123.142,2.091,2.393Z" fill="#c7c7ad"/>
        <path id="Path_6352" data-name="Path 6352" d="M169.791,411.127l-5.225,23.945,9.521-12.662-1.957-2.241-.246-.282.2-.316,2.642-4.14-4.936-4.3m-.308-.933,5.9,5.143-2.873,4.5,2.224,2.547L163.589,437.2Z" fill="#424242"/>
      </g>
      <path id="Path_2987" data-name="Path 2987" d="M167.757,401.432a8.034,8.034,0,0,1-8.962.009" fill="none" stroke="#000" stroke-linecap="round" stroke-linejoin="round" stroke-width="0.25"/>
      <path id="Path_2988" data-name="Path 2988" d="M166.7,398.32a4.649,4.649,0,0,1,3.319,3.3" fill="none" stroke="#c48000" stroke-linecap="round" stroke-linejoin="round" stroke-width="0.25"/>
      <path id="Path_2989" data-name="Path 2989" d="M159.665,398.32a4.653,4.653,0,0,0-3.319,3.3" fill="none" stroke="#c48000" stroke-linecap="round" stroke-linejoin="round" stroke-width="0.25"/>
    </g>
    <path id="Rectangle_1733" data-name="Rectangle 1733" d="M149.309,514.319h12.6v6.693H142.816v-.2A6.493,6.493,0,0,1,149.309,514.319Z" fill="#5e3f3e"/>
    <g id="Group_9084" data-name="Group 9084">
      <g id="Group_9015-2" data-name="Group 9015-2">
        <g id="Group_9014-2" data-name="Group 9014-2">
          <path id="Path_3010-2" data-name="Path 3010-2" d="M194.434,467.512v-5.354a5.38,5.38,0,0,1,1.285-3.645,4.922,4.922,0,0,1,3.769-1.523,4.717,4.717,0,0,1,4.9,4.472,26.289,26.289,0,0,0,1.533,5.037v.009a.7.7,0,0,1-.031.587.728.728,0,0,1-.483.361,1.866,1.866,0,0,1-.446.056,2.008,2.008,0,0,1-1.823-1.5l-.334-.913V472a1.227,1.227,0,0,1-2.454,0v-3.045a2.343,2.343,0,0,0-2.726.023,1.227,1.227,0,0,0-1.975-.238A1.226,1.226,0,0,1,194.434,467.512Z" fill="#ffda6a"/>
          <path id="Path_3011-2" data-name="Path 3011-2" d="M201.582,473.213a1.22,1.22,0,0,1-.75-.256v.006a1.227,1.227,0,0,1-2.454,0v-.011a1.226,1.226,0,0,1-1.974-.965v-1.4a1.228,1.228,0,0,1-1.975-.965v-7.473" fill="#ffda6a"/>
          <path id="Path_3012-2" data-name="Path 3012-2" d="M194.908,462.155v7.473a.751.751,0,0,0,1.5,0v-3.592a.237.237,0,1,1,.473-.007v5.96a.751.751,0,0,0,1.5,0v-5.953a.238.238,0,0,1,.475,0v6.925a.751.751,0,0,0,1.5,0v-6.925a.237.237,0,1,1,.473-.007v5.96a.752.752,0,0,0,.75.75" fill="#ffda6a"/>
          <rect id="Rectangle_1748-2" data-name="Rectangle 1748-2" width="1.975" height="3.729" transform="translate(198.383 467.553)" fill="#ffda6a"/>
        </g>
        <line id="Line_69-2" data-name="Line 69-2" y2="6.356" transform="translate(200.789 466.571)" fill="none" stroke="#000" stroke-linecap="round" stroke-linejoin="round" stroke-width="0.371"/>
        <line id="Line_70-2" data-name="Line 70-2" y2="6.356" transform="translate(198.386 466.571)" fill="none" stroke="#000" stroke-linecap="round" stroke-linejoin="round" stroke-width="0.371"/>
        <line id="Line_71-2" data-name="Line 71-2" y2="3.969" transform="translate(196.412 466.621)" fill="none" stroke="#000" stroke-linecap="round" stroke-linejoin="round" stroke-width="0.371"/>
      </g>
      <g id="Group_9017-2" data-name="Group 9017-2">
        <g id="Group_9016-2" data-name="Group 9016-2">
          <path id="Path_3013-2" data-name="Path 3013-2" d="M235.829,468.734a1.227,1.227,0,0,0-1.734-.069,1.207,1.207,0,0,0-.24.306,1.227,1.227,0,0,0-1.976.237,1.213,1.213,0,0,1-.749-.259v3.045a1.227,1.227,0,0,1-2.454,0v-6.9l-.335.912a2.009,2.009,0,0,1-1.822,1.5,1.92,1.92,0,0,1-.447-.056.733.733,0,0,1-.483-.361.707.707,0,0,1-.034-.583V466.5a26.221,26.221,0,0,0,1.534-5.037,4.716,4.716,0,0,1,4.9-4.472,4.922,4.922,0,0,1,3.769,1.523,5.382,5.382,0,0,1,1.287,3.645v5.354A1.229,1.229,0,0,1,235.829,468.734Z" fill="#ffda6a"/>
          <path id="Path_3014-2" data-name="Path 3014-2" d="M229.9,473.213a1.223,1.223,0,0,0,.751-.256v.006a1.227,1.227,0,0,0,2.454,0v-.011a1.227,1.227,0,0,0,1.974-.965v-1.4a1.226,1.226,0,0,0,1.975-.965v-7.473" fill="#ffda6a"/>
          <path id="Path_3015-2" data-name="Path 3015-2" d="M236.58,462.155v7.473a.751.751,0,0,1-1.5,0v-3.592a.237.237,0,1,0-.473-.007v5.96a.751.751,0,0,1-1.5,0v-5.953a.238.238,0,0,0-.474-.031v6.956a.75.75,0,1,1-1.5,0v-6.925a.238.238,0,0,0-.474-.031.159.159,0,0,0,0,.031v5.953a.752.752,0,0,1-.751.75" fill="#ffda6a"/>
          <rect id="Rectangle_1749-2" data-name="Rectangle 1749-2" width="1.975" height="3.729" transform="translate(231.129 467.553)" fill="#ffda6a"/>
        </g>
        <line id="Line_72-2" data-name="Line 72-2" y2="6.356" transform="translate(230.697 466.571)" fill="none" stroke="#000" stroke-linecap="round" stroke-linejoin="round" stroke-width="0.371"/>
        <line id="Line_73-2" data-name="Line 73-2" y2="6.356" transform="translate(233.101 466.571)" fill="none" stroke="#000" stroke-linecap="round" stroke-linejoin="round" stroke-width="0.371"/>
        <line id="Line_74-2" data-name="Line 74-2" y2="3.969" transform="translate(235.074 466.621)" fill="none" stroke="#000" stroke-linecap="round" stroke-linejoin="round" stroke-width="0.371"/>
      </g>
      <rect id="Rectangle_1750-2" data-name="Rectangle 1750-2" width="9.119" height="48.724" transform="translate(217.258 464.875)" fill="#ffda6a"/>
      <path id="Path_6353" data-name="Path 6353" d="M229.645,514.763l-3.268-2.974h-9.119l6.244,6.244" fill="#ffda6a"/>
      <path id="Path_6354" data-name="Path 6354" d="M217.258,511.79s-.753,1.189-.753,4.4a12.358,12.358,0,0,0,.753,4.821h2.7v-2.443s4,3.144,11.934,3.144c6.314,0,1.518-5.275-2.243-6.95-.117-.052-1.805-.039-2.4-.039C225.068,514.724,217.258,511.79,217.258,511.79Z"/>
      <rect id="Rectangle_1750-2-2" data-name="Rectangle 1750-2" width="9.119" height="48.724" transform="translate(205.323 464.875)" fill="#ffda6a"/>
      <path id="Path_6355" data-name="Path 6355" d="M202.055,514.763l3.268-2.974h9.119l-6.244,6.244" fill="#ffda6a"/>
      <path id="Path_6356" data-name="Path 6356" d="M214.442,511.79s.753,1.189.753,4.4a12.358,12.358,0,0,1-.753,4.821h-2.7v-2.443s-4.005,3.144-11.934,3.144c-6.314,0-1.518-5.275,2.243-6.95.117-.052,1.805-.039,2.4-.039C206.631,514.724,214.442,511.79,214.442,511.79Z"/>
      <rect id="Rectangle_1751-2" data-name="Rectangle 1751-2" width="32.657" height="18.458" transform="translate(199.233 464.875)" fill="#fff" stroke="#6c6c6c" stroke-miterlimit="10" stroke-width="0.607"/>
      <g id="Group_9020-2" data-name="Group 9020-2">
        <g id="Group_9019-2" data-name="Group 9019-2">
          <path id="Rectangle_1752-2" data-name="Rectangle 1752-2" d="M214.286,417.624h2.83a20.1,20.1,0,0,1,20.1,20.1h0v24.583H194.187V437.723a20.1,20.1,0,0,1,20.1-20.1Z" fill="#d7d7d7"/>
        </g>
      </g>
      <path id="Path_3016-2" data-name="Path 3016-2" d="M216.622,416.736c9.491.418,16.79,8.608,16.79,18.094v30.045H198.241V434.282a17.574,17.574,0,0,1,17.587-17.564C216.093,416.718,216.357,416.724,216.622,416.736Z" fill="#fff" stroke="#6c6c6c" stroke-miterlimit="10" stroke-width="0.558"/>
      <path id="Path_3018-2" data-name="Path 3018-2" d="M221.879,421.619H209.415l6.327,20.034Z" fill="#f70"/>
      <path id="Rectangle_1753-2" data-name="Rectangle 1753-2" d="M210.435,409.99H221.16v9.355a5.18,5.18,0,0,1-5.18,5.18h-.365a5.18,5.18,0,0,1-5.18-5.18h0V409.99Z" fill="#ffba00"/>
      <path id="Path_3027-2" data-name="Path 3027-2" d="M221.422,416.34l-5.682,26.111,10.742-14.323-2.144-2.462,2.77-4.35Z" fill="#d7d7d7"/>
      <path id="Path_3028-2" data-name="Path 3028-2" d="M210.061,416.34l5.682,26.111L205,428.128l2.144-2.462-2.77-4.35Z" fill="#d7d7d7"/>
    </g>
    <g id="Group_9325" data-name="Group 9325">
      <ellipse id="Ellipse_848" data-name="Ellipse 848" cx="12.506" cy="11.415" rx="12.506" ry="11.415" transform="translate(203.223 392.083)" fill="#301c07"/>
      <g id="Group_9323" data-name="Group 9323">
        <path id="Path_3020-2" data-name="Path 3020-2" d="M215.714,384.25h0c5.976,0,9.614,4.74,10.521,11.766l.343,9.871c.337,5.082-1.989,8.645-6.117,10.271-1.215.958-2.654.94-4.127.936h0" fill="#ffda6a"/>
        <path id="Path_3020-2-2" data-name="Path 3020-2" d="M216.334,417.094H215.1c-1.474,0-2.913.022-4.128-.936-4.128-1.626-6.454-5.189-6.117-10.271l.343-9.871c.907-7.026,4.545-11.766,10.521-11.766h0" fill="#ffda6a"/>
      </g>
      <path id="Path_6357" data-name="Path 6357" d="M220.239,387.482s6.194,3.772,5.87,12.987c0,0,1.213,2.677,2.631,2.677,1.319,0,2.84-1.043,3.193-3.3.653-4.17-5.97-17.689-10.912-16.741Z" fill="#301c07"/>
      <ellipse id="Ellipse_428-2" data-name="Ellipse 428" cx="3.64" cy="3.63" rx="3.64" ry="3.63" transform="translate(223.721 400.469)" fill="#ffda6a"/>
      <path id="Path_3023-2" data-name="Path 3023-2" d="M213.282,397.8l.642.964-5.051-.4-2.319.9,2.31-1.869" fill="#2a0800"/>
      <path id="Path_3025-2" data-name="Path 3025-2" d="M217.533,398.826l5.05-.453,2.319.905-2.31-1.869-4.417.453Z" fill="#2a0800"/>
      <path id="Path_3026-2" data-name="Path 3026-2" d="M222.267,402.828a1.866,1.866,0,0,0-3.674,0"/>
      <line id="Line_76-2" data-name="Line 76-2" x1="1.224" transform="translate(222.644 402.68)" fill="none" stroke="#c48000" stroke-linecap="round" stroke-linejoin="round" stroke-width="0.25"/>
      <path id="Path_3026-2-2" data-name="Path 3026-2" d="M212.932,402.828a1.867,1.867,0,0,0-3.675,0"/>
      <line id="Line_76-2-2" data-name="Line 76-2" x1="1.224" transform="translate(207.657 402.68)" fill="none" stroke="#c48000" stroke-linecap="round" stroke-linejoin="round" stroke-width="0.25"/>
      <path id="Path_3029-2" data-name="Path 3029-2" d="M211.311,409.71a7.813,7.813,0,0,0,8.745.009" fill="none" stroke="#000" stroke-linecap="round" stroke-linejoin="round" stroke-width="0.25"/>
      <g id="Group_9324" data-name="Group 9324">
        <g id="Group_9023-2" data-name="Group 9023-2">
          <path id="Rectangle_1754-2" data-name="Rectangle 1754-2" d="M.91,0H.974a.909.909,0,0,1,.909.909V4.721a.91.91,0,0,1-.91.91H.909A.909.909,0,0,1,0,4.722V.91A.91.91,0,0,1,.91,0Z" transform="translate(214.742 402.372)" fill="#ffba00"/>
        </g>
        <rect id="Rectangle_1755-2" data-name="Rectangle 1755-2" width="4.5" height="2.112" rx="1.022" transform="translate(213.433 405.099)" fill="#ffba00"/>
      </g>
      <path id="Path_6358" data-name="Path 6358" d="M219.827,387.267a39.832,39.832,0,0,1-3.594,7.27,7.672,7.672,0,0,1-2.815,2.538,28.518,28.518,0,0,1-3.955,1.706,16.683,16.683,0,0,0-4.319,1.931,15.17,15.17,0,0,0-1.841,1.5c-.658.591-1.249-.125-1.715-.619a5.891,5.891,0,0,1-1.264-4.6,15.248,15.248,0,0,1,1.718-5.227,48.891,48.891,0,0,1,2.828-4.824,12.949,12.949,0,0,1,5.1-4.586c6.785-3.325,11.055.708,11.056.709.4.391-.244,1.582-.38,2.02A20.8,20.8,0,0,1,219.827,387.267Z" fill="#301c07"/>
      <ellipse id="Ellipse_428-3" data-name="Ellipse 428" cx="3.523" cy="3.513" rx="3.523" ry="3.513" transform="translate(200.539 400.703)" fill="#ffda6a"/>
      <g id="Ellipse_849" data-name="Ellipse 849" transform="translate(217.058 399.117)" fill="none" stroke="#000" stroke-miterlimit="10" stroke-width="0.31">
        <circle cx="3.519" cy="3.519" r="3.519" stroke="none"/>
        <circle cx="3.519" cy="3.519" r="3.364" fill="none"/>
      </g>
      <g id="Ellipse_850" data-name="Ellipse 850" transform="translate(207.582 399.117)" fill="none" stroke="#000" stroke-miterlimit="10" stroke-width="0.31">
        <circle cx="3.519" cy="3.519" r="3.519" stroke="none"/>
        <circle cx="3.519" cy="3.519" r="3.364" fill="none"/>
      </g>
      <path id="Path_6359" data-name="Path 6359" d="M212.313,412.235a5.341,5.341,0,0,0,6.74,0" fill="none" stroke="#ffba00" stroke-miterlimit="10" stroke-width="0.25"/>
      <path id="Path_6360" data-name="Path 6360" d="M214.509,402.636a1.873,1.873,0,0,1,2.438,0" fill="none" stroke="#000" stroke-linecap="round" stroke-linejoin="round" stroke-width="0.262"/>
    </g>
    <line id="Line_349" data-name="Line 349" y1="1.127" x2="2.388" transform="translate(223.721 400.469)" fill="none" stroke="#000" stroke-miterlimit="10" stroke-width="0.31"/>
    <path id="Path_6361" data-name="Path 6361" d="M207.738,401.6" fill="none" stroke="#000" stroke-miterlimit="10" stroke-width="0.31"/>
  </g>
</svg>
