<svg xmlns="http://www.w3.org/2000/svg" width="469" height="80" viewBox="0 0 469 80">
    <defs>
        <style>
            .cls-1{fill:#fff}.cls-2{fill:#f8f8f8}.cls-3{fill:#424242}
        </style>
    </defs>
    <g id="step" transform="translate(911.769 852.168)">
        <g id="Path_2801" data-name="Path 2801" transform="translate(-911.269 -851.668)">
            <path id="Path_2863" d="M-819.328-851.668h284.118l91.941 68h-468z" class="cls-1" data-name="Path 2863" transform="translate(911.269 851.668)"/>
        </g>
        <g id="Rectangle_1361" data-name="Rectangle 1361" transform="translate(-911.269 -784.668)">
            <path id="Rectangle_1396" d="M0 0h468v12H0z" class="cls-2" data-name="Rectangle 1396"/>
        </g>
        <g id="Group_8257" data-name="Group 8257" transform="translate(-911.769 -852.168)">
            <path id="Path_2864" d="M-443.269-772.168h-468a.5.5 0 0 1-.5-.494v-11.861a.5.5 0 0 1 .406-.485l91.738-67.063a.5.5 0 0 1 .3-.1h284.115a.5.5 0 0 1 .3.1l91.739 67.063a.5.5 0 0 1 .4.485v11.861a.5.5 0 0 1-.498.494zm-467.5-.988h467v-11.057l-91.606-66.966h-283.788l-91.606 66.966z" class="cls-3" data-name="Path 2864" transform="translate(911.769 852.168)"/>
        </g>
        <g id="Group_8258" data-name="Group 8258" transform="translate(-902.279 -785.168)">
            <path id="Path_2865" d="M-532.159-783.229h-369.62a.5.5 0 0 1-.5-.5.5.5 0 0 1 .5-.5h369.62a.5.5 0 0 1 .5.5.5.5 0 0 1-.5.5z" class="cls-3" data-name="Path 2865" transform="translate(902.279 784.229)"/>
        </g>
        <g id="Group_8259" data-name="Group 8259" transform="translate(-524.624 -785.168)">
            <path id="Path_2866" d="M-451.384-783.229h-72.74a.5.5 0 0 1-.5-.5.5.5 0 0 1 .5-.5h72.74a.5.5 0 0 1 .5.5.5.5 0 0 1-.5.5z" class="cls-3" data-name="Path 2866" transform="translate(524.624 784.229)"/>
        </g>
    </g>
</svg>
