<svg id="Tsai" xmlns="http://www.w3.org/2000/svg" xmlns:xlink="http://www.w3.org/1999/xlink" width="160.002" height="216.005" viewBox="0 0 160.002 216.005">
  <defs>
    <clipPath id="clip-path">
      <path id="Path_6381" data-name="Path 6381" d="M756.384,339.29a14.609,14.609,0,1,1-14.611-14.607h0a14.615,14.615,0,0,1,14.61,14.607M741.776,359.3a20,20,0,1,0,0-40h-.023a20,20,0,1,0,0,40Z" transform="translate(-721.753 -319.301)" fill="none"/>
    </clipPath>
  </defs>
  <g id="Tsai-2" data-name="Tsai" transform="translate(0)">
    <g id="Group_9079" data-name="Group 9079" transform="translate(59.997)">
      <path id="Path_3619" data-name="Path 3619" d="M741.717,354.155a14.754,14.754,0,1,0-14.756-14.763,14.753,14.753,0,0,0,14.756,14.763" transform="translate(-721.753 -319.301)" fill="#00902f"/>
      <path id="Path_3620" data-name="Path 3620" d="M757.176,334.046H749V323.981H734.426v10.065h-8.092v10.713h8.092v9.86H749v-9.86h8.176Z" transform="translate(-721.753 -319.301)" fill="#fff"/>
      <path id="Path_3621" data-name="Path 3621" d="M726.334,334.975h9.021V324.1" transform="translate(-721.753 -319.301)" fill="none" stroke="#00902f" stroke-width="0.658"/>
      <path id="Path_3622" data-name="Path 3622" d="M726.334,343.83h9.021V354.5" transform="translate(-721.753 -319.301)" fill="none" stroke="#00902f" stroke-width="0.658"/>
      <path id="Path_3623" data-name="Path 3623" d="M757.175,334.975h-9.126V324.1" transform="translate(-721.753 -319.301)" fill="none" stroke="#00902f" stroke-width="0.658"/>
      <path id="Path_3624" data-name="Path 3624" d="M757.175,343.83h-9.126V354.5" transform="translate(-721.753 -319.301)" fill="none" stroke="#00902f" stroke-width="0.658"/>
      <path id="Path_3625" data-name="Path 3625" d="M745.891,328.116c.221-.083.3.262.485.222.324.12.809-.041.888.34,0,.366.364.627.159,1.013-.926.685-.34,1.812-.259,2.7-.122.767-.585,1.391-.744,2.159-.731,1.025.28,2.3-.508,3.3-.223.51-.1,1.048-.346,1.574-.077.5-.42,1.008-.3,1.555a17.186,17.186,0,0,1-2.745,5,6.938,6.938,0,0,0-.726,4.9c.12.773-.767.388-1.149.43-.847-.588-.2-1.695-.975-2.4-1-1.271-2.416-2.2-2.62-3.933-.344-.6-1.269-1.23-.967-2,.161-1.434.284-2.847.346-4.541,1.169-1.772,2.74-3.364,2.986-5.443.642-.767,1.57-1.495,1.614-2.582.3-1.312,1.774-1.495,2.664-2.219a2.235,2.235,0,0,1,.912-.825,1.165,1.165,0,0,1,1.288.744" transform="translate(-721.753 -319.301)" fill="#00902f"/>
      <path id="Path_3626" data-name="Path 3626" d="M741.776,319.3h-.022a20,20,0,0,0,0,40h.022a20,20,0,1,0,0-40m0,34.592a14.593,14.593,0,1,1,.038,0h-.038" transform="translate(-721.753 -319.301)" fill="#b2ab91"/>
      <g id="Group_9077" data-name="Group 9077">
        <g id="Group_9328" data-name="Group 9328">
          <g id="Group_9327" data-name="Group 9327" clip-path="url(#clip-path)">
            <g id="Group_9076" data-name="Group 9076" transform="translate(-8.121 -9.655)">
              <path id="Path_3627" data-name="Path 3627" d="M754.689,360.089c.124.2-.192.352-.116.52-.052.34.207.779-.149.938-.355.078-.533.487-.952.374-.869-.764-1.85.044-2.7.315-.773.042-1.486-.278-2.27-.276-1.155-.5-2.186.76-3.335.2-.547-.11-1.049.121-1.616,0-.51.026-1.074-.2-1.582.033a17.388,17.388,0,0,1-5.471-1.629,6.954,6.954,0,0,0-4.944.326c-.729.275-.54-.671-.66-1.037.394-.95,1.615-.553,2.145-1.453,1.029-1.253,1.639-2.827,3.294-3.392.519-.46.936-1.5,1.748-1.367,1.435-.142,2.84-.327,4.508-.621,1.986.768,3.876,1.971,5.959,1.769.883.47,1.794,1.226,2.866,1.037,1.346.019,1.831,1.417,2.731,2.135a2.2,2.2,0,0,1,1,.709,1.17,1.17,0,0,1-.452,1.421" transform="translate(-713.632 -309.646)" fill="#d4000f"/>
              <path id="Path_3628" data-name="Path 3628" d="M722.45,354.361c-.159.173-.389-.092-.53.025-.342.039-.7.4-.948.1-.162-.323-.608-.39-.6-.819.51-1.038-.521-1.776-1-2.531-.244-.735-.113-1.5-.324-2.26.178-1.247-1.3-1.917-1.057-3.171-.035-.553-.388-.98-.41-1.56-.159-.483-.087-1.088-.442-1.518a17.319,17.319,0,0,1,.165-5.7,7,7,0,0,0-1.591-4.692c-.459-.627.51-.69.826-.9,1.028.135.954,1.416,1.959,1.7,1.484.668,3.158.853,4.131,2.3.58.384,1.695.514,1.774,1.336.509,1.344,1.045,2.66,1.766,4.194-.234,2.112-.91,4.251-.175,6.209-.228.972-.722,2.049-.259,3.033.325,1.3-.9,2.134-1.364,3.191a2.185,2.185,0,0,1-.428,1.146,1.17,1.17,0,0,1-1.492-.075" transform="translate(-713.632 -309.646)" fill="#a8c420"/>
              <path id="Path_3629" data-name="Path 3629" d="M723.854,354.6c-.168-.164.1-.387-.013-.532-.024-.345-.376-.712-.07-.949.33-.155.413-.6.846-.58,1.015.544,1.786-.468,2.55-.924.75-.219,1.514-.07,2.275-.253,1.242.215,1.956-1.241,3.2-.963.556-.019.992-.359,1.574-.368.491-.142,1.092-.051,1.531-.4a17.5,17.5,0,0,1,5.7.331,6.954,6.954,0,0,0,4.742-1.445c.64-.439.676.523.877.857-.161,1.014-1.443.908-1.752,1.9-.718,1.462-.951,3.135-2.432,4.062-.4.569-.566,1.673-1.386,1.73-1.361.474-2.692.967-4.249,1.639-2.107-.3-4.221-1.028-6.2-.354-.966-.256-2.02-.78-3.025-.353-1.315.29-2.113-.96-3.151-1.45a2.266,2.266,0,0,1-1.135-.463,1.174,1.174,0,0,1,.121-1.487" transform="translate(-713.632 -309.646)" fill="#5869ae"/>
              <path id="Path_3630" data-name="Path 3630" d="M744.224,315.265c.053-.228.381-.1.452-.271.286-.2.43-.685.793-.532.294.208.719.06.919.447.032,1.15,1.287,1.315,2.07,1.758.556.534.806,1.277,1.342,1.845.431,1.183,2.05,1.086,2.425,2.306.286.477.807.684,1.1,1.182.365.356.582.921,1.1,1.134a17.3,17.3,0,0,1,2.536,5.115,6.948,6.948,0,0,0,3.6,3.4c.707.34-.121.849-.3,1.187-.966.358-1.506-.807-2.528-.579-1.62.1-3.187.728-4.728-.1-.694-.064-1.738.341-2.193-.347-1.084-.951-2.171-1.857-3.524-2.877-.793-1.975-1.2-4.177-2.769-5.564-.258-.968-.324-2.143-1.192-2.8-.907-1-.211-2.3-.3-3.453a2.277,2.277,0,0,1-.157-1.218,1.171,1.171,0,0,1,1.355-.629" transform="translate(-713.632 -309.646)" fill="#5869ae"/>
              <path id="Path_3631" data-name="Path 3631" d="M722.141,321.827c.138-.193.4.052.525-.081.339-.08.652-.483.929-.209.2.3.654.324.693.759-.4,1.078.717,1.7,1.27,2.394.327.709.284,1.486.571,2.215-.041,1.258,1.506,1.762,1.4,3.036.1.544.495.931.585,1.5.211.467.208,1.075.6,1.462a17.231,17.231,0,0,1,.471,5.686,6.964,6.964,0,0,0,2.1,4.49c.526.573-.427.74-.725.988-1.027-.022-1.1-1.3-2.134-1.469-1.544-.506-3.229-.5-4.36-1.833-.617-.316-1.737-.329-1.9-1.129-.659-1.286-1.336-2.53-2.223-3.977,0-2.128.433-4.325-.511-6.192.112-.994.489-2.11-.078-3.045-.472-1.256.654-2.222.994-3.317a2.277,2.277,0,0,1,.3-1.19,1.178,1.178,0,0,1,1.49-.09" transform="translate(-713.632 -309.646)" fill="#ffaf00"/>
              <path id="Path_3632" data-name="Path 3632" d="M714.589,335.606c-.234-.03-.14-.374-.325-.418-.226-.263-.727-.349-.616-.726.171-.315-.032-.721.326-.962,1.145-.169,1.159-1.439,1.5-2.267.472-.618,1.17-.948,1.678-1.551,1.123-.562.834-2.161,2-2.677.434-.345.583-.883,1.038-1.234.31-.4.85-.687,1-1.226a17.351,17.351,0,0,1,4.779-3.121,6.979,6.979,0,0,0,2.952-3.986c.251-.733.853.022,1.214.167.472.916-.626,1.59-.278,2.575.291,1.6,1.1,3.08.465,4.7.017.695.543,1.684-.084,2.217-.818,1.188-1.591,2.382-2.445,3.847-1.865,1.017-4.005,1.683-5.2,3.4-.932.372-2.1.578-2.642,1.519-.881,1.015-2.27.483-3.395.706a2.239,2.239,0,0,1-1.191.3,1.172,1.172,0,0,1-.776-1.263" transform="translate(-713.632 -309.646)" fill="#5869ae"/>
              <path id="Path_3633" data-name="Path 3633" d="M727.7,326.82c-.221-.091-.044-.4-.206-.491-.155-.308-.623-.519-.422-.853.247-.267.158-.709.568-.854,1.145.125,1.48-1.1,2.021-1.808.608-.48,1.376-.625,2.015-1.082,1.233-.265,1.352-1.879,2.614-2.088.509-.223.784-.7,1.318-.929.4-.315,1-.451,1.281-.936a17.43,17.43,0,0,1,5.413-1.815,6.975,6.975,0,0,0,3.854-3.115c.429-.643.823.24,1.132.472.229,1-1,1.38-.915,2.419-.122,1.62.287,3.257-.739,4.668-.155.68.1,1.772-.639,2.13-1.092.942-2.142,1.9-3.333,3.1-2.065.508-4.3.617-5.892,1.983-.992.123-2.166.03-2.934.8-1.112.762-2.319-.1-3.463-.171a2.216,2.216,0,0,1-1.227-.008,1.164,1.164,0,0,1-.446-1.423" transform="translate(-713.632 -309.646)" fill="#b50059"/>
              <path id="Path_3634" data-name="Path 3634" d="M756.828,324.664c.142-.19.4.055.526-.083.341-.069.654-.471.932-.2.2.3.648.328.687.758-.4,1.081.7,1.71,1.255,2.407.319.707.273,1.485.556,2.219-.047,1.257,1.489,1.77,1.382,3.044.089.545.488.932.575,1.505.206.468.194,1.077.595,1.467a17.261,17.261,0,0,1,.427,5.688,6.941,6.941,0,0,0,2.074,4.5c.518.58-.436.739-.733.981-1.031-.025-1.094-1.309-2.122-1.484-1.544-.51-3.232-.519-4.348-1.861-.618-.324-1.735-.337-1.9-1.149-.65-1.285-1.317-2.534-2.194-3.983.01-2.128.461-4.322-.473-6.194.123-.994.5-2.111-.059-3.046-.461-1.262.673-2.221,1.021-3.312a2.208,2.208,0,0,1,.311-1.189,1.174,1.174,0,0,1,1.488-.073" transform="translate(-713.632 -309.646)" fill="#ffaf00"/>
              <path id="Path_3635" data-name="Path 3635" d="M735.833,323.951c-.219-.088-.046-.4-.208-.489-.16-.311-.626-.516-.43-.853.248-.268.155-.707.566-.857,1.145.126,1.476-1.109,2.014-1.819.6-.481,1.368-.633,2-1.094,1.232-.267,1.34-1.886,2.6-2.1.506-.224.78-.709,1.316-.933.4-.32.99-.459,1.27-.946a17.48,17.48,0,0,1,5.4-1.848,6.947,6.947,0,0,0,3.839-3.133c.427-.647.829.235,1.136.463.235,1-1,1.388-.9,2.424-.113,1.621.3,3.254-.712,4.675-.152.679.109,1.765-.63,2.128-1.087.952-2.13,1.912-3.311,3.124-2.063.523-4.3.641-5.882,2.014-.994.131-2.169.044-2.931.822-1.106.765-2.322-.094-3.466-.156a2.216,2.216,0,0,1-1.23,0,1.171,1.171,0,0,1-.449-1.421" transform="translate(-713.632 -309.646)" fill="#a8c420"/>
              <path id="Path_3636" data-name="Path 3636" d="M759.979,335.686c.213-.109.34.218.515.154.339.079.792-.146.925.222.048.362.446.57.294.976-.826.8-.1,1.847.1,2.716-.019.774-.4,1.459-.455,2.238-.58,1.114.586,2.238-.057,3.347-.155.529.04,1.053-.133,1.6-.012.51-.285,1.057-.092,1.581a17.3,17.3,0,0,1-2.049,5.319,6.925,6.925,0,0,0-.07,4.956c.219.745-.711.483-1.084.574-.918-.465-.426-1.653-1.283-2.253-1.167-1.12-2.691-1.852-3.122-3.546-.425-.552-1.425-1.048-1.223-1.85-.037-1.439-.1-2.857-.272-4.542.924-1.919,2.275-3.7,2.236-5.8.542-.844,1.359-1.687,1.256-2.772.125-1.339,1.561-1.717,2.346-2.553a2.273,2.273,0,0,1,.791-.941,1.162,1.162,0,0,1,1.373.569" transform="translate(-713.632 -309.646)" fill="#b50059"/>
            </g>
          </g>
        </g>
      </g>
      <g id="Group_9078" data-name="Group 9078" transform="translate(1.089 0.841)">
        <path id="Path_3638" data-name="Path 3638" d="M724.437,337.777l1.577.061-.047.764c-.014.848-.783.989-1.53.908v-.3h.023c.724,0,1.171-.078,1.208-.563v-.5l-1.231-.061Zm-1.55-.061,1.55.061v.3l-1.251-.058v.5c-.02.444.342.681,1.251.681v.3h-.062c-.766-.038-1.532-.22-1.532-.946Z" transform="translate(-722.842 -320.142)" fill="#fff"/>
        <path id="Path_3639" data-name="Path 3639" d="M722.887,337.717l3.127.123-.045.762c-.014.871-.824.991-1.593.912-.766-.041-1.532-.226-1.532-.951Zm.3.3v.5c-.02.463.342.683,1.275.683.724,0,1.171-.08,1.208-.563v-.5Z" transform="translate(-722.842 -320.142)" fill="#fff"/>
        <path id="Path_3640" data-name="Path 3640" d="M722.842,340.279l3.127-.264.124,1.417h-.3l-.12-1.071-1.031.058.118,1.031-.34.04-.082-1.029-1.152.122.123,1.071-.3.038Z" transform="translate(-722.842 -320.142)" fill="#fff"/>
        <path id="Path_3641" data-name="Path 3641" d="M726.519,343.545l.14.543-3.049.687-.082-.3,2.526-.582c.117-.026.241-.026.384-.061v-.041a1.682,1.682,0,0,1-.425.039h-2.624l-.082-.344,2.356-1.189c.121-.04.2-.083.346-.143a1.61,1.61,0,0,0-.382.061l-2.466.586-.08-.285,3.009-.725.16.544-2.262,1.113c-.12.038-.219.078-.423.139.165,0,.3-.042.467-.042Z" transform="translate(-722.842 -320.142)" fill="#fff"/>
        <path id="Path_3642" data-name="Path 3642" d="M727.2,345.282a.733.733,0,0,1,.058.277v.1c-.018.528-.6.848-1.131,1.048-.137.064-.3.125-.444.184v-.361c.1-.039.185-.078.279-.12.668-.218,1.114-.563.932-1.032-.141-.376-.628-.337-1.212-.139V344.9c.584-.2,1.25-.281,1.516.386m-1.516,1.612c-.647.223-1.229.263-1.491-.366a.627.627,0,0,1-.084-.32v-.042c.017-.544.629-.884,1.3-1.166.1-.044.18-.064.28-.1v.341a1.16,1.16,0,0,1-.162.061c-.847.345-1.232.628-1.029,1.11.163.4.544.366,1.191.12Z" transform="translate(-722.842 -320.142)" fill="#fff"/>
        <path id="Path_3643" data-name="Path 3643" d="M727.2,345.282c.3.747-.424,1.168-1.069,1.429-.8.345-1.592.588-1.935-.182-.325-.767.4-1.19,1.211-1.528.646-.264,1.492-.488,1.793.282m-.3.1c-.162-.421-.729-.337-1.37-.078-.852.345-1.23.626-1.032,1.11.181.466.648.342,1.471,0,.667-.218,1.115-.563.932-1.032" transform="translate(-722.842 -320.142)" fill="#fff"/>
        <path id="Path_3644" data-name="Path 3644" d="M727.5,348.088c.346-.184.546-.409.346-.751-.262-.463-.992-.039-1.331.14-.387.2-1.233.647-.912,1.15.183.346.487.222.833.122a1.04,1.04,0,0,1,.2-.122l.141.264c-.077.039-.12.083-.181.083a.947.947,0,0,1-.643.178.668.668,0,0,1-.624-.341c-.406-.747.339-1.211.984-1.6.624-.341,1.414-.726,1.839-.042a.87.87,0,0,1-.382,1.171.535.535,0,0,1-.064.029Z" transform="translate(-722.842 -320.142)" fill="#fff"/>
        <path id="Path_3645" data-name="Path 3645" d="M728.456,348.51l.281-.224.444.564c.345.464.464.848-.143,1.273a.648.648,0,0,1-.582.141V350a.521.521,0,0,0,.423-.162c.422-.307.2-.607.08-.787l-.263-.344-.24.185Zm-1.977,1.913-.184-.279,2.161-1.634v.386l-.689.5.3.384a.762.762,0,0,0,.387.224v.262a.7.7,0,0,1-.266-.141c.206.3.124.442-.18.746-.161.156-.345.32-.505.462-.036.044-.118.163-.079.222l-.061.039-.242-.3c.161-.142.425-.421.582-.566.264-.2.4-.42.185-.722l-.342-.424Z" transform="translate(-722.842 -320.142)" fill="#fff"/>
        <path id="Path_3646" data-name="Path 3646" d="M726.479,350.423l-.184-.281,2.441-1.857.443.564c.346.464.465.848-.141,1.273a.63.63,0,0,1-.848,0c.2.3.123.442-.18.746-.159.158-.345.318-.508.462-.034.044-.118.164-.076.222l-.061.041-.243-.3c.162-.142.426-.421.583-.566.261-.2.406-.42.181-.722l-.338-.424Zm1.288-1.027.3.385a.54.54,0,0,0,.758.105.422.422,0,0,0,.051-.044c.421-.307.2-.607.081-.787l-.265-.344Z" transform="translate(-722.842 -320.142)" fill="#fff"/>
        <path id="Path_3647" data-name="Path 3647" d="M730.491,350.343l.3.3-1.047,1.757v-.625l.707-1.088-.707.441v-.341Zm-.747,2.057-.606.988-.258-.221.5-.807-.646-.6-.767.48-.24-.256,2.015-1.192v.341l-.706.424.489.547.217-.324Z" transform="translate(-722.842 -320.142)" fill="#fff"/>
        <path id="Path_3648" data-name="Path 3648" d="M730.491,350.342l.3.3-1.657,2.742-.26-.221.5-.809-.646-.6-.771.48-.237-.257Zm-.04.346h0l-1.413.863.489.547Z" transform="translate(-722.842 -320.142)" fill="#fff"/>
        <path id="Path_3649" data-name="Path 3649" d="M731.36,351.212l1.368,1.067-.181.284-.586-.463-1.713,2.217-.222-.2,1.712-2.215-.562-.446Z" transform="translate(-722.842 -320.142)" fill="#fff"/>
        <path id="Path_3650" data-name="Path 3650" d="M731.359,355.062l1.676-2.582.263.141-1.673,2.644Z" transform="translate(-722.842 -320.142)" fill="#fff"/>
        <path id="Path_3651" data-name="Path 3651" d="M734.522,354.378c.144-.342.185-.646-.159-.828-.442-.243-.867.486-1.067.866-.184.345-.648,1.192-.1,1.451.3.184.525-.075.726-.381.038-.042.059-.121.1-.138l.283.1c-.04.083-.04.125-.082.2-.161.182-.242.38-.463.485a.765.765,0,0,1-.728.038c-.764-.421-.34-1.247,0-1.894.3-.625.807-1.353,1.535-1.01a.892.892,0,0,1,.246,1.238l-.024.033Z" transform="translate(-722.842 -320.142)" fill="#fff"/>
        <path id="Path_3652" data-name="Path 3652" d="M736.911,354.338l.24.078a.718.718,0,0,1,.587.386,1.006,1.006,0,0,1,.044.684c-.125.344-.329.649-.631.685a.463.463,0,0,1-.24,0v-.323c.259.019.443-.057.542-.444.165-.48-.1-.643-.485-.722l-.057-.025Zm-1.354,2.824.909-2.966.445.142v.319l-.244-.078-.34,1.121.306.087a.8.8,0,0,0,.281.057v.323a1.415,1.415,0,0,1-.487-.118l-.181-.061-.383,1.287Z" transform="translate(-722.842 -320.142)" fill="#fff"/>
        <path id="Path_3653" data-name="Path 3653" d="M735.557,357.162l.909-2.966.686.22a.718.718,0,0,1,.587.386.99.99,0,0,1,.041.684c-.123.344-.326.649-.628.685a1.493,1.493,0,0,1-.728-.118l-.181-.061-.381,1.289Zm.77-1.462.3.085c.422.123.684.123.825-.385.165-.48-.1-.643-.484-.722l-.3-.1Z" transform="translate(-722.842 -320.142)" fill="#fff"/>
        <path id="Path_3654" data-name="Path 3654" d="M739.011,354.86l.1.02c.563.08.909.3.788,1.031a.662.662,0,0,1-.645.561c.345.125.419.242.384.646,0,.243-.039.463-.039.689,0,.078,0,.2.074.239l-.036.078-.345-.078a2.7,2.7,0,0,1,.044-.807c.041-.286-.018-.549-.323-.627v-.32c.181.04.482,0,.544-.465a.5.5,0,0,0-.332-.624.533.533,0,0,0-.154-.022h-.058Zm-.831,2.986-.3-.037.5-3.048.626.1v.324l-.363-.084-.183,1.111.486.084h.061v.32a.1.1,0,0,0-.061-.017l-.527-.087Z" transform="translate(-722.842 -320.142)" fill="#fff"/>
        <path id="Path_3655" data-name="Path 3655" d="M738.18,357.847l-.3-.04.5-3.047.724.122c.563.078.909.3.788,1.028a.658.658,0,0,1-.645.561c.344.126.42.243.383.648,0,.243-.039.464-.039.688,0,.078,0,.2.076.241l-.037.081-.343-.081a2.768,2.768,0,0,1,.041-.807.5.5,0,0,0-.323-.629.581.581,0,0,0-.059-.015l-.526-.087Zm.279-1.636.488.08c.158.044.544.085.6-.461a.5.5,0,0,0-.332-.624.515.515,0,0,0-.152-.022l-.424-.084Z" transform="translate(-722.842 -320.142)" fill="#fff"/>
        <path id="Path_3656" data-name="Path 3656" d="M741.388,355.022c.847,0,.928.845.889,1.577-.042.863-.159,1.652-.927,1.67v-.3c.5-.02.586-.485.626-1.368,0-.688-.121-1.252-.626-1.252v-.325Zm-.038,3.248h-.04c-.827-.04-.909-.866-.868-1.714,0-.7.1-1.534.908-1.534v.325c-.448,0-.607.519-.607,1.209,0,.907.079,1.37.567,1.412h.04Z" transform="translate(-722.842 -320.142)" fill="#fff"/>
        <path id="Path_3657" data-name="Path 3657" d="M741.388,355.022c.847,0,.928.848.889,1.576-.042.865-.159,1.67-.967,1.67-.827-.037-.909-.864-.868-1.713,0-.726.122-1.556.946-1.534m-.038.324c-.448,0-.607.524-.607,1.21,0,.907.079,1.37.567,1.412.545,0,.627-.463.666-1.37,0-.688-.121-1.252-.626-1.252" transform="translate(-722.842 -320.142)" fill="#fff"/>
        <path id="Path_3658" data-name="Path 3658" d="M744.783,358.006l-.265.04-.036-.5a.637.637,0,0,1-.568.6c-.843.082-1.03-.785-1.112-1.511s-.036-1.615.77-1.713a.825.825,0,0,1,.908.733.746.746,0,0,1,0,.134l-.3.039c-.041-.387-.223-.647-.566-.611-.6.086-.541.832-.465,1.38.041.459.117,1.286.686,1.247s.544-.6.5-1.112l-.644.084-.041-.307.951-.116Z" transform="translate(-722.842 -320.142)" fill="#fff"/>
        <path id="Path_3659" data-name="Path 3659" d="M746.017,357.745l-.1.019v-.423Zm-.1-3.186v.3c.185-.019.44.022.566.443a.567.567,0,0,1-.38.687l-.185.036v.308l.282-.083c.343-.082.545.142.624.463a2.128,2.128,0,0,0,.306.726l.341-.078-.041-.083c-.079.04-.118-.118-.16-.162-.077-.218-.139-.4-.223-.646-.159-.417-.261-.481-.6-.445.3-.116.406-.417.344-.8-.142-.566-.444-.723-.868-.665m0,3.206-.2.042-.769-3,.686-.184a.734.734,0,0,1,.285-.061v.3a.924.924,0,0,0-.158.064l-.426.1.26,1.066.324-.062v.308l-.244.06.244.946Z" transform="translate(-722.842 -320.142)" fill="#fff"/>
        <path id="Path_3660" data-name="Path 3660" d="M746.017,357.744l-.3.063-.769-3,.683-.182c.569-.164,1-.08,1.155.6.062.387-.04.688-.345.8.345-.036.444.027.606.445.081.243.144.428.223.648.04.04.08.2.159.16l.041.083-.342.078a2.182,2.182,0,0,1-.311-.717c-.077-.322-.28-.544-.622-.463l-.523.141Zm-.426-1.655.509-.1a.568.568,0,0,0,.381-.685c-.163-.545-.546-.466-.726-.381l-.426.1Z" transform="translate(-722.842 -320.142)" fill="#fff"/>
        <path id="Path_3661" data-name="Path 3661" d="M748.192,357.1,747,354.236l1.333-.547.123.286-1.034.4.386.968.948-.385.12.3-.967.382.423,1.08,1.027-.421.125.261Z" transform="translate(-722.842 -320.142)" fill="#fff"/>
        <path id="Path_3662" data-name="Path 3662" d="M750.131,353.653a.437.437,0,0,0-.534-.311.473.473,0,0,0-.107.044c-.428.2-.3.5-.206.725a.545.545,0,0,0,.463.223,3.818,3.818,0,0,1,.466-.02c.569-.08.766.02.952.406a.813.813,0,0,1-.156,1.14.961.961,0,0,1-1.056.049,1.976,1.976,0,0,1-.325-.506l.286-.139c.182.424.4.646.784.424a.5.5,0,0,0,.244-.728c-.244-.421-.386-.341-.689-.3-.158,0-.424.025-.626.025-.3,0-.443-.181-.6-.446a.746.746,0,0,1,.257-1.108.706.706,0,0,1,1.112.379Z" transform="translate(-722.842 -320.142)" fill="#fff"/>
        <path id="Path_3663" data-name="Path 3663" d="M751.885,352.483c-.182-.265-.462-.383-.684-.2-.386.287-.227.544-.083.767a.386.386,0,0,0,.465.16c.142-.037.3-.077.465-.121.563-.121.749,0,.992.3a.845.845,0,0,1-.037,1.195.891.891,0,0,1-.129.1.738.738,0,0,1-.9.039c-.124-.064-.265-.3-.386-.4l.262-.2c.262.384.506.566.886.3a.527.527,0,0,0,.121-.736l-.021-.028c-.3-.387-.424-.265-.728-.181a5.153,5.153,0,0,0-.6.117.689.689,0,0,1-.648-.384.767.767,0,0,1,.042-1.084.965.965,0,0,1,.077-.063.733.733,0,0,1,1.034.074.724.724,0,0,1,.1.146Z" transform="translate(-722.842 -320.142)" fill="#fff"/>
        <path id="Path_3664" data-name="Path 3664" d="M754.147,353.588l-2.08-2.338.24-.184,2.06,2.321Z" transform="translate(-722.842 -320.142)" fill="#fff"/>
        <path id="Path_3665" data-name="Path 3665" d="M753.721,349.658l.263-.264,1.673,2.7-.262.3-2.784-1.566.224-.22,2.521,1.45Z" transform="translate(-722.842 -320.142)" fill="#fff"/>
        <path id="Path_3666" data-name="Path 3666" d="M756.607,351.025l-2.506-1.832.832-1.13.263.181-.646.871.8.623.6-.846.262.2-.606.824.933.689.642-.911.262.182Z" transform="translate(-722.842 -320.142)" fill="#fff"/>
        <path id="Path_3667" data-name="Path 3667" d="M758.4,348.286l-1.7-.848V347.1l.408.2.12-.285c.18-.362.258-.644-.244-.866a.889.889,0,0,0-.284-.1v-.326a.722.722,0,0,1,.408.126.79.79,0,0,1,.563.726,1.44,1.44,0,0,1-.226.685l-.08.18,1.193.587Zm-1.7-.848-1.093-.524.346-.644a.882.882,0,0,1,.466-.508,1.333,1.333,0,0,1,.281-.042v.326c-.26,0-.4.18-.506.444l-.161.263.667.342Z" transform="translate(-722.842 -320.142)" fill="#fff"/>
        <path id="Path_3668" data-name="Path 3668" d="M758.4,348.286l-2.781-1.372.341-.644a.883.883,0,0,1,.466-.508.816.816,0,0,1,.689.084.791.791,0,0,1,.563.725,1.428,1.428,0,0,1-.226.687l-.079.18,1.193.586Zm-1.287-.984.12-.286c.18-.362.261-.643-.243-.866-.443-.222-.648,0-.791.343l-.161.263Z" transform="translate(-722.842 -320.142)" fill="#fff"/>
        <path id="Path_3669" data-name="Path 3669" d="M757.8,344.312l2.176.162-.119.343-.908-.079-.284.846.768.483-.1.3-1.531-.993v-.358l.6.358.246-.686-.847-.1Zm-1.154.3.161-.386.993.083v.282l-.849-.081.849.506v.358Z" transform="translate(-722.842 -320.142)" fill="#fff"/>
        <path id="Path_3670" data-name="Path 3670" d="M756.645,344.616l.161-.387,3.172.244-.123.343-.907-.078-.285.845.771.483-.1.3Zm.305-.1h0l1.452.864.243-.68Z" transform="translate(-722.842 -320.142)" fill="#fff"/>
        <path id="Path_3671" data-name="Path 3671" d="M760.2,343.525l-.04.3-2.1-.422v-.326l.506.105.1-.466c0-.161.077-.565-.448-.649a.546.546,0,0,0-.161-.017v-.322a1.173,1.173,0,0,1,.244.037.637.637,0,0,1,.564.646c.123-.345.265-.425.648-.381a4.284,4.284,0,0,0,.686.083c.08,0,.219,0,.219-.083l.084.036-.084.345a2.607,2.607,0,0,1-.783-.039c-.3-.078-.584,0-.646.343l-.123.525Zm-2.142-.12-.943-.2.16-.705c.1-.506.28-.807.783-.765v.322a.458.458,0,0,0-.481.434.288.288,0,0,0,0,.029l-.124.466.606.1Z" transform="translate(-722.842 -320.142)" fill="#fff"/>
        <path id="Path_3672" data-name="Path 3672" d="M760.2,343.526l-.039.3-3.046-.628.16-.7c.1-.585.34-.89,1.027-.728a.635.635,0,0,1,.563.646c.123-.345.266-.423.649-.383a4.065,4.065,0,0,0,.686.082c.08,0,.22,0,.22-.082l.083.038-.083.345a2.582,2.582,0,0,1-.784-.039c-.3-.08-.584,0-.648.343l-.123.525Zm-1.634-.341.1-.466c0-.161.085-.565-.443-.649-.542-.118-.6.268-.644.446l-.123.464Z" transform="translate(-722.842 -320.142)" fill="#fff"/>
        <path id="Path_3673" data-name="Path 3673" d="M757.453,341.305l.161-1.75.306.038-.082.686,2.8.222-.015.3-2.785-.183-.081.723Z" transform="translate(-722.842 -320.142)" fill="#fff"/>
        <path id="Path_3674" data-name="Path 3674" d="M759.091,338.441l-1.554-.565-.04-.342,1.937.767,1.206-.079v.3l-1.166.074-1.859.914-.04-.346Z" transform="translate(-722.842 -320.142)" fill="#fff"/>
        <path id="Path_3675" data-name="Path 3675" d="M725.487,333.721l.966.486c.268.124.448.079.548-.221l.321-.685-.237-.4-.449.906-.765-.385.488-1.006,1.128.119c.1.019.179-.039.284-.14l.325-.668-.246-.421-.382.8-.93-.078.281-.582L726.58,331l-.463.947-.528-.022.6-1.228-.7-.343v.466l.121.078-.121.261v1.15l.448.061-.448.868Zm-1.753-.844,1.753.844v-.481l-.443-.2.366-.726h.077v-1.15l-.826,1.679-.348-.167.952-1.957.222.105v-.474l-.04-.022a.366.366,0,0,0-.51.094.348.348,0,0,0-.051.106Z" transform="translate(-722.842 -320.142)" fill="#fff"/>
        <path id="Path_3676" data-name="Path 3676" d="M730.031,325.351l-.223-.32,1.046-.786-.4-.206.384-.28.423.2,1.092-.809.019.471-.868.641.485.666,1.091-.8-.022.523-.826.6.563.766,1.151-.846-.018.522-2.424,1.8-.243-.323,1.13-.849-.564-.769-1.05.791-.24-.324,1.043-.782-.483-.666Z" transform="translate(-722.842 -320.142)" fill="#fff"/>
        <path id="Path_3677" data-name="Path 3677" d="M740.321,320.142l.324.644h.423l-.322-.644Z" transform="translate(-722.842 -320.142)" fill="#fff"/>
        <path id="Path_3678" data-name="Path 3678" d="M740.2,320.894l.387.641h.423l-.386-.641Z" transform="translate(-722.842 -320.142)" fill="#fff"/>
        <path id="Path_3679" data-name="Path 3679" d="M740.262,321.923v.387h.544v.32a2.873,2.873,0,0,1-.508,1.091h.47l.2-.323a1.018,1.018,0,0,0,.5.323h2.082l.219-.4h-2.3a.945.945,0,0,1-.243-.3v-.7c.023-.243-.058-.345-.2-.387Z" transform="translate(-722.842 -320.142)" fill="#fff"/>
        <path id="Path_3680" data-name="Path 3680" d="M742.219,323.011h1.172l.22-.384h-.687v-.32h.424l.283-.387h-.707v-.261h.51l.281-.382h-.791v-.3h.544l.243-.384h-.787v-.451h-.4v.446h-.3v.384h.3v.3h-.3v.382h.3v.261h-.3v.387h.3v.32h-.3Zm0-2.581v-.288h.2Zm-.285-.288-.465.446v2.419h.747v-.384h-.282v-.32h.282v-.387h-.282v-.261h.282v-.382h-.282v-.3h.282v-.384h-.121l.121-.162v-.285Z" transform="translate(-722.842 -320.142)" fill="#fff"/>
        <path id="Path_3681" data-name="Path 3681" d="M751.8,323.3l-.644.9-.4-.3-.243.341,1.087.767-.729,1.052a7.774,7.774,0,0,1-1.15-.709l-.02.464a7.551,7.551,0,0,0,.887.585,3.3,3.3,0,0,0,2.182.08l-.079-.38a4.212,4.212,0,0,1-1.411.084l.668-.93,1.029.727.485-.163-1.274-.908.227-.32.821.583.426-.14-1.051-.743.265-.366-.325-.243-.706.988-.34-.222.643-.908Z" transform="translate(-722.842 -320.142)" fill="#fff"/>
        <path id="Path_3682" data-name="Path 3682" d="M750.026,324.991l.066.421,1.169-.18-.06-.388Z" transform="translate(-722.842 -320.142)" fill="#fff"/>
        <path id="Path_3683" data-name="Path 3683" d="M758.062,333.739l.4-.2a.245.245,0,0,0,.1-.285l-.5-1.049v.507l.2.4-.083.042-.12-.263Zm-.142.065.142-.065V332.9l-.142-.263v.484l.083.14-.083.023Zm.142-1.6v.507l-.122-.266h-.02v-.524Zm-.263,1.736.017-.019-.017-.06Zm0-.384.121.243v-.5l-.121-.265Zm.121-1.635v.524l-.062.044.062.141v.484l-.121-.28v-1.188Zm-.344,2.019.04.08.184-.08v-.079l-.223-.466Zm0-.849v-1.2l.1.245.079-.044-.182-.383v-.5l.223.442v1.192l-.121-.242-.083.038.2.4v.524Zm-.124-2.149-.018.02v.522l.018-.02.123.243v-.5Zm-.018,3.165.062-.022-.062-.14Zm0-.445v-.544l.141.282v.545Zm0-.867v-.563l.044-.023-.044-.1v-.517l.141.3v1.2Zm0-1.832-.143.058v.827l.143.26v-.516l-.062-.086.062-.018Zm-.143,3.2h0l.143-.061v-.162l-.143-.283Zm0-.79.143.284v-.544l-.143-.28Zm0-.6v-.765l.125.222h.018v.557l-.04-.078Zm0-1.754-.584.282.5,1.05-.115.061-.566-1.15-.2.1.548,1.148-.1.06-.568-1.145-.2.075,1.287,2.665v-.508l-.34-.726.1-.058.24.5v-.54l-.017-.064h.017v-.765l-.176-.363.06-.04.116.241Z" transform="translate(-722.842 -320.142)" fill="#fff"/>
        <path id="Path_3684" data-name="Path 3684" d="M758.382,332.635l.142.3.461-.222-.6-1.27v.482l.265.545-.083.04-.183-.378ZM758.2,331.1l-.462.218.643,1.313v-.5l-.278-.568.077-.038.2.4v-.482Z" transform="translate(-722.842 -320.142)" fill="#fff"/>
        <path id="Path_3685" data-name="Path 3685" d="M757.453,330.717l.747-.361.325.687.2-.286.161.347-.181.3.079.184.267-.125.179.364-.259.12.1.2.362.084.161.34-.344-.04.223.446a.41.41,0,0,1-.1.3l-.546.261-.221-.424.564-.263-.969-2-.562.265Z" transform="translate(-722.842 -320.142)" fill="#fff"/>
        <path id="Path_3686" data-name="Path 3686" d="M755.942,331.769l-.588-.121.2.418.589.1Z" transform="translate(-722.842 -320.142)" fill="#fff"/>
        <path id="Path_3687" data-name="Path 3687" d="M756.266,332.433l-.55-.06.208.423.543.019Z" transform="translate(-722.842 -320.142)" fill="#fff"/>
        <path id="Path_3688" data-name="Path 3688" d="M756.507,332.915l-.3.484.2.383.283-.48Z" transform="translate(-722.842 -320.142)" fill="#fff"/>
        <path id="Path_3689" data-name="Path 3689" d="M756.807,333.521l-.28.525.2.422.266-.523Z" transform="translate(-722.842 -320.142)" fill="#fff"/>
      </g>
    </g>
    <g id="Group_9329" data-name="Group 9329" transform="translate(14.4 85.291)">
      <g id="Group_8996-2" data-name="Group 8996-2" transform="translate(0)">
        <g id="Group_8995-2" data-name="Group 8995-2" transform="translate(0)">
          <g id="Path_2966-2" data-name="Path 2966-2" transform="translate(0.305 0.652)">
            <path id="Path_6398" data-name="Path 6398" d="M846.268,355.171l.766,5.17a5.244,5.244,0,0,0,1.767,3.336,4.819,4.819,0,0,0,3.867.929,4.612,4.612,0,0,0,4.11-5.023,25.607,25.607,0,0,1,.764-5.086v-.009a.687.687,0,0,0-.118-.557.72.72,0,0,0-.519-.281,1.883,1.883,0,0,0-.44.011,1.963,1.963,0,0,0-1.551,1.712l-.19.928-.987-6.663a1.2,1.2,0,1,0-2.375.352l.436,2.942a2.3,2.3,0,0,1-2.643.369,1.2,1.2,0,0,1-1.879.512A1.2,1.2,0,0,0,846.268,355.171Z" transform="translate(-846.256 -348.614)" fill="#ffda6a"/>
          </g>
          <g id="Path_2967-2" data-name="Path 2967-2">
            <path id="Path_6399" data-name="Path 6399" d="M852.187,348.229a1.2,1.2,0,0,0-.69.356v-.007a1.2,1.2,0,0,0-2.375.351v.007a1.2,1.2,0,0,0-1.775,1.216l.2,1.353a1.2,1.2,0,0,0-1.775,1.217l1.068,7.214" transform="translate(-845.761 -347.554)" fill="#ffda6a"/>
          </g>
          <g id="Path_2968-2" data-name="Path 2968-2" transform="translate(0.471 0.491)">
            <path id="Path_6400" data-name="Path 6400" d="M847.6,360.176l-1.068-7.215a.735.735,0,0,1,1.454-.215l.513,3.463a.232.232,0,0,0,.459-.068l-.852-5.75a.735.735,0,0,1,1.455-.215l.852,5.75a.232.232,0,0,0,.459-.068l-.991-6.69a.735.735,0,0,1,1.454-.215l.991,6.69a.232.232,0,0,0,.459-.068l-.851-5.75a.734.734,0,0,1,.62-.832" transform="translate(-846.526 -348.352)" fill="#ffda6a"/>
          </g>
          <g id="Rectangle_1725-2" data-name="Rectangle 1725-2" transform="translate(3.604 2.718)">
            <rect id="Rectangle_1964" data-name="Rectangle 1964" width="1.934" height="3.64" transform="translate(0 0.283) rotate(-8.426)" fill="#ffda6a"/>
          </g>
        </g>
        <g id="Line_57-2" data-name="Line 57-2" transform="translate(5.533 0.9)">
          <path id="Path_6401" data-name="Path 6401" d="M855.831,355.489a.167.167,0,0,1-.165-.142l-.909-6.14a.165.165,0,0,1,.14-.189.162.162,0,0,1,.189.14L856,355.3a.165.165,0,0,1-.14.189Z" transform="translate(-854.755 -349.016)"/>
        </g>
        <g id="Line_58-2" data-name="Line 58-2" transform="translate(3.204 1.244)">
          <path id="Path_6402" data-name="Path 6402" d="M852.046,356.049a.167.167,0,0,1-.165-.142l-.909-6.139a.166.166,0,0,1,.14-.19.162.162,0,0,1,.19.14l.909,6.139a.166.166,0,0,1-.14.19Z" transform="translate(-850.97 -349.576)"/>
        </g>
        <g id="Line_59-2" data-name="Line 59-2" transform="translate(1.628 3.785)">
          <path id="Path_6403" data-name="Path 6403" d="M849.141,357.873a.166.166,0,0,1-.165-.142l-.568-3.833a.166.166,0,0,1,.14-.19.161.161,0,0,1,.189.14l.568,3.833a.166.166,0,0,1-.14.189Z" transform="translate(-848.407 -353.706)"/>
        </g>
      </g>
      <g id="Group_9329-2" data-name="Group 9329" transform="translate(0.797 13.302)">
        <path id="Path_6404" data-name="Path 6404" d="M863.013,391.328l-.2,0c-13.723-.234-15.1-14.351-15.757-21.136l10.408-1.013c1.131,11.618,3.466,11.658,5.527,11.693h.031c1.991,0,7.99-5.44,11.052-7.865l5.374,8.2C878.122,382.906,871.133,391.328,863.013,391.328Z" transform="translate(-847.056 -369.177)" fill="#1e1e1e"/>
      </g>
      <g id="Group_9330" data-name="Group 9330" transform="translate(7.04 8.174)">
        <path id="Path_6405" data-name="Path 6405" d="M857.436,364.2a.168.168,0,0,1-.165-.14c-.46-2.812,1.615-3.208,1.636-3.212a.166.166,0,0,1,.058.328c-.073.013-1.771.351-1.365,2.83a.168.168,0,0,1-.138.192Z" transform="translate(-857.205 -360.841)"/>
      </g>
      <g id="Group_8996-2-2" data-name="Group 8996-2" transform="translate(124.645)">
        <g id="Group_8995-2-2" data-name="Group 8995-2">
          <g id="Path_2966-2-2" data-name="Path 2966-2" transform="translate(0 0.652)">
            <path id="Path_6406" data-name="Path 6406" d="M1058.67,353.813a1.186,1.186,0,0,1-.333.191,1.2,1.2,0,0,1-1.545-.7,2.3,2.3,0,0,1-2.643-.369l.436-2.942a1.2,1.2,0,1,0-2.375-.352l-.987,6.663-.19-.928a1.963,1.963,0,0,0-1.55-1.712,1.889,1.889,0,0,0-.44-.011.721.721,0,0,0-.519.281.69.69,0,0,0-.118.557v.009a25.652,25.652,0,0,1,.764,5.086,4.612,4.612,0,0,0,4.11,5.023,4.818,4.818,0,0,0,3.867-.929,5.24,5.24,0,0,0,1.767-3.336l.766-5.17A1.2,1.2,0,0,0,1058.67,353.813Z" transform="translate(-1048.388 -348.614)" fill="#ffda6a"/>
          </g>
          <g id="Path_2967-2-2" data-name="Path 2967-2" transform="translate(5.179)">
            <path id="Path_6407" data-name="Path 6407" d="M1062.153,359.937l1.069-7.214a1.2,1.2,0,0,0-1.774-1.217l.2-1.353a1.2,1.2,0,0,0-1.775-1.216v-.007a1.2,1.2,0,1,0-2.375-.351v.007a1.2,1.2,0,0,0-.69-.356" transform="translate(-1056.807 -347.554)" fill="#ffda6a"/>
          </g>
          <g id="Path_2968-2-2" data-name="Path 2968-2" transform="translate(4.876 0.491)">
            <path id="Path_6408" data-name="Path 6408" d="M1056.549,348.992a.734.734,0,0,1,.62.832l-.852,5.75a.232.232,0,0,0,.459.068l.991-6.69a.735.735,0,0,1,1.454.215l-.991,6.69a.232.232,0,0,0,.459.068l.852-5.75a.735.735,0,0,1,1.455.215l-.852,5.75a.232.232,0,0,0,.459.068l.513-3.463a.735.735,0,0,1,1.454.215l-1.068,7.215" transform="translate(-1056.315 -348.352)" fill="#ffda6a"/>
          </g>
          <g id="Rectangle_1725-2-2" data-name="Rectangle 1725-2" transform="translate(5.556 2.718)">
            <rect id="Rectangle_1965" data-name="Rectangle 1965" width="3.64" height="1.934" transform="translate(0 3.601) rotate(-81.574)" fill="#ffda6a"/>
          </g>
        </g>
        <g id="Line_57-2-2" data-name="Line 57-2" transform="translate(4.831 0.899)">
          <path id="Path_6409" data-name="Path 6409" d="M1056.408,355.488l-.025,0a.166.166,0,0,1-.14-.189l.91-6.14a.162.162,0,0,1,.189-.14.166.166,0,0,1,.14.189l-.91,6.14A.166.166,0,0,1,1056.408,355.488Z" transform="translate(-1056.241 -349.016)"/>
        </g>
        <g id="Line_58-2-2" data-name="Line 58-2" transform="translate(7.159 1.245)">
          <path id="Path_6410" data-name="Path 6410" d="M1060.193,356.05l-.025,0a.167.167,0,0,1-.14-.19l.91-6.139a.163.163,0,0,1,.189-.14.166.166,0,0,1,.14.19l-.91,6.139A.166.166,0,0,1,1060.193,356.05Z" transform="translate(-1060.026 -349.577)"/>
        </g>
        <g id="Line_59-2-2" data-name="Line 59-2" transform="translate(9.077 3.785)">
          <path id="Path_6411" data-name="Path 6411" d="M1063.311,357.873h-.025a.167.167,0,0,1-.14-.189l.568-3.833a.163.163,0,0,1,.189-.14.166.166,0,0,1,.14.189l-.567,3.833A.167.167,0,0,1,1063.311,357.873Z" transform="translate(-1063.144 -353.707)"/>
        </g>
      </g>
      <g id="Group_9331" data-name="Group 9331" transform="translate(103.061 12.034)">
        <path id="Path_6412" data-name="Path 6412" d="M1029.735,391.8c-8.12,0-15.108-8.422-16.435-10.123l.891-13.3c4.144,3.31,13.545,12.961,15.536,12.961h.031c2.061-.035,4.4-.075,5.528-11.693l10.408,1.013c-.66,6.785-2.035,20.9-15.758,21.136Z" transform="translate(-1013.3 -368.385)" fill="#1e1e1e"/>
      </g>
      <g id="Group_9332" data-name="Group 9332" transform="translate(127.313 8.173)">
        <path id="Path_6413" data-name="Path 6413" d="M1054.392,364.2l-.027,0a.168.168,0,0,1-.138-.192c.407-2.49-1.292-2.817-1.365-2.83a.166.166,0,0,1-.135-.193.163.163,0,0,1,.193-.135c.021,0,2.1.4,1.636,3.212A.167.167,0,0,1,1054.392,364.2Z" transform="translate(-1052.725 -360.84)"/>
      </g>
    </g>
    <g id="Group_9092" data-name="Group 9092" transform="translate(0 51)">
      <g id="Rectangle_1758" data-name="Rectangle 1758" transform="translate(0)" opacity="0">
        <rect id="Rectangle_1960" data-name="Rectangle 1960" width="160" height="61.927" fill="#fff"/>
        <rect id="Rectangle_1961" data-name="Rectangle 1961" width="159" height="60.927" transform="translate(0.5 0.5)" fill="none" stroke="#707070" stroke-width="1"/>
      </g>
      <g id="Group_9091" data-name="Group 9091" transform="translate(0 5.317)">
        <g id="Group_9018" data-name="Group 9018" transform="translate(0 132.432)">
          <g id="Path_2801-3" data-name="Path 2801-3" transform="translate(0.171 0.167)">
            <path id="Path_2863-3" data-name="Path 2863-3" d="M693.291,508.217h96.925l31.366,23.168H661.927Z" transform="translate(-661.927 -508.217)" fill="#fff"/>
          </g>
          <g id="Rectangle_1361-3" data-name="Rectangle 1361-3" transform="translate(0.171 22.993)">
            <rect id="Rectangle_1396-3" data-name="Rectangle 1396-3" width="159.654" height="4.088" fill="#f8f8f8"/>
          </g>
          <g id="Group_8257-3" data-name="Group 8257-3">
            <path id="Path_2864-3" data-name="Path 2864-3" d="M821.581,535.3H661.927a.168.168,0,0,1-.171-.167V531.1a.17.17,0,0,1,.139-.165l31.3-22.848a.171.171,0,0,1,.1-.033H790.22a.169.169,0,0,1,.1.033l31.3,22.848a.168.168,0,0,1,.138.165v4.04a.167.167,0,0,1-.167.169h0ZM662.1,534.966H821.412V531.2l-31.25-22.816H693.348L662.1,531.2Z" transform="translate(-661.756 -508.05)" fill="#424242"/>
          </g>
          <g id="Group_8258-3" data-name="Group 8258-3" transform="translate(3.237 22.823)">
            <path id="Path_2865-3" data-name="Path 2865-3" d="M791.257,531.214H665.164a.171.171,0,0,1-.171-.17h0a.171.171,0,0,1,.17-.171H791.257a.17.17,0,0,1,.17.17h0a.169.169,0,0,1-.169.171h0Z" transform="translate(-664.993 -530.873)" fill="#424242"/>
          </g>
          <g id="Group_8259-3" data-name="Group 8259-3" transform="translate(132.085 22.823)">
            <path id="Path_2866-3" data-name="Path 2866-3" d="M818.813,531.214H794a.171.171,0,0,1,0-.341h24.816a.17.17,0,0,1,.171.169h0a.17.17,0,0,1-.171.171h0Z" transform="translate(-793.841 -530.873)" fill="#424242"/>
          </g>
        </g>
        <g id="Group_9084" data-name="Group 9084" transform="translate(36.295 6.148)">
          <g id="Group_9017-2" data-name="Group 9017-2" transform="translate(26.785 77.404)">
            <g id="Group_9016-2" data-name="Group 9016-2">
              <path id="Path_3013-2" data-name="Path 3013-2" d="M734.089,469.7a10.425,10.425,0,0,1-3.324.15,1.1,1.1,0,0,0-.217.275,1.081,1.081,0,0,1-.672-.232v2.73a1.1,1.1,0,0,1-2.2,0v-6.186l-.3.818a1.8,1.8,0,0,1-1.634,1.346,1.636,1.636,0,0,1-.4-.05.652.652,0,0,1-.433-.324.634.634,0,0,1-.031-.522V467.7a23.472,23.472,0,0,0,1.375-4.516,4.229,4.229,0,0,1,4.392-4.009,4.415,4.415,0,0,1,3.379,1.365,4.822,4.822,0,0,1,1.153,3.268v4.8A1.1,1.1,0,0,1,734.089,469.7Z" transform="translate(-724.836 -459.17)" fill="#ffda6a"/>
              <path id="Path_3014-2" data-name="Path 3014-2" d="M728.777,473.718a1.085,1.085,0,0,0,.673-.23v.006a1.1,1.1,0,0,0,2.2,0v-.01a1.1,1.1,0,0,0,1.77-.865v-1.257a1.1,1.1,0,0,0,1.771-.865v-6.7" transform="translate(-724.836 -459.17)" fill="#ffda6a"/>
              <path id="Path_3015-2" data-name="Path 3015-2" d="M734.762,463.8v6.7a.673.673,0,0,1-1.346,0v-3.22a.212.212,0,1,0-.424-.006v5.343a.673.673,0,0,1-1.346,0v-5.337a.213.213,0,0,0-.425-.028v6.236a.673.673,0,1,1-1.345,0v-6.208a.211.211,0,0,0-.2-.226.213.213,0,0,0-.227.2v5.365a.673.673,0,0,1-.673.672" transform="translate(-724.836 -459.17)" fill="#ffda6a"/>
              <rect id="Rectangle_1749-2" data-name="Rectangle 1749-2" width="1.771" height="3.343" transform="translate(5.039 9.474)" fill="#ffda6a"/>
            </g>
            <line id="Line_72-2" data-name="Line 72-2" y2="5.698" transform="translate(4.652 8.593)" fill="none" stroke="#000" stroke-linecap="round" stroke-linejoin="round" stroke-width="0.333"/>
            <line id="Line_73-2" data-name="Line 73-2" y2="5.698" transform="translate(6.807 8.593)" fill="none" stroke="#000" stroke-linecap="round" stroke-linejoin="round" stroke-width="0.333"/>
            <line id="Line_74-2" data-name="Line 74-2" y2="3.558" transform="translate(8.576 8.638)" fill="none" stroke="#000" stroke-linecap="round" stroke-linejoin="round" stroke-width="0.333"/>
          </g>
          <rect id="Rectangle_1750-2" data-name="Rectangle 1750-2" width="11.779" height="48.165" transform="translate(18.446 84.477)" fill="#1e1e1e"/>
          <rect id="Rectangle_1751-2" data-name="Rectangle 1751-2" width="11.779" height="48.165" transform="translate(5.511 84.477)" fill="#1e1e1e"/>
          <g id="Group_9020-2" data-name="Group 9020-2" transform="translate(12.301 34.943)">
            <g id="Group_9019-2" data-name="Group 9019-2">
              <path id="Rectangle_1752-2" data-name="Rectangle 1752-2" d="M709.677,416.709h2.537a18.019,18.019,0,0,1,18.02,18.018h0V463.94H709.677c0-39.163-9.951-47.231,0-47.231Z" transform="translate(-705.254 -416.709)" fill="#1e1e1e"/>
            </g>
          </g>
          <path id="Path_3016-2" data-name="Path 3016-2" d="M716.869,415.913c8.509.374,15.053,7.717,15.053,16.221v34.109H700.39v-34.6A15.757,15.757,0,0,1,716.158,415.9C716.4,415.9,716.632,415.9,716.869,415.913Z" transform="translate(-698.051 -381.766)" fill="#424242"/>
          <path id="Path_3017-2" data-name="Path 3017-2" d="M699.587,404.629s0,5.528,2.534,7.94c1.788,1.7,4.3,2.563,6.733,3.228a24.378,24.378,0,0,0,3.729.71c.241.028,3.066.258,3.066.189V388.519Z" transform="translate(-698.051 -381.766)" fill="#1e1e1e"/>
          <path id="Path_3018-2" data-name="Path 3018-2" d="M721.582,420.29H710.408l5.672,17.961Z" transform="translate(-698.051 -381.766)" fill="#35a30a"/>
          <path id="Path_3019-2" data-name="Path 3019-2" d="M732.514,404.492s.434,5.665-2.1,8.076c-1.788,1.7-4.3,2.563-6.733,3.228a24.333,24.333,0,0,1-3.729.71c-.241.028-3.066.258-3.066.189V388.519Z" transform="translate(-698.051 -381.766)" fill="#1e1e1e"/>
          <path id="Rectangle_1753-2" data-name="Rectangle 1753-2" d="M711.1,409.208h10.075V418a4.865,4.865,0,0,1-4.866,4.866h-.343A4.866,4.866,0,0,1,711.1,418h0v-8.788Z" transform="translate(-698.051 -381.766)" fill="#ffba00"/>
          <path id="Path_3020-2" data-name="Path 3020-2" d="M716.14,385.221h0c6.675,0,12.135,5.179,12.135,11.509V402.5a11.588,11.588,0,0,1-7.827,10.753,8.1,8.1,0,0,1-4.61,1.424h0a8.075,8.075,0,0,1-5.356-2.006,11.478,11.478,0,0,1-6.477-10.171V396.73C704.005,390.405,709.466,385.221,716.14,385.221Z" transform="translate(-698.051 -381.766)" fill="#ffda6a"/>
          <path id="Path_3021-2" data-name="Path 3021-2" d="M710.862,388.043s-1.615-1.048-4.233,2.9c-2.266,3.416-2.624,9.475-2.624,9.475l-4.418,4.211s.326-14.159,5.557-18.571c3.286-2.771,5.71-2.062,5.71-2.062Z" transform="translate(-698.051 -381.766)" fill="#1e1e1e"/>
          <path id="Path_3022-2" data-name="Path 3022-2" d="M710.854,384a18.01,18.01,0,0,0,.008,4.047c-.024-.385,1.041-1.245,1.727-1.467a5.462,5.462,0,0,1,4.67.374,6.673,6.673,0,0,1,2.951,3.966,29.158,29.158,0,0,0,2.782,5.961c1.153,1.823,2.46,3.543,3.51,5.435,1.281,2.306,2.285,5.327-.275,7.159a5.735,5.735,0,0,1-1.668.826c-.313.1-1.334.426-1.63.2a5.681,5.681,0,0,0,6.8.319,8.942,8.942,0,0,0,4.176-7.544,23.424,23.424,0,0,0-3-10.726c-2.41-4.033-5.432-7.98-10.729-10.033C717.541,381.493,713.242,381.131,710.854,384Z" transform="translate(-698.051 -381.766)" fill="#1e1e1e"/>
          <g id="Group_9021-2" data-name="Group 9021-2" transform="translate(8.896 14.418)">
            <path id="Path_3023-2" data-name="Path 3023-2" d="M714.327,397.548l-5.058-.4-2.322.9,2.313-1.869,4.424.4Z" transform="translate(-706.947 -396.184)" fill="#474747"/>
            <path id="Path_3024-2" data-name="Path 3024-2" d="M712.475,401.269a1.628,1.628,0,0,0-3.255,0" transform="translate(-706.947 -396.184)"/>
            <line id="Line_75-2" data-name="Line 75-2" x1="1.226" transform="translate(0.307 5.086)" fill="none" stroke="#c48000" stroke-linecap="round" stroke-linejoin="round" stroke-width="0.25"/>
          </g>
          <g id="Group_9022-2" data-name="Group 9022-2" transform="translate(19.89 14.422)">
            <path id="Path_3025-2" data-name="Path 3025-2" d="M717.941,397.605l5.058-.453,2.322.905-2.313-1.869-4.424.453Z" transform="translate(-717.941 -396.188)" fill="#474747"/>
            <path id="Path_3026-2" data-name="Path 3026-2" d="M722.807,401.269a1.628,1.628,0,0,0-3.256,0" transform="translate(-717.941 -396.188)"/>
            <line id="Line_76-2" data-name="Line 76-2" x1="1.226" transform="translate(5.543 5.082)" fill="none" stroke="#c48000" stroke-linecap="round" stroke-linejoin="round" stroke-width="0.25"/>
          </g>
          <path id="Path_3027-2" data-name="Path 3027-2" d="M721.173,415.558l-5.094,23.409,9.63-12.841-1.922-2.207,2.483-3.9Z" transform="translate(-698.051 -381.766)" fill="#1e1e1e"/>
          <path id="Path_3028-2" data-name="Path 3028-2" d="M710.987,415.558l5.094,23.409-9.63-12.841,1.922-2.207-2.483-3.9Z" transform="translate(-698.051 -381.766)" fill="#1e1e1e"/>
          <g id="Group_9026-2" data-name="Group 9026-2" transform="translate(8.023 17.128)">
            <g id="Group_9024-2" data-name="Group 9024-2" transform="translate(7.717 1.257)">
              <g id="Group_9023-2" data-name="Group 9023-2" transform="translate(1.311)">
                <rect id="Rectangle_1754-2" data-name="Rectangle 1754-2" width="1.885" height="5.631" rx="0.91" fill="#ffba00"/>
              </g>
              <rect id="Rectangle_1755-2" data-name="Rectangle 1755-2" width="4.506" height="2.112" rx="1.022" transform="translate(0 2.727)" fill="#ffba00"/>
            </g>
            <g id="Group_9025-2" data-name="Group 9025-2">
              <path id="Path_3030-2" data-name="Path 3030-2" d="M714.617,399.937s-.677-1.2-4.082-1.025c-3.855.194-4.4.961-4.422,1.287a2.7,2.7,0,0,0,.412,1.955,6.025,6.025,0,0,0,3.96,1.373,5.9,5.9,0,0,0,3.217-.762C714.289,402.315,715.247,400.667,714.617,399.937Z" transform="translate(-706.074 -398.895)" fill="none" stroke="#1e1e1e" stroke-miterlimit="10" stroke-width="0.25"/>
              <path id="Path_3031-2" data-name="Path 3031-2" d="M717.471,399.937s.677-1.2,4.082-1.025c3.855.194,4.4.961,4.422,1.287a2.7,2.7,0,0,1-.411,1.955,6.028,6.028,0,0,1-3.961,1.373,5.9,5.9,0,0,1-3.217-.762C717.8,402.315,716.84,400.667,717.471,399.937Z" transform="translate(-706.074 -398.895)" fill="none" stroke="#1e1e1e" stroke-miterlimit="10" stroke-width="0.25"/>
              <path id="Path_3032-2" data-name="Path 3032-2" d="M717.284,400.643a3.23,3.23,0,0,0-2.48,0" transform="translate(-706.074 -398.895)" fill="none" stroke="#1e1e1e" stroke-miterlimit="10" stroke-width="0.5"/>
            </g>
          </g>
          <path id="Rectangle_1756-2" data-name="Rectangle 1756-2" d="M703.683,514.408h10.929v5.822H698.051v-.19a5.633,5.633,0,0,1,5.632-5.632Z" transform="translate(-698.051 -381.766)" fill="#5e3f3e"/>
          <path id="Rectangle_1757-2" data-name="Rectangle 1757-2" d="M717.113,514.408h10.929a5.632,5.632,0,0,1,5.632,5.632h0v.19H717.113v-5.822Z" transform="translate(-698.051 -381.766)" fill="#5e3f3e"/>
        </g>
        <path id="Rectangle_1724-2" data-name="Rectangle 1724-2" d="M788.283,521.012H769.192v-6.693h12.6a6.493,6.493,0,0,1,6.493,6.493v.2Z" transform="translate(-661.756 -375.618)" fill="#5e3f3e"/>
        <g id="Group_8998-2" data-name="Group 8998-2" transform="translate(84.405 80.39)">
          <g id="Group_8997-2" data-name="Group 8997-2">
            <path id="Path_2969-2" data-name="Path 2969-2" d="M747.363,467.476a11.4,11.4,0,0,0,3.63.161,1.193,1.193,0,0,1,.237.3,1.2,1.2,0,0,0,.735-.253v2.973a1.2,1.2,0,1,0,2.4,0v-6.734l.324.89a1.964,1.964,0,0,0,1.784,1.466,1.9,1.9,0,0,0,.438-.054.714.714,0,0,0,.472-.354.687.687,0,0,0,.034-.568V465.3a25.574,25.574,0,0,1-1.5-4.917,4.611,4.611,0,0,0-4.8-4.365,4.827,4.827,0,0,0-3.689,1.485,5.251,5.251,0,0,0-1.259,3.558v5.225A1.2,1.2,0,0,0,747.363,467.476Z" transform="translate(-746.161 -456.009)" fill="#ffda6a"/>
            <path id="Path_2970-2" data-name="Path 2970-2" d="M753.162,471.853a1.2,1.2,0,0,1-.734-.251v.007a1.2,1.2,0,0,1-2.4,0V471.6a1.2,1.2,0,0,1-1.933-.943v-1.367a1.2,1.2,0,0,1-1.934-.943v-7.291" transform="translate(-746.161 -456.009)" fill="#ffda6a"/>
            <path id="Path_2971-2" data-name="Path 2971-2" d="M746.628,461.058v7.291a.735.735,0,0,0,1.47,0v-3.5a.232.232,0,0,1,.464,0v5.811a.735.735,0,1,0,1.469,0v-5.811a.232.232,0,0,1,.464,0v6.761a.735.735,0,0,0,1.47,0v-6.761a.232.232,0,0,1,.464,0v5.811a.733.733,0,0,0,.734.732h0" transform="translate(-746.161 -456.009)" fill="#ffda6a"/>
            <rect id="Rectangle_1726-2" data-name="Rectangle 1726-2" width="1.933" height="3.639" transform="translate(3.87 10.32)" fill="#ffda6a"/>
          </g>
          <line id="Line_60-2" data-name="Line 60-2" y2="6.204" transform="translate(6.225 9.361)" fill="none" stroke="#000" stroke-linecap="round" stroke-linejoin="round" stroke-width="0.333"/>
          <line id="Line_61-2" data-name="Line 61-2" y2="6.204" transform="translate(3.872 9.361)" fill="none" stroke="#000" stroke-linecap="round" stroke-linejoin="round" stroke-width="0.333"/>
          <line id="Line_62-2" data-name="Line 62-2" y2="3.874" transform="translate(1.941 9.41)" fill="none" stroke="#000" stroke-linecap="round" stroke-linejoin="round" stroke-width="0.333"/>
        </g>
        <g id="Group_8999-2" data-name="Group 8999-2" transform="translate(83.75 35.576)">
          <path id="Rectangle_1727-2" data-name="Rectangle 1727-2" d="M766.6,411.194h1.485c11.544,0-.17,8.549,0,50.981,0-.077,2.051.535,2.051.922l-24.629.5h0V432.287A21.093,21.093,0,0,1,766.6,411.194Z" transform="translate(-745.506 -411.194)" fill="#1e1e1e"/>
        </g>
        <g id="Rectangle_1728-2" data-name="Rectangle 1728-2" transform="translate(92.103 86.658)">
          <rect id="Rectangle_1962" data-name="Rectangle 1962" width="12.23" height="52.043" fill="#1e1e1e"/>
        </g>
        <g id="Rectangle_1729-2" data-name="Rectangle 1729-2" transform="translate(106.857 86.658)">
          <rect id="Rectangle_1963" data-name="Rectangle 1963" width="12.23" height="52.043" fill="#1e1e1e"/>
        </g>
        <g id="Path_2972-2" data-name="Path 2972-2" transform="translate(88.905 35.104)">
          <path id="Path_6382" data-name="Path 6382" d="M784.018,467.164H750.661V427.33a16.679,16.679,0,0,1,33.357,0Z" transform="translate(-750.661 -410.722)" fill="#424242"/>
        </g>
        <path id="Path_6383" data-name="Path 6383" d="M779.8,393.9c0,6.461-5.576,10.725-12.454,10.725s-12.455-4.264-12.455-10.725,5.576-11.7,12.455-11.7S779.8,387.442,779.8,393.9Z" transform="translate(-661.756 -375.618)" fill="#1e1e3a"/>
        <rect id="Rectangle_1730-2" data-name="Rectangle 1730-2" width="11.74" height="18.022" transform="translate(99.752 30.424)" fill="#ffba00"/>
        <path id="Path_6384" data-name="Path 6384" d="M767.287,410.735h0c-6.1,0-9.8-4.368-11.047-10.072v-9.327a11.047,11.047,0,0,1,11.047-11.047h0a11.047,11.047,0,0,1,11.047,11.047v9.327C777.342,406.605,773.388,410.735,767.287,410.735Z" transform="translate(-661.756 -375.618)" fill="#ffda6a"/>
        <rect id="Rectangle_1731-2" data-name="Rectangle 1731-2" width="6.883" height="2.418" rx="1.173" transform="translate(102.182 22.852)" fill="#ffba00"/>
        <path id="Path_6385" data-name="Path 6385" d="M769.5,390.632l4.133.1,1.434,1.879-1.6-.655-4.088-.113Z" transform="translate(-661.756 -375.618)"/>
        <path id="Path_3001-2" data-name="Path 3001-2" d="M770.6,396a1.622,1.622,0,0,1,3.243-.008" transform="translate(-661.756 -375.618)"/>
        <path id="Path_6386" data-name="Path 6386" d="M765.366,390.632l-4.133.1-1.434,1.879,1.6-.655,4.088-.113Z" transform="translate(-661.756 -375.618)"/>
        <path id="Path_3001-2-2" data-name="Path 3001-2" d="M761.021,395.992a1.622,1.622,0,0,1,3.243.008" transform="translate(-661.756 -375.618)"/>
        <path id="Path_2973-2" data-name="Path 2973-2" d="M759.012,414.473l8.328,1.17,8.328-1.17L767.34,438.2Z" transform="translate(-661.756 -375.618)" fill="#fff"/>
        <path id="Path_2974-2" data-name="Path 2974-2" d="M768.567,419.06h-2.448l-1.035-3.4H769.6Z" transform="translate(-661.756 -375.618)" fill="#2d9c00"/>
        <path id="Path_2975-2" data-name="Path 2975-2" d="M766.12,419.063h2.448l1.141,10.545-2.463,8.6-2.275-8.516Z" transform="translate(-661.756 -375.618)" fill="#2d9c00"/>
        <g id="Path_2983-2" data-name="Path 2983-2" transform="translate(105.585 35.576)">
          <path id="Path_6387" data-name="Path 6387" d="M769.734,419.714l-2.074-4,5.524-4.171,2.152,2.9Z" transform="translate(-767.341 -411.194)" fill="#fff"/>
          <path id="Path_6388" data-name="Path 6388" d="M773.134,411.9l-5.155,3.892L769.8,419.3l5.2-4.89-1.868-2.518m.1-.7,2.434,3.28-6,5.649-2.324-4.479Z" transform="translate(-767.341 -411.194)" fill="#fff"/>
        </g>
        <g id="Path_2984-2" data-name="Path 2984-2" transform="translate(97.257 35.576)">
          <path id="Path_6389" data-name="Path 6389" d="M764.948,419.714l-5.6-5.27,2.152-2.9,5.524,4.171Z" transform="translate(-759.013 -411.194)" fill="#fff"/>
          <path id="Path_6390" data-name="Path 6390" d="M761.548,411.9l-1.869,2.518,5.2,4.89,1.825-3.516-5.155-3.892m-.1-.7,5.893,4.45-2.324,4.479-6-5.649Z" transform="translate(-759.013 -411.194)" fill="#fff"/>
        </g>
        <g id="Path_2985-2" data-name="Path 2985-2" transform="translate(94.122 36.043)">
          <path id="Path_6391" data-name="Path 6391" d="M766.853,437.137,756.522,423.4l2.091-2.393.123-.142-.1-.157-2.757-4.322,5.416-4.723Z" transform="translate(-755.878 -411.661)" fill="#1e1e1e"/>
        </g>
        <g id="Path_2986-2" data-name="Path 2986-2" transform="translate(106.072 36.043)">
          <path id="Path_6392" data-name="Path 6392" d="M767.828,437.137l5.559-25.476,5.416,4.723-2.757,4.322-.1.157.123.142,2.091,2.393Z" transform="translate(-767.828 -411.661)" fill="#1e1e1e"/>
        </g>
        <path id="Rectangle_1733-2" data-name="Rectangle 1733-2" d="M753.059,514.319h12.6v6.693H746.566v-.2A6.493,6.493,0,0,1,753.059,514.319Z" transform="translate(-661.756 -375.618)" fill="#5e3f3e"/>
        <path id="Path_6393" data-name="Path 6393" d="M767.027,381.054c0,.92,0,1.574-.33,1.574-.391,0-.331-.654-.331-1.574s.148-1.665.331-1.665S767.027,380.135,767.027,381.054Z" transform="translate(-661.756 -375.618)" fill="#fff"/>
        <path id="Path_6394" data-name="Path 6394" d="M766.585,382.618V376.3s-1.1-1.08-4.184-.517c-4.942.9-12.132,7.718-8.127,19.85l1.966-.911a26.32,26.32,0,0,1,1.487-5.741C759.211,385.179,761.264,382.226,766.585,382.618Z" transform="translate(-661.756 -375.618)"/>
        <path id="Path_6395" data-name="Path 6395" d="M766.809,382.618v-6.211a9.007,9.007,0,0,1,5.51-.517c4.313.979,12.259,8.085,8.128,19.85l-1.967-.911S775.681,381.222,766.809,382.618Z" transform="translate(-661.756 -375.618)"/>
        <path id="Path_6396" data-name="Path 6396" d="M757.051,393.957s.963-.057,1.24-2.991c.416-4.4,1.68-6.035,1.68-6.035l-1.138-.956-3.172,10.044Z" transform="translate(-661.756 -375.618)"/>
        <path id="Path_6397" data-name="Path 6397" d="M777.613,393.957a3.781,3.781,0,0,1-1.731-3.325,9.363,9.363,0,0,0-1.621-5.007l2.762,2.125,1.98,6.269Z" transform="translate(-661.756 -375.618)"/>
        <ellipse id="Ellipse_429-2" data-name="Ellipse 429-2" cx="3.587" cy="3.581" rx="3.587" ry="3.581" transform="translate(90.713 18.199)" fill="#ffda6a"/>
        <ellipse id="Ellipse_430-2" data-name="Ellipse 430-2" cx="3.587" cy="3.581" rx="3.587" ry="3.581" transform="translate(113.175 18.199)" fill="#ffda6a"/>
      </g>
    </g>
  </g>
  <path id="Rectangle_1732-2" data-name="Rectangle 1732-2" d="M767.372,401.905h0a1.671,1.671,0,0,0,1.637-1.7v-2.866a1.671,1.671,0,0,0-1.637-1.7h0a1.671,1.671,0,0,0-1.636,1.7V400.2A1.671,1.671,0,0,0,767.372,401.905Z" transform="translate(-661.756 -319.301)" fill="#ffba00"/>
  <g id="Group_9333" data-name="Group 9333" transform="translate(101.379 84.163)">
    <path id="Path_6414" data-name="Path 6414" d="M987.156,345.721h9.105a5.612,5.612,0,0,1-9.105,0Z" transform="translate(-987.156 -345.721)" fill="#ff4040"/>
  </g>
  <g id="Group_9334" data-name="Group 9334" transform="translate(49.6 87.363)">
    <path id="Path_6414-2" data-name="Path 6414" d="M987.156,345.721h9.105a5.612,5.612,0,0,1-9.105,0Z" transform="translate(-987.156 -345.721)" fill="#ff4040"/>
  </g>
</svg>
